<svg id="Layer_1" enable-background="new 0 0 512 512" height="512" viewBox="0 0 512 512" width="512" xmlns="http://www.w3.org/2000/svg"><g><path d="m268 212.1c.8 5.5 1.3 11.2 1.8 16.8 2.6 28.4 5.1 55.2 39.5 68.2 30.9 11.7 55.8 36.7 71.1 55.5 16 19.6 26.5 38.1 31 48.4 7.2-1.8 13.9-3.9 19.9-6 7.3-2.5 14-5.2 20.1-8-36.3-26.9-115.3-123.2-140.3-162.7-8.5-13.5-16.3-27.5-23.3-41.9-5.2-10.6-15.9-28.5-28.7-28.7h-.2c-8.6 0-17.9 8.2-27.2 23.7 14.1 2.1 32.9 10.8 36.3 34.7z"/><path d="m412.7 175.3 17.1 18.4h36.9c5.1 0 10.1-2.1 13.6-5.9 3.5-3.7 5.2-8.7 4.9-13.8-.8-10.2-9.8-17.8-20-16.9-1.5.1-3 .4-4.5.9-3.1 1.1-6.5-.6-7.6-3.7-.2-.6-.3-1.3-.3-1.9-.1-10.2-8.4-18.4-18.6-18.4-9.7.1-17.8 7.7-18.3 17.4-.1 3-2.6 5.5-5.6 5.6-5.3.3-10.4 3.6-13.9 7.7 6.3 2.1 11.9 5.7 16.3 10.6z"/><path d="m68.1 310.6c3.4-7.5 6.4-15.1 9-22.9 4.8-13.5 9.4-26.5 17.6-33.4-10.7-2.8-22.1.5-29.6 8.6l-41.3 45.1c-1.1 1.2-1.8 2.9-1.8 4.5v25.6c11.6-2.3 37.6-9.6 46.1-27.5z"/><path d="m385.2 206.2c7.6 9.2 32.2 7.4 47.3 5l-27.1-29.1c-11.2-12-30-12.7-42-1.5-.3.2-.5.5-.8.8l-10.6 10.6c10.3.6 24.3 3.5 33.2 14.2z"/><path d="m461.8 382.1c9.9-4.9 19.3-10.7 28.2-17.3v-89.2c0-1.7-.6-3.3-1.8-4.6l-47.6-51.1c-9.9 2.1-20 3.2-30.1 3.4-12.9 0-26.2-2.4-33-10.7-9.8-11.9-29.9-10.9-35.6-10.3l-20.1 20.2c29.9 45.7 111 142.1 140 159.6z"/><path d="m140.5 283.4-35.1-23.8c-8.7 2.7-13.5 16.1-18.9 31.5-2.7 8.1-5.8 16-9.4 23.8-11 23.3-43.3 31.2-55.1 33.4v36.7c4.8-1 12.2-2.5 22-3.9 7.6-7.1 52.5-49 96.5-97.7z"/><path d="m60.9 378.9c8.5-.9 18-1.7 28.5-2.3 60.3-3 120.7 4.1 178.7 20.7 53.4 15.4 99 13.3 133.5 6-10-21.7-46-78.1-95.7-96.9-40.2-15.2-43.2-47.9-45.9-76.6-.5-5.7-1-11-1.8-16.3-3.3-22.8-24.2-26-31.9-26.4-18.4 33.6-53.4 77.6-104 130.6-25.2 26.4-48.3 48.8-61.4 61.2zm205.1-33.4c2.7-.4 5.2 1.5 5.6 4.2.1.7 2.5 13.9 21.4 18.8 23.6 6 34.7 15 35.2 15.4 2.1 1.8 2.4 4.9.6 7s-4.8 2.4-7 .7c-.1-.1-10-8-31.3-13.4-25.8-6.6-28.7-26.2-28.8-27.1-.4-2.7 1.5-5.2 4.3-5.6zm-54.1-111c1.6-2.1 3.2-4.1 4.8-6.2 1.7-2.2 4.8-2.7 7-1s2.7 4.8 1 7c0 0 0 .1-.1.1-1.6 2.1-3.2 4.2-4.8 6.3-1.7 2.2-4.8 2.6-7 .9s-2.6-4.9-.9-7.1zm-55 63.7c16.7-17.9 31.7-35 44.7-50.8 1.8-2.1 4.9-2.4 7-.7s2.4 4.9.7 7c-13.1 15.9-28.2 33.2-45.1 51.3-1.9 2-5.1 2.1-7.1.2-1.9-1.9-2-5-.2-7z"/><path d="m242.1 400.9c-49.7-11.9-100.8-16.7-151.9-14.3-34.8 1.8-59.3 6.6-68.2 8.6v39.6h.2c5.7-1.1 11.2-2.6 16.6-4.5 33.3-12.1 103.6-31.7 203.3-29.4z"/><path d="m434.7 404.5c-28 9.6-57.5 14.5-87.1 14.4-17.5 0-35-1.6-52.2-4.9-45.5-4.6-91.3-4.6-136.7 0 51.7 12.7 166.5 38.9 204.4 31.8 60.6-11.4 100.9-9.3 119.5-7.1l7.5 1.1c0-.3 0-.5 0-.8v-62c-17.3 11.7-35.9 20.9-55.4 27.5z"/><path d="m142.6 151c14.4 0 26-11.7 26-26 0-14.4-11.7-26-26-26-14.4 0-26 11.7-26 26s11.7 26 26 26z"/><path d="m142.6 92.5c2.8 0 5-2.2 5-5v-17.6c0-2.8-2.2-5-5-5s-5 2.2-5 5v17.6c0 2.7 2.3 5 5 5z"/><path d="m147.6 163.8c0-2.8-2.2-5-5-5s-5 2.2-5 5v17.6c0 2.8 2.2 5 5 5s5-2.2 5-5z"/><path d="m176 125.6c0 2.8 2.2 5 5 5h17.7c2.8 0 5-2.2 5-5s-2.2-5-5-5h-17.7c-2.8 0-5 2.3-5 5z"/><path d="m86.6 130.6h17.7c2.8 0 5-2.2 5-5s-2.2-5-5-5h-17.7c-2.8 0-5 2.2-5 5s2.3 5 5 5z"/><path d="m178.7 168.6c.9.9 2.2 1.5 3.5 1.5 2.8 0 5-2.2 5-5 0-1.3-.5-2.6-1.5-3.5l-12.5-12.4c-1.9-2-5.1-2-7.1-.1s-2 5.1-.1 7.1c0 0 .1.1.1.1z"/><path d="m112 102.2c2 1.9 5.1 1.9 7.1 0 1.9-2 1.9-5.1 0-7.1l-12.5-12.4c-2-1.9-5.1-1.9-7.1 0-1.9 2-1.9 5.1 0 7.1z"/><path d="m99.5 168.6c1.9 2 5.1 2 7.1 0l12.5-12.4c1.9-2 1.9-5.1 0-7.1-1.9-1.9-5.1-1.9-7 0l-12.5 12.4c-2.1 2-2.1 5.1-.1 7.1z"/><path d="m169.7 103.6c1.3 0 2.6-.5 3.5-1.5l12.5-12.4c2-1.9 2-5.1 0-7.1s-5.1-2-7.1 0l-12.5 12.4c-2 1.9-2 5.1 0 7.1 1 1 2.3 1.5 3.6 1.5z"/></g></svg>