<svg id="Livello_1" data-name="Livello 1" xmlns="http://www.w3.org/2000/svg" viewBox="0 0 369.41 79.55"><title>logo</title><path d="M229.84,8.87v53A2.21,2.21,0,0,1,227.63,64h-4.41A2.21,2.21,0,0,1,221,61.83v-53a8.88,8.88,0,0,1,.72-3.31l1.07-2.1A20.06,20.06,0,0,1,225.42,0a28.62,28.62,0,0,1,4,6.73Z" style="fill:#8ec13f"/><path d="M229.84,8.87v.2a7.89,7.89,0,0,0-2.35,2.56,7.8,7.8,0,0,0-1,2.9l-2.19-.29a9.83,9.83,0,0,1,1-3.26,11.49,11.49,0,0,0-1.89-3.65,11.93,11.93,0,0,0-1.72-1.78,14.34,14.34,0,0,1,1.07-2.1A28.07,28.07,0,0,1,225.19,6a13.63,13.63,0,0,1,1.7,2.87,17.53,17.53,0,0,1,2.52-2.09A6.38,6.38,0,0,1,229.84,8.87Z" style="fill:#c8d952"/><path d="M229.84,16.38v2.46a4.85,4.85,0,0,0-2.43,1.72,5,5,0,0,0-.89,3.6l-2.19.31a7.21,7.21,0,0,1,1.31-5.23A11,11,0,0,1,229.84,16.38Z" style="fill:#c8d952"/><path d="M225.26,38.13,223.38,37a6.11,6.11,0,0,0,0-6.6A7.88,7.88,0,0,0,221,27.83v-3a17.52,17.52,0,0,1,4.27,4.45,8.81,8.81,0,0,1,1.25,3.77A8.47,8.47,0,0,1,225.26,38.13Z" style="fill:#c8d952"/><path d="M229.84,39.52V42a5,5,0,0,0-2.43,1.71,5.93,5.93,0,0,0,.07,6.5l-1.9,1.13a8.12,8.12,0,0,1,.07-8.95A10.3,10.3,0,0,1,229.84,39.52Z" style="fill:#c8d952"/><path d="M242.84,14.73c-3,1-3.4,7.4-3.77,9.81L239,25.9V61.83A2.21,2.21,0,0,1,236.76,64h-4.41a2.21,2.21,0,0,1-2.21-2.21V25.9c0-5.24,2-11.17,5.59-16.76S241.1,3.28,243.86,2c5.08-2,14.73-2,14.73-2S252,4.57,251,6.1C245.38,8.13,245.89,13.71,242.84,14.73Z" style="fill:#6b9e1d"/><path d="M253.61,1c-.16.73-.36,1.51-.6,2.28a6.52,6.52,0,0,0-3.65.93,4.82,4.82,0,0,0-1.78,3.56l-2.21,0A7,7,0,0,1,248,2.49,9.92,9.92,0,0,1,253.61,1Z" style="fill:#c8d952"/><path d="M240.06,12.6a12.55,12.55,0,0,1-.73,4.93l-2.07-.75a10.45,10.45,0,0,0,.6-4.07,10.76,10.76,0,0,0-1.26-4.49c.22-.32.47-.63.73-.95l.86-1A18.73,18.73,0,0,1,240.06,12.6Z" style="fill:#c8d952"/><path d="M239.07,18.53a9.49,9.49,0,0,0-.1,1.37V21a3.84,3.84,0,0,0-1.47.79c-1.45,1.28-1.77,3.91-.81,6.51l-2.07.77c-1.29-3.51-.74-7,1.4-8.94A12.5,12.5,0,0,1,239.07,18.53Z" style="fill:#c8d952"/><path d="M235.64,41.08l-2.16-.42a8.68,8.68,0,0,0-1-5.85,8.23,8.23,0,0,0-2.36-2.55V29.62a16,16,0,0,1,4.26,4.06A10.7,10.7,0,0,1,235.64,41.08Z" style="fill:#c8d952"/><path d="M239,48.51v2.33a4.57,4.57,0,0,0-2.4,1.69,5.05,5.05,0,0,0,0,5.43l-1.9,1.13a7.24,7.24,0,0,1,0-7.81A9.31,9.31,0,0,1,239,48.51Z" style="fill:#c8d952"/><path d="M23.49,64,14,46.21q-2.94.13-5.25.13H7V64H0V17H10.69q8.13,0,13.38,3.39t5.25,10.88a14.73,14.73,0,0,1-2.24,8.19,14,14,0,0,1-6.53,5.25L31.74,64Zm-12-23.49q6.27,0,8.58-2.69a9.68,9.68,0,0,0,2.37-6.53q0-8.38-11.2-8.38H7v17.6Z"/><path d="M64.34,64.64a17.2,17.2,0,0,1-8.77-2A13,13,0,0,1,50.39,57a17.74,17.74,0,0,1-1.66-7.68,16.84,16.84,0,0,1,1.92-8.19,13.46,13.46,0,0,1,5.44-5.38,15.8,15.8,0,0,1,7.81-1.92q6.78,0,10,3.78t3.33,10.5a34.85,34.85,0,0,1-.19,3.58H56a9.25,9.25,0,0,0,2.75,5.63,8.94,8.94,0,0,0,5.82,1.73,20.73,20.73,0,0,0,5.06-.51,16.2,16.2,0,0,0,3.65-1.41l2.11,4.93A16.32,16.32,0,0,1,71,63.87,25,25,0,0,1,64.34,64.64Zm6.21-17.73q.06-4-1.73-5.57a7.25,7.25,0,0,0-5.12-1.66Q57,39.68,56,46.91Z"/><path d="M110.05,64.64a16.62,16.62,0,0,1-7.87-1.86,14.34,14.34,0,0,1-5.5-5.44,16.61,16.61,0,0,1-2-8.38A16.28,16.28,0,0,1,96.49,41a13.26,13.26,0,0,1,5.31-5.31,16.51,16.51,0,0,1,7.94-1.86,16.88,16.88,0,0,1,5.82.9,10.85,10.85,0,0,1,3.9,2.11l-3.07,5.57a8.39,8.39,0,0,0-6.08-2.69,7.87,7.87,0,0,0-6.27,2.5,10,10,0,0,0-2.11,6.66q0,4.74,2.18,7.36a7.73,7.73,0,0,0,6.21,2.62,12.88,12.88,0,0,0,3.84-.58A9.53,9.53,0,0,0,117.09,57l2.5,4.86a14.25,14.25,0,0,1-4,2A17.54,17.54,0,0,1,110.05,64.64Z"/><path d="M138.52,34.62h7.17V64h-7.17Zm3.52-5.5a4.59,4.59,0,0,1-4.67-4.67,4.09,4.09,0,0,1,1.34-3.07A4.64,4.64,0,0,1,142,20.1a4.55,4.55,0,0,1,3.26,1.28,4.09,4.09,0,0,1,1.35,3.07,4.52,4.52,0,0,1-1.35,3.33A4.31,4.31,0,0,1,142,29.12Z"/><path d="M167.23,34.62h6.66v5.44q3.52-6.21,11-6.21a13.35,13.35,0,0,1,10,4q3.84,3.9,3.84,11.33a16.7,16.7,0,0,1-1.92,8.13,13.42,13.42,0,0,1-5.12,5.44,13.66,13.66,0,0,1-7.17,1.92,15.2,15.2,0,0,1-6.47-1.28,10.37,10.37,0,0,1-4.22-3.78l.06,20h-6.72ZM183,58.82a8,8,0,0,0,6.4-2.62,10.33,10.33,0,0,0,2.24-6.85,10.12,10.12,0,0,0-2.24-6.91,7.84,7.84,0,0,0-6.4-2.62A8.75,8.75,0,0,0,178.62,41a8.24,8.24,0,0,0-3.2,3.2,9.63,9.63,0,0,0-1.15,4.8v.45a10.37,10.37,0,0,0,1.15,4.93,9.23,9.23,0,0,0,3.2,3.33A8.52,8.52,0,0,0,183,58.82Z"/><path d="M262.17,34.62h7.17V64h-7.17Zm3.52-5.5A4.59,4.59,0,0,1,261,24.45a4.09,4.09,0,0,1,1.34-3.07,4.64,4.64,0,0,1,3.33-1.28A4.56,4.56,0,0,1,269,21.38a4.1,4.1,0,0,1,1.34,3.07A4.52,4.52,0,0,1,269,27.78,4.31,4.31,0,0,1,265.69,29.12Z"/><path d="M290.74,34.62h6.78l.06,5.38a10.33,10.33,0,0,1,3.84-4.42,10.92,10.92,0,0,1,6.14-1.73q4.54,0,7,1.92A9.05,9.05,0,0,1,317.82,41a38.2,38.2,0,0,1,.83,8.83V64h-6.91V50q0-5.57-1.09-8t-4.48-2.5a7.45,7.45,0,0,0-3.9,1.22,9.41,9.41,0,0,0-3.33,3.39,10.4,10.4,0,0,0-1.28,5.25V64h-6.91Z"/><path d="M353.67,79.36a23.87,23.87,0,0,1-6.46-.9,22,22,0,0,1-4.48-1.66l1.54-6.4a16.55,16.55,0,0,0,9.22,2.75,10.91,10.91,0,0,0,6.46-1.86q2.62-1.86,2.69-7.23V58.82A10.54,10.54,0,0,1,358.28,63a13.52,13.52,0,0,1-6.66,1.66,13.78,13.78,0,0,1-7-1.86,13.55,13.55,0,0,1-5.06-5.44,17.32,17.32,0,0,1-1.86-8.19,17.51,17.51,0,0,1,1.73-7.94,13,13,0,0,1,5.06-5.44,14.74,14.74,0,0,1,7.62-1.92,12.8,12.8,0,0,1,4.8.9A13,13,0,0,1,360.64,37a6.59,6.59,0,0,1,2.11,2.56l.13-4.93h6.53V63.81q0,7.49-3.84,11.52T353.67,79.36Zm-.13-20.54a8.35,8.35,0,0,0,6.14-2.5,9.13,9.13,0,0,0,2.5-6.66v-.45A10.37,10.37,0,0,0,361,44.29a8.6,8.6,0,0,0-3.14-3.39,8.17,8.17,0,0,0-4.35-1.22,7.79,7.79,0,0,0-6.34,2.69A10.18,10.18,0,0,0,345,49.22a10.74,10.74,0,0,0,2.18,7A8,8,0,0,0,353.54,58.82Z"/></svg>