<svg width="513" height="414" viewBox="0 0 513 414" fill="none" xmlns="http://www.w3.org/2000/svg">
<path d="M88.1705 402.046C109.124 409.616 131.246 413.44 153.525 413.346C177.852 413.262 201.994 409.105 224.949 401.046C271.09 384.997 309.401 355.132 332.826 316.953C356.566 278.26 362.24 235.672 348.801 197.034C348.54 196.298 348.239 195.577 347.901 194.874C351.273 197.261 355.133 198.87 359.203 199.583C363.273 200.297 367.45 200.098 371.434 199L498.415 137.384C501.285 136.005 503.851 134.069 505.965 131.689C508.079 129.309 509.699 126.532 510.729 123.52C511.759 120.508 512.18 117.321 511.967 114.145C511.754 110.968 510.911 107.866 509.488 105.019L507.613 101.272C504.849 95.7203 500.04 91.4569 494.197 89.3782C488.354 87.2995 481.932 87.5676 476.283 90.126L356.702 144.726C350.743 146.379 345.493 149.944 341.757 154.871C338.021 159.799 336.007 165.817 336.025 172C336.023 175.174 336.564 178.326 337.625 181.318L335.272 182.887C303.881 167.187 227.749 179.844 156.617 204.587C152.437 206.04 148.271 207.538 144.117 209.081C136.255 179.958 156.599 158.761 157.706 157.638L146.372 146.346C138.619 154.729 132.821 164.726 129.393 175.617C125.345 188.374 125.233 202.055 129.072 214.877C116.271 219.988 103.972 225.391 92.3325 231.006C85.8775 207.044 85.3045 182.32 86.1835 164.454C86.356 160.848 85.8061 157.244 84.5661 153.853C83.3261 150.463 81.4211 147.354 78.9629 144.71C76.5047 142.066 73.543 139.94 70.2516 138.457C66.9602 136.974 63.4056 136.163 59.7966 136.073C56.1876 135.983 52.5969 136.615 49.2356 137.932C45.8742 139.249 42.8099 141.224 40.2227 143.742C37.6354 146.26 35.5775 149.269 34.1696 152.593C32.7618 155.918 32.0325 159.49 32.0245 163.1V219.68C32.0221 220.826 31.5655 221.924 30.7548 222.734C29.9441 223.544 28.8454 223.999 27.6995 224C25.0204 223.999 22.3675 224.528 19.8936 225.556C17.4196 226.584 15.1734 228.092 13.2843 229.991C11.3952 231.891 9.90041 234.146 8.88599 236.625C7.87157 239.105 7.35755 241.761 7.3735 244.44C7.72817 257.42 10.0413 270.273 14.2345 282.562C1.9935 295.667 -2.3845 307.546 1.2245 317.925C14.6655 356.563 45.5435 386.438 88.1705 402.046ZM219.693 385.929C177.031 400.768 132.277 401.157 93.6715 387.022C65.1475 376.578 42.5715 359.116 28.0715 336.687C36.4365 338.324 44.9486 339.09 53.4715 338.973C58.3722 338.973 63.6055 338.782 69.1715 338.401C96.7545 336.509 129.951 329.928 164.789 319.585C165.489 319.697 184.564 313.448 193.415 310.37C213.601 303.384 233.412 295.357 252.769 286.321L253.176 286.131C274.105 276.282 292.835 265.807 308.234 255.248C322.013 245.801 332.392 236.862 339.371 228.429C345.39 292.316 296.586 359.184 219.693 385.929ZM302.979 224.929C301.293 239.269 298.486 242.223 298.367 242.342L298.522 242.497C291.9 247.007 284.635 251.505 276.823 255.944C282.043 245.611 285.491 234.475 287.025 223C287.288 221.062 288.245 219.286 289.717 217.999C291.19 216.712 293.078 216.002 295.034 216C296.163 216 297.279 216.238 298.31 216.701C299.34 217.163 300.261 217.838 301.012 218.682C301.763 219.525 302.326 220.518 302.666 221.595C303.005 222.673 303.113 223.809 302.982 224.931L302.979 224.929ZM482.876 104.7C484.758 103.852 486.896 103.765 488.84 104.459C490.784 105.153 492.383 106.574 493.303 108.422L495.177 112.169C495.653 113.121 495.934 114.159 496.004 115.222C496.074 116.284 495.931 117.35 495.584 118.356C495.236 119.363 494.692 120.29 493.981 121.083C493.271 121.876 492.41 122.52 491.448 122.976L392.01 171.415C391.929 167.459 391.009 163.566 389.311 159.993C387.612 156.419 385.174 153.247 382.158 150.687L482.876 104.7ZM364.025 160C366.528 159.997 368.969 160.778 371.006 162.233C373.043 163.688 374.574 165.745 375.382 168.114C376.191 170.483 376.238 173.046 375.516 175.443C374.794 177.84 373.339 179.951 371.357 181.479L366.957 183.624C365.533 183.999 364.051 184.095 362.591 183.906L364.466 182.657C365.351 182.079 366.113 181.332 366.708 180.458C367.303 179.584 367.718 178.6 367.931 177.565C368.143 176.529 368.148 175.461 367.946 174.424C367.743 173.386 367.337 172.399 366.75 171.519C366.164 170.64 365.409 169.885 364.529 169.299C363.649 168.713 362.662 168.307 361.624 168.105C360.586 167.903 359.519 167.908 358.483 168.121C357.447 168.334 356.464 168.75 355.591 169.345L352.043 171.71C352.12 168.582 353.416 165.607 355.654 163.42C357.892 161.233 360.895 160.006 364.025 160ZM145.879 245.122L158.171 234.879C155.265 231.418 152.656 227.72 150.37 223.822C154.188 222.413 158.031 221.035 161.87 219.698C205.62 204.481 248.271 194.827 281.953 192.517C297.626 191.443 310.836 192.069 320.152 194.33C327.733 196.168 332.539 198.994 333.684 202.287C334.828 205.58 332.814 210.777 328.012 216.923C325.232 220.393 322.179 223.634 318.883 226.616C319.558 220.332 317.731 214.036 313.798 209.089C309.865 204.142 304.142 200.944 297.867 200.186C291.593 199.428 285.273 201.172 280.275 205.04C275.277 208.907 272.004 214.588 271.164 220.852C267.1 250.763 249.418 268.194 244.486 272.534C226.099 281.047 207.297 288.631 188.151 295.258C179.989 298.097 171.884 300.737 163.835 303.18C132.228 297.08 109.88 277.98 97.3655 246.332C109.298 240.512 122.006 234.916 135.249 229.632C138.277 235.13 141.837 240.319 145.879 245.122ZM24.6245 241.278C25.0263 240.871 25.5053 240.549 26.0333 240.329C26.5613 240.11 27.1277 239.998 27.6995 240C33.0882 239.994 38.2544 237.851 42.0647 234.04C45.8751 230.23 48.0184 225.064 48.0245 219.675V163.1C48.0264 160.157 49.1964 157.334 51.2777 155.253C53.3589 153.172 56.1812 152.002 59.1245 152C60.6293 152.001 62.1182 152.307 63.5008 152.901C64.8833 153.496 66.1307 154.364 67.167 155.455C68.2033 156.547 69.007 157.837 69.5292 159.248C70.0513 160.659 70.2811 162.162 70.2045 163.665C69.0605 186.908 70.2495 221.102 82.4115 252.007C89.4165 269.807 99.3245 284.455 111.859 295.54C118.996 301.835 127.03 307.035 135.697 310.968C117.4 315.702 98.7984 319.168 80.0245 321.341L73.3415 320.109C55.4735 317.131 41.9035 305.842 33.0075 286.557C27.0685 273.249 23.7962 258.907 23.3755 244.34C23.3699 243.772 23.4775 243.209 23.6919 242.683C23.9064 242.158 24.2234 241.68 24.6245 241.278ZM16.3375 312.669C15.2305 309.488 17.0625 304.636 21.3295 298.942C26.0522 307.914 32.5058 315.861 40.3175 322.324C36.8002 321.996 33.3094 321.428 29.8695 320.624C22.2925 318.786 17.4885 315.963 16.3405 312.673V312.668L16.3375 312.669Z" fill="white" fill-opacity="0.5"/>
<path d="M72.0245 56C67.2778 56 62.6376 57.4076 58.6909 60.0447C54.7441 62.6819 51.6679 66.4302 49.8514 70.8156C48.0349 75.201 47.5597 80.0266 48.4857 84.6822C49.4117 89.3377 51.6975 93.6141 55.054 96.9706C58.4104 100.327 62.6868 102.613 67.3424 103.539C71.9979 104.465 76.8235 103.99 81.2089 102.173C85.5944 100.357 89.3427 97.2805 91.9798 93.3337C94.617 89.3869 96.0245 84.7468 96.0245 80C96.0174 73.637 93.4865 67.5367 88.9872 63.0373C84.4879 58.538 78.3875 56.0071 72.0245 56ZM72.0245 88C70.4423 88 68.8956 87.5308 67.58 86.6518C66.2644 85.7727 65.239 84.5233 64.6335 83.0615C64.028 81.5997 63.8696 79.9911 64.1783 78.4393C64.4869 76.8874 65.2489 75.462 66.3677 74.3431C67.4865 73.2243 68.912 72.4624 70.4638 72.1537C72.0157 71.845 73.6242 72.0035 75.086 72.609C76.5478 73.2145 77.7973 74.2398 78.6763 75.5554C79.5554 76.871 80.0245 78.4177 80.0245 80C80.0222 82.121 79.1785 84.1544 77.6788 85.6542C76.179 87.154 74.1455 87.9976 72.0245 88Z" fill="white" fill-opacity="0.5"/>
<path d="M152.025 24C152.025 19.2533 150.617 14.6131 147.98 10.6663C145.343 6.71954 141.594 3.64341 137.209 1.8269C132.824 0.0103989 127.998 -0.464881 123.342 0.461164C118.687 1.38721 114.41 3.67299 111.054 7.02945C107.698 10.3859 105.412 14.6623 104.486 19.3178C103.56 23.9734 104.035 28.799 105.851 33.1844C107.668 37.5698 110.744 41.3181 114.691 43.9553C118.638 46.5924 123.278 48 128.025 48C134.388 47.9929 140.488 45.462 144.987 40.9627C149.487 36.4634 152.017 30.363 152.025 24ZM120.025 24C120.025 22.4178 120.494 20.871 121.373 19.5554C122.252 18.2399 123.501 17.2145 124.963 16.609C126.425 16.0035 128.033 15.845 129.585 16.1537C131.137 16.4624 132.563 17.2243 133.681 18.3432C134.8 19.462 135.562 20.8874 135.871 22.4393C136.18 23.9911 136.021 25.5997 135.416 27.0615C134.81 28.5233 133.785 29.7727 132.469 30.6518C131.154 31.5308 129.607 32 128.025 32C125.904 31.9976 123.87 31.154 122.37 29.6542C120.871 28.1545 120.027 26.121 120.025 24Z" fill="white" fill-opacity="0.5"/>
<path d="M104.025 112H120.025V128H104.025V112Z" fill="white" fill-opacity="0.5"/>
<path d="M96.0245 184H112.025V200H96.0245V184Z" fill="white" fill-opacity="0.5"/>
<path d="M144.025 256H160.025V272H144.025V256Z" fill="white" fill-opacity="0.5"/>
<path d="M16.0245 104H32.0245V120H16.0245V104Z" fill="white" fill-opacity="0.5"/>
<path d="M83.5875 318.656L92.4625 305.344C72.9105 292.309 72.0475 280.3 72.0245 279.795C72.0315 279.93 72.0245 280 72.0245 280H56.0245C56.0245 282.076 56.7975 300.8 83.5875 318.656Z" fill="white" fill-opacity="0.5"/>
<path d="M162.514 75.689C165.818 70.6896 169.558 65.9917 173.689 61.65L162.368 50.343C161.293 51.419 136.025 77 136.025 104H152.025C152.025 95.842 155.652 86.052 162.514 75.689Z" fill="white" fill-opacity="0.5"/>
</svg>
