<svg id="Livello_1" data-name="Livello 1" xmlns="http://www.w3.org/2000/svg" viewBox="0 0 731.9 646.29"><title>buttons-styles-mobile</title><path d="M2.7,81.86V86.3H.62V74.35H5.18a4.61,4.61,0,0,1,3.17,1,3.49,3.49,0,0,1,1.18,2.76,3.38,3.38,0,0,1-1.16,2.73,4.83,4.83,0,0,1-3.22,1Zm0-1.67H5.18a2.47,2.47,0,0,0,1.69-.52,1.93,1.93,0,0,0,.58-1.51,2.05,2.05,0,0,0-.59-1.54A2.27,2.27,0,0,0,5.24,76H2.69Zm12.79-1a4.89,4.89,0,0,0-.81-.07,1.83,1.83,0,0,0-1.85,1v6.07h-2V77.31h1.9v1a2.25,2.25,0,0,1,2-1.16,1.87,1.87,0,0,1,.71.11Zm3,7h-2V77.31h2ZM16.37,75a1.07,1.07,0,0,1,.29-.76,1.3,1.3,0,0,1,1.67,0,1.12,1.12,0,0,1,0,1.52,1.33,1.33,0,0,1-1.67,0,1,1,0,0,1-.24-.71Zm5.83,2.31.06.93a3.19,3.19,0,0,1,2.56-1.09,2.45,2.45,0,0,1,2.44,1.36A3.15,3.15,0,0,1,30,77.16a2.76,2.76,0,0,1,2.18.81,3.57,3.57,0,0,1,.74,2.4V86.2h-2V80.48a1.77,1.77,0,0,0-.37-1.24,1.62,1.62,0,0,0-1.22-.39,1.67,1.67,0,0,0-1.12.37,1.92,1.92,0,0,0-.6,1v6.09h-2V80.47A1.42,1.42,0,0,0,24,78.9a1.76,1.76,0,0,0-1.7,1v6.43h-2V77.45ZM39.91,86.2a3.06,3.06,0,0,1-.23-.83,3.35,3.35,0,0,1-4.51.23,2.44,2.44,0,0,1-.84-1.89,2.51,2.51,0,0,1,1-2.17,5.11,5.11,0,0,1,3-.76h1.22V80.2a1.54,1.54,0,0,0-.39-1.1A1.52,1.52,0,0,0,38,78.68a1.74,1.74,0,0,0-1.12.34,1,1,0,0,0-.43.86h-2a2.2,2.2,0,0,1,.48-1.36,3.21,3.21,0,0,1,1.31-1,4.65,4.65,0,0,1,1.86-.36,3.71,3.71,0,0,1,2.49.79,2.78,2.78,0,0,1,1,2.2v4a4.54,4.54,0,0,0,.34,1.91v.14Zm-2.19-1.42a2.25,2.25,0,0,0,1.11-.29,1.91,1.91,0,0,0,.79-.77V82.08H38.55a2.93,2.93,0,0,0-1.67.39,1.25,1.25,0,0,0-.56,1.09,1.19,1.19,0,0,0,.38.92,1.5,1.5,0,0,0,1.07.38ZM48,79.16a4.9,4.9,0,0,0-.81-.07,1.83,1.83,0,0,0-1.85,1v6.07h-2V77.28h1.9v1a2.25,2.25,0,0,1,2-1.16,1.87,1.87,0,0,1,.71.11Zm4.18,4.2,1.8-6h2.19L52.65,87.58a2.87,2.87,0,0,1-2.76,2.24,3.57,3.57,0,0,1-1-.15V88.13h.38a1.9,1.9,0,0,0,1.13-.28,1.79,1.79,0,0,0,.61-.92l.29-.76-3.12-8.75h2.15Z" transform="translate(0 0)"/><path d="M186.6,12.78V.85h3.58a5.51,5.51,0,0,1,2.81.71,4.8,4.8,0,0,1,1.9,2,6.35,6.35,0,0,1,.67,3v.6a6.3,6.3,0,0,1-.68,3,4.72,4.72,0,0,1-1.93,2,5.77,5.77,0,0,1-2.86.7Zm2.08-10.27v8.61H190a3.11,3.11,0,0,0,2.5-1,4.45,4.45,0,0,0,.89-2.94V6.52a4.57,4.57,0,0,0-.84-3,3,3,0,0,0-2.45-1ZM201,12.94a4.15,4.15,0,0,1-3.08-1.16,4.35,4.35,0,0,1-1.17-3.18V8.35A5.34,5.34,0,0,1,197.22,6a3.92,3.92,0,0,1,1.44-1.63,3.81,3.81,0,0,1,2.07-.58,3.47,3.47,0,0,1,2.8,1.16,4.88,4.88,0,0,1,1,3.27V9h-5.8a2.67,2.67,0,0,0,.73,1.74,2.22,2.22,0,0,0,1.62.64,2.7,2.7,0,0,0,2.23-1.11l1.07,1A3.62,3.62,0,0,1,203,12.51a4.47,4.47,0,0,1-2,.45Zm-.24-7.6a1.69,1.69,0,0,0-1.33.57,3,3,0,0,0-.64,1.6h3.8V7.36A2.4,2.4,0,0,0,202,5.85a1.66,1.66,0,0,0-1.31-.5Zm5.72,7.44V5.38h-1.36V3.9h1.35V3.09a3,3,0,0,1,.82-2.28,3.14,3.14,0,0,1,2.3-.8,4.6,4.6,0,0,1,1.12.15V1.72a3.93,3.93,0,0,0-.76-.07,1.28,1.28,0,0,0-1.43,1.47v.79h1.7V5.39h-1.8v7.39Zm10.22,0a3.06,3.06,0,0,1-.23-.83,3.35,3.35,0,0,1-4.51.23,2.44,2.44,0,0,1-.84-1.89,2.51,2.51,0,0,1,1-2.17,5.11,5.11,0,0,1,3-.76h1.22V6.78a1.54,1.54,0,0,0-.39-1.1,1.52,1.52,0,0,0-1.17-.42,1.74,1.74,0,0,0-1.12.34,1,1,0,0,0-.43.86h-2a2.19,2.19,0,0,1,.48-1.36,3.21,3.21,0,0,1,1.31-1,4.65,4.65,0,0,1,1.86-.36,3.71,3.71,0,0,1,2.49.79,2.78,2.78,0,0,1,1,2.2v4a4.54,4.54,0,0,0,.34,1.91v.14Zm-2.19-1.44a2.25,2.25,0,0,0,1.11-.29,1.91,1.91,0,0,0,.79-.77V8.61h-1.09a2.94,2.94,0,0,0-1.67.39,1.25,1.25,0,0,0-.56,1.09,1.18,1.18,0,0,0,.38.92,1.5,1.5,0,0,0,1,.35Zm11,.57a3.09,3.09,0,0,1-2.49,1,2.77,2.77,0,0,1-2.19-.84A3.61,3.61,0,0,1,220,9.63V3.88h2V9.61q0,1.69,1.4,1.69a2,2,0,0,0,2-1V3.93h2v8.85h-1.88Zm5.71.87h-2V.18h2Zm4.34-11V3.94h1.57V5.42h-1.57v5a1.13,1.13,0,0,0,.2.74,1,1,0,0,0,.72.22,3.07,3.07,0,0,0,.7-.08v1.48a4.91,4.91,0,0,1-1.31.19q-2.3,0-2.3-2.53v-5h-1.46V4h1.46V1.78Z" transform="translate(0 0)"/><path d="M414.12,12.78H412V7.47h-5.34v5.31h-2.08V.85h2.08v5H412v-5h2.07Zm1.56-4.52a5.2,5.2,0,0,1,.52-2.35,3.74,3.74,0,0,1,1.45-1.61,4.07,4.07,0,0,1,2.15-.57,3.86,3.86,0,0,1,2.91,1.16A4.54,4.54,0,0,1,423.92,8v.47a5.25,5.25,0,0,1-.51,2.35,3.7,3.7,0,0,1-1.44,1.6,4.1,4.1,0,0,1-2.17.57,3.87,3.87,0,0,1-3-1.25,4.82,4.82,0,0,1-1.12-3.34Zm2,.17a3.59,3.59,0,0,0,.57,2.15,1.84,1.84,0,0,0,1.58.77,1.81,1.81,0,0,0,1.57-.79A3.93,3.93,0,0,0,422,8.25a3.51,3.51,0,0,0-.58-2.13,1.94,1.94,0,0,0-3.12,0,3.86,3.86,0,0,0-.59,2.33Zm10.61,1.82,1.88-6.35h2l-3,8.88h-1.73l-3.1-8.88h2.07Zm8.65,2.69a4.15,4.15,0,0,1-3.08-1.19,4.35,4.35,0,0,1-1.17-3.18V8.32A5.34,5.34,0,0,1,433.2,6a3.92,3.92,0,0,1,1.44-1.63,3.8,3.8,0,0,1,2.07-.58,3.47,3.47,0,0,1,2.8,1.16,4.88,4.88,0,0,1,1,3.27V9h-5.8a2.67,2.67,0,0,0,.73,1.74,2.22,2.22,0,0,0,1.62.64,2.7,2.7,0,0,0,2.23-1.11l1.08,1a3.61,3.61,0,0,1-1.43,1.24,4.46,4.46,0,0,1-2,.48Zm-.24-7.6a1.69,1.69,0,0,0-1.33.57,3,3,0,0,0-.64,1.6h3.8V7.36A2.4,2.4,0,0,0,438,5.85a1.66,1.66,0,0,0-1.31-.5Zm9.66.39a4.93,4.93,0,0,0-.81-.07,1.83,1.83,0,0,0-1.85,1.05v6.07h-2V3.9h1.9v1a2.24,2.24,0,0,1,2-1.16,1.87,1.87,0,0,1,.71.11Z" transform="translate(0 0)"/><path d="M607.83,12.78V.85h3.53a5.52,5.52,0,0,1,2.81.71,4.81,4.81,0,0,1,1.9,2,6.36,6.36,0,0,1,.67,3v.6a6.37,6.37,0,0,1-.68,3,4.71,4.71,0,0,1-1.93,2,5.77,5.77,0,0,1-2.86.7Zm2.08-10.27v8.61h1.36a3.09,3.09,0,0,0,2.5-1,4.42,4.42,0,0,0,.9-2.94V6.52a4.58,4.58,0,0,0-.84-3,3,3,0,0,0-2.46-1ZM620.4,12.78h-2V3.9h2ZM618.27,1.61a1.08,1.08,0,0,1,.29-.76,1.3,1.3,0,0,1,1.67,0,1.13,1.13,0,0,1,0,1.52,1.33,1.33,0,0,1-1.67,0A1.07,1.07,0,0,1,618.27,1.61Zm8.93,8.77a.9.9,0,0,0-.44-.81,4.55,4.55,0,0,0-1.45-.49,7.52,7.52,0,0,1-1.7-.54,2.27,2.27,0,0,1-1.49-2.09,2.36,2.36,0,0,1,1-1.92,3.84,3.84,0,0,1,2.46-.77,4,4,0,0,1,2.57.79,2.51,2.51,0,0,1,1,2h-2a1.21,1.21,0,0,0-.43-1,1.61,1.61,0,0,0-1.13-.39,1.79,1.79,0,0,0-1.08.3,1,1,0,0,0-.41.81.8.8,0,0,0,.39.71A5.31,5.31,0,0,0,626,7.5a7.07,7.07,0,0,1,1.84.62,2.57,2.57,0,0,1,1,.85,2.18,2.18,0,0,1,.33,1.21,2.33,2.33,0,0,1-1,1.94,4.27,4.27,0,0,1-2.6.74,4.56,4.56,0,0,1-1.94-.39,3.16,3.16,0,0,1-1.33-1.08,2.53,2.53,0,0,1-.48-1.48h1.93a1.44,1.44,0,0,0,.53,1.09,2.09,2.09,0,0,0,1.31.38,2,2,0,0,0,1.2-.3.93.93,0,0,0,.39-.7Zm8.67,2.41a3.39,3.39,0,0,1-.23-.83,3.33,3.33,0,0,1-4.5.24,2.43,2.43,0,0,1-.85-1.89,2.51,2.51,0,0,1,1-2.17,5.11,5.11,0,0,1,3-.76h1.22v-.6a1.4,1.4,0,0,0-1.56-1.52,1.73,1.73,0,0,0-1.11.34,1,1,0,0,0-.43.86h-2a2.2,2.2,0,0,1,.48-1.36,3.22,3.22,0,0,1,1.32-1,4.63,4.63,0,0,1,1.86-.36,3.71,3.71,0,0,1,2.49.79,2.8,2.8,0,0,1,1,2.2v4a4.54,4.54,0,0,0,.34,1.91v.14Zm-2.19-1.44a2.22,2.22,0,0,0,1.11-.29,1.92,1.92,0,0,0,.79-.77V8.62H634.5a2.92,2.92,0,0,0-1.66.39,1.24,1.24,0,0,0-.56,1.09,1.18,1.18,0,0,0,.38.92,1.5,1.5,0,0,0,1,.34Zm13.43-2.91a5.28,5.28,0,0,1-.93,3.29,3,3,0,0,1-2.53,1.22,2.9,2.9,0,0,1-2.43-1.12l-.1,1h-1.85V.23h2V4.78a2.89,2.89,0,0,1,2.32-1A3,3,0,0,1,646.14,5a5.39,5.39,0,0,1,.93,3.37Zm-2-.17a3.74,3.74,0,0,0-.51-2.17,1.68,1.68,0,0,0-1.48-.72,1.85,1.85,0,0,0-1.82,1.13v3.66a1.87,1.87,0,0,0,1.84,1.16,1.68,1.68,0,0,0,1.44-.7,3.7,3.7,0,0,0,.53-2.11Zm5.45,4.52h-2V.19h2Zm5.75.16a4.15,4.15,0,0,1-3-1.17,4.37,4.37,0,0,1-1.17-3.18V8.35a5.38,5.38,0,0,1,.5-2.37,3.94,3.94,0,0,1,1.45-1.63,3.79,3.79,0,0,1,2.06-.58A3.48,3.48,0,0,1,659,4.93a4.9,4.9,0,0,1,1,3.27V9h-5.8a2.65,2.65,0,0,0,.73,1.74,2.22,2.22,0,0,0,1.62.64,2.7,2.7,0,0,0,2.23-1.11l1.07,1a3.56,3.56,0,0,1-1.42,1.24,4.5,4.5,0,0,1-2,.45Zm-.24-7.6a1.69,1.69,0,0,0-1.33.57,3,3,0,0,0-.64,1.6h3.79V7.37a2.41,2.41,0,0,0-.53-1.51,1.66,1.66,0,0,0-1.26-.51Zm4.64,2.94a5.24,5.24,0,0,1,1-3.29,3,3,0,0,1,2.56-1.22,2.89,2.89,0,0,1,2.28,1V.24h2V12.78h-1.81l-.1-.92a2.94,2.94,0,0,1-2.39,1.08,3,3,0,0,1-2.53-1.26,5.51,5.51,0,0,1-1-3.39Zm2,.17a3.69,3.69,0,0,0,.52,2.12,1.7,1.7,0,0,0,1.48.75,1.88,1.88,0,0,0,1.78-1.09V6.45a1.85,1.85,0,0,0-1.77-1.07,1.7,1.7,0,0,0-1.49.77,4.09,4.09,0,0,0-.49,2.31Z" transform="translate(0 0)"/><path d="M6.87,174.22A1.44,1.44,0,0,0,6.31,173a6.6,6.6,0,0,0-2-.86,9.64,9.64,0,0,1-2.3-1,3.07,3.07,0,0,1-1.63-2.67,2.91,2.91,0,0,1,1.17-2.38,4.78,4.78,0,0,1,3.06-.94,5.17,5.17,0,0,1,2.22.46,3.64,3.64,0,0,1,1.53,1.31,3.34,3.34,0,0,1,.56,1.88H6.85a1.85,1.85,0,0,0-.59-1.46,2.39,2.39,0,0,0-1.67-.53,2.55,2.55,0,0,0-1.58.43,1.45,1.45,0,0,0-.56,1.21,1.32,1.32,0,0,0,.61,1.1,7.16,7.16,0,0,0,2,.85,9,9,0,0,1,2.24.94,3.52,3.52,0,0,1,1.24,1.21,3.14,3.14,0,0,1,.39,1.6,2.85,2.85,0,0,1-1.15,2.38,5,5,0,0,1-3.1.88,5.91,5.91,0,0,1-2.39-.48A4.07,4.07,0,0,1,.6,175.61a3.32,3.32,0,0,1-.6-2H2.08a1.93,1.93,0,0,0,.67,1.57,3,3,0,0,0,1.93.56,2.56,2.56,0,0,0,1.62-.43A1.42,1.42,0,0,0,6.87,174.22Zm7.28,3.24a4.14,4.14,0,0,1-3.08-1.19,4.35,4.35,0,0,1-1.17-3.18v-.25a5.34,5.34,0,0,1,.51-2.37,3.93,3.93,0,0,1,1.44-1.63,3.8,3.8,0,0,1,2.07-.58,3.47,3.47,0,0,1,2.8,1.16,4.88,4.88,0,0,1,1,3.27v.8h-5.8a2.68,2.68,0,0,0,.73,1.74,2.22,2.22,0,0,0,1.62.64,2.7,2.7,0,0,0,2.23-1.11l1.07,1A3.61,3.61,0,0,1,16.14,177a4.47,4.47,0,0,1-2,.46Zm-.24-7.6a1.69,1.69,0,0,0-1.33.57,3,3,0,0,0-.64,1.6h3.8v-.15a2.41,2.41,0,0,0-.53-1.51,1.66,1.66,0,0,0-1.3-.52Zm8.66,6a1.8,1.8,0,0,0,1.24-.43,1.49,1.49,0,0,0,.52-1.07h1.85a3,3,0,0,1-.52,1.55A3.41,3.41,0,0,1,24.35,177a3.92,3.92,0,0,1-1.79.42,3.79,3.79,0,0,1-3-1.21,4.79,4.79,0,0,1-1.09-3.33v-.21a4.69,4.69,0,0,1,1.08-3.24,3.74,3.74,0,0,1,3-1.22,3.62,3.62,0,0,1,2.58.93,3.29,3.29,0,0,1,1,2.42H24.25a1.82,1.82,0,0,0-.52-1.26,1.66,1.66,0,0,0-1.24-.49,1.75,1.75,0,0,0-1.49.71,3.56,3.56,0,0,0-.53,2.12V173a3.68,3.68,0,0,0,.52,2.16,1.77,1.77,0,0,0,1.53.71ZM27,172.77a5.2,5.2,0,0,1,.52-2.35A3.74,3.74,0,0,1,29,168.78a4.06,4.06,0,0,1,2.15-.57A3.86,3.86,0,0,1,34,169.37a4.54,4.54,0,0,1,1.21,3.07v.47a5.25,5.25,0,0,1-.51,2.35,3.7,3.7,0,0,1-1.44,1.6,4.1,4.1,0,0,1-2.17.57,3.87,3.87,0,0,1-3-1.25A4.81,4.81,0,0,1,27,172.84Zm2,.17a3.59,3.59,0,0,0,.57,2.15,1.84,1.84,0,0,0,1.58.77,1.81,1.81,0,0,0,1.57-.79,3.93,3.93,0,0,0,.57-2.31,3.51,3.51,0,0,0-.58-2.13,1.94,1.94,0,0,0-3.12,0,3.86,3.86,0,0,0-.6,2.32Zm9.46-4.53.06,1a3.19,3.19,0,0,1,2.58-1.19q2.77,0,2.82,3.17v5.87h-2v-5.75a1.8,1.8,0,0,0-.37-1.25,1.51,1.51,0,0,0-1.19-.41,1.92,1.92,0,0,0-1.8,1.09v6.32h-2v-8.88Zm6.79,4.37a5.26,5.26,0,0,1,1-3.29,3,3,0,0,1,2.55-1.25,2.9,2.9,0,0,1,2.28,1V164.7h2v12.6H51.18l-.1-.92a2.94,2.94,0,0,1-2.39,1.08,3,3,0,0,1-2.53-1.26,5.49,5.49,0,0,1-.91-3.42Zm2,.17a3.73,3.73,0,0,0,.52,2.12,1.7,1.7,0,0,0,1.48.75,1.88,1.88,0,0,0,1.79-1.09v-3.79a1.85,1.85,0,0,0-1.77-1.07,1.7,1.7,0,0,0-1.49.77,4.09,4.09,0,0,0-.55,2.32Zm12.83,4.33a3.08,3.08,0,0,1-.23-.83,3.35,3.35,0,0,1-4.51.23,2.44,2.44,0,0,1-.84-1.89,2.51,2.51,0,0,1,1-2.17,5.1,5.1,0,0,1,3-.76h1.22v-.58a1.54,1.54,0,0,0-.39-1.1,1.52,1.52,0,0,0-1.16-.4,1.74,1.74,0,0,0-1.12.34,1,1,0,0,0-.43.86h-2a2.2,2.2,0,0,1,.48-1.36,3.21,3.21,0,0,1,1.31-1,4.65,4.65,0,0,1,1.86-.36,3.71,3.71,0,0,1,2.49.79,2.78,2.78,0,0,1,1,2.2v4a4.54,4.54,0,0,0,.34,1.91v.14Zm-2.19-1.44a2.25,2.25,0,0,0,1.11-.29,1.91,1.91,0,0,0,.79-.77v-1.67H58.73a2.93,2.93,0,0,0-1.67.39,1.25,1.25,0,0,0-.56,1.09,1.19,1.19,0,0,0,.38.92,1.51,1.51,0,0,0,1,.35Zm10.28-5.6a4.9,4.9,0,0,0-.81-.07,1.83,1.83,0,0,0-1.85,1v6.07h-2v-8.88h1.9v1a2.25,2.25,0,0,1,2-1.16,1.87,1.87,0,0,1,.71.11Zm4.18,4.2,1.8-6h2.12l-3.53,10.22A2.87,2.87,0,0,1,70,180.9a3.56,3.56,0,0,1-1-.15v-1.54h.38a1.9,1.9,0,0,0,1.13-.28,1.79,1.79,0,0,0,.61-.92l.29-.76-3.12-8.83h2.15Z" transform="translate(0 0)"/><path d="M2.7,266.64H8.12v1.66H.62V256.35H2.7Zm11.79,1.66a3.08,3.08,0,0,1-.23-.83,3.35,3.35,0,0,1-4.51.24,2.44,2.44,0,0,1-.84-1.89,2.51,2.51,0,0,1,1-2.17,5.1,5.1,0,0,1,3-.76h1.27v-.58a1.54,1.54,0,0,0-.39-1.1,1.52,1.52,0,0,0-1.17-.42,1.74,1.74,0,0,0-1.12.34,1,1,0,0,0-.43.86h-2a2.2,2.2,0,0,1,.48-1.36,3.21,3.21,0,0,1,1.31-1,4.65,4.65,0,0,1,1.86-.36,3.71,3.71,0,0,1,2.49.79,2.78,2.78,0,0,1,1,2.2v4a4.54,4.54,0,0,0,.34,1.91v.14Zm-2.19-1.44a2.25,2.25,0,0,0,1.11-.29,1.91,1.91,0,0,0,.77-.79v-1.67H13.11a2.93,2.93,0,0,0-1.67.39,1.25,1.25,0,0,0-.56,1.09,1.18,1.18,0,0,0,.38.92A1.51,1.51,0,0,0,12.3,266.86Zm10.29-5.62a4.89,4.89,0,0,0-.81-.07,1.83,1.83,0,0,0-1.85,1v6.07h-2v-8.88h1.9v1a2.25,2.25,0,0,1,2-1.16,1.87,1.87,0,0,1,.71.11Zm.41,2.55a5.19,5.19,0,0,1,1-3.3,3.13,3.13,0,0,1,2.58-1.24A2.92,2.92,0,0,1,29,260.31l.09-.89h1.8V268a3.57,3.57,0,0,1-1.09,2.76,4.12,4.12,0,0,1-2.93,1,4.71,4.71,0,0,1-1.91-.41,3.36,3.36,0,0,1-1.41-1.06l.94-1.2a2.85,2.85,0,0,0,2.26,1.09,2.19,2.19,0,0,0,1.57-.54,2,2,0,0,0,.57-1.57v-.6a2.93,2.93,0,0,1-2.3,1A3.12,3.12,0,0,1,24,267.26a5.38,5.38,0,0,1-1-3.48Zm2,.17a3.62,3.62,0,0,0,.54,2.11,1.77,1.77,0,0,0,1.52.76,1.92,1.92,0,0,0,1.79-1v-3.91a1.89,1.89,0,0,0-1.77-1,1.77,1.77,0,0,0-1.53.78A4,4,0,0,0,25,264Zm11.47,4.5a4.14,4.14,0,0,1-3.08-1.19,4.35,4.35,0,0,1-1.21-3.19v-.3a5.34,5.34,0,0,1,.51-2.37,3.92,3.92,0,0,1,1.49-1.63,3.8,3.8,0,0,1,2.07-.58,3.47,3.47,0,0,1,2.8,1.16,4.88,4.88,0,0,1,1,3.27v.8H34.18a2.67,2.67,0,0,0,.73,1.74,2.22,2.22,0,0,0,1.62.64,2.7,2.7,0,0,0,2.23-1.11l1.07,1a3.62,3.62,0,0,1-1.43,1.24,4.47,4.47,0,0,1-2,.47Zm-.24-7.6a1.69,1.69,0,0,0-1.33.57,3,3,0,0,0-.64,1.6h3.8v-.15a2.4,2.4,0,0,0-.53-1.51,1.66,1.66,0,0,0-1.35-.52Z" transform="translate(0 0)"/><path d="M6.87,356.22A1.44,1.44,0,0,0,6.31,355a6.6,6.6,0,0,0-2-.86,9.64,9.64,0,0,1-2.3-1,3.07,3.07,0,0,1-1.63-2.67,2.91,2.91,0,0,1,1.17-2.38,4.78,4.78,0,0,1,3.06-.94,5.17,5.17,0,0,1,2.22.46,3.64,3.64,0,0,1,1.53,1.31,3.34,3.34,0,0,1,.56,1.88H6.85a1.85,1.85,0,0,0-.59-1.46,2.39,2.39,0,0,0-1.67-.53,2.55,2.55,0,0,0-1.58.43,1.45,1.45,0,0,0-.56,1.21,1.32,1.32,0,0,0,.61,1.1,7.17,7.17,0,0,0,2,.85,9,9,0,0,1,2.24.94,3.52,3.52,0,0,1,1.24,1.21,3.14,3.14,0,0,1,.39,1.6,2.85,2.85,0,0,1-1.15,2.38,5,5,0,0,1-3.1.88,5.91,5.91,0,0,1-2.39-.48A4.07,4.07,0,0,1,.6,357.61a3.32,3.32,0,0,1-.6-2H2.08a1.93,1.93,0,0,0,.67,1.58,3,3,0,0,0,1.93.56,2.56,2.56,0,0,0,1.62-.43A1.42,1.42,0,0,0,6.87,356.22Zm5.24-5.8.06.93a3.19,3.19,0,0,1,2.56-1.09,2.45,2.45,0,0,1,2.44,1.36,3.15,3.15,0,0,1,2.72-1.36,2.76,2.76,0,0,1,2.18.81,3.56,3.56,0,0,1,.74,2.4v5.83h-2v-5.77a1.76,1.76,0,0,0-.37-1.24,1.61,1.61,0,0,0-1.22-.39,1.67,1.67,0,0,0-1.12.37,1.91,1.91,0,0,0-.6,1v6.09h-2v-5.84a1.42,1.42,0,0,0-1.6-1.57,1.76,1.76,0,0,0-1.7,1v6.43h-2V350.5Zm17.71,8.88a3.08,3.08,0,0,1-.23-.83,3.35,3.35,0,0,1-4.51.24,2.44,2.44,0,0,1-.84-1.89,2.51,2.51,0,0,1,1-2.17,5.1,5.1,0,0,1,3-.76h1.22v-.58a1.54,1.54,0,0,0-.38-1.1,1.52,1.52,0,0,0-1.17-.42,1.74,1.74,0,0,0-1.12.34,1,1,0,0,0-.43.86h-2a2.2,2.2,0,0,1,.48-1.36,3.21,3.21,0,0,1,1.31-1,4.65,4.65,0,0,1,1.86-.36,3.71,3.71,0,0,1,2.49.79,2.78,2.78,0,0,1,1,2.2v4a4.53,4.53,0,0,0,.34,1.91v.14Zm-2.19-1.44a2.25,2.25,0,0,0,1.11-.29,1.91,1.91,0,0,0,.79-.77v-1.67H28.46a2.94,2.94,0,0,0-1.67.39,1.25,1.25,0,0,0-.56,1.09,1.18,1.18,0,0,0,.38.92,1.5,1.5,0,0,0,1,.33Zm7.76,1.44h-2V346.7h2Zm4,0h-2V346.7h2Z" transform="translate(0 0)"/><path d="M7.6,445H2.69v3.67H8.42v1.66H.61V438.35H8.36V440H2.68v3.3H7.59Zm6.64-1.72a4.9,4.9,0,0,0-.81-.07,1.83,1.83,0,0,0-1.85,1v6.07h-2v-8.88h1.9v1a2.25,2.25,0,0,1,2-1.16,1.87,1.87,0,0,1,.71.11Zm5.57,0a4.89,4.89,0,0,0-.81-.07,1.83,1.83,0,0,0-1.85,1v6.07h-2v-8.88h1.9v1a2.25,2.25,0,0,1,2-1.16,1.87,1.87,0,0,1,.71.11Zm.25,2.53a5.21,5.21,0,0,1,.52-2.35A3.74,3.74,0,0,1,22,441.81a4.06,4.06,0,0,1,2.15-.57,3.86,3.86,0,0,1,2.91,1.16,4.54,4.54,0,0,1,1.21,3.07v.47a5.25,5.25,0,0,1-.51,2.35,3.7,3.7,0,0,1-1.44,1.6,4.1,4.1,0,0,1-2.17.57,3.87,3.87,0,0,1-3-1.25,4.81,4.81,0,0,1-1.12-3.34Zm2,.17a3.59,3.59,0,0,0,.57,2.15,1.84,1.84,0,0,0,1.57.77,1.81,1.81,0,0,0,1.57-.79,3.93,3.93,0,0,0,.57-2.31,3.51,3.51,0,0,0-.58-2.13,1.94,1.94,0,0,0-3.12,0,3.86,3.86,0,0,0-.58,2.32Zm12.26-2.71a4.9,4.9,0,0,0-.81-.07,1.83,1.83,0,0,0-1.85,1v6.07h-2v-8.88h1.9v1a2.25,2.25,0,0,1,2-1.16,1.87,1.87,0,0,1,.71.11Z" transform="translate(0 0)"/><path d="M2.81,541.29H.74V529.35H2.81Zm5.67-1.43a1.8,1.8,0,0,0,1.24-.43,1.49,1.49,0,0,0,.52-1.07h1.88a3,3,0,0,1-.52,1.55A3.41,3.41,0,0,1,10.29,541a3.92,3.92,0,0,1-1.79.42,3.79,3.79,0,0,1-3-1.21,4.78,4.78,0,0,1-1.09-3.33v-.21a4.69,4.69,0,0,1,1.08-3.24,3.74,3.74,0,0,1,3-1.22,3.62,3.62,0,0,1,2.58.93,3.29,3.29,0,0,1,1,2.42H10.19a1.82,1.82,0,0,0-.52-1.26,1.66,1.66,0,0,0-1.24-.49,1.75,1.75,0,0,0-1.49.71,3.56,3.56,0,0,0-.53,2.12V537a3.68,3.68,0,0,0,.52,2.16,1.77,1.77,0,0,0,1.5.71Zm4.44-3.09a5.21,5.21,0,0,1,.52-2.35,3.74,3.74,0,0,1,1.45-1.61,4.06,4.06,0,0,1,2.15-.57A3.87,3.87,0,0,1,20,533.4a4.54,4.54,0,0,1,1.23,3.08v.47a5.24,5.24,0,0,1-.51,2.35,3.69,3.69,0,0,1-1.44,1.6,4.1,4.1,0,0,1-2.17.57,3.87,3.87,0,0,1-3-1.25,4.82,4.82,0,0,1-1.12-3.34Zm2,.17a3.59,3.59,0,0,0,.57,2.15,1.84,1.84,0,0,0,1.57.77,1.81,1.81,0,0,0,1.57-.79,3.93,3.93,0,0,0,.55-2.29,3.51,3.51,0,0,0-.58-2.13,1.94,1.94,0,0,0-3.12,0,3.86,3.86,0,0,0-.57,2.3Zm9.46-4.53.06,1A3.19,3.19,0,0,1,27,532.22q2.77,0,2.82,3.17v5.87h-2v-5.75a1.8,1.8,0,0,0-.37-1.25,1.51,1.51,0,0,0-1.19-.41,1.92,1.92,0,0,0-1.8,1.09v6.32h-2v-8.88Z" transform="translate(0 0)"/><path d="M.62,632.29V620.35H4.18a5.51,5.51,0,0,1,2.81.7,4.8,4.8,0,0,1,1.9,2,6.35,6.35,0,0,1,.67,3v.6a6.3,6.3,0,0,1-.68,3,4.72,4.72,0,0,1-1.93,2,5.77,5.77,0,0,1-2.86.7ZM2.7,622v8.61H4a3.11,3.11,0,0,0,2.5-1,4.45,4.45,0,0,0,.89-2.94V626a4.57,4.57,0,0,0-.84-3,3,3,0,0,0-2.45-1ZM15,632.45a4.14,4.14,0,0,1-3.08-1.19,4.35,4.35,0,0,1-1.17-3.18v-.3a5.33,5.33,0,0,1,.51-2.37,3.93,3.93,0,0,1,1.44-1.63,3.8,3.8,0,0,1,2.07-.58,3.47,3.47,0,0,1,2.8,1.16,4.88,4.88,0,0,1,1,3.27v.8h-5.8a2.68,2.68,0,0,0,.73,1.74,2.22,2.22,0,0,0,1.62.64,2.7,2.7,0,0,0,2.23-1.11l1.07,1A3.61,3.61,0,0,1,17,631.94a4.47,4.47,0,0,1-2,.47Zm-.24-7.6a1.69,1.69,0,0,0-1.33.57,3,3,0,0,0-.64,1.6h3.8v-.15a2.41,2.41,0,0,0-.53-1.51A1.66,1.66,0,0,0,14.74,624.85Zm5.72,7.44v-7.4H19.11v-1.48h1.35v-.81a3.05,3.05,0,0,1,.82-2.28,3.14,3.14,0,0,1,2.3-.8,4.59,4.59,0,0,1,1.12.15v1.56a4,4,0,0,0-.76-.07,1.28,1.28,0,0,0-1.43,1.47v.79h1.8v1.48h-1.8v7.4Zm10.22,0a3.08,3.08,0,0,1-.23-.83,3.35,3.35,0,0,1-4.51.24,2.44,2.44,0,0,1-.84-1.89,2.51,2.51,0,0,1,1-2.17,5.1,5.1,0,0,1,3-.76h1.22v-.58a1.54,1.54,0,0,0-.39-1.1,1.52,1.52,0,0,0-1.17-.42,1.74,1.74,0,0,0-1.12.34,1,1,0,0,0-.43.86h-2a2.2,2.2,0,0,1,.48-1.36,3.21,3.21,0,0,1,1.31-1,4.65,4.65,0,0,1,1.86-.36,3.71,3.71,0,0,1,2.49.79,2.78,2.78,0,0,1,1,2.2v4a4.53,4.53,0,0,0,.34,1.91v.14Zm-2.19-1.44a2.25,2.25,0,0,0,1.11-.29,1.91,1.91,0,0,0,.79-.77v-1.67H29.32a2.94,2.94,0,0,0-1.67.39,1.25,1.25,0,0,0-.56,1.09,1.18,1.18,0,0,0,.38.92,1.5,1.5,0,0,0,1,.34Zm11,.57a3.09,3.09,0,0,1-2.49,1,2.77,2.77,0,0,1-2.19-.84,3.61,3.61,0,0,1-.74-2.44v-5.75h2v5.73q0,1.69,1.4,1.69a2,2,0,0,0,2-1v-6.37h2v8.88H39.59Zm5.74.87h-2v-12.6h2Zm4.34-11v2.16h1.61v1.48H49.61v5a1.12,1.12,0,0,0,.2.74,1,1,0,0,0,.72.22,3.08,3.08,0,0,0,.7-.08v1.54a4.9,4.9,0,0,1-1.31.19q-2.3,0-2.3-2.53v-5H46.18v-1.48h1.46v-2.16Zm11.21,4.49H63.9v1.82H60.78v3.55H58.84V627.6H55.71v-1.82h3.13v-3.32h1.94Zm10.66,6.57H69.37v-12h2.07Zm5.67-1.43a1.8,1.8,0,0,0,1.24-.43,1.48,1.48,0,0,0,.53-1.07h1.88a3,3,0,0,1-.52,1.55,3.4,3.4,0,0,1-1.31,1.13,3.91,3.91,0,0,1-1.79.42,3.78,3.78,0,0,1-3-1.21A4.78,4.78,0,0,1,73.05,628v-.2a4.69,4.69,0,0,1,1.13-3.3,3.75,3.75,0,0,1,3-1.22,3.62,3.62,0,0,1,2.58.93,3.29,3.29,0,0,1,1,2.42H78.88a1.82,1.82,0,0,0-.53-1.26,1.66,1.66,0,0,0-1.24-.49,1.75,1.75,0,0,0-1.49.71,3.56,3.56,0,0,0-.53,2.12V628a3.68,3.68,0,0,0,.52,2.16,1.77,1.77,0,0,0,1.52.7Zm4.44-3.09a5.21,5.21,0,0,1,.52-2.35,3.74,3.74,0,0,1,1.45-1.61,4.06,4.06,0,0,1,2.15-.57,3.87,3.87,0,0,1,2.91,1.16,4.54,4.54,0,0,1,1.21,3.07V628a5.24,5.24,0,0,1-.51,2.35,3.69,3.69,0,0,1-1.44,1.6,4.1,4.1,0,0,1-2.17.57,3.87,3.87,0,0,1-3-1.25,4.82,4.82,0,0,1-1.12-3.34Zm2,.17a3.59,3.59,0,0,0,.57,2.15,1.84,1.84,0,0,0,1.57.77,1.81,1.81,0,0,0,1.57-.79,3.93,3.93,0,0,0,.57-2.31,3.51,3.51,0,0,0-.58-2.13,1.94,1.94,0,0,0-3.12,0,3.86,3.86,0,0,0-.57,2.29ZM93,623.47l.06,1a3.19,3.19,0,0,1,2.58-1.19q2.77,0,2.82,3.17v5.87h-2v-5.75a1.8,1.8,0,0,0-.37-1.25,1.51,1.51,0,0,0-1.19-.41,1.92,1.92,0,0,0-1.8,1.09v6.32h-2v-8.88Z" transform="translate(0 0)"/><path d="M610.1,536.39a28,28,0,1,1,28,28A28,28,0,0,1,610.1,536.39Z" transform="translate(0 0)" style="fill:#ffd600"/><path d="M641.83,544.78l14.55-8.4L641.83,528Zm0-10.82H619.2v4.82h22.63Z" transform="translate(0 0)" style="fill:#828282"/><path d="M397,536.39a28,28,0,1,1,28,28A28,28,0,0,1,397,536.39Z" transform="translate(0 0)" style="fill:#ffd600"/><path d="M428.74,544.78l14.55-8.4L428.74,528Zm0-10.82H406.11v4.82h22.63Z" transform="translate(0 0)" style="fill:#363636"/><path d="M425,563.69a27.3,27.3,0,0,1-27.3-27.3h-1.4a28.7,28.7,0,0,0,28.7,28.7h0Zm27.3-27.3a27.3,27.3,0,0,1-27.3,27.3v1.4a28.7,28.7,0,0,0,28.7-28.7h-1.4ZM425,509.09a27.3,27.3,0,0,1,27.3,27.3h1.4a28.7,28.7,0,0,0-28.7-28.7h0Zm0-1.4a28.7,28.7,0,0,0-28.7,28.7h1.4a27.3,27.3,0,0,1,27.3-27.3Z" transform="translate(0 0)" style="fill:#7fa4b0"/><path d="M183.51,536.39a28,28,0,1,1,28,28h0A28,28,0,0,1,183.51,536.39Z" transform="translate(0 0)" style="fill:#ffd600"/><path d="M215.24,544.78l14.55-8.4L215.24,528Zm0-10.82H192.61v4.82h22.63Z" transform="translate(0 0)" style="fill:#363636"/><path d="M122.61,445.39a17.5,17.5,0,0,1,17.5-17.5h143.5a17.5,17.5,0,0,1,0,35H140.11a17.5,17.5,0,0,1-17.5-17.5Z" transform="translate(0 0)" style="fill:#f0454e"/><path d="M202.48,445.66h-4.9v3.68h5.73V451H195.5V439.05h7.75v1.67h-5.67V444h4.91Zm6.64-1.72a4.89,4.89,0,0,0-.81-.07,1.83,1.83,0,0,0-1.85,1v6.07h-2v-8.88h1.9v1a2.25,2.25,0,0,1,2-1.16,1.87,1.87,0,0,1,.71.11Zm5.57,0a4.9,4.9,0,0,0-.81-.07,1.83,1.83,0,0,0-1.85,1v6.07h-2v-8.88h1.9v1a2.25,2.25,0,0,1,2-1.16,1.87,1.87,0,0,1,.71.11Zm.25,2.53a5.21,5.21,0,0,1,.52-2.35,3.74,3.74,0,0,1,1.45-1.61,4.06,4.06,0,0,1,2.15-.57A3.87,3.87,0,0,1,222,443.1a4.54,4.54,0,0,1,1.21,3.08v.47a5.24,5.24,0,0,1-.51,2.35,3.69,3.69,0,0,1-1.44,1.6,4.1,4.1,0,0,1-2.17.57,3.87,3.87,0,0,1-3-1.25,4.82,4.82,0,0,1-1.12-3.34Zm2,.17a3.59,3.59,0,0,0,.57,2.15,1.84,1.84,0,0,0,1.57.77,1.81,1.81,0,0,0,1.57-.79,3.93,3.93,0,0,0,.57-2.31,3.52,3.52,0,0,0-.58-2.13,1.94,1.94,0,0,0-3.12,0,3.86,3.86,0,0,0-.58,2.32Zm12.24-2.7a4.9,4.9,0,0,0-.81-.07,1.83,1.83,0,0,0-1.85,1v6.07h-2v-8.88h1.9v1a2.25,2.25,0,0,1,2-1.16,1.87,1.87,0,0,1,.7.11Z" transform="translate(0 0)"/><path d="M548.5,445.39a17.5,17.5,0,0,1,17.5-17.5H709.5a17.5,17.5,0,0,1,0,35H566a17.5,17.5,0,0,1-17.5-17.5Z" transform="translate(0 0)" style="fill:#f0454e"/><path d="M628.37,445.66h-4.9v3.68h5.73V451h-7.81V439.05h7.76v1.67h-5.68V444h4.9Zm6.64-1.72a5,5,0,0,0-.81-.07,1.83,1.83,0,0,0-1.85,1v6.07h-2v-8.88h1.9v1a2.25,2.25,0,0,1,2-1.16,1.88,1.88,0,0,1,.71.11Zm5.57,0a4.85,4.85,0,0,0-.81-.07,1.82,1.82,0,0,0-1.84,1v6.07h-2v-8.88h1.9v1a2.25,2.25,0,0,1,2-1.16,1.84,1.84,0,0,1,.7.11Zm.26,2.53a5.23,5.23,0,0,1,.51-2.35,3.79,3.79,0,0,1,1.46-1.61,4,4,0,0,1,2.15-.57,3.86,3.86,0,0,1,2.91,1.16,4.52,4.52,0,0,1,1.21,3.07v.47a5.29,5.29,0,0,1-.51,2.35,3.7,3.7,0,0,1-1.44,1.6,4.12,4.12,0,0,1-2.17.57,3.87,3.87,0,0,1-3-1.25,4.82,4.82,0,0,1-1.12-3.34Zm2,.17a3.59,3.59,0,0,0,.57,2.15,1.84,1.84,0,0,0,1.57.77,1.81,1.81,0,0,0,1.57-.79,3.92,3.92,0,0,0,.57-2.31,3.54,3.54,0,0,0-.58-2.13,1.95,1.95,0,0,0-3.12,0,3.89,3.89,0,0,0-.59,2.32Zm12.26-2.71a4.85,4.85,0,0,0-.81-.07,1.82,1.82,0,0,0-1.84,1v6.07h-2v-8.88h1.9v1a2.24,2.24,0,0,1,2-1.16,1.84,1.84,0,0,1,.7.11Z" transform="translate(0 0)" style="fill:#e9e9e9"/><path d="M336.11,445.39a17.5,17.5,0,0,1,17.5-17.5h143.5a17.5,17.5,0,0,1,0,35H353.61a17.5,17.5,0,0,1-17.5-17.5Z" transform="translate(0 0)" style="fill:#f0454e"/><path d="M416,445.66h-4.9v3.68h5.73V451H409V439.05h7.75v1.67h-5.67V444H416Zm6.64-1.72a4.89,4.89,0,0,0-.81-.07,1.83,1.83,0,0,0-1.85,1v6.07h-2v-8.88h1.9v1a2.25,2.25,0,0,1,2-1.16,1.87,1.87,0,0,1,.71.11Zm5.57,0a4.9,4.9,0,0,0-.81-.07,1.83,1.83,0,0,0-1.85,1v6.07h-2v-8.88h1.9v1a2.25,2.25,0,0,1,2-1.16,1.87,1.87,0,0,1,.71.11Zm.25,2.53a5.21,5.21,0,0,1,.52-2.35,3.74,3.74,0,0,1,1.45-1.61,4.06,4.06,0,0,1,2.15-.57,3.87,3.87,0,0,1,2.91,1.16,4.54,4.54,0,0,1,1.21,3.07v.47a5.24,5.24,0,0,1-.51,2.35,3.69,3.69,0,0,1-1.44,1.6,4.1,4.1,0,0,1-2.17.57,3.87,3.87,0,0,1-3-1.25,4.82,4.82,0,0,1-1.12-3.34Zm2,.17a3.59,3.59,0,0,0,.57,2.15,1.84,1.84,0,0,0,1.57.77,1.81,1.81,0,0,0,1.6-.78,3.93,3.93,0,0,0,.57-2.31,3.52,3.52,0,0,0-.58-2.13,1.94,1.94,0,0,0-3.12,0,3.86,3.86,0,0,0-.61,2.31Zm12.26-2.71a4.9,4.9,0,0,0-.81-.07,1.83,1.83,0,0,0-1.85,1v6.07h-2v-8.88h1.9v1a2.25,2.25,0,0,1,2-1.16,1.87,1.87,0,0,1,.7.11Z" transform="translate(0 0)"/><path d="M407.79,452.63h35.14v.82H407.79Z" transform="translate(0 0)"/><path d="M150.61,351.59a17.5,17.5,0,0,1,17.5-17.5h87.5a17.5,17.5,0,1,1,0,35h-87.5a17.5,17.5,0,0,1-17.5-17.5Z" transform="translate(0 0)" style="fill:#fff"/><path d="M198.77,354.12a1.44,1.44,0,0,0-.56-1.21,6.6,6.6,0,0,0-2-.86,9.64,9.64,0,0,1-2.3-1,3.06,3.06,0,0,1-1.63-2.67,2.91,2.91,0,0,1,1.17-2.38,4.78,4.78,0,0,1,3.06-.94,5.17,5.17,0,0,1,2.22.46,3.64,3.64,0,0,1,1.53,1.31,3.34,3.34,0,0,1,.56,1.88h-2.07a1.85,1.85,0,0,0-.59-1.46,2.39,2.39,0,0,0-1.67-.53,2.55,2.55,0,0,0-1.58.43,1.45,1.45,0,0,0-.56,1.21,1.32,1.32,0,0,0,.61,1.1,7.16,7.16,0,0,0,2,.85,9,9,0,0,1,2.24.94,3.52,3.52,0,0,1,1.24,1.21,3.14,3.14,0,0,1,.39,1.6,2.85,2.85,0,0,1-1.15,2.38,5,5,0,0,1-3.1.88,5.91,5.91,0,0,1-2.39-.48,4.07,4.07,0,0,1-1.69-1.33,3.32,3.32,0,0,1-.6-2H194a1.93,1.93,0,0,0,.67,1.57,2.94,2.94,0,0,0,1.93.56,2.56,2.56,0,0,0,1.62-.43A1.42,1.42,0,0,0,198.77,354.12Zm5.24-5.8.06.93a3.19,3.19,0,0,1,2.56-1.09,2.45,2.45,0,0,1,2.44,1.36,3.15,3.15,0,0,1,2.72-1.36A2.75,2.75,0,0,1,214,349a3.56,3.56,0,0,1,.74,2.4v5.83h-2v-5.77a1.77,1.77,0,0,0-.37-1.24,1.62,1.62,0,0,0-1.22-.39,1.67,1.67,0,0,0-1.12.37,1.91,1.91,0,0,0-.6,1v6.09h-2v-5.84a1.42,1.42,0,0,0-1.6-1.57,1.75,1.75,0,0,0-1.7,1v6.43h-2V348.4Zm17.71,8.88a1.29,1.29,0,1,0-2.56.16,3.13,3.13,0,0,1-2.18-.76,2.44,2.44,0,0,1-.84-1.89,2.51,2.51,0,0,1,1-2.17,5.11,5.11,0,0,1,3-.76h1.22v-.58a1.54,1.54,0,0,0-.39-1.1,1.52,1.52,0,0,0-1.17-.42,1.74,1.74,0,0,0-1.12.34,1,1,0,0,0-.43.86h-2a2.2,2.2,0,0,1,.48-1.36,3.21,3.21,0,0,1,1.31-1,4.65,4.65,0,0,1,1.86-.36,3.71,3.71,0,0,1,2.49.79,2.78,2.78,0,0,1,1,2.2v4a4.54,4.54,0,0,0,.34,1.91v.14Zm-2.19-1.42a2.25,2.25,0,0,0,1.11-.29,1.91,1.91,0,0,0,.79-.77v-1.67h-1.07a2.93,2.93,0,0,0-1.67.39,1.25,1.25,0,0,0-.56,1.09,1.19,1.19,0,0,0,.38.92A1.51,1.51,0,0,0,219.53,355.78Zm7.76,1.44h-2v-12.6h2Zm4,0h-2v-12.6h2Z" transform="translate(0 0)"/><path d="M168.11,334.78h87.5v-1.4h-87.5Zm87.5,33.6h-87.5v1.4h87.5Zm-87.5,0a16.8,16.8,0,0,1-16.8-16.8h-1.4a18.2,18.2,0,0,0,18.2,18.2h0Zm104.3-16.8a16.8,16.8,0,0,1-16.8,16.8v1.4a18.2,18.2,0,0,0,18.2-18.2h-1.4Zm-16.8-16.8a16.8,16.8,0,0,1,16.8,16.8h1.4a18.2,18.2,0,0,0-18.2-18.2h0Zm-87.5-1.4a18.2,18.2,0,0,0-18.2,18.2h1.4a16.8,16.8,0,0,1,16.8-16.8Z" transform="translate(0 0)" style="fill:#363636"/><path d="M576.5,351.59a17.5,17.5,0,0,1,17.5-17.5h87.5a17.5,17.5,0,0,1,0,35H594a17.5,17.5,0,0,1-17.5-17.5Z" transform="translate(0 0)" style="fill:#fff"/><path d="M624.66,354.12a1.44,1.44,0,0,0-.56-1.21,6.54,6.54,0,0,0-2-.86,9.66,9.66,0,0,1-2.3-1,3.07,3.07,0,0,1-1.63-2.67,2.92,2.92,0,0,1,1.17-2.38,4.8,4.8,0,0,1,3.06-.94,5.18,5.18,0,0,1,2.23.46,3.63,3.63,0,0,1,1.53,1.31,3.35,3.35,0,0,1,.56,1.88h-2.06a1.86,1.86,0,0,0-.6-1.46,2.38,2.38,0,0,0-1.67-.53,2.54,2.54,0,0,0-1.58.43,1.46,1.46,0,0,0-.56,1.21,1.32,1.32,0,0,0,.61,1.1,7.17,7.17,0,0,0,2,.85,9,9,0,0,1,2.24.94,3.58,3.58,0,0,1,1.24,1.21,3.17,3.17,0,0,1,.39,1.6,2.85,2.85,0,0,1-1.15,2.38,5,5,0,0,1-3.1.88,5.92,5.92,0,0,1-2.39-.48,4,4,0,0,1-1.69-1.33,3.32,3.32,0,0,1-.6-2h2.08a1.93,1.93,0,0,0,.67,1.57,2.94,2.94,0,0,0,1.92.56,2.55,2.55,0,0,0,1.62-.43A1.43,1.43,0,0,0,624.66,354.12Zm5.24-5.8.06.93a3.19,3.19,0,0,1,2.56-1.09,2.45,2.45,0,0,1,2.44,1.36,3.16,3.16,0,0,1,2.72-1.36,2.76,2.76,0,0,1,2.18.81,3.57,3.57,0,0,1,.74,2.4v5.83h-2v-5.77a1.77,1.77,0,0,0-.37-1.24,1.61,1.61,0,0,0-1.22-.39,1.68,1.68,0,0,0-1.11.37,1.87,1.87,0,0,0-.59,1v6.09h-2v-5.84a1.42,1.42,0,0,0-1.6-1.57,1.75,1.75,0,0,0-1.69,1v6.43h-2V348.4Zm17.72,8.88a2.86,2.86,0,0,1-.23-.83,3.11,3.11,0,0,1-2.33,1,3.15,3.15,0,0,1-2.18-.76,2.45,2.45,0,0,1-.84-1.89,2.51,2.51,0,0,1,1-2.17,5.08,5.08,0,0,1,3-.76h1.23v-.58a1.53,1.53,0,0,0-.39-1.1,1.5,1.5,0,0,0-1.17-.42,1.76,1.76,0,0,0-1.12.34,1,1,0,0,0-.43.86h-2a2.2,2.2,0,0,1,.48-1.36,3.19,3.19,0,0,1,1.31-1,4.65,4.65,0,0,1,1.86-.36,3.7,3.7,0,0,1,2.49.79,2.76,2.76,0,0,1,1,2.2v4a4.54,4.54,0,0,0,.34,1.91v.14Zm-2.19-1.44a2.24,2.24,0,0,0,1.11-.29,1.9,1.9,0,0,0,.78-.77V353h-1.05a2.93,2.93,0,0,0-1.67.39,1.25,1.25,0,0,0-.56,1.09,1.18,1.18,0,0,0,.38.92,1.52,1.52,0,0,0,1,.35Zm7.76,1.44h-2V344.6h2Zm4,0h-2V344.6h2Z" transform="translate(0 0)" style="fill:#828282"/><path d="M594,334.78h87.5v-1.4H594Zm87.5,33.6H594v1.4h87.5Zm-87.5,0a16.8,16.8,0,0,1-16.8-16.8h-1.4a18.2,18.2,0,0,0,18.2,18.2Zm104.27-16.8a16.8,16.8,0,0,1-16.8,16.8h0v1.4a18.2,18.2,0,0,0,18.2-18.2Zm-16.8-16.8a16.8,16.8,0,0,1,16.8,16.8h1.4a18.2,18.2,0,0,0-18.2-18.2Zm-87.5-1.4a18.2,18.2,0,0,0-18.2,18.2h1.4a16.8,16.8,0,0,1,16.8-16.8h0Z" transform="translate(0 0)" style="fill:#363636"/><path d="M366.91,351.59a17.5,17.5,0,0,1,17.5-17.5h87.5a17.5,17.5,0,0,1,0,35h-87.5a17.5,17.5,0,0,1-17.5-17.5Z" transform="translate(0 0)" style="fill:#fff"/><path d="M415.07,354.12a1.44,1.44,0,0,0-.56-1.21,6.6,6.6,0,0,0-2-.86,9.64,9.64,0,0,1-2.3-1,3.06,3.06,0,0,1-1.63-2.67,2.91,2.91,0,0,1,1.17-2.38,4.78,4.78,0,0,1,3.06-.94,5.17,5.17,0,0,1,2.22.46,3.64,3.64,0,0,1,1.53,1.31,3.34,3.34,0,0,1,.62,1.95h-2.07a1.85,1.85,0,0,0-.59-1.46,2.39,2.39,0,0,0-1.67-.53,2.55,2.55,0,0,0-1.58.43,1.45,1.45,0,0,0-.56,1.21,1.32,1.32,0,0,0,.61,1.1,7.16,7.16,0,0,0,2,.85,9,9,0,0,1,2.24.94,3.52,3.52,0,0,1,1.24,1.21,3.14,3.14,0,0,1,.39,1.6,2.85,2.85,0,0,1-1.15,2.38,5,5,0,0,1-3.1.88,5.91,5.91,0,0,1-2.39-.48,4.07,4.07,0,0,1-1.69-1.33,3.32,3.32,0,0,1-.6-2h2.08a1.93,1.93,0,0,0,.67,1.57,2.94,2.94,0,0,0,1.93.56,2.56,2.56,0,0,0,1.62-.43A1.42,1.42,0,0,0,415.07,354.12Zm5.24-5.8.06.93a3.19,3.19,0,0,1,2.56-1.09,2.45,2.45,0,0,1,2.44,1.36,3.15,3.15,0,0,1,2.72-1.36,2.75,2.75,0,0,1,2.18.81,3.56,3.56,0,0,1,.74,2.4v5.83h-2v-5.77a1.77,1.77,0,0,0-.37-1.24,1.62,1.62,0,0,0-1.22-.39,1.67,1.67,0,0,0-1.12.37,1.91,1.91,0,0,0-.6,1v6.09h-2v-5.84a1.42,1.42,0,0,0-1.6-1.57,1.75,1.75,0,0,0-1.7,1v6.43h-2V348.4ZM438,357.2a1.29,1.29,0,1,0-2.56.16,3.13,3.13,0,0,1-2.18-.76,2.44,2.44,0,0,1-.84-1.89,2.51,2.51,0,0,1,1-2.17,5.11,5.11,0,0,1,3-.76h1.22v-.58a1.54,1.54,0,0,0-.39-1.1,1.52,1.52,0,0,0-1.17-.42A1.74,1.74,0,0,0,435,350a1,1,0,0,0-.43.86h-2a2.2,2.2,0,0,1,.48-1.36,3.21,3.21,0,0,1,1.31-1,4.65,4.65,0,0,1,1.86-.36,3.71,3.71,0,0,1,2.48.79,2.78,2.78,0,0,1,1,2.2v4a4.54,4.54,0,0,0,.34,1.91v.14Zm-2.19-1.42a2.25,2.25,0,0,0,1.11-.29,1.91,1.91,0,0,0,.79-.77v-1.67h-1.07a2.93,2.93,0,0,0-1.67.39,1.25,1.25,0,0,0-.56,1.09,1.19,1.19,0,0,0,.38.92A1.51,1.51,0,0,0,435.83,355.78Zm7.76,1.44h-2v-12.6h2Zm4,0h-2v-12.6h2Z" transform="translate(0 0)"/><path d="M407.61,358.78H448.7v.82H407.61Z" transform="translate(0 0)"/><path d="M384.41,334.78h87.5v-1.4h-87.5Zm87.5,33.6h-87.5v1.4h87.5Zm-87.5,0a16.8,16.8,0,0,1-16.8-16.8h-1.43a18.2,18.2,0,0,0,18.2,18.2h0Zm104.3-16.8a16.8,16.8,0,0,1-16.8,16.8v1.4a18.2,18.2,0,0,0,18.2-18.2h-1.4Zm-16.8-16.8a16.8,16.8,0,0,1,16.8,16.8h1.4a18.2,18.2,0,0,0-18.2-18.2h0Zm-87.5-1.4a18.2,18.2,0,0,0-18.23,18.17v0h1.4a16.8,16.8,0,0,1,16.8-16.8Z" transform="translate(0 0)" style="fill:#363636"/><path d="M548.5,263.39a35,35,0,0,1,35-35H692a35,35,0,0,1,0,70H583.5A35,35,0,0,1,548.5,263.39Z" transform="translate(0 0)" style="fill:#fff"/><path d="M620.47,257.54h5.42v1.66h-7.5v-12h2.08Zm11.79,1.66a1.29,1.29,0,1,0-2.56.16,3.12,3.12,0,0,1-2.18-.76,2.43,2.43,0,0,1-.85-1.89,2.51,2.51,0,0,1,1-2.17,5.1,5.1,0,0,1,3-.76h1.22v-.58a1.56,1.56,0,0,0-.39-1.1,1.53,1.53,0,0,0-1.18-.42,1.73,1.73,0,0,0-1.11.34,1,1,0,0,0-.43.86h-2a2.2,2.2,0,0,1,.48-1.36,3.21,3.21,0,0,1,1.32-1,4.63,4.63,0,0,1,1.86-.36,3.72,3.72,0,0,1,2.48.79,2.8,2.8,0,0,1,1,2.2v4a4.54,4.54,0,0,0,.34,1.91v.14Zm-2.19-1.42a2.24,2.24,0,0,0,1.11-.29,1.92,1.92,0,0,0,.79-.77V255h-1.08a2.94,2.94,0,0,0-1.67.39,1.25,1.25,0,0,0-.55,1.09,1.18,1.18,0,0,0,.38.92A1.49,1.49,0,0,0,630.07,257.78Zm10.29-5.62a5,5,0,0,0-.81-.07,1.83,1.83,0,0,0-1.85,1v6.07h-2v-8.88h1.9v1a2.25,2.25,0,0,1,2-1.16,1.88,1.88,0,0,1,.71.11Zm.41,2.55a5.16,5.16,0,0,1,1-3.3,3.13,3.13,0,0,1,2.58-1.24,2.93,2.93,0,0,1,2.39,1.06l.09-.89h1.79v8.61a3.57,3.57,0,0,1-1.09,2.76,4.11,4.11,0,0,1-2.93,1,4.71,4.71,0,0,1-1.91-.41,3.43,3.43,0,0,1-1.41-1.06l.94-1.2a2.86,2.86,0,0,0,2.27,1.09,2.18,2.18,0,0,0,1.56-.54,2,2,0,0,0,.58-1.57v-.6a3,3,0,0,1-2.3,1,3.12,3.12,0,0,1-2.55-1.24,5.37,5.37,0,0,1-1-3.49Zm2,.17a3.64,3.64,0,0,0,.54,2.11,1.78,1.78,0,0,0,1.52.76,1.93,1.93,0,0,0,1.79-1v-4a1.9,1.9,0,0,0-1.78-1,1.78,1.78,0,0,0-1.53.78,4.06,4.06,0,0,0-.55,2.3Zm11.47,4.5a4.14,4.14,0,0,1-3.07-1.19A4.35,4.35,0,0,1,650,255v-.23a5.28,5.28,0,0,1,.51-2.37,3.93,3.93,0,0,1,1.44-1.63,3.8,3.8,0,0,1,2.06-.58,3.48,3.48,0,0,1,2.8,1.16,4.86,4.86,0,0,1,1,3.27v.8H652a2.69,2.69,0,0,0,.74,1.74,2.21,2.21,0,0,0,1.62.64,2.69,2.69,0,0,0,2.23-1.11l1.08,1a3.63,3.63,0,0,1-1.43,1.24,4.45,4.45,0,0,1-2,.42Zm-.24-7.6a1.7,1.7,0,0,0-1.33.57A3,3,0,0,0,652,254h3.8v-.17a2.42,2.42,0,0,0-.54-1.51,1.65,1.65,0,0,0-1.31-.49Zm-41,22.54a5.24,5.24,0,0,1,1-3.29,3,3,0,0,1,2.55-1.25,2.91,2.91,0,0,1,2.28,1v-4.54h2v12.54H619l-.1-.92a2.94,2.94,0,0,1-2.39,1.08,3,3,0,0,1-2.53-1.26,5.46,5.46,0,0,1-1-3.39Zm2,.17a3.75,3.75,0,0,0,.52,2.12,1.7,1.7,0,0,0,1.48.75,1.88,1.88,0,0,0,1.79-1.09v-3.79a1.86,1.86,0,0,0-1.77-1.07,1.71,1.71,0,0,0-1.5.77,4.09,4.09,0,0,0-.51,2.28Zm11.44,4.5a4.14,4.14,0,0,1-3.07-1.19,4.35,4.35,0,0,1-1.18-3.18v-.25a5.28,5.28,0,0,1,.51-2.37,3.92,3.92,0,0,1,1.44-1.63,3.8,3.8,0,0,1,2.07-.58A3.48,3.48,0,0,1,629,271a4.9,4.9,0,0,1,1,3.27v.8h-5.8a2.69,2.69,0,0,0,.73,1.74,2.22,2.22,0,0,0,1.62.64,2.7,2.7,0,0,0,2.23-1.11l1.08,1a3.63,3.63,0,0,1-1.43,1.24,4.47,4.47,0,0,1-2,.43Zm-.24-7.6a1.7,1.7,0,0,0-1.33.57,3,3,0,0,0-.64,1.6H628v-.15a2.38,2.38,0,0,0-.53-1.51,1.65,1.65,0,0,0-1.28-.55Zm5.72,7.44v-7.4h-1.35V270h1.35v-.81a3.05,3.05,0,0,1,.82-2.28,3.15,3.15,0,0,1,2.3-.8,4.66,4.66,0,0,1,1.12.15v1.57a4,4,0,0,0-.76-.07,1.28,1.28,0,0,0-1.43,1.47V270h1.8v1.48H634v7.33Zm10.22,0a3.39,3.39,0,0,1-.23-.83,3.35,3.35,0,0,1-4.51.23,2.43,2.43,0,0,1-.85-1.89,2.51,2.51,0,0,1,1-2.17,5.11,5.11,0,0,1,3-.76h1.22v-.63a1.4,1.4,0,0,0-1.56-1.52,1.73,1.73,0,0,0-1.11.34,1,1,0,0,0-.43.86h-2a2.2,2.2,0,0,1,.48-1.36,3.21,3.21,0,0,1,1.32-1,4.63,4.63,0,0,1,1.86-.36,3.72,3.72,0,0,1,2.48.79,2.8,2.8,0,0,1,1,2.2v4a4.54,4.54,0,0,0,.34,1.91v.14Zm-2.19-1.44a2.24,2.24,0,0,0,1.11-.29,1.92,1.92,0,0,0,.79-.77v-1.67h-1.08a2.92,2.92,0,0,0-1.66.39,1.24,1.24,0,0,0-.56,1.09,1.18,1.18,0,0,0,.38.92,1.49,1.49,0,0,0,1,.3Zm11,.57a3.08,3.08,0,0,1-2.49,1,2.76,2.76,0,0,1-2.19-.84,3.62,3.62,0,0,1-.73-2.44v-5.75h2v5.73q0,1.69,1.41,1.69a2,2,0,0,0,2-1V270h2v8.8h-1.88Zm5.74.87h-2v-12.6h2Zm4.34-11V270h1.57v1.48H661v5a1.11,1.11,0,0,0,.2.74.94.94,0,0,0,.72.22,3,3,0,0,0,.69-.08v1.43a4.89,4.89,0,0,1-1.31.19q-2.3,0-2.3-2.53v-5h-1.46V270H659v-2.18Z" transform="translate(0 0)" style="fill:#828282"/><path d="M583.5,229.09H692v-1.4H583.5ZM692,297.69H583.5v1.4H692Zm-108.5,0a34.3,34.3,0,0,1-34.3-34.3h-1.4a35.7,35.7,0,0,0,35.7,35.7Zm142.8-34.3a34.3,34.3,0,0,1-34.3,34.3h0v1.4a35.7,35.7,0,0,0,35.7-35.7ZM692,229.09a34.3,34.3,0,0,1,34.3,34.3h1.4a35.7,35.7,0,0,0-35.7-35.7Zm-108.5-1.4a35.7,35.7,0,0,0-35.7,35.7h1.4a34.3,34.3,0,0,1,34.3-34.3h0Z" transform="translate(0 0)" style="fill:#363636"/><path d="M336.11,263.39a35,35,0,0,1,35-35h108.5a35,35,0,0,1,0,70H371.11A35,35,0,0,1,336.11,263.39Z" transform="translate(0 0)" style="fill:#fff"/><path d="M408.08,257.54h5.42v1.66H406v-12h2.07Zm11.79,1.66a3.06,3.06,0,0,1-.23-.83,3.35,3.35,0,0,1-4.51.23,2.44,2.44,0,0,1-.84-1.89,2.51,2.51,0,0,1,1-2.17,5.11,5.11,0,0,1,3-.76h1.22v-.58a1.54,1.54,0,0,0-.39-1.1,1.52,1.52,0,0,0-1.17-.42,1.74,1.74,0,0,0-1.12.34,1,1,0,0,0-.43.86h-2a2.2,2.2,0,0,1,.48-1.36,3.21,3.21,0,0,1,1.31-1,4.65,4.65,0,0,1,1.86-.36,3.71,3.71,0,0,1,2.49.79,2.78,2.78,0,0,1,1,2.2v4a4.54,4.54,0,0,0,.34,1.91v.14Zm-2.19-1.42a2.25,2.25,0,0,0,1.11-.29,1.91,1.91,0,0,0,.79-.77V255h-1.07a2.93,2.93,0,0,0-1.67.39,1.25,1.25,0,0,0-.56,1.09,1.19,1.19,0,0,0,.38.92A1.5,1.5,0,0,0,417.68,257.78ZM428,252.16a4.9,4.9,0,0,0-.81-.07,1.83,1.83,0,0,0-1.85,1v6.07h-2v-8.88h1.87v1a2.25,2.25,0,0,1,2-1.16,1.87,1.87,0,0,1,.71.11Zm.41,2.55a5.19,5.19,0,0,1,1-3.3,3.13,3.13,0,0,1,2.58-1.24,2.92,2.92,0,0,1,2.39,1.06l.09-.89h1.74v8.61a3.57,3.57,0,0,1-1.09,2.76,4.12,4.12,0,0,1-2.93,1,4.71,4.71,0,0,1-1.91-.41,3.36,3.36,0,0,1-1.41-1.06l.94-1.2a2.85,2.85,0,0,0,2.26,1.09,2.19,2.19,0,0,0,1.57-.54,2,2,0,0,0,.57-1.57v-.6a2.93,2.93,0,0,1-2.3,1,3.12,3.12,0,0,1-2.55-1.24,5.38,5.38,0,0,1-1-3.49Zm2,.17a3.62,3.62,0,0,0,.54,2.11,1.77,1.77,0,0,0,1.52.76,1.92,1.92,0,0,0,1.79-1v-4a1.89,1.89,0,0,0-1.77-1,1.77,1.77,0,0,0-1.53.78,4,4,0,0,0-.57,2.3Zm11.47,4.5a4.14,4.14,0,0,1-3.08-1.19A4.35,4.35,0,0,1,437.6,255v-.23a5.34,5.34,0,0,1,.51-2.37,3.93,3.93,0,0,1,1.44-1.63,3.8,3.8,0,0,1,2.07-.58,3.47,3.47,0,0,1,2.8,1.16,4.88,4.88,0,0,1,1,3.27v.8h-5.8a2.68,2.68,0,0,0,.73,1.74,2.22,2.22,0,0,0,1.62.64,2.7,2.7,0,0,0,2.23-1.11l1.07,1a3.62,3.62,0,0,1-1.43,1.24,4.47,4.47,0,0,1-2,.42Zm-.24-7.6a1.69,1.69,0,0,0-1.33.57,3,3,0,0,0-.64,1.6h3.8v-.17a2.41,2.41,0,0,0-.53-1.51,1.66,1.66,0,0,0-1.32-.49Zm-33.53,19.13a3.12,3.12,0,0,1,2.47-1.13q2.84,0,2.88,3.24v5.76h-2V273a1.73,1.73,0,0,0-.4-1.3,1.6,1.6,0,0,0-1.16-.39,1.92,1.92,0,0,0-1.79,1.07v6.35h-2v-12.6h2Zm6.66,3.39a5.21,5.21,0,0,1,.52-2.35,3.74,3.74,0,0,1,1.45-1.61,4.06,4.06,0,0,1,2.15-.57,3.86,3.86,0,0,1,2.91,1.16A4.54,4.54,0,0,1,423,274v.47a5.25,5.25,0,0,1-.51,2.35,3.7,3.7,0,0,1-1.44,1.6,4.1,4.1,0,0,1-2.17.57,3.87,3.87,0,0,1-3-1.25,4.82,4.82,0,0,1-1.12-3.34Zm2,.17a3.59,3.59,0,0,0,.57,2.15,1.84,1.84,0,0,0,1.57.77,1.81,1.81,0,0,0,1.57-.79,3.93,3.93,0,0,0,.57-2.31,3.51,3.51,0,0,0-.58-2.13,1.94,1.94,0,0,0-3.12,0,3.86,3.86,0,0,0-.6,2.29Zm10.61,1.82,1.88-6.35h2.06l-3.11,8.84h-1.73l-3.1-8.88h2.07ZM436,279a4.15,4.15,0,0,1-3.08-1.19,4.35,4.35,0,0,1-1.17-3.18v-.25a5.33,5.33,0,0,1,.51-2.37,3.92,3.92,0,0,1,1.44-1.63,3.8,3.8,0,0,1,2.07-.58,3.47,3.47,0,0,1,2.8,1.16,4.88,4.88,0,0,1,1,3.27v.8h-5.8a2.68,2.68,0,0,0,.73,1.74,2.22,2.22,0,0,0,1.62.64,2.7,2.7,0,0,0,2.23-1.11l1.07,1a3.61,3.61,0,0,1-1.43,1.24,4.47,4.47,0,0,1-2,.44Zm-.24-7.6a1.69,1.69,0,0,0-1.33.57,3,3,0,0,0-.64,1.6h3.8v-.15a2.4,2.4,0,0,0-.53-1.51,1.66,1.66,0,0,0-1.32-.54Zm9.66.39a4.9,4.9,0,0,0-.81-.07,1.83,1.83,0,0,0-1.85,1v6h-2v-8.88h1.9v1a2.25,2.25,0,0,1,2-1.16,1.87,1.87,0,0,1,.71.11Z" transform="translate(0 0)"/><path d="M404.79,260.78h41.12v.82H404.79Zm.29,19.6h40.56v.82H405.08Z" transform="translate(0 0)"/><path d="M371.11,229.09h108.5v-1.4H371.11Zm108.5,68.6H371.11v1.4h108.5Zm-108.5,0a34.3,34.3,0,0,1-34.3-34.3h-1.4a35.7,35.7,0,0,0,35.7,35.7h0Zm142.8-34.3a34.3,34.3,0,0,1-34.3,34.3v1.4a35.7,35.7,0,0,0,35.7-35.7h-1.4Zm-34.3-34.3a34.3,34.3,0,0,1,34.3,34.3h1.4a35.7,35.7,0,0,0-35.7-35.7h0Zm-108.5-1.4a35.7,35.7,0,0,0-35.7,35.7h1.4a34.3,34.3,0,0,1,34.3-34.3Z" transform="translate(0 0)" style="fill:#363636"/><path d="M122.61,263.39a35,35,0,0,1,35-35h108.5a35,35,0,0,1,0,70H157.61A35,35,0,0,1,122.61,263.39Z" transform="translate(0 0)" style="fill:#fff"/><path d="M194.58,257.54H200v1.66h-7.5v-12h2.07Zm11.79,1.66a3.06,3.06,0,0,1-.23-.83,3.35,3.35,0,0,1-4.51.23,2.44,2.44,0,0,1-.84-1.89,2.51,2.51,0,0,1,1-2.17,5.11,5.11,0,0,1,3-.76H206v-.58a1.54,1.54,0,0,0-.39-1.1,1.52,1.52,0,0,0-1.17-.42,1.74,1.74,0,0,0-1.12.34,1,1,0,0,0-.43.86h-2a2.2,2.2,0,0,1,.48-1.36,3.21,3.21,0,0,1,1.31-1,4.65,4.65,0,0,1,1.86-.36A3.71,3.71,0,0,1,207,251a2.78,2.78,0,0,1,1,2.2v4a4.54,4.54,0,0,0,.34,1.91v.14Zm-2.19-1.42a2.25,2.25,0,0,0,1.11-.29,1.91,1.91,0,0,0,.79-.77V255H205a2.93,2.93,0,0,0-1.67.39,1.25,1.25,0,0,0-.56,1.09,1.19,1.19,0,0,0,.38.92A1.5,1.5,0,0,0,204.18,257.78Zm10.29-5.62a4.9,4.9,0,0,0-.81-.07,1.83,1.83,0,0,0-1.85,1v6.07h-2v-8.88h1.9v1a2.25,2.25,0,0,1,2-1.16,1.87,1.87,0,0,1,.71.11Zm.41,2.55a5.19,5.19,0,0,1,1-3.3,3.13,3.13,0,0,1,2.58-1.24,2.92,2.92,0,0,1,2.39,1.06l.09-.89h1.8v8.61a3.57,3.57,0,0,1-1.09,2.76,4.12,4.12,0,0,1-2.93,1,4.71,4.71,0,0,1-1.91-.41,3.36,3.36,0,0,1-1.41-1.06l.94-1.2a2.85,2.85,0,0,0,2.26,1.09,2.19,2.19,0,0,0,1.57-.54,2,2,0,0,0,.57-1.57v-.6a2.93,2.93,0,0,1-2.3,1,3.12,3.12,0,0,1-2.55-1.24,5.38,5.38,0,0,1-1-3.49Zm2,.17a3.62,3.62,0,0,0,.54,2.11,1.77,1.77,0,0,0,1.52.76,1.92,1.92,0,0,0,1.79-1v-4a1.89,1.89,0,0,0-1.77-1,1.77,1.77,0,0,0-1.53.78,4,4,0,0,0-.57,2.3Zm11.47,4.5a4.14,4.14,0,0,1-3.08-1.19A4.35,4.35,0,0,1,224.1,255v-.23a5.34,5.34,0,0,1,.51-2.37,3.93,3.93,0,0,1,1.44-1.63,3.8,3.8,0,0,1,2.07-.58,3.47,3.47,0,0,1,2.8,1.16,4.88,4.88,0,0,1,1,3.27v.8h-5.8a2.68,2.68,0,0,0,.73,1.74,2.22,2.22,0,0,0,1.62.64,2.7,2.7,0,0,0,2.23-1.11l1.07,1a3.62,3.62,0,0,1-1.43,1.24,4.47,4.47,0,0,1-2,.42Zm-.24-7.6a1.69,1.69,0,0,0-1.33.57,3,3,0,0,0-.64,1.6h3.8v-.17a2.41,2.41,0,0,0-.53-1.51,1.66,1.66,0,0,0-1.32-.49Zm-41,22.54a5.26,5.26,0,0,1,1-3.29,3,3,0,0,1,2.55-1.25,2.9,2.9,0,0,1,2.28,1v-4.54h2v12.54h-1.76l-.1-.92a2.94,2.94,0,0,1-2.39,1.08,3,3,0,0,1-2.53-1.26,5.49,5.49,0,0,1-1-3.39Zm2,.17a3.74,3.74,0,0,0,.52,2.12,1.7,1.7,0,0,0,1.49.75,1.88,1.88,0,0,0,1.79-1.09v-3.79a1.85,1.85,0,0,0-1.77-1.07,1.7,1.7,0,0,0-1.49.77,4.09,4.09,0,0,0-.53,2.28Zm11.44,4.5a4.15,4.15,0,0,1-3.07-1.21,4.35,4.35,0,0,1-1.17-3.18v-.25a5.33,5.33,0,0,1,.51-2.37,3.93,3.93,0,0,1,1.44-1.63,3.81,3.81,0,0,1,2.07-.58,3.47,3.47,0,0,1,2.8,1.16,4.88,4.88,0,0,1,1,3.27v.8h-5.8a2.68,2.68,0,0,0,.73,1.74,2.22,2.22,0,0,0,1.62.64,2.7,2.7,0,0,0,2.23-1.11l1.07,1a3.61,3.61,0,0,1-1.43,1.24,4.46,4.46,0,0,1-2,.45Zm-.24-7.6A1.69,1.69,0,0,0,199,272a3,3,0,0,0-.64,1.6h3.84v-.15a2.4,2.4,0,0,0-.53-1.51,1.66,1.66,0,0,0-1.33-.55Zm5.72,7.44v-7.4h-1.35V270H206v-.81a3.05,3.05,0,0,1,.82-2.28,3.14,3.14,0,0,1,2.3-.8,4.59,4.59,0,0,1,1.12.15v1.57a4,4,0,0,0-.76-.07,1.28,1.28,0,0,0-1.43,1.47V270h1.8v1.48h-1.8v7.33Zm10.22,0a1.29,1.29,0,1,0-2.56.16,3.13,3.13,0,0,1-2.18-.76,2.44,2.44,0,0,1-.84-1.89,2.51,2.51,0,0,1,1-2.17,5.1,5.1,0,0,1,3-.76h1.22v-.63a1.54,1.54,0,0,0-.39-1.1,1.52,1.52,0,0,0-1.17-.42,1.74,1.74,0,0,0-1.12.34,1,1,0,0,0-.43.86h-2a2.2,2.2,0,0,1,.48-1.36,3.21,3.21,0,0,1,1.31-1,4.65,4.65,0,0,1,1.86-.36,3.71,3.71,0,0,1,2.49.79,2.78,2.78,0,0,1,1,2.2v4a4.53,4.53,0,0,0,.34,1.91v.14Zm-2.19-1.44a2.25,2.25,0,0,0,1.11-.29,1.91,1.91,0,0,0,.79-.77v-1.67h-1.07a2.94,2.94,0,0,0-1.67.39,1.25,1.25,0,0,0-.56,1.09,1.18,1.18,0,0,0,.38.92,1.5,1.5,0,0,0,1,.3Zm11,.57a3.09,3.09,0,0,1-2.49,1,2.77,2.77,0,0,1-2.19-.84,3.61,3.61,0,0,1-.74-2.44v-5.75h2v5.73q0,1.69,1.4,1.69a2,2,0,0,0,2-1V270h2v8.8h-1.86Zm5.74.87h-2v-12.6h2Zm4.38-11.05v2.16h1.57v1.48h-1.57v5a1.12,1.12,0,0,0,.2.74,1,1,0,0,0,.72.22,3.08,3.08,0,0,0,.7-.08v1.48a4.9,4.9,0,0,1-1.31.19q-2.3,0-2.3-2.53v-5h-1.46V270h1.45v-2.18Z" transform="translate(0 0)"/><path d="M157.61,229.09h108.5v-1.4H157.61Zm108.5,68.6H157.61v1.4h108.5Zm-108.5,0a34.3,34.3,0,0,1-34.3-34.3h-1.4a35.7,35.7,0,0,0,35.7,35.7h0Zm142.8-34.3a34.3,34.3,0,0,1-34.3,34.3v1.4a35.7,35.7,0,0,0,35.7-35.7h-1.4Zm-34.3-34.3a34.3,34.3,0,0,1,34.3,34.3h1.4a35.7,35.7,0,0,0-35.7-35.7h0Zm-108.5-1.4a35.7,35.7,0,0,0-35.7,35.7h1.4a34.3,34.3,0,0,1,34.3-34.3Z" transform="translate(0 0)" style="fill:#363636"/><path d="M548.5,172.39a17.5,17.5,0,0,1,17.5-17.5H709.5a17.5,17.5,0,0,1,0,35H566A17.5,17.5,0,0,1,548.5,172.39Z" transform="translate(0 0)" style="fill:#7fa4b0"/><path d="M606.71,174.92a1.44,1.44,0,0,0-.55-1.21,6.71,6.71,0,0,0-2-.86,9.54,9.54,0,0,1-2.3-1,3.06,3.06,0,0,1-1.63-2.67,2.92,2.92,0,0,1,1.17-2.38,4.78,4.78,0,0,1,3.06-.94,5.18,5.18,0,0,1,2.23.46,3.63,3.63,0,0,1,1.53,1.31,3.35,3.35,0,0,1,.56,1.88h-2.07a1.86,1.86,0,0,0-.59-1.46,2.38,2.38,0,0,0-1.67-.53,2.54,2.54,0,0,0-1.58.43,1.46,1.46,0,0,0-.56,1.21,1.32,1.32,0,0,0,.61,1.1,7.17,7.17,0,0,0,2,.85,9,9,0,0,1,2.24.94,3.58,3.58,0,0,1,1.24,1.21,3.17,3.17,0,0,1,.39,1.6,2.86,2.86,0,0,1-1.15,2.38,5,5,0,0,1-3.1.88,5.9,5.9,0,0,1-2.39-.48,4.09,4.09,0,0,1-1.69-1.33,3.31,3.31,0,0,1-.59-2h2.07a1.93,1.93,0,0,0,.67,1.57,3,3,0,0,0,1.93.56,2.57,2.57,0,0,0,1.62-.43A1.43,1.43,0,0,0,606.71,174.92Zm7.28,3.24a4.15,4.15,0,0,1-3.08-1.19,4.37,4.37,0,0,1-1.17-3.18v-.25a5.28,5.28,0,0,1,.51-2.37,3.92,3.92,0,0,1,1.44-1.63,3.8,3.8,0,0,1,2.06-.58,3.48,3.48,0,0,1,2.8,1.16,4.9,4.9,0,0,1,1,3.27v.8h-5.8a2.69,2.69,0,0,0,.73,1.74,2.22,2.22,0,0,0,1.62.64,2.7,2.7,0,0,0,2.23-1.11l1.08,1A3.63,3.63,0,0,1,616,177.7,4.5,4.5,0,0,1,614,178.16Zm-.24-7.6a1.7,1.7,0,0,0-1.33.57,3,3,0,0,0-.64,1.6h3.79v-.15a2.38,2.38,0,0,0-.53-1.51,1.65,1.65,0,0,0-1.29-.52Zm8.66,6a1.78,1.78,0,0,0,1.24-.43,1.48,1.48,0,0,0,.53-1.07h1.88a3,3,0,0,1-.52,1.55,3.41,3.41,0,0,1-1.27,1.17,3.89,3.89,0,0,1-1.79.42,3.79,3.79,0,0,1-3-1.21,4.78,4.78,0,0,1-1.09-3.33v-.21a4.69,4.69,0,0,1,1.09-3.24,3.75,3.75,0,0,1,3-1.22,3.63,3.63,0,0,1,2.58.93,3.3,3.3,0,0,1,1.05,2.42h-1.88a1.81,1.81,0,0,0-.53-1.26,1.66,1.66,0,0,0-1.24-.49,1.75,1.75,0,0,0-1.49.71,3.57,3.57,0,0,0-.53,2.12v.32a3.69,3.69,0,0,0,.52,2.16,1.77,1.77,0,0,0,1.5.71Zm4.45-3.09a5.23,5.23,0,0,1,.51-2.35,3.79,3.79,0,0,1,1.46-1.61,4,4,0,0,1,2.15-.57,3.86,3.86,0,0,1,2.91,1.16,4.52,4.52,0,0,1,1.21,3.07v.47a5.29,5.29,0,0,1-.5,2.35,3.74,3.74,0,0,1-1.44,1.6,4.14,4.14,0,0,1-2.17.57,3.87,3.87,0,0,1-3-1.25,4.82,4.82,0,0,1-1.12-3.34Zm2,.17a3.59,3.59,0,0,0,.57,2.15,1.84,1.84,0,0,0,1.57.77,1.81,1.81,0,0,0,1.57-.79,3.92,3.92,0,0,0,.57-2.31,3.54,3.54,0,0,0-.58-2.13,2,2,0,0,0-3.12,0,3.89,3.89,0,0,0-.6,2.32Zm9.46-4.53.06,1a3.19,3.19,0,0,1,2.58-1.19q2.77,0,2.82,3.17V178h-2v-5.75a1.77,1.77,0,0,0-.37-1.25,1.5,1.5,0,0,0-1.18-.41,1.92,1.92,0,0,0-1.8,1.09V178h-2v-8.88Zm6.79,4.37a5.24,5.24,0,0,1,1-3.29,3,3,0,0,1,2.55-1.25,2.9,2.9,0,0,1,2.28,1V165.4h2V178h-1.81l-.1-.92a2.94,2.94,0,0,1-2.39,1.08,3,3,0,0,1-2.53-1.26,5.5,5.5,0,0,1-1-3.41Zm2,.17a3.75,3.75,0,0,0,.51,2.12,1.71,1.71,0,0,0,1.49.75,1.88,1.88,0,0,0,1.79-1.09v-3.79a1.85,1.85,0,0,0-1.77-1.07,1.7,1.7,0,0,0-1.49.77,4.09,4.09,0,0,0-.55,2.32ZM659.94,178a2.86,2.86,0,0,1-.23-.83,3.11,3.11,0,0,1-2.33,1,3.15,3.15,0,0,1-2.18-.76,2.45,2.45,0,0,1-.85-1.89,2.51,2.51,0,0,1,1-2.17,5.12,5.12,0,0,1,3-.76h1.22V172a1.53,1.53,0,0,0-.39-1.1,1.5,1.5,0,0,0-1.17-.42,1.76,1.76,0,0,0-1.12.34,1,1,0,0,0-.43.86h-2a2.17,2.17,0,0,1,.49-1.36,3.19,3.19,0,0,1,1.31-1,4.65,4.65,0,0,1,1.86-.36,3.7,3.7,0,0,1,2.48.79,2.78,2.78,0,0,1,1,2.2v4a4.54,4.54,0,0,0,.34,1.91V178Zm-2.19-1.44a2.24,2.24,0,0,0,1.11-.29,1.9,1.9,0,0,0,.78-.77v-1.7h-1.07a2.93,2.93,0,0,0-1.67.39,1.25,1.25,0,0,0-.56,1.09,1.18,1.18,0,0,0,.38.92,1.52,1.52,0,0,0,1,.38ZM668,170.92a4.85,4.85,0,0,0-.81-.07,1.84,1.84,0,0,0-1.85,1v6.07h-2V169h1.9v1a2.24,2.24,0,0,1,2-1.16,1.84,1.84,0,0,1,.7.11Zm4.18,4.2,1.81-6h2.12l-3.53,10.22a2.86,2.86,0,0,1-2.76,2.24,3.57,3.57,0,0,1-1-.15v-1.54h.38a1.91,1.91,0,0,0,1.13-.28,1.77,1.77,0,0,0,.61-.92l.29-.76-3.12-8.83h2.13Z" transform="translate(0 0)" style="fill:#828282"/><path d="M336.11,172.39a17.5,17.5,0,0,1,17.5-17.5h143.5a17.5,17.5,0,0,1,0,35H353.61A17.5,17.5,0,0,1,336.11,172.39Z" transform="translate(0 0)" style="fill:#7fa4b0"/><path d="M394.32,174.92a1.44,1.44,0,0,0-.56-1.21,6.59,6.59,0,0,0-2-.86,9.63,9.63,0,0,1-2.3-1,3.06,3.06,0,0,1-1.63-2.67A2.91,2.91,0,0,1,389,166.8a4.78,4.78,0,0,1,3.06-.94,5.16,5.16,0,0,1,2.22.46,3.65,3.65,0,0,1,1.53,1.31,3.34,3.34,0,0,1,.56,1.88H394.3a1.85,1.85,0,0,0-.59-1.46,2.39,2.39,0,0,0-1.67-.53,2.55,2.55,0,0,0-1.58.43,1.45,1.45,0,0,0-.56,1.21,1.32,1.32,0,0,0,.61,1.1,7.16,7.16,0,0,0,2,.85,9,9,0,0,1,2.24.94,3.52,3.52,0,0,1,1.24,1.21,3.14,3.14,0,0,1,.39,1.6,2.85,2.85,0,0,1-1.15,2.38,5,5,0,0,1-3.1.88,5.91,5.91,0,0,1-2.39-.48,4.06,4.06,0,0,1-1.69-1.33,3.31,3.31,0,0,1-.6-2h2.08a1.93,1.93,0,0,0,.67,1.57,3,3,0,0,0,1.93.56,2.56,2.56,0,0,0,1.62-.43A1.42,1.42,0,0,0,394.32,174.92Zm7.28,3.24a4.14,4.14,0,0,1-3.08-1.19,4.35,4.35,0,0,1-1.17-3.18v-.25a5.33,5.33,0,0,1,.51-2.37,3.92,3.92,0,0,1,1.44-1.63,3.8,3.8,0,0,1,2.07-.58,3.47,3.47,0,0,1,2.8,1.16,4.87,4.87,0,0,1,1,3.27v.8h-5.8a2.68,2.68,0,0,0,.73,1.74,2.22,2.22,0,0,0,1.62.64,2.7,2.7,0,0,0,2.23-1.11l1.07,1a3.61,3.61,0,0,1-1.43,1.24,4.47,4.47,0,0,1-2,.46Zm-.24-7.6a1.69,1.69,0,0,0-1.33.57,3,3,0,0,0-.64,1.6h3.79v-.15a2.41,2.41,0,0,0-.53-1.51,1.66,1.66,0,0,0-1.29-.52Zm8.66,6a1.8,1.8,0,0,0,1.24-.43,1.49,1.49,0,0,0,.52-1.07h1.88a3,3,0,0,1-.52,1.55,3.41,3.41,0,0,1-1.31,1.13,3.92,3.92,0,0,1-1.79.42,3.79,3.79,0,0,1-3-1.21,4.78,4.78,0,0,1-1.09-3.33v-.21a4.68,4.68,0,0,1,1.08-3.24,3.74,3.74,0,0,1,3-1.22,3.62,3.62,0,0,1,2.58.93,3.29,3.29,0,0,1,1,2.42h-1.83a1.82,1.82,0,0,0-.52-1.26,1.66,1.66,0,0,0-1.24-.49,1.75,1.75,0,0,0-1.49.71,3.56,3.56,0,0,0-.53,2.12v.32a3.68,3.68,0,0,0,.52,2.16,1.77,1.77,0,0,0,1.5.71Zm4.44-3.09a5.2,5.2,0,0,1,.52-2.35,3.74,3.74,0,0,1,1.45-1.61,4.06,4.06,0,0,1,2.15-.57,3.86,3.86,0,0,1,2.91,1.16,4.54,4.54,0,0,1,1.21,3.07v.47a5.25,5.25,0,0,1-.51,2.35,3.7,3.7,0,0,1-1.44,1.6,4.1,4.1,0,0,1-2.17.57,3.87,3.87,0,0,1-3-1.25,4.81,4.81,0,0,1-1.12-3.34Zm2,.17a3.59,3.59,0,0,0,.57,2.15,1.84,1.84,0,0,0,1.58.77,1.81,1.81,0,0,0,1.57-.78,3.93,3.93,0,0,0,.57-2.31,3.51,3.51,0,0,0-.58-2.13,1.94,1.94,0,0,0-3.12,0,3.86,3.86,0,0,0-.6,2.31Zm9.46-4.53.06,1a3.19,3.19,0,0,1,2.58-1.19q2.77,0,2.82,3.17V178h-2v-5.75A1.8,1.8,0,0,0,429,171a1.51,1.51,0,0,0-1.19-.41,1.92,1.92,0,0,0-1.8,1.09V178h-2v-8.88Zm6.79,4.37a5.26,5.26,0,0,1,1-3.29,3,3,0,0,1,2.55-1.25,2.9,2.9,0,0,1,2.28,1V165.4h2V178h-1.8l-.1-.92a2.94,2.94,0,0,1-2.39,1.08,3,3,0,0,1-2.53-1.26,5.49,5.49,0,0,1-1-3.41Zm2,.17a3.73,3.73,0,0,0,.47,2.13,1.7,1.7,0,0,0,1.48.75,1.88,1.88,0,0,0,1.79-1.09v-3.79a1.85,1.85,0,0,0-1.77-1.07,1.7,1.7,0,0,0-1.49.77,4.09,4.09,0,0,0-.49,2.31ZM447.54,178a1.29,1.29,0,1,0-2.56.16,3.13,3.13,0,0,1-2.18-.76,2.44,2.44,0,0,1-.84-1.89,2.51,2.51,0,0,1,1-2.17,5.1,5.1,0,0,1,3-.76h1.22V172a1.54,1.54,0,0,0-.39-1.1,1.52,1.52,0,0,0-1.17-.42,1.74,1.74,0,0,0-1.12.34,1,1,0,0,0-.43.86h-2a2.2,2.2,0,0,1,.48-1.36,3.21,3.21,0,0,1,1.31-1,4.65,4.65,0,0,1,1.86-.36,3.71,3.71,0,0,1,2.48.79,2.78,2.78,0,0,1,1,2.2v4a4.54,4.54,0,0,0,.34,1.91V178Zm-2.19-1.44a2.25,2.25,0,0,0,1.11-.29,1.91,1.91,0,0,0,.79-.77v-1.7h-1.07a2.93,2.93,0,0,0-1.67.39,1.25,1.25,0,0,0-.56,1.09,1.19,1.19,0,0,0,.38.92,1.51,1.51,0,0,0,1,.38Zm10.29-5.62a4.9,4.9,0,0,0-.81-.07,1.83,1.83,0,0,0-1.85,1v6.07h-2V169h1.9v1a2.25,2.25,0,0,1,2-1.16,1.87,1.87,0,0,1,.71.11Zm4.18,4.2,1.8-6h2.12l-3.56,10.22a2.87,2.87,0,0,1-2.76,2.24,3.56,3.56,0,0,1-1-.15v-1.54h.38a1.9,1.9,0,0,0,1.13-.28,1.79,1.79,0,0,0,.61-.92l.29-.76-3.12-8.83h2.15Z" transform="translate(0 0)"/><path d="M386.86,179.63h77v.82h-77Z" transform="translate(0 0)"/><path d="M122.61,172.39a17.5,17.5,0,0,1,17.5-17.5h143.5a17.5,17.5,0,0,1,0,35H140.11A17.5,17.5,0,0,1,122.61,172.39Z" transform="translate(0 0)" style="fill:#7fa4b0"/><path d="M180.82,174.92a1.44,1.44,0,0,0-.56-1.21,6.59,6.59,0,0,0-2-.86,9.63,9.63,0,0,1-2.3-1,3.06,3.06,0,0,1-1.63-2.67,2.91,2.91,0,0,1,1.17-2.38,4.78,4.78,0,0,1,3.06-.94,5.16,5.16,0,0,1,2.22.46,3.65,3.65,0,0,1,1.53,1.31,3.34,3.34,0,0,1,.56,1.88H180.8a1.85,1.85,0,0,0-.59-1.46,2.39,2.39,0,0,0-1.67-.53A2.55,2.55,0,0,0,177,168a1.45,1.45,0,0,0-.56,1.21,1.32,1.32,0,0,0,.61,1.1,7.16,7.16,0,0,0,2,.85,9,9,0,0,1,2.24.94,3.52,3.52,0,0,1,1.24,1.21,3.14,3.14,0,0,1,.39,1.6,2.85,2.85,0,0,1-1.15,2.38,5,5,0,0,1-3.1.88,5.91,5.91,0,0,1-2.39-.48,4.06,4.06,0,0,1-1.69-1.33,3.31,3.31,0,0,1-.6-2H176a1.93,1.93,0,0,0,.67,1.57,3,3,0,0,0,1.93.56,2.56,2.56,0,0,0,1.62-.43A1.42,1.42,0,0,0,180.82,174.92Zm7.28,3.24A4.14,4.14,0,0,1,185,177a4.35,4.35,0,0,1-1.17-3.18v-.25a5.33,5.33,0,0,1,.51-2.37,3.92,3.92,0,0,1,1.44-1.63,3.8,3.8,0,0,1,2.07-.58,3.47,3.47,0,0,1,2.8,1.16,4.88,4.88,0,0,1,1,3.27v.8h-5.8a2.68,2.68,0,0,0,.73,1.74,2.22,2.22,0,0,0,1.62.64,2.7,2.7,0,0,0,2.23-1.11l1.07,1a3.61,3.61,0,0,1-1.43,1.24,4.47,4.47,0,0,1-2,.46Zm-.24-7.6a1.69,1.69,0,0,0-1.33.57,3,3,0,0,0-.64,1.6h3.8v-.15a2.41,2.41,0,0,0-.53-1.51,1.66,1.66,0,0,0-1.3-.52Zm8.66,6a1.8,1.8,0,0,0,1.24-.43,1.49,1.49,0,0,0,.52-1.07h1.9a3,3,0,0,1-.52,1.55,3.41,3.41,0,0,1-1.31,1.13,3.92,3.92,0,0,1-1.79.42,3.79,3.79,0,0,1-3-1.21,4.78,4.78,0,0,1-1.09-3.33v-.21a4.68,4.68,0,0,1,1.08-3.24,3.74,3.74,0,0,1,3-1.22,3.62,3.62,0,0,1,2.58.93,3.29,3.29,0,0,1,1,2.42h-1.9a1.82,1.82,0,0,0-.52-1.26,1.66,1.66,0,0,0-1.24-.49,1.75,1.75,0,0,0-1.49.71,3.56,3.56,0,0,0-.53,2.12v.32a3.68,3.68,0,0,0,.52,2.16,1.77,1.77,0,0,0,1.5.71Zm4.44-3.09a5.2,5.2,0,0,1,.52-2.35,3.74,3.74,0,0,1,1.45-1.61,4.06,4.06,0,0,1,2.15-.57A3.86,3.86,0,0,1,208,170.1a4.54,4.54,0,0,1,1.19,3.08v.47a5.25,5.25,0,0,1-.51,2.35,3.7,3.7,0,0,1-1.44,1.6,4.1,4.1,0,0,1-2.17.57,3.87,3.87,0,0,1-3-1.25,4.81,4.81,0,0,1-1.12-3.34Zm2,.17a3.59,3.59,0,0,0,.57,2.15,1.84,1.84,0,0,0,1.58.77,1.81,1.81,0,0,0,1.57-.79,3.93,3.93,0,0,0,.57-2.31,3.51,3.51,0,0,0-.58-2.13,1.94,1.94,0,0,0-3.12,0,3.86,3.86,0,0,0-.6,2.32Zm9.46-4.53.06,1a3.19,3.19,0,0,1,2.58-1.19q2.77,0,2.82,3.17V178h-2v-5.75a1.8,1.8,0,0,0-.37-1.25,1.51,1.51,0,0,0-1.19-.41,1.92,1.92,0,0,0-1.8,1.09V178h-2v-8.88Zm6.76,4.37a5.26,5.26,0,0,1,1-3.29,3,3,0,0,1,2.55-1.25,2.9,2.9,0,0,1,2.28,1V165.4h2V178h-1.83l-.1-.92a2.94,2.94,0,0,1-2.39,1.08,3,3,0,0,1-2.53-1.26,5.49,5.49,0,0,1-1-3.41Zm2,.17a3.73,3.73,0,0,0,.52,2.12,1.7,1.7,0,0,0,1.48.75,1.88,1.88,0,0,0,1.79-1.09v-3.79a1.85,1.85,0,0,0-1.77-1.07,1.7,1.7,0,0,0-1.49.77,4.09,4.09,0,0,0-.56,2.32ZM234,178a1.29,1.29,0,1,0-2.56.16,3.13,3.13,0,0,1-2.18-.76,2.44,2.44,0,0,1-.84-1.89,2.51,2.51,0,0,1,1-2.17,5.1,5.1,0,0,1,3-.76h1.22V172a1.54,1.54,0,0,0-.39-1.1,1.52,1.52,0,0,0-1.17-.42,1.74,1.74,0,0,0-1.12.34,1,1,0,0,0-.43.86h-2a2.2,2.2,0,0,1,.48-1.36,3.21,3.21,0,0,1,1.31-1,4.65,4.65,0,0,1,1.86-.36,3.71,3.71,0,0,1,2.48.79,2.78,2.78,0,0,1,1,2.2v4a4.54,4.54,0,0,0,.34,1.91V178Zm-2.19-1.44a2.25,2.25,0,0,0,1.11-.29,1.91,1.91,0,0,0,.79-.77v-1.7h-1a2.93,2.93,0,0,0-1.67.39,1.25,1.25,0,0,0-.56,1.09,1.19,1.19,0,0,0,.38.92,1.51,1.51,0,0,0,1,.38Zm10.36-5.62a4.9,4.9,0,0,0-.81-.07,1.83,1.83,0,0,0-1.85,1v6.07h-2V169h1.9v1a2.25,2.25,0,0,1,2-1.16,1.87,1.87,0,0,1,.71.11Zm4.18,4.2,1.8-6h2l-3.53,10.22a2.87,2.87,0,0,1-2.76,2.24,3.56,3.56,0,0,1-1-.15v-1.54h.38a1.9,1.9,0,0,0,1.13-.28,1.79,1.79,0,0,0,.61-.92l.29-.76-3.12-8.83h2.15Z" transform="translate(0 0)"/><path d="M548.5,81.39A17.5,17.5,0,0,1,566,63.89H714.4a17.5,17.5,0,0,1,0,35H566a17.5,17.5,0,0,1-17.5-17.5Z" transform="translate(0 0)" style="fill:#ffd600"/><path d="M615,82.56V87H613V75h4.57a4.62,4.62,0,0,1,3.18,1,3.5,3.5,0,0,1,1.18,2.76,3.38,3.38,0,0,1-1.16,2.73,4.83,4.83,0,0,1-3.22,1Zm0-1.67h2.49a2.48,2.48,0,0,0,1.69-.52,1.94,1.94,0,0,0,.58-1.51,2,2,0,0,0-.59-1.54,2.26,2.26,0,0,0-1.62-.6H615Zm12.79-1a4.91,4.91,0,0,0-.81-.07,1.83,1.83,0,0,0-1.85,1v6.07h-2V78h1.9v1a2.25,2.25,0,0,1,2-1.16,1.88,1.88,0,0,1,.71.11Zm3,7h-2V78h2Zm-2.08-11.11A1.08,1.08,0,0,1,629,75a1.3,1.3,0,0,1,1.67,0,1.11,1.11,0,0,1,0,1.52,1.33,1.33,0,0,1-1.67,0A1.07,1.07,0,0,1,628.76,75.78Zm5.84,2.31.06.93a3.19,3.19,0,0,1,2.56-1.09,2.45,2.45,0,0,1,2.44,1.36,3.16,3.16,0,0,1,2.73-1.36,2.75,2.75,0,0,1,2.18.81,3.57,3.57,0,0,1,.74,2.4V87h-2V81.2a1.77,1.77,0,0,0-.37-1.24,1.61,1.61,0,0,0-1.22-.39,1.68,1.68,0,0,0-1.12.37,1.92,1.92,0,0,0-.6,1V87h-2V81.19a1.42,1.42,0,0,0-1.6-1.57,1.76,1.76,0,0,0-1.7,1V87h-2V78.17ZM652.31,87a2.86,2.86,0,0,1-.23-.83,3.11,3.11,0,0,1-2.33,1,3.15,3.15,0,0,1-2.18-.76,2.45,2.45,0,0,1-.84-1.89,2.51,2.51,0,0,1,1-2.17,5.08,5.08,0,0,1,3-.76H652V81a1.53,1.53,0,0,0-.39-1.1,1.5,1.5,0,0,0-1.17-.42,1.73,1.73,0,0,0-1.11.34,1,1,0,0,0-.44.86h-2a2.2,2.2,0,0,1,.48-1.36,3.19,3.19,0,0,1,1.31-1,4.67,4.67,0,0,1,1.86-.36,3.7,3.7,0,0,1,2.48.79,2.76,2.76,0,0,1,1,2.2v4a4.54,4.54,0,0,0,.34,1.91V87Zm-2.19-1.44a2.24,2.24,0,0,0,1.11-.29,1.92,1.92,0,0,0,.79-.77V82.78h-1.08a2.94,2.94,0,0,0-1.67.39,1.25,1.25,0,0,0-.56,1.09,1.18,1.18,0,0,0,.38.92,1.52,1.52,0,0,0,1,.38Zm10.28-5.62a4.85,4.85,0,0,0-.81-.07,1.82,1.82,0,0,0-1.84,1v6.07h-2V78h1.9v1a2.25,2.25,0,0,1,2-1.16,1.91,1.91,0,0,1,.71.11Zm4.18,4.2,1.81-6h2.12L665,88.33a2.86,2.86,0,0,1-2.75,2.24,3.53,3.53,0,0,1-1-.15V88.88h.37a1.91,1.91,0,0,0,1.13-.28,1.77,1.77,0,0,0,.61-.92l.29-.76-3.12-8.83h2.15Z" transform="translate(0 0)" style="fill:#828282"/><path d="M336.11,81.39a17.5,17.5,0,0,1,17.5-17.5H502a17.5,17.5,0,0,1,0,35H353.61a17.5,17.5,0,0,1-17.5-17.5Z" transform="translate(0 0)" style="fill:#ffd600"/><path d="M402.66,82.56V87h-2.08V75h4.6a4.61,4.61,0,0,1,3.18,1,3.49,3.49,0,0,1,1.18,2.76,3.38,3.38,0,0,1-1.16,2.73,4.83,4.83,0,0,1-3.22,1Zm0-1.67h2.52a2.47,2.47,0,0,0,1.69-.52,1.93,1.93,0,0,0,.58-1.51,2.05,2.05,0,0,0-.59-1.54,2.27,2.27,0,0,0-1.62-.6h-2.55Zm12.79-1a4.9,4.9,0,0,0-.81-.07,1.83,1.83,0,0,0-1.85,1v6.07h-2V78h1.9v1a2.25,2.25,0,0,1,2-1.16,1.87,1.87,0,0,1,.71.11Zm3,7h-2V78h2Zm-2.08-11.11a1.06,1.06,0,0,1,.29-.76,1.3,1.3,0,0,1,1.67,0,1.12,1.12,0,0,1,0,1.52,1.33,1.33,0,0,1-1.67,0A1,1,0,0,1,416.37,75.78Zm5.83,2.31.06.93a3.19,3.19,0,0,1,2.56-1.09,2.45,2.45,0,0,1,2.44,1.36A3.15,3.15,0,0,1,430,77.93a2.76,2.76,0,0,1,2.2.85,3.56,3.56,0,0,1,.74,2.4V87h-2V81.24a1.76,1.76,0,0,0-.37-1.24,1.61,1.61,0,0,0-1.22-.39,1.67,1.67,0,0,0-1.12.37,1.91,1.91,0,0,0-.6,1v6.09h-2V81.23a1.42,1.42,0,0,0-1.6-1.57,1.76,1.76,0,0,0-1.7,1v6.43h-2V78.21ZM439.91,87a1.29,1.29,0,1,0-2.56.16,3.13,3.13,0,0,1-2.18-.76,2.44,2.44,0,0,1-.84-1.89,2.51,2.51,0,0,1,1-2.17,5.1,5.1,0,0,1,3-.76h1.22V81a1.54,1.54,0,0,0-.38-1.1,1.52,1.52,0,0,0-1.17-.42,1.74,1.74,0,0,0-1.12.34,1,1,0,0,0-.43.86h-2a2.2,2.2,0,0,1,.48-1.36,3.21,3.21,0,0,1,1.31-1,4.65,4.65,0,0,1,1.86-.36,3.71,3.71,0,0,1,2.49.79,2.78,2.78,0,0,1,1,2.2v4a4.53,4.53,0,0,0,.34,1.91V87Zm-2.19-1.44a2.25,2.25,0,0,0,1.11-.29,1.91,1.91,0,0,0,.79-.77V82.78h-1.07a2.94,2.94,0,0,0-1.67.39,1.25,1.25,0,0,0-.56,1.09,1.18,1.18,0,0,0,.38.92,1.5,1.5,0,0,0,1,.38ZM448,79.91a4.9,4.9,0,0,0-.81-.07,1.83,1.83,0,0,0-1.85,1v6.07h-2V78h1.9v1a2.25,2.25,0,0,1,2-1.16A1.87,1.87,0,0,1,448,78Zm4.18,4.2,1.8-6h2.12l-3.53,10.22a2.87,2.87,0,0,1-2.76,2.24,3.56,3.56,0,0,1-1-.15V88.88h.36a1.9,1.9,0,0,0,1.13-.28,1.78,1.78,0,0,0,.61-.92l.29-.76-3-8.8h2.15Z" transform="translate(0 0)"/><path d="M399.37,88.63h56.87v.82H399.37Z" transform="translate(0 0)"/><path d="M122.61,81.39a17.5,17.5,0,0,1,17.5-17.5h148.4a17.5,17.5,0,0,1,0,35H140.11a17.5,17.5,0,0,1-17.5-17.5Z" transform="translate(0 0)" style="fill:#ffd600"/><path d="M189.18,82.56V87h-2.1V75h4.57a4.61,4.61,0,0,1,3.18,1A3.49,3.49,0,0,1,196,78.76a3.38,3.38,0,0,1-1.16,2.73,4.83,4.83,0,0,1-3.22,1Zm0-1.67h2.49a2.47,2.47,0,0,0,1.69-.52,1.93,1.93,0,0,0,.58-1.51,2.05,2.05,0,0,0-.59-1.54,2.27,2.27,0,0,0-1.62-.6h-2.55Zm12.79-1a4.9,4.9,0,0,0-.79-.11,1.83,1.83,0,0,0-1.85,1v6.07h-2V78h1.85v1a2.25,2.25,0,0,1,2-1.16,1.87,1.87,0,0,1,.71.11Zm3,7h-2V78h2Zm-2.1-11.11a1.06,1.06,0,0,1,.29-.76,1.3,1.3,0,0,1,1.67,0,1.12,1.12,0,0,1,0,1.52,1.33,1.33,0,0,1-1.67,0A1,1,0,0,1,202.87,75.78Zm5.83,2.31.06.93a3.19,3.19,0,0,1,2.56-1.09,2.45,2.45,0,0,1,2.44,1.36,3.15,3.15,0,0,1,2.72-1.36,2.76,2.76,0,0,1,2.18.81,3.56,3.56,0,0,1,.74,2.4V87h-2V81.2A1.76,1.76,0,0,0,217,80a1.61,1.61,0,0,0-1.22-.39,1.67,1.67,0,0,0-1.12.37,1.91,1.91,0,0,0-.6,1V87h-2V81.19a1.42,1.42,0,0,0-1.6-1.57,1.76,1.76,0,0,0-1.7,1V87h-2V78.17ZM226.41,87a1.29,1.29,0,1,0-2.56.16,3.13,3.13,0,0,1-2.18-.76,2.44,2.44,0,0,1-.84-1.89,2.51,2.51,0,0,1,1-2.17,5.1,5.1,0,0,1,3-.76H226V81a1.54,1.54,0,0,0-.38-1.1,1.52,1.52,0,0,0-1.17-.42,1.74,1.74,0,0,0-1.12.34,1,1,0,0,0-.43.86h-2a2.2,2.2,0,0,1,.48-1.36,3.21,3.21,0,0,1,1.31-1,4.65,4.65,0,0,1,1.86-.36,3.71,3.71,0,0,1,2.58.85,2.78,2.78,0,0,1,1,2.2v4a4.53,4.53,0,0,0,.34,1.91V87Zm-2.23-1.41a2.25,2.25,0,0,0,1.11-.29,1.91,1.91,0,0,0,.79-.77V82.78H225a2.94,2.94,0,0,0-1.67.39,1.25,1.25,0,0,0-.56,1.09,1.18,1.18,0,0,0,.38.92A1.5,1.5,0,0,0,224.18,85.56Zm10.29-5.62a4.9,4.9,0,0,0-.81-.07,1.83,1.83,0,0,0-1.85,1v6.07h-2V78.06h1.9v1a2.25,2.25,0,0,1,2-1.16,1.87,1.87,0,0,1,.71.11Zm4.18,4.2,1.8-6h2.12L239,88.36a2.87,2.87,0,0,1-2.76,2.24,3.56,3.56,0,0,1-1-.15V88.91h.38a1.9,1.9,0,0,0,1.13-.28,1.78,1.78,0,0,0,.61-.92l.29-.76-3.12-8.83h2.15Z" transform="translate(0 0)"/><path d="M549.2,627.39a17.5,17.5,0,0,1,17.5-17.5H708.88a17.5,17.5,0,0,1,0,35H566.7A17.5,17.5,0,0,1,549.2,627.39Z" transform="translate(0 0)" style="fill:#fff"/><path d="M571.54,633V621.05h3.53a5.52,5.52,0,0,1,2.81.7,4.79,4.79,0,0,1,1.9,2,6.36,6.36,0,0,1,.68,3v.6a6.28,6.28,0,0,1-.69,3,4.73,4.73,0,0,1-1.92,2,5.77,5.77,0,0,1-2.86.7Zm2.07-10.27v8.61H575a3.11,3.11,0,0,0,2.5-1,4.45,4.45,0,0,0,.9-2.94v-.61a4.54,4.54,0,0,0-.85-3,3,3,0,0,0-2.45-1Zm12.29,10.43a4.15,4.15,0,0,1-3.08-1.19,4.37,4.37,0,0,1-1.17-3.18v-.25a5.38,5.38,0,0,1,.5-2.37,3.94,3.94,0,0,1,1.45-1.63,3.78,3.78,0,0,1,2.06-.58,3.45,3.45,0,0,1,2.79,1.16,4.86,4.86,0,0,1,1,3.27v.8h-5.8a2.65,2.65,0,0,0,.73,1.74,2.22,2.22,0,0,0,1.62.64,2.7,2.7,0,0,0,2.23-1.11l1.07,1a3.54,3.54,0,0,1-1.43,1.24,4.44,4.44,0,0,1-2,.47Zm-.24-7.6a1.69,1.69,0,0,0-1.33.57,3,3,0,0,0-.64,1.6h3.8v-.15a2.42,2.42,0,0,0-.53-1.51A1.66,1.66,0,0,0,585.66,625.55Zm5.72,7.44v-7.4H590v-1.48h1.36v-.81a3.05,3.05,0,0,1,.82-2.28,3.14,3.14,0,0,1,2.3-.8,4.56,4.56,0,0,1,1.11.15v1.56a3.92,3.92,0,0,0-.76-.07,1.28,1.28,0,0,0-1.43,1.47v.79h1.85v1.48h-1.81V633Zm10.22,0a2.86,2.86,0,0,1-.23-.83,3.11,3.11,0,0,1-2.33,1,3.15,3.15,0,0,1-2.18-.76,2.45,2.45,0,0,1-.84-1.89,2.51,2.51,0,0,1,1-2.17,5.1,5.1,0,0,1,3-.76h1.25V627a1.56,1.56,0,0,0-.39-1.1,1.53,1.53,0,0,0-1.18-.42,1.73,1.73,0,0,0-1.11.34,1,1,0,0,0-.44.86h-2a2.2,2.2,0,0,1,.48-1.36,3.19,3.19,0,0,1,1.31-1,4.67,4.67,0,0,1,1.86-.36,3.7,3.7,0,0,1,2.49.79,2.76,2.76,0,0,1,1,2.2v4a4.54,4.54,0,0,0,.34,1.91V633Zm-2.19-1.44a2.24,2.24,0,0,0,1.11-.29,1.92,1.92,0,0,0,.79-.77v-1.71h-1a2.94,2.94,0,0,0-1.67.39,1.25,1.25,0,0,0-.56,1.09,1.18,1.18,0,0,0,.38.92,1.52,1.52,0,0,0,1,.38Zm11,.57a3.1,3.1,0,0,1-2.49,1,2.76,2.76,0,0,1-2.19-.84,3.58,3.58,0,0,1-.74-2.44v-5.75h2v5.69c0,1.13.47,1.69,1.4,1.69a2,2,0,0,0,2-1V624.1h2V633h-1.88Zm5.74.87h-2v-12.6h2Zm4.34-11v2.16h1.57v1.48h-1.57v5a1.11,1.11,0,0,0,.2.74,1,1,0,0,0,.72.22,3.11,3.11,0,0,0,.7-.08V633a4.9,4.9,0,0,1-1.32.19c-1.53,0-2.3-.84-2.3-2.53v-5H617v-1.48h1.46v-2.16Z" transform="translate(0 0)" style="fill:#828282"/><path d="M690.83,635.78l14.55-8.4L690.83,619Zm0-10.82H668.2v4.82h22.63Z" transform="translate(0 0)" style="fill:#828282"/><path d="M566.7,610.59H708.88v-1.4H566.7Zm142.18,33.6H566.7v1.4H708.88Zm-142.18,0a16.8,16.8,0,0,1-16.8-16.8h-1.4a18.2,18.2,0,0,0,18.2,18.2Zm159-16.8a16.8,16.8,0,0,1-16.8,16.8h0v1.4a18.2,18.2,0,0,0,18.2-18.2Zm-16.8-16.8a16.8,16.8,0,0,1,16.8,16.8h1.4a18.2,18.2,0,0,0-18.2-18.2Zm-142.18-1.4a18.2,18.2,0,0,0-18.2,18.2h1.4a16.8,16.8,0,0,1,16.8-16.8h0Z" transform="translate(0 0)" style="fill:#363636"/><path d="M336.11,627.39a17.5,17.5,0,0,1,17.5-17.5H495.79a17.5,17.5,0,0,1,0,35H353.61A17.5,17.5,0,0,1,336.11,627.39Z" transform="translate(0 0)" style="fill:#fff"/><path d="M358.45,633V621.05H362a5.51,5.51,0,0,1,2.81.7,4.8,4.8,0,0,1,1.9,2,6.35,6.35,0,0,1,.67,3v.6a6.3,6.3,0,0,1-.68,3,4.72,4.72,0,0,1-1.93,2,5.77,5.77,0,0,1-2.86.7Zm2.08-10.27v8.61h1.35a3.11,3.11,0,0,0,2.5-1,4.45,4.45,0,0,0,.89-2.94v-.61a4.57,4.57,0,0,0-.84-3,3,3,0,0,0-2.45-1Zm12.28,10.43a4.15,4.15,0,0,1-3.08-1.19,4.35,4.35,0,0,1-1.17-3.18v-.25a5.34,5.34,0,0,1,.51-2.37,3.92,3.92,0,0,1,1.44-1.63,3.8,3.8,0,0,1,2.07-.58,3.47,3.47,0,0,1,2.8,1.16,4.88,4.88,0,0,1,1,3.27v.8h-5.8a2.67,2.67,0,0,0,.73,1.74,2.22,2.22,0,0,0,1.62.64,2.7,2.7,0,0,0,2.23-1.11l1.07,1a3.62,3.62,0,0,1-1.43,1.24,4.47,4.47,0,0,1-2,.47Zm-.24-7.6a1.69,1.69,0,0,0-1.33.57,3,3,0,0,0-.64,1.6h3.8v-.15a2.4,2.4,0,0,0-.53-1.51,1.66,1.66,0,0,0-1.31-.51Zm5.72,7.44v-7.4h-1.35v-1.48h1.35v-.81a3,3,0,0,1,.82-2.28,3.15,3.15,0,0,1,2.3-.8,4.59,4.59,0,0,1,1.12.15v1.56a4,4,0,0,0-.76-.07,1.28,1.28,0,0,0-1.43,1.47v.79h1.84v1.48h-1.8V633Zm10.22,0a3.06,3.06,0,0,1-.23-.83,3.35,3.35,0,0,1-4.51.23,2.44,2.44,0,0,1-.84-1.89,2.51,2.51,0,0,1,1-2.17,5.11,5.11,0,0,1,3-.76h1.25V627a1.54,1.54,0,0,0-.39-1.1,1.52,1.52,0,0,0-1.17-.42,1.74,1.74,0,0,0-1.12.34,1,1,0,0,0-.43.86h-2a2.2,2.2,0,0,1,.48-1.36,3.21,3.21,0,0,1,1.31-1,4.65,4.65,0,0,1,1.86-.36,3.71,3.71,0,0,1,2.46.83,2.78,2.78,0,0,1,1,2.2v4a4.54,4.54,0,0,0,.34,1.91V633Zm-2.19-1.44a2.25,2.25,0,0,0,1.11-.29,1.91,1.91,0,0,0,.79-.77v-1.71h-1a2.93,2.93,0,0,0-1.67.39,1.25,1.25,0,0,0-.56,1.09,1.19,1.19,0,0,0,.38.92,1.5,1.5,0,0,0,1,.38Zm11,.57a3.09,3.09,0,0,1-2.49,1,2.77,2.77,0,0,1-2.19-.84,3.61,3.61,0,0,1-.74-2.44v-5.75h2v5.69q0,1.69,1.4,1.69a2,2,0,0,0,2-1V624.1h2V633h-1.92Zm5.74.87h-2v-12.6h2Zm4.34-11v2.16H409v1.48H407.4v5a1.13,1.13,0,0,0,.2.74,1,1,0,0,0,.72.22,3.08,3.08,0,0,0,.7-.08V633a4.9,4.9,0,0,1-1.31.19q-2.3,0-2.3-2.53v-5H404v-1.48h1.46v-2.16Z" transform="translate(0 0)"/><path d="M357.18,634.63h52.3v.82h-52.3Z" transform="translate(0 0)"/><path d="M477.74,635.78l14.55-8.4L477.74,619Zm0-10.82H455.11v4.82h22.63Z" transform="translate(0 0)" style="fill:#363636"/><path d="M353.61,610.59H495.79v-1.4H353.61Zm142.18,33.6H353.61v1.4H495.79Zm-142.18,0a16.8,16.8,0,0,1-16.8-16.8h-1.4a18.2,18.2,0,0,0,18.2,18.2h0Zm159-16.8a16.8,16.8,0,0,1-16.8,16.8v1.4a18.2,18.2,0,0,0,18.2-18.2h-1.4Zm-16.8-16.8a16.8,16.8,0,0,1,16.8,16.8H514a18.2,18.2,0,0,0-18.2-18.2h0Zm-142.18-1.4a18.2,18.2,0,0,0-18.2,18.2h1.4a16.8,16.8,0,0,1,16.8-16.8Z" transform="translate(0 0)" style="fill:#363636"/><path d="M123.27,628.09a17.5,17.5,0,0,1,17.5-17.5H283a17.5,17.5,0,1,1,0,35H140.77A17.5,17.5,0,0,1,123.27,628.09Z" transform="translate(0 0)" style="fill:#fff"/><path d="M145.61,633.69V621.78h3.57a5.51,5.51,0,0,1,2.81.7,4.8,4.8,0,0,1,1.9,2,6.35,6.35,0,0,1,.67,3v.6a6.3,6.3,0,0,1-.68,3,4.72,4.72,0,0,1-1.93,2,5.77,5.77,0,0,1-2.86.7Zm2.07-10.27V632H149a3.11,3.11,0,0,0,2.5-1,4.45,4.45,0,0,0,.89-2.94v-.66a4.57,4.57,0,0,0-.84-3,3,3,0,0,0-2.45-1ZM160,633.85a4.15,4.15,0,0,1-3.08-1.19,4.35,4.35,0,0,1-1.17-3.18v-.25a5.34,5.34,0,0,1,.51-2.37,3.92,3.92,0,0,1,1.44-1.63,3.8,3.8,0,0,1,2.07-.58,3.47,3.47,0,0,1,2.8,1.16,4.88,4.88,0,0,1,1,3.27v.8h-5.8a2.67,2.67,0,0,0,.73,1.74,2.22,2.22,0,0,0,1.62.64,2.7,2.7,0,0,0,2.23-1.11l1.08,1a3.62,3.62,0,0,1-1.43,1.24,4.47,4.47,0,0,1-2,.47Zm-.24-7.6a1.69,1.69,0,0,0-1.33.57,3,3,0,0,0-.64,1.6h3.8v-.15a2.4,2.4,0,0,0-.53-1.51A1.66,1.66,0,0,0,159.72,626.25Zm5.72,7.44v-7.4h-1.35v-1.51h1.35V624a3,3,0,0,1,.82-2.28,3.15,3.15,0,0,1,2.3-.8,4.59,4.59,0,0,1,1.12.15v1.56a4,4,0,0,0-.76-.07,1.28,1.28,0,0,0-1.43,1.47v.78h1.8v1.48h-1.8v7.4Zm10.22,0a3.08,3.08,0,0,1-.23-.83,3.35,3.35,0,0,1-4.51.24,2.44,2.44,0,0,1-.84-1.89,2.51,2.51,0,0,1,1-2.17,5.11,5.11,0,0,1,3-.76h1.22v-.58a1.54,1.54,0,0,0-.39-1.1,1.52,1.52,0,0,0-1.17-.42,1.74,1.74,0,0,0-1.12.34,1,1,0,0,0-.43.86h-2a2.2,2.2,0,0,1,.48-1.36,3.21,3.21,0,0,1,1.31-1,4.65,4.65,0,0,1,1.86-.36,3.71,3.71,0,0,1,2.49.79,2.78,2.78,0,0,1,1,2.2v4a4.53,4.53,0,0,0,.34,1.91v.14Zm-2.19-1.44a2.25,2.25,0,0,0,1.11-.29,1.91,1.91,0,0,0,.79-.77v-1.67H174.3a2.93,2.93,0,0,0-1.67.39,1.25,1.25,0,0,0-.56,1.09,1.18,1.18,0,0,0,.38.92,1.5,1.5,0,0,0,1,.34Zm11,.57a3.09,3.09,0,0,1-2.49,1,2.77,2.77,0,0,1-2.19-.84,3.61,3.61,0,0,1-.74-2.44v-5.76h2v5.73q0,1.69,1.4,1.69a2,2,0,0,0,2-1v-6.42h2v8.88h-1.88Zm5.74.87h-2v-12.6h2Zm4.34-11v2.09h1.63v1.48h-1.57v5a1.12,1.12,0,0,0,.2.74,1,1,0,0,0,.72.22,3.08,3.08,0,0,0,.7-.08v1.54a4.9,4.9,0,0,1-1.31.19q-2.3,0-2.3-2.53v-5h-1.44v-1.56h1.46v-2.16Z" transform="translate(0 0)"/><path d="M264.9,636.49l14.55-8.4-14.55-8.4Zm0-10.82H242.27v4.85H264.9Z" transform="translate(0 0)" style="fill:#363636"/><path d="M140.77,611.29H283v-1.4H140.77ZM283,644.89H140.77v1.4H283Zm-142.18,0a16.8,16.8,0,0,1-16.8-16.8h-1.4a18.2,18.2,0,0,0,18.2,18.2h0Zm159-16.8a16.8,16.8,0,0,1-16.8,16.8v1.4a18.2,18.2,0,0,0,18.2-18.2h-1.4ZM283,611.29a16.8,16.8,0,0,1,16.8,16.8h1.41a18.2,18.2,0,0,0-18.2-18.2h0Zm-142.18-1.4a18.2,18.2,0,0,0-18.2,18.2H124a16.8,16.8,0,0,1,16.8-16.8Z" transform="translate(0 0)" style="fill:#363636"/></svg>