<svg id="Livello_1" data-name="Livello 1" xmlns="http://www.w3.org/2000/svg" viewBox="0 0 1057.33 1208"><title>color-system-mobile</title><rect x="479.18" y="1008" width="200" height="200" rx="30" ry="30" style="fill:#fff"/><path d="M506.78,1191.07l2-8.75h2.78L508.11,1195h-2.34l-2.72-8.71-2.67,8.71H498l-3.47-12.68h2.78l2,8.66,2.6-8.66h2.18Zm9-7.37a4.44,4.44,0,0,1,3.53-1.61q4.05,0,4.11,4.62V1195h-2.85v-8.18A2.47,2.47,0,0,0,520,1185a2.27,2.27,0,0,0-1.66-.55,2.75,2.75,0,0,0-2.55,1.52v9h-2.85v-18h2.85Zm13.1,11.3H526v-12.68h2.85Zm-3-16a1.52,1.52,0,0,1,.41-1.09,1.84,1.84,0,0,1,2.39,0,1.61,1.61,0,0,1,0,2.17,1.91,1.91,0,0,1-2.39,0,1.51,1.51,0,0,1-.43-1.08Zm9.22.21v3.08h2.24v2.11h-2.26v7.08a1.61,1.61,0,0,0,.28,1.05,1.37,1.37,0,0,0,1,.32,4.29,4.29,0,0,0,1-.12v2.2a7,7,0,0,1-1.87.27c-2.19,0-3.28-1.2-3.28-3.62v-7.18h-2v-2.11h2.09v-3.08Zm9.53,16a5.93,5.93,0,0,1-4.39-1.69,6.24,6.24,0,0,1-1.68-4.55v-.35a7.62,7.62,0,0,1,.73-3.39,5.57,5.57,0,0,1,2.06-2.33,5.39,5.39,0,0,1,3-.83,5,5,0,0,1,4,1.65,7,7,0,0,1,1.42,4.67v1.15h-8.29a3.84,3.84,0,0,0,1,2.49,3.17,3.17,0,0,0,2.32.91,3.87,3.87,0,0,0,3.19-1.58l1.54,1.46a5.12,5.12,0,0,1-2,1.77,6.3,6.3,0,0,1-2.92.64Zm-.34-10.86a2.41,2.41,0,0,0-1.9.82,4.3,4.3,0,0,0-.91,2.29h5.43v-.21a3.41,3.41,0,0,0-.76-2.16,2.38,2.38,0,0,0-1.88-.72Z" transform="translate(0 -6)"/><path d="M846.18,1117.2h-3.09l-.94,4.8h-1.68l.94-4.8h-2.8v-1.61h3.1l.81-4.15h-3v-1.63h3.34l1-4.87h1.68l-1,4.87h3.09l1-4.87h1.55l-1,4.87h2.39v1.63h-2.71l-.81,4.15h2.64v1.61h-2.94l-.94,4.8h-1.63Zm-2.79-1.61h3.09l.81-4.15h-3.11Zm20-1.13h-7.21V1122h-2.25v-17.06H864.5v1.85h-8.32v5.83h7.16Zm13.27,0H869.5V1122h-2.32v-17.06h10.57v1.85h-8.32v5.83h7.16Zm13.26,0h-7.16V1122h-2.25v-17.06h10.57v1.85h-8.32v5.83h7.16Zm13.27,0H896V1122h-2.25v-17.06h10.57v1.85H896v5.83h7.15Zm13.26,0h-7.16V1122H907v-17.06h10.57v1.85h-8.32v5.83h7.16Zm13.27,0h-7.16V1122h-2.25v-17.06h10.57v1.85h-8.32v5.83h7.16Z" transform="translate(0 -6)"/><path d="M845.76,1145l1.63-6.46h1.45l-2.46,8.45h-1.2l-2-6.41-2,6.41H840l-2.45-8.45H839l1.66,6.33,2-6.33h1.16Zm6-5.44a3.06,3.06,0,0,1,2.5-1.18q2.68,0,2.7,3V1147h-1.45v-5.59a2,2,0,0,0-.42-1.36,1.67,1.67,0,0,0-1.27-.43,2.09,2.09,0,0,0-1.23.37,2.54,2.54,0,0,0-.83,1v6h-1.45v-12h1.45Zm8.94,7.43h-1.45v-8.45h1.45Zm-1.56-10.7a.87.87,0,0,1,.21-.59.82.82,0,0,1,.64-.24.83.83,0,0,1,.64.24.88.88,0,0,1,.22.59.86.86,0,0,1-.22.59.82.82,0,0,1-.64.23.81.81,0,0,1-.64-.23.85.85,0,0,1-.17-.58Zm5.84.2v2.05h1.58v1.11H865v5.25a1.19,1.19,0,0,0,.21.76.89.89,0,0,0,.72.25,3.7,3.7,0,0,0,.69-.09V1147a4.38,4.38,0,0,1-1.11.16,1.79,1.79,0,0,1-1.46-.59,2.51,2.51,0,0,1-.5-1.66v-5.25H862v-1.11h1.54v-2.05Zm6.78,10.66A3.71,3.71,0,0,1,869,1146a4.18,4.18,0,0,1-1.07-3v-.27a5,5,0,0,1,.47-2.24,3.71,3.71,0,0,1,1.35-1.55,3.39,3.39,0,0,1,1.87-.56,3.14,3.14,0,0,1,2.56,1.09,4.69,4.69,0,0,1,.92,3.11v.6h-5.73a3,3,0,0,0,.73,2,2.32,2.32,0,0,0,1.78.77,2.53,2.53,0,0,0,1.3-.32,3.27,3.27,0,0,0,.93-.82l.88.68a3.55,3.55,0,0,1-3.2,1.65Zm-.18-7.58a1.93,1.93,0,0,0-1.47.64,3.06,3.06,0,0,0-.73,1.78h4.23v-.11a2.75,2.75,0,0,0-.59-1.7,1.82,1.82,0,0,0-1.45-.6Z" transform="translate(0 -6)"/><path d="M845.43,1170.87a5,5,0,0,1-.89,3.11,2.83,2.83,0,0,1-2.39,1.18,2.94,2.94,0,0,1-2.48-1.14l-.07,1h-1.33v-12h1.45v4.48a2.92,2.92,0,0,1,2.41-1.09,2.86,2.86,0,0,1,2.41,1.16,5.17,5.17,0,0,1,.88,3.19Zm-1.45-.17a3.91,3.91,0,0,0-.57-2.28,1.9,1.9,0,0,0-1.64-.8,2.12,2.12,0,0,0-2,1.33v3.65a2.18,2.18,0,0,0,2.07,1.33,1.88,1.88,0,0,0,1.62-.81,4.13,4.13,0,0,0,.54-2.42Zm8.49,4.3a3,3,0,0,1-.2-.89,3.22,3.22,0,0,1-2.41,1.05,3,3,0,0,1-2-.71,2.29,2.29,0,0,1-.8-1.79,2.38,2.38,0,0,1,1-2.05,4.73,4.73,0,0,1,2.83-.73h1.41v-.67a1.6,1.6,0,0,0-.45-1.2,1.82,1.82,0,0,0-1.34-.46,2.06,2.06,0,0,0-1.3.4,1.14,1.14,0,0,0-.52.94h-1.46a2,2,0,0,1,.45-1.22,3.15,3.15,0,0,1,1.22-.94,4.28,4.28,0,0,1,1.7-.34,3.38,3.38,0,0,1,2.29.73,2.64,2.64,0,0,1,.86,2V1173a4.81,4.81,0,0,0,.3,1.86v.12Zm-2.4-1.1a2.59,2.59,0,0,0,1.29-.35,2.14,2.14,0,0,0,.88-.92v-1.73h-1.13c-1.77,0-2.66.52-2.66,1.55a1.33,1.33,0,0,0,.45,1.07,1.77,1.77,0,0,0,1.18.38Zm9.27.08a2.07,2.07,0,0,0,1.35-.47,1.63,1.63,0,0,0,.64-1.17h1.37a2.56,2.56,0,0,1-.5,1.38,3.32,3.32,0,0,1-1.23,1.05,3.56,3.56,0,0,1-1.63.39,3.51,3.51,0,0,1-2.75-1.15,4.63,4.63,0,0,1-1-3.16v-.24a5.12,5.12,0,0,1,.45-2.2,3.48,3.48,0,0,1,1.3-1.49,3.71,3.71,0,0,1,2-.53,3.35,3.35,0,0,1,2.36.85,3,3,0,0,1,1,2.21h-1.37a2,2,0,0,0-.62-1.34,1.93,1.93,0,0,0-1.38-.53,2,2,0,0,0-1.71.8,3.69,3.69,0,0,0-.6,2.28v.28a3.67,3.67,0,0,0,.6,2.25,2.06,2.06,0,0,0,1.73.81Zm7.35-2.89-.91.94v3h-1.45v-12h1.45v7.26l.77-.93,2.64-2.78h1.75l-3.29,3.53,3.68,4.92h-1.7Zm5.25-.39a5,5,0,0,1,.91-3.14,3.16,3.16,0,0,1,4.84-.08l.07-.93h1.32v8.25a3.43,3.43,0,0,1-1,2.58,3.59,3.59,0,0,1-2.61.95,4.34,4.34,0,0,1-1.79-.39,3.06,3.06,0,0,1-1.33-1.07l.75-.87a2.8,2.8,0,0,0,2.27,1.15,2.19,2.19,0,0,0,1.64-.6,2.23,2.23,0,0,0,.59-1.67v-.72a3,3,0,0,1-2.36,1,2.89,2.89,0,0,1-2.41-1.2,5.24,5.24,0,0,1-.88-3.26Zm1.45.17a3.83,3.83,0,0,0,.58,2.25,1.93,1.93,0,0,0,1.65.81,2.1,2.1,0,0,0,2-1.24v-3.86a2.13,2.13,0,0,0-2-1.21,1.93,1.93,0,0,0-1.65.82,4.15,4.15,0,0,0-.57,2.43Zm12-3a5.3,5.3,0,0,0-.71,0,1.9,1.9,0,0,0-1.93,1.21v6H881.3v-8.45h1.41v1a2.27,2.27,0,0,1,2-1.13,1.54,1.54,0,0,1,.64.11Zm.8,2.86a5.08,5.08,0,0,1,.48-2.24,3.6,3.6,0,0,1,3.35-2.07,3.55,3.55,0,0,1,2.79,1.2,4.54,4.54,0,0,1,1.07,3.18v.1a5.16,5.16,0,0,1-.47,2.22,3.65,3.65,0,0,1-1.36,1.52,3.74,3.74,0,0,1-2,.55,3.55,3.55,0,0,1-2.79-1.2,4.58,4.58,0,0,1-1.06-3.16Zm1.45.17a3.62,3.62,0,0,0,.65,2.25,2.21,2.21,0,0,0,3.5,0,4,4,0,0,0,.65-2.42,3.53,3.53,0,0,0-.67-2.25,2.09,2.09,0,0,0-1.75-.87,2,2,0,0,0-1.72.85,3.92,3.92,0,0,0-.69,2.41Zm13.27,3.29a3,3,0,0,1-2.47,1,2.68,2.68,0,0,1-2.07-.78,3.52,3.52,0,0,1-.71-2.33v-5.5h1.45V1172q0,1.92,1.56,1.92a2.15,2.15,0,0,0,2.2-1.23v-6.15h1.45V1175h-1.38Zm3.26-3.46a5,5,0,0,1,.92-3.12,3.13,3.13,0,0,1,4.77-.17V1163h1.44v12H910l-.07-.91a3,3,0,0,1-2.42,1.07,2.89,2.89,0,0,1-2.4-1.21,5,5,0,0,1-.92-3.14Zm1.45.17a3.71,3.71,0,0,0,.59,2.25,1.92,1.92,0,0,0,1.64.81,2.11,2.11,0,0,0,2-1.23v-3.89a2.13,2.13,0,0,0-2-1.19,1.93,1.93,0,0,0-1.66.82,4.07,4.07,0,0,0-.6,2.4Zm12.86,1.89a1.06,1.06,0,0,0-.45-.91,4.15,4.15,0,0,0-1.54-.56,7.41,7.41,0,0,1-1.74-.56,2.45,2.45,0,0,1-1-.78,1.88,1.88,0,0,1-.31-1.08,2.18,2.18,0,0,1,.88-1.76,3.41,3.41,0,0,1,2.25-.72,3.53,3.53,0,0,1,2.32.74,2.36,2.36,0,0,1,.9,1.9h-1.45a1.29,1.29,0,0,0-.51-1,1.84,1.84,0,0,0-1.26-.43,2,2,0,0,0-1.24.34,1.1,1.1,0,0,0-.44.9.87.87,0,0,0,.41.79,5,5,0,0,0,1.49.51,7.39,7.39,0,0,1,1.76.58,2.41,2.41,0,0,1,1,.81,1.93,1.93,0,0,1,.33,1.15,2.17,2.17,0,0,1-.91,1.82,3.81,3.81,0,0,1-2.35.68,4.24,4.24,0,0,1-1.79-.36,3.06,3.06,0,0,1-1.23-1,2.49,2.49,0,0,1-.44-1.4h1.45a1.48,1.48,0,0,0,.58,1.15,2.22,2.22,0,0,0,1.43.43,2.35,2.35,0,0,0,1.32-.33,1,1,0,0,0,.51-.94Zm10.3-2H925v-1.18h3.81Zm7.34-6.26v2.05h1.58v1.11h-1.58v5.25a1.19,1.19,0,0,0,.21.76.91.91,0,0,0,.72.25,3.61,3.61,0,0,0,.69-.09V1175a4.38,4.38,0,0,1-1.11.16,1.81,1.81,0,0,1-1.46-.59,2.51,2.51,0,0,1-.49-1.66v-5.25h-1.54v-1.11h1.54v-2.05Zm6.79,10.66a3.71,3.71,0,0,1-2.8-1.13,4.18,4.18,0,0,1-1.08-3v-.27a5,5,0,0,1,.48-2.24,3.76,3.76,0,0,1,1.34-1.55,3.42,3.42,0,0,1,1.88-.56,3.16,3.16,0,0,1,2.56,1.09,4.69,4.69,0,0,1,.91,3.11v.6h-5.72a3,3,0,0,0,.72,2,2.32,2.32,0,0,0,1.78.77,2.5,2.5,0,0,0,1.3-.32,3.27,3.27,0,0,0,.93-.82l.88.68a3.55,3.55,0,0,1-3.21,1.61Zm-.18-7.58a1.9,1.9,0,0,0-1.47.64,3.07,3.07,0,0,0-.74,1.78h4.24v-.11a2.69,2.69,0,0,0-.6-1.7,1.78,1.78,0,0,0-1.46-.64Zm8,2.05,1.87-3.08h1.69l-2.77,4.18,2.86,4.27H952.7l-2-3.16-2,3.16h-1.68l2.85-4.27-2.77-4.18h1.68Zm7.06-5.13v2.05h1.58v1.11h-1.58v5.25a1.19,1.19,0,0,0,.21.76.89.89,0,0,0,.72.25,3.61,3.61,0,0,0,.69-.09V1175a4.38,4.38,0,0,1-1.11.16,1.8,1.8,0,0,1-1.46-.59,2.51,2.51,0,0,1-.5-1.66v-5.25h-1.53v-1.11h1.53v-2.05Z" transform="translate(0 -6)"/><path d="M503.61,1168.2H501l-.89,4.8h-2l.89-4.8h-2.71v-1.86h3.06l.68-3.66H497.2v-1.87h3.2l.91-4.87h2l-.91,4.87H505l.91-4.87h2l-.91,4.87h2.44v1.87h-2.79l-.68,3.66h2.59v1.86h-2.94l-.89,4.8h-2Zm-2.27-1.86H504l.68-3.66H502Zm19.58-.57H514V1173h-3v-17.06h10.84v2.39H514v5.07h6.87Zm12.72,0h-6.87V1173h-3v-17.06h10.84v2.39h-7.87v5.07h6.87Zm12.71,0h-6.87V1173h-3v-17.06h10.84v2.39h-7.84v5.07h6.87Zm12.72,0h-6.89V1173h-3v-17.06H560v2.39h-7.84v5.07H559Zm12.72,0h-6.87V1173h-3v-17.06h10.86v2.39h-7.87v5.07h6.87Zm12.71,0h-6.87V1173h-3v-17.06h10.84v2.39H577.6v5.07h6.87Z" transform="translate(0 -6)"/><rect x="479.18" y="728" width="200" height="200" rx="30" ry="30" style="fill:#1d2527"/><path d="M495.11,908.57a7.51,7.51,0,0,1,1.36-4.7,4.35,4.35,0,0,1,3.65-1.78,4.14,4.14,0,0,1,3.26,1.41V897h2.8v18H503.6l-.14-1.31a4.2,4.2,0,0,1-3.41,1.55,4.34,4.34,0,0,1-3.61-1.79A7.84,7.84,0,0,1,495.11,908.57Zm2.85.25a5.34,5.34,0,0,0,.74,3,2.43,2.43,0,0,0,2.12,1.08,2.69,2.69,0,0,0,2.55-1.56v-5.41a2.65,2.65,0,0,0-2.53-1.52,2.43,2.43,0,0,0-2.13,1.1,5.84,5.84,0,0,0-.76,3.3ZM516.28,915a4.41,4.41,0,0,1-.33-1.18,4.79,4.79,0,0,1-6.45.33,3.49,3.49,0,0,1-1.21-2.7,3.59,3.59,0,0,1,1.5-3.1,7.29,7.29,0,0,1,4.31-1.09h1.75v-.83a2,2,0,0,0-2.23-2.17,2.49,2.49,0,0,0-1.59.49,1.49,1.49,0,0,0-.62,1.23h-2.85a3.14,3.14,0,0,1,.69-2,4.57,4.57,0,0,1,1.93-1.43,6.64,6.64,0,0,1,2.66-.52,5.3,5.3,0,0,1,3.55,1.13,4,4,0,0,1,1.36,3.14V912a6.49,6.49,0,0,0,.48,2.73v.2Zm-3.1-2a3.21,3.21,0,0,0,1.58-.41,2.73,2.73,0,0,0,1.13-1.1V909h-1.53a4.19,4.19,0,0,0-2.38.55,1.78,1.78,0,0,0-.8,1.56,1.69,1.69,0,0,0,.54,1.31,2.15,2.15,0,0,0,1.46.58Zm14.7-8a7,7,0,0,0-1.16-.09,2.61,2.61,0,0,0-2.64,1.5V915h-2.9V902.32h2.72l.07,1.42a3.21,3.21,0,0,1,2.86-1.65,2.68,2.68,0,0,1,1,.16Zm5.44,4.64-1.27,1.3V915h-2.87V897H532v10.38l.89-1.11,3.5-4h3.42l-4.71,5.28,5.21,7.4H537Z" transform="translate(0 -6)" style="fill:#fff"/><path d="M846.18,837.2h-3.09l-.94,4.8h-1.68l.94-4.8h-2.8v-1.6h3.1l.81-4.15h-3v-1.63h3.34l1-4.87h1.68l-1,4.87h3.09l1-4.87h1.55l-1,4.87h2.39v1.63h-2.71L848,835.6h2.64v1.6H847.7l-.94,4.8h-1.63Zm-2.79-1.6h3.09l.81-4.15h-3.11Zm17.15,6.4h-2.18V827.55l-4.37,1.6v-2l6.21-2.33h.34Zm6.92,0V824.94h4.81a7.75,7.75,0,0,1,3.94,1,6.65,6.65,0,0,1,2.64,2.8,9.16,9.16,0,0,1,1,4.17V834a9.16,9.16,0,0,1-.94,4.23,6.56,6.56,0,0,1-2.73,2.77,8.23,8.23,0,0,1-4,1Zm2.25-15.21v13.37h2.36a5.14,5.14,0,0,0,4-1.62,6.65,6.65,0,0,0,1.45-4.61v-1a6.76,6.76,0,0,0-1.37-4.51,4.85,4.85,0,0,0-3.87-1.64ZM893.79,842H882.61v-1.56l5.91-6.56a13.65,13.65,0,0,0,1.8-2.41,4,4,0,0,0,.51-1.93,3.06,3.06,0,0,0-.81-2.19,2.84,2.84,0,0,0-2.16-.86,3.38,3.38,0,0,0-2.52.93,3.52,3.52,0,0,0-.89,2.56h-2.16a5,5,0,0,1,1.51-3.81,5.63,5.63,0,0,1,4.06-1.45,5.42,5.42,0,0,1,3.77,1.25,4.24,4.24,0,0,1,1.38,3.32q0,2.52-3.21,6l-4.57,5h8.56Zm3.3-8.55.86-8.51h8.75v2h-6.91l-.51,4.65a5.48,5.48,0,0,1,2.85-.74,4.71,4.71,0,0,1,3.7,1.55,6,6,0,0,1,1.37,4.16,5.85,5.85,0,0,1-1.43,4.16,5.19,5.19,0,0,1-4,1.51,5.38,5.38,0,0,1-3.69-1.25,5,5,0,0,1-1.63-3.47h2a3.47,3.47,0,0,0,1,2.21,3.27,3.27,0,0,0,2.23.74,2.91,2.91,0,0,0,2.36-1,4.28,4.28,0,0,0,.87-2.85,3.9,3.9,0,0,0-.94-2.74,3.13,3.13,0,0,0-2.47-1,3.6,3.6,0,0,0-2.23.62l-.57.47ZM920.75,842H909.57v-1.56l5.9-6.56a13.8,13.8,0,0,0,1.81-2.41,4.1,4.1,0,0,0,.5-1.93,3.06,3.06,0,0,0-.81-2.19,2.81,2.81,0,0,0-2.15-.86,3.35,3.35,0,0,0-2.52.93,3.48,3.48,0,0,0-.89,2.56h-2.17a5,5,0,0,1,1.51-3.81,5.66,5.66,0,0,1,4.07-1.45,5.39,5.39,0,0,1,3.76,1.25,4.24,4.24,0,0,1,1.38,3.32q0,2.52-3.21,6l-4.57,5h8.57Zm13.31-15.84L927,842h-2.27l7-15.28H922.5v-1.78H934Z" transform="translate(0 -6)"/><path d="M837.92,862.7a4.93,4.93,0,0,1,.92-3.12,3.13,3.13,0,0,1,4.77-.17V855h1.45v12h-1.33l-.07-.91a3,3,0,0,1-2.41,1.06,2.9,2.9,0,0,1-2.4-1.2,5,5,0,0,1-.92-3.14Zm1.45.16a3.75,3.75,0,0,0,.59,2.25,1.92,1.92,0,0,0,1.64.81,2.11,2.11,0,0,0,2-1.23v-3.88a2.13,2.13,0,0,0-2-1.2,1.93,1.93,0,0,0-1.66.82,4.12,4.12,0,0,0-.57,2.44ZM852.52,867a3,3,0,0,1-.2-.89,3.23,3.23,0,0,1-2.41,1,3,3,0,0,1-2-.7,2.3,2.3,0,0,1-.8-1.8,2.38,2.38,0,0,1,1-2,4.74,4.74,0,0,1,2.83-.73h1.41v-.66a1.61,1.61,0,0,0-.45-1.2,1.81,1.81,0,0,0-1.34-.45,2.11,2.11,0,0,0-1.3.39,1.15,1.15,0,0,0-.52,1h-1.45a2,2,0,0,1,.45-1.22,3.09,3.09,0,0,1,1.22-.94,4.12,4.12,0,0,1,1.7-.34,3.33,3.33,0,0,1,2.29.73,2.62,2.62,0,0,1,.86,2V865a4.76,4.76,0,0,0,.3,1.85V867Zm-2.4-1.1a2.54,2.54,0,0,0,1.29-.35,2.12,2.12,0,0,0,.88-.91V862.9h-1.11q-2.66,0-2.66,1.55a1.32,1.32,0,0,0,.45,1.06,1.74,1.74,0,0,0,1.16.39Zm10-6a4.15,4.15,0,0,0-.71,0,1.91,1.91,0,0,0-1.93,1.21v6H856v-8.45h1.4v1a2.24,2.24,0,0,1,2-1.13,1.46,1.46,0,0,1,.64.11Zm3.7,3.24-.91,1v3h-1.44V855h1.44v7.26l.78-.93,2.63-2.78h1.76l-3.29,3.53,3.67,4.92h-1.7Z" transform="translate(0 -6)"/><path d="M845.43,890.87a5,5,0,0,1-.89,3.12,2.85,2.85,0,0,1-2.39,1.17,3,3,0,0,1-2.48-1.13l-.07,1h-1.33V883h1.45v4.48a2.93,2.93,0,0,1,2.41-1.09,2.85,2.85,0,0,1,2.41,1.16,5.16,5.16,0,0,1,.88,3.19Zm-1.45-.16a3.9,3.9,0,0,0-.57-2.28,1.89,1.89,0,0,0-1.64-.8,2.12,2.12,0,0,0-2,1.33v3.66a2.18,2.18,0,0,0,2.07,1.33,1.88,1.88,0,0,0,1.62-.8,4.16,4.16,0,0,0,.57-2.45Zm8.49,4.3a3.05,3.05,0,0,1-.2-.89,3.22,3.22,0,0,1-2.41,1,3,3,0,0,1-2-.7,2.31,2.31,0,0,1-.8-1.8,2.38,2.38,0,0,1,1-2,4.74,4.74,0,0,1,2.83-.73h1.41v-.66a1.61,1.61,0,0,0-.45-1.2,1.81,1.81,0,0,0-1.34-.45,2.11,2.11,0,0,0-1.3.39,1.15,1.15,0,0,0-.52,1h-1.46a2,2,0,0,1,.45-1.22,3.09,3.09,0,0,1,1.22-.94,4.13,4.13,0,0,1,1.7-.34,3.33,3.33,0,0,1,2.29.73,2.62,2.62,0,0,1,.86,2V893a4.78,4.78,0,0,0,.3,1.85V895Zm-2.4-1.1a2.55,2.55,0,0,0,1.29-.35,2.13,2.13,0,0,0,.88-.91V890.9h-1.13q-2.66,0-2.66,1.55a1.32,1.32,0,0,0,.45,1.06,1.74,1.74,0,0,0,1.18.39Zm9.27.08a2.06,2.06,0,0,0,1.35-.47,1.63,1.63,0,0,0,.64-1.17h1.37a2.55,2.55,0,0,1-.5,1.38,3.35,3.35,0,0,1-1.23,1,3.56,3.56,0,0,1-1.63.39,3.49,3.49,0,0,1-2.75-1.15,4.62,4.62,0,0,1-1-3.16v-.24a5.09,5.09,0,0,1,.45-2.2,3.44,3.44,0,0,1,1.3-1.49,3.67,3.67,0,0,1,2-.53,3.36,3.36,0,0,1,2.36.85,3,3,0,0,1,1,2.21h-1.37a2,2,0,0,0-.62-1.34,1.92,1.92,0,0,0-1.38-.53,2,2,0,0,0-1.71.8,3.73,3.73,0,0,0-.6,2.29v.27a3.66,3.66,0,0,0,.6,2.25,2,2,0,0,0,1.73.85Zm7.35-2.89-.91,1v3h-1.45V883h1.45v7.26l.77-.93,2.64-2.78h1.75l-3.29,3.53,3.68,4.92h-1.7Zm5.25-.38a5,5,0,0,1,.91-3.14,3.15,3.15,0,0,1,4.84-.08l.07-.94h1.32v8.25a3.44,3.44,0,0,1-1,2.59,3.59,3.59,0,0,1-2.61,1,4.34,4.34,0,0,1-1.79-.39,3,3,0,0,1-1.33-1.07l.75-.87a2.81,2.81,0,0,0,2.27,1.15,2.2,2.2,0,0,0,1.64-.59,2.24,2.24,0,0,0,.59-1.67v-.73a2.94,2.94,0,0,1-2.36,1,2.9,2.9,0,0,1-2.41-1.2,5.24,5.24,0,0,1-.88-3.28Zm1.45.16a3.81,3.81,0,0,0,.58,2.25,1.93,1.93,0,0,0,1.65.81,2.1,2.1,0,0,0,2-1.24v-3.86a2.13,2.13,0,0,0-2-1.21,1.93,1.93,0,0,0-1.65.82,4.17,4.17,0,0,0-.57,2.42Zm12-3a4.34,4.34,0,0,0-.71,0,1.9,1.9,0,0,0-1.93,1.21v6H881.3v-8.45h1.41v1a2.26,2.26,0,0,1,2-1.13,1.49,1.49,0,0,1,.64.11Zm.8,2.85a5.06,5.06,0,0,1,.48-2.23A3.67,3.67,0,0,1,888,887a3.71,3.71,0,0,1,2-.54,3.56,3.56,0,0,1,2.79,1.2,4.56,4.56,0,0,1,1.07,3.18v.1a5.13,5.13,0,0,1-.47,2.22,3.61,3.61,0,0,1-1.36,1.52,3.69,3.69,0,0,1-2,.55,3.56,3.56,0,0,1-2.88-1.2,4.58,4.58,0,0,1-1.06-3.16Zm1.45.17a3.65,3.65,0,0,0,.65,2.26,2.22,2.22,0,0,0,3.5,0,4,4,0,0,0,.65-2.42,3.54,3.54,0,0,0-.67-2.25,2.09,2.09,0,0,0-1.75-.87,2.06,2.06,0,0,0-1.72.85,3.91,3.91,0,0,0-.69,2.4Zm13.27,3.3a3,3,0,0,1-2.47,1,2.67,2.67,0,0,1-2.07-.78,3.5,3.5,0,0,1-.71-2.33v-5.5h1.45V892q0,1.92,1.56,1.92a2.15,2.15,0,0,0,2.2-1.23v-6.15h1.45V895h-1.38Zm5-7.62v1.06a3.07,3.07,0,0,1,2.53-1.22c1.78,0,2.69,1,2.7,3V895H909.7v-5.59a1.94,1.94,0,0,0-.43-1.35,1.65,1.65,0,0,0-1.27-.44,2.06,2.06,0,0,0-1.23.38,2.52,2.52,0,0,0-.83,1v6h-1.45v-8.45Zm7.11,4.16a5,5,0,0,1,.92-3.12,2.92,2.92,0,0,1,2.41-1.19,3,3,0,0,1,2.36,1V883h1.44v12h-1.33l-.07-.91a3.12,3.12,0,0,1-4.81-.14,5.05,5.05,0,0,1-.92-3.14Zm1.44.16a3.72,3.72,0,0,0,.6,2.25,1.91,1.91,0,0,0,1.64.81,2.12,2.12,0,0,0,2-1.23v-3.88a2.14,2.14,0,0,0-2-1.2,1.92,1.92,0,0,0-1.65.82,4.09,4.09,0,0,0-.64,2.4Zm14.92-.11h-3.81v-1.18h3.81Zm7,4.24h-1.44v-8.45h1.44Zm-1.56-10.7a.87.87,0,0,1,.21-.59.82.82,0,0,1,.64-.24.81.81,0,0,1,.64.24.83.83,0,0,1,.22.59.81.81,0,0,1-.22.59.83.83,0,0,1-.64.23.77.77,0,0,1-.85-.82ZM942,894a2.06,2.06,0,0,0,1.35-.47,1.63,1.63,0,0,0,.64-1.17h1.37a2.55,2.55,0,0,1-.5,1.38,3.35,3.35,0,0,1-1.23,1,3.77,3.77,0,0,1-4.38-.76,4.65,4.65,0,0,1-1-3.16v-.24a5.12,5.12,0,0,1,.45-2.2,3.4,3.4,0,0,1,1.3-1.49,3.67,3.67,0,0,1,2-.53,3.36,3.36,0,0,1,2.36.85,3,3,0,0,1,1,2.21H944a2,2,0,0,0-.62-1.34,1.92,1.92,0,0,0-1.38-.53,2,2,0,0,0-1.71.8,3.73,3.73,0,0,0-.6,2.29v.27a3.66,3.66,0,0,0,.6,2.25A2,2,0,0,0,942,894Zm4.6-3.28a5.07,5.07,0,0,1,.49-2.23,3.67,3.67,0,0,1,1.36-1.53,3.71,3.71,0,0,1,2-.54,3.56,3.56,0,0,1,2.79,1.2,4.61,4.61,0,0,1,1.07,3.18v.1a5,5,0,0,1-.48,2.22,3.53,3.53,0,0,1-1.35,1.52,3.69,3.69,0,0,1-2,.55,3.56,3.56,0,0,1-2.79-1.2,4.58,4.58,0,0,1-1.07-3.16Zm1.46.17a3.58,3.58,0,0,0,.65,2.26,2.22,2.22,0,0,0,3.5,0,4,4,0,0,0,.64-2.42,3.59,3.59,0,0,0-.66-2.25,2.19,2.19,0,0,0-3.48,0,4,4,0,0,0-.7,2.39Zm9.42-4.32v1.06a3.07,3.07,0,0,1,2.53-1.22q2.67,0,2.7,3V895H961.3v-5.59a1.89,1.89,0,0,0-.42-1.35,1.65,1.65,0,0,0-1.27-.44,2.06,2.06,0,0,0-1.23.38,2.52,2.52,0,0,0-.83,1v6H956.1v-8.45Zm12.38,6.21a1.06,1.06,0,0,0-.44-.91,4.24,4.24,0,0,0-1.54-.56,7.31,7.31,0,0,1-1.74-.56,2.54,2.54,0,0,1-1-.78,1.91,1.91,0,0,1-.3-1.08,2.2,2.2,0,0,1,.87-1.76,3.45,3.45,0,0,1,2.25-.72,3.51,3.51,0,0,1,2.33.74,2.35,2.35,0,0,1,.9,1.9h-1.45a1.3,1.3,0,0,0-.51-1,1.89,1.89,0,0,0-1.27-.43,2,2,0,0,0-1.23.34,1.08,1.08,0,0,0-.45.9.87.87,0,0,0,.42.79,5,5,0,0,0,1.49.51,8,8,0,0,1,1.76.58,2.53,2.53,0,0,1,1,.81,1.94,1.94,0,0,1,.33,1.15,2.16,2.16,0,0,1-.91,1.82,3.81,3.81,0,0,1-2.35.68,4.27,4.27,0,0,1-1.8-.36,2.91,2.91,0,0,1-1.22-1,2.4,2.4,0,0,1-.44-1.4H966a1.53,1.53,0,0,0,.58,1.16,2.72,2.72,0,0,0,2.75.09,1,1,0,0,0,.48-.93Z" transform="translate(0 -6)"/><path d="M503.61,888.2H501l-.89,4.8h-2l.89-4.8h-2.71v-1.85h3.06l.68-3.67H497.2v-1.86h3.2l.91-4.87h2l-.91,4.87H505l.91-4.87h2l-.91,4.87h2.44v1.86h-2.79l-.68,3.67h2.59v1.85h-2.94l-.89,4.8h-2Zm-2.27-1.85H504l.68-3.67H502Zm17,6.66H515.5V879.3l-4.18,1.43v-2.4l6.66-2.45h.36Zm5.91,0V875.94h5a7.87,7.87,0,0,1,4,1A6.86,6.86,0,0,1,536,879.8a9.07,9.07,0,0,1,1,4.24v.85a9,9,0,0,1-1,4.27,6.73,6.73,0,0,1-2.75,2.84,8.23,8.23,0,0,1-4.09,1Zm3-14.67v12.3h1.93a4.44,4.44,0,0,0,3.57-1.45A6.36,6.36,0,0,0,534,885v-1a6.52,6.52,0,0,0-1.21-4.24,4.28,4.28,0,0,0-3.5-1.47ZM550.46,893H539v-2l5.68-6.2a14,14,0,0,0,1.75-2.28,3.72,3.72,0,0,0,.53-1.85,2.79,2.79,0,0,0-.69-2,2.36,2.36,0,0,0-1.84-.75,2.74,2.74,0,0,0-2.15.84,3.32,3.32,0,0,0-.76,2.31h-2.85a5.58,5.58,0,0,1,.7-2.8,4.91,4.91,0,0,1,2-2,6.49,6.49,0,0,1,3-.69,5.73,5.73,0,0,1,3.91,1.25,4.31,4.31,0,0,1,1.44,3.45A5.85,5.85,0,0,1,549,883a15.09,15.09,0,0,1-2.35,3.18l-4.17,4.46h7.92Zm2.45-8.46.93-8.6H563v2.46h-6.82l-.47,4.08a5.26,5.26,0,0,1,2.67-.68,4.74,4.74,0,0,1,3.79,1.56,6.16,6.16,0,0,1,1.36,4.2,5.7,5.7,0,0,1-1.5,4.15,5.48,5.48,0,0,1-4.11,1.54,5.77,5.77,0,0,1-3.89-1.32,4.84,4.84,0,0,1-1.66-3.51h2.81a3,3,0,0,0,.89,1.91,2.72,2.72,0,0,0,1.9.66,2.43,2.43,0,0,0,2-.94,4,4,0,0,0,.74-2.55,3.55,3.55,0,0,0-.81-2.46,2.82,2.82,0,0,0-2.23-.91,3.16,3.16,0,0,0-2.48,1ZM576.78,893H565.31v-2l5.68-6.2a14,14,0,0,0,1.75-2.28,3.71,3.71,0,0,0,.53-1.85,2.79,2.79,0,0,0-.69-2,2.36,2.36,0,0,0-1.84-.75,2.74,2.74,0,0,0-2.14.84,3.32,3.32,0,0,0-.76,2.31H565a5.59,5.59,0,0,1,.7-2.8,4.91,4.91,0,0,1,2-2,6.48,6.48,0,0,1,3-.69,5.73,5.73,0,0,1,3.91,1.25,4.31,4.31,0,0,1,1.44,3.45,5.85,5.85,0,0,1-.73,2.68,15.09,15.09,0,0,1-2.36,3.18l-4.17,4.46h7.92Zm13-15.48L583,893h-3l6.81-14.78H578v-2.29h11.82Z" transform="translate(0 -6)" style="fill:#fff"/><path d="M479.18,598h200v26a30,30,0,0,1-30,30h-140a30,30,0,0,1-30-30h0Z" transform="translate(0 -6)" style="fill:#eaf6fa"/><path d="M479.18,570h200v26a30,30,0,0,1-30,30h-140a30,30,0,0,1-30-30h0Z" transform="translate(0 -6)" style="fill:#b9d1d9"/><path d="M479.18,543h200v26a30,30,0,0,1-30,30h-140a30,30,0,0,1-30-30h0Z" transform="translate(0 -6)" style="fill:#7fa4b0"/><rect x="479.18" y="364" width="200" height="200" rx="30" ry="30" style="fill:#517f8e"/><path d="M502.75,547.55a1.29,1.29,0,0,0-.63-1.16,6.6,6.6,0,0,0-2.08-.7,10.71,10.71,0,0,1-2.42-.77,3.24,3.24,0,0,1-2.13-3,3.37,3.37,0,0,1,1.38-2.74,5.46,5.46,0,0,1,3.51-1.1,5.66,5.66,0,0,1,3.67,1.13,3.56,3.56,0,0,1,1.41,2.92h-2.85a1.73,1.73,0,0,0-.61-1.36,2.31,2.31,0,0,0-1.62-.55,2.55,2.55,0,0,0-1.53.43,1.37,1.37,0,0,0-.59,1.16,1.15,1.15,0,0,0,.55,1,7.65,7.65,0,0,0,2.23.74,10.09,10.09,0,0,1,2.63.88,3.62,3.62,0,0,1,1.42,1.22,3.09,3.09,0,0,1,.47,1.73,3.32,3.32,0,0,1-1.42,2.78,6.07,6.07,0,0,1-3.71,1,6.56,6.56,0,0,1-2.78-.56,4.57,4.57,0,0,1-1.9-1.55,3.65,3.65,0,0,1-.68-2.12h2.77a2,2,0,0,0,.76,1.56,3,3,0,0,0,1.86.54,2.91,2.91,0,0,0,1.71-.42A1.34,1.34,0,0,0,502.75,547.55Zm10.4,3.68a5.92,5.92,0,0,1-4.39-1.7,6.22,6.22,0,0,1-1.68-4.55v-.35a7.61,7.61,0,0,1,.73-3.39,5.6,5.6,0,0,1,2.06-2.33,5.43,5.43,0,0,1,3-.83,5,5,0,0,1,4,1.65,7,7,0,0,1,1.42,4.68v1.15H510a3.83,3.83,0,0,0,1,2.48,3.17,3.17,0,0,0,2.32.91,3.86,3.86,0,0,0,3.19-1.58l1.54,1.46a5.16,5.16,0,0,1-2,1.77,6.38,6.38,0,0,1-2.88.63Zm-.34-10.86a2.42,2.42,0,0,0-1.9.82,4.29,4.29,0,0,0-.91,2.29h5.43v-.21a3.44,3.44,0,0,0-.76-2.16,2.37,2.37,0,0,0-1.87-.74ZM525.18,549a2.58,2.58,0,0,0,1.77-.62,2.13,2.13,0,0,0,.75-1.54h2.68a4.21,4.21,0,0,1-.74,2.22,4.87,4.87,0,0,1-1.87,1.62,5.59,5.59,0,0,1-2.55.6,5.41,5.41,0,0,1-4.22-1.72,6.84,6.84,0,0,1-1.56-4.76v-.29a6.69,6.69,0,0,1,1.55-4.63,5.35,5.35,0,0,1,4.22-1.75,5.17,5.17,0,0,1,3.68,1.32,4.69,4.69,0,0,1,1.5,3.46h-2.68a2.6,2.6,0,0,0-.75-1.79,2.37,2.37,0,0,0-1.77-.7,2.5,2.5,0,0,0-2.13,1,5.08,5.08,0,0,0-.76,3v.46A5.26,5.26,0,0,0,523,548,2.52,2.52,0,0,0,525.18,549Zm6.34-4.42a7.43,7.43,0,0,1,.74-3.35,5.34,5.34,0,0,1,2.07-2.3,5.8,5.8,0,0,1,3.07-.81,5.52,5.52,0,0,1,4.16,1.65,6.48,6.48,0,0,1,1.73,4.38v.67a7.5,7.5,0,0,1-.73,3.35,5.28,5.28,0,0,1-2.06,2.29,5.85,5.85,0,0,1-3.09.81,5.53,5.53,0,0,1-4.3-1.78,6.88,6.88,0,0,1-1.61-4.77Zm2.85.25a5.14,5.14,0,0,0,.81,3.07,2.63,2.63,0,0,0,2.25,1.1,2.58,2.58,0,0,0,2.24-1.12,5.61,5.61,0,0,0,.81-3.29,5,5,0,0,0-.83-3,2.77,2.77,0,0,0-4.45,0,5.51,5.51,0,0,0-.84,3.2Zm13.51-6.47.08,1.46a4.56,4.56,0,0,1,3.69-1.7q4,0,4,4.53V551H552.8v-8.22a2.57,2.57,0,0,0-.53-1.78,2.16,2.16,0,0,0-1.7-.59A2.75,2.75,0,0,0,548,542v9h-2.82V538.32Zm9.7,6.25a7.51,7.51,0,0,1,1.36-4.7,4.35,4.35,0,0,1,3.65-1.78,4.14,4.14,0,0,1,3.26,1.41V533h2.85v18h-2.58l-.14-1.31a4.2,4.2,0,0,1-3.41,1.55,4.34,4.34,0,0,1-3.61-1.79,7.84,7.84,0,0,1-1.38-4.88Zm2.85.25a5.34,5.34,0,0,0,.74,3,2.43,2.43,0,0,0,2.12,1.08,2.69,2.69,0,0,0,2.55-1.56V542a2.65,2.65,0,0,0-2.53-1.52,2.43,2.43,0,0,0-2.13,1.1,5.84,5.84,0,0,0-.75,3.26ZM578.76,551a4.41,4.41,0,0,1-.33-1.18,4.79,4.79,0,0,1-6.45.33,3.49,3.49,0,0,1-1.21-2.7,3.59,3.59,0,0,1,1.5-3.1,7.29,7.29,0,0,1,4.31-1.09h1.75v-.83a2,2,0,0,0-2.22-2.17,2.49,2.49,0,0,0-1.59.49,1.49,1.49,0,0,0-.62,1.23H571a3.14,3.14,0,0,1,.69-2,4.57,4.57,0,0,1,1.88-1.43,6.64,6.64,0,0,1,2.66-.52,5.3,5.3,0,0,1,3.55,1.13,4,4,0,0,1,1.36,3.14V548a6.49,6.49,0,0,0,.48,2.73v.2Zm-3.13-2a3.21,3.21,0,0,0,1.58-.41,2.73,2.73,0,0,0,1.13-1.1V545H576.8a4.19,4.19,0,0,0-2.38.55,1.78,1.78,0,0,0-.8,1.56,1.69,1.69,0,0,0,.54,1.31A2.15,2.15,0,0,0,575.63,549Zm14.7-8a7,7,0,0,0-1.16-.09,2.61,2.61,0,0,0-2.64,1.5V551h-2.85V538.32h2.72l.07,1.42a3.21,3.21,0,0,1,2.86-1.65,2.68,2.68,0,0,1,1,.16Zm6,6,2.58-8.6h3l-5,14.6q-1.16,3.2-3.94,3.2a5.08,5.08,0,0,1-1.37-.21v-2.2h.54a2.71,2.71,0,0,0,1.62-.4,2.55,2.55,0,0,0,.87-1.31L595,551l-4.45-12.62h3.07Z" transform="translate(0 -6)"/><path d="M846.18,473.2h-3.09l-.94,4.8h-1.68l.94-4.8h-2.8v-1.6h3.1l.81-4.15h-3v-1.63h3.34l1-4.87h1.68l-1,4.87h3.09l1-4.87h1.55l-1,4.87h2.39v1.63h-2.71L848,471.6h2.64v1.6H847.7l-.94,4.8h-1.63Zm-2.79-1.6h3.09l.81-4.15h-3.11Zm11-2.15.87-8.51H864v2h-6.9l-.51,4.65a5.5,5.5,0,0,1,2.84-.74,4.72,4.72,0,0,1,3.71,1.55,6,6,0,0,1,1.37,4.16,5.85,5.85,0,0,1-1.43,4.16,5.2,5.2,0,0,1-4,1.51,5.39,5.39,0,0,1-3.69-1.25,5,5,0,0,1-1.63-3.47h2a3.46,3.46,0,0,0,1,2.21,3.25,3.25,0,0,0,2.22.74,2.91,2.91,0,0,0,2.37-1,4.28,4.28,0,0,0,.87-2.85,3.9,3.9,0,0,0-.94-2.74,3.14,3.14,0,0,0-2.47-1,3.57,3.57,0,0,0-2.23.62L856,470ZM874,478h-2.18V463.55l-4.37,1.6v-2l6.21-2.33H874Zm17.37-15.84L884.29,478H882l7-15.28h-9.24v-1.78H891.3Zm12.43,8.31h-7.16V478h-2.25V460.94H905v1.85h-8.32v5.84h7.16Zm13.64-5.07a4,4,0,0,1-.68,2.27,4.55,4.55,0,0,1-1.82,1.56A4.82,4.82,0,0,1,917,470.9a4.16,4.16,0,0,1,.79,2.5,4.45,4.45,0,0,1-1.5,3.53,6.57,6.57,0,0,1-7.88,0A4.52,4.52,0,0,1,907,473.4a4.37,4.37,0,0,1,.75-2.5,4.68,4.68,0,0,1,2.09-1.69,4.53,4.53,0,0,1-1.79-1.56,4,4,0,0,1-.65-2.26,4.41,4.41,0,0,1,1.38-3.42,5.87,5.87,0,0,1,7.28,0,4.39,4.39,0,0,1,1.38,3.42Zm-1.77,8a3.13,3.13,0,0,0-.91-2.33,3.24,3.24,0,0,0-5.61,2.33,3,3,0,0,0,.86,2.28,3.33,3.33,0,0,0,2.4.83,3.29,3.29,0,0,0,2.39-.83,3,3,0,0,0,.86-2.33Zm-3.26-10.86a2.8,2.8,0,0,0-2.07.8,2.88,2.88,0,0,0-.79,2.15,2.91,2.91,0,0,0,.78,2.11,3.11,3.11,0,0,0,4.16,0,3.21,3.21,0,0,0,0-4.23,2.75,2.75,0,0,0-2.09-.89Zm18.37,7.63h-7.4v6H932V478H921.13V460.94h10.72v1.85h-8.47v5.48h7.4Z" transform="translate(0 -6)"/><path d="M843.18,500.76a1,1,0,0,0-.45-.91,4.13,4.13,0,0,0-1.54-.56,7.38,7.38,0,0,1-1.74-.56,2.52,2.52,0,0,1-1-.78,1.89,1.89,0,0,1-.3-1.08,2.2,2.2,0,0,1,.88-1.76,3.45,3.45,0,0,1,2.25-.72,3.51,3.51,0,0,1,2.33.74,2.35,2.35,0,0,1,.9,1.9h-1.45a1.3,1.3,0,0,0-.51-1,1.87,1.87,0,0,0-1.27-.43,2,2,0,0,0-1.23.34,1.08,1.08,0,0,0-.45.9.88.88,0,0,0,.41.79,5.07,5.07,0,0,0,1.49.51,7.82,7.82,0,0,1,1.76.58,2.51,2.51,0,0,1,1,.81,2,2,0,0,1,.33,1.15,2.18,2.18,0,0,1-.91,1.82,3.82,3.82,0,0,1-2.35.68,4.27,4.27,0,0,1-1.8-.36,3,3,0,0,1-1.23-1,2.45,2.45,0,0,1-.44-1.4h1.45a1.51,1.51,0,0,0,.58,1.16,2.29,2.29,0,0,0,1.44.42,2.33,2.33,0,0,0,1.31-.33A1,1,0,0,0,843.18,500.76Zm6.84,2.4a3.7,3.7,0,0,1-2.8-1.12,4.2,4.2,0,0,1-1.08-3v-.27a5.08,5.08,0,0,1,.48-2.24A3.76,3.76,0,0,1,848,495a3.38,3.38,0,0,1,1.88-.56,3.16,3.16,0,0,1,2.56,1.09,4.7,4.7,0,0,1,.91,3.11v.6H847.6a3,3,0,0,0,.73,2,2.32,2.32,0,0,0,1.78.77,2.52,2.52,0,0,0,1.3-.31,3.24,3.24,0,0,0,.93-.83l.88.69a3.55,3.55,0,0,1-3.19,1.6Zm-.18-7.58a1.92,1.92,0,0,0-1.47.64,3.07,3.07,0,0,0-.73,1.78h4.23v-.11a2.73,2.73,0,0,0-.59-1.7,1.81,1.81,0,0,0-1.43-.61Zm8.55,6.4a2.1,2.1,0,0,0,1.35-.47,1.63,1.63,0,0,0,.64-1.17h1.37a2.63,2.63,0,0,1-.5,1.38,3.3,3.3,0,0,1-1.24,1,3.76,3.76,0,0,1-4.37-.76,4.62,4.62,0,0,1-1-3.16v-.24a5.09,5.09,0,0,1,.45-2.2,3.46,3.46,0,0,1,1.3-1.49,3.72,3.72,0,0,1,2-.53,3.36,3.36,0,0,1,2.36.85,3,3,0,0,1,1,2.21h-1.37a2,2,0,0,0-.62-1.34,1.92,1.92,0,0,0-1.38-.53,2,2,0,0,0-1.71.8,3.72,3.72,0,0,0-.6,2.29v.27a3.65,3.65,0,0,0,.6,2.25,2,2,0,0,0,1.73.86Zm4.6-3.28a5.06,5.06,0,0,1,.48-2.23,3.8,3.8,0,0,1,6.15-.87,4.61,4.61,0,0,1,1.07,3.18v.1a5,5,0,0,1-.48,2.22,3.53,3.53,0,0,1-1.35,1.52,3.75,3.75,0,0,1-2,.55,3.59,3.59,0,0,1-2.79-1.2,4.58,4.58,0,0,1-1.06-3.16Zm1.45.17a3.65,3.65,0,0,0,.65,2.26,2.1,2.1,0,0,0,1.75.85,2.07,2.07,0,0,0,1.75-.86,4,4,0,0,0,.65-2.42,3.59,3.59,0,0,0-.66-2.25,2.19,2.19,0,0,0-3.48,0,3.91,3.91,0,0,0-.65,2.42Zm9.43-4.32v1.06a3.09,3.09,0,0,1,2.53-1.22c1.79,0,2.69,1,2.71,3V503h-1.45v-5.59a1.89,1.89,0,0,0-.42-1.35,1.66,1.66,0,0,0-1.27-.44,2.11,2.11,0,0,0-1.24.38,2.6,2.6,0,0,0-.83,1v6h-1.44v-8.45Zm7.1,4.16a4.91,4.91,0,0,1,.93-3.12,3.13,3.13,0,0,1,4.76-.17V491h1.45v12h-1.33l-.07-.91a3,3,0,0,1-2.42,1.06,2.89,2.89,0,0,1-2.39-1.2,5,5,0,0,1-.93-3.14Zm1.45.16a3.79,3.79,0,0,0,.59,2.25,1.93,1.93,0,0,0,1.64.81,2.11,2.11,0,0,0,2-1.23v-3.88a2.12,2.12,0,0,0-2-1.2,1.94,1.94,0,0,0-1.66.82,4.17,4.17,0,0,0-.56,2.43ZM895.58,503a3,3,0,0,1-.21-.89,3.21,3.21,0,0,1-2.4,1,3,3,0,0,1-2.06-.7,2.3,2.3,0,0,1-.79-1.8,2.38,2.38,0,0,1,1-2,4.71,4.71,0,0,1,2.82-.73h1.41v-.66a1.62,1.62,0,0,0-.45-1.2,1.83,1.83,0,0,0-1.34-.45,2.13,2.13,0,0,0-1.3.39,1.15,1.15,0,0,0-.52,1h-1.45a2,2,0,0,1,.44-1.22,3.09,3.09,0,0,1,1.22-.94,4.15,4.15,0,0,1,1.7-.34,3.35,3.35,0,0,1,2.29.73,2.62,2.62,0,0,1,.85,2V501a4.71,4.71,0,0,0,.3,1.85V503Zm-2.4-1.1a2.57,2.57,0,0,0,1.29-.35,2.15,2.15,0,0,0,.88-.91V498.9h-1.13c-1.77,0-2.66.52-2.66,1.55a1.32,1.32,0,0,0,.45,1.06A1.76,1.76,0,0,0,893.18,501.9Zm10-6a4.33,4.33,0,0,0-.71,0,1.9,1.9,0,0,0-1.93,1.21v6h-1.45v-8.45h1.41v1a2.25,2.25,0,0,1,2-1.13,1.49,1.49,0,0,1,.64.11Zm4.24,5,2-6.34H911l-3.39,9.76c-.53,1.41-1.37,2.11-2.51,2.11h-.28l-.53-.1v-1.17h.39a1.91,1.91,0,0,0,1.14-.3,2.2,2.2,0,0,0,.68-1.09l.32-.86-3-8.36h1.58Z" transform="translate(0 -6)"/><path d="M845.43,526.87a5,5,0,0,1-.89,3.12,2.85,2.85,0,0,1-2.39,1.17,3,3,0,0,1-2.48-1.13l-.07,1h-1.33V519h1.45v4.48a2.93,2.93,0,0,1,2.41-1.09,2.85,2.85,0,0,1,2.41,1.16,5.16,5.16,0,0,1,.88,3.19Zm-1.45-.16a3.9,3.9,0,0,0-.57-2.28,1.89,1.89,0,0,0-1.64-.8,2.12,2.12,0,0,0-2,1.33v3.66a2.18,2.18,0,0,0,2.07,1.33,1.88,1.88,0,0,0,1.62-.8,4.16,4.16,0,0,0,.57-2.45Zm8.49,3.46a3.07,3.07,0,0,1-2.48,1,2.65,2.65,0,0,1-2.06-.78,3.42,3.42,0,0,1-.75-2.39v-5.5h1.45V528q0,1.92,1.56,1.92a2.16,2.16,0,0,0,2.2-1.23v-6.15h1.45V531h-1.37Zm5.57-9.66v2h1.58v1.12H858v5.24a1.19,1.19,0,0,0,.21.77.9.9,0,0,0,.72.25,3.45,3.45,0,0,0,.68-.09V531a4.18,4.18,0,0,1-1.1.16,1.8,1.8,0,0,1-1.47-.59,2.52,2.52,0,0,1-.49-1.66v-5.24H855v-1.12h1.54v-2Zm5.23,0v2h1.58v1.12h-1.58v5.24a1.19,1.19,0,0,0,.21.77.9.9,0,0,0,.72.25,3.44,3.44,0,0,0,.69-.09V531a4.2,4.2,0,0,1-1.11.16,1.79,1.79,0,0,1-1.46-.59,2.5,2.5,0,0,1-.49-1.66v-5.24h-1.54v-1.12h1.54v-2Zm2.74,6.2a5.06,5.06,0,0,1,.48-2.23,3.67,3.67,0,0,1,1.36-1.53,3.71,3.71,0,0,1,2-.54,3.56,3.56,0,0,1,2.79,1.2,4.61,4.61,0,0,1,1.07,3.18v.1a5,5,0,0,1-.48,2.22,3.53,3.53,0,0,1-1.35,1.52,3.69,3.69,0,0,1-2,.55,3.56,3.56,0,0,1-2.79-1.2,4.58,4.58,0,0,1-1.06-3.16Zm1.45.17a3.65,3.65,0,0,0,.65,2.26,2.22,2.22,0,0,0,3.5,0,4,4,0,0,0,.65-2.42,3.6,3.6,0,0,0-.67-2.25,2.09,2.09,0,0,0-1.75-.87,2.06,2.06,0,0,0-1.72.85,3.91,3.91,0,0,0-.65,2.42Zm9.42-4.32v1.06a3.07,3.07,0,0,1,2.53-1.22q2.68,0,2.7,3V531h-1.44v-5.59a1.94,1.94,0,0,0-.43-1.35,1.65,1.65,0,0,0-1.27-.44,2.06,2.06,0,0,0-1.23.38,2.52,2.52,0,0,0-.83,1v6h-1.45v-8.45Zm12.38,6.21a1,1,0,0,0-.44-.91,4.17,4.17,0,0,0-1.54-.56,7.31,7.31,0,0,1-1.74-.56,2.54,2.54,0,0,1-1-.78,1.91,1.91,0,0,1-.3-1.08,2.2,2.2,0,0,1,.87-1.76,3.45,3.45,0,0,1,2.25-.72,3.51,3.51,0,0,1,2.33.74,2.35,2.35,0,0,1,.9,1.9h-1.41a1.3,1.3,0,0,0-.51-1,1.88,1.88,0,0,0-1.27-.43,2,2,0,0,0-1.23.34,1.08,1.08,0,0,0-.45.9.87.87,0,0,0,.42.79,5,5,0,0,0,1.49.51,7.94,7.94,0,0,1,1.76.58,2.46,2.46,0,0,1,1,.81,1.94,1.94,0,0,1,.33,1.15,2.16,2.16,0,0,1-.91,1.82,3.81,3.81,0,0,1-2.35.68,4.3,4.3,0,0,1-1.8-.36,2.91,2.91,0,0,1-1.22-1,2.47,2.47,0,0,1-.44-1.4h1.45a1.49,1.49,0,0,0,.57,1.16,2.72,2.72,0,0,0,2.75.09,1,1,0,0,0,.5-.92Zm10.31-2h-3.81v-1.18h3.81Zm5.87,4.24v-7.34H904.1v-1.12h1.34v-.72a2.93,2.93,0,0,1,.8-2.2,3.16,3.16,0,0,1,2.29-.79,6.91,6.91,0,0,1,2.21.48l-.24,1.22a5,5,0,0,0-1.86-.39,1.85,1.85,0,0,0-1.35.42,1.72,1.72,0,0,0-.4,1.25v.73h1.73v1.12h-1.73V531Zm6,0H910v-8.45h1.45Zm5.86.16a3.7,3.7,0,0,1-2.8-1.12,4.2,4.2,0,0,1-1.08-3v-.27a5,5,0,0,1,.48-2.24,3.75,3.75,0,0,1,1.34-1.55,3.41,3.41,0,0,1,1.88-.56,3.16,3.16,0,0,1,2.56,1.09,4.7,4.7,0,0,1,.92,3.11v.6h-5.73a3,3,0,0,0,.73,2,2.3,2.3,0,0,0,1.78.77,2.49,2.49,0,0,0,1.29-.31,3.11,3.11,0,0,0,.93-.83l.89.69a3.55,3.55,0,0,1-3.16,1.61Zm-.18-7.58a1.94,1.94,0,0,0-1.47.64,3,3,0,0,0-.73,1.78h4.26v-.11a2.75,2.75,0,0,0-.59-1.7,1.83,1.83,0,0,0-1.41-.62Zm6.73,7.42H922.4V519h1.45Zm2-4.3a4.91,4.91,0,0,1,.93-3.12,3.13,3.13,0,0,1,4.76-.17V519H933v12h-1.33l-.07-.91a3,3,0,0,1-2.42,1.06,2.89,2.89,0,0,1-2.39-1.2,5,5,0,0,1-.93-3.14Zm1.45.16a3.79,3.79,0,0,0,.59,2.25,1.93,1.93,0,0,0,1.64.81,2.11,2.11,0,0,0,2-1.23v-3.88a2.12,2.12,0,0,0-2-1.2,1.94,1.94,0,0,0-1.66.82,4.17,4.17,0,0,0-.58,2.43Zm12.86,1.89a1,1,0,0,0-.45-.91,4.1,4.1,0,0,0-1.54-.56,7.47,7.47,0,0,1-1.74-.56,2.58,2.58,0,0,1-1-.78,1.91,1.91,0,0,1-.31-1.08,2.21,2.21,0,0,1,.88-1.76,3.45,3.45,0,0,1,2.25-.72,3.53,3.53,0,0,1,2.33.74,2.35,2.35,0,0,1,.9,1.9h-1.46a1.32,1.32,0,0,0-.5-1,1.89,1.89,0,0,0-1.27-.43,1.94,1.94,0,0,0-1.23.34,1.08,1.08,0,0,0-.45.9.89.89,0,0,0,.41.79,5.18,5.18,0,0,0,1.5.51,7.67,7.67,0,0,1,1.75.58,2.57,2.57,0,0,1,1,.81,2,2,0,0,1,.32,1.15,2.18,2.18,0,0,1-.9,1.82,3.83,3.83,0,0,1-2.35.68,4.27,4.27,0,0,1-1.8-.36,3,3,0,0,1-1.23-1,2.46,2.46,0,0,1-.43-1.4h1.44a1.53,1.53,0,0,0,.58,1.16,2.28,2.28,0,0,0,1.44.42,2.34,2.34,0,0,0,1.31-.33,1,1,0,0,0,.52-.91Z" transform="translate(0 -6)"/><path d="M503.61,524.2H501l-.89,4.8h-2l.89-4.8h-2.71v-1.85h3.06l.68-3.67H497.2v-1.86h3.2l.91-4.87h2l-.91,4.87H505l.91-4.87h2l-.91,4.87h2.44v1.86h-2.79l-.68,3.67h2.59v1.85h-2.94l-.89,4.8h-2Zm-2.27-1.85H504l.68-3.67H502Zm10.06-1.8.92-8.6h9.16v2.46h-6.8l-.47,4.08a5.26,5.26,0,0,1,2.67-.68,4.74,4.74,0,0,1,3.79,1.56,6.16,6.16,0,0,1,1.36,4.2,5.7,5.7,0,0,1-1.5,4.15,5.48,5.48,0,0,1-4.11,1.54,5.77,5.77,0,0,1-3.89-1.32,4.84,4.84,0,0,1-1.66-3.51h2.75a3,3,0,0,0,.89,1.91,2.72,2.72,0,0,0,1.9.66,2.43,2.43,0,0,0,2-.94,4,4,0,0,0,.74-2.55,3.55,3.55,0,0,0-.81-2.46,2.82,2.82,0,0,0-2.23-.91,3.16,3.16,0,0,0-2.48,1ZM531.5,529h-2.84V515.3l-4.18,1.43v-2.4l6.66-2.45h.36Zm16.81-15.48L541.48,529h-3l6.81-14.78h-8.81v-2.29h11.83Zm12.09,8.25h-6.87V529h-3V511.94h10.84v2.39H553.5v5.07h6.87Zm13.17-5.33a4,4,0,0,1-.64,2.24,4.5,4.5,0,0,1-1.76,1.53,4.82,4.82,0,0,1,2,1.7,4.26,4.26,0,0,1,.73,2.44,4.5,4.5,0,0,1-1.52,3.57,6.93,6.93,0,0,1-8.13,0,4.48,4.48,0,0,1-1.52-3.56,4.34,4.34,0,0,1,.73-2.46,4.66,4.66,0,0,1,2-1.68,4.52,4.52,0,0,1-1.75-1.53,4,4,0,0,1-.63-2.24,4.44,4.44,0,0,1,1.41-3.46,6.3,6.3,0,0,1,7.61,0A4.44,4.44,0,0,1,573.57,516.44Zm-2.47,7.77a2.78,2.78,0,0,0-.76-2,2.94,2.94,0,0,0-4,0,2.85,2.85,0,0,0-.74,2,2.76,2.76,0,0,0,.73,2,2.71,2.71,0,0,0,2,.75,2.68,2.68,0,0,0,2-.73,2.74,2.74,0,0,0,.77-2.07Zm-.36-7.66a2.63,2.63,0,0,0-.64-1.83,2.46,2.46,0,0,0-3.46,0,3.06,3.06,0,0,0,0,3.72,2.25,2.25,0,0,0,1.73.69,2.22,2.22,0,0,0,1.72-.69,2.63,2.63,0,0,0,.64-1.9Zm15.68,4.84h-7v5.25h8.19V529H576.44V511.94h11.07v2.39H579.4V519h7Z" transform="translate(0 -6)"/><path d="M479.18,234h200v26a30,30,0,0,1-30,30h-140a30,30,0,0,1-30-30h0Z" transform="translate(0 -6)" style="fill:#fff7ce"/><path d="M479.18,206h200v26a30,30,0,0,1-30,30h-140a30,30,0,0,1-30-30h0Z" transform="translate(0 -6)" style="fill:#ffee94"/><path d="M479.18,179h200v26a30,30,0,0,1-30,30h-140a30,30,0,0,1-30-30h0Z" transform="translate(0 -6)" style="fill:#ffe55e"/><rect x="479.18" width="200" height="200" rx="30" ry="30" style="fill:#ffd600"/><path d="M506.74,180.79a7.58,7.58,0,0,1-1.34,4.7,4.65,4.65,0,0,1-6.93.38v6h-2.85V174.32h2.63l.12,1.29a4.18,4.18,0,0,1,3.41-1.52,4.3,4.3,0,0,1,3.63,1.73,7.7,7.7,0,0,1,1.32,4.79Zm-2.84-.25a5.26,5.26,0,0,0-.76-3,2.44,2.44,0,0,0-2.16-1.11,2.62,2.62,0,0,0-2.51,1.44v5.63A2.64,2.64,0,0,0,501,185a2.44,2.44,0,0,0,2.12-1.09,5.81,5.81,0,0,0,.79-3.35Zm11.41-3.62a7,7,0,0,0-1.16-.09,2.61,2.61,0,0,0-2.64,1.5V187h-2.83V174.32h2.72l.07,1.42a3.21,3.21,0,0,1,2.86-1.65,2.68,2.68,0,0,1,1,.16ZM519.67,187h-2.85V174.32h2.85Zm-3-16a1.52,1.52,0,0,1,.41-1.09,1.86,1.86,0,0,1,2.39,0,1.6,1.6,0,0,1,0,2.17,1.9,1.9,0,0,1-2.39,0,1.51,1.51,0,0,1-.43-1.08Zm8.33,3.29.08,1.32a4.56,4.56,0,0,1,3.66-1.56,3.5,3.5,0,0,1,3.44,1.95,4.5,4.5,0,0,1,3.89-1.95,3.94,3.94,0,0,1,3.12,1.16,5.09,5.09,0,0,1,1,3.42V187h-2.85v-8.25a2.53,2.53,0,0,0-.53-1.77,2.31,2.31,0,0,0-1.75-.56,2.38,2.38,0,0,0-1.59.53,2.73,2.73,0,0,0-.86,1.36V187h-2.85v-8.34a2,2,0,0,0-2.28-2.24,2.51,2.51,0,0,0-2.43,1.39V187H522.2V174.32ZM550.28,187a4.4,4.4,0,0,1-.33-1.18,4.43,4.43,0,0,1-3.33,1.42,4.48,4.48,0,0,1-3.12-1.09,3.49,3.49,0,0,1-1.21-2.7,3.59,3.59,0,0,1,1.5-3.11,7.29,7.29,0,0,1,4.31-1.09h1.75v-.83a2.2,2.2,0,0,0-.55-1.57,2.17,2.17,0,0,0-1.68-.6,2.49,2.49,0,0,0-1.59.49,1.49,1.49,0,0,0-.62,1.23h-2.85a3.14,3.14,0,0,1,.69-1.95,4.59,4.59,0,0,1,1.93-1.42,6.65,6.65,0,0,1,2.66-.52,5.3,5.3,0,0,1,3.55,1.13,4,4,0,0,1,1.36,3.14v5.72a6.47,6.47,0,0,0,.48,2.73v.2Zm-3.1-2.05a3.21,3.21,0,0,0,1.58-.41,2.73,2.73,0,0,0,1.13-1.1V181h-1.53a4.19,4.19,0,0,0-2.38.55,1.78,1.78,0,0,0-.8,1.56,1.69,1.69,0,0,0,.54,1.31,2.15,2.15,0,0,0,1.46.53Zm14.7-8a7,7,0,0,0-1.16-.09,2.61,2.61,0,0,0-2.64,1.5V187h-2.9V174.32h2.72l.07,1.42a3.21,3.21,0,0,1,2.86-1.65,2.67,2.67,0,0,1,1,.16Zm6,6,2.58-8.6h3l-5,14.6q-1.16,3.2-3.94,3.2a5.09,5.09,0,0,1-1.37-.21v-2.2h.54a2.72,2.72,0,0,0,1.62-.4,2.55,2.55,0,0,0,.87-1.31l.41-1.09-4.45-12.62h3.07Z" transform="translate(0 -6)"/><path d="M846.18,109.2h-3.09l-.94,4.8h-1.68l.94-4.8h-2.8v-1.61h3.1l.81-4.15h-3v-1.63h3.34l1-4.87h1.68l-1,4.87h3.09l1-4.87h1.55l-1,4.87h2.39v1.63h-2.71l-.81,4.15h2.64v1.61h-2.94l-.94,4.8h-1.63Zm-2.79-1.61h3.09l.81-4.15h-3.11ZM854,114V96.94h5.58a6.45,6.45,0,0,1,4.17,1.15,4.13,4.13,0,0,1,1.41,3.4,3.51,3.51,0,0,1-.68,2.12,4.43,4.43,0,0,1-1.86,1.42,3.89,3.89,0,0,1,2.18,1.48,4.17,4.17,0,0,1,.81,2.58,4.54,4.54,0,0,1-1.49,3.61,6.14,6.14,0,0,1-4.2,1.31Zm2.25-8v6.14H860a3.58,3.58,0,0,0,2.48-.81,2.87,2.87,0,0,0,.91-2.25q0-3.08-3.35-3.08Zm0-1.81h3.4a3.53,3.53,0,0,0,2.35-.74,2.45,2.45,0,0,0,.89-2,2.4,2.4,0,0,0-.82-2,4,4,0,0,0-2.49-.65h-3.35Zm25.25,4.37a6.3,6.3,0,0,1-2,4.18,6.56,6.56,0,0,1-4.5,1.46,6,6,0,0,1-4.85-2.17,8.74,8.74,0,0,1-1.81-5.8v-1.64a9.82,9.82,0,0,1,.84-4.18,6.39,6.39,0,0,1,2.41-2.76,6.69,6.69,0,0,1,3.61-1,6.13,6.13,0,0,1,4.36,1.52,6.3,6.3,0,0,1,1.91,4.19H879.2a4.81,4.81,0,0,0-1.28-3,3.8,3.8,0,0,0-2.73-.91,4,4,0,0,0-3.38,1.59,7.29,7.29,0,0,0-1.22,4.54v1.65a7.54,7.54,0,0,0,1.16,4.42,3.74,3.74,0,0,0,3.24,1.64,4.37,4.37,0,0,0,2.88-.84,4.74,4.74,0,0,0,1.33-3Zm13.22-1.86a9.91,9.91,0,0,1-1.3,5.66,5.41,5.41,0,0,1-8.11,0,9.47,9.47,0,0,1-1.36-5.41V104a9.75,9.75,0,0,1,1.3-5.59A5.5,5.5,0,0,1,893,98a4.85,4.85,0,0,1,.37.37,9.36,9.36,0,0,1,1.33,5.44Zm-2.17-3a7.87,7.87,0,0,0-.77-4,2.65,2.65,0,0,0-2.45-1.27,2.61,2.61,0,0,0-2.42,1.25,7.77,7.77,0,0,0-.79,3.86V107a8.16,8.16,0,0,0,.8,4.09,2.67,2.67,0,0,0,2.43,1.31,2.59,2.59,0,0,0,2.38-1.24,7.62,7.62,0,0,0,.82-3.91ZM898,113.94v-17h5.58a6.45,6.45,0,0,1,4.17,1.15,4.13,4.13,0,0,1,1.41,3.4,3.51,3.51,0,0,1-.68,2.12,4.4,4.4,0,0,1-1.85,1.42,3.92,3.92,0,0,1,2.18,1.48,4.17,4.17,0,0,1,.81,2.58,4.57,4.57,0,0,1-1.49,3.61,6.19,6.19,0,0,1-4.21,1.31Zm2.25-8v6.14H904a3.57,3.57,0,0,0,2.47-.81,2.87,2.87,0,0,0,.91-2.25c0-2.06-1.11-3.08-3.35-3.08Zm0-1.81h3.4a3.57,3.57,0,0,0,2.36-.74,2.48,2.48,0,0,0,.89-2,2.43,2.43,0,0,0-.82-2,4,4,0,0,0-2.5-.65h-3.33Zm23.16-6.06L916.35,114h-2.27l7-15.28h-9.23V96.94h11.53Zm3.46,7.29.86-8.51h8.74v2h-6.9l-.51,4.65a5.47,5.47,0,0,1,2.84-.74,4.72,4.72,0,0,1,3.71,1.55,6,6,0,0,1,1.37,4.16,5.85,5.85,0,0,1-1.43,4.16,5.19,5.19,0,0,1-4,1.51,5.42,5.42,0,0,1-3.7-1.25,5,5,0,0,1-1.62-3.47h2a3.47,3.47,0,0,0,1,2.22,3.25,3.25,0,0,0,2.23.74,2.91,2.91,0,0,0,2.36-1,4.28,4.28,0,0,0,.87-2.85,3.9,3.9,0,0,0-.94-2.74,3.13,3.13,0,0,0-2.47-1,3.6,3.6,0,0,0-2.23.62l-.57.47Z" transform="translate(0 -6)"/><path d="M845.41,134.87a5.07,5.07,0,0,1-.88,3.11,2.83,2.83,0,0,1-2.39,1.18,3.1,3.1,0,0,1-2.42-1v4.07h-1.45v-11.7h1.32l.07.94a3,3,0,0,1,2.45-1.09,2.87,2.87,0,0,1,2.41,1.15,5.1,5.1,0,0,1,.89,3.19Zm-1.45-.16a3.74,3.74,0,0,0-.61-2.26,2,2,0,0,0-1.67-.83,2.13,2.13,0,0,0-2,1.16v4a2.13,2.13,0,0,0,2,1.16,2,2,0,0,0,1.65-.82,4.08,4.08,0,0,0,.64-2.42Zm7.38-2.86a4.28,4.28,0,0,0-.71-.05,1.91,1.91,0,0,0-1.93,1.2v6h-1.45v-8.45h1.41v1a2.25,2.25,0,0,1,2-1.13,1.48,1.48,0,0,1,.64.11Zm2.91,7.16H852.8v-8.45h1.45Zm-1.56-10.7a.87.87,0,0,1,.21-.59,1,1,0,0,1,1.28,0,.85.85,0,0,1,.22.59.9.9,0,0,1-1.5.59.84.84,0,0,1-.21-.6Zm5.24,2.24v.94a3.12,3.12,0,0,1,2.51-1.09,2.42,2.42,0,0,1,2.41,1.36,3.26,3.26,0,0,1,1.09-1,3.3,3.3,0,0,1,1.61-.37q2.78,0,2.82,2.94V139h-1.44v-5.58a2,2,0,0,0-.41-1.35,1.83,1.83,0,0,0-1.4-.45,1.9,1.9,0,0,0-1.33.49,1.92,1.92,0,0,0-.62,1.29V139h-1.45v-5.54a1.61,1.61,0,0,0-1.81-1.84,1.93,1.93,0,0,0-1.94,1.21V139h-1.45v-8.45ZM875.82,139a3.11,3.11,0,0,1-.2-.89,3.23,3.23,0,0,1-2.41,1,3,3,0,0,1-2-.7,2.31,2.31,0,0,1-.8-1.8,2.38,2.38,0,0,1,1-2,4.73,4.73,0,0,1,2.83-.73h1.4v-.66a1.62,1.62,0,0,0-.45-1.2,1.82,1.82,0,0,0-1.34-.45,2.1,2.1,0,0,0-1.29.39,1.16,1.16,0,0,0-.53.95h-1.45a2,2,0,0,1,.45-1.22,3.09,3.09,0,0,1,1.22-.94,4.1,4.1,0,0,1,1.69-.34,3.33,3.33,0,0,1,2.29.73,2.63,2.63,0,0,1,.86,2V137a4.71,4.71,0,0,0,.3,1.85V139Zm-2.4-1.1a2.54,2.54,0,0,0,1.29-.35,2.09,2.09,0,0,0,.88-.91V134.9h-1.13c-1.77,0-2.66.52-2.66,1.56a1.33,1.33,0,0,0,.46,1.06A1.73,1.73,0,0,0,873.42,137.9Zm10-6.05a4.23,4.23,0,0,0-.71-.05,1.9,1.9,0,0,0-1.93,1.21v6h-1.45v-8.45h1.41v1a2.26,2.26,0,0,1,2-1.13,1.46,1.46,0,0,1,.64.11Zm4.24,5,2-6.34h1.52l-3.4,9.76c-.53,1.41-1.36,2.11-2.51,2.11H885l-.54-.1v-1.17h.39a1.91,1.91,0,0,0,1.14-.3,2.13,2.13,0,0,0,.68-1.09l.32-.86-3-8.36h1.57Z" transform="translate(0 -6)"/><path d="M845.43,162.87a5,5,0,0,1-.89,3.12,2.85,2.85,0,0,1-2.39,1.17,3,3,0,0,1-2.48-1.13l-.07,1h-1.33V155h1.45v4.48a2.93,2.93,0,0,1,2.41-1.09,2.85,2.85,0,0,1,2.41,1.16,5.16,5.16,0,0,1,.88,3.19Zm-1.45-.16a3.9,3.9,0,0,0-.57-2.28,1.89,1.89,0,0,0-1.64-.8,2.12,2.12,0,0,0-2,1.33v3.66a2.18,2.18,0,0,0,2.07,1.33,1.88,1.88,0,0,0,1.62-.8,4.16,4.16,0,0,0,.57-2.45Zm7.36-2.86a4.28,4.28,0,0,0-.71-.05,1.91,1.91,0,0,0-1.93,1.2v6h-1.45v-8.45h1.41v1a2.25,2.25,0,0,1,2-1.13,1.48,1.48,0,0,1,.64.11Zm6.25,7.16a3,3,0,0,1-.21-.89,3.21,3.21,0,0,1-2.4,1,3,3,0,0,1-2-.7,2.31,2.31,0,0,1-.8-1.8,2.39,2.39,0,0,1,1-2,4.74,4.74,0,0,1,2.83-.73h1.41v-.66A1.61,1.61,0,0,0,857,160a1.81,1.81,0,0,0-1.34-.45,2.11,2.11,0,0,0-1.3.39,1.15,1.15,0,0,0-.52.95h-1.45a2,2,0,0,1,.45-1.22,3.1,3.1,0,0,1,1.22-.94,4.13,4.13,0,0,1,1.7-.34,3.35,3.35,0,0,1,2.29.73,2.62,2.62,0,0,1,.85,2V165a4.71,4.71,0,0,0,.3,1.85V167Zm-2.4-1.1a2.54,2.54,0,0,0,1.29-.35,2.14,2.14,0,0,0,.88-.91V162.9h-1.18q-2.66,0-2.66,1.56a1.32,1.32,0,0,0,.45,1.06,1.74,1.74,0,0,0,1.21.38Zm7.25-7.35v1.06A3.09,3.09,0,0,1,865,158.4q2.67,0,2.7,3V167h-1.45v-5.59a1.89,1.89,0,0,0-.42-1.35,1.65,1.65,0,0,0-1.27-.44,2.11,2.11,0,0,0-1.24.38,2.49,2.49,0,0,0-.82,1v6H861v-8.45Zm7.11,4.16a4.9,4.9,0,0,1,.92-3.12,3.13,3.13,0,0,1,4.76-.17V155h1.45v12h-1.33l-.07-.91a2.94,2.94,0,0,1-2.41,1.06,2.9,2.9,0,0,1-2.4-1.2,5,5,0,0,1-.92-3.14Zm1.44.16a3.72,3.72,0,0,0,.6,2.25,1.91,1.91,0,0,0,1.64.81,2.1,2.1,0,0,0,2-1.23v-3.88a2.12,2.12,0,0,0-2-1.19,1.91,1.91,0,0,0-1.65.82,4.09,4.09,0,0,0-.59,2.41Zm14.92-.11h-3.82v-1.18h3.82Zm12.54.11a5.07,5.07,0,0,1-.89,3.12,2.87,2.87,0,0,1-2.4,1.17,2.94,2.94,0,0,1-2.47-1.13l-.07,1h-1.33V155h1.44v4.48a2.94,2.94,0,0,1,2.42-1.09,2.85,2.85,0,0,1,2.41,1.16,5.15,5.15,0,0,1,.89,3.19Zm-1.45-.16a3.91,3.91,0,0,0-.57-2.28,1.89,1.89,0,0,0-1.64-.8,2.14,2.14,0,0,0-2.06,1.33v3.66A2.2,2.2,0,0,0,894.8,166a1.87,1.87,0,0,0,1.62-.8,4.12,4.12,0,0,0,.58-2.46Zm8.49,3.46a3.06,3.06,0,0,1-2.47,1,2.66,2.66,0,0,1-2.07-.78,3.44,3.44,0,0,1-.71-2.33v-5.5h1.45V164q0,1.92,1.56,1.92a2.16,2.16,0,0,0,2.2-1.23v-6.15h1.45V167h-1.38Zm5.57-9.66v2h1.58v1.12h-1.58v5.24a1.19,1.19,0,0,0,.21.77.9.9,0,0,0,.72.25,3.44,3.44,0,0,0,.69-.09V167a4.2,4.2,0,0,1-1.11.16,1.79,1.79,0,0,1-1.46-.59,2.5,2.5,0,0,1-.49-1.66v-5.24h-1.54v-1.12h1.54v-2Zm5.24,0v2h1.58v1.12H916.3v5.24a1.19,1.19,0,0,0,.21.77.9.9,0,0,0,.72.25,3.45,3.45,0,0,0,.68-.09V167a4.2,4.2,0,0,1-1.11.16,1.81,1.81,0,0,1-1.46-.59,2.56,2.56,0,0,1-.49-1.66v-5.24h-1.54v-1.12h1.54v-2Zm2.73,6.2a4.93,4.93,0,0,1,.49-2.23,3.61,3.61,0,0,1,1.36-1.53,3.69,3.69,0,0,1,2-.54,3.56,3.56,0,0,1,2.79,1.19,4.61,4.61,0,0,1,1.07,3.18v.1a5,5,0,0,1-.48,2.22,3.53,3.53,0,0,1-1.35,1.52,3.73,3.73,0,0,1-2,.55,3.59,3.59,0,0,1-2.79-1.2,4.63,4.63,0,0,1-1.06-3.16Zm1.45.17a3.65,3.65,0,0,0,.65,2.26,2.1,2.1,0,0,0,1.75.85,2.07,2.07,0,0,0,1.75-.86,3.92,3.92,0,0,0,.65-2.42,3.59,3.59,0,0,0-.66-2.25,2.19,2.19,0,0,0-3.48,0,3.91,3.91,0,0,0-.66,2.4Zm9.43-4.32v1.06a3.09,3.09,0,0,1,2.53-1.22c1.79,0,2.69,1,2.71,3V167H933.7v-5.59a1.89,1.89,0,0,0-.42-1.35,1.65,1.65,0,0,0-1.27-.44,2.11,2.11,0,0,0-1.24.38,2.6,2.6,0,0,0-.83,1v6H928.5v-8.45Zm12.38,6.21a1,1,0,0,0-.45-.91,4.1,4.1,0,0,0-1.54-.56,7.63,7.63,0,0,1-1.74-.56,2.58,2.58,0,0,1-1-.78,1.91,1.91,0,0,1-.31-1.08,2.21,2.21,0,0,1,.88-1.76,3.45,3.45,0,0,1,2.25-.72,3.53,3.53,0,0,1,2.33.74,2.35,2.35,0,0,1,.9,1.9h-1.48a1.32,1.32,0,0,0-.5-1,1.89,1.89,0,0,0-1.27-.43,1.94,1.94,0,0,0-1.23.34,1.08,1.08,0,0,0-.45.9.89.89,0,0,0,.41.79,5.18,5.18,0,0,0,1.5.51,7.67,7.67,0,0,1,1.75.58,2.57,2.57,0,0,1,1,.81,1.94,1.94,0,0,1,.32,1.15,2.18,2.18,0,0,1-.9,1.82,3.83,3.83,0,0,1-2.35.68,4.27,4.27,0,0,1-1.8-.36,3,3,0,0,1-1.23-1,2.46,2.46,0,0,1-.43-1.4h1.44a1.53,1.53,0,0,0,.58,1.16,2.28,2.28,0,0,0,1.44.42,2.34,2.34,0,0,0,1.31-.33,1,1,0,0,0,.52-.93Zm7.59,3.22h-1.25l4.75-12.35h1.24Zm13.66-2a2.06,2.06,0,0,0,1.35-.47,1.63,1.63,0,0,0,.64-1.17h1.37a2.63,2.63,0,0,1-.5,1.38,3.3,3.3,0,0,1-1.24,1,3.76,3.76,0,0,1-4.37-.76,4.6,4.6,0,0,1-1-3.16v-.24a5,5,0,0,1,.46-2.19,3.44,3.44,0,0,1,1.29-1.49,3.73,3.73,0,0,1,2-.53,3.36,3.36,0,0,1,2.36.85,3,3,0,0,1,1,2.21h-1.37a2,2,0,0,0-.62-1.34,1.92,1.92,0,0,0-1.38-.53,2,2,0,0,0-1.71.8,3.73,3.73,0,0,0-.6,2.29v.27a3.66,3.66,0,0,0,.6,2.25,2,2,0,0,0,1.72.83Zm10.2,1a3.11,3.11,0,0,1-.2-.89,3.22,3.22,0,0,1-2.41,1,3,3,0,0,1-2-.7,2.31,2.31,0,0,1-.8-1.8,2.38,2.38,0,0,1,1-2,4.75,4.75,0,0,1,2.83-.73h1.41v-.66a1.62,1.62,0,0,0-.46-1.2,1.79,1.79,0,0,0-1.33-.45,2.11,2.11,0,0,0-1.3.39,1.15,1.15,0,0,0-.52.95H968.5a2,2,0,0,1,.45-1.22,3.09,3.09,0,0,1,1.22-.94,4.1,4.1,0,0,1,1.69-.34,3.32,3.32,0,0,1,2.29.73,2.63,2.63,0,0,1,.86,2V165a4.71,4.71,0,0,0,.3,1.85V167Zm-2.4-1.1a2.51,2.51,0,0,0,1.29-.35,2.17,2.17,0,0,0,.89-.91V162.9h-1.14c-1.77,0-2.65.52-2.65,1.56a1.32,1.32,0,0,0,.45,1.06,1.73,1.73,0,0,0,1.16.38Zm7.46,1.1h-1.45V155h1.45Zm3.89,0h-1.45V155h1.45Zm7.24-2.24a1,1,0,0,0-.45-.91,4.1,4.1,0,0,0-1.53-.56,7.57,7.57,0,0,1-1.75-.56,2.58,2.58,0,0,1-1-.78,1.91,1.91,0,0,1-.3-1.08,2.2,2.2,0,0,1,.87-1.76,3.45,3.45,0,0,1,2.25-.72,3.53,3.53,0,0,1,2.33.74,2.35,2.35,0,0,1,.9,1.9h-1.46a1.32,1.32,0,0,0-.5-1,1.9,1.9,0,0,0-1.27-.43,1.94,1.94,0,0,0-1.23.34,1.08,1.08,0,0,0-.45.9.89.89,0,0,0,.41.79,5.18,5.18,0,0,0,1.5.51,7.94,7.94,0,0,1,1.76.58,2.61,2.61,0,0,1,1,.81,1.94,1.94,0,0,1,.33,1.15,2.19,2.19,0,0,1-.91,1.82,3.83,3.83,0,0,1-2.35.68,4.27,4.27,0,0,1-1.8-.36,3,3,0,0,1-1.23-1,2.46,2.46,0,0,1-.43-1.4h1.44a1.53,1.53,0,0,0,.58,1.16,2.28,2.28,0,0,0,1.44.42,2.34,2.34,0,0,0,1.31-.33,1,1,0,0,0,.54-.91Zm9.26-8.26v2h1.58v1.12h-1.59v5.24a1.19,1.19,0,0,0,.21.77.9.9,0,0,0,.72.25,3.45,3.45,0,0,0,.68-.09V167a4.12,4.12,0,0,1-1.1.16,1.81,1.81,0,0,1-1.47-.59,2.56,2.56,0,0,1-.49-1.66v-5.24h-1.55v-1.12h1.54v-2Zm2.73,6.2a4.93,4.93,0,0,1,.49-2.23,3.61,3.61,0,0,1,1.36-1.53,3.69,3.69,0,0,1,2-.54,3.56,3.56,0,0,1,2.79,1.19,4.61,4.61,0,0,1,1.07,3.18v.1a5,5,0,0,1-.48,2.22,3.53,3.53,0,0,1-1.35,1.52,3.73,3.73,0,0,1-2,.55A3.59,3.59,0,0,1,1003,166a4.63,4.63,0,0,1-1.06-3.16Zm1.46.17a3.65,3.65,0,0,0,.64,2.26,2.1,2.1,0,0,0,1.75.85,2.07,2.07,0,0,0,1.75-.86,3.92,3.92,0,0,0,.65-2.42,3.59,3.59,0,0,0-.66-2.25,2.19,2.19,0,0,0-3.48,0,3.91,3.91,0,0,0-.65,2.42Zm17.24,4.13a3,3,0,0,1-.21-.89,3.21,3.21,0,0,1-2.4,1,3,3,0,0,1-2.06-.7,2.3,2.3,0,0,1-.79-1.8,2.38,2.38,0,0,1,1-2,4.71,4.71,0,0,1,2.82-.73h1.41v-.66a1.62,1.62,0,0,0-.45-1.2,1.82,1.82,0,0,0-1.34-.45,2.13,2.13,0,0,0-1.3.39,1.17,1.17,0,0,0-.52.95h-1.45a2,2,0,0,1,.44-1.22,3.16,3.16,0,0,1,1.22-.94,4.15,4.15,0,0,1,1.7-.34,3.35,3.35,0,0,1,2.29.73,2.63,2.63,0,0,1,.86,2V165a4.93,4.93,0,0,0,.29,1.85V167Zm-2.4-1.1a2.56,2.56,0,0,0,1.29-.35,2.15,2.15,0,0,0,.88-.91V162.9h-1.13c-1.77,0-2.66.52-2.66,1.56a1.3,1.3,0,0,0,.46,1.06,1.73,1.73,0,0,0,1.12.38Zm9.27.08a2.06,2.06,0,0,0,1.35-.47,1.63,1.63,0,0,0,.64-1.17h1.37a2.55,2.55,0,0,1-.5,1.38,3.35,3.35,0,0,1-1.23,1,3.77,3.77,0,0,1-4.38-.76,4.65,4.65,0,0,1-1-3.16v-.24a5.12,5.12,0,0,1,.45-2.19,3.4,3.4,0,0,1,1.3-1.49,3.67,3.67,0,0,1,2-.53,3.36,3.36,0,0,1,2.36.85,3,3,0,0,1,1,2.21h-1.37a2,2,0,0,0-.62-1.34,1.92,1.92,0,0,0-1.38-.53,2,2,0,0,0-1.71.8,3.73,3.73,0,0,0-.6,2.29v.27a3.66,3.66,0,0,0,.6,2.25,2,2,0,0,0,1.72.85Zm6.95-9.48v2H1036v1.12h-1.58v5.24a1.19,1.19,0,0,0,.21.77.9.9,0,0,0,.72.25,3.63,3.63,0,0,0,.69-.09V167a4.31,4.31,0,0,1-1.11.16,1.81,1.81,0,0,1-1.47-.59,2.56,2.56,0,0,1-.49-1.66v-5.24h-1.54v-1.12H1033v-2Zm4.84,10.5h-1.44v-8.45h1.44Zm-1.56-10.7a.87.87,0,0,1,.21-.59.82.82,0,0,1,.64-.24.81.81,0,0,1,.64.24.83.83,0,0,1,.22.59.81.81,0,0,1-.22.59.83.83,0,0,1-.64.23.77.77,0,0,1-.85-.82Zm3.5,6.39a5.06,5.06,0,0,1,.48-2.23,3.67,3.67,0,0,1,1.36-1.53,3.75,3.75,0,0,1,2-.54,3.52,3.52,0,0,1,2.78,1.19,4.56,4.56,0,0,1,1.07,3.18v.1a5,5,0,0,1-.47,2.22,3.59,3.59,0,0,1-1.35,1.52,3.75,3.75,0,0,1-2,.55,3.57,3.57,0,0,1-2.79-1.2,4.58,4.58,0,0,1-1.06-3.16Zm1.45.17a3.65,3.65,0,0,0,.65,2.26,2.22,2.22,0,0,0,3.5,0,4,4,0,0,0,.65-2.42,3.54,3.54,0,0,0-.67-2.25,2.18,2.18,0,0,0-3.47,0,3.91,3.91,0,0,0-.66,2.42Zm9.42-4.32v1.06a3.09,3.09,0,0,1,2.53-1.22c1.79,0,2.69,1,2.71,3V167h-1.45v-5.59a2,2,0,0,0-.42-1.35,1.67,1.67,0,0,0-1.28-.44,2.08,2.08,0,0,0-1.23.38,2.6,2.6,0,0,0-.83,1v6h-1.44v-8.45Z" transform="translate(0 -6)"/><path d="M503.61,160.2H501l-.89,4.8h-2l.89-4.8h-2.71v-1.85h3.06l.68-3.67H497.2v-1.86h3.2l.91-4.87h2l-.91,4.87H505l.91-4.87h2l-.91,4.87h2.44v1.86h-2.79l-.68,3.67h2.59v1.85h-2.94l-.89,4.8h-2Zm-2.27-1.85H504l.68-3.67H502Zm9.74,6.65V147.94h5.85a7.14,7.14,0,0,1,4.41,1.16,4.08,4.08,0,0,1,1.51,3.46,3.68,3.68,0,0,1-.63,2.11,4.07,4.07,0,0,1-1.85,1.45,3.73,3.73,0,0,1,2.13,1.42,4.07,4.07,0,0,1,.76,2.49,4.53,4.53,0,0,1-1.55,3.69A6.68,6.68,0,0,1,517.3,165Zm3-7.7v5.33h3.29a3.19,3.19,0,0,0,2.18-.69,2.73,2.73,0,0,0-1.93-4.64Zm0-2.18H517a3.36,3.36,0,0,0,2.16-.62,2.53,2.53,0,0,0,.09-3.58h0a3.61,3.61,0,0,0-2.24-.56h-2.88Zm24.72,4.32a6.18,6.18,0,0,1-2,4.27,6.89,6.89,0,0,1-4.67,1.52,6.71,6.71,0,0,1-3.6-1,6.4,6.4,0,0,1-2.39-2.75,9.94,9.94,0,0,1-.88-4.14v-1.59a10,10,0,0,1,.86-4.25,6.46,6.46,0,0,1,2.45-2.84,6.88,6.88,0,0,1,3.7-1,6.58,6.58,0,0,1,4.55,1.54,6.41,6.41,0,0,1,2,4.34h-3a4.17,4.17,0,0,0-1.08-2.65,4,4,0,0,0-5.5.6,7.06,7.06,0,0,0-1.06,4.14v1.51a7.52,7.52,0,0,0,1,4.22,3.3,3.3,0,0,0,2.91,1.45,3.84,3.84,0,0,0,2.63-.78,4.1,4.1,0,0,0,1.11-2.61Zm12.84-1.63a9.3,9.3,0,0,1-1.38,5.56,4.85,4.85,0,0,1-4.18,1.86,5,5,0,0,1-4.17-1.82,9,9,0,0,1-1.43-5.4v-3a9.2,9.2,0,0,1,1.37-5.52,5.74,5.74,0,0,1,8.11-.27l.27.27a8.85,8.85,0,0,1,1.42,5.37Zm-2.85-3.19a7.18,7.18,0,0,0-.66-3.52A2.5,2.5,0,0,0,544,151a6.63,6.63,0,0,0-.69,3.3v3.87a7.41,7.41,0,0,0,.67,3.56,2.24,2.24,0,0,0,2.1,1.17,2.21,2.21,0,0,0,2-1.08,7,7,0,0,0,.69-3.4ZM554.1,165V147.94h5.85a7.14,7.14,0,0,1,4.41,1.16,4.09,4.09,0,0,1,1.51,3.46,3.69,3.69,0,0,1-.63,2.11,4.07,4.07,0,0,1-1.85,1.45,3.73,3.73,0,0,1,2.13,1.42,4.07,4.07,0,0,1,.76,2.49,4.53,4.53,0,0,1-1.55,3.69,6.68,6.68,0,0,1-4.41,1.29Zm3-7.7v5.33h3.29a3.19,3.19,0,0,0,2.18-.69,2.73,2.73,0,0,0-1.93-4.64Zm0-2.18H560a3.36,3.36,0,0,0,2.16-.62,2.53,2.53,0,0,0,.09-3.58h0a3.61,3.61,0,0,0-2.24-.56h-2.88Zm22.59-5.6L572.84,165h-3l6.81-14.78h-8.82v-2.29h11.82Zm2.57,7,.92-8.6h9.17v2.46h-6.8l-.47,4.08a5.26,5.26,0,0,1,2.67-.68,4.73,4.73,0,0,1,3.78,1.56,6.16,6.16,0,0,1,1.36,4.2,5.7,5.7,0,0,1-1.5,4.15,5.48,5.48,0,0,1-4.11,1.53,5.77,5.77,0,0,1-3.89-1.32,4.84,4.84,0,0,1-1.66-3.51h2.75a3,3,0,0,0,.89,1.91,2.72,2.72,0,0,0,1.9.66,2.43,2.43,0,0,0,2-.94,4,4,0,0,0,.74-2.55,3.55,3.55,0,0,0-.83-2.47,2.82,2.82,0,0,0-2.23-.91,3.16,3.16,0,0,0-2.48,1Z" transform="translate(0 -6)"/><path d="M9.26,110v12h-7V87.88H15.57a15.33,15.33,0,0,1,6.75,1.41,10.33,10.33,0,0,1,4.5,4,11.08,11.08,0,0,1,1.57,5.88,9.82,9.82,0,0,1-3.45,7.92Q21.52,110,15.45,110Zm0-5.7h6.28a6.13,6.13,0,0,0,4.24-1.3,4.76,4.76,0,0,0,1.48-3.75,5.63,5.63,0,0,0-1.48-4.05,5.52,5.52,0,0,0-4.08-1.59H9.26Zm35.63,5.23h-5.6V122h-7V87.88H45q6,0,9.33,2.7a9.3,9.3,0,0,1,3.28,7.62,10.49,10.49,0,0,1-1.55,5.8,10.27,10.27,0,0,1-4.57,3.7l7.38,13.94V122H51.28Zm-5.6-5.7H45a5.84,5.84,0,0,0,4.1-1.33,4.86,4.86,0,0,0,1.45-3.73A5.13,5.13,0,0,0,49.13,95a5.65,5.65,0,0,0-4.19-1.38H39.28ZM69.42,122h-7V87.88h7ZM84.18,87.88l8.76,24.75,8.72-24.75h9.23V122h-7.05v-9.33l.7-16.1L95.35,122H90.52L81.33,96.59l.7,16.08V122H75V87.88ZM135.78,115H123.45l-2.34,7h-7.48l12.7-34.12h6.52L145.62,122h-7.44Zm-10.43-5.7h8.53l-4.29-12.77Zm35.13.24h-5.6V122h-7V87.88h12.68q6,0,9.33,2.7a9.3,9.3,0,0,1,3.28,7.62,10.49,10.49,0,0,1-1.52,5.83,10.26,10.26,0,0,1-4.57,3.7l7.38,13.94V122h-7.58Zm-5.6-5.7h5.67a5.84,5.84,0,0,0,4.1-1.33,4.86,4.86,0,0,0,1.45-3.73,5.13,5.13,0,0,0-1.38-3.8,5.66,5.66,0,0,0-4.2-1.38h-5.64Zm33.31-.56,7.1-15.37H203l-11.2,21.75V122h-7.15V109.63l-11.2-21.75h7.75Z" transform="translate(0 -6)"/><path d="M19.92,477a3.58,3.58,0,0,0-1.41-3,18,18,0,0,0-5.06-2.25,36.5,36.5,0,0,1-5.79-2.34Q1.85,466.27,1.85,461a8.24,8.24,0,0,1,1.55-5,10.22,10.22,0,0,1,4.48-3.4,16.93,16.93,0,0,1,6.56-1.22A15.23,15.23,0,0,1,21,452.72a10.21,10.21,0,0,1,4.43,3.73A9.72,9.72,0,0,1,27,462H20a4.57,4.57,0,0,0-1.48-3.63,6,6,0,0,0-4.15-1.31,6.44,6.44,0,0,0-4,1.1A3.41,3.41,0,0,0,8.88,461a3.3,3.3,0,0,0,1.66,2.79,19.16,19.16,0,0,0,4.94,2.11q6,1.8,8.74,4.48A8.91,8.91,0,0,1,27,477a8.24,8.24,0,0,1-3.35,7q-3.35,2.51-9,2.51a17.55,17.55,0,0,1-7.17-1.43,11.51,11.51,0,0,1-4.95-4,10.16,10.16,0,0,1-1.69-5.81h7q0,5.65,6.75,5.65a6.62,6.62,0,0,0,3.91-1A3.35,3.35,0,0,0,19.92,477Zm31.41-5.84H37.83v9.14H53.67V486H30.8V451.88H53.63v5.7H37.83v8.13h13.5Zm32.3,3.42a12.06,12.06,0,0,1-4.08,8.67q-3.66,3.16-9.66,3.16A12.9,12.9,0,0,1,59.55,482q-3.78-4.41-3.75-12.14v-2.09a20.46,20.46,0,0,1,1.73-8.67,13,13,0,0,1,5-5.74,15.47,15.47,0,0,1,17,1.15,13,13,0,0,1,4.17,8.88h-7a7,7,0,0,0-1.85-4.78,6.73,6.73,0,0,0-4.8-1.5,6,6,0,0,0-5.27,2.53q-1.73,2.51-1.78,7.8V470q0,5.53,1.66,8.09a5.89,5.89,0,0,0,5.3,2.55,6.93,6.93,0,0,0,4.85-1.48,6.73,6.73,0,0,0,1.85-4.62Zm31.69-4.92a20.59,20.59,0,0,1-1.78,8.84,13.38,13.38,0,0,1-5.11,5.86,14,14,0,0,1-7.59,2.06,14.2,14.2,0,0,1-7.57-2,13.56,13.56,0,0,1-5.16-5.81,20.09,20.09,0,0,1-1.85-8.72V468.2a20.53,20.53,0,0,1,1.81-8.86,13.53,13.53,0,0,1,5.13-5.88,15,15,0,0,1,15.16,0,13.35,13.35,0,0,1,5.13,5.88,20.25,20.25,0,0,1,1.83,8.84Zm-7.14-1.5q0-5.37-1.92-8.16a6.78,6.78,0,0,0-10.95,0q-1.92,2.74-1.95,8.06v1.66q0,5.23,1.92,8.11a6.74,6.74,0,0,0,11,.12q1.9-2.79,1.92-8.11Zm39,17.84h-7l-13.69-22.45V486h-7V451.88h7l13.69,22.5v-22.5h7Zm5.18,0V451.88h10.5a15.81,15.81,0,0,1,8,2,14,14,0,0,1,5.55,5.77,17.71,17.71,0,0,1,2,8.48v1.57a17.75,17.75,0,0,1-2,8.46,13.94,13.94,0,0,1-5.51,5.74,16.07,16.07,0,0,1-8,2.06Zm7-28.43v22.78h3.4a7.64,7.64,0,0,0,6.31-2.7q2.18-2.7,2.23-7.71v-1.8q0-5.2-2.16-7.87a7.59,7.59,0,0,0-6.3-2.7Zm42,21.4H189.08l-2.34,7h-7.48L192,451.85h6.52L211.25,486h-7.48Zm-10.43-5.7h8.53l-4.28-12.77Zm35.13.23h-5.6V486h-7V451.88h12.72q6,0,9.33,2.7a9.3,9.3,0,0,1,3.28,7.62,10.49,10.49,0,0,1-1.52,5.84,10.26,10.26,0,0,1-4.57,3.7l7.38,14V486h-7.55Zm-5.6-5.7h5.72a5.84,5.84,0,0,0,4.1-1.34,4.86,4.86,0,0,0,1.45-3.73,5.13,5.13,0,0,0-1.38-3.8,5.66,5.66,0,0,0-4.2-1.38H220.5Zm33.31-.56,7.1-15.37h7.69l-11.2,21.75V486h-7.15V473.63L239,451.88h7.71Z" transform="translate(0 -6)"/><path d="M2.18,850V815.88h10.5a15.81,15.81,0,0,1,8,2,14,14,0,0,1,5.56,5.77,17.71,17.71,0,0,1,2,8.48v1.57a17.74,17.74,0,0,1-2,8.46,13.94,13.94,0,0,1-5.51,5.74,16.07,16.07,0,0,1-8,2.06Zm7-28.43v22.78h3.4a7.63,7.63,0,0,0,6.3-2.7q2.3-2.65,2.3-7.7v-1.8q0-5.2-2.16-7.87a7.6,7.6,0,0,0-6.31-2.7Zm42,21.4H38.91l-2.34,7H29.09l12.7-34.12h6.52L61.08,850H53.6Zm-10.43-5.7h8.53L45,824.5Zm35.13.23h-5.6V850h-7V815.88H76q6,0,9.33,2.7a9.3,9.3,0,0,1,3.28,7.62A10.5,10.5,0,0,1,87,832a10.27,10.27,0,0,1-4.57,3.7l7.38,14v.3h-7.5Zm-5.6-5.7H76a5.84,5.84,0,0,0,4.1-1.34,4.86,4.86,0,0,0,1.45-3.73A5.13,5.13,0,0,0,80.18,823,5.66,5.66,0,0,0,76,821.62H70.34Zm33.35,4.5L100,840.24V850H93V815.88h7v15.47l3.09-4.24,8.7-11.23h8.65L108.36,831l12.47,19h-8.37Z" transform="translate(0 -6)"/><path d="M28.81,1120.16l4.59-24.28h7L32.84,1130H25.76l-5.58-22.83L14.65,1130H7.57L0,1095.88H7l4.62,24.23,5.63-24.23h6ZM71.05,1130h-7v-14.62H50.3V1130h-7v-34.12h7v13.82H64v-13.82h7Zm12.68,0h-7v-34.12h7Zm30.56-28.43H103.83V1130h-7v-28.43H86.49v-5.69h27.8Zm23.6,13.64h-13.5v9.14h15.84V1130H117.36v-34.12h22.82v5.69h-15.8v8.13h13.5Z" transform="translate(0 -6)"/></svg>