<svg id="Livello_1" data-name="Livello 1" xmlns="http://www.w3.org/2000/svg" viewBox="0 0 2185.95 1214"><title>color-system</title><rect x="1680.18" width="200" height="200" rx="30" ry="30" style="fill:#f0454e"/><path d="M1845,237.23a5.91,5.91,0,0,1-4.39-1.7A6.21,6.21,0,0,1,1839,231v-.35a7.55,7.55,0,0,1,.73-3.39,5.61,5.61,0,0,1,2.06-2.33,5.43,5.43,0,0,1,2.95-.83,5,5,0,0,1,4,1.65,6.94,6.94,0,0,1,1.42,4.68v1.15h-8.29a3.85,3.85,0,0,0,1.05,2.49,3.16,3.16,0,0,0,2.32.91,3.85,3.85,0,0,0,3.18-1.58l1.54,1.46a5.19,5.19,0,0,1-2,1.77A6.36,6.36,0,0,1,1845,237.23Zm-.34-10.86a2.43,2.43,0,0,0-1.9.82,4.31,4.31,0,0,0-.91,2.29h5.43v-.21a3.45,3.45,0,0,0-.77-2.16A2.36,2.36,0,0,0,1844.7,226.37Zm13.81.55a7,7,0,0,0-1.16-.09,2.61,2.61,0,0,0-2.64,1.5V237h-2.85V224.32h2.72l.07,1.42a3.21,3.21,0,0,1,2.86-1.65,2.69,2.69,0,0,1,1,.16Zm8,0a7.11,7.11,0,0,0-1.16-.09,2.61,2.61,0,0,0-2.64,1.5V237h-2.85V224.32h2.72l.07,1.42a3.21,3.21,0,0,1,2.86-1.65,2.69,2.69,0,0,1,1,.16Zm.36,3.62a7.47,7.47,0,0,1,.74-3.35,5.33,5.33,0,0,1,2.07-2.3,5.82,5.82,0,0,1,3.07-.81,5.52,5.52,0,0,1,4.16,1.65,6.51,6.51,0,0,1,1.74,4.38v.67a7.42,7.42,0,0,1-.73,3.35,5.23,5.23,0,0,1-2.06,2.28,5.85,5.85,0,0,1-3.09.81,5.55,5.55,0,0,1-4.31-1.78,6.88,6.88,0,0,1-1.6-4.77Zm2.85.25a5.13,5.13,0,0,0,.81,3.07,2.61,2.61,0,0,0,2.25,1.1,2.57,2.57,0,0,0,2.23-1.12,5.6,5.6,0,0,0,.81-3.29,5,5,0,0,0-.83-3,2.62,2.62,0,0,0-2.24-1.12,2.59,2.59,0,0,0-2.21,1.11A5.49,5.49,0,0,0,1869.68,230.79Zm17.51-3.87a7.11,7.11,0,0,0-1.16-.09,2.61,2.61,0,0,0-2.64,1.5V237h-2.85V224.32h2.72l.07,1.42a3.21,3.21,0,0,1,2.86-1.65,2.69,2.69,0,0,1,1,.16Z" transform="translate(-142.82 -56)"/><path d="M2190,159.2h-3.09l-.94,4.8h-1.67l.94-4.8h-2.81v-1.61h3.11l.81-4.15h-3v-1.63h3.33l1-4.87h1.67l-1,4.87h3.09l1-4.87H2194l-1,4.87h2.39v1.63h-2.7l-.81,4.15h2.63v1.61h-2.94l-.94,4.8H2189Zm-2.78-1.61h3.09l.81-4.15H2188Zm10.59,6.41V146.94h5.58a6.45,6.45,0,0,1,4.17,1.15,4.13,4.13,0,0,1,1.41,3.4,3.51,3.51,0,0,1-.68,2.12,4.43,4.43,0,0,1-1.86,1.42,3.89,3.89,0,0,1,2.18,1.48,4.17,4.17,0,0,1,.81,2.58,4.54,4.54,0,0,1-1.49,3.61,6.14,6.14,0,0,1-4.2,1.31Zm2.25-8v6.14h3.71a3.58,3.58,0,0,0,2.48-.81,2.86,2.86,0,0,0,.91-2.25q0-3.08-3.35-3.08Zm0-1.81h3.4a3.53,3.53,0,0,0,2.35-.74,2.45,2.45,0,0,0,.89-2,2.4,2.4,0,0,0-.82-2,4,4,0,0,0-2.49-.65H2200Zm13.14,1.23.86-8.51h8.75v2h-6.91l-.51,4.65a5.48,5.48,0,0,1,2.85-.74,4.71,4.71,0,0,1,3.7,1.55,6,6,0,0,1,1.37,4.16,5.85,5.85,0,0,1-1.43,4.16,5.19,5.19,0,0,1-4,1.51,5.38,5.38,0,0,1-3.69-1.25,5,5,0,0,1-1.63-3.47h2.05a3.47,3.47,0,0,0,1,2.22,3.27,3.27,0,0,0,2.23.74,2.89,2.89,0,0,0,2.36-1,4.28,4.28,0,0,0,.87-2.85,3.9,3.9,0,0,0-.94-2.74,3.13,3.13,0,0,0-2.47-1,3.6,3.6,0,0,0-2.23.62l-.57.47Zm21.63,2.82h2.37V160h-2.37v4h-2.18v-4h-7.77v-1.28l7.64-11.82h2.31Zm-7.49,0h5.31V149.9l-.26.47Zm22.83-10.11L2243.06,164h-2.27l7-15.28h-9.23v-1.78h11.53Zm11.61,10.11h2.37V160h-2.37v4h-2.18v-4h-7.77v-1.28l7.64-11.82h2.31Zm-7.49,0h5.31V149.9l-.26.47Zm24.93.32a6.3,6.3,0,0,1-2,4.18,6.56,6.56,0,0,1-4.47,1.46,6,6,0,0,1-4.85-2.17,8.74,8.74,0,0,1-1.82-5.8v-1.64a9.68,9.68,0,0,1,.85-4.18,6.33,6.33,0,0,1,2.41-2.76,6.67,6.67,0,0,1,3.61-1,6.15,6.15,0,0,1,4.36,1.52,6.34,6.34,0,0,1,1.91,4.19h-2.26a4.86,4.86,0,0,0-1.28-3,3.83,3.83,0,0,0-2.73-.91,4,4,0,0,0-3.39,1.59,7.36,7.36,0,0,0-1.22,4.54v1.65a7.54,7.54,0,0,0,1.16,4.42,3.76,3.76,0,0,0,3.25,1.64,4.32,4.32,0,0,0,2.87-.84,4.74,4.74,0,0,0,1.34-3Z" transform="translate(-142.82 -56)"/><path d="M2185.6,189.16a3.72,3.72,0,0,1-2.8-1.12,4.24,4.24,0,0,1-1.07-3v-.27a5.19,5.19,0,0,1,.47-2.24,3.77,3.77,0,0,1,1.35-1.55,3.35,3.35,0,0,1,1.87-.56,3.15,3.15,0,0,1,2.56,1.09,4.7,4.7,0,0,1,.92,3.11v.6h-5.73a3,3,0,0,0,.73,2,2.31,2.31,0,0,0,1.78.77,2.55,2.55,0,0,0,1.3-.31,3.37,3.37,0,0,0,.93-.83l.88.69A3.55,3.55,0,0,1,2185.6,189.16Zm-.18-7.58a1.94,1.94,0,0,0-1.47.64,3.09,3.09,0,0,0-.73,1.78h4.23v-.11a2.75,2.75,0,0,0-.59-1.7A1.8,1.8,0,0,0,2185.42,181.58Zm9.24.27a4.15,4.15,0,0,0-.71-.05A1.91,1.91,0,0,0,2192,183v6h-1.44v-8.45h1.4l0,1a2.24,2.24,0,0,1,2-1.13,1.46,1.46,0,0,1,.64.11Zm5.43,0a4.32,4.32,0,0,0-.71-.05,1.9,1.9,0,0,0-1.93,1.21v6H2196v-8.45h1.41l0,1a2.25,2.25,0,0,1,2-1.13,1.49,1.49,0,0,1,.64.11Zm.79,2.85a4.93,4.93,0,0,1,.49-2.23,3.59,3.59,0,0,1,3.35-2.07,3.56,3.56,0,0,1,2.79,1.19,4.61,4.61,0,0,1,1.07,3.18v.1a5,5,0,0,1-.48,2.22,3.53,3.53,0,0,1-1.35,1.52,3.73,3.73,0,0,1-2,.55,3.55,3.55,0,0,1-2.78-1.2,4.58,4.58,0,0,1-1.07-3.16Zm1.46.17a3.65,3.65,0,0,0,.64,2.26,2.11,2.11,0,0,0,1.75.85,2.07,2.07,0,0,0,1.75-.86,3.92,3.92,0,0,0,.65-2.42,3.59,3.59,0,0,0-.66-2.25,2.19,2.19,0,0,0-3.48,0A3.91,3.91,0,0,0,2202.34,184.87Zm12.14-3a4.32,4.32,0,0,0-.71-.05,1.9,1.9,0,0,0-1.93,1.21v6h-1.45v-8.45h1.41l0,1a2.25,2.25,0,0,1,2-1.13,1.49,1.49,0,0,1,.64.11Z" transform="translate(-142.82 -56)"/><path d="M2189.25,212.87a5.07,5.07,0,0,1-.89,3.12,2.84,2.84,0,0,1-2.39,1.17,3,3,0,0,1-2.48-1.13l-.07,1h-1.33V205h1.45v4.48a2.93,2.93,0,0,1,2.41-1.09,2.87,2.87,0,0,1,2.42,1.16,5.15,5.15,0,0,1,.88,3.19Zm-1.45-.16a3.91,3.91,0,0,0-.57-2.28,1.88,1.88,0,0,0-1.64-.8,2.12,2.12,0,0,0-2.05,1.33v3.66a2.18,2.18,0,0,0,2.07,1.33,1.89,1.89,0,0,0,1.62-.8A4.2,4.2,0,0,0,2187.8,212.7Zm8.5,3.46a3.08,3.08,0,0,1-2.48,1,2.64,2.64,0,0,1-2.06-.78,3.39,3.39,0,0,1-.71-2.33v-5.5h1.44V214q0,1.92,1.56,1.92a2.17,2.17,0,0,0,2.21-1.23v-6.15h1.44V217h-1.37Zm5.57-9.66v2h1.58v1.12h-1.58v5.24a1.19,1.19,0,0,0,.21.77.89.89,0,0,0,.72.25,3.45,3.45,0,0,0,.68-.09V217a4.18,4.18,0,0,1-1.1.16,1.82,1.82,0,0,1-1.47-.59,2.56,2.56,0,0,1-.49-1.66v-5.24h-1.54v-1.12h1.54v-2Zm5.23,0v2h1.58v1.12h-1.58v5.24a1.19,1.19,0,0,0,.21.77.89.89,0,0,0,.72.25,3.44,3.44,0,0,0,.69-.09V217a4.2,4.2,0,0,1-1.11.16,1.79,1.79,0,0,1-1.46-.59,2.51,2.51,0,0,1-.49-1.66v-5.24h-1.54v-1.12h1.54v-2Zm2.74,6.2a5.06,5.06,0,0,1,.48-2.23,3.67,3.67,0,0,1,1.36-1.53,3.71,3.71,0,0,1,2-.54,3.56,3.56,0,0,1,2.79,1.19,4.61,4.61,0,0,1,1.07,3.18v.1a5,5,0,0,1-.48,2.22,3.53,3.53,0,0,1-1.35,1.52,3.69,3.69,0,0,1-2,.55,3.56,3.56,0,0,1-2.79-1.2,4.58,4.58,0,0,1-1.06-3.16Zm1.45.17a3.65,3.65,0,0,0,.65,2.26,2.22,2.22,0,0,0,3.5,0,4,4,0,0,0,.65-2.42,3.6,3.6,0,0,0-.67-2.25,2.09,2.09,0,0,0-1.75-.87,2.06,2.06,0,0,0-1.72.85A3.91,3.91,0,0,0,2211.29,212.87Zm9.42-4.32.05,1.06a3.07,3.07,0,0,1,2.53-1.22q2.69,0,2.7,3V217h-1.44v-5.59a1.94,1.94,0,0,0-.43-1.35,1.65,1.65,0,0,0-1.27-.44,2.06,2.06,0,0,0-1.23.38,2.51,2.51,0,0,0-.83,1v6h-1.45v-8.45Zm12.38,6.21a1,1,0,0,0-.44-.91,4.17,4.17,0,0,0-1.54-.56,7.31,7.31,0,0,1-1.74-.56,2.54,2.54,0,0,1-1-.78,1.91,1.91,0,0,1-.3-1.08,2.2,2.2,0,0,1,.87-1.76,3.45,3.45,0,0,1,2.25-.72,3.51,3.51,0,0,1,2.33.74,2.35,2.35,0,0,1,.9,1.9H2233a1.3,1.3,0,0,0-.51-1,1.88,1.88,0,0,0-1.27-.43,2,2,0,0,0-1.23.34,1.08,1.08,0,0,0-.45.9.87.87,0,0,0,.42.79,5,5,0,0,0,1.49.51,7.94,7.94,0,0,1,1.76.58,2.46,2.46,0,0,1,1,.81,1.94,1.94,0,0,1,.33,1.15,2.16,2.16,0,0,1-.91,1.82,3.81,3.81,0,0,1-2.35.68,4.3,4.3,0,0,1-1.8-.36,2.91,2.91,0,0,1-1.22-1,2.47,2.47,0,0,1-.44-1.4h1.45a1.49,1.49,0,0,0,.57,1.16,2.72,2.72,0,0,0,2.75.09A1,1,0,0,0,2233.09,214.76Zm10.31-2h-3.81v-1.18h3.81Zm6.09,4.24v-7.34h-1.33v-1.12h1.33v-.87a2.86,2.86,0,0,1,.73-2.1,2.73,2.73,0,0,1,2.05-.74,3.81,3.81,0,0,1,1,.13l-.08,1.17a4.21,4.21,0,0,0-.78-.07,1.42,1.42,0,0,0-1.09.41,1.67,1.67,0,0,0-.38,1.17v.89h1.8v1.12h-1.8V217Zm4.47-4.3a4.93,4.93,0,0,1,.49-2.23,3.65,3.65,0,0,1,1.35-1.53,3.75,3.75,0,0,1,2-.54,3.56,3.56,0,0,1,2.79,1.19,4.61,4.61,0,0,1,1.07,3.18v.1a5,5,0,0,1-.48,2.22,3.53,3.53,0,0,1-1.35,1.52,3.75,3.75,0,0,1-2,.55A3.59,3.59,0,0,1,2255,216a4.63,4.63,0,0,1-1.06-3.16Zm1.45.17a3.65,3.65,0,0,0,.65,2.26,2.1,2.1,0,0,0,1.75.85,2.07,2.07,0,0,0,1.75-.86,4,4,0,0,0,.65-2.42,3.59,3.59,0,0,0-.66-2.25,2.19,2.19,0,0,0-3.48,0A3.91,3.91,0,0,0,2255.41,212.87Zm12.14-3a4.15,4.15,0,0,0-.71-.05,1.91,1.91,0,0,0-1.93,1.21v6h-1.44v-8.45h1.41l0,1a2.24,2.24,0,0,1,2-1.13,1.43,1.43,0,0,1,.64.11Zm2.7-1.3,0,.94a3.12,3.12,0,0,1,2.51-1.09,2.42,2.42,0,0,1,2.41,1.36,3.27,3.27,0,0,1,1.09-1,3.3,3.3,0,0,1,1.61-.37q2.78,0,2.82,2.94V217h-1.44v-5.58a2,2,0,0,0-.41-1.35,1.83,1.83,0,0,0-1.4-.45,1.9,1.9,0,0,0-1.33.49,1.92,1.92,0,0,0-.62,1.29V217h-1.45v-5.54a1.61,1.61,0,0,0-1.81-1.84,1.93,1.93,0,0,0-1.94,1.21V217h-1.45v-8.45Zm17.59,6.21a1,1,0,0,0-.44-.91,4.17,4.17,0,0,0-1.54-.56,7.31,7.31,0,0,1-1.74-.56,2.54,2.54,0,0,1-1-.78,1.91,1.91,0,0,1-.3-1.08,2.2,2.2,0,0,1,.87-1.76,3.45,3.45,0,0,1,2.25-.72,3.51,3.51,0,0,1,2.33.74,2.35,2.35,0,0,1,.9,1.9h-1.45a1.3,1.3,0,0,0-.51-1,1.88,1.88,0,0,0-1.27-.43,2,2,0,0,0-1.23.34,1.08,1.08,0,0,0-.45.9.87.87,0,0,0,.42.79,5,5,0,0,0,1.49.51,7.94,7.94,0,0,1,1.76.58,2.46,2.46,0,0,1,1,.81,1.94,1.94,0,0,1,.33,1.15,2.16,2.16,0,0,1-.91,1.82,3.81,3.81,0,0,1-2.35.68,4.3,4.3,0,0,1-1.8-.36,2.91,2.91,0,0,1-1.22-1,2.47,2.47,0,0,1-.44-1.4H2284a1.49,1.49,0,0,0,.57,1.16,2.72,2.72,0,0,0,2.75.09A1,1,0,0,0,2287.84,214.76Zm10.31-2h-3.81v-1.18h3.81Zm7.34-6.26v2h1.58v1.12h-1.58v5.24a1.19,1.19,0,0,0,.21.77.9.9,0,0,0,.72.25,3.44,3.44,0,0,0,.69-.09V217a4.2,4.2,0,0,1-1.11.16,1.79,1.79,0,0,1-1.46-.59,2.5,2.5,0,0,1-.49-1.66v-5.24h-1.54v-1.12h1.54v-2Zm6.78,10.66a3.7,3.7,0,0,1-2.79-1.12,4.2,4.2,0,0,1-1.08-3v-.27a5.05,5.05,0,0,1,.48-2.24,3.75,3.75,0,0,1,1.34-1.55,3.37,3.37,0,0,1,1.87-.56,3.18,3.18,0,0,1,2.57,1.09,4.7,4.7,0,0,1,.91,3.11v.6h-5.73a3,3,0,0,0,.73,2,2.31,2.31,0,0,0,1.78.77,2.55,2.55,0,0,0,1.3-.31,3.37,3.37,0,0,0,.93-.83l.88.69A3.55,3.55,0,0,1,2312.27,217.16Zm-.18-7.58a1.94,1.94,0,0,0-1.47.64,3.08,3.08,0,0,0-.73,1.78h4.23v-.11a2.69,2.69,0,0,0-.59-1.7A1.8,1.8,0,0,0,2312.09,209.58Zm8,2.05,1.87-3.09h1.69l-2.77,4.18,2.85,4.27h-1.67l-1.95-3.16-2,3.16h-1.68l2.85-4.27-2.77-4.18h1.67Zm7.06-5.13v2h1.58v1.12h-1.58v5.24a1.19,1.19,0,0,0,.21.77.89.89,0,0,0,.72.25,3.63,3.63,0,0,0,.69-.09V217a4.2,4.2,0,0,1-1.11.16,1.78,1.78,0,0,1-1.46-.59,2.51,2.51,0,0,1-.5-1.66v-5.24h-1.54v-1.12h1.54v-2Z" transform="translate(-142.82 -56)"/><path d="M1847.43,210.2h-2.63l-.89,4.8h-2l.89-4.8h-2.71v-1.85h3.06l.68-3.67H1841v-1.86h3.19l.92-4.87h2l-.92,4.87h2.64l.91-4.87h2l-.91,4.87h2.43v1.86h-2.79l-.68,3.67h2.59v1.85h-2.94l-.89,4.8h-1.95Zm-2.28-1.85h2.63l.68-3.67h-2.63Zm9.75,6.66V197.94h5.85a7.15,7.15,0,0,1,4.41,1.16,4.1,4.1,0,0,1,1.51,3.46,3.7,3.7,0,0,1-.63,2.11,4.1,4.1,0,0,1-1.86,1.45,3.72,3.72,0,0,1,2.14,1.42,4.12,4.12,0,0,1,.76,2.49,4.54,4.54,0,0,1-1.55,3.69,6.66,6.66,0,0,1-4.4,1.29Zm3-7.7v5.33h3.29a3.18,3.18,0,0,0,2.18-.69,2.72,2.72,0,0,0-1.93-4.64Zm0-2.18h2.9a3.36,3.36,0,0,0,2.16-.62,2.52,2.52,0,0,0,.06-3.61,3.62,3.62,0,0,0-2.24-.56h-2.88Zm12,1.42.92-8.6H1880v2.46h-6.8l-.47,4.08a5.26,5.26,0,0,1,2.67-.68,4.74,4.74,0,0,1,3.79,1.56,6.14,6.14,0,0,1,1.36,4.2,5.7,5.7,0,0,1-1.5,4.15,5.48,5.48,0,0,1-4.11,1.53,5.8,5.8,0,0,1-3.9-1.32,4.86,4.86,0,0,1-1.66-3.51h2.75a3,3,0,0,0,.9,1.91,2.7,2.7,0,0,0,1.89.66,2.42,2.42,0,0,0,2-.94,4,4,0,0,0,.74-2.55,3.55,3.55,0,0,0-.81-2.46,2.81,2.81,0,0,0-2.22-.91,3.63,3.63,0,0,0-1.32.21,3.59,3.59,0,0,0-1.17.8Zm22,2.38H1894v2.29h-2.12V215h-2.85v-3.8h-7.37l-.08-1.73,7.36-11.53h2.94Zm-7.31,0h4.46v-7.12l-.21.38Zm22.19-9.4L1900,215h-3l6.81-14.78H1895v-2.29h11.82Zm11.44,9.4h2.12v2.29h-2.12V215h-2.85v-3.8H1908l-.08-1.73,7.36-11.53h2.94Zm-7.31,0h4.46v-7.12l-.21.38Zm24.32.53a6.23,6.23,0,0,1-2,4.27,6.89,6.89,0,0,1-4.68,1.52,6.69,6.69,0,0,1-3.59-1,6.39,6.39,0,0,1-2.39-2.75,9.75,9.75,0,0,1-.88-4.14v-1.59a10,10,0,0,1,.85-4.25,6.48,6.48,0,0,1,2.45-2.84,6.89,6.89,0,0,1,3.7-1,6.58,6.58,0,0,1,4.55,1.54,6.42,6.42,0,0,1,2,4.34h-3a4.15,4.15,0,0,0-1.08-2.65,3.51,3.51,0,0,0-2.52-.82,3.47,3.47,0,0,0-3,1.42,7.07,7.07,0,0,0-1.06,4.14v1.51a7.48,7.48,0,0,0,1,4.22,3.29,3.29,0,0,0,2.9,1.45,3.85,3.85,0,0,0,2.63-.78,4,4,0,0,0,1.11-2.61Z" transform="translate(-142.82 -56)"/><path d="M1366.58,165.21h-13.5v9.14h15.84V180h-22.87V145.88h22.83v5.7h-15.8v8.13h13.5Zm18.14,2.3h-5.6V180h-7V145.88h12.68q6,0,9.32,2.7a9.3,9.3,0,0,1,3.29,7.62,10.46,10.46,0,0,1-1.53,5.83,10.25,10.25,0,0,1-4.57,3.7l7.39,13.94V180h-7.55Zm-5.6-5.7h5.67a5.83,5.83,0,0,0,4.1-1.33,4.85,4.85,0,0,0,1.45-3.73A5.14,5.14,0,0,0,1389,153a5.63,5.63,0,0,0-4.19-1.38h-5.65Zm35.3,5.7h-5.61V180h-7V145.88h12.68q6,0,9.33,2.7a9.3,9.3,0,0,1,3.28,7.62,10.54,10.54,0,0,1-1.52,5.83,10.25,10.25,0,0,1-4.57,3.7l7.38,13.94V180h-7.55Zm-5.61-5.7h5.68a5.85,5.85,0,0,0,4.1-1.33,4.85,4.85,0,0,0,1.45-3.73,5.14,5.14,0,0,0-1.38-3.8,5.67,5.67,0,0,0-4.2-1.38h-5.65Zm50.7,1.9a20.56,20.56,0,0,1-1.78,8.84,13.4,13.4,0,0,1-5.11,5.86,14,14,0,0,1-7.59,2.06,14.17,14.17,0,0,1-7.57-2,13.57,13.57,0,0,1-5.16-5.81,20,20,0,0,1-1.85-8.72v-1.69a20.57,20.57,0,0,1,1.8-8.86,13.51,13.51,0,0,1,5.14-5.88,15,15,0,0,1,15.16,0,13.3,13.3,0,0,1,5.13,5.88,20.22,20.22,0,0,1,1.83,8.84Zm-7.12-1.55q0-5.37-1.93-8.16a6.78,6.78,0,0,0-10.94,0q-1.92,2.74-2,8.06v1.66q0,5.23,1.93,8.11a6.73,6.73,0,0,0,11,.12q1.91-2.79,1.93-8.11Zm23.9,5.34h-5.6V180h-7V145.88h12.68q6,0,9.33,2.7a9.3,9.3,0,0,1,3.28,7.62,10.54,10.54,0,0,1-1.52,5.83,10.3,10.3,0,0,1-4.57,3.7l7.38,13.94V180h-7.55Zm-5.6-5.7h5.67a5.82,5.82,0,0,0,4.1-1.33,4.86,4.86,0,0,0,1.46-3.73,5.14,5.14,0,0,0-1.38-3.8,5.67,5.67,0,0,0-4.2-1.38h-5.65Z" transform="translate(-142.82 -56)"/><path d="M1373.05,427.69a12.35,12.35,0,0,1-5.37,3.54,22.69,22.69,0,0,1-7.69,1.24,15.39,15.39,0,0,1-7.78-1.92,13.07,13.07,0,0,1-5.16-5.62,19.89,19.89,0,0,1-1.85-8.65V414a21,21,0,0,1,1.71-8.84,12.82,12.82,0,0,1,5-5.72,14.31,14.31,0,0,1,7.62-2q6.08,0,9.49,2.91t4.06,8.41h-6.85a6.74,6.74,0,0,0-2.08-4.29,6.59,6.59,0,0,0-4.41-1.36,6.24,6.24,0,0,0-5.46,2.7q-1.87,2.7-1.9,8V416q0,5.37,2,8.11a7,7,0,0,0,6,2.74q4,0,5.65-1.69v-5.88h-6.4v-5.18h13.43Zm17.39-8.18h-5.6V432h-7V397.88h12.68q6,0,9.32,2.7a9.3,9.3,0,0,1,3.28,7.62,10.45,10.45,0,0,1-1.52,5.84,10.25,10.25,0,0,1-4.57,3.7l7.38,13.95V432h-7.54Zm-5.6-5.7h5.67a5.85,5.85,0,0,0,4.1-1.34,4.85,4.85,0,0,0,1.45-3.73,5.14,5.14,0,0,0-1.38-3.8,5.65,5.65,0,0,0-4.19-1.38h-5.65Zm43.19,3.4h-13.5v9.14h15.85V432H1407.5V397.88h22.83v5.7h-15.8v8.13H1428Zm17.28-4,7.1-15.37h7.69l-11.21,21.75V432h-7.14V419.63l-11.21-21.75h7.71Z" transform="translate(-142.82 -56)"/><path d="M1353.08,712.35H1368V718h-22V683.88h7Zm25.5,5.65h-7V683.88h7Zm32.58-4.31a12.35,12.35,0,0,1-5.37,3.54,22.65,22.65,0,0,1-7.69,1.24,15.39,15.39,0,0,1-7.78-1.92,13,13,0,0,1-5.15-5.62,19.89,19.89,0,0,1-1.86-8.65V700a20.88,20.88,0,0,1,1.72-8.84,12.74,12.74,0,0,1,5-5.72,14.35,14.35,0,0,1,7.62-2q6.08,0,9.49,2.91t4.06,8.41h-6.85a6.74,6.74,0,0,0-2.08-4.29,6.57,6.57,0,0,0-4.41-1.36,6.24,6.24,0,0,0-5.46,2.7q-1.87,2.7-1.9,8V702q0,5.37,2,8.11a7,7,0,0,0,6,2.74q4,0,5.65-1.69v-5.88h-6.4v-5.18h13.43Zm32.53,4.31h-7V703.38h-13.71V718h-7V683.88h7V697.7h13.71V683.88h7Zm30.19-28.43h-10.45V718h-7V689.57h-10.31v-5.7h27.8Zm39.66,24.12a12.35,12.35,0,0,1-5.37,3.54,22.69,22.69,0,0,1-7.69,1.24,15.39,15.39,0,0,1-7.78-1.92,13.07,13.07,0,0,1-5.16-5.62,19.89,19.89,0,0,1-1.85-8.65V700a21,21,0,0,1,1.71-8.84,12.82,12.82,0,0,1,5-5.72,14.31,14.31,0,0,1,7.62-2q6.08,0,9.49,2.91t4.06,8.41h-6.85a6.74,6.74,0,0,0-2.08-4.29,6.59,6.59,0,0,0-4.41-1.36,6.24,6.24,0,0,0-5.46,2.7q-1.87,2.7-1.9,8V702q0,5.37,2,8.11a7,7,0,0,0,6,2.74q4,0,5.65-1.69v-5.88h-6.4v-5.18h13.43Zm17.39-8.18h-5.6V718h-7V683.88H1531q6,0,9.32,2.7a9.3,9.3,0,0,1,3.28,7.62,10.46,10.46,0,0,1-1.52,5.84,10.25,10.25,0,0,1-4.57,3.7l7.38,13.95V718h-7.54Zm-5.6-5.7H1531a5.85,5.85,0,0,0,4.1-1.34,4.85,4.85,0,0,0,1.45-3.73,5.14,5.14,0,0,0-1.38-3.8,5.65,5.65,0,0,0-4.19-1.38h-5.65Zm43.19,3.4H1555v9.14h15.85V718H1548V683.88h22.83v5.7H1555v8.13h13.5Zm17.28-4,7.1-15.37h7.69l-11.21,21.75V718h-7.14V705.63L1571,683.88h7.71Z" transform="translate(-142.82 -56)"/><rect x="1680.18" y="280" width="200" height="200" rx="30" ry="30" style="fill:#828282"/><path d="M1839,510.57a7.43,7.43,0,0,1,1.38-4.71,4.47,4.47,0,0,1,3.7-1.77,4.18,4.18,0,0,1,3.41,1.51l.12-1.28h2.57v12.29a5.1,5.1,0,0,1-1.56,3.94,5.88,5.88,0,0,1-4.18,1.44,6.72,6.72,0,0,1-2.73-.59,4.83,4.83,0,0,1-2-1.51l1.35-1.71a4.07,4.07,0,0,0,3.23,1.56,3.12,3.12,0,0,0,2.24-.77,2.91,2.91,0,0,0,.82-2.25v-.86a4.19,4.19,0,0,1-3.28,1.37,4.45,4.45,0,0,1-3.64-1.77A7.67,7.67,0,0,1,1839,510.57Zm2.84.25a5.13,5.13,0,0,0,.77,3,2.53,2.53,0,0,0,2.17,1.09,2.73,2.73,0,0,0,2.55-1.48v-5.58a2.7,2.7,0,0,0-2.53-1.44,2.52,2.52,0,0,0-2.19,1.11A5.72,5.72,0,0,0,1841.8,510.81Zm17.43-3.89a6.93,6.93,0,0,0-1.16-.09,2.6,2.6,0,0,0-2.63,1.5V517h-2.85V504.32h2.72l.07,1.42a3.21,3.21,0,0,1,2.86-1.65,2.69,2.69,0,0,1,1,.16Zm6.67,10.31a5.91,5.91,0,0,1-4.39-1.7,6.21,6.21,0,0,1-1.68-4.55v-.35a7.68,7.68,0,0,1,.73-3.39,5.61,5.61,0,0,1,2.06-2.33,5.44,5.44,0,0,1,3-.83,5,5,0,0,1,4,1.65,6.94,6.94,0,0,1,1.42,4.68v1.15h-8.29a3.85,3.85,0,0,0,1.05,2.48,3.16,3.16,0,0,0,2.32.91,3.85,3.85,0,0,0,3.18-1.58l1.54,1.46a5.19,5.19,0,0,1-2,1.77A6.36,6.36,0,0,1,1865.9,517.23Zm-.34-10.86a2.4,2.4,0,0,0-1.89.82,4.23,4.23,0,0,0-.92,2.29h5.43v-.21a3.51,3.51,0,0,0-.76-2.16A2.39,2.39,0,0,0,1865.56,506.37Zm11.44,6.55,2.58-8.6h3l-5,14.6q-1.17,3.2-3.94,3.2a5,5,0,0,1-1.37-.21v-2.2l.54,0a2.71,2.71,0,0,0,1.61-.4,2.53,2.53,0,0,0,.87-1.31l.41-1.09-4.45-12.62h3.07Z" transform="translate(-142.82 -56)"/><path d="M2190,439.2h-3.09l-.94,4.8h-1.67l.94-4.8h-2.81v-1.61h3.11l.81-4.15h-3v-1.63h3.33l1-4.87h1.67l-1,4.87h3.09l1-4.87H2194l-1,4.87h2.39v1.63h-2.7l-.81,4.15h2.63v1.61h-2.94l-.94,4.8H2189Zm-2.78-1.61h3.09l.81-4.15H2188Zm20.37-6.2a4,4,0,0,1-.67,2.27,4.62,4.62,0,0,1-1.82,1.56,4.88,4.88,0,0,1,2.11,1.68,4.22,4.22,0,0,1,.78,2.5,4.45,4.45,0,0,1-1.5,3.53,6.56,6.56,0,0,1-7.87,0,4.49,4.49,0,0,1-1.48-3.53,4.37,4.37,0,0,1,.75-2.5,4.77,4.77,0,0,1,2.1-1.69,4.4,4.4,0,0,1-1.79-1.56,4,4,0,0,1-.66-2.26,4.41,4.41,0,0,1,1.38-3.42,5.87,5.87,0,0,1,7.28,0A4.39,4.39,0,0,1,2207.55,431.39Zm-1.76,8a3.14,3.14,0,0,0-.92-2.33,3.24,3.24,0,0,0-5.6,2.33,3,3,0,0,0,.85,2.29,3.88,3.88,0,0,0,4.8,0A3,3,0,0,0,2205.79,439.35Zm-3.26-10.86a2.82,2.82,0,0,0-2.08.8,2.91,2.91,0,0,0-.78,2.14,3,3,0,0,0,.77,2.11,2.8,2.8,0,0,0,2.09.8,2.75,2.75,0,0,0,2.07-.8,3.2,3.2,0,0,0,0-4.23A2.75,2.75,0,0,0,2202.53,428.48ZM2221.86,444h-11.18v-1.56l5.91-6.56a13.64,13.64,0,0,0,1.8-2.41,4,4,0,0,0,.51-1.93,3.06,3.06,0,0,0-.81-2.19,2.84,2.84,0,0,0-2.16-.86,3.38,3.38,0,0,0-2.52.93,3.52,3.52,0,0,0-.89,2.55h-2.16a5,5,0,0,1,1.51-3.81,5.63,5.63,0,0,1,4.06-1.45,5.42,5.42,0,0,1,3.77,1.25,4.24,4.24,0,0,1,1.38,3.32q0,2.52-3.21,6l-4.57,5h8.56Zm12.65-12.61a4,4,0,0,1-.68,2.27,4.56,4.56,0,0,1-1.82,1.56,4.82,4.82,0,0,1,2.11,1.68,4.23,4.23,0,0,1,.79,2.5,4.45,4.45,0,0,1-1.5,3.53,6.57,6.57,0,0,1-7.88,0,4.52,4.52,0,0,1-1.48-3.53,4.37,4.37,0,0,1,.75-2.5,4.77,4.77,0,0,1,2.1-1.69,4.47,4.47,0,0,1-1.79-1.56,4,4,0,0,1-.66-2.26,4.39,4.39,0,0,1,1.39-3.42,5.85,5.85,0,0,1,7.27,0A4.39,4.39,0,0,1,2234.51,431.39Zm-1.77,8a3.14,3.14,0,0,0-.92-2.33,3.24,3.24,0,0,0-5.6,2.33,3,3,0,0,0,.86,2.29,3.86,3.86,0,0,0,4.79,0A3,3,0,0,0,2232.74,439.35Zm-3.26-10.86a2.8,2.8,0,0,0-2.07.8,2.88,2.88,0,0,0-.79,2.14,3,3,0,0,0,.77,2.11,2.81,2.81,0,0,0,2.09.8,2.74,2.74,0,0,0,2.07-.8,3.2,3.2,0,0,0,0-4.23A2.75,2.75,0,0,0,2229.48,428.48ZM2248.82,444h-11.18v-1.56l5.9-6.56a13.82,13.82,0,0,0,1.81-2.41,4.1,4.1,0,0,0,.5-1.93,3.06,3.06,0,0,0-.81-2.19,2.81,2.81,0,0,0-2.15-.86,3.35,3.35,0,0,0-2.52.93,3.48,3.48,0,0,0-.89,2.55h-2.17a5,5,0,0,1,1.51-3.81,5.66,5.66,0,0,1,4.07-1.45,5.39,5.39,0,0,1,3.76,1.25,4.24,4.24,0,0,1,1.38,3.32q0,2.52-3.21,6l-4.57,5h8.57Zm12.64-12.61a4,4,0,0,1-.68,2.27,4.49,4.49,0,0,1-1.82,1.56,4.76,4.76,0,0,1,2.11,1.68,4.16,4.16,0,0,1,.79,2.5,4.45,4.45,0,0,1-1.5,3.53,6.57,6.57,0,0,1-7.88,0,4.52,4.52,0,0,1-1.47-3.53,4.37,4.37,0,0,1,.75-2.5,4.71,4.71,0,0,1,2.1-1.69,4.5,4.5,0,0,1-1.8-1.56,4,4,0,0,1-.65-2.26,4.41,4.41,0,0,1,1.38-3.42,5.87,5.87,0,0,1,7.28,0A4.39,4.39,0,0,1,2261.46,431.39Zm-1.77,8a3.13,3.13,0,0,0-.91-2.33,3.23,3.23,0,0,0-5.6,2.33,3,3,0,0,0,.85,2.29,3.33,3.33,0,0,0,2.4.83,3.29,3.29,0,0,0,2.39-.83A3,3,0,0,0,2259.69,439.35Zm-3.26-10.86a2.8,2.8,0,0,0-2.07.8,3.27,3.27,0,0,0,0,4.25,3.11,3.11,0,0,0,4.16,0,3.21,3.21,0,0,0,0-4.23A2.74,2.74,0,0,0,2256.43,428.48ZM2275.77,444h-11.18v-1.56l5.91-6.56a14.17,14.17,0,0,0,1.8-2.41,4,4,0,0,0,.5-1.93,3.05,3.05,0,0,0-.8-2.19,2.84,2.84,0,0,0-2.16-.86,3.35,3.35,0,0,0-2.52.93,3.52,3.52,0,0,0-.89,2.55h-2.17a5.07,5.07,0,0,1,1.51-3.81,5.66,5.66,0,0,1,4.07-1.45,5.38,5.38,0,0,1,3.76,1.25,4.24,4.24,0,0,1,1.38,3.32q0,2.52-3.21,6l-4.57,5h8.57Z" transform="translate(-142.82 -56)"/><path d="M2181.75,464.7a5,5,0,0,1,.91-3.14,3.15,3.15,0,0,1,4.84-.08l.07-.94h1.32v8.25a3.4,3.4,0,0,1-1,2.59,3.56,3.56,0,0,1-2.61.95,4.33,4.33,0,0,1-1.78-.39,3.08,3.08,0,0,1-1.34-1.07l.75-.87a2.83,2.83,0,0,0,2.27,1.15,2.19,2.19,0,0,0,1.64-.59,2.25,2.25,0,0,0,.6-1.67v-.73a3,3,0,0,1-2.37,1,2.91,2.91,0,0,1-2.41-1.2A5.24,5.24,0,0,1,2181.75,464.7Zm1.45.16a3.81,3.81,0,0,0,.59,2.25,1.91,1.91,0,0,0,1.64.81,2.12,2.12,0,0,0,2-1.24v-3.86a2.15,2.15,0,0,0-2-1.21,1.91,1.91,0,0,0-1.65.82A4.09,4.09,0,0,0,2183.2,464.87Zm12-3a4.15,4.15,0,0,0-.71-.05,1.91,1.91,0,0,0-1.93,1.21v6h-1.44v-8.45h1.4l0,1a2.24,2.24,0,0,1,2-1.13,1.46,1.46,0,0,1,.64.11Zm4.69,7.31a3.72,3.72,0,0,1-2.8-1.12,4.24,4.24,0,0,1-1.07-3v-.27a5.19,5.19,0,0,1,.47-2.24,3.77,3.77,0,0,1,1.35-1.55,3.37,3.37,0,0,1,1.87-.56,3.16,3.16,0,0,1,2.56,1.09,4.7,4.7,0,0,1,.92,3.11v.6h-5.73a3,3,0,0,0,.73,2,2.31,2.31,0,0,0,1.78.77,2.55,2.55,0,0,0,1.3-.31,3.37,3.37,0,0,0,.93-.83l.88.69A3.55,3.55,0,0,1,2199.85,469.16Zm-.18-7.58a1.94,1.94,0,0,0-1.47.64,3.09,3.09,0,0,0-.73,1.78h4.23v-.11a2.75,2.75,0,0,0-.59-1.7A1.8,1.8,0,0,0,2199.67,461.58Zm7.81,5.3,2-6.34H2211l-3.4,9.76c-.52,1.41-1.36,2.11-2.51,2.11l-.27,0-.54-.1v-1.17l.39,0a1.91,1.91,0,0,0,1.14-.3,2.06,2.06,0,0,0,.68-1.09l.32-.86-3-8.36h1.58Z" transform="translate(-142.82 -56)"/><path d="M2181.74,492.7a5,5,0,0,1,.92-3.12,3.14,3.14,0,0,1,4.77-.17V485h1.45v12h-1.33l-.07-.91a3,3,0,0,1-2.42,1.06,2.9,2.9,0,0,1-2.4-1.2,5.05,5.05,0,0,1-.92-3.14Zm1.45.16a3.79,3.79,0,0,0,.59,2.25,1.92,1.92,0,0,0,1.64.81,2.11,2.11,0,0,0,2-1.23v-3.88a2.13,2.13,0,0,0-2-1.2,1.94,1.94,0,0,0-1.66.82A4.17,4.17,0,0,0,2183.19,492.87Zm9.51,4.13h-1.45v-8.45h1.45Zm-1.57-10.7a.87.87,0,0,1,.21-.59.82.82,0,0,1,.64-.24.8.8,0,0,1,.64.24.84.84,0,0,1,.22.59.78.78,0,0,1-.86.82.77.77,0,0,1-.85-.82Zm8.81,8.45a1,1,0,0,0-.45-.91,4.1,4.1,0,0,0-1.54-.56,7.31,7.31,0,0,1-1.74-.56,2.5,2.5,0,0,1-.95-.78,1.84,1.84,0,0,1-.31-1.08,2.18,2.18,0,0,1,.88-1.76,3.45,3.45,0,0,1,2.25-.72,3.53,3.53,0,0,1,2.33.74,2.34,2.34,0,0,1,.89,1.9h-1.45a1.3,1.3,0,0,0-.51-1,1.85,1.85,0,0,0-1.26-.43,2,2,0,0,0-1.24.34,1.1,1.1,0,0,0-.44.9.89.89,0,0,0,.41.79,5.2,5.2,0,0,0,1.49.51,7.77,7.77,0,0,1,1.76.58,2.46,2.46,0,0,1,1,.81,1.94,1.94,0,0,1,.33,1.15,2.18,2.18,0,0,1-.9,1.82,3.84,3.84,0,0,1-2.36.68,4.25,4.25,0,0,1-1.79-.36,3,3,0,0,1-1.23-1,2.47,2.47,0,0,1-.44-1.4h1.45a1.53,1.53,0,0,0,.58,1.16,2.27,2.27,0,0,0,1.43.42,2.35,2.35,0,0,0,1.32-.33A1,1,0,0,0,2199.94,494.76Zm8.54,2.24a3.11,3.11,0,0,1-.2-.89,3.21,3.21,0,0,1-2.4,1,3,3,0,0,1-2.06-.7,2.31,2.31,0,0,1-.8-1.8,2.4,2.4,0,0,1,1-2,4.77,4.77,0,0,1,2.83-.73h1.41v-.66a1.58,1.58,0,0,0-.46-1.2,1.79,1.79,0,0,0-1.33-.45,2.11,2.11,0,0,0-1.3.39,1.15,1.15,0,0,0-.52.95h-1.45a2,2,0,0,1,.44-1.22,3.09,3.09,0,0,1,1.22-.94,4.13,4.13,0,0,1,1.69-.34,3.32,3.32,0,0,1,2.29.73,2.59,2.59,0,0,1,.86,2V495a4.71,4.71,0,0,0,.3,1.85V497Zm-2.39-1.1a2.56,2.56,0,0,0,1.29-.35,2.14,2.14,0,0,0,.88-.91V492.9h-1.14c-1.77,0-2.65.52-2.65,1.55a1.32,1.32,0,0,0,.45,1.06A1.74,1.74,0,0,0,2206.09,495.9Zm13-3a5,5,0,0,1-.89,3.12,2.84,2.84,0,0,1-2.39,1.17,2.94,2.94,0,0,1-2.47-1.13l-.07,1H2212V485h1.44v4.48a3,3,0,0,1,2.42-1.09,2.85,2.85,0,0,1,2.41,1.16,5.15,5.15,0,0,1,.88,3.19Zm-1.44-.16a3.91,3.91,0,0,0-.57-2.28,1.89,1.89,0,0,0-1.64-.8,2.14,2.14,0,0,0-2.06,1.33v3.66a2.2,2.2,0,0,0,2.07,1.33,1.87,1.87,0,0,0,1.62-.8A4.12,4.12,0,0,0,2217.68,492.7Zm4.84,4.3h-1.44V485h1.44Zm5.83.16a3.72,3.72,0,0,1-2.8-1.12,4.24,4.24,0,0,1-1.07-3v-.27a5.19,5.19,0,0,1,.47-2.24,3.77,3.77,0,0,1,1.35-1.55,3.37,3.37,0,0,1,1.87-.56,3.16,3.16,0,0,1,2.56,1.09,4.7,4.7,0,0,1,.92,3.11v.6h-5.73a3,3,0,0,0,.73,2,2.31,2.31,0,0,0,1.78.77,2.55,2.55,0,0,0,1.3-.31,3.37,3.37,0,0,0,.93-.83l.88.69A3.55,3.55,0,0,1,2228.35,497.16Zm-.18-7.58a1.94,1.94,0,0,0-1.47.64A3.09,3.09,0,0,0,2226,492h4.23v-.11a2.75,2.75,0,0,0-.59-1.7A1.8,1.8,0,0,0,2228.17,489.58Zm4.81,3.13a4.9,4.9,0,0,1,.92-3.12,3.13,3.13,0,0,1,4.76-.17V485h1.45v12h-1.33l-.07-.91a2.94,2.94,0,0,1-2.41,1.06,2.9,2.9,0,0,1-2.4-1.2,5,5,0,0,1-.92-3.14Zm1.44.16a3.72,3.72,0,0,0,.6,2.25,1.91,1.91,0,0,0,1.64.81,2.1,2.1,0,0,0,2-1.23v-3.88a2.12,2.12,0,0,0-2-1.2,1.91,1.91,0,0,0-1.65.82A4.09,4.09,0,0,0,2234.42,492.87Zm14.92-.11h-3.82v-1.18h3.82Zm6.09,4.24v-7.34h-1.34v-1.12h1.34v-.87a2.86,2.86,0,0,1,.73-2.1,2.73,2.73,0,0,1,2.05-.74,3.73,3.73,0,0,1,1,.13l-.08,1.17a4.06,4.06,0,0,0-.78-.07,1.4,1.4,0,0,0-1.08.41,1.62,1.62,0,0,0-.38,1.17v.89h1.8v1.12h-1.8V497Zm10.07,0a3.11,3.11,0,0,1-.2-.89,3.25,3.25,0,0,1-2.41,1,3,3,0,0,1-2-.7,2.28,2.28,0,0,1-.8-1.8,2.38,2.38,0,0,1,1-2,4.73,4.73,0,0,1,2.83-.73h1.4v-.66a1.62,1.62,0,0,0-.45-1.2,1.82,1.82,0,0,0-1.34-.45,2.1,2.1,0,0,0-1.29.39,1.16,1.16,0,0,0-.53.95h-1.45a2,2,0,0,1,.45-1.22,3,3,0,0,1,1.22-.94,4.1,4.1,0,0,1,1.69-.34,3.33,3.33,0,0,1,2.29.73,2.63,2.63,0,0,1,.86,2V495a4.71,4.71,0,0,0,.3,1.85V497Zm-2.4-1.1a2.56,2.56,0,0,0,1.29-.35,2.09,2.09,0,0,0,.88-.91V492.9h-1.13c-1.77,0-2.66.52-2.66,1.55a1.33,1.33,0,0,0,.46,1.06A1.73,1.73,0,0,0,2263.1,495.9Zm5.53-3.2a5,5,0,0,1,.92-3.12,3.14,3.14,0,0,1,4.77-.17V485h1.45v12h-1.33l-.07-.91a3,3,0,0,1-2.42,1.06,2.9,2.9,0,0,1-2.4-1.2,5.05,5.05,0,0,1-.92-3.14Zm1.45.16a3.79,3.79,0,0,0,.59,2.25,1.92,1.92,0,0,0,1.64.81,2.11,2.11,0,0,0,2-1.23v-3.88a2.13,2.13,0,0,0-2-1.2,1.94,1.94,0,0,0-1.66.82A4.17,4.17,0,0,0,2270.08,492.87Zm11.44,4.29a3.7,3.7,0,0,1-2.79-1.12,4.2,4.2,0,0,1-1.08-3v-.27a5.19,5.19,0,0,1,.47-2.24,3.84,3.84,0,0,1,1.35-1.55,3.37,3.37,0,0,1,1.87-.56,3.18,3.18,0,0,1,2.57,1.09,4.7,4.7,0,0,1,.91,3.11v.6h-5.73a3,3,0,0,0,.73,2,2.31,2.31,0,0,0,1.78.77,2.55,2.55,0,0,0,1.3-.31,3.37,3.37,0,0,0,.93-.83l.88.69A3.55,3.55,0,0,1,2281.52,497.16Zm-.18-7.58a1.9,1.9,0,0,0-1.46.64,3,3,0,0,0-.74,1.78h4.24v-.11a2.75,2.75,0,0,0-.6-1.7A1.8,1.8,0,0,0,2281.34,489.58Zm4.81,3.13a5,5,0,0,1,.92-3.12,2.9,2.9,0,0,1,2.41-1.19,3,3,0,0,1,2.36,1V485h1.44v12h-1.33l-.07-.91a2.94,2.94,0,0,1-2.41,1.06,2.9,2.9,0,0,1-2.4-1.2,5.05,5.05,0,0,1-.92-3.14Zm1.44.16a3.72,3.72,0,0,0,.6,2.25,1.91,1.91,0,0,0,1.64.81,2.13,2.13,0,0,0,2-1.23v-3.88a2.14,2.14,0,0,0-2-1.2,1.92,1.92,0,0,0-1.65.82A4.09,4.09,0,0,0,2287.59,492.87Zm7.56-.17a5.06,5.06,0,0,1,.48-2.23,3.67,3.67,0,0,1,1.36-1.53,3.74,3.74,0,0,1,2-.54,3.53,3.53,0,0,1,2.79,1.2,4.56,4.56,0,0,1,1.07,3.18v.1a5.14,5.14,0,0,1-.47,2.22,3.66,3.66,0,0,1-1.35,1.52,3.75,3.75,0,0,1-2,.55,3.56,3.56,0,0,1-2.79-1.2,4.58,4.58,0,0,1-1.06-3.16Zm1.45.17a3.65,3.65,0,0,0,.65,2.26,2.22,2.22,0,0,0,3.5,0,4,4,0,0,0,.65-2.42,3.54,3.54,0,0,0-.67-2.25,2.18,2.18,0,0,0-3.47,0A3.91,3.91,0,0,0,2296.6,492.87Zm13.28,3.3a3.08,3.08,0,0,1-2.48,1,2.64,2.64,0,0,1-2.06-.78,3.44,3.44,0,0,1-.72-2.33v-5.5h1.45V494q0,1.92,1.56,1.92a2.17,2.17,0,0,0,2.21-1.23v-6.15h1.44V497h-1.37Zm5.57-9.66v2H2317v1.12h-1.57v5.24a1.19,1.19,0,0,0,.21.77.9.9,0,0,0,.72.25,3.45,3.45,0,0,0,.68-.09V497a4.2,4.2,0,0,1-1.11.16,1.81,1.81,0,0,1-1.46-.59,2.5,2.5,0,0,1-.49-1.66v-5.24h-1.54v-1.12H2314v-2Z" transform="translate(-142.82 -56)"/><path d="M1847.43,490.2h-2.63l-.89,4.8h-2l.89-4.8h-2.71v-1.85h3.06l.68-3.67H1841v-1.86h3.19l.92-4.87h2l-.92,4.87h2.64l.91-4.87h2l-.91,4.87h2.43v1.86h-2.79l-.68,3.67h2.59v1.85h-2.94l-.89,4.8h-1.95Zm-2.28-1.85h2.63l.68-3.67h-2.63Zm20-5.91a4,4,0,0,1-.64,2.24,4.52,4.52,0,0,1-1.76,1.54,4.85,4.85,0,0,1,2,1.7,4.3,4.3,0,0,1,.73,2.44,4.49,4.49,0,0,1-1.53,3.57,6.93,6.93,0,0,1-8.13,0,4.5,4.5,0,0,1-1.52-3.56,4.36,4.36,0,0,1,.72-2.46,4.73,4.73,0,0,1,2-1.68,4.53,4.53,0,0,1-1.74-1.54,4,4,0,0,1-.64-2.24,4.43,4.43,0,0,1,1.41-3.46,6.31,6.31,0,0,1,7.61,0A4.46,4.46,0,0,1,1865.19,482.44Zm-2.47,7.77a2.77,2.77,0,0,0-.76-2,2.64,2.64,0,0,0-2-.79,2.67,2.67,0,0,0-2,.77,2.86,2.86,0,0,0-.74,2.05,2.78,2.78,0,0,0,.73,2,2.72,2.72,0,0,0,2,.75,2.66,2.66,0,0,0,2-.73A2.72,2.72,0,0,0,1862.72,490.21Zm-.36-7.66a2.63,2.63,0,0,0-.65-1.83A2.2,2.2,0,0,0,1860,480a2.24,2.24,0,0,0-1.73.69,2.63,2.63,0,0,0-.63,1.86,2.66,2.66,0,0,0,.63,1.86,2.27,2.27,0,0,0,1.74.69,2.21,2.21,0,0,0,1.72-.69A2.62,2.62,0,0,0,1862.36,482.54ZM1879.08,495h-11.47v-2l5.68-6.2a14.48,14.48,0,0,0,1.75-2.29,3.72,3.72,0,0,0,.52-1.85,2.79,2.79,0,0,0-.69-2A2.35,2.35,0,0,0,1873,480a2.74,2.74,0,0,0-2.14.84,3.31,3.31,0,0,0-.76,2.31h-2.85a5.57,5.57,0,0,1,.7-2.8,4.91,4.91,0,0,1,2-1.95,6.49,6.49,0,0,1,3.05-.69A5.73,5.73,0,0,1,1877,479a4.31,4.31,0,0,1,1.44,3.45,5.79,5.79,0,0,1-.73,2.68,15,15,0,0,1-2.35,3.18l-4.17,4.46h7.92Zm12.43-12.56a4,4,0,0,1-.64,2.24,4.52,4.52,0,0,1-1.76,1.54,4.79,4.79,0,0,1,2.05,1.7,4.22,4.22,0,0,1,.73,2.44,4.49,4.49,0,0,1-1.53,3.57,6,6,0,0,1-4,1.31,6,6,0,0,1-4.08-1.32,4.5,4.5,0,0,1-1.52-3.56,4.3,4.3,0,0,1,.73-2.46,4.65,4.65,0,0,1,2-1.68,4.53,4.53,0,0,1-1.74-1.54,4.06,4.06,0,0,1-.63-2.24,4.43,4.43,0,0,1,1.4-3.46,6.31,6.31,0,0,1,7.61,0A4.46,4.46,0,0,1,1891.51,482.44Zm-2.47,7.77a2.77,2.77,0,0,0-.76-2,2.64,2.64,0,0,0-2-.79,2.66,2.66,0,0,0-2,.77,2.85,2.85,0,0,0-.73,2.05,2.77,2.77,0,0,0,.72,2,2.72,2.72,0,0,0,2,.75,2.66,2.66,0,0,0,2-.73A2.72,2.72,0,0,0,1889,490.21Zm-.36-7.66a2.63,2.63,0,0,0-.65-1.83,2.45,2.45,0,0,0-3.45,0,2.59,2.59,0,0,0-.64,1.86,2.62,2.62,0,0,0,.64,1.86,2.24,2.24,0,0,0,1.73.69,2.21,2.21,0,0,0,1.72-.69A2.63,2.63,0,0,0,1888.68,482.54ZM1905.4,495h-11.47v-2l5.68-6.2a14.46,14.46,0,0,0,1.75-2.29,3.72,3.72,0,0,0,.52-1.85,2.79,2.79,0,0,0-.69-2,2.35,2.35,0,0,0-1.84-.75,2.74,2.74,0,0,0-2.14.84,3.31,3.31,0,0,0-.76,2.31h-2.85a5.57,5.57,0,0,1,.7-2.8,5,5,0,0,1,2-1.95,6.49,6.49,0,0,1,3.05-.69,5.73,5.73,0,0,1,3.91,1.25,4.31,4.31,0,0,1,1.44,3.45,5.9,5.9,0,0,1-.72,2.68,15.43,15.43,0,0,1-2.36,3.18l-4.17,4.46h7.92Zm12.43-12.56a4,4,0,0,1-.64,2.24,4.51,4.51,0,0,1-1.76,1.54,4.79,4.79,0,0,1,2,1.7,4.22,4.22,0,0,1,.73,2.44,4.51,4.51,0,0,1-1.52,3.57,6.94,6.94,0,0,1-8.14,0,4.5,4.5,0,0,1-1.52-3.56,4.3,4.3,0,0,1,.73-2.46,4.62,4.62,0,0,1,2-1.68,4.48,4.48,0,0,1-1.75-1.54,4.06,4.06,0,0,1-.63-2.24,4.46,4.46,0,0,1,1.4-3.46,6.31,6.31,0,0,1,7.61,0A4.43,4.43,0,0,1,1917.83,482.44Zm-2.47,7.77a2.77,2.77,0,0,0-.76-2,2.93,2.93,0,0,0-4,0,2.82,2.82,0,0,0-.74,2.05,2.77,2.77,0,0,0,.72,2,2.73,2.73,0,0,0,2,.75,2.7,2.7,0,0,0,2-.73A2.75,2.75,0,0,0,1915.36,490.21Zm-.36-7.66a2.63,2.63,0,0,0-.65-1.83,2.45,2.45,0,0,0-3.45,0,2.59,2.59,0,0,0-.64,1.86,2.62,2.62,0,0,0,.64,1.86,2.24,2.24,0,0,0,1.73.69,2.21,2.21,0,0,0,1.72-.69A2.62,2.62,0,0,0,1915,482.54ZM1931.72,495h-11.47v-2l5.68-6.2a14.48,14.48,0,0,0,1.75-2.29,3.74,3.74,0,0,0,.53-1.85,2.76,2.76,0,0,0-.7-2,2.35,2.35,0,0,0-1.84-.75,2.74,2.74,0,0,0-2.14.84,3.31,3.31,0,0,0-.76,2.31h-2.85a5.68,5.68,0,0,1,.7-2.8,5,5,0,0,1,2-1.95,6.49,6.49,0,0,1,3-.69,5.73,5.73,0,0,1,3.91,1.25,4.31,4.31,0,0,1,1.44,3.45,5.9,5.9,0,0,1-.72,2.68,15.07,15.07,0,0,1-2.36,3.18l-4.17,4.46h7.92Z" transform="translate(-142.82 -56)"/><rect x="1680.18" y="560" width="200" height="200" rx="30" ry="30" style="fill:#e9e9e9"/><path d="M1842.49,797h-2.85V779h2.85Zm5.66,0h-2.85V784.32h2.85Zm-3-16a1.49,1.49,0,0,1,.41-1.09,1.58,1.58,0,0,1,1.19-.43,1.61,1.61,0,0,1,1.2.43,1.61,1.61,0,0,1,0,2.17,1.63,1.63,0,0,1-1.2.42,1.61,1.61,0,0,1-1.19-.42A1.48,1.48,0,0,1,1845.13,781Zm5.15,9.54a7.42,7.42,0,0,1,1.38-4.71,4.49,4.49,0,0,1,3.7-1.77,4.18,4.18,0,0,1,3.41,1.51l.13-1.28h2.56v12.29a5.1,5.1,0,0,1-1.56,3.94,5.88,5.88,0,0,1-4.18,1.44,6.72,6.72,0,0,1-2.73-.59,4.83,4.83,0,0,1-2-1.51l1.35-1.71a4.08,4.08,0,0,0,3.24,1.56,3.11,3.11,0,0,0,2.23-.77,2.91,2.91,0,0,0,.82-2.25v-.86a4.19,4.19,0,0,1-3.28,1.37,4.45,4.45,0,0,1-3.64-1.77A7.67,7.67,0,0,1,1850.28,790.57Zm2.84.25a5.2,5.2,0,0,0,.77,3,2.53,2.53,0,0,0,2.17,1.09,2.73,2.73,0,0,0,2.55-1.48v-5.58a2.69,2.69,0,0,0-2.53-1.44,2.53,2.53,0,0,0-2.19,1.11A5.8,5.8,0,0,0,1853.12,790.81Zm13.6-5.11a4.47,4.47,0,0,1,3.53-1.62c2.7,0,4.08,1.54,4.11,4.63V797h-2.84v-8.18a2.43,2.43,0,0,0-.58-1.85,2.28,2.28,0,0,0-1.66-.55,2.76,2.76,0,0,0-2.56,1.52V797h-2.84V779h2.84Zm13.62-4.47v3.08h2.24v2.11h-2.24v7.08a1.65,1.65,0,0,0,.28,1.05,1.37,1.37,0,0,0,1,.32,4.44,4.44,0,0,0,1-.12V797a7,7,0,0,1-1.87.27q-3.29,0-3.29-3.62v-7.18h-2.08v-2.11h2.08v-3.08Zm8.94,9.33a7.37,7.37,0,0,1,1.39-4.71,4.47,4.47,0,0,1,3.69-1.77,4.18,4.18,0,0,1,3.41,1.51l.13-1.28h2.56v12.29a5.13,5.13,0,0,1-1.55,3.94,5.92,5.92,0,0,1-4.19,1.44,6.72,6.72,0,0,1-2.73-.59,4.8,4.8,0,0,1-2-1.51l1.34-1.71a4.09,4.09,0,0,0,3.24,1.56,3.15,3.15,0,0,0,2.24-.77,3,3,0,0,0,.82-2.25v-.86a4.21,4.21,0,0,1-3.29,1.37,4.46,4.46,0,0,1-3.64-1.77A7.67,7.67,0,0,1,1889.28,790.57Zm2.84.25a5.2,5.2,0,0,0,.77,3,2.54,2.54,0,0,0,2.17,1.09,2.75,2.75,0,0,0,2.56-1.48v-5.58a2.71,2.71,0,0,0-2.54-1.44,2.55,2.55,0,0,0-2.19,1.11A5.8,5.8,0,0,0,1892.12,790.81Zm17.44-3.89a7,7,0,0,0-1.16-.09,2.61,2.61,0,0,0-2.64,1.5V797h-2.85V784.32h2.72l.07,1.42a3.21,3.21,0,0,1,2.86-1.65,2.69,2.69,0,0,1,1,.16Zm6.67,10.31a5.93,5.93,0,0,1-4.4-1.7,6.2,6.2,0,0,1-1.67-4.55v-.35a7.68,7.68,0,0,1,.72-3.39,5.56,5.56,0,0,1,2.07-2.33,5.41,5.41,0,0,1,3-.83,5,5,0,0,1,4,1.65,6.94,6.94,0,0,1,1.42,4.68v1.15H1913a3.79,3.79,0,0,0,1,2.48,3.17,3.17,0,0,0,2.32.91,3.85,3.85,0,0,0,3.19-1.58l1.53,1.46a5.05,5.05,0,0,1-2,1.77A6.35,6.35,0,0,1,1916.23,797.23Zm-.34-10.86a2.42,2.42,0,0,0-1.9.82,4.31,4.31,0,0,0-.92,2.29h5.43v-.21a3.45,3.45,0,0,0-.76-2.16A2.37,2.37,0,0,0,1915.89,786.37Zm11.43,6.55,2.58-8.6h3l-5,14.6c-.77,2.13-2.09,3.2-3.94,3.2a5.1,5.1,0,0,1-1.37-.21v-2.2l.54,0a2.72,2.72,0,0,0,1.62-.4,2.58,2.58,0,0,0,.86-1.31l.41-1.09-4.45-12.62h3.07Z" transform="translate(-142.82 -56)"/><path d="M2190,719.2h-3.09l-.94,4.8h-1.67l.94-4.8h-2.81v-1.6h3.11l.81-4.15h-3v-1.63h3.33l1-4.87h1.67l-1,4.87h3.09l1-4.87H2194l-1,4.87h2.39v1.63h-2.7l-.81,4.15h2.63v1.6h-2.94l-.94,4.8H2189Zm-2.78-1.6h3.09l.81-4.15H2188Zm20.23-1.48H2200v6h8.59V724h-10.84V706.94h10.72v1.85H2200v5.48h7.39Zm11.75.39a5.4,5.4,0,0,1-1.63,1.3,4.42,4.42,0,0,1-2.07.49,4.54,4.54,0,0,1-2.57-.73,4.74,4.74,0,0,1-1.69-2,7,7,0,0,1-.6-2.92,7.16,7.16,0,0,1,.65-3.08,4.74,4.74,0,0,1,1.85-2.1,5.23,5.23,0,0,1,2.79-.73,4.75,4.75,0,0,1,4,1.9,8.18,8.18,0,0,1,1.47,5.16v.63q0,5-2,7.28a7.6,7.6,0,0,1-5.94,2.34H2213v-1.83h.46a5.16,5.16,0,0,0,5.7-5.68Zm-3.34,0a3.33,3.33,0,0,0,2-.67,3.9,3.9,0,0,0,1.35-1.65v-.87a5.94,5.94,0,0,0-.93-3.47,2.83,2.83,0,0,0-4.64-.23,4.49,4.49,0,0,0-.87,2.88,4.72,4.72,0,0,0,.84,2.88A2.67,2.67,0,0,0,2215.82,716.5Zm18.71-.39h-7.39v6h8.59V724h-10.84V706.94h10.72v1.85h-8.47v5.48h7.39Zm11.74.39a5.17,5.17,0,0,1-1.63,1.3,4.34,4.34,0,0,1-2.06.49,4.6,4.6,0,0,1-2.58-.73,4.71,4.71,0,0,1-1.68-2,7,7,0,0,1-.6-2.92,7.15,7.15,0,0,1,.64-3.08,4.86,4.86,0,0,1,1.85-2.1,5.28,5.28,0,0,1,2.79-.73,4.75,4.75,0,0,1,4,1.9,8.24,8.24,0,0,1,1.46,5.16v.63c0,3.32-.65,5.75-2,7.28s-3.29,2.3-5.94,2.34h-.42v-1.83h.46a5.16,5.16,0,0,0,5.69-5.68Zm-3.34,0a3.34,3.34,0,0,0,2-.67,4,4,0,0,0,1.35-1.65v-.87a5.94,5.94,0,0,0-.93-3.47,2.83,2.83,0,0,0-4.64-.23,4.49,4.49,0,0,0-.87,2.88,4.79,4.79,0,0,0,.83,2.88A2.69,2.69,0,0,0,2242.93,716.5Zm18.72-.39h-7.4v6h8.59V724H2252V706.94h10.73v1.85h-8.48v5.48h7.4Zm11.74.39a5.28,5.28,0,0,1-1.63,1.3,4.35,4.35,0,0,1-2.06.49,4.58,4.58,0,0,1-2.58-.73,4.73,4.73,0,0,1-1.69-2,7.63,7.63,0,0,1,.05-6,4.87,4.87,0,0,1,1.85-2.1,5.27,5.27,0,0,1,2.79-.73,4.75,4.75,0,0,1,4,1.9,8.24,8.24,0,0,1,1.46,5.16v.63q0,5-2,7.28t-5.94,2.34h-.42v-1.83h.46a6,6,0,0,0,4.12-1.4A6.06,6.06,0,0,0,2273.39,716.5Zm-3.34,0a3.29,3.29,0,0,0,2-.67,3.9,3.9,0,0,0,1.35-1.65v-.87a6,6,0,0,0-.92-3.47,2.83,2.83,0,0,0-4.64-.23,4.49,4.49,0,0,0-.87,2.88,4.79,4.79,0,0,0,.83,2.88A2.67,2.67,0,0,0,2270.05,716.5Z" transform="translate(-142.82 -56)"/><path d="M2183.66,749h-1.44V737h1.44Zm3.89,0h-1.44v-8.45h1.44ZM2186,738.3a.87.87,0,0,1,.21-.59.82.82,0,0,1,.64-.24.81.81,0,0,1,.64.24.84.84,0,0,1,.22.59.81.81,0,0,1-.22.59.83.83,0,0,1-.64.23.77.77,0,0,1-.85-.82Zm3.54,6.4a5,5,0,0,1,.92-3.14,3.14,3.14,0,0,1,4.83-.08l.07-.94h1.32v8.25a3.43,3.43,0,0,1-1,2.59,3.59,3.59,0,0,1-2.61.95,4.34,4.34,0,0,1-1.79-.39,3.08,3.08,0,0,1-1.34-1.07l.75-.87a2.83,2.83,0,0,0,2.27,1.15,2.19,2.19,0,0,0,1.64-.59,2.25,2.25,0,0,0,.6-1.67v-.73a3,3,0,0,1-2.37,1,2.88,2.88,0,0,1-2.4-1.2A5.24,5.24,0,0,1,2189.53,744.7Zm1.45.16a3.81,3.81,0,0,0,.59,2.25,1.91,1.91,0,0,0,1.64.81,2.12,2.12,0,0,0,2-1.24v-3.86a2.14,2.14,0,0,0-2-1.21,1.91,1.91,0,0,0-1.65.82A4.09,4.09,0,0,0,2191,744.87Zm9.32-3.3a3.09,3.09,0,0,1,2.5-1.18c1.79,0,2.69,1,2.71,3V749h-1.45v-5.59a1.89,1.89,0,0,0-.42-1.35,1.65,1.65,0,0,0-1.27-.44,2.11,2.11,0,0,0-1.24.38,2.6,2.6,0,0,0-.83,1v6h-1.44V737h1.44Zm9.33-3.07v2h1.58v1.12h-1.58v5.24a1.19,1.19,0,0,0,.21.77.89.89,0,0,0,.72.25,3.44,3.44,0,0,0,.69-.09V749a4.2,4.2,0,0,1-1.11.16,1.79,1.79,0,0,1-1.46-.59,2.51,2.51,0,0,1-.49-1.66v-5.24h-1.54v-1.12h1.54v-2Zm6.9,6.2a5,5,0,0,1,.92-3.14,3.14,3.14,0,0,1,4.83-.08l.07-.94h1.32v8.25a3.43,3.43,0,0,1-1,2.59,3.59,3.59,0,0,1-2.61.95,4.34,4.34,0,0,1-1.79-.39,3.08,3.08,0,0,1-1.34-1.07l.75-.87a2.83,2.83,0,0,0,2.27,1.15,2.19,2.19,0,0,0,1.64-.59,2.25,2.25,0,0,0,.6-1.67v-.73a3,3,0,0,1-2.37,1,2.88,2.88,0,0,1-2.4-1.2A5.24,5.24,0,0,1,2216.53,744.7Zm1.45.16a3.81,3.81,0,0,0,.59,2.25,1.91,1.91,0,0,0,1.64.81,2.12,2.12,0,0,0,2-1.24v-3.86a2.14,2.14,0,0,0-2-1.21,1.91,1.91,0,0,0-1.65.82A4.09,4.09,0,0,0,2218,744.87Zm12-3a4.35,4.35,0,0,0-.72-.05,1.91,1.91,0,0,0-1.93,1.21v6h-1.44v-8.45h1.41l0,1a2.24,2.24,0,0,1,2-1.13,1.51,1.51,0,0,1,.65.11Zm4.68,7.31a3.68,3.68,0,0,1-2.79-1.12,4.2,4.2,0,0,1-1.08-3v-.27a5.19,5.19,0,0,1,.47-2.24,3.84,3.84,0,0,1,1.35-1.55,3.37,3.37,0,0,1,1.87-.56,3.18,3.18,0,0,1,2.57,1.09,4.75,4.75,0,0,1,.91,3.11v.6h-5.73a3,3,0,0,0,.73,2,2.31,2.31,0,0,0,1.78.77,2.55,2.55,0,0,0,1.3-.31,3.37,3.37,0,0,0,.93-.83l.88.69A3.55,3.55,0,0,1,2234.63,749.16Zm-.18-7.58a1.94,1.94,0,0,0-1.47.64,3.09,3.09,0,0,0-.73,1.78h4.23v-.11a2.75,2.75,0,0,0-.59-1.7A1.8,1.8,0,0,0,2234.45,741.58Zm7.82,5.3,2-6.34h1.55l-3.4,9.76c-.52,1.41-1.36,2.11-2.5,2.11l-.28,0-.54-.1v-1.17l.39,0a1.91,1.91,0,0,0,1.14-.3,2.06,2.06,0,0,0,.68-1.09l.32-.86-3-8.36h1.58Z" transform="translate(-142.82 -56)"/><path d="M2181.74,772.7a5,5,0,0,1,.92-3.12,3.14,3.14,0,0,1,4.77-.17V765h1.45v12h-1.33l-.07-.91a3,3,0,0,1-2.42,1.06,2.9,2.9,0,0,1-2.4-1.2,5.05,5.05,0,0,1-.92-3.14Zm1.45.16a3.79,3.79,0,0,0,.59,2.25,1.92,1.92,0,0,0,1.64.81,2.11,2.11,0,0,0,2-1.23v-3.88a2.13,2.13,0,0,0-2-1.2,1.94,1.94,0,0,0-1.66.82A4.17,4.17,0,0,0,2183.19,772.87Zm9.51,4.13h-1.45v-8.45h1.45Zm-1.57-10.7a.87.87,0,0,1,.21-.59.82.82,0,0,1,.64-.24.8.8,0,0,1,.64.24.84.84,0,0,1,.22.59.78.78,0,0,1-.86.82.77.77,0,0,1-.85-.82Zm8.81,8.45a1,1,0,0,0-.45-.91,4.1,4.1,0,0,0-1.54-.56,7.31,7.31,0,0,1-1.74-.56,2.5,2.5,0,0,1-.95-.78,1.84,1.84,0,0,1-.31-1.08,2.18,2.18,0,0,1,.88-1.76,3.45,3.45,0,0,1,2.25-.72,3.53,3.53,0,0,1,2.33.74,2.34,2.34,0,0,1,.89,1.9h-1.45a1.3,1.3,0,0,0-.51-1,1.85,1.85,0,0,0-1.26-.43,2,2,0,0,0-1.24.34,1.1,1.1,0,0,0-.44.9.89.89,0,0,0,.41.79,5.2,5.2,0,0,0,1.49.51,7.77,7.77,0,0,1,1.76.58,2.46,2.46,0,0,1,1,.81,1.94,1.94,0,0,1,.33,1.15,2.18,2.18,0,0,1-.9,1.82,3.84,3.84,0,0,1-2.36.68,4.25,4.25,0,0,1-1.79-.36,3,3,0,0,1-1.23-1,2.47,2.47,0,0,1-.44-1.4h1.45a1.53,1.53,0,0,0,.58,1.16,2.27,2.27,0,0,0,1.43.42,2.35,2.35,0,0,0,1.32-.33A1,1,0,0,0,2199.94,774.76Zm8.54,2.24a3.11,3.11,0,0,1-.2-.89,3.21,3.21,0,0,1-2.4,1,3,3,0,0,1-2.06-.7,2.31,2.31,0,0,1-.8-1.8,2.4,2.4,0,0,1,1-2,4.77,4.77,0,0,1,2.83-.73h1.41v-.66a1.58,1.58,0,0,0-.46-1.2,1.79,1.79,0,0,0-1.33-.45,2.11,2.11,0,0,0-1.3.39,1.15,1.15,0,0,0-.52.95h-1.45a2,2,0,0,1,.44-1.22,3.09,3.09,0,0,1,1.22-.94,4.13,4.13,0,0,1,1.69-.34,3.32,3.32,0,0,1,2.29.73,2.59,2.59,0,0,1,.86,2V775a4.71,4.71,0,0,0,.3,1.85V777Zm-2.39-1.1a2.56,2.56,0,0,0,1.29-.35,2.14,2.14,0,0,0,.88-.91V772.9h-1.14c-1.77,0-2.65.52-2.65,1.55a1.32,1.32,0,0,0,.45,1.06A1.74,1.74,0,0,0,2206.09,775.9Zm13-3a5,5,0,0,1-.89,3.12,2.84,2.84,0,0,1-2.39,1.17,2.94,2.94,0,0,1-2.47-1.13l-.07,1H2212V765h1.44v4.48a3,3,0,0,1,2.42-1.09,2.85,2.85,0,0,1,2.41,1.16,5.15,5.15,0,0,1,.88,3.19Zm-1.44-.16a3.91,3.91,0,0,0-.57-2.28,1.89,1.89,0,0,0-1.64-.8,2.14,2.14,0,0,0-2.06,1.33v3.66a2.2,2.2,0,0,0,2.07,1.33,1.87,1.87,0,0,0,1.62-.8A4.12,4.12,0,0,0,2217.68,772.7Zm4.84,4.3h-1.44V765h1.44Zm5.83.16a3.72,3.72,0,0,1-2.8-1.12,4.24,4.24,0,0,1-1.07-3v-.27a5.19,5.19,0,0,1,.47-2.24,3.77,3.77,0,0,1,1.35-1.55,3.37,3.37,0,0,1,1.87-.56,3.16,3.16,0,0,1,2.56,1.09,4.7,4.7,0,0,1,.92,3.11v.6h-5.73a3,3,0,0,0,.73,2,2.31,2.31,0,0,0,1.78.77,2.55,2.55,0,0,0,1.3-.31,3.37,3.37,0,0,0,.93-.83l.88.69A3.55,3.55,0,0,1,2228.35,777.16Zm-.18-7.58a1.94,1.94,0,0,0-1.47.64A3.09,3.09,0,0,0,2226,772h4.23v-.11a2.75,2.75,0,0,0-.59-1.7A1.8,1.8,0,0,0,2228.17,769.58Zm4.81,3.13a4.9,4.9,0,0,1,.92-3.12,3.13,3.13,0,0,1,4.76-.17V765h1.45v12h-1.33l-.07-.91a2.94,2.94,0,0,1-2.41,1.06,2.9,2.9,0,0,1-2.4-1.2,5,5,0,0,1-.92-3.14Zm1.44.16a3.72,3.72,0,0,0,.6,2.25,1.91,1.91,0,0,0,1.64.81,2.1,2.1,0,0,0,2-1.23v-3.88a2.12,2.12,0,0,0-2-1.2,1.91,1.91,0,0,0-1.65.82A4.09,4.09,0,0,0,2234.42,772.87Zm14.92-.11h-3.82v-1.18h3.82Zm6.09,4.24v-7.34h-1.34v-1.12h1.34v-.87a2.86,2.86,0,0,1,.73-2.1,2.73,2.73,0,0,1,2.05-.74,3.73,3.73,0,0,1,1,.13l-.08,1.17a4.06,4.06,0,0,0-.78-.07,1.4,1.4,0,0,0-1.08.41,1.62,1.62,0,0,0-.38,1.17v.89h1.8v1.12h-1.8V777Zm10.07,0a3.11,3.11,0,0,1-.2-.89,3.25,3.25,0,0,1-2.41,1,3,3,0,0,1-2-.7,2.28,2.28,0,0,1-.8-1.8,2.38,2.38,0,0,1,1-2,4.73,4.73,0,0,1,2.83-.73h1.4v-.66a1.62,1.62,0,0,0-.45-1.2,1.82,1.82,0,0,0-1.34-.45,2.1,2.1,0,0,0-1.29.39,1.16,1.16,0,0,0-.53.95h-1.45a2,2,0,0,1,.45-1.22,3,3,0,0,1,1.22-.94,4.1,4.1,0,0,1,1.69-.34,3.33,3.33,0,0,1,2.29.73,2.63,2.63,0,0,1,.86,2V775a4.71,4.71,0,0,0,.3,1.85V777Zm-2.4-1.1a2.56,2.56,0,0,0,1.29-.35,2.09,2.09,0,0,0,.88-.91V772.9h-1.13c-1.77,0-2.66.52-2.66,1.55a1.33,1.33,0,0,0,.46,1.06A1.73,1.73,0,0,0,2263.1,775.9Zm5.53-3.2a5,5,0,0,1,.92-3.12,3.14,3.14,0,0,1,4.77-.17V765h1.45v12h-1.33l-.07-.91a3,3,0,0,1-2.42,1.06,2.9,2.9,0,0,1-2.4-1.2,5.05,5.05,0,0,1-.92-3.14Zm1.45.16a3.79,3.79,0,0,0,.59,2.25,1.92,1.92,0,0,0,1.64.81,2.11,2.11,0,0,0,2-1.23v-3.88a2.13,2.13,0,0,0-2-1.2,1.94,1.94,0,0,0-1.66.82A4.17,4.17,0,0,0,2270.08,772.87Zm11.44,4.29a3.7,3.7,0,0,1-2.79-1.12,4.2,4.2,0,0,1-1.08-3v-.27a5.19,5.19,0,0,1,.47-2.24,3.84,3.84,0,0,1,1.35-1.55,3.37,3.37,0,0,1,1.87-.56,3.18,3.18,0,0,1,2.57,1.09,4.7,4.7,0,0,1,.91,3.11v.6h-5.73a3,3,0,0,0,.73,2,2.31,2.31,0,0,0,1.78.77,2.55,2.55,0,0,0,1.3-.31,3.37,3.37,0,0,0,.93-.83l.88.69A3.55,3.55,0,0,1,2281.52,777.16Zm-.18-7.58a1.9,1.9,0,0,0-1.46.64,3,3,0,0,0-.74,1.78h4.24v-.11a2.75,2.75,0,0,0-.6-1.7A1.8,1.8,0,0,0,2281.34,769.58Zm4.81,3.13a5,5,0,0,1,.92-3.12,2.9,2.9,0,0,1,2.41-1.19,3,3,0,0,1,2.36,1V765h1.44v12h-1.33l-.07-.91a2.94,2.94,0,0,1-2.41,1.06,2.9,2.9,0,0,1-2.4-1.2,5.05,5.05,0,0,1-.92-3.14Zm1.44.16a3.72,3.72,0,0,0,.6,2.25,1.91,1.91,0,0,0,1.64.81,2.13,2.13,0,0,0,2-1.23v-3.88a2.14,2.14,0,0,0-2-1.2,1.92,1.92,0,0,0-1.65.82A4.09,4.09,0,0,0,2287.59,772.87Zm7.56-.17a5.06,5.06,0,0,1,.48-2.23,3.67,3.67,0,0,1,1.36-1.53,3.74,3.74,0,0,1,2-.54,3.53,3.53,0,0,1,2.79,1.2,4.56,4.56,0,0,1,1.07,3.18v.1a5.14,5.14,0,0,1-.47,2.22,3.66,3.66,0,0,1-1.35,1.52,3.75,3.75,0,0,1-2,.55,3.56,3.56,0,0,1-2.79-1.2,4.58,4.58,0,0,1-1.06-3.16Zm1.45.17a3.65,3.65,0,0,0,.65,2.26,2.22,2.22,0,0,0,3.5,0,4,4,0,0,0,.65-2.42,3.54,3.54,0,0,0-.67-2.25,2.18,2.18,0,0,0-3.47,0A3.91,3.91,0,0,0,2296.6,772.87Zm13.28,3.3a3.08,3.08,0,0,1-2.48,1,2.64,2.64,0,0,1-2.06-.78,3.44,3.44,0,0,1-.72-2.33v-5.5h1.45V774q0,1.92,1.56,1.92a2.17,2.17,0,0,0,2.21-1.23v-6.15h1.44V777h-1.37Zm5.57-9.66v2H2317v1.12h-1.57v5.24a1.19,1.19,0,0,0,.21.77.9.9,0,0,0,.72.25,3.45,3.45,0,0,0,.68-.09V777a4.2,4.2,0,0,1-1.11.16,1.81,1.81,0,0,1-1.46-.59,2.5,2.5,0,0,1-.49-1.66v-5.24h-1.54v-1.12H2314v-2Z" transform="translate(-142.82 -56)"/><path d="M1847.43,770.2h-2.63l-.89,4.8h-2l.89-4.8h-2.71v-1.85h3.06l.68-3.67H1841v-1.86h3.19l.92-4.87h2l-.92,4.87h2.64l.91-4.87h2l-.91,4.87h2.43v1.86h-2.79l-.68,3.67h2.59v1.85h-2.94l-.89,4.8h-1.95Zm-2.28-1.85h2.63l.68-3.67h-2.63Zm19.73-1h-7v5.25h8.19V775H1854.9V757.94H1866v2.39h-8.11V765h7Zm10.73.48a4.66,4.66,0,0,1-6.93-.06,6.21,6.21,0,0,1-1.33-4.15,6.83,6.83,0,0,1,.68-3.06,5.08,5.08,0,0,1,1.93-2.13,5.51,5.51,0,0,1,2.91-.76,4.93,4.93,0,0,1,4.09,1.92,8.08,8.08,0,0,1,1.51,5.15v.8q0,4.62-2.09,7t-6.22,2.46h-.34v-2.35h.41a5.87,5.87,0,0,0,3.87-1.21A5.07,5.07,0,0,0,1875.61,767.86Zm-2.74-.71a2.86,2.86,0,0,0,1.6-.49,3.22,3.22,0,0,0,1.16-1.36v-1.11a5.31,5.31,0,0,0-.77-3,2.36,2.36,0,0,0-4-.13,4.87,4.87,0,0,0,0,5.14A2.34,2.34,0,0,0,1872.87,767.15Zm18.26.23h-7v5.25h8.19V775h-11.16V757.94h11.08v2.39h-8.11V765h7Zm10.73.48a4.65,4.65,0,0,1-6.92-.06,6.17,6.17,0,0,1-1.34-4.15,6.83,6.83,0,0,1,.68-3.06,5.08,5.08,0,0,1,1.93-2.13,5.51,5.51,0,0,1,2.91-.76,4.93,4.93,0,0,1,4.09,1.92,8.08,8.08,0,0,1,1.51,5.15v.8c0,3.08-.69,5.43-2.09,7s-3.46,2.44-6.22,2.46h-.34v-2.35h.41a5.87,5.87,0,0,0,3.87-1.21A5.07,5.07,0,0,0,1901.86,767.86Zm-2.74-.71a2.86,2.86,0,0,0,1.6-.49,3.22,3.22,0,0,0,1.16-1.36v-1.11a5.31,5.31,0,0,0-.77-3,2.36,2.36,0,0,0-4-.13,4.87,4.87,0,0,0,0,5.14A2.34,2.34,0,0,0,1899.12,767.15Zm18.26.23h-7v5.25h8.19V775H1907.4V757.94h11.08v2.39h-8.11V765h7Zm10.73.48a4.65,4.65,0,0,1-6.92-.06,6.22,6.22,0,0,1-1.34-4.15,6.83,6.83,0,0,1,.68-3.06,5.08,5.08,0,0,1,1.93-2.13,5.51,5.51,0,0,1,2.91-.76,4.93,4.93,0,0,1,4.09,1.92,8.08,8.08,0,0,1,1.51,5.15v.8q0,4.62-2.08,7t-6.23,2.46h-.34v-2.35h.41a5.87,5.87,0,0,0,3.87-1.21A5.07,5.07,0,0,0,1928.11,767.86Zm-2.74-.71a2.89,2.89,0,0,0,1.61-.49,3.29,3.29,0,0,0,1.16-1.36v-1.11a5.31,5.31,0,0,0-.78-3,2.36,2.36,0,0,0-4-.13,4.29,4.29,0,0,0-.73,2.55,4.22,4.22,0,0,0,.74,2.59A2.34,2.34,0,0,0,1925.37,767.15Z" transform="translate(-142.82 -56)"/><rect x="479.18" y="1014" width="200" height="200" rx="30" ry="30" style="fill:#fff"/><path d="M649.6,1247.07l2-8.75h2.78L650.93,1251h-2.34l-2.72-8.71L643.2,1251h-2.34l-3.47-12.68h2.78l2.05,8.66,2.6-8.66H647Zm9-7.37a4.44,4.44,0,0,1,3.53-1.61q4.05,0,4.11,4.62V1251h-2.85v-8.18a2.47,2.47,0,0,0-.57-1.85,2.27,2.27,0,0,0-1.66-.55,2.75,2.75,0,0,0-2.55,1.52V1251h-2.85v-18h2.85ZM671.7,1251h-2.85v-12.68h2.85Zm-3-16a1.52,1.52,0,0,1,.41-1.09,1.84,1.84,0,0,1,2.39,0,1.61,1.61,0,0,1,0,2.17,1.91,1.91,0,0,1-2.39,0A1.51,1.51,0,0,1,668.68,1235Zm9.22.21v3.08h2.24v2.11H677.9v7.08a1.61,1.61,0,0,0,.28,1.05,1.37,1.37,0,0,0,1,.32,4.29,4.29,0,0,0,1-.12v2.2a7,7,0,0,1-1.87.27c-2.19,0-3.28-1.2-3.28-3.62v-7.18H673v-2.11h2.09v-3.08Zm9.53,16a5.93,5.93,0,0,1-4.39-1.69,6.24,6.24,0,0,1-1.68-4.55v-.35a7.62,7.62,0,0,1,.73-3.39,5.57,5.57,0,0,1,2.06-2.33,5.39,5.39,0,0,1,3-.83,5,5,0,0,1,4,1.65,7,7,0,0,1,1.42,4.67v1.15h-8.29a3.84,3.84,0,0,0,1,2.49,3.17,3.17,0,0,0,2.32.91,3.87,3.87,0,0,0,3.19-1.58l1.54,1.46a5.12,5.12,0,0,1-2,1.77A6.3,6.3,0,0,1,687.43,1251.23Zm-.34-10.86a2.41,2.41,0,0,0-1.9.82,4.3,4.3,0,0,0-.91,2.29h5.43v-.21a3.41,3.41,0,0,0-.76-2.16A2.38,2.38,0,0,0,687.09,1240.37Z" transform="translate(-142.82 -56)"/><path d="M989,1173.2h-3.09l-.94,4.8h-1.68l.94-4.8h-2.8v-1.61h3.1l.81-4.15h-3v-1.63h3.34l1-4.87h1.68l-1,4.87h3.09l1-4.87H993l-1,4.87h2.39v1.63h-2.71l-.81,4.15h2.64v1.61h-2.94l-.94,4.8H988Zm-2.79-1.61h3.09l.81-4.15H987Zm20-1.13H999V1178h-2.25v-17.06h10.57v1.85H999v5.83h7.16Zm13.27,0h-7.16V1178H1010v-17.06h10.57v1.85h-8.32v5.83h7.16Zm13.26,0h-7.16V1178h-2.25v-17.06h10.57v1.85h-8.32v5.83h7.16Zm13.27,0h-7.16V1178h-2.25v-17.06h10.57v1.85h-8.32v5.83H1046Zm13.26,0h-7.16V1178h-2.25v-17.06h10.57v1.85h-8.32v5.83h7.16Zm13.27,0h-7.16V1178h-2.25v-17.06h10.57v1.85h-8.32v5.83h7.16Z" transform="translate(-142.82 -56)"/><path d="M988.58,1201l1.63-6.46h1.45l-2.46,8.45H988l-2.05-6.41-2,6.41h-1.17l-2.45-8.45h1.44l1.66,6.33,2-6.33h1.16Zm6-5.44a3.06,3.06,0,0,1,2.5-1.18c1.79,0,2.69,1,2.7,3V1203h-1.45v-5.59a2,2,0,0,0-.42-1.36,1.67,1.67,0,0,0-1.27-.43,2.09,2.09,0,0,0-1.23.37,2.54,2.54,0,0,0-.83,1v6h-1.45v-12h1.45Zm8.94,7.43h-1.45v-8.45h1.45Zm-1.56-10.7a.87.87,0,0,1,.21-.59.82.82,0,0,1,.64-.24.83.83,0,0,1,.64.24.88.88,0,0,1,.22.59.86.86,0,0,1-.22.59.82.82,0,0,1-.64.23.81.81,0,0,1-.64-.23A.85.85,0,0,1,1002,1192.3Zm5.84.2v2.05h1.58v1.11h-1.58v5.25a1.19,1.19,0,0,0,.21.76.89.89,0,0,0,.72.25,3.7,3.7,0,0,0,.69-.09V1203a4.38,4.38,0,0,1-1.11.16,1.79,1.79,0,0,1-1.46-.59,2.51,2.51,0,0,1-.5-1.66v-5.25h-1.54v-1.11h1.54v-2.05Zm6.78,10.66a3.71,3.71,0,0,1-2.8-1.13,4.18,4.18,0,0,1-1.07-3v-.27a5,5,0,0,1,.47-2.24,3.71,3.71,0,0,1,1.35-1.55,3.39,3.39,0,0,1,1.87-.56,3.14,3.14,0,0,1,2.56,1.09,4.69,4.69,0,0,1,.92,3.11v.6h-5.73a3,3,0,0,0,.73,2,2.32,2.32,0,0,0,1.78.77,2.53,2.53,0,0,0,1.3-.32,3.27,3.27,0,0,0,.93-.82l.88.68A3.55,3.55,0,0,1,1014.57,1203.16Zm-.18-7.58a1.93,1.93,0,0,0-1.47.64,3.06,3.06,0,0,0-.73,1.78h4.23v-.11a2.75,2.75,0,0,0-.59-1.7A1.82,1.82,0,0,0,1014.39,1195.58Z" transform="translate(-142.82 -56)"/><path d="M988.25,1226.87a5,5,0,0,1-.89,3.11,2.83,2.83,0,0,1-2.39,1.18,2.94,2.94,0,0,1-2.48-1.14l-.07,1h-1.33v-12h1.45v4.48a2.92,2.92,0,0,1,2.41-1.09,2.86,2.86,0,0,1,2.41,1.16,5.17,5.17,0,0,1,.88,3.19Zm-1.45-.17a3.91,3.91,0,0,0-.57-2.28,1.9,1.9,0,0,0-1.64-.8,2.12,2.12,0,0,0-2.05,1.33v3.65a2.18,2.18,0,0,0,2.07,1.33,1.88,1.88,0,0,0,1.62-.81A4.13,4.13,0,0,0,986.8,1226.7Zm8.49,4.3a3,3,0,0,1-.2-.89,3.22,3.22,0,0,1-2.41,1.05,3,3,0,0,1-2.05-.71,2.29,2.29,0,0,1-.8-1.79,2.38,2.38,0,0,1,1-2.05,4.73,4.73,0,0,1,2.83-.73h1.41v-.67a1.6,1.6,0,0,0-.45-1.2,1.82,1.82,0,0,0-1.34-.46,2.06,2.06,0,0,0-1.3.4,1.14,1.14,0,0,0-.52.94H990a2,2,0,0,1,.45-1.22,3.15,3.15,0,0,1,1.22-.94,4.28,4.28,0,0,1,1.7-.34,3.38,3.38,0,0,1,2.29.73,2.64,2.64,0,0,1,.86,2V1229a4.81,4.81,0,0,0,.3,1.86v.12Zm-2.4-1.1a2.59,2.59,0,0,0,1.29-.35,2.14,2.14,0,0,0,.88-.92v-1.73h-1.13c-1.77,0-2.66.52-2.66,1.55a1.33,1.33,0,0,0,.45,1.07A1.77,1.77,0,0,0,992.9,1229.9Zm9.27.08a2.07,2.07,0,0,0,1.35-.47,1.63,1.63,0,0,0,.64-1.17h1.37a2.56,2.56,0,0,1-.5,1.38,3.32,3.32,0,0,1-1.23,1.05,3.56,3.56,0,0,1-1.63.39,3.51,3.51,0,0,1-2.75-1.15,4.63,4.63,0,0,1-1-3.16v-.24a5.12,5.12,0,0,1,.45-2.2,3.48,3.48,0,0,1,1.3-1.49,3.71,3.71,0,0,1,2-.53,3.35,3.35,0,0,1,2.36.85,3,3,0,0,1,1,2.21h-1.37a2,2,0,0,0-.62-1.34,1.93,1.93,0,0,0-1.38-.53,2,2,0,0,0-1.71.8,3.69,3.69,0,0,0-.6,2.28v.28a3.67,3.67,0,0,0,.6,2.25A2.06,2.06,0,0,0,1002.17,1230Zm7.35-2.89-.91.94v3h-1.45v-12h1.45v7.26l.77-.93,2.64-2.78h1.75l-3.29,3.53,3.68,4.92h-1.7Zm5.25-.39a5,5,0,0,1,.91-3.14,3.16,3.16,0,0,1,4.84-.08l.07-.93h1.32v8.25a3.43,3.43,0,0,1-1,2.58,3.59,3.59,0,0,1-2.61.95,4.34,4.34,0,0,1-1.79-.39,3.06,3.06,0,0,1-1.33-1.07l.75-.87a2.8,2.8,0,0,0,2.27,1.15,2.19,2.19,0,0,0,1.64-.6,2.23,2.23,0,0,0,.59-1.67v-.72a3,3,0,0,1-2.36,1,2.89,2.89,0,0,1-2.41-1.2A5.24,5.24,0,0,1,1014.77,1226.7Zm1.45.17a3.83,3.83,0,0,0,.58,2.25,1.93,1.93,0,0,0,1.65.81,2.1,2.1,0,0,0,2-1.24v-3.86a2.13,2.13,0,0,0-2-1.21,1.93,1.93,0,0,0-1.65.82A4.15,4.15,0,0,0,1016.22,1226.87Zm12-3a5.29,5.29,0,0,0-.71,0,1.9,1.9,0,0,0-1.93,1.21v6h-1.45v-8.45h1.41l0,1a2.27,2.27,0,0,1,2-1.13,1.54,1.54,0,0,1,.64.11Zm.8,2.86a5.08,5.08,0,0,1,.48-2.24,3.6,3.6,0,0,1,3.35-2.07,3.55,3.55,0,0,1,2.79,1.2,4.54,4.54,0,0,1,1.07,3.18v.1a5.16,5.16,0,0,1-.47,2.22,3.65,3.65,0,0,1-1.36,1.52,3.74,3.74,0,0,1-2,.55,3.55,3.55,0,0,1-2.79-1.2,4.58,4.58,0,0,1-1.06-3.16Zm1.45.17a3.62,3.62,0,0,0,.65,2.25,2.21,2.21,0,0,0,3.5,0,4,4,0,0,0,.65-2.42,3.53,3.53,0,0,0-.67-2.25,2.09,2.09,0,0,0-1.75-.87,2.05,2.05,0,0,0-1.72.85A3.92,3.92,0,0,0,1030.43,1226.87Zm13.27,3.29a3,3,0,0,1-2.47,1,2.68,2.68,0,0,1-2.07-.78,3.52,3.52,0,0,1-.71-2.33v-5.5h1.45V1228q0,1.92,1.56,1.92a2.15,2.15,0,0,0,2.2-1.23v-6.15h1.45V1231h-1.38Zm3.26-3.46a5,5,0,0,1,.92-3.12,3.13,3.13,0,0,1,4.77-.17V1219h1.44v12h-1.32l-.07-.91a3,3,0,0,1-2.42,1.07,2.89,2.89,0,0,1-2.4-1.21,5,5,0,0,1-.92-3.14Zm1.45.17a3.71,3.71,0,0,0,.59,2.25,1.92,1.92,0,0,0,1.64.81,2.11,2.11,0,0,0,2-1.23v-3.89a2.13,2.13,0,0,0-2-1.19,1.93,1.93,0,0,0-1.66.82A4.07,4.07,0,0,0,1048.41,1226.87Zm12.86,1.89a1.06,1.06,0,0,0-.45-.91,4.15,4.15,0,0,0-1.54-.56,7.41,7.41,0,0,1-1.74-.56,2.45,2.45,0,0,1-1-.78,1.88,1.88,0,0,1-.31-1.08,2.18,2.18,0,0,1,.88-1.76,3.41,3.41,0,0,1,2.25-.72,3.53,3.53,0,0,1,2.32.74,2.36,2.36,0,0,1,.9,1.9h-1.45a1.29,1.29,0,0,0-.51-1,1.84,1.84,0,0,0-1.26-.43,2,2,0,0,0-1.24.34,1.1,1.1,0,0,0-.44.9.87.87,0,0,0,.41.79,5,5,0,0,0,1.49.51,7.39,7.39,0,0,1,1.76.58,2.41,2.41,0,0,1,1,.81,1.93,1.93,0,0,1,.33,1.15,2.17,2.17,0,0,1-.91,1.82,3.81,3.81,0,0,1-2.35.68,4.24,4.24,0,0,1-1.79-.36,3.06,3.06,0,0,1-1.23-1,2.49,2.49,0,0,1-.44-1.4h1.45a1.48,1.48,0,0,0,.58,1.15,2.22,2.22,0,0,0,1.43.43,2.35,2.35,0,0,0,1.32-.33A1,1,0,0,0,1061.27,1228.76Zm10.3-2h-3.81v-1.18h3.81Zm7.34-6.26v2.05h1.58v1.11h-1.58v5.25a1.19,1.19,0,0,0,.21.76.91.91,0,0,0,.72.25,3.61,3.61,0,0,0,.69-.09V1231a4.38,4.38,0,0,1-1.11.16,1.81,1.81,0,0,1-1.46-.59,2.51,2.51,0,0,1-.49-1.66v-5.25h-1.54v-1.11h1.54v-2.05Zm6.79,10.66a3.71,3.71,0,0,1-2.8-1.13,4.18,4.18,0,0,1-1.08-3v-.27a5,5,0,0,1,.48-2.24,3.76,3.76,0,0,1,1.34-1.55,3.42,3.42,0,0,1,1.88-.56,3.16,3.16,0,0,1,2.56,1.09,4.69,4.69,0,0,1,.91,3.11v.6h-5.72a3,3,0,0,0,.72,2,2.32,2.32,0,0,0,1.78.77,2.5,2.5,0,0,0,1.3-.32,3.27,3.27,0,0,0,.93-.82l.88.68A3.55,3.55,0,0,1,1085.7,1231.16Zm-.18-7.58a1.9,1.9,0,0,0-1.47.64,3.07,3.07,0,0,0-.74,1.78h4.24v-.11a2.69,2.69,0,0,0-.6-1.7A1.78,1.78,0,0,0,1085.52,1223.58Zm8,2.05,1.87-3.08h1.69l-2.77,4.18,2.86,4.27h-1.68l-1.95-3.16-2,3.16h-1.68l2.85-4.27-2.77-4.18h1.68Zm7.06-5.13v2.05h1.58v1.11h-1.58v5.25a1.19,1.19,0,0,0,.21.76.89.89,0,0,0,.72.25,3.61,3.61,0,0,0,.69-.09V1231a4.38,4.38,0,0,1-1.11.16,1.8,1.8,0,0,1-1.46-.59,2.51,2.51,0,0,1-.5-1.66v-5.25h-1.53v-1.11h1.53v-2.05Z" transform="translate(-142.82 -56)"/><path d="M646.43,1224.2H643.8l-.89,4.8h-2l.89-4.8h-2.71v-1.86h3.06l.68-3.66H640v-1.87h3.2l.91-4.87h2l-.91,4.87h2.64l.91-4.87h2l-.91,4.87h2.44v1.87h-2.79l-.68,3.66h2.59v1.86h-2.94l-.89,4.8h-2Zm-2.27-1.86h2.63l.68-3.66h-2.62Zm19.58-.57h-6.87V1229h-3v-17.06h10.84v2.39h-7.87v5.07h6.87Zm12.72,0h-6.87V1229h-3v-17.06h10.84v2.39h-7.87v5.07h6.87Zm12.71,0H682.3V1229h-3v-17.06h10.84v2.39H682.3v5.07h6.87Zm12.72,0H695V1229h-3v-17.06h10.84v2.39H695v5.07h6.87Zm12.72,0h-6.87V1229h-3v-17.06H715.6v2.39h-7.87v5.07h6.87Zm12.71,0h-6.87V1229h-3v-17.06h10.84v2.39h-7.87v5.07h6.87Z" transform="translate(-142.82 -56)"/><rect x="479.18" y="734" width="200" height="200" rx="30" ry="30" style="fill:#1d2527"/><path d="M637.93,964.57a7.51,7.51,0,0,1,1.36-4.7,4.35,4.35,0,0,1,3.65-1.78,4.14,4.14,0,0,1,3.26,1.41V953H649v18h-2.58l-.14-1.31a4.2,4.2,0,0,1-3.41,1.55,4.34,4.34,0,0,1-3.61-1.79A7.84,7.84,0,0,1,637.93,964.57Zm2.85.25a5.34,5.34,0,0,0,.74,3,2.43,2.43,0,0,0,2.12,1.08,2.69,2.69,0,0,0,2.55-1.56v-5.41a2.65,2.65,0,0,0-2.53-1.52,2.43,2.43,0,0,0-2.13,1.1A5.84,5.84,0,0,0,640.77,964.81ZM659.1,971a4.41,4.41,0,0,1-.33-1.18,4.79,4.79,0,0,1-6.45.33,3.49,3.49,0,0,1-1.21-2.7,3.59,3.59,0,0,1,1.5-3.1,7.29,7.29,0,0,1,4.31-1.09h1.75v-.83a2.19,2.19,0,0,0-.55-1.57,2.17,2.17,0,0,0-1.68-.6,2.49,2.49,0,0,0-1.59.49,1.49,1.49,0,0,0-.62,1.23h-2.85a3.14,3.14,0,0,1,.69-1.95A4.57,4.57,0,0,1,654,958.6a6.64,6.64,0,0,1,2.66-.52,5.3,5.3,0,0,1,3.55,1.13,4,4,0,0,1,1.36,3.14v5.72a6.49,6.49,0,0,0,.48,2.73v.2ZM656,968.95a3.21,3.21,0,0,0,1.58-.41,2.73,2.73,0,0,0,1.13-1.1V965h-1.53a4.19,4.19,0,0,0-2.38.55,1.78,1.78,0,0,0-.8,1.56,1.69,1.69,0,0,0,.54,1.31A2.15,2.15,0,0,0,656,968.95Zm14.7-8a7,7,0,0,0-1.16-.09,2.61,2.61,0,0,0-2.64,1.5V971H664V958.32h2.72l.07,1.42a3.21,3.21,0,0,1,2.86-1.65,2.68,2.68,0,0,1,1,.16Zm5.44,4.64-1.27,1.3V971H672V953h2.85v10.38l.89-1.11,3.5-4h3.42l-4.71,5.28,5.21,7.4h-3.29Z" transform="translate(-142.82 -56)" style="fill:#fff"/><path d="M989,893.2h-3.09l-.94,4.8h-1.68l.94-4.8h-2.8v-1.6h3.1l.81-4.15h-3v-1.63h3.34l1-4.87h1.68l-1,4.87h3.09l1-4.87H993l-1,4.87h2.39v1.63h-2.71l-.81,4.15h2.64v1.6h-2.94l-.94,4.8H988Zm-2.79-1.6h3.09l.81-4.15H987Zm17.15,6.41h-2.18V883.55l-4.37,1.6v-2l6.21-2.33h.34Zm6.92,0V880.94h4.81a7.75,7.75,0,0,1,3.94,1,6.65,6.65,0,0,1,2.64,2.8,9.16,9.16,0,0,1,1,4.17V890a9.16,9.16,0,0,1-.94,4.23A6.56,6.56,0,0,1,1019,897a8.23,8.23,0,0,1-4,1Zm2.25-15.21v13.37h2.36a5.14,5.14,0,0,0,4-1.62,6.65,6.65,0,0,0,1.45-4.61v-1a6.76,6.76,0,0,0-1.37-4.51,4.85,4.85,0,0,0-3.87-1.64ZM1036.61,898h-11.18v-1.56l5.91-6.56a13.65,13.65,0,0,0,1.8-2.41,4,4,0,0,0,.51-1.93,3.06,3.06,0,0,0-.81-2.19,2.84,2.84,0,0,0-2.16-.86,3.38,3.38,0,0,0-2.52.93,3.52,3.52,0,0,0-.89,2.56h-2.16a5,5,0,0,1,1.51-3.81,5.63,5.63,0,0,1,4.06-1.45,5.42,5.42,0,0,1,3.77,1.25,4.24,4.24,0,0,1,1.38,3.32q0,2.52-3.21,6l-4.57,5h8.56Zm3.3-8.55.86-8.51h8.75v2h-6.91l-.51,4.65a5.48,5.48,0,0,1,2.85-.74,4.71,4.71,0,0,1,3.7,1.55,6,6,0,0,1,1.37,4.16,5.85,5.85,0,0,1-1.43,4.16,5.19,5.19,0,0,1-4,1.51,5.38,5.38,0,0,1-3.69-1.25,5,5,0,0,1-1.63-3.47h2a3.47,3.47,0,0,0,1,2.21,3.27,3.27,0,0,0,2.23.74,2.91,2.91,0,0,0,2.36-1,4.28,4.28,0,0,0,.87-2.85,3.9,3.9,0,0,0-.94-2.74,3.13,3.13,0,0,0-2.47-1,3.6,3.6,0,0,0-2.23.62l-.57.47Zm23.66,8.55h-11.18v-1.56l5.9-6.56a13.8,13.8,0,0,0,1.81-2.41,4.1,4.1,0,0,0,.5-1.93,3.06,3.06,0,0,0-.81-2.19,2.81,2.81,0,0,0-2.15-.86,3.35,3.35,0,0,0-2.52.93,3.48,3.48,0,0,0-.89,2.56h-2.17a5,5,0,0,1,1.51-3.81,5.66,5.66,0,0,1,4.07-1.45,5.39,5.39,0,0,1,3.76,1.25,4.24,4.24,0,0,1,1.38,3.32q0,2.52-3.21,6l-4.57,5h8.57Zm13.31-15.84L1069.81,898h-2.27l7-15.28h-9.23v-1.78h11.53Z" transform="translate(-142.82 -56)"/><path d="M980.74,918.7a4.93,4.93,0,0,1,.92-3.12,3.13,3.13,0,0,1,4.77-.17V911h1.45v12h-1.33l-.07-.91a3,3,0,0,1-2.41,1.06,2.9,2.9,0,0,1-2.4-1.2,5,5,0,0,1-.92-3.14Zm1.45.16a3.75,3.75,0,0,0,.59,2.25,1.92,1.92,0,0,0,1.64.81,2.11,2.11,0,0,0,2-1.23v-3.88a2.13,2.13,0,0,0-2-1.2,1.93,1.93,0,0,0-1.66.82A4.12,4.12,0,0,0,982.19,918.87ZM995.34,923a3,3,0,0,1-.2-.89,3.23,3.23,0,0,1-2.41,1,3,3,0,0,1-2.05-.7,2.3,2.3,0,0,1-.8-1.8,2.38,2.38,0,0,1,1-2,4.74,4.74,0,0,1,2.83-.73h1.41v-.66a1.61,1.61,0,0,0-.45-1.2,1.81,1.81,0,0,0-1.34-.45,2.11,2.11,0,0,0-1.3.39,1.15,1.15,0,0,0-.52.95h-1.45a2,2,0,0,1,.45-1.22,3.09,3.09,0,0,1,1.22-.94,4.12,4.12,0,0,1,1.7-.34,3.33,3.33,0,0,1,2.29.73,2.62,2.62,0,0,1,.86,2V921a4.76,4.76,0,0,0,.3,1.85V923Zm-2.4-1.1a2.54,2.54,0,0,0,1.29-.35,2.12,2.12,0,0,0,.88-.91V918.9H994q-2.66,0-2.66,1.55a1.32,1.32,0,0,0,.45,1.06A1.74,1.74,0,0,0,992.95,921.9Zm10-6.05a4.15,4.15,0,0,0-.71-.05,1.91,1.91,0,0,0-1.93,1.21v6h-1.44v-8.45h1.4l0,1a2.24,2.24,0,0,1,2-1.13,1.46,1.46,0,0,1,.64.11Zm3.7,3.24-.91.95v3h-1.44V911h1.44v7.26l.78-.93,2.63-2.78h1.76l-3.29,3.53,3.67,4.92h-1.7Z" transform="translate(-142.82 -56)"/><path d="M988.25,946.87a5,5,0,0,1-.89,3.12,2.85,2.85,0,0,1-2.39,1.17,3,3,0,0,1-2.48-1.13l-.07,1h-1.33V939h1.45v4.48a2.93,2.93,0,0,1,2.41-1.09,2.85,2.85,0,0,1,2.41,1.16,5.16,5.16,0,0,1,.88,3.19Zm-1.45-.16a3.9,3.9,0,0,0-.57-2.28,1.89,1.89,0,0,0-1.64-.8,2.12,2.12,0,0,0-2.05,1.33v3.66a2.18,2.18,0,0,0,2.07,1.33,1.88,1.88,0,0,0,1.62-.8A4.16,4.16,0,0,0,986.8,946.7Zm8.49,4.3a3.05,3.05,0,0,1-.2-.89,3.22,3.22,0,0,1-2.41,1,3,3,0,0,1-2.05-.7,2.31,2.31,0,0,1-.8-1.8,2.38,2.38,0,0,1,1-2,4.74,4.74,0,0,1,2.83-.73h1.41v-.66a1.61,1.61,0,0,0-.45-1.2,1.81,1.81,0,0,0-1.34-.45,2.11,2.11,0,0,0-1.3.39,1.15,1.15,0,0,0-.52.95H990a2,2,0,0,1,.45-1.22,3.09,3.09,0,0,1,1.22-.94,4.13,4.13,0,0,1,1.7-.34,3.33,3.33,0,0,1,2.29.73,2.62,2.62,0,0,1,.86,2V949a4.78,4.78,0,0,0,.3,1.85V951Zm-2.4-1.1a2.55,2.55,0,0,0,1.29-.35,2.13,2.13,0,0,0,.88-.91V946.9h-1.13q-2.66,0-2.66,1.55a1.32,1.32,0,0,0,.45,1.06A1.74,1.74,0,0,0,992.9,949.9Zm9.27.08a2.06,2.06,0,0,0,1.35-.47,1.63,1.63,0,0,0,.64-1.17h1.37a2.55,2.55,0,0,1-.5,1.38,3.35,3.35,0,0,1-1.23,1,3.56,3.56,0,0,1-1.63.39,3.49,3.49,0,0,1-2.75-1.15,4.62,4.62,0,0,1-1-3.16v-.24a5.09,5.09,0,0,1,.45-2.2,3.44,3.44,0,0,1,1.3-1.49,3.67,3.67,0,0,1,2-.53,3.36,3.36,0,0,1,2.36.85,3,3,0,0,1,1,2.21h-1.37a2,2,0,0,0-.62-1.34,1.92,1.92,0,0,0-1.38-.53,2,2,0,0,0-1.71.8,3.73,3.73,0,0,0-.6,2.29v.27a3.66,3.66,0,0,0,.6,2.25A2,2,0,0,0,1002.17,950Zm7.35-2.89-.91.95v3h-1.45V939h1.45v7.26l.77-.93,2.64-2.78h1.75l-3.29,3.53,3.68,4.92h-1.7Zm5.25-.38a5,5,0,0,1,.91-3.14,3.15,3.15,0,0,1,4.84-.08l.07-.94h1.32v8.25a3.44,3.44,0,0,1-1,2.59,3.59,3.59,0,0,1-2.61.95,4.34,4.34,0,0,1-1.79-.39,3,3,0,0,1-1.33-1.07l.75-.87a2.81,2.81,0,0,0,2.27,1.15,2.2,2.2,0,0,0,1.64-.59,2.24,2.24,0,0,0,.59-1.67v-.73a2.94,2.94,0,0,1-2.36,1,2.9,2.9,0,0,1-2.41-1.2A5.24,5.24,0,0,1,1014.77,946.7Zm1.45.16a3.81,3.81,0,0,0,.58,2.25,1.93,1.93,0,0,0,1.65.81,2.1,2.1,0,0,0,2-1.24v-3.86a2.13,2.13,0,0,0-2-1.21,1.93,1.93,0,0,0-1.65.82A4.17,4.17,0,0,0,1016.22,946.87Zm12-3a4.32,4.32,0,0,0-.71-.05,1.9,1.9,0,0,0-1.93,1.21v6h-1.45v-8.45h1.41l0,1a2.26,2.26,0,0,1,2-1.13,1.49,1.49,0,0,1,.64.11Zm.8,2.85a5.06,5.06,0,0,1,.48-2.23,3.67,3.67,0,0,1,1.36-1.53,3.71,3.71,0,0,1,2-.54,3.56,3.56,0,0,1,2.79,1.2,4.56,4.56,0,0,1,1.07,3.18v.1a5.13,5.13,0,0,1-.47,2.22,3.61,3.61,0,0,1-1.36,1.52,3.69,3.69,0,0,1-2,.55A3.56,3.56,0,0,1,1030,950a4.58,4.58,0,0,1-1.06-3.16Zm1.45.17a3.65,3.65,0,0,0,.65,2.26,2.22,2.22,0,0,0,3.5,0,4,4,0,0,0,.65-2.42,3.54,3.54,0,0,0-.67-2.25,2.09,2.09,0,0,0-1.75-.87,2.06,2.06,0,0,0-1.72.85A3.91,3.91,0,0,0,1030.43,946.87Zm13.27,3.3a3,3,0,0,1-2.47,1,2.67,2.67,0,0,1-2.07-.78,3.5,3.5,0,0,1-.71-2.33v-5.5h1.45V948q0,1.92,1.56,1.92a2.15,2.15,0,0,0,2.2-1.23v-6.15h1.45V951h-1.38Zm5-7.62,0,1.06a3.07,3.07,0,0,1,2.53-1.22c1.78,0,2.69,1,2.7,3V951h-1.44v-5.59a1.94,1.94,0,0,0-.43-1.35,1.65,1.65,0,0,0-1.27-.44,2.06,2.06,0,0,0-1.23.38,2.52,2.52,0,0,0-.83,1v6h-1.45v-8.45Zm7.11,4.16a5,5,0,0,1,.92-3.12,2.92,2.92,0,0,1,2.41-1.19,3,3,0,0,1,2.36,1V939h1.44v12h-1.33l-.07-.91a3.12,3.12,0,0,1-4.81-.14,5.05,5.05,0,0,1-.92-3.14Zm1.44.16a3.72,3.72,0,0,0,.6,2.25,1.91,1.91,0,0,0,1.64.81,2.12,2.12,0,0,0,2-1.23v-3.88a2.14,2.14,0,0,0-2-1.2,1.92,1.92,0,0,0-1.65.82A4.09,4.09,0,0,0,1057.23,946.87Zm14.92-.11h-3.81v-1.18h3.81Zm6.95,4.24h-1.44v-8.45h1.44Zm-1.56-10.7a.87.87,0,0,1,.21-.59.82.82,0,0,1,.64-.24.81.81,0,0,1,.64.24.83.83,0,0,1,.22.59.81.81,0,0,1-.22.59.83.83,0,0,1-.64.23.77.77,0,0,1-.85-.82Zm7.27,9.67a2.06,2.06,0,0,0,1.35-.47,1.63,1.63,0,0,0,.64-1.17h1.37a2.55,2.55,0,0,1-.5,1.38,3.35,3.35,0,0,1-1.23,1,3.77,3.77,0,0,1-4.38-.76,4.65,4.65,0,0,1-1-3.16v-.24a5.12,5.12,0,0,1,.45-2.2,3.4,3.4,0,0,1,1.3-1.49,3.67,3.67,0,0,1,2-.53,3.36,3.36,0,0,1,2.36.85,3,3,0,0,1,1,2.21h-1.37a2,2,0,0,0-.62-1.34,1.92,1.92,0,0,0-1.38-.53,2,2,0,0,0-1.71.8,3.73,3.73,0,0,0-.6,2.29v.27a3.66,3.66,0,0,0,.6,2.25A2,2,0,0,0,1084.81,950Zm4.6-3.28a5.07,5.07,0,0,1,.49-2.23,3.67,3.67,0,0,1,1.36-1.53,3.71,3.71,0,0,1,2-.54,3.56,3.56,0,0,1,2.79,1.2,4.61,4.61,0,0,1,1.07,3.18v.1a5,5,0,0,1-.48,2.22,3.53,3.53,0,0,1-1.35,1.52,3.69,3.69,0,0,1-2,.55,3.56,3.56,0,0,1-2.79-1.2,4.58,4.58,0,0,1-1.07-3.16Zm1.46.17a3.58,3.58,0,0,0,.65,2.26,2.22,2.22,0,0,0,3.5,0,4,4,0,0,0,.64-2.42,3.59,3.59,0,0,0-.66-2.25,2.19,2.19,0,0,0-3.48,0A4,4,0,0,0,1090.87,946.87Zm9.42-4.32,0,1.06a3.07,3.07,0,0,1,2.53-1.22q2.67,0,2.7,3V951h-1.45v-5.59a1.89,1.89,0,0,0-.42-1.35,1.65,1.65,0,0,0-1.27-.44,2.06,2.06,0,0,0-1.23.38,2.52,2.52,0,0,0-.83,1v6h-1.45v-8.45Zm12.38,6.21a1.06,1.06,0,0,0-.44-.91,4.24,4.24,0,0,0-1.54-.56,7.31,7.31,0,0,1-1.74-.56,2.54,2.54,0,0,1-1-.78,1.91,1.91,0,0,1-.3-1.08,2.2,2.2,0,0,1,.87-1.76,3.45,3.45,0,0,1,2.25-.72,3.51,3.51,0,0,1,2.33.74,2.35,2.35,0,0,1,.9,1.9h-1.45a1.3,1.3,0,0,0-.51-1,1.89,1.89,0,0,0-1.27-.43,2,2,0,0,0-1.23.34,1.08,1.08,0,0,0-.45.9.87.87,0,0,0,.42.79,5,5,0,0,0,1.49.51,8,8,0,0,1,1.76.58,2.53,2.53,0,0,1,1,.81,1.94,1.94,0,0,1,.33,1.15,2.16,2.16,0,0,1-.91,1.82,3.81,3.81,0,0,1-2.35.68,4.27,4.27,0,0,1-1.8-.36,2.91,2.91,0,0,1-1.22-1,2.4,2.4,0,0,1-.44-1.4h1.44a1.53,1.53,0,0,0,.58,1.16,2.72,2.72,0,0,0,2.75.09A1,1,0,0,0,1112.67,948.76Z" transform="translate(-142.82 -56)"/><path d="M646.43,944.2H643.8l-.89,4.8h-2l.89-4.8h-2.71v-1.85h3.06l.68-3.67H640v-1.86h3.2l.91-4.87h2l-.91,4.87h2.64l.91-4.87h2l-.91,4.87h2.44v1.86h-2.79l-.68,3.67h2.59v1.85h-2.94l-.89,4.8h-2Zm-2.27-1.85h2.63l.68-3.67h-2.62Zm17,6.66h-2.84V935.3l-4.18,1.43v-2.4l6.66-2.45h.36Zm5.91,0V931.94h5a7.87,7.87,0,0,1,4,1,6.86,6.86,0,0,1,2.72,2.86,9.07,9.07,0,0,1,1,4.24v.85a9,9,0,0,1-1,4.27,6.73,6.73,0,0,1-2.75,2.84,8.23,8.23,0,0,1-4.09,1Zm3-14.67v12.3H672a4.44,4.44,0,0,0,3.57-1.45,6.36,6.36,0,0,0,1.28-4.2V940a6.52,6.52,0,0,0-1.21-4.24,4.28,4.28,0,0,0-3.5-1.47ZM693.28,949H681.81v-2l5.68-6.2a14,14,0,0,0,1.75-2.28,3.72,3.72,0,0,0,.53-1.85,2.79,2.79,0,0,0-.69-2,2.36,2.36,0,0,0-1.84-.75,2.74,2.74,0,0,0-2.15.84,3.32,3.32,0,0,0-.76,2.31h-2.85a5.58,5.58,0,0,1,.7-2.8,4.91,4.91,0,0,1,2-1.95,6.49,6.49,0,0,1,3-.69,5.73,5.73,0,0,1,3.91,1.25,4.31,4.31,0,0,1,1.44,3.45,5.85,5.85,0,0,1-.73,2.68,15.09,15.09,0,0,1-2.35,3.18l-4.17,4.46h7.92Zm2.45-8.46.93-8.6h9.16v2.46H699l-.47,4.08a5.26,5.26,0,0,1,2.67-.68,4.74,4.74,0,0,1,3.79,1.56,6.16,6.16,0,0,1,1.36,4.2,5.7,5.7,0,0,1-1.5,4.15,5.48,5.48,0,0,1-4.11,1.54,5.77,5.77,0,0,1-3.89-1.32,4.84,4.84,0,0,1-1.66-3.51H698a3,3,0,0,0,.89,1.91,2.72,2.72,0,0,0,1.9.66,2.43,2.43,0,0,0,2-.94,4,4,0,0,0,.74-2.55,3.55,3.55,0,0,0-.81-2.46,2.82,2.82,0,0,0-2.23-.91,3.16,3.16,0,0,0-2.48,1ZM719.6,949H708.13v-2l5.68-6.2a14,14,0,0,0,1.75-2.28,3.71,3.71,0,0,0,.53-1.85,2.79,2.79,0,0,0-.69-2,2.36,2.36,0,0,0-1.84-.75,2.74,2.74,0,0,0-2.14.84,3.32,3.32,0,0,0-.76,2.31H707.8a5.59,5.59,0,0,1,.7-2.8,4.91,4.91,0,0,1,2-1.95,6.48,6.48,0,0,1,3-.69,5.73,5.73,0,0,1,3.91,1.25,4.31,4.31,0,0,1,1.44,3.45,5.85,5.85,0,0,1-.73,2.68,15.09,15.09,0,0,1-2.36,3.18l-4.17,4.46h7.92Zm13-15.48L725.82,949h-3l6.81-14.78h-8.82v-2.29h11.82Z" transform="translate(-142.82 -56)" style="fill:#fff"/><path d="M622,654H822v26a30,30,0,0,1-30,30H652a30,30,0,0,1-30-30Z" transform="translate(-142.82 -56)" style="fill:#eaf6fa"/><path d="M622,626H822v26a30,30,0,0,1-30,30H652a30,30,0,0,1-30-30Z" transform="translate(-142.82 -56)" style="fill:#b9d1d9"/><path d="M622,599H822v26a30,30,0,0,1-30,30H652a30,30,0,0,1-30-30Z" transform="translate(-142.82 -56)" style="fill:#7fa4b0"/><rect x="479.18" y="370" width="200" height="200" rx="30" ry="30" style="fill:#517f8e"/><path d="M645.57,603.55a1.29,1.29,0,0,0-.63-1.16,6.6,6.6,0,0,0-2.08-.7,10.71,10.71,0,0,1-2.42-.77,3.24,3.24,0,0,1-2.13-3,3.37,3.37,0,0,1,1.38-2.74,5.46,5.46,0,0,1,3.51-1.1,5.66,5.66,0,0,1,3.67,1.13,3.56,3.56,0,0,1,1.41,2.92h-2.85a1.73,1.73,0,0,0-.61-1.36,2.31,2.31,0,0,0-1.62-.55,2.55,2.55,0,0,0-1.53.43,1.37,1.37,0,0,0-.59,1.16,1.15,1.15,0,0,0,.55,1,7.65,7.65,0,0,0,2.23.74,10.09,10.09,0,0,1,2.63.88,3.62,3.62,0,0,1,1.42,1.22,3.09,3.09,0,0,1,.47,1.73,3.32,3.32,0,0,1-1.42,2.78,6.07,6.07,0,0,1-3.71,1.05,6.56,6.56,0,0,1-2.78-.56,4.57,4.57,0,0,1-1.9-1.55,3.65,3.65,0,0,1-.68-2.12h2.77a2,2,0,0,0,.76,1.56,3,3,0,0,0,1.86.54,2.91,2.91,0,0,0,1.71-.42A1.34,1.34,0,0,0,645.57,603.55Zm10.4,3.68a5.92,5.92,0,0,1-4.39-1.7,6.22,6.22,0,0,1-1.68-4.55v-.35a7.61,7.61,0,0,1,.73-3.39,5.6,5.6,0,0,1,2.06-2.33,5.43,5.43,0,0,1,3-.83,5,5,0,0,1,4,1.65,7,7,0,0,1,1.42,4.68v1.15h-8.28a3.83,3.83,0,0,0,1,2.48,3.17,3.17,0,0,0,2.32.91,3.86,3.86,0,0,0,3.19-1.58l1.54,1.46a5.16,5.16,0,0,1-2,1.77A6.38,6.38,0,0,1,656,607.23Zm-.34-10.86a2.42,2.42,0,0,0-1.9.82,4.29,4.29,0,0,0-.91,2.29h5.43v-.21a3.44,3.44,0,0,0-.76-2.16A2.37,2.37,0,0,0,655.62,596.37ZM668,605a2.58,2.58,0,0,0,1.77-.62,2.13,2.13,0,0,0,.75-1.54h2.68a4.21,4.21,0,0,1-.74,2.22,4.87,4.87,0,0,1-1.87,1.62,5.59,5.59,0,0,1-2.55.6,5.41,5.41,0,0,1-4.22-1.72,6.84,6.84,0,0,1-1.56-4.76v-.29a6.69,6.69,0,0,1,1.55-4.63,5.35,5.35,0,0,1,4.22-1.75,5.17,5.17,0,0,1,3.68,1.32,4.69,4.69,0,0,1,1.5,3.46h-2.68a2.6,2.6,0,0,0-.75-1.79,2.37,2.37,0,0,0-1.77-.7,2.5,2.5,0,0,0-2.13,1,5.08,5.08,0,0,0-.76,3v.46a5.26,5.26,0,0,0,.74,3.08A2.52,2.52,0,0,0,668,605Zm6.34-4.42a7.43,7.43,0,0,1,.74-3.35,5.34,5.34,0,0,1,2.07-2.3,5.8,5.8,0,0,1,3.07-.81,5.52,5.52,0,0,1,4.16,1.65,6.48,6.48,0,0,1,1.73,4.38v.67a7.5,7.5,0,0,1-.73,3.35,5.28,5.28,0,0,1-2.06,2.29,5.85,5.85,0,0,1-3.09.81,5.53,5.53,0,0,1-4.3-1.78,6.88,6.88,0,0,1-1.61-4.77Zm2.85.25a5.14,5.14,0,0,0,.81,3.07,2.63,2.63,0,0,0,2.25,1.1,2.58,2.58,0,0,0,2.24-1.12,5.61,5.61,0,0,0,.81-3.29,5,5,0,0,0-.83-3,2.77,2.77,0,0,0-4.45,0A5.51,5.51,0,0,0,677.18,600.79Zm13.51-6.47.08,1.46a4.56,4.56,0,0,1,3.69-1.7q4,0,4,4.53V607h-2.85v-8.22a2.57,2.57,0,0,0-.53-1.78,2.16,2.16,0,0,0-1.7-.59,2.75,2.75,0,0,0-2.57,1.56v9H688V594.32Zm9.7,6.25a7.51,7.51,0,0,1,1.36-4.7,4.35,4.35,0,0,1,3.65-1.78,4.14,4.14,0,0,1,3.26,1.41V589h2.85v18h-2.58l-.14-1.31a4.2,4.2,0,0,1-3.41,1.55,4.34,4.34,0,0,1-3.61-1.79A7.84,7.84,0,0,1,700.4,600.57Zm2.85.25a5.34,5.34,0,0,0,.74,3,2.43,2.43,0,0,0,2.12,1.08,2.69,2.69,0,0,0,2.55-1.56v-5.41a2.65,2.65,0,0,0-2.53-1.52,2.43,2.43,0,0,0-2.13,1.1A5.84,5.84,0,0,0,703.25,600.81ZM721.58,607a4.41,4.41,0,0,1-.33-1.18,4.79,4.79,0,0,1-6.45.33,3.49,3.49,0,0,1-1.21-2.7,3.59,3.59,0,0,1,1.5-3.1,7.29,7.29,0,0,1,4.31-1.09h1.75v-.83a2.19,2.19,0,0,0-.55-1.57,2.17,2.17,0,0,0-1.67-.6,2.49,2.49,0,0,0-1.59.49,1.49,1.49,0,0,0-.62,1.23h-2.85a3.14,3.14,0,0,1,.69-1.95,4.57,4.57,0,0,1,1.88-1.43,6.64,6.64,0,0,1,2.66-.52,5.3,5.3,0,0,1,3.55,1.13,4,4,0,0,1,1.36,3.14v5.72a6.49,6.49,0,0,0,.48,2.73v.2Zm-3.13-2.05a3.21,3.21,0,0,0,1.58-.41,2.73,2.73,0,0,0,1.13-1.1V601h-1.54a4.19,4.19,0,0,0-2.38.55,1.78,1.78,0,0,0-.8,1.56,1.69,1.69,0,0,0,.54,1.31A2.15,2.15,0,0,0,718.45,604.95Zm14.7-8a7,7,0,0,0-1.16-.09,2.61,2.61,0,0,0-2.64,1.5V607H726.5V594.32h2.72l.07,1.42a3.21,3.21,0,0,1,2.86-1.65,2.68,2.68,0,0,1,1,.16Zm6,6,2.58-8.6h3l-5,14.6q-1.16,3.2-3.94,3.2a5.08,5.08,0,0,1-1.37-.21v-2.2l.54,0a2.71,2.71,0,0,0,1.62-.4,2.55,2.55,0,0,0,.87-1.31l.41-1.09-4.45-12.62h3.07Z" transform="translate(-142.82 -56)"/><path d="M989,529.2h-3.09l-.94,4.8h-1.68l.94-4.8h-2.8v-1.6h3.1l.81-4.15h-3v-1.63h3.34l1-4.87h1.68l-1,4.87h3.09l1-4.87H993l-1,4.87h2.39v1.63h-2.71l-.81,4.15h2.64v1.6h-2.94l-.94,4.8H988Zm-2.79-1.6h3.09l.81-4.15H987Zm11-2.15.87-8.51h8.74v2h-6.9l-.51,4.65a5.5,5.5,0,0,1,2.84-.74,4.72,4.72,0,0,1,3.71,1.55,6,6,0,0,1,1.37,4.16,5.85,5.85,0,0,1-1.43,4.16,5.2,5.2,0,0,1-4,1.51,5.39,5.39,0,0,1-3.69-1.25,5,5,0,0,1-1.63-3.47h2.05a3.46,3.46,0,0,0,1,2.21,3.25,3.25,0,0,0,2.22.74,2.91,2.91,0,0,0,2.37-1,4.28,4.28,0,0,0,.87-2.85,3.9,3.9,0,0,0-.94-2.74,3.14,3.14,0,0,0-2.47-1,3.57,3.57,0,0,0-2.23.62l-.57.47Zm19.61,8.55h-2.18V519.55l-4.37,1.6v-2l6.21-2.33h.34Zm17.37-15.84L1027.11,534h-2.27l7-15.28h-9.24v-1.78h11.54Zm12.43,8.31h-7.16V534h-2.25V516.94h10.57v1.85h-8.32v5.84h7.16Zm13.64-5.07a4,4,0,0,1-.68,2.27,4.55,4.55,0,0,1-1.82,1.56,4.82,4.82,0,0,1,2.11,1.67,4.16,4.16,0,0,1,.79,2.5,4.45,4.45,0,0,1-1.5,3.53,6.57,6.57,0,0,1-7.88,0,4.52,4.52,0,0,1-1.47-3.53,4.37,4.37,0,0,1,.75-2.5,4.68,4.68,0,0,1,2.09-1.69,4.53,4.53,0,0,1-1.79-1.56,4,4,0,0,1-.65-2.26,4.41,4.41,0,0,1,1.38-3.42,5.87,5.87,0,0,1,7.28,0A4.39,4.39,0,0,1,1060.25,521.39Zm-1.77,8a3.13,3.13,0,0,0-.91-2.33,3.24,3.24,0,0,0-5.61,2.33,3,3,0,0,0,.86,2.28,3.33,3.33,0,0,0,2.4.83,3.29,3.29,0,0,0,2.39-.83A3,3,0,0,0,1058.48,529.35Zm-3.26-10.86a2.8,2.8,0,0,0-2.07.8,2.88,2.88,0,0,0-.79,2.15,2.91,2.91,0,0,0,.78,2.11,3.11,3.11,0,0,0,4.16,0,3.21,3.21,0,0,0,0-4.23A2.75,2.75,0,0,0,1055.22,518.48Zm18.37,7.63h-7.4v6h8.59V534h-10.84V516.94h10.72v1.85h-8.47v5.48h7.4Z" transform="translate(-142.82 -56)"/><path d="M986,556.76a1,1,0,0,0-.45-.91,4.13,4.13,0,0,0-1.54-.56,7.38,7.38,0,0,1-1.74-.56,2.52,2.52,0,0,1-1-.78,1.89,1.89,0,0,1-.3-1.08,2.2,2.2,0,0,1,.88-1.76,3.45,3.45,0,0,1,2.25-.72,3.51,3.51,0,0,1,2.33.74,2.35,2.35,0,0,1,.9,1.9h-1.45a1.3,1.3,0,0,0-.51-1,1.87,1.87,0,0,0-1.27-.43,2,2,0,0,0-1.23.34,1.08,1.08,0,0,0-.45.9.88.88,0,0,0,.41.79,5.07,5.07,0,0,0,1.49.51,7.82,7.82,0,0,1,1.76.58,2.51,2.51,0,0,1,1,.81,2,2,0,0,1,.33,1.15,2.18,2.18,0,0,1-.91,1.82,3.82,3.82,0,0,1-2.35.68,4.27,4.27,0,0,1-1.8-.36,3,3,0,0,1-1.23-1,2.45,2.45,0,0,1-.44-1.4h1.45a1.51,1.51,0,0,0,.58,1.16,2.29,2.29,0,0,0,1.44.42,2.33,2.33,0,0,0,1.31-.33A1,1,0,0,0,986,556.76Zm6.84,2.4a3.7,3.7,0,0,1-2.8-1.12,4.2,4.2,0,0,1-1.08-3v-.27a5.08,5.08,0,0,1,.48-2.24A3.76,3.76,0,0,1,990.8,551a3.38,3.38,0,0,1,1.88-.56,3.16,3.16,0,0,1,2.56,1.09,4.7,4.7,0,0,1,.91,3.11v.6h-5.73a3,3,0,0,0,.73,2,2.32,2.32,0,0,0,1.78.77,2.52,2.52,0,0,0,1.3-.31,3.24,3.24,0,0,0,.93-.83l.88.69A3.55,3.55,0,0,1,992.85,559.16Zm-.18-7.58a1.92,1.92,0,0,0-1.47.64,3.07,3.07,0,0,0-.73,1.78h4.23v-.11a2.73,2.73,0,0,0-.59-1.7A1.81,1.81,0,0,0,992.67,551.58Zm8.55,6.4a2.1,2.1,0,0,0,1.35-.47,1.63,1.63,0,0,0,.64-1.17h1.37a2.63,2.63,0,0,1-.5,1.38,3.3,3.3,0,0,1-1.24,1,3.76,3.76,0,0,1-4.37-.76,4.62,4.62,0,0,1-1-3.16v-.24a5.09,5.09,0,0,1,.45-2.2,3.46,3.46,0,0,1,1.3-1.49,3.72,3.72,0,0,1,2-.53,3.36,3.36,0,0,1,2.36.85,3,3,0,0,1,1,2.21h-1.37a2,2,0,0,0-.62-1.34,1.92,1.92,0,0,0-1.38-.53,2,2,0,0,0-1.71.8,3.72,3.72,0,0,0-.6,2.29v.27a3.65,3.65,0,0,0,.6,2.25A2,2,0,0,0,1001.22,558Zm4.6-3.28a5.06,5.06,0,0,1,.48-2.23,3.59,3.59,0,0,1,3.36-2.07,3.56,3.56,0,0,1,2.79,1.2,4.61,4.61,0,0,1,1.07,3.18v.1a5,5,0,0,1-.48,2.22,3.53,3.53,0,0,1-1.35,1.52,3.75,3.75,0,0,1-2,.55,3.59,3.59,0,0,1-2.79-1.2,4.58,4.58,0,0,1-1.06-3.16Zm1.45.17a3.65,3.65,0,0,0,.65,2.26,2.1,2.1,0,0,0,1.75.85,2.07,2.07,0,0,0,1.75-.86,4,4,0,0,0,.65-2.42,3.59,3.59,0,0,0-.66-2.25,2.19,2.19,0,0,0-3.48,0A3.91,3.91,0,0,0,1007.27,554.87Zm9.43-4.32,0,1.06a3.09,3.09,0,0,1,2.53-1.22c1.79,0,2.69,1,2.71,3V559h-1.45v-5.59a1.89,1.89,0,0,0-.42-1.35,1.66,1.66,0,0,0-1.27-.44,2.11,2.11,0,0,0-1.24.38,2.6,2.6,0,0,0-.83,1v6h-1.44v-8.45Zm7.1,4.16a4.91,4.91,0,0,1,.93-3.12,3.13,3.13,0,0,1,4.76-.17V547h1.45v12h-1.33l-.07-.91a3,3,0,0,1-2.42,1.06,2.89,2.89,0,0,1-2.39-1.2,5,5,0,0,1-.93-3.14Zm1.45.16a3.79,3.79,0,0,0,.59,2.25,1.93,1.93,0,0,0,1.64.81,2.11,2.11,0,0,0,2-1.23v-3.88a2.12,2.12,0,0,0-2-1.2,1.94,1.94,0,0,0-1.66.82A4.17,4.17,0,0,0,1025.25,554.87Zm13.16,4.13a3,3,0,0,1-.21-.89,3.21,3.21,0,0,1-2.4,1,3,3,0,0,1-2.06-.7,2.3,2.3,0,0,1-.79-1.8,2.38,2.38,0,0,1,1-2,4.71,4.71,0,0,1,2.82-.73h1.41v-.66a1.62,1.62,0,0,0-.45-1.2,1.83,1.83,0,0,0-1.34-.45,2.13,2.13,0,0,0-1.3.39,1.15,1.15,0,0,0-.52.95h-1.45a2,2,0,0,1,.44-1.22,3.09,3.09,0,0,1,1.22-.94,4.15,4.15,0,0,1,1.7-.34,3.35,3.35,0,0,1,2.29.73,2.62,2.62,0,0,1,.85,2V557a4.71,4.71,0,0,0,.3,1.85V559Zm-2.4-1.1a2.57,2.57,0,0,0,1.29-.35,2.15,2.15,0,0,0,.88-.91V554.9h-1.13c-1.77,0-2.66.52-2.66,1.55a1.32,1.32,0,0,0,.45,1.06A1.76,1.76,0,0,0,1036,557.9Zm10-6.05a4.32,4.32,0,0,0-.71-.05,1.9,1.9,0,0,0-1.93,1.21v6h-1.45v-8.45h1.41l0,1a2.25,2.25,0,0,1,2-1.13,1.49,1.49,0,0,1,.64.11Zm4.24,5,2-6.34h1.54l-3.39,9.76c-.53,1.41-1.37,2.11-2.51,2.11l-.28,0-.53-.1v-1.17l.39,0a1.91,1.91,0,0,0,1.14-.3,2.2,2.2,0,0,0,.68-1.09l.32-.86-3-8.36h1.58Z" transform="translate(-142.82 -56)"/><path d="M988.25,582.87a5,5,0,0,1-.89,3.12,2.85,2.85,0,0,1-2.39,1.17,3,3,0,0,1-2.48-1.13l-.07,1h-1.33V575h1.45v4.48a2.93,2.93,0,0,1,2.41-1.09,2.85,2.85,0,0,1,2.41,1.16,5.16,5.16,0,0,1,.88,3.19Zm-1.45-.16a3.9,3.9,0,0,0-.57-2.28,1.89,1.89,0,0,0-1.64-.8,2.12,2.12,0,0,0-2.05,1.33v3.66a2.18,2.18,0,0,0,2.07,1.33,1.88,1.88,0,0,0,1.62-.8A4.16,4.16,0,0,0,986.8,582.7Zm8.49,3.46a3.07,3.07,0,0,1-2.48,1,2.65,2.65,0,0,1-2.06-.78A3.42,3.42,0,0,1,990,584v-5.5h1.45V584q0,1.92,1.56,1.92a2.16,2.16,0,0,0,2.2-1.23v-6.15h1.45V587h-1.37Zm5.57-9.66v2h1.58v1.12h-1.58v5.24a1.19,1.19,0,0,0,.21.77.9.9,0,0,0,.72.25,3.45,3.45,0,0,0,.68-.09V587a4.18,4.18,0,0,1-1.1.16,1.8,1.8,0,0,1-1.47-.59,2.52,2.52,0,0,1-.49-1.66v-5.24h-1.54v-1.12h1.54v-2Zm5.23,0v2h1.58v1.12h-1.58v5.24a1.19,1.19,0,0,0,.21.77.9.9,0,0,0,.72.25,3.44,3.44,0,0,0,.69-.09V587a4.2,4.2,0,0,1-1.11.16,1.79,1.79,0,0,1-1.46-.59,2.5,2.5,0,0,1-.49-1.66v-5.24h-1.54v-1.12h1.54v-2Zm2.74,6.2a5.06,5.06,0,0,1,.48-2.23,3.67,3.67,0,0,1,1.36-1.53,3.71,3.71,0,0,1,2-.54,3.56,3.56,0,0,1,2.79,1.2,4.61,4.61,0,0,1,1.07,3.18v.1a5,5,0,0,1-.48,2.22,3.53,3.53,0,0,1-1.35,1.52,3.69,3.69,0,0,1-2,.55,3.56,3.56,0,0,1-2.79-1.2,4.58,4.58,0,0,1-1.06-3.16Zm1.45.17a3.65,3.65,0,0,0,.65,2.26,2.22,2.22,0,0,0,3.5,0,4,4,0,0,0,.65-2.42,3.6,3.6,0,0,0-.67-2.25,2.09,2.09,0,0,0-1.75-.87,2.06,2.06,0,0,0-1.72.85A3.91,3.91,0,0,0,1010.29,582.87Zm9.42-4.32,0,1.06a3.07,3.07,0,0,1,2.53-1.22q2.68,0,2.7,3V587h-1.44v-5.59a1.94,1.94,0,0,0-.43-1.35,1.65,1.65,0,0,0-1.27-.44,2.06,2.06,0,0,0-1.23.38,2.52,2.52,0,0,0-.83,1v6h-1.45v-8.45Zm12.38,6.21a1,1,0,0,0-.44-.91,4.17,4.17,0,0,0-1.54-.56,7.31,7.31,0,0,1-1.74-.56,2.54,2.54,0,0,1-1-.78,1.91,1.91,0,0,1-.3-1.08,2.2,2.2,0,0,1,.87-1.76,3.45,3.45,0,0,1,2.25-.72,3.51,3.51,0,0,1,2.33.74,2.35,2.35,0,0,1,.9,1.9H1032a1.3,1.3,0,0,0-.51-1,1.88,1.88,0,0,0-1.27-.43,2,2,0,0,0-1.23.34,1.08,1.08,0,0,0-.45.9.87.87,0,0,0,.42.79,5,5,0,0,0,1.49.51,7.94,7.94,0,0,1,1.76.58,2.46,2.46,0,0,1,1,.81,1.94,1.94,0,0,1,.33,1.15,2.16,2.16,0,0,1-.91,1.82,3.81,3.81,0,0,1-2.35.68,4.3,4.3,0,0,1-1.8-.36,2.91,2.91,0,0,1-1.22-1,2.47,2.47,0,0,1-.44-1.4h1.45a1.49,1.49,0,0,0,.57,1.16,2.72,2.72,0,0,0,2.75.09A1,1,0,0,0,1032.09,584.76Zm10.31-2h-3.81v-1.18h3.81Zm5.87,4.24v-7.34h-1.34v-1.12h1.34v-.72a2.93,2.93,0,0,1,.8-2.2,3.16,3.16,0,0,1,2.29-.79,6.91,6.91,0,0,1,2.21.48l-.24,1.22a5,5,0,0,0-1.86-.39,1.85,1.85,0,0,0-1.35.42,1.72,1.72,0,0,0-.4,1.25v.73h1.73v1.12h-1.73V587Zm6,0h-1.45v-8.45h1.45Zm5.86.16a3.7,3.7,0,0,1-2.8-1.12,4.2,4.2,0,0,1-1.08-3v-.27a5.05,5.05,0,0,1,.48-2.24,3.75,3.75,0,0,1,1.34-1.55,3.41,3.41,0,0,1,1.88-.56,3.16,3.16,0,0,1,2.56,1.09,4.7,4.7,0,0,1,.92,3.11v.6h-5.73a3,3,0,0,0,.73,2,2.3,2.3,0,0,0,1.78.77,2.49,2.49,0,0,0,1.29-.31,3.11,3.11,0,0,0,.93-.83l.89.69A3.55,3.55,0,0,1,1060.15,587.16Zm-.18-7.58a1.94,1.94,0,0,0-1.47.64,3,3,0,0,0-.73,1.78H1062v-.11a2.75,2.75,0,0,0-.59-1.7A1.83,1.83,0,0,0,1060,579.58Zm6.73,7.42h-1.45V575h1.45Zm2-4.3a4.91,4.91,0,0,1,.93-3.12,3.13,3.13,0,0,1,4.76-.17V575h1.45v12h-1.33l-.07-.91a3,3,0,0,1-2.42,1.06,2.89,2.89,0,0,1-2.39-1.2,5,5,0,0,1-.93-3.14Zm1.45.16a3.79,3.79,0,0,0,.59,2.25,1.93,1.93,0,0,0,1.64.81,2.11,2.11,0,0,0,2-1.23v-3.88a2.12,2.12,0,0,0-2-1.2,1.94,1.94,0,0,0-1.66.82A4.17,4.17,0,0,0,1070.11,582.87Zm12.86,1.89a1,1,0,0,0-.45-.91,4.1,4.1,0,0,0-1.54-.56,7.47,7.47,0,0,1-1.74-.56,2.58,2.58,0,0,1-.95-.78,1.91,1.91,0,0,1-.31-1.08,2.21,2.21,0,0,1,.88-1.76,3.45,3.45,0,0,1,2.25-.72,3.53,3.53,0,0,1,2.33.74,2.35,2.35,0,0,1,.9,1.9h-1.46a1.32,1.32,0,0,0-.5-1,1.89,1.89,0,0,0-1.27-.43,1.94,1.94,0,0,0-1.23.34,1.08,1.08,0,0,0-.45.9.89.89,0,0,0,.41.79,5.18,5.18,0,0,0,1.5.51,7.67,7.67,0,0,1,1.75.58,2.57,2.57,0,0,1,1,.81,2,2,0,0,1,.32,1.15,2.18,2.18,0,0,1-.9,1.82,3.83,3.83,0,0,1-2.35.68,4.27,4.27,0,0,1-1.8-.36,3,3,0,0,1-1.23-1,2.46,2.46,0,0,1-.43-1.4h1.44a1.53,1.53,0,0,0,.58,1.16,2.28,2.28,0,0,0,1.44.42,2.34,2.34,0,0,0,1.31-.33A1,1,0,0,0,1083,584.76Z" transform="translate(-142.82 -56)"/><path d="M646.43,580.2H643.8l-.89,4.8h-2l.89-4.8h-2.71v-1.85h3.06l.68-3.67H640v-1.86h3.2l.91-4.87h2l-.91,4.87h2.64l.91-4.87h2l-.91,4.87h2.44v1.86h-2.79l-.68,3.67h2.59v1.85h-2.94l-.89,4.8h-2Zm-2.27-1.85h2.63l.68-3.67h-2.62Zm10.06-1.8.92-8.6h9.16v2.46h-6.8l-.47,4.08a5.26,5.26,0,0,1,2.67-.68,4.74,4.74,0,0,1,3.79,1.56,6.16,6.16,0,0,1,1.36,4.2,5.7,5.7,0,0,1-1.5,4.15,5.48,5.48,0,0,1-4.11,1.54,5.77,5.77,0,0,1-3.89-1.32,4.84,4.84,0,0,1-1.66-3.51h2.75a3,3,0,0,0,.89,1.91,2.72,2.72,0,0,0,1.9.66,2.43,2.43,0,0,0,2-.94,4,4,0,0,0,.74-2.55,3.55,3.55,0,0,0-.81-2.46,2.82,2.82,0,0,0-2.23-.91,3.16,3.16,0,0,0-2.48,1ZM674.32,585h-2.84V571.3l-4.18,1.43v-2.4l6.66-2.45h.36Zm16.81-15.48L684.3,585h-3l6.81-14.78H679.3v-2.29h11.83Zm12.09,8.25h-6.87V585h-3V567.94h10.84v2.39h-7.87v5.07h6.87Zm13.17-5.33a4,4,0,0,1-.64,2.24,4.5,4.5,0,0,1-1.76,1.53,4.82,4.82,0,0,1,2,1.7,4.26,4.26,0,0,1,.73,2.44,4.5,4.5,0,0,1-1.52,3.57,6.93,6.93,0,0,1-8.13,0,4.48,4.48,0,0,1-1.52-3.56,4.34,4.34,0,0,1,.73-2.46,4.66,4.66,0,0,1,2-1.68,4.52,4.52,0,0,1-1.75-1.53,4,4,0,0,1-.63-2.24,4.44,4.44,0,0,1,1.41-3.46,6.3,6.3,0,0,1,7.61,0A4.44,4.44,0,0,1,716.39,572.44Zm-2.47,7.77a2.78,2.78,0,0,0-.76-2,2.94,2.94,0,0,0-4,0,2.85,2.85,0,0,0-.74,2.05,2.76,2.76,0,0,0,.73,2,2.71,2.71,0,0,0,2,.75,2.68,2.68,0,0,0,2-.73A2.74,2.74,0,0,0,713.92,580.21Zm-.36-7.66a2.63,2.63,0,0,0-.64-1.83,2.46,2.46,0,0,0-3.46,0,2.63,2.63,0,0,0-.63,1.86,2.65,2.65,0,0,0,.63,1.86,2.25,2.25,0,0,0,1.73.69,2.22,2.22,0,0,0,1.72-.69A2.63,2.63,0,0,0,713.55,572.54Zm15.68,4.84h-7v5.25h8.19V585H719.26V567.94h11.07v2.39h-8.11V575h7Z" transform="translate(-142.82 -56)"/><path d="M622,290H822v26a30,30,0,0,1-30,30H652a30,30,0,0,1-30-30Z" transform="translate(-142.82 -56)" style="fill:#fff7ce"/><path d="M622,262H822v26a30,30,0,0,1-30,30H652a30,30,0,0,1-30-30Z" transform="translate(-142.82 -56)" style="fill:#ffee94"/><path d="M622,235H822v26a30,30,0,0,1-30,30H652a30,30,0,0,1-30-30Z" transform="translate(-142.82 -56)" style="fill:#ffe55e"/><rect x="479.18" y="6" width="200" height="200" rx="30" ry="30" style="fill:#ffd600"/><path d="M649.56,236.79a7.58,7.58,0,0,1-1.34,4.7,4.65,4.65,0,0,1-6.93.38v6h-2.85V230.32h2.63l.12,1.29a4.18,4.18,0,0,1,3.41-1.52,4.3,4.3,0,0,1,3.63,1.73,7.7,7.7,0,0,1,1.32,4.79Zm-2.84-.25a5.26,5.26,0,0,0-.76-3,2.44,2.44,0,0,0-2.16-1.11,2.62,2.62,0,0,0-2.51,1.44v5.63a2.64,2.64,0,0,0,2.53,1.48,2.44,2.44,0,0,0,2.12-1.09A5.81,5.81,0,0,0,646.73,236.54Zm11.41-3.62a7,7,0,0,0-1.16-.09,2.61,2.61,0,0,0-2.64,1.5V243H651.5V230.32h2.72l.07,1.42a3.21,3.21,0,0,1,2.86-1.65,2.68,2.68,0,0,1,1,.16ZM662.49,243h-2.85V230.32h2.85Zm-3-16a1.52,1.52,0,0,1,.41-1.09,1.86,1.86,0,0,1,2.39,0,1.6,1.6,0,0,1,0,2.17,1.9,1.9,0,0,1-2.39,0A1.51,1.51,0,0,1,659.47,227Zm8.33,3.29.08,1.32a4.56,4.56,0,0,1,3.66-1.56A3.5,3.5,0,0,1,675,232a4.5,4.5,0,0,1,3.89-1.95,3.94,3.94,0,0,1,3.12,1.16,5.09,5.09,0,0,1,1.05,3.42V243h-2.85v-8.25a2.53,2.53,0,0,0-.53-1.77,2.31,2.31,0,0,0-1.75-.56,2.38,2.38,0,0,0-1.59.53,2.73,2.73,0,0,0-.86,1.36V243h-2.85v-8.34a2,2,0,0,0-2.28-2.24,2.51,2.51,0,0,0-2.43,1.39V243h-2.85V230.32ZM693.1,243a4.4,4.4,0,0,1-.33-1.18,4.43,4.43,0,0,1-3.33,1.42,4.48,4.48,0,0,1-3.12-1.09,3.49,3.49,0,0,1-1.21-2.7,3.59,3.59,0,0,1,1.5-3.11,7.29,7.29,0,0,1,4.31-1.09h1.75v-.83a2.2,2.2,0,0,0-.55-1.57,2.17,2.17,0,0,0-1.68-.6,2.49,2.49,0,0,0-1.59.49,1.49,1.49,0,0,0-.62,1.23h-2.85a3.14,3.14,0,0,1,.69-1.95A4.59,4.59,0,0,1,688,230.6a6.65,6.65,0,0,1,2.66-.52,5.3,5.3,0,0,1,3.55,1.13,4,4,0,0,1,1.36,3.14v5.72a6.47,6.47,0,0,0,.48,2.73v.2ZM690,240.95a3.21,3.21,0,0,0,1.58-.41,2.73,2.73,0,0,0,1.13-1.1V237h-1.53a4.19,4.19,0,0,0-2.38.55,1.78,1.78,0,0,0-.8,1.56,1.69,1.69,0,0,0,.54,1.31A2.15,2.15,0,0,0,690,240.95Zm14.7-8a7,7,0,0,0-1.16-.09,2.61,2.61,0,0,0-2.64,1.5V243H698V230.32h2.72l.07,1.42a3.21,3.21,0,0,1,2.86-1.65,2.67,2.67,0,0,1,1,.16Zm6,6,2.58-8.6h3l-5,14.6q-1.16,3.2-3.94,3.2a5.09,5.09,0,0,1-1.37-.21v-2.2l.54,0a2.72,2.72,0,0,0,1.62-.4,2.55,2.55,0,0,0,.87-1.31l.41-1.09-4.45-12.62h3.07Z" transform="translate(-142.82 -56)"/><path d="M989,165.2h-3.09l-.94,4.8h-1.68l.94-4.8h-2.8v-1.61h3.1l.81-4.15h-3v-1.63h3.34l1-4.87h1.68l-1,4.87h3.09l1-4.87H993l-1,4.87h2.39v1.63h-2.71l-.81,4.15h2.64v1.61h-2.94l-.94,4.8H988Zm-2.79-1.61h3.09l.81-4.15H987ZM996.77,170V152.94h5.58a6.45,6.45,0,0,1,4.17,1.15,4.13,4.13,0,0,1,1.41,3.4,3.51,3.51,0,0,1-.68,2.12,4.43,4.43,0,0,1-1.86,1.42,3.89,3.89,0,0,1,2.18,1.48,4.17,4.17,0,0,1,.81,2.58,4.54,4.54,0,0,1-1.49,3.61,6.14,6.14,0,0,1-4.2,1.31Zm2.25-8v6.14h3.71a3.58,3.58,0,0,0,2.48-.81,2.87,2.87,0,0,0,.91-2.25q0-3.08-3.35-3.08Zm0-1.81h3.4a3.53,3.53,0,0,0,2.35-.74,2.45,2.45,0,0,0,.89-2,2.4,2.4,0,0,0-.82-2,4,4,0,0,0-2.49-.65H999Zm25.25,4.37a6.3,6.3,0,0,1-2,4.18,6.56,6.56,0,0,1-4.47,1.46,6,6,0,0,1-4.85-2.17,8.74,8.74,0,0,1-1.81-5.8v-1.64a9.82,9.82,0,0,1,.84-4.18,6.39,6.39,0,0,1,2.41-2.76,6.69,6.69,0,0,1,3.61-1,6.13,6.13,0,0,1,4.36,1.52,6.3,6.3,0,0,1,1.91,4.19H1022a4.81,4.81,0,0,0-1.28-3,3.8,3.8,0,0,0-2.73-.91,4,4,0,0,0-3.38,1.59,7.29,7.29,0,0,0-1.22,4.54v1.65a7.54,7.54,0,0,0,1.16,4.42,3.74,3.74,0,0,0,3.24,1.64,4.37,4.37,0,0,0,2.88-.84,4.74,4.74,0,0,0,1.33-3Zm13.22-1.86q0,3.81-1.3,5.66a5.41,5.41,0,0,1-8.11,0,9.47,9.47,0,0,1-1.36-5.41v-2.9a9.75,9.75,0,0,1,1.3-5.59,5.5,5.5,0,0,1,8.14-.06,9.36,9.36,0,0,1,1.33,5.44Zm-2.17-3a7.87,7.87,0,0,0-.77-4,2.65,2.65,0,0,0-2.45-1.27,2.61,2.61,0,0,0-2.42,1.25,7.77,7.77,0,0,0-.79,3.86v3.47a8.16,8.16,0,0,0,.8,4.09,2.67,2.67,0,0,0,2.43,1.31,2.59,2.59,0,0,0,2.38-1.24,7.62,7.62,0,0,0,.82-3.91Zm5.51,10.24V152.94h5.58a6.45,6.45,0,0,1,4.17,1.15,4.13,4.13,0,0,1,1.41,3.4,3.51,3.51,0,0,1-.68,2.12,4.4,4.4,0,0,1-1.85,1.42,3.92,3.92,0,0,1,2.18,1.48,4.17,4.17,0,0,1,.81,2.58,4.57,4.57,0,0,1-1.49,3.61,6.19,6.19,0,0,1-4.21,1.31Zm2.25-8v6.14h3.72a3.57,3.57,0,0,0,2.47-.81,2.87,2.87,0,0,0,.91-2.25c0-2.06-1.11-3.08-3.35-3.08Zm0-1.81h3.4a3.57,3.57,0,0,0,2.36-.74,2.48,2.48,0,0,0,.89-2,2.43,2.43,0,0,0-.82-2,4,4,0,0,0-2.5-.65h-3.33Zm23.16-6.06L1059.17,170h-2.27l7-15.28h-9.23v-1.78h11.53Zm3.46,7.29.86-8.51h8.74v2h-6.9l-.51,4.65a5.47,5.47,0,0,1,2.84-.74,4.72,4.72,0,0,1,3.71,1.55,6,6,0,0,1,1.37,4.16,5.85,5.85,0,0,1-1.43,4.16,5.19,5.19,0,0,1-4,1.51,5.42,5.42,0,0,1-3.7-1.25,5,5,0,0,1-1.62-3.47h2.05a3.47,3.47,0,0,0,1,2.22,3.25,3.25,0,0,0,2.23.74,2.91,2.91,0,0,0,2.36-1,4.28,4.28,0,0,0,.87-2.85,3.9,3.9,0,0,0-.94-2.74,3.13,3.13,0,0,0-2.47-1,3.6,3.6,0,0,0-2.23.62l-.57.47Z" transform="translate(-142.82 -56)"/><path d="M988.23,190.87a5.07,5.07,0,0,1-.88,3.11,2.83,2.83,0,0,1-2.39,1.18,3.1,3.1,0,0,1-2.42-1v4.07h-1.45v-11.7h1.32l.07.94a3,3,0,0,1,2.45-1.09,2.87,2.87,0,0,1,2.41,1.15,5.1,5.1,0,0,1,.89,3.19Zm-1.45-.16a3.74,3.74,0,0,0-.61-2.26,2,2,0,0,0-1.67-.83,2.13,2.13,0,0,0-2,1.16v4a2.13,2.13,0,0,0,2,1.16,2,2,0,0,0,1.65-.82A4.08,4.08,0,0,0,986.79,190.7Zm7.38-2.86a4.28,4.28,0,0,0-.71-.05,1.91,1.91,0,0,0-1.93,1.21v6h-1.45v-8.45h1.41l0,1a2.25,2.25,0,0,1,2-1.13,1.48,1.48,0,0,1,.64.11Zm2.91,7.16h-1.45v-8.45h1.45Zm-1.56-10.7a.87.87,0,0,1,.21-.59,1,1,0,0,1,1.28,0,.85.85,0,0,1,.22.59.9.9,0,0,1-1.5.59A.84.84,0,0,1,995.51,184.3Zm5.24,2.24,0,.94a3.12,3.12,0,0,1,2.51-1.09,2.42,2.42,0,0,1,2.41,1.36,3.26,3.26,0,0,1,1.09-1,3.3,3.3,0,0,1,1.61-.37q2.78,0,2.82,2.94V195h-1.44v-5.58a2,2,0,0,0-.41-1.35,1.83,1.83,0,0,0-1.4-.45,1.9,1.9,0,0,0-1.33.49,1.92,1.92,0,0,0-.62,1.29V195h-1.45v-5.54a1.61,1.61,0,0,0-1.81-1.84,1.93,1.93,0,0,0-1.94,1.21V195h-1.45v-8.45Zm17.89,8.45a3.11,3.11,0,0,1-.2-.89,3.23,3.23,0,0,1-2.41,1,3,3,0,0,1-2.05-.7,2.31,2.31,0,0,1-.8-1.8,2.38,2.38,0,0,1,1-2,4.73,4.73,0,0,1,2.83-.73h1.4v-.66a1.62,1.62,0,0,0-.45-1.2,1.82,1.82,0,0,0-1.34-.45,2.1,2.1,0,0,0-1.29.39,1.16,1.16,0,0,0-.53.95h-1.45a2,2,0,0,1,.45-1.22,3.09,3.09,0,0,1,1.22-.94,4.1,4.1,0,0,1,1.69-.34,3.33,3.33,0,0,1,2.29.73,2.63,2.63,0,0,1,.86,2V193a4.71,4.71,0,0,0,.3,1.85V195Zm-2.4-1.1a2.54,2.54,0,0,0,1.29-.35,2.09,2.09,0,0,0,.88-.91V190.9h-1.13c-1.77,0-2.66.52-2.66,1.56a1.33,1.33,0,0,0,.46,1.06A1.73,1.73,0,0,0,1016.24,193.9Zm10-6.05a4.23,4.23,0,0,0-.71-.05,1.9,1.9,0,0,0-1.93,1.21v6h-1.45v-8.45h1.41l0,1a2.26,2.26,0,0,1,2-1.13,1.46,1.46,0,0,1,.64.11Zm4.24,5,2-6.34H1034l-3.4,9.76c-.53,1.41-1.36,2.11-2.51,2.11l-.27,0-.54-.1v-1.17l.39,0a1.91,1.91,0,0,0,1.14-.3,2.13,2.13,0,0,0,.68-1.09l.32-.86-3-8.36h1.57Z" transform="translate(-142.82 -56)"/><path d="M988.25,218.87a5,5,0,0,1-.89,3.12,2.85,2.85,0,0,1-2.39,1.17,3,3,0,0,1-2.48-1.13l-.07,1h-1.33V211h1.45v4.48a2.93,2.93,0,0,1,2.41-1.09,2.85,2.85,0,0,1,2.41,1.16,5.16,5.16,0,0,1,.88,3.19Zm-1.45-.16a3.9,3.9,0,0,0-.57-2.28,1.89,1.89,0,0,0-1.64-.8,2.12,2.12,0,0,0-2.05,1.33v3.66a2.18,2.18,0,0,0,2.07,1.33,1.88,1.88,0,0,0,1.62-.8A4.16,4.16,0,0,0,986.8,218.7Zm7.36-2.86a4.28,4.28,0,0,0-.71-.05,1.91,1.91,0,0,0-1.93,1.21v6h-1.45v-8.45h1.41l0,1a2.25,2.25,0,0,1,2-1.13,1.48,1.48,0,0,1,.64.11Zm6.25,7.16a3,3,0,0,1-.21-.89,3.21,3.21,0,0,1-2.4,1,3,3,0,0,1-2.05-.7,2.31,2.31,0,0,1-.8-1.8,2.39,2.39,0,0,1,1-2,4.74,4.74,0,0,1,2.83-.73h1.41v-.66a1.61,1.61,0,0,0-.45-1.2,1.81,1.81,0,0,0-1.34-.45,2.11,2.11,0,0,0-1.3.39,1.15,1.15,0,0,0-.52.95h-1.45a2,2,0,0,1,.45-1.22,3.1,3.1,0,0,1,1.22-.94,4.13,4.13,0,0,1,1.7-.34,3.35,3.35,0,0,1,2.29.73,2.62,2.62,0,0,1,.85,2V221a4.71,4.71,0,0,0,.3,1.85V223Zm-2.4-1.1a2.54,2.54,0,0,0,1.29-.35,2.14,2.14,0,0,0,.88-.91V218.9H999q-2.66,0-2.66,1.56a1.32,1.32,0,0,0,.45,1.06A1.74,1.74,0,0,0,998,221.9Zm7.25-7.35,0,1.06a3.09,3.09,0,0,1,2.54-1.22q2.67,0,2.7,3V223h-1.45v-5.59a1.89,1.89,0,0,0-.42-1.35,1.65,1.65,0,0,0-1.27-.44,2.11,2.11,0,0,0-1.24.38,2.49,2.49,0,0,0-.82,1v6h-1.45v-8.45Zm7.11,4.16a4.9,4.9,0,0,1,.92-3.12,3.13,3.13,0,0,1,4.76-.17V211h1.45v12h-1.33l-.07-.91a2.94,2.94,0,0,1-2.41,1.06,2.9,2.9,0,0,1-2.4-1.2,5,5,0,0,1-.92-3.14Zm1.44.16a3.72,3.72,0,0,0,.6,2.25,1.91,1.91,0,0,0,1.64.81,2.1,2.1,0,0,0,2-1.23v-3.88a2.12,2.12,0,0,0-2-1.19,1.91,1.91,0,0,0-1.65.82A4.09,4.09,0,0,0,1013.81,218.87Zm14.92-.11h-3.82v-1.18h3.82Zm12.54.11a5.07,5.07,0,0,1-.89,3.12,2.87,2.87,0,0,1-2.4,1.17,2.94,2.94,0,0,1-2.47-1.13l-.07,1h-1.33V211h1.44v4.48a2.94,2.94,0,0,1,2.42-1.09,2.85,2.85,0,0,1,2.41,1.16,5.15,5.15,0,0,1,.89,3.19Zm-1.45-.16a3.91,3.91,0,0,0-.57-2.28,1.89,1.89,0,0,0-1.64-.8,2.14,2.14,0,0,0-2.06,1.33v3.66a2.2,2.2,0,0,0,2.07,1.33,1.87,1.87,0,0,0,1.62-.8A4.12,4.12,0,0,0,1039.82,218.7Zm8.49,3.46a3.06,3.06,0,0,1-2.47,1,2.66,2.66,0,0,1-2.07-.78,3.44,3.44,0,0,1-.71-2.33v-5.5h1.45V220q0,1.92,1.56,1.92a2.16,2.16,0,0,0,2.2-1.23v-6.15h1.45V223h-1.38Zm5.57-9.66v2h1.58v1.12h-1.58v5.24a1.19,1.19,0,0,0,.21.77.9.9,0,0,0,.72.25,3.44,3.44,0,0,0,.69-.09V223a4.2,4.2,0,0,1-1.11.16,1.79,1.79,0,0,1-1.46-.59,2.5,2.5,0,0,1-.49-1.66v-5.24h-1.54v-1.12h1.54v-2Zm5.24,0v2h1.58v1.12h-1.58v5.24a1.19,1.19,0,0,0,.21.77.9.9,0,0,0,.72.25,3.45,3.45,0,0,0,.68-.09V223a4.2,4.2,0,0,1-1.11.16,1.81,1.81,0,0,1-1.46-.59,2.56,2.56,0,0,1-.49-1.66v-5.24h-1.54v-1.12h1.54v-2Zm2.73,6.2a4.93,4.93,0,0,1,.49-2.23,3.61,3.61,0,0,1,1.36-1.53,3.69,3.69,0,0,1,2-.54,3.56,3.56,0,0,1,2.79,1.19,4.61,4.61,0,0,1,1.07,3.18v.1a5,5,0,0,1-.48,2.22,3.53,3.53,0,0,1-1.35,1.52,3.73,3.73,0,0,1-2,.55,3.59,3.59,0,0,1-2.79-1.2,4.63,4.63,0,0,1-1.06-3.16Zm1.45.17a3.65,3.65,0,0,0,.65,2.26,2.1,2.1,0,0,0,1.75.85,2.07,2.07,0,0,0,1.75-.86,3.92,3.92,0,0,0,.65-2.42,3.59,3.59,0,0,0-.66-2.25,2.19,2.19,0,0,0-3.48,0A3.91,3.91,0,0,0,1063.3,218.87Zm9.43-4.32,0,1.06a3.09,3.09,0,0,1,2.53-1.22c1.79,0,2.69,1,2.71,3V223h-1.45v-5.59a1.89,1.89,0,0,0-.42-1.35,1.65,1.65,0,0,0-1.27-.44,2.11,2.11,0,0,0-1.24.38,2.6,2.6,0,0,0-.83,1v6h-1.44v-8.45Zm12.38,6.21a1,1,0,0,0-.45-.91,4.1,4.1,0,0,0-1.54-.56,7.63,7.63,0,0,1-1.74-.56,2.58,2.58,0,0,1-.95-.78,1.91,1.91,0,0,1-.31-1.08,2.21,2.21,0,0,1,.88-1.76,3.45,3.45,0,0,1,2.25-.72,3.53,3.53,0,0,1,2.33.74,2.35,2.35,0,0,1,.9,1.9H1085a1.32,1.32,0,0,0-.5-1,1.89,1.89,0,0,0-1.27-.43,1.94,1.94,0,0,0-1.23.34,1.08,1.08,0,0,0-.45.9.89.89,0,0,0,.41.79,5.18,5.18,0,0,0,1.5.51,7.67,7.67,0,0,1,1.75.58,2.57,2.57,0,0,1,1,.81,1.94,1.94,0,0,1,.32,1.15,2.18,2.18,0,0,1-.9,1.82,3.83,3.83,0,0,1-2.35.68,4.27,4.27,0,0,1-1.8-.36,3,3,0,0,1-1.23-1,2.46,2.46,0,0,1-.43-1.4h1.44a1.53,1.53,0,0,0,.58,1.16,2.28,2.28,0,0,0,1.44.42,2.34,2.34,0,0,0,1.31-.33A1,1,0,0,0,1085.11,220.76Zm7.59,3.22h-1.25l4.75-12.35h1.24Zm13.66-2a2.06,2.06,0,0,0,1.35-.47,1.63,1.63,0,0,0,.64-1.17h1.37a2.63,2.63,0,0,1-.5,1.38,3.3,3.3,0,0,1-1.24,1,3.76,3.76,0,0,1-4.37-.76,4.6,4.6,0,0,1-1-3.16v-.24a5,5,0,0,1,.46-2.19,3.44,3.44,0,0,1,1.29-1.49,3.73,3.73,0,0,1,2-.53,3.36,3.36,0,0,1,2.36.85,3,3,0,0,1,1,2.21h-1.37a2,2,0,0,0-.62-1.34,1.92,1.92,0,0,0-1.38-.53,2,2,0,0,0-1.71.8,3.73,3.73,0,0,0-.6,2.29v.27a3.66,3.66,0,0,0,.6,2.25A2,2,0,0,0,1106.36,222Zm10.2,1a3.11,3.11,0,0,1-.2-.89,3.22,3.22,0,0,1-2.41,1,3,3,0,0,1-2-.7,2.31,2.31,0,0,1-.8-1.8,2.38,2.38,0,0,1,1-2,4.75,4.75,0,0,1,2.83-.73h1.41v-.66a1.62,1.62,0,0,0-.46-1.2,1.79,1.79,0,0,0-1.33-.45,2.11,2.11,0,0,0-1.3.39,1.15,1.15,0,0,0-.52.95h-1.46a2,2,0,0,1,.45-1.22,3.09,3.09,0,0,1,1.22-.94,4.1,4.1,0,0,1,1.69-.34,3.32,3.32,0,0,1,2.29.73,2.63,2.63,0,0,1,.86,2V221a4.71,4.71,0,0,0,.3,1.85V223Zm-2.4-1.1a2.51,2.51,0,0,0,1.29-.35,2.17,2.17,0,0,0,.89-.91V218.9h-1.14c-1.77,0-2.65.52-2.65,1.56a1.32,1.32,0,0,0,.45,1.06A1.73,1.73,0,0,0,1114.16,221.9Zm7.46,1.1h-1.45V211h1.45Zm3.89,0h-1.45V211h1.45Zm7.24-2.24a1,1,0,0,0-.45-.91,4.1,4.1,0,0,0-1.53-.56,7.57,7.57,0,0,1-1.75-.56,2.58,2.58,0,0,1-1-.78,1.91,1.91,0,0,1-.3-1.08,2.2,2.2,0,0,1,.87-1.76,3.45,3.45,0,0,1,2.25-.72,3.53,3.53,0,0,1,2.33.74,2.35,2.35,0,0,1,.9,1.9h-1.46a1.32,1.32,0,0,0-.5-1,1.9,1.9,0,0,0-1.27-.43,1.94,1.94,0,0,0-1.23.34,1.08,1.08,0,0,0-.45.9.89.89,0,0,0,.41.79,5.18,5.18,0,0,0,1.5.51,7.94,7.94,0,0,1,1.76.58,2.61,2.61,0,0,1,1,.81,1.94,1.94,0,0,1,.33,1.15,2.19,2.19,0,0,1-.91,1.82,3.83,3.83,0,0,1-2.35.68,4.27,4.27,0,0,1-1.8-.36,3,3,0,0,1-1.23-1,2.46,2.46,0,0,1-.43-1.4h1.44a1.53,1.53,0,0,0,.58,1.16,2.28,2.28,0,0,0,1.44.42,2.34,2.34,0,0,0,1.31-.33A1,1,0,0,0,1132.75,220.76Zm9.26-8.26v2h1.58v1.12H1142v5.24a1.19,1.19,0,0,0,.21.77.9.9,0,0,0,.72.25,3.45,3.45,0,0,0,.68-.09V223a4.12,4.12,0,0,1-1.1.16,1.81,1.81,0,0,1-1.47-.59,2.56,2.56,0,0,1-.49-1.66v-5.24H1139v-1.12h1.54v-2Zm2.73,6.2a4.93,4.93,0,0,1,.49-2.23,3.61,3.61,0,0,1,1.36-1.53,3.69,3.69,0,0,1,2-.54,3.56,3.56,0,0,1,2.79,1.19,4.61,4.61,0,0,1,1.07,3.18v.1a5,5,0,0,1-.48,2.22,3.53,3.53,0,0,1-1.35,1.52,3.73,3.73,0,0,1-2,.55,3.59,3.59,0,0,1-2.79-1.2,4.63,4.63,0,0,1-1.06-3.16Zm1.46.17a3.65,3.65,0,0,0,.64,2.26,2.1,2.1,0,0,0,1.75.85,2.07,2.07,0,0,0,1.75-.86,3.92,3.92,0,0,0,.65-2.42,3.59,3.59,0,0,0-.66-2.25,2.19,2.19,0,0,0-3.48,0A3.91,3.91,0,0,0,1146.2,218.87Zm17.24,4.13a3,3,0,0,1-.21-.89,3.21,3.21,0,0,1-2.4,1,3,3,0,0,1-2.06-.7,2.3,2.3,0,0,1-.79-1.8,2.38,2.38,0,0,1,1-2,4.71,4.71,0,0,1,2.82-.73h1.41v-.66a1.62,1.62,0,0,0-.45-1.2,1.82,1.82,0,0,0-1.34-.45,2.13,2.13,0,0,0-1.3.39,1.17,1.17,0,0,0-.52.95h-1.45a2,2,0,0,1,.44-1.22,3.16,3.16,0,0,1,1.22-.94,4.15,4.15,0,0,1,1.7-.34,3.35,3.35,0,0,1,2.29.73,2.63,2.63,0,0,1,.86,2V221a4.93,4.93,0,0,0,.29,1.85V223Zm-2.4-1.1a2.56,2.56,0,0,0,1.29-.35,2.15,2.15,0,0,0,.88-.91V218.9h-1.13c-1.77,0-2.66.52-2.66,1.56a1.3,1.3,0,0,0,.46,1.06A1.73,1.73,0,0,0,1161,221.9Zm9.27.08a2.06,2.06,0,0,0,1.35-.47,1.63,1.63,0,0,0,.64-1.17h1.37a2.55,2.55,0,0,1-.5,1.38,3.35,3.35,0,0,1-1.23,1,3.77,3.77,0,0,1-4.38-.76,4.65,4.65,0,0,1-1-3.16v-.24a5.12,5.12,0,0,1,.45-2.19,3.4,3.4,0,0,1,1.3-1.49,3.67,3.67,0,0,1,2-.53,3.36,3.36,0,0,1,2.36.85,3,3,0,0,1,1,2.21h-1.37a2,2,0,0,0-.62-1.34,1.92,1.92,0,0,0-1.38-.53,2,2,0,0,0-1.71.8,3.73,3.73,0,0,0-.6,2.29v.27a3.66,3.66,0,0,0,.6,2.25A2,2,0,0,0,1170.31,222Zm6.95-9.48v2h1.58v1.12h-1.58v5.24a1.19,1.19,0,0,0,.21.77.9.9,0,0,0,.72.25,3.63,3.63,0,0,0,.69-.09V223a4.31,4.31,0,0,1-1.11.16,1.81,1.81,0,0,1-1.47-.59,2.56,2.56,0,0,1-.49-1.66v-5.24h-1.54v-1.12h1.54v-2Zm4.84,10.5h-1.44v-8.45h1.44Zm-1.56-10.7a.87.87,0,0,1,.21-.59.82.82,0,0,1,.64-.24.81.81,0,0,1,.64.24.83.83,0,0,1,.22.59.81.81,0,0,1-.22.59.83.83,0,0,1-.64.23.77.77,0,0,1-.85-.82Zm3.5,6.39a5.06,5.06,0,0,1,.48-2.23,3.67,3.67,0,0,1,1.36-1.53,3.75,3.75,0,0,1,2-.54,3.52,3.52,0,0,1,2.78,1.19,4.56,4.56,0,0,1,1.07,3.18v.1a5,5,0,0,1-.47,2.22,3.59,3.59,0,0,1-1.35,1.52,3.75,3.75,0,0,1-2,.55,3.57,3.57,0,0,1-2.79-1.2,4.58,4.58,0,0,1-1.06-3.16Zm1.45.17a3.65,3.65,0,0,0,.65,2.26,2.22,2.22,0,0,0,3.5,0,4,4,0,0,0,.65-2.42,3.54,3.54,0,0,0-.67-2.25,2.18,2.18,0,0,0-3.47,0A3.91,3.91,0,0,0,1185.49,218.87Zm9.42-4.32,0,1.06a3.09,3.09,0,0,1,2.53-1.22c1.79,0,2.69,1,2.71,3V223h-1.45v-5.59a2,2,0,0,0-.42-1.35,1.67,1.67,0,0,0-1.28-.44,2.08,2.08,0,0,0-1.23.38,2.6,2.6,0,0,0-.83,1v6h-1.44v-8.45Z" transform="translate(-142.82 -56)"/><path d="M646.43,216.2H643.8l-.89,4.8h-2l.89-4.8h-2.71v-1.85h3.06l.68-3.67H640v-1.86h3.2l.91-4.87h2l-.91,4.87h2.64l.91-4.87h2l-.91,4.87h2.44v1.86h-2.79l-.68,3.67h2.59v1.85h-2.94l-.89,4.8h-2Zm-2.27-1.85h2.63l.68-3.67h-2.62ZM653.9,221V203.94h5.85a7.14,7.14,0,0,1,4.41,1.16,4.08,4.08,0,0,1,1.51,3.46,3.68,3.68,0,0,1-.63,2.11,4.07,4.07,0,0,1-1.85,1.45,3.73,3.73,0,0,1,2.13,1.42,4.07,4.07,0,0,1,.76,2.49,4.53,4.53,0,0,1-1.55,3.69,6.68,6.68,0,0,1-4.41,1.29Zm3-7.7v5.33h3.29a3.19,3.19,0,0,0,2.18-.69,2.73,2.73,0,0,0-1.93-4.64Zm0-2.18h2.91a3.36,3.36,0,0,0,2.16-.62,2.53,2.53,0,0,0,.06-3.61,3.61,3.61,0,0,0-2.24-.56h-2.88Zm24.72,4.32a6.18,6.18,0,0,1-2,4.27,6.89,6.89,0,0,1-4.67,1.52,6.71,6.71,0,0,1-3.6-1,6.4,6.4,0,0,1-2.39-2.75,9.94,9.94,0,0,1-.88-4.14v-1.59a10,10,0,0,1,.86-4.25,6.46,6.46,0,0,1,2.45-2.84,6.88,6.88,0,0,1,3.7-1,6.58,6.58,0,0,1,4.55,1.54,6.41,6.41,0,0,1,2,4.34h-3a4.17,4.17,0,0,0-1.08-2.65,4,4,0,0,0-5.5.6,7.06,7.06,0,0,0-1.06,4.14v1.51a7.52,7.52,0,0,0,1,4.22,3.3,3.3,0,0,0,2.91,1.45,3.84,3.84,0,0,0,2.63-.78,4.1,4.1,0,0,0,1.11-2.61Zm12.84-1.63a9.3,9.3,0,0,1-1.38,5.56,4.85,4.85,0,0,1-4.18,1.86,5,5,0,0,1-4.17-1.82,9,9,0,0,1-1.43-5.4v-3a9.2,9.2,0,0,1,1.37-5.52,5.74,5.74,0,0,1,8.38,0,8.85,8.85,0,0,1,1.42,5.37Zm-2.85-3.19a7.18,7.18,0,0,0-.66-3.52,2.5,2.5,0,0,0-4.14-.06,6.63,6.63,0,0,0-.69,3.3v3.87a7.41,7.41,0,0,0,.67,3.56,2.24,2.24,0,0,0,2.1,1.17,2.21,2.21,0,0,0,2-1.08,7,7,0,0,0,.69-3.4ZM696.92,221V203.94h5.85a7.14,7.14,0,0,1,4.41,1.16,4.09,4.09,0,0,1,1.51,3.46,3.69,3.69,0,0,1-.63,2.11,4.07,4.07,0,0,1-1.85,1.45,3.73,3.73,0,0,1,2.13,1.42,4.07,4.07,0,0,1,.76,2.49,4.53,4.53,0,0,1-1.55,3.69,6.68,6.68,0,0,1-4.41,1.29Zm3-7.7v5.33h3.29a3.19,3.19,0,0,0,2.18-.69,2.73,2.73,0,0,0-1.93-4.64Zm0-2.18h2.91a3.36,3.36,0,0,0,2.16-.62,2.53,2.53,0,0,0,.06-3.61,3.61,3.61,0,0,0-2.24-.56h-2.88Zm22.59-5.6L715.66,221h-3l6.81-14.78h-8.82v-2.29h11.82Zm2.57,7,.92-8.6h9.17v2.46h-6.8l-.47,4.08a5.26,5.26,0,0,1,2.67-.68,4.73,4.73,0,0,1,3.78,1.56,6.16,6.16,0,0,1,1.36,4.2,5.7,5.7,0,0,1-1.5,4.15,5.48,5.48,0,0,1-4.11,1.53,5.77,5.77,0,0,1-3.89-1.32,4.84,4.84,0,0,1-1.66-3.51h2.75a3,3,0,0,0,.89,1.91,2.72,2.72,0,0,0,1.9.66,2.43,2.43,0,0,0,2-.94,4,4,0,0,0,.74-2.55A3.55,3.55,0,0,0,732,213a2.82,2.82,0,0,0-2.23-.91,3.16,3.16,0,0,0-2.48,1Z" transform="translate(-142.82 -56)"/><path d="M152.08,166v12h-7V143.88h13.31a15.33,15.33,0,0,1,6.75,1.41,10.33,10.33,0,0,1,4.5,4,11.08,11.08,0,0,1,1.57,5.88,9.82,9.82,0,0,1-3.45,7.92q-3.42,2.88-9.49,2.88Zm0-5.7h6.28A6.13,6.13,0,0,0,162.6,159a4.76,4.76,0,0,0,1.48-3.75,5.63,5.63,0,0,0-1.48-4.05,5.52,5.52,0,0,0-4.08-1.59h-6.44Zm35.63,5.23h-5.6V178h-7V143.88h12.68q6,0,9.33,2.7a9.3,9.3,0,0,1,3.28,7.62,10.49,10.49,0,0,1-1.52,5.83,10.27,10.27,0,0,1-4.57,3.7l7.38,13.94V178H194.1Zm-5.6-5.7h5.67a5.84,5.84,0,0,0,4.1-1.33,4.86,4.86,0,0,0,1.45-3.73,5.13,5.13,0,0,0-1.38-3.8,5.65,5.65,0,0,0-4.19-1.38H182.1ZM212.24,178h-7V143.88h7ZM227,143.88l8.76,24.75,8.72-24.75h9.23V178h-7.05v-9.33l.7-16.1L238.17,178h-4.83l-9.19-25.41.7,16.08V178h-7V143.88ZM278.6,171H266.27l-2.34,7h-7.48l12.7-34.12h6.52L288.44,178H281Zm-10.43-5.7h8.53l-4.29-12.77Zm35.13.24h-5.6V178h-7V143.88h12.68q6,0,9.33,2.7a9.3,9.3,0,0,1,3.28,7.62,10.49,10.49,0,0,1-1.52,5.83,10.26,10.26,0,0,1-4.57,3.7l7.38,13.94V178H309.7Zm-5.6-5.7h5.67a5.84,5.84,0,0,0,4.1-1.33,4.86,4.86,0,0,0,1.45-3.73,5.13,5.13,0,0,0-1.38-3.8,5.66,5.66,0,0,0-4.2-1.38H297.7Zm33.31-.56,7.1-15.37h7.69l-11.2,21.75V178h-7.15V165.63l-11.2-21.75H324Z" transform="translate(-142.82 -56)"/><path d="M162.74,533a3.58,3.58,0,0,0-1.41-3,18,18,0,0,0-5.06-2.25,36.5,36.5,0,0,1-5.79-2.34q-5.81-3.14-5.81-8.46a8.24,8.24,0,0,1,1.55-4.92,10.22,10.22,0,0,1,4.48-3.4,16.93,16.93,0,0,1,6.56-1.22,15.23,15.23,0,0,1,6.51,1.34,10.21,10.21,0,0,1,4.43,3.73A9.72,9.72,0,0,1,169.8,518h-7a4.57,4.57,0,0,0-1.48-3.63,6,6,0,0,0-4.15-1.31,6.44,6.44,0,0,0-4,1.1A3.41,3.41,0,0,0,151.7,517a3.3,3.3,0,0,0,1.66,2.79,19.16,19.16,0,0,0,4.94,2.11q6,1.8,8.74,4.48A8.91,8.91,0,0,1,169.8,533a8.24,8.24,0,0,1-3.35,7q-3.35,2.51-9,2.51a17.55,17.55,0,0,1-7.17-1.43,11.51,11.51,0,0,1-4.95-4,10.16,10.16,0,0,1-1.69-5.81h7.05q0,5.65,6.75,5.65a6.62,6.62,0,0,0,3.91-1A3.35,3.35,0,0,0,162.74,533Zm31.41-5.84h-13.5v9.14h15.84V542H173.62V507.88h22.83v5.7h-15.8v8.13h13.5Zm32.3,3.42a12.06,12.06,0,0,1-4.08,8.67q-3.66,3.16-9.66,3.16-6.56,0-10.34-4.41t-3.75-12.14v-2.09a20.46,20.46,0,0,1,1.73-8.67,13,13,0,0,1,4.95-5.74,15.47,15.47,0,0,1,17,1.15,13,13,0,0,1,4.17,8.88h-7a7,7,0,0,0-1.85-4.78,6.73,6.73,0,0,0-4.8-1.5,6,6,0,0,0-5.27,2.53q-1.73,2.51-1.78,7.8v2.58q0,5.53,1.66,8.09a5.89,5.89,0,0,0,5.3,2.55,6.93,6.93,0,0,0,4.85-1.48,6.73,6.73,0,0,0,1.85-4.62Zm31.69-4.92a20.59,20.59,0,0,1-1.78,8.84,13.38,13.38,0,0,1-5.11,5.86,14,14,0,0,1-7.59,2.06,14.2,14.2,0,0,1-7.57-2,13.56,13.56,0,0,1-5.16-5.81,20.09,20.09,0,0,1-1.85-8.72v-1.69a20.53,20.53,0,0,1,1.81-8.86,13.53,13.53,0,0,1,5.13-5.88,15,15,0,0,1,15.16,0,13.35,13.35,0,0,1,5.13,5.88,20.25,20.25,0,0,1,1.83,8.84ZM251,524.16q0-5.37-1.92-8.16a6.78,6.78,0,0,0-10.95,0q-1.92,2.74-1.95,8.06v1.66q0,5.23,1.92,8.11a6.74,6.74,0,0,0,11,.12q1.9-2.79,1.92-8.11ZM290,542h-7l-13.69-22.45V542h-7V507.88h7L283,530.38v-22.5h7Zm5.18,0V507.88h10.5a15.81,15.81,0,0,1,8,2,14,14,0,0,1,5.55,5.77,17.71,17.71,0,0,1,2,8.48v1.57a17.75,17.75,0,0,1-2,8.46,13.94,13.94,0,0,1-5.51,5.74,16.07,16.07,0,0,1-8,2.06Zm7-28.43v22.78h3.4a7.64,7.64,0,0,0,6.31-2.7q2.18-2.7,2.23-7.71v-1.8q0-5.2-2.16-7.87a7.59,7.59,0,0,0-6.3-2.7Zm42,21.4H331.9l-2.34,7h-7.48l12.7-34.12h6.52L354.07,542h-7.48Zm-10.43-5.7h8.53L338,516.5Zm35.13.23h-5.6V542h-7V507.88H369q6,0,9.33,2.7a9.3,9.3,0,0,1,3.28,7.62,10.49,10.49,0,0,1-1.52,5.84,10.26,10.26,0,0,1-4.57,3.7l7.38,13.95V542h-7.55Zm-5.6-5.7H369a5.84,5.84,0,0,0,4.1-1.34,4.86,4.86,0,0,0,1.45-3.73,5.13,5.13,0,0,0-1.38-3.8,5.66,5.66,0,0,0-4.2-1.38h-5.65Zm33.31-.56,7.1-15.37h7.69l-11.2,21.75V542h-7.15V529.63l-11.2-21.75h7.71Z" transform="translate(-142.82 -56)"/><path d="M145,906V871.88h10.5a15.81,15.81,0,0,1,8,2,14,14,0,0,1,5.56,5.77,17.71,17.71,0,0,1,2,8.48v1.57a17.74,17.74,0,0,1-2,8.46,13.94,13.94,0,0,1-5.51,5.74,16.07,16.07,0,0,1-8,2.06Zm7-28.43v22.78h3.4a7.63,7.63,0,0,0,6.3-2.7Q164,895,164,889.95v-1.8q0-5.2-2.16-7.87a7.6,7.6,0,0,0-6.31-2.7Zm42,21.4H181.73l-2.34,7h-7.48l12.7-34.12h6.52L203.9,906h-7.48Zm-10.43-5.7h8.53l-4.29-12.77Zm35.13.23h-5.6V906h-7V871.88h12.68q6,0,9.33,2.7a9.3,9.3,0,0,1,3.28,7.62,10.5,10.5,0,0,1-1.52,5.84,10.27,10.27,0,0,1-4.57,3.7l7.38,13.95V906h-7.55Zm-5.6-5.7h5.67a5.84,5.84,0,0,0,4.1-1.34,4.86,4.86,0,0,0,1.45-3.73A5.13,5.13,0,0,0,223,879a5.66,5.66,0,0,0-4.19-1.38h-5.65Zm33.35,4.5-3.66,3.94V906h-7V871.88h7v15.47l3.09-4.24,8.7-11.23h8.65L251.18,887l12.47,19h-8.37Z" transform="translate(-142.82 -56)"/><path d="M171.63,1176.16l4.59-24.28h7L175.66,1186h-7.08L163,1163.17,157.47,1186h-7.08l-7.57-34.12h7l4.62,24.23,5.63-24.23h6Zm42.24,9.84h-7v-14.62H193.12V1186h-7v-34.12h7v13.82h13.71v-13.82h7Zm12.68,0h-7v-34.12h7Zm30.56-28.43H246.65V1186h-7v-28.43H229.31v-5.69h27.8Zm23.6,13.64h-13.5v9.14h15.84V1186H260.18v-34.12H283v5.69h-15.8v8.13h13.5Z" transform="translate(-142.82 -56)"/></svg>