<svg width="985" height="658" viewBox="0 0 985 658" fill="none" xmlns="http://www.w3.org/2000/svg">
<rect width="985" height="658" fill="white"/>
<path d="M54.707 435.383H47.6992V440.633H55.8906V443H44.7344V425.938H55.8086V428.328H47.6992V433.039H54.707V435.383ZM64.188 432.922C63.813 432.859 63.4263 432.828 63.0278 432.828C61.7231 432.828 60.8442 433.328 60.3911 434.328V443H57.5434V430.32H60.2622L60.3325 431.738C61.02 430.637 61.9731 430.086 63.1919 430.086C63.5981 430.086 63.9341 430.141 64.1997 430.25L64.188 432.922ZM72.1455 432.922C71.7705 432.859 71.3838 432.828 70.9853 432.828C69.6806 432.828 68.8017 433.328 68.3486 434.328V443H65.5009V430.32H68.2197L68.29 431.738C68.9775 430.637 69.9306 430.086 71.1494 430.086C71.5556 430.086 71.8916 430.141 72.1572 430.25L72.1455 432.922ZM72.5092 436.543C72.5092 435.301 72.7553 434.184 73.2475 433.191C73.7397 432.191 74.4311 431.426 75.3217 430.895C76.2123 430.355 77.2358 430.086 78.392 430.086C80.103 430.086 81.4897 430.637 82.5522 431.738C83.6225 432.84 84.2006 434.301 84.2866 436.121L84.2983 436.789C84.2983 438.039 84.0561 439.156 83.5717 440.141C83.0952 441.125 82.4077 441.887 81.5092 442.426C80.6186 442.965 79.5873 443.234 78.4155 443.234C76.6264 443.234 75.1928 442.641 74.1147 441.453C73.0444 440.258 72.5092 438.668 72.5092 436.684V436.543ZM75.3569 436.789C75.3569 438.094 75.6264 439.117 76.1655 439.859C76.7045 440.594 77.4545 440.961 78.4155 440.961C79.3764 440.961 80.1225 440.586 80.6537 439.836C81.1928 439.086 81.4623 437.988 81.4623 436.543C81.4623 435.262 81.185 434.246 80.6303 433.496C80.0834 432.746 79.3373 432.371 78.392 432.371C77.4623 432.371 76.7241 432.742 76.1772 433.484C75.6303 434.219 75.3569 435.32 75.3569 436.789ZM92.8652 432.922C92.4902 432.859 92.1034 432.828 91.705 432.828C90.4003 432.828 89.5214 433.328 89.0683 434.328V443H86.2206V430.32H88.9394L89.0097 431.738C89.6972 430.637 90.6503 430.086 91.8691 430.086C92.2753 430.086 92.6113 430.141 92.8769 430.25L92.8652 432.922Z" fill="black"/>
<path d="M44.7344 573V555.938H49.7734C51.2812 555.938 52.6172 556.273 53.7812 556.945C54.9531 557.617 55.8594 558.57 56.5 559.805C57.1406 561.039 57.4609 562.453 57.4609 564.047V564.902C57.4609 566.52 57.1367 567.941 56.4883 569.168C55.8477 570.395 54.9297 571.34 53.7344 572.004C52.5469 572.668 51.1836 573 49.6445 573H44.7344ZM47.6992 558.328V570.633H49.6328C51.1875 570.633 52.3789 570.148 53.207 569.18C54.043 568.203 54.4688 566.805 54.4844 564.984V564.035C54.4844 562.184 54.082 560.77 53.2773 559.793C52.4727 558.816 51.3047 558.328 49.7734 558.328H47.6992ZM62.688 573H59.8403V560.32H62.688V573ZM59.6645 557.027C59.6645 556.59 59.8013 556.227 60.0747 555.938C60.3559 555.648 60.7544 555.504 61.27 555.504C61.7856 555.504 62.1841 555.648 62.4653 555.938C62.7466 556.227 62.8872 556.59 62.8872 557.027C62.8872 557.457 62.7466 557.816 62.4653 558.105C62.1841 558.387 61.7856 558.527 61.27 558.527C60.7544 558.527 60.3559 558.387 60.0747 558.105C59.8013 557.816 59.6645 557.457 59.6645 557.027ZM72.4267 569.555C72.4267 569.047 72.2158 568.66 71.7939 568.395C71.3798 568.129 70.6884 567.895 69.7197 567.691C68.7509 567.488 67.9423 567.23 67.2939 566.918C65.872 566.23 65.1611 565.234 65.1611 563.93C65.1611 562.836 65.622 561.922 66.5439 561.188C67.4658 560.453 68.6377 560.086 70.0595 560.086C71.5752 560.086 72.7978 560.461 73.7275 561.211C74.665 561.961 75.1338 562.934 75.1338 564.129H72.2861C72.2861 563.582 72.083 563.129 71.6767 562.77C71.2705 562.402 70.7314 562.219 70.0595 562.219C69.4345 562.219 68.9228 562.363 68.5244 562.652C68.1338 562.941 67.9384 563.328 67.9384 563.812C67.9384 564.25 68.122 564.59 68.4892 564.832C68.8564 565.074 69.5986 565.32 70.7158 565.57C71.833 565.812 72.708 566.105 73.3408 566.449C73.9814 566.785 74.4541 567.191 74.7588 567.668C75.0713 568.145 75.2275 568.723 75.2275 569.402C75.2275 570.543 74.7548 571.469 73.8095 572.18C72.8642 572.883 71.6259 573.234 70.0947 573.234C69.0556 573.234 68.1298 573.047 67.3173 572.672C66.5048 572.297 65.872 571.781 65.4189 571.125C64.9658 570.469 64.7392 569.762 64.7392 569.004H67.5048C67.5439 569.676 67.7978 570.195 68.2666 570.562C68.7353 570.922 69.3564 571.102 70.1298 571.102C70.8798 571.102 71.4502 570.961 71.8408 570.68C72.2314 570.391 72.4267 570.016 72.4267 569.555ZM82.8217 573.234C81.017 573.234 79.5522 572.668 78.4272 571.535C77.31 570.395 76.7514 568.879 76.7514 566.988V566.637C76.7514 565.371 76.9936 564.242 77.478 563.25C77.9702 562.25 78.6577 561.473 79.5405 560.918C80.4233 560.363 81.4077 560.086 82.4936 560.086C84.2202 560.086 85.5522 560.637 86.4897 561.738C87.435 562.84 87.9077 564.398 87.9077 566.414V567.562H79.6225C79.7084 568.609 80.0561 569.438 80.6655 570.047C81.2827 570.656 82.0561 570.961 82.9858 570.961C84.2905 570.961 85.353 570.434 86.1733 569.379L87.7084 570.844C87.2006 571.602 86.5209 572.191 85.6694 572.613C84.8256 573.027 83.8764 573.234 82.8217 573.234ZM82.4819 562.371C81.7006 562.371 81.0678 562.645 80.5834 563.191C80.1069 563.738 79.8022 564.5 79.6694 565.477H85.0952V565.266C85.0327 564.312 84.7788 563.594 84.3334 563.109C83.8881 562.617 83.2709 562.371 82.4819 562.371ZM97.2245 573C97.0995 572.758 96.9902 572.363 96.8964 571.816C95.9902 572.762 94.8808 573.234 93.5683 573.234C92.2948 573.234 91.2558 572.871 90.4511 572.145C89.6464 571.418 89.2441 570.52 89.2441 569.449C89.2441 568.098 89.7441 567.062 90.7441 566.344C91.7519 565.617 93.1894 565.254 95.0566 565.254H96.8027V564.422C96.8027 563.766 96.6191 563.242 96.2519 562.852C95.8847 562.453 95.3261 562.254 94.5761 562.254C93.9277 562.254 93.3964 562.418 92.9823 562.746C92.5683 563.066 92.3613 563.477 92.3613 563.977H89.5136C89.5136 563.281 89.7441 562.633 90.205 562.031C90.6659 561.422 91.2909 560.945 92.08 560.602C92.8769 560.258 93.7636 560.086 94.7402 560.086C96.2245 560.086 97.4081 560.461 98.2909 561.211C99.1738 561.953 99.6269 563 99.6503 564.352V570.07C99.6503 571.211 99.8105 572.121 100.131 572.801V573H97.2245ZM94.0956 570.949C94.6581 570.949 95.1855 570.812 95.6777 570.539C96.1777 570.266 96.5527 569.898 96.8027 569.438V567.047H95.2675C94.2128 567.047 93.4198 567.23 92.8886 567.598C92.3573 567.965 92.0917 568.484 92.0917 569.156C92.0917 569.703 92.2714 570.141 92.6308 570.469C92.998 570.789 93.4863 570.949 94.0956 570.949ZM113.28 566.789C113.28 568.758 112.838 570.324 111.955 571.488C111.08 572.652 109.873 573.234 108.334 573.234C106.85 573.234 105.694 572.699 104.866 571.629L104.725 573H102.147V555H104.995V561.539C105.815 560.57 106.92 560.086 108.311 560.086C109.858 560.086 111.073 560.66 111.955 561.809C112.838 562.957 113.28 564.562 113.28 566.625V566.789ZM110.432 566.543C110.432 565.168 110.19 564.137 109.705 563.449C109.221 562.762 108.518 562.418 107.596 562.418C106.362 562.418 105.495 562.957 104.995 564.035V569.262C105.502 570.363 106.377 570.914 107.62 570.914C108.51 570.914 109.198 570.582 109.682 569.918C110.166 569.254 110.416 568.25 110.432 566.906V566.543ZM118.225 573H115.378V555H118.225V573ZM126.441 573.234C124.636 573.234 123.171 572.668 122.046 571.535C120.929 570.395 120.37 568.879 120.37 566.988V566.637C120.37 565.371 120.613 564.242 121.097 563.25C121.589 562.25 122.277 561.473 123.16 560.918C124.042 560.363 125.027 560.086 126.113 560.086C127.839 560.086 129.171 560.637 130.109 561.738C131.054 562.84 131.527 564.398 131.527 566.414V567.562H123.242C123.327 568.609 123.675 569.438 124.285 570.047C124.902 570.656 125.675 570.961 126.605 570.961C127.91 570.961 128.972 570.434 129.792 569.379L131.327 570.844C130.82 571.602 130.14 572.191 129.288 572.613C128.445 573.027 127.495 573.234 126.441 573.234ZM126.101 562.371C125.32 562.371 124.687 562.645 124.202 563.191C123.726 563.738 123.421 564.5 123.288 565.477H128.714V565.266C128.652 564.312 128.398 563.594 127.952 563.109C127.507 562.617 126.89 562.371 126.101 562.371ZM132.734 566.566C132.734 564.613 133.187 563.047 134.094 561.867C135 560.68 136.215 560.086 137.738 560.086C139.082 560.086 140.168 560.555 140.996 561.492V555H143.844V573H141.265L141.125 571.688C140.273 572.719 139.137 573.234 137.715 573.234C136.23 573.234 135.027 572.637 134.105 571.441C133.191 570.246 132.734 568.621 132.734 566.566ZM135.582 566.812C135.582 568.102 135.828 569.109 136.32 569.836C136.82 570.555 137.527 570.914 138.441 570.914C139.605 570.914 140.457 570.395 140.996 569.355V563.941C140.473 562.926 139.629 562.418 138.465 562.418C137.543 562.418 136.832 562.785 136.332 563.52C135.832 564.246 135.582 565.344 135.582 566.812Z" fill="black"/>
<path d="M54.5664 305.77H47.6992V313H44.7344V295.938H55.5742V298.328H47.6992V303.402H54.5664V305.77ZM60.2036 313H57.3559V300.32H60.2036V313ZM57.1802 297.027C57.1802 296.59 57.3169 296.227 57.5903 295.938C57.8716 295.648 58.27 295.504 58.7856 295.504C59.3013 295.504 59.6997 295.648 59.9809 295.938C60.2622 296.227 60.4028 296.59 60.4028 297.027C60.4028 297.457 60.2622 297.816 59.9809 298.105C59.6997 298.387 59.3013 298.527 58.7856 298.527C58.27 298.527 57.8716 298.387 57.5903 298.105C57.3169 297.816 57.1802 297.457 57.1802 297.027ZM65.8642 313H63.0166V295H65.8642V313ZM71.5248 313H68.6772V295H71.5248V313ZM79.7402 313.234C77.9355 313.234 76.4706 312.668 75.3456 311.535C74.2284 310.395 73.6698 308.879 73.6698 306.988V306.637C73.6698 305.371 73.912 304.242 74.3964 303.25C74.8886 302.25 75.5761 301.473 76.4589 300.918C77.3417 300.363 78.3261 300.086 79.412 300.086C81.1386 300.086 82.4706 300.637 83.4081 301.738C84.3534 302.84 84.8261 304.398 84.8261 306.414V307.562H76.5409C76.6269 308.609 76.9745 309.438 77.5839 310.047C78.2011 310.656 78.9745 310.961 79.9042 310.961C81.2089 310.961 82.2714 310.434 83.0917 309.379L84.6269 310.844C84.1191 311.602 83.4394 312.191 82.5878 312.613C81.7441 313.027 80.7948 313.234 79.7402 313.234ZM79.4003 302.371C78.6191 302.371 77.9862 302.645 77.5019 303.191C77.0253 303.738 76.7206 304.5 76.5878 305.477H82.0136V305.266C81.9511 304.312 81.6972 303.594 81.2519 303.109C80.8066 302.617 80.1894 302.371 79.4003 302.371ZM86.0336 306.566C86.0336 304.613 86.4867 303.047 87.393 301.867C88.2992 300.68 89.5141 300.086 91.0375 300.086C92.3812 300.086 93.4672 300.555 94.2953 301.492V295H97.143V313H94.5648L94.4242 311.688C93.5727 312.719 92.4359 313.234 91.0141 313.234C89.5297 313.234 88.3266 312.637 87.4047 311.441C86.4906 310.246 86.0336 308.621 86.0336 306.566ZM88.8812 306.812C88.8812 308.102 89.1273 309.109 89.6195 309.836C90.1195 310.555 90.8266 310.914 91.7406 310.914C92.9047 310.914 93.7562 310.395 94.2953 309.355V303.941C93.7719 302.926 92.9281 302.418 91.7641 302.418C90.8422 302.418 90.1312 302.785 89.6312 303.52C89.1312 304.246 88.8812 305.344 88.8812 306.812Z" fill="black"/>
<path d="M54.2852 179.027H47.6758L46.293 183H43.2109L49.6562 165.938H52.3164L58.7734 183H55.6797L54.2852 179.027ZM48.5078 176.637H53.4531L50.9805 169.559L48.5078 176.637ZM65.1723 180.961C65.8833 180.961 66.4731 180.754 66.9419 180.34C67.4106 179.926 67.6606 179.414 67.6919 178.805H70.3755C70.3442 179.594 70.0981 180.332 69.6372 181.02C69.1763 181.699 68.5513 182.238 67.7622 182.637C66.9731 183.035 66.1216 183.234 65.2075 183.234C63.4341 183.234 62.0278 182.66 60.9888 181.512C59.9497 180.363 59.4302 178.777 59.4302 176.754V176.461C59.4302 174.531 59.9458 172.988 60.977 171.832C62.0083 170.668 63.4145 170.086 65.1958 170.086C66.7036 170.086 67.9302 170.527 68.8755 171.41C69.8286 172.285 70.3286 173.438 70.3755 174.867H67.6919C67.6606 174.141 67.4106 173.543 66.9419 173.074C66.4809 172.605 65.8911 172.371 65.1723 172.371C64.2505 172.371 63.5395 172.707 63.0395 173.379C62.5395 174.043 62.2856 175.055 62.2778 176.414V176.871C62.2778 178.246 62.5239 179.273 63.0161 179.953C63.5161 180.625 64.2348 180.961 65.1723 180.961ZM75.6142 167.238V170.32H77.8525V172.43H75.6142V179.508C75.6142 179.992 75.708 180.344 75.8955 180.562C76.0908 180.773 76.4345 180.879 76.9267 180.879C77.2548 180.879 77.5869 180.84 77.9228 180.762V182.965C77.2744 183.145 76.6494 183.234 76.0478 183.234C73.8603 183.234 72.7666 182.027 72.7666 179.613V172.43H70.6806V170.32H72.7666V167.238H75.6142ZM82.5873 183H79.7397V170.32H82.5873V183ZM79.5639 167.027C79.5639 166.59 79.7006 166.227 79.9741 165.938C80.2553 165.648 80.6538 165.504 81.1694 165.504C81.685 165.504 82.0834 165.648 82.3647 165.938C82.6459 166.227 82.7866 166.59 82.7866 167.027C82.7866 167.457 82.6459 167.816 82.3647 168.105C82.0834 168.387 81.685 168.527 81.1694 168.527C80.6538 168.527 80.2553 168.387 79.9741 168.105C79.7006 167.816 79.5639 167.457 79.5639 167.027ZM89.6894 179.391L92.373 170.32H95.3144L90.9198 183H88.4472L84.0175 170.32H86.9706L89.6894 179.391ZM104.01 183C103.885 182.758 103.776 182.363 103.682 181.816C102.776 182.762 101.666 183.234 100.354 183.234C99.0805 183.234 98.0414 182.871 97.2367 182.145C96.432 181.418 96.0297 180.52 96.0297 179.449C96.0297 178.098 96.5297 177.062 97.5297 176.344C98.5375 175.617 99.975 175.254 101.842 175.254H103.588V174.422C103.588 173.766 103.405 173.242 103.037 172.852C102.67 172.453 102.112 172.254 101.362 172.254C100.713 172.254 100.182 172.418 99.768 172.746C99.3539 173.066 99.1469 173.477 99.1469 173.977H96.2992C96.2992 173.281 96.5297 172.633 96.9906 172.031C97.4516 171.422 98.0766 170.945 98.8656 170.602C99.6625 170.258 100.549 170.086 101.526 170.086C103.01 170.086 104.194 170.461 105.077 171.211C105.959 171.953 106.412 173 106.436 174.352V180.07C106.436 181.211 106.596 182.121 106.916 182.801V183H104.01ZM100.881 180.949C101.444 180.949 101.971 180.812 102.463 180.539C102.963 180.266 103.338 179.898 103.588 179.438V177.047H102.053C100.998 177.047 100.205 177.23 99.6742 177.598C99.143 177.965 98.8773 178.484 98.8773 179.156C98.8773 179.703 99.057 180.141 99.4164 180.469C99.7836 180.789 100.272 180.949 100.881 180.949ZM112.507 167.238V170.32H114.745V172.43H112.507V179.508C112.507 179.992 112.6 180.344 112.788 180.562C112.983 180.773 113.327 180.879 113.819 180.879C114.147 180.879 114.479 180.84 114.815 180.762V182.965C114.167 183.145 113.542 183.234 112.94 183.234C110.753 183.234 109.659 182.027 109.659 179.613V172.43H107.573V170.32H109.659V167.238H112.507ZM122.035 183.234C120.23 183.234 118.765 182.668 117.64 181.535C116.523 180.395 115.964 178.879 115.964 176.988V176.637C115.964 175.371 116.206 174.242 116.691 173.25C117.183 172.25 117.87 171.473 118.753 170.918C119.636 170.363 120.62 170.086 121.706 170.086C123.433 170.086 124.765 170.637 125.702 171.738C126.648 172.84 127.12 174.398 127.12 176.414V177.562H118.835C118.921 178.609 119.269 179.438 119.878 180.047C120.495 180.656 121.269 180.961 122.199 180.961C123.503 180.961 124.566 180.434 125.386 179.379L126.921 180.844C126.413 181.602 125.734 182.191 124.882 182.613C124.038 183.027 123.089 183.234 122.035 183.234ZM121.695 172.371C120.913 172.371 120.281 172.645 119.796 173.191C119.32 173.738 119.015 174.5 118.882 175.477H124.308V175.266C124.245 174.312 123.992 173.594 123.546 173.109C123.101 172.617 122.484 172.371 121.695 172.371Z" fill="black"/>
<path d="M44.7344 53V35.9375H49.7734C51.2812 35.9375 52.6172 36.2734 53.7812 36.9453C54.9531 37.6172 55.8594 38.5703 56.5 39.8047C57.1406 41.0391 57.4609 42.4531 57.4609 44.0469V44.9023C57.4609 46.5195 57.1367 47.9414 56.4883 49.168C55.8477 50.3945 54.9297 51.3398 53.7344 52.0039C52.5469 52.668 51.1836 53 49.6445 53H44.7344ZM47.6992 38.3281V50.6328H49.6328C51.1875 50.6328 52.3789 50.1484 53.207 49.1797C54.043 48.2031 54.4688 46.8047 54.4844 44.9844V44.0352C54.4844 42.1836 54.082 40.7695 53.2773 39.793C52.4727 38.8164 51.3047 38.3281 49.7734 38.3281H47.6992ZM65.2427 53.2344C63.438 53.2344 61.9731 52.668 60.8481 51.5352C59.7309 50.3945 59.1723 48.8789 59.1723 46.9883V46.6367C59.1723 45.3711 59.4145 44.2422 59.8989 43.25C60.3911 42.25 61.0786 41.4727 61.9614 40.918C62.8442 40.3633 63.8286 40.0859 64.9145 40.0859C66.6411 40.0859 67.9731 40.6367 68.9106 41.7383C69.8559 42.8398 70.3286 44.3984 70.3286 46.4141V47.5625H62.0434C62.1294 48.6094 62.477 49.4375 63.0864 50.0469C63.7036 50.6562 64.477 50.9609 65.4067 50.9609C66.7114 50.9609 67.7739 50.4336 68.5942 49.3789L70.1294 50.8438C69.6216 51.6016 68.9419 52.1914 68.0903 52.6133C67.2466 53.0273 66.2973 53.2344 65.2427 53.2344ZM64.9028 42.3711C64.1216 42.3711 63.4888 42.6445 63.0044 43.1914C62.5278 43.7383 62.2231 44.5 62.0903 45.4766H67.5161V45.2656C67.4536 44.3125 67.1997 43.5938 66.7544 43.1094C66.3091 42.6172 65.6919 42.3711 64.9028 42.3711ZM73.0713 53V42.4297H71.1377V40.3203H73.0713V39.1602C73.0713 37.7539 73.4619 36.668 74.2431 35.9023C75.0244 35.1367 76.1181 34.7539 77.5244 34.7539C78.0244 34.7539 78.5556 34.8242 79.1181 34.9648L79.0478 37.1914C78.7353 37.1289 78.372 37.0977 77.958 37.0977C76.5986 37.0977 75.9189 37.7969 75.9189 39.1953V40.3203H78.497V42.4297H75.9189V53H73.0713ZM87.6733 53C87.5483 52.7578 87.4389 52.3633 87.3452 51.8164C86.4389 52.7617 85.3295 53.2344 84.017 53.2344C82.7436 53.2344 81.7045 52.8711 80.8998 52.1445C80.0952 51.418 79.6928 50.5195 79.6928 49.4492C79.6928 48.0977 80.1928 47.0625 81.1928 46.3438C82.2006 45.6172 83.6381 45.2539 85.5053 45.2539H87.2514V44.4219C87.2514 43.7656 87.0678 43.2422 86.7006 42.8516C86.3334 42.4531 85.7748 42.2539 85.0248 42.2539C84.3764 42.2539 83.8452 42.418 83.4311 42.7461C83.017 43.0664 82.81 43.4766 82.81 43.9766H79.9623C79.9623 43.2812 80.1928 42.6328 80.6538 42.0312C81.1147 41.4219 81.7397 40.9453 82.5288 40.6016C83.3256 40.2578 84.2123 40.0859 85.1889 40.0859C86.6733 40.0859 87.8569 40.4609 88.7397 41.2109C89.6225 41.9531 90.0756 43 90.0991 44.3516V50.0703C90.0991 51.2109 90.2592 52.1211 90.5795 52.8008V53H87.6733ZM84.5444 50.9492C85.1069 50.9492 85.6342 50.8125 86.1264 50.5391C86.6264 50.2656 87.0014 49.8984 87.2514 49.4375V47.0469H85.7163C84.6616 47.0469 83.8686 47.2305 83.3373 47.5977C82.8061 47.9648 82.5405 48.4844 82.5405 49.1562C82.5405 49.7031 82.7202 50.1406 83.0795 50.4688C83.4467 50.7891 83.935 50.9492 84.5444 50.9492ZM100.283 51.7578C99.4472 52.7422 98.2597 53.2344 96.7206 53.2344C95.3456 53.2344 94.3027 52.832 93.5917 52.0273C92.8886 51.2227 92.537 50.0586 92.537 48.5352V40.3203H95.3847V48.5C95.3847 50.1094 96.0527 50.9141 97.3886 50.9141C98.7714 50.9141 99.705 50.418 100.189 49.4258V40.3203H103.037V53H100.353L100.283 51.7578ZM108.487 53H105.639V35H108.487V53ZM114.686 37.2383V40.3203H116.925V42.4297H114.686V49.5078C114.686 49.9922 114.78 50.3438 114.968 50.5625C115.163 50.7734 115.507 50.8789 115.999 50.8789C116.327 50.8789 116.659 50.8398 116.995 50.7617V52.9648C116.347 53.1445 115.722 53.2344 115.12 53.2344C112.933 53.2344 111.839 52.0273 111.839 49.6133V42.4297H109.753V40.3203H111.839V37.2383H114.686Z" fill="black"/>
<rect x="284" y="541" width="300" height="49" rx="5" fill="#F7F7F7"/>
<path d="M306.18 560.859H302.523V571H301.031V560.859H297.383V559.625H306.18V560.859ZM310.367 571.156C309.221 571.156 308.289 570.781 307.57 570.031C306.852 569.276 306.492 568.268 306.492 567.008V566.742C306.492 565.904 306.651 565.156 306.969 564.5C307.292 563.839 307.74 563.323 308.312 562.953C308.891 562.578 309.516 562.391 310.188 562.391C311.286 562.391 312.141 562.753 312.75 563.477C313.359 564.201 313.664 565.237 313.664 566.586V567.188H307.938C307.958 568.021 308.201 568.695 308.664 569.211C309.133 569.721 309.727 569.977 310.445 569.977C310.956 569.977 311.388 569.872 311.742 569.664C312.096 569.456 312.406 569.18 312.672 568.836L313.555 569.523C312.846 570.612 311.784 571.156 310.367 571.156ZM310.188 563.578C309.604 563.578 309.115 563.792 308.719 564.219C308.323 564.641 308.078 565.234 307.984 566H312.219V565.891C312.177 565.156 311.979 564.589 311.625 564.188C311.271 563.781 310.792 563.578 310.188 563.578ZM318.18 565.633L320.055 562.547H321.742L318.977 566.727L321.828 571H320.156L318.203 567.836L316.25 571H314.57L317.422 566.727L314.656 562.547H316.328L318.18 565.633ZM325.242 560.5V562.547H326.82V563.664H325.242V568.906C325.242 569.245 325.312 569.5 325.453 569.672C325.594 569.839 325.833 569.922 326.172 569.922C326.339 569.922 326.568 569.891 326.859 569.828V571C326.479 571.104 326.109 571.156 325.75 571.156C325.104 571.156 324.617 570.961 324.289 570.57C323.961 570.18 323.797 569.625 323.797 568.906V563.664H322.258V562.547H323.797V560.5H325.242ZM332.516 570.242C332.516 569.992 332.589 569.784 332.734 569.617C332.885 569.451 333.109 569.367 333.406 569.367C333.703 569.367 333.927 569.451 334.078 569.617C334.234 569.784 334.312 569.992 334.312 570.242C334.312 570.482 334.234 570.682 334.078 570.844C333.927 571.005 333.703 571.086 333.406 571.086C333.109 571.086 332.885 571.005 332.734 570.844C332.589 570.682 332.516 570.482 332.516 570.242ZM336.734 570.242C336.734 569.992 336.807 569.784 336.953 569.617C337.104 569.451 337.328 569.367 337.625 569.367C337.922 569.367 338.146 569.451 338.297 569.617C338.453 569.784 338.531 569.992 338.531 570.242C338.531 570.482 338.453 570.682 338.297 570.844C338.146 571.005 337.922 571.086 337.625 571.086C337.328 571.086 337.104 571.005 336.953 570.844C336.807 570.682 336.734 570.482 336.734 570.242ZM340.953 570.242C340.953 569.992 341.026 569.784 341.172 569.617C341.323 569.451 341.547 569.367 341.844 569.367C342.141 569.367 342.365 569.451 342.516 569.617C342.672 569.784 342.75 569.992 342.75 570.242C342.75 570.482 342.672 570.682 342.516 570.844C342.365 571.005 342.141 571.086 341.844 571.086C341.547 571.086 341.323 571.005 341.172 570.844C341.026 570.682 340.953 570.482 340.953 570.242Z" fill="#828282"/>
<path d="M285.32 531V519.625H288.531C289.521 519.625 290.396 519.844 291.156 520.281C291.917 520.719 292.503 521.341 292.914 522.148C293.331 522.956 293.542 523.883 293.547 524.93V525.656C293.547 526.729 293.339 527.669 292.922 528.477C292.51 529.284 291.919 529.904 291.148 530.336C290.383 530.768 289.49 530.99 288.469 531H285.32ZM286.82 520.859V529.773H288.398C289.555 529.773 290.453 529.414 291.094 528.695C291.74 527.977 292.062 526.953 292.062 525.625V524.961C292.062 523.669 291.758 522.667 291.148 521.953C290.544 521.234 289.685 520.87 288.57 520.859H286.82ZM299.102 531.156C297.956 531.156 297.023 530.781 296.305 530.031C295.586 529.276 295.227 528.268 295.227 527.008V526.742C295.227 525.904 295.385 525.156 295.703 524.5C296.026 523.839 296.474 523.323 297.047 522.953C297.625 522.578 298.25 522.391 298.922 522.391C300.021 522.391 300.875 522.753 301.484 523.477C302.094 524.201 302.398 525.237 302.398 526.586V527.188H296.672C296.693 528.021 296.935 528.695 297.398 529.211C297.867 529.721 298.461 529.977 299.18 529.977C299.69 529.977 300.122 529.872 300.477 529.664C300.831 529.456 301.141 529.18 301.406 528.836L302.289 529.523C301.581 530.612 300.518 531.156 299.102 531.156ZM298.922 523.578C298.339 523.578 297.849 523.792 297.453 524.219C297.057 524.641 296.812 525.234 296.719 526H300.953V525.891C300.911 525.156 300.714 524.589 300.359 524.188C300.005 523.781 299.526 523.578 298.922 523.578ZM304.789 531V523.664H303.453V522.547H304.789V521.68C304.789 520.773 305.031 520.073 305.516 519.578C306 519.083 306.685 518.836 307.57 518.836C307.904 518.836 308.234 518.88 308.562 518.969L308.484 520.141C308.24 520.094 307.979 520.07 307.703 520.07C307.234 520.07 306.872 520.208 306.617 520.484C306.362 520.755 306.234 521.146 306.234 521.656V522.547H308.039V523.664H306.234V531H304.789ZM314.859 531C314.776 530.833 314.708 530.536 314.656 530.109C313.984 530.807 313.182 531.156 312.25 531.156C311.417 531.156 310.732 530.922 310.195 530.453C309.664 529.979 309.398 529.38 309.398 528.656C309.398 527.776 309.732 527.094 310.398 526.609C311.07 526.12 312.013 525.875 313.227 525.875H314.633V525.211C314.633 524.706 314.482 524.305 314.18 524.008C313.878 523.706 313.432 523.555 312.844 523.555C312.328 523.555 311.896 523.685 311.547 523.945C311.198 524.206 311.023 524.521 311.023 524.891H309.57C309.57 524.469 309.719 524.062 310.016 523.672C310.318 523.276 310.724 522.964 311.234 522.734C311.75 522.505 312.315 522.391 312.93 522.391C313.904 522.391 314.667 522.635 315.219 523.125C315.771 523.609 316.057 524.279 316.078 525.133V529.023C316.078 529.799 316.177 530.417 316.375 530.875V531H314.859ZM312.461 529.898C312.914 529.898 313.344 529.781 313.75 529.547C314.156 529.312 314.451 529.008 314.633 528.633V526.898H313.5C311.729 526.898 310.844 527.417 310.844 528.453C310.844 528.906 310.995 529.26 311.297 529.516C311.599 529.771 311.987 529.898 312.461 529.898ZM323.562 530.164C323 530.826 322.174 531.156 321.086 531.156C320.185 531.156 319.497 530.896 319.023 530.375C318.555 529.849 318.318 529.073 318.312 528.047V522.547H319.758V528.008C319.758 529.289 320.279 529.93 321.32 529.93C322.424 529.93 323.159 529.518 323.523 528.695V522.547H324.969V531H323.594L323.562 530.164ZM328.742 531H327.297V519H328.742V531ZM333.023 520.5V522.547H334.602V523.664H333.023V528.906C333.023 529.245 333.094 529.5 333.234 529.672C333.375 529.839 333.615 529.922 333.953 529.922C334.12 529.922 334.349 529.891 334.641 529.828V531C334.26 531.104 333.891 531.156 333.531 531.156C332.885 531.156 332.398 530.961 332.07 530.57C331.742 530.18 331.578 529.625 331.578 528.906V523.664H330.039V522.547H331.578V520.5H333.023Z" fill="#363636"/>
<g filter="url(#filter0_d)">
<rect x="284" y="419.25" width="300" height="50" rx="5" fill="#F7F7F7"/>
<path fill-rule="evenodd" clip-rule="evenodd" d="M566.414 430.586C565.633 429.805 564.367 429.805 563.586 430.586L565 432C563.586 430.586 563.586 430.586 563.586 430.586L563.585 430.586L563.583 430.588L563.575 430.596L563.544 430.628L563.419 430.752L562.939 431.233L561.154 433.018L555.101 439.071L553.25 440.922L543.414 431.086C542.633 430.305 541.367 430.305 540.586 431.086C539.805 431.867 539.805 433.133 540.586 433.914L550.422 443.75L539.586 454.586C538.805 455.367 538.805 456.633 539.586 457.414C540.367 458.195 541.633 458.195 542.414 457.414L553.25 446.578L564.586 457.914C565.367 458.695 566.633 458.695 567.414 457.914C568.195 457.133 568.195 455.867 567.414 455.086L556.078 443.75L557.929 441.899L563.982 435.846L565.767 434.061L566.248 433.581L566.372 433.456L566.404 433.425L566.412 433.417L566.414 433.415L566.414 433.414C566.414 433.414 566.414 433.414 565 432L566.414 433.414C567.195 432.633 567.195 431.367 566.414 430.586Z" fill="#F0454E"/>
<path d="M306.18 438.859H302.523V449H301.031V438.859H297.383V437.625H306.18V438.859ZM310.367 449.156C309.221 449.156 308.289 448.781 307.57 448.031C306.852 447.276 306.492 446.268 306.492 445.008V444.742C306.492 443.904 306.651 443.156 306.969 442.5C307.292 441.839 307.74 441.323 308.312 440.953C308.891 440.578 309.516 440.391 310.188 440.391C311.286 440.391 312.141 440.753 312.75 441.477C313.359 442.201 313.664 443.237 313.664 444.586V445.188H307.938C307.958 446.021 308.201 446.695 308.664 447.211C309.133 447.721 309.727 447.977 310.445 447.977C310.956 447.977 311.388 447.872 311.742 447.664C312.096 447.456 312.406 447.18 312.672 446.836L313.555 447.523C312.846 448.612 311.784 449.156 310.367 449.156ZM310.188 441.578C309.604 441.578 309.115 441.792 308.719 442.219C308.323 442.641 308.078 443.234 307.984 444H312.219V443.891C312.177 443.156 311.979 442.589 311.625 442.188C311.271 441.781 310.792 441.578 310.188 441.578ZM318.18 443.633L320.055 440.547H321.742L318.977 444.727L321.828 449H320.156L318.203 445.836L316.25 449H314.57L317.422 444.727L314.656 440.547H316.328L318.18 443.633ZM325.242 438.5V440.547H326.82V441.664H325.242V446.906C325.242 447.245 325.312 447.5 325.453 447.672C325.594 447.839 325.833 447.922 326.172 447.922C326.339 447.922 326.568 447.891 326.859 447.828V449C326.479 449.104 326.109 449.156 325.75 449.156C325.104 449.156 324.617 448.961 324.289 448.57C323.961 448.18 323.797 447.625 323.797 446.906V441.664H322.258V440.547H323.797V438.5H325.242ZM332.516 448.242C332.516 447.992 332.589 447.784 332.734 447.617C332.885 447.451 333.109 447.367 333.406 447.367C333.703 447.367 333.927 447.451 334.078 447.617C334.234 447.784 334.312 447.992 334.312 448.242C334.312 448.482 334.234 448.682 334.078 448.844C333.927 449.005 333.703 449.086 333.406 449.086C333.109 449.086 332.885 449.005 332.734 448.844C332.589 448.682 332.516 448.482 332.516 448.242ZM336.734 448.242C336.734 447.992 336.807 447.784 336.953 447.617C337.104 447.451 337.328 447.367 337.625 447.367C337.922 447.367 338.146 447.451 338.297 447.617C338.453 447.784 338.531 447.992 338.531 448.242C338.531 448.482 338.453 448.682 338.297 448.844C338.146 449.005 337.922 449.086 337.625 449.086C337.328 449.086 337.104 449.005 336.953 448.844C336.807 448.682 336.734 448.482 336.734 448.242ZM340.953 448.242C340.953 447.992 341.026 447.784 341.172 447.617C341.323 447.451 341.547 447.367 341.844 447.367C342.141 447.367 342.365 447.451 342.516 447.617C342.672 447.784 342.75 447.992 342.75 448.242C342.75 448.482 342.672 448.682 342.516 448.844C342.365 449.005 342.141 449.086 341.844 449.086C341.547 449.086 341.323 449.005 341.172 448.844C341.026 448.682 340.953 448.482 340.953 448.242Z" fill="#F0454E"/>
<rect x="284" y="419.25" width="300" height="50" rx="5" stroke="#F0454E" stroke-width="2"/>
</g>
<path d="M291.75 408.742H286.82V412.773H292.547V414H285.32V402.625H292.469V403.859H286.82V407.516H291.75V408.742ZM298.273 406.844C298.055 406.807 297.818 406.789 297.562 406.789C296.615 406.789 295.971 407.193 295.633 408V414H294.188V405.547H295.594L295.617 406.523C296.091 405.768 296.763 405.391 297.633 405.391C297.914 405.391 298.128 405.427 298.273 405.5V406.844ZM303.695 406.844C303.477 406.807 303.24 406.789 302.984 406.789C302.036 406.789 301.393 407.193 301.055 408V414H299.609V405.547H301.016L301.039 406.523C301.513 405.768 302.185 405.391 303.055 405.391C303.336 405.391 303.549 405.427 303.695 405.5V406.844ZM304.492 409.695C304.492 408.867 304.654 408.122 304.977 407.461C305.305 406.799 305.758 406.289 306.336 405.93C306.919 405.57 307.583 405.391 308.328 405.391C309.479 405.391 310.409 405.789 311.117 406.586C311.831 407.383 312.188 408.443 312.188 409.766V409.867C312.188 410.69 312.029 411.43 311.711 412.086C311.398 412.737 310.948 413.245 310.359 413.609C309.776 413.974 309.104 414.156 308.344 414.156C307.198 414.156 306.268 413.758 305.555 412.961C304.846 412.164 304.492 411.109 304.492 409.797V409.695ZM305.945 409.867C305.945 410.805 306.161 411.557 306.594 412.125C307.031 412.693 307.615 412.977 308.344 412.977C309.078 412.977 309.661 412.69 310.094 412.117C310.526 411.539 310.742 410.732 310.742 409.695C310.742 408.768 310.521 408.018 310.078 407.445C309.641 406.867 309.057 406.578 308.328 406.578C307.615 406.578 307.039 406.862 306.602 407.43C306.164 407.997 305.945 408.81 305.945 409.867ZM318.086 406.844C317.867 406.807 317.63 406.789 317.375 406.789C316.427 406.789 315.784 407.193 315.445 408V414H314V405.547H315.406L315.43 406.523C315.904 405.768 316.576 405.391 317.445 405.391C317.727 405.391 317.94 405.427 318.086 405.5V406.844Z" fill="#363636"/>
<rect x="284" y="290" width="300" height="50" rx="5" fill="#F7F7F7"/>
<path d="M306.18 309.859H302.523V320H301.031V309.859H297.383V308.625H306.18V309.859ZM310.367 320.156C309.221 320.156 308.289 319.781 307.57 319.031C306.852 318.276 306.492 317.268 306.492 316.008V315.742C306.492 314.904 306.651 314.156 306.969 313.5C307.292 312.839 307.74 312.323 308.312 311.953C308.891 311.578 309.516 311.391 310.188 311.391C311.286 311.391 312.141 311.753 312.75 312.477C313.359 313.201 313.664 314.237 313.664 315.586V316.188H307.938C307.958 317.021 308.201 317.695 308.664 318.211C309.133 318.721 309.727 318.977 310.445 318.977C310.956 318.977 311.388 318.872 311.742 318.664C312.096 318.456 312.406 318.18 312.672 317.836L313.555 318.523C312.846 319.612 311.784 320.156 310.367 320.156ZM310.188 312.578C309.604 312.578 309.115 312.792 308.719 313.219C308.323 313.641 308.078 314.234 307.984 315H312.219V314.891C312.177 314.156 311.979 313.589 311.625 313.188C311.271 312.781 310.792 312.578 310.188 312.578ZM318.18 314.633L320.055 311.547H321.742L318.977 315.727L321.828 320H320.156L318.203 316.836L316.25 320H314.57L317.422 315.727L314.656 311.547H316.328L318.18 314.633ZM325.242 309.5V311.547H326.82V312.664H325.242V317.906C325.242 318.245 325.312 318.5 325.453 318.672C325.594 318.839 325.833 318.922 326.172 318.922C326.339 318.922 326.568 318.891 326.859 318.828V320C326.479 320.104 326.109 320.156 325.75 320.156C325.104 320.156 324.617 319.961 324.289 319.57C323.961 319.18 323.797 318.625 323.797 317.906V312.664H322.258V311.547H323.797V309.5H325.242ZM332.516 319.242C332.516 318.992 332.589 318.784 332.734 318.617C332.885 318.451 333.109 318.367 333.406 318.367C333.703 318.367 333.927 318.451 334.078 318.617C334.234 318.784 334.312 318.992 334.312 319.242C334.312 319.482 334.234 319.682 334.078 319.844C333.927 320.005 333.703 320.086 333.406 320.086C333.109 320.086 332.885 320.005 332.734 319.844C332.589 319.682 332.516 319.482 332.516 319.242ZM336.734 319.242C336.734 318.992 336.807 318.784 336.953 318.617C337.104 318.451 337.328 318.367 337.625 318.367C337.922 318.367 338.146 318.451 338.297 318.617C338.453 318.784 338.531 318.992 338.531 319.242C338.531 319.482 338.453 319.682 338.297 319.844C338.146 320.005 337.922 320.086 337.625 320.086C337.328 320.086 337.104 320.005 336.953 319.844C336.807 319.682 336.734 319.482 336.734 319.242ZM340.953 319.242C340.953 318.992 341.026 318.784 341.172 318.617C341.323 318.451 341.547 318.367 341.844 318.367C342.141 318.367 342.365 318.451 342.516 318.617C342.672 318.784 342.75 318.992 342.75 319.242C342.75 319.482 342.672 319.682 342.516 319.844C342.365 320.005 342.141 320.086 341.844 320.086C341.547 320.086 341.323 320.005 341.172 319.844C341.026 319.682 340.953 319.482 340.953 319.242Z" fill="#517F8E"/>
<path d="M546.008 312.414C545.185 311.305 543.619 311.073 542.51 311.896C541.401 312.719 541.17 314.285 541.992 315.394L546.008 312.414ZM551.619 325.455L549.518 326.81C549.962 327.497 550.713 327.924 551.53 327.953C552.348 327.982 553.127 327.609 553.618 326.956L551.619 325.455ZM569.999 305.137C570.828 304.033 570.605 302.466 569.501 301.637C568.397 300.808 566.83 301.031 566.001 302.135L569.999 305.137ZM541.992 315.394C542.57 316.172 544.421 318.975 546.192 321.688C547.063 323.021 547.895 324.302 548.509 325.25C548.816 325.724 549.069 326.114 549.244 326.386C549.332 326.522 549.401 326.628 549.447 326.7C549.471 326.736 549.488 326.764 549.5 326.782C549.506 326.791 549.511 326.798 549.514 326.803C549.515 326.805 549.517 326.807 549.517 326.808C549.518 326.809 549.518 326.809 549.518 326.81C549.518 326.81 549.518 326.81 549.518 326.81C549.518 326.81 549.518 326.81 551.619 325.455C553.72 324.099 553.72 324.099 553.72 324.099C553.72 324.099 553.719 324.099 553.719 324.099C553.719 324.098 553.719 324.098 553.718 324.097C553.718 324.096 553.716 324.094 553.715 324.092C553.712 324.087 553.707 324.08 553.701 324.07C553.689 324.052 553.671 324.024 553.648 323.987C553.601 323.915 553.532 323.808 553.443 323.671C553.267 323.398 553.013 323.006 552.705 322.531C552.089 321.58 551.254 320.294 550.379 318.954C548.659 316.319 546.7 313.346 546.008 312.414L541.992 315.394ZM566.001 302.135L549.62 323.954L553.618 326.956L569.999 305.137L566.001 302.135Z" fill="#517F8E"/>
<path d="M291.594 277.977H286.82V283H285.32V271.625H292.367V272.859H286.82V276.75H291.594V277.977ZM295.508 283H294.062V274.547H295.508V283ZM293.945 272.305C293.945 272.07 294.016 271.872 294.156 271.711C294.302 271.549 294.516 271.469 294.797 271.469C295.078 271.469 295.292 271.549 295.438 271.711C295.583 271.872 295.656 272.07 295.656 272.305C295.656 272.539 295.583 272.734 295.438 272.891C295.292 273.047 295.078 273.125 294.797 273.125C294.516 273.125 294.302 273.047 294.156 272.891C294.016 272.734 293.945 272.539 293.945 272.305ZM299.398 283H297.953V271H299.398V283ZM303.289 283H301.844V271H303.289V283ZM309.117 283.156C307.971 283.156 307.039 282.781 306.32 282.031C305.602 281.276 305.242 280.268 305.242 279.008V278.742C305.242 277.904 305.401 277.156 305.719 276.5C306.042 275.839 306.49 275.323 307.062 274.953C307.641 274.578 308.266 274.391 308.938 274.391C310.036 274.391 310.891 274.753 311.5 275.477C312.109 276.201 312.414 277.237 312.414 278.586V279.188H306.688C306.708 280.021 306.951 280.695 307.414 281.211C307.883 281.721 308.477 281.977 309.195 281.977C309.706 281.977 310.138 281.872 310.492 281.664C310.846 281.456 311.156 281.18 311.422 280.836L312.305 281.523C311.596 282.612 310.534 283.156 309.117 283.156ZM308.938 275.578C308.354 275.578 307.865 275.792 307.469 276.219C307.073 276.641 306.828 277.234 306.734 278H310.969V277.891C310.927 277.156 310.729 276.589 310.375 276.188C310.021 275.781 309.542 275.578 308.938 275.578ZM313.742 278.703C313.742 277.406 314.049 276.365 314.664 275.578C315.279 274.786 316.083 274.391 317.078 274.391C318.068 274.391 318.852 274.729 319.43 275.406V271H320.875V283H319.547L319.477 282.094C318.898 282.802 318.094 283.156 317.062 283.156C316.083 283.156 315.284 282.755 314.664 281.953C314.049 281.151 313.742 280.104 313.742 278.812V278.703ZM315.188 278.867C315.188 279.826 315.385 280.576 315.781 281.117C316.177 281.659 316.724 281.93 317.422 281.93C318.339 281.93 319.008 281.518 319.43 280.695V276.812C318.997 276.016 318.333 275.617 317.438 275.617C316.729 275.617 316.177 275.891 315.781 276.438C315.385 276.984 315.188 277.794 315.188 278.867Z" fill="#363636"/>
<g filter="url(#filter1_d)">
<rect x="284" y="162" width="300" height="49" rx="5" fill="#F7F7F7"/>
<path d="M306.18 181.859H302.523V192H301.031V181.859H297.383V180.625H306.18V181.859ZM310.367 192.156C309.221 192.156 308.289 191.781 307.57 191.031C306.852 190.276 306.492 189.268 306.492 188.008V187.742C306.492 186.904 306.651 186.156 306.969 185.5C307.292 184.839 307.74 184.323 308.312 183.953C308.891 183.578 309.516 183.391 310.188 183.391C311.286 183.391 312.141 183.753 312.75 184.477C313.359 185.201 313.664 186.237 313.664 187.586V188.188H307.938C307.958 189.021 308.201 189.695 308.664 190.211C309.133 190.721 309.727 190.977 310.445 190.977C310.956 190.977 311.388 190.872 311.742 190.664C312.096 190.456 312.406 190.18 312.672 189.836L313.555 190.523C312.846 191.612 311.784 192.156 310.367 192.156ZM310.188 184.578C309.604 184.578 309.115 184.792 308.719 185.219C308.323 185.641 308.078 186.234 307.984 187H312.219V186.891C312.177 186.156 311.979 185.589 311.625 185.188C311.271 184.781 310.792 184.578 310.188 184.578ZM318.18 186.633L320.055 183.547H321.742L318.977 187.727L321.828 192H320.156L318.203 188.836L316.25 192H314.57L317.422 187.727L314.656 183.547H316.328L318.18 186.633ZM325.242 181.5V183.547H326.82V184.664H325.242V189.906C325.242 190.245 325.312 190.5 325.453 190.672C325.594 190.839 325.833 190.922 326.172 190.922C326.339 190.922 326.568 190.891 326.859 190.828V192C326.479 192.104 326.109 192.156 325.75 192.156C325.104 192.156 324.617 191.961 324.289 191.57C323.961 191.18 323.797 190.625 323.797 189.906V184.664H322.258V183.547H323.797V181.5H325.242ZM332.516 191.242C332.516 190.992 332.589 190.784 332.734 190.617C332.885 190.451 333.109 190.367 333.406 190.367C333.703 190.367 333.927 190.451 334.078 190.617C334.234 190.784 334.312 190.992 334.312 191.242C334.312 191.482 334.234 191.682 334.078 191.844C333.927 192.005 333.703 192.086 333.406 192.086C333.109 192.086 332.885 192.005 332.734 191.844C332.589 191.682 332.516 191.482 332.516 191.242ZM336.734 191.242C336.734 190.992 336.807 190.784 336.953 190.617C337.104 190.451 337.328 190.367 337.625 190.367C337.922 190.367 338.146 190.451 338.297 190.617C338.453 190.784 338.531 190.992 338.531 191.242C338.531 191.482 338.453 191.682 338.297 191.844C338.146 192.005 337.922 192.086 337.625 192.086C337.328 192.086 337.104 192.005 336.953 191.844C336.807 191.682 336.734 191.482 336.734 191.242ZM340.953 191.242C340.953 190.992 341.026 190.784 341.172 190.617C341.323 190.451 341.547 190.367 341.844 190.367C342.141 190.367 342.365 190.451 342.516 190.617C342.672 190.784 342.75 190.992 342.75 191.242C342.75 191.482 342.672 191.682 342.516 191.844C342.365 192.005 342.141 192.086 341.844 192.086C341.547 192.086 341.323 192.005 341.172 191.844C341.026 191.682 340.953 191.482 340.953 191.242Z" fill="#363636"/>
<rect x="283" y="161" width="302" height="51" rx="6" stroke="#FFD600" stroke-width="2" stroke-linejoin="round"/>
</g>
<path d="M291.602 149.031H286.836L285.766 152H284.219L288.562 140.625H289.875L294.227 152H292.688L291.602 149.031ZM287.289 147.797H291.156L289.219 142.477L287.289 147.797ZM298.922 150.977C299.438 150.977 299.888 150.82 300.273 150.508C300.659 150.195 300.872 149.805 300.914 149.336H302.281C302.255 149.82 302.089 150.281 301.781 150.719C301.474 151.156 301.062 151.505 300.547 151.766C300.036 152.026 299.495 152.156 298.922 152.156C297.771 152.156 296.854 151.773 296.172 151.008C295.495 150.237 295.156 149.185 295.156 147.852V147.609C295.156 146.786 295.307 146.055 295.609 145.414C295.911 144.773 296.344 144.276 296.906 143.922C297.474 143.568 298.143 143.391 298.914 143.391C299.862 143.391 300.648 143.674 301.273 144.242C301.904 144.81 302.24 145.547 302.281 146.453H300.914C300.872 145.906 300.664 145.458 300.289 145.109C299.919 144.755 299.461 144.578 298.914 144.578C298.18 144.578 297.609 144.844 297.203 145.375C296.802 145.901 296.602 146.664 296.602 147.664V147.938C296.602 148.911 296.802 149.661 297.203 150.188C297.604 150.714 298.177 150.977 298.922 150.977ZM305.867 141.5V143.547H307.445V144.664H305.867V149.906C305.867 150.245 305.938 150.5 306.078 150.672C306.219 150.839 306.458 150.922 306.797 150.922C306.964 150.922 307.193 150.891 307.484 150.828V152C307.104 152.104 306.734 152.156 306.375 152.156C305.729 152.156 305.242 151.961 304.914 151.57C304.586 151.18 304.422 150.625 304.422 149.906V144.664H302.883V143.547H304.422V141.5H305.867ZM310.711 152H309.266V143.547H310.711V152ZM309.148 141.305C309.148 141.07 309.219 140.872 309.359 140.711C309.505 140.549 309.719 140.469 310 140.469C310.281 140.469 310.495 140.549 310.641 140.711C310.786 140.872 310.859 141.07 310.859 141.305C310.859 141.539 310.786 141.734 310.641 141.891C310.495 142.047 310.281 142.125 310 142.125C309.719 142.125 309.505 142.047 309.359 141.891C309.219 141.734 309.148 141.539 309.148 141.305ZM315.82 150.039L317.914 143.547H319.391L316.359 152H315.258L312.195 143.547H313.672L315.82 150.039ZM325.875 152C325.792 151.833 325.724 151.536 325.672 151.109C325 151.807 324.198 152.156 323.266 152.156C322.432 152.156 321.747 151.922 321.211 151.453C320.68 150.979 320.414 150.38 320.414 149.656C320.414 148.776 320.747 148.094 321.414 147.609C322.086 147.12 323.029 146.875 324.242 146.875H325.648V146.211C325.648 145.706 325.497 145.305 325.195 145.008C324.893 144.706 324.448 144.555 323.859 144.555C323.344 144.555 322.911 144.685 322.562 144.945C322.214 145.206 322.039 145.521 322.039 145.891H320.586C320.586 145.469 320.734 145.062 321.031 144.672C321.333 144.276 321.74 143.964 322.25 143.734C322.766 143.505 323.331 143.391 323.945 143.391C324.919 143.391 325.682 143.635 326.234 144.125C326.786 144.609 327.073 145.279 327.094 146.133V150.023C327.094 150.799 327.193 151.417 327.391 151.875V152H325.875ZM323.477 150.898C323.93 150.898 324.359 150.781 324.766 150.547C325.172 150.312 325.466 150.008 325.648 149.633V147.898H324.516C322.745 147.898 321.859 148.417 321.859 149.453C321.859 149.906 322.01 150.26 322.312 150.516C322.615 150.771 323.003 150.898 323.477 150.898ZM331.32 141.5V143.547H332.898V144.664H331.32V149.906C331.32 150.245 331.391 150.5 331.531 150.672C331.672 150.839 331.911 150.922 332.25 150.922C332.417 150.922 332.646 150.891 332.938 150.828V152C332.557 152.104 332.188 152.156 331.828 152.156C331.182 152.156 330.695 151.961 330.367 151.57C330.039 151.18 329.875 150.625 329.875 149.906V144.664H328.336V143.547H329.875V141.5H331.32ZM338.102 152.156C336.956 152.156 336.023 151.781 335.305 151.031C334.586 150.276 334.227 149.268 334.227 148.008V147.742C334.227 146.904 334.385 146.156 334.703 145.5C335.026 144.839 335.474 144.323 336.047 143.953C336.625 143.578 337.25 143.391 337.922 143.391C339.021 143.391 339.875 143.753 340.484 144.477C341.094 145.201 341.398 146.237 341.398 147.586V148.188H335.672C335.693 149.021 335.935 149.695 336.398 150.211C336.867 150.721 337.461 150.977 338.18 150.977C338.69 150.977 339.122 150.872 339.477 150.664C339.831 150.456 340.141 150.18 340.406 149.836L341.289 150.523C340.581 151.612 339.518 152.156 338.102 152.156ZM337.922 144.578C337.339 144.578 336.849 144.792 336.453 145.219C336.057 145.641 335.812 146.234 335.719 147H339.953V146.891C339.911 146.156 339.714 145.589 339.359 145.188C339.005 144.781 338.526 144.578 337.922 144.578Z" fill="#363636"/>
<rect x="284" y="36" width="300" height="49" rx="5" fill="#F7F7F7"/>
<path d="M306.18 55.8594H302.523V66H301.031V55.8594H297.383V54.625H306.18V55.8594ZM310.367 66.1562C309.221 66.1562 308.289 65.7812 307.57 65.0312C306.852 64.276 306.492 63.2682 306.492 62.0078V61.7422C306.492 60.9036 306.651 60.1562 306.969 59.5C307.292 58.8385 307.74 58.3229 308.312 57.9531C308.891 57.5781 309.516 57.3906 310.188 57.3906C311.286 57.3906 312.141 57.7526 312.75 58.4766C313.359 59.2005 313.664 60.237 313.664 61.5859V62.1875H307.938C307.958 63.0208 308.201 63.6953 308.664 64.2109C309.133 64.7214 309.727 64.9766 310.445 64.9766C310.956 64.9766 311.388 64.8724 311.742 64.6641C312.096 64.4557 312.406 64.1797 312.672 63.8359L313.555 64.5234C312.846 65.612 311.784 66.1562 310.367 66.1562ZM310.188 58.5781C309.604 58.5781 309.115 58.7917 308.719 59.2188C308.323 59.6406 308.078 60.2344 307.984 61H312.219V60.8906C312.177 60.1562 311.979 59.5885 311.625 59.1875C311.271 58.7812 310.792 58.5781 310.188 58.5781ZM318.18 60.6328L320.055 57.5469H321.742L318.977 61.7266L321.828 66H320.156L318.203 62.8359L316.25 66H314.57L317.422 61.7266L314.656 57.5469H316.328L318.18 60.6328ZM325.242 55.5V57.5469H326.82V58.6641H325.242V63.9062C325.242 64.2448 325.312 64.5 325.453 64.6719C325.594 64.8385 325.833 64.9219 326.172 64.9219C326.339 64.9219 326.568 64.8906 326.859 64.8281V66C326.479 66.1042 326.109 66.1562 325.75 66.1562C325.104 66.1562 324.617 65.9609 324.289 65.5703C323.961 65.1797 323.797 64.625 323.797 63.9062V58.6641H322.258V57.5469H323.797V55.5H325.242ZM332.516 65.2422C332.516 64.9922 332.589 64.7839 332.734 64.6172C332.885 64.4505 333.109 64.3672 333.406 64.3672C333.703 64.3672 333.927 64.4505 334.078 64.6172C334.234 64.7839 334.312 64.9922 334.312 65.2422C334.312 65.4818 334.234 65.6823 334.078 65.8438C333.927 66.0052 333.703 66.0859 333.406 66.0859C333.109 66.0859 332.885 66.0052 332.734 65.8438C332.589 65.6823 332.516 65.4818 332.516 65.2422ZM336.734 65.2422C336.734 64.9922 336.807 64.7839 336.953 64.6172C337.104 64.4505 337.328 64.3672 337.625 64.3672C337.922 64.3672 338.146 64.4505 338.297 64.6172C338.453 64.7839 338.531 64.9922 338.531 65.2422C338.531 65.4818 338.453 65.6823 338.297 65.8438C338.146 66.0052 337.922 66.0859 337.625 66.0859C337.328 66.0859 337.104 66.0052 336.953 65.8438C336.807 65.6823 336.734 65.4818 336.734 65.2422ZM340.953 65.2422C340.953 64.9922 341.026 64.7839 341.172 64.6172C341.323 64.4505 341.547 64.3672 341.844 64.3672C342.141 64.3672 342.365 64.4505 342.516 64.6172C342.672 64.7839 342.75 64.9922 342.75 65.2422C342.75 65.4818 342.672 65.6823 342.516 65.8438C342.365 66.0052 342.141 66.0859 341.844 66.0859C341.547 66.0859 341.323 66.0052 341.172 65.8438C341.026 65.6823 340.953 65.4818 340.953 65.2422Z" fill="#363636"/>
<path d="M285.32 26V14.625H288.531C289.521 14.625 290.396 14.8438 291.156 15.2812C291.917 15.7188 292.503 16.3411 292.914 17.1484C293.331 17.9557 293.542 18.8828 293.547 19.9297V20.6562C293.547 21.7292 293.339 22.6693 292.922 23.4766C292.51 24.2839 291.919 24.9036 291.148 25.3359C290.383 25.7682 289.49 25.9896 288.469 26H285.32ZM286.82 15.8594V24.7734H288.398C289.555 24.7734 290.453 24.4141 291.094 23.6953C291.74 22.9766 292.062 21.9531 292.062 20.625V19.9609C292.062 18.6693 291.758 17.6667 291.148 16.9531C290.544 16.2344 289.685 15.8698 288.57 15.8594H286.82ZM299.102 26.1562C297.956 26.1562 297.023 25.7812 296.305 25.0312C295.586 24.276 295.227 23.2682 295.227 22.0078V21.7422C295.227 20.9036 295.385 20.1562 295.703 19.5C296.026 18.8385 296.474 18.3229 297.047 17.9531C297.625 17.5781 298.25 17.3906 298.922 17.3906C300.021 17.3906 300.875 17.7526 301.484 18.4766C302.094 19.2005 302.398 20.237 302.398 21.5859V22.1875H296.672C296.693 23.0208 296.935 23.6953 297.398 24.2109C297.867 24.7214 298.461 24.9766 299.18 24.9766C299.69 24.9766 300.122 24.8724 300.477 24.6641C300.831 24.4557 301.141 24.1797 301.406 23.8359L302.289 24.5234C301.581 25.612 300.518 26.1562 299.102 26.1562ZM298.922 18.5781C298.339 18.5781 297.849 18.7917 297.453 19.2188C297.057 19.6406 296.812 20.2344 296.719 21H300.953V20.8906C300.911 20.1562 300.714 19.5885 300.359 19.1875C300.005 18.7812 299.526 18.5781 298.922 18.5781ZM304.789 26V18.6641H303.453V17.5469H304.789V16.6797C304.789 15.7734 305.031 15.0729 305.516 14.5781C306 14.0833 306.685 13.8359 307.57 13.8359C307.904 13.8359 308.234 13.8802 308.562 13.9688L308.484 15.1406C308.24 15.0938 307.979 15.0703 307.703 15.0703C307.234 15.0703 306.872 15.2083 306.617 15.4844C306.362 15.7552 306.234 16.1458 306.234 16.6562V17.5469H308.039V18.6641H306.234V26H304.789ZM314.859 26C314.776 25.8333 314.708 25.5365 314.656 25.1094C313.984 25.8073 313.182 26.1562 312.25 26.1562C311.417 26.1562 310.732 25.9219 310.195 25.4531C309.664 24.9792 309.398 24.3802 309.398 23.6562C309.398 22.776 309.732 22.0938 310.398 21.6094C311.07 21.1198 312.013 20.875 313.227 20.875H314.633V20.2109C314.633 19.7057 314.482 19.3047 314.18 19.0078C313.878 18.7057 313.432 18.5547 312.844 18.5547C312.328 18.5547 311.896 18.6849 311.547 18.9453C311.198 19.2057 311.023 19.5208 311.023 19.8906H309.57C309.57 19.4688 309.719 19.0625 310.016 18.6719C310.318 18.276 310.724 17.9635 311.234 17.7344C311.75 17.5052 312.315 17.3906 312.93 17.3906C313.904 17.3906 314.667 17.6354 315.219 18.125C315.771 18.6094 316.057 19.2786 316.078 20.1328V24.0234C316.078 24.7995 316.177 25.4167 316.375 25.875V26H314.859ZM312.461 24.8984C312.914 24.8984 313.344 24.7812 313.75 24.5469C314.156 24.3125 314.451 24.0078 314.633 23.6328V21.8984H313.5C311.729 21.8984 310.844 22.4167 310.844 23.4531C310.844 23.9062 310.995 24.2604 311.297 24.5156C311.599 24.7708 311.987 24.8984 312.461 24.8984ZM323.562 25.1641C323 25.8255 322.174 26.1562 321.086 26.1562C320.185 26.1562 319.497 25.8958 319.023 25.375C318.555 24.849 318.318 24.0729 318.312 23.0469V17.5469H319.758V23.0078C319.758 24.2891 320.279 24.9297 321.32 24.9297C322.424 24.9297 323.159 24.5182 323.523 23.6953V17.5469H324.969V26H323.594L323.562 25.1641ZM328.742 26H327.297V14H328.742V26ZM333.023 15.5V17.5469H334.602V18.6641H333.023V23.9062C333.023 24.2448 333.094 24.5 333.234 24.6719C333.375 24.8385 333.615 24.9219 333.953 24.9219C334.12 24.9219 334.349 24.8906 334.641 24.8281V26C334.26 26.1042 333.891 26.1562 333.531 26.1562C332.885 26.1562 332.398 25.9609 332.07 25.5703C331.742 25.1797 331.578 24.625 331.578 23.9062V18.6641H330.039V17.5469H331.578V15.5H333.023Z" fill="#363636"/>
<defs>
<filter id="filter0_d" x="281" y="416.25" width="310" height="60" filterUnits="userSpaceOnUse" color-interpolation-filters="sRGB">
<feFlood flood-opacity="0" result="BackgroundImageFix"/>
<feColorMatrix in="SourceAlpha" type="matrix" values="0 0 0 0 0 0 0 0 0 0 0 0 0 0 0 0 0 0 127 0"/>
<feOffset dx="2" dy="2"/>
<feGaussianBlur stdDeviation="2"/>
<feColorMatrix type="matrix" values="0 0 0 0 0.708333 0 0 0 0 0.277431 0 0 0 0 0.299873 0 0 0 0.23 0"/>
<feBlend mode="normal" in2="BackgroundImageFix" result="effect1_dropShadow"/>
<feBlend mode="normal" in="SourceGraphic" in2="effect1_dropShadow" result="shape"/>
</filter>
<filter id="filter1_d" x="280" y="158" width="312" height="61" filterUnits="userSpaceOnUse" color-interpolation-filters="sRGB">
<feFlood flood-opacity="0" result="BackgroundImageFix"/>
<feColorMatrix in="SourceAlpha" type="matrix" values="0 0 0 0 0 0 0 0 0 0 0 0 0 0 0 0 0 0 127 0"/>
<feOffset dx="2" dy="2"/>
<feGaussianBlur stdDeviation="2"/>
<feColorMatrix type="matrix" values="0 0 0 0 1 0 0 0 0 0.84 0 0 0 0 0 0 0 0 0.26 0"/>
<feBlend mode="normal" in2="BackgroundImageFix" result="effect1_dropShadow"/>
<feBlend mode="normal" in="SourceGraphic" in2="effect1_dropShadow" result="shape"/>
</filter>
</defs>
</svg>
