<svg id="Livello_1" data-name="Livello 1" xmlns="http://www.w3.org/2000/svg" viewBox="0 0 962.25 1150.28"><title>backpack-background</title><path d="M832.72,728.52H296.08a36.37,36.37,0,0,0-26.17,11.23,39.05,39.05,0,0,0-10.84,27.11V996.91A39,39,0,0,0,269.91,1024a36.34,36.34,0,0,0,26.17,11.24H832.72A36.34,36.34,0,0,0,858.89,1024a39,39,0,0,0,10.84-27.11V766.86a39.05,39.05,0,0,0-10.84-27.11A36.37,36.37,0,0,0,832.72,728.52Zm0,38.34v57.51H296.08V766.86ZM296.08,996.91V862.71H832.72v134.2Z" style="fill:#f7f7f7"/><path d="M962.25,172.54V134.2h-111V95.86A19.54,19.54,0,0,0,845.8,82.3a18.2,18.2,0,0,0-13.08-5.61H740.19a18.19,18.19,0,0,0-13.08,5.61,19.54,19.54,0,0,0-5.42,13.56V134.2H698.56L673.2,41.79a57.84,57.84,0,0,0-20-30.12A54.56,54.56,0,0,0,619.72,0H490.56A54.56,54.56,0,0,0,457.1,11.67a58,58,0,0,0-20,30.12L411.73,134.2H388.6V95.86a19.54,19.54,0,0,0-5.42-13.56,18.2,18.2,0,0,0-13.08-5.61H277.57a18.19,18.19,0,0,0-13.08,5.61,19.54,19.54,0,0,0-5.42,13.56V134.2H148a90.94,90.94,0,0,0-65.43,28.08,97.62,97.62,0,0,0-27.1,67.78v115a97.66,97.66,0,0,0,27.1,67.79A91,91,0,0,0,148,440.94v134.2H55.51a18.17,18.17,0,0,0-13.08,5.62A19.51,19.51,0,0,0,37,594.31v57.52a19.23,19.23,0,0,0,4.63,12.27A77.06,77.06,0,0,0,37,690.17V786H18.5a18.2,18.2,0,0,0-13.08,5.61A19.54,19.54,0,0,0,0,805.2V977.74a58.75,58.75,0,0,0,16.31,40.62,54.71,54.71,0,0,0,39.2,16.9H148v19.17a97.65,97.65,0,0,0,27.1,67.78,90.89,90.89,0,0,0,65.42,28.07H869.72a90.91,90.91,0,0,0,65.43-28.07,97.65,97.65,0,0,0,27.1-67.78V402.6h-111V172.54ZM148,996.91H55.51a18.2,18.2,0,0,1-13.08-5.61A19.54,19.54,0,0,1,37,977.74V824.37H148ZM148,786H74V690.17A39.76,39.76,0,0,1,79,671h64a39.76,39.76,0,0,1,5,19.17Zm0-153.37H74V613.48h74ZM758.7,115h55.51V498.46H758.7ZM851.22,536.8v38.34H721.69V536.8Zm-37,76.68v19.18H758.7V613.48ZM472.8,52.15a19.18,19.18,0,0,1,6.66-10,18.08,18.08,0,0,1,11.1-3.84H619.72a18.11,18.11,0,0,1,11.11,3.84,19.18,19.18,0,0,1,6.66,10l22.58,82H450.22ZM388.6,172.54H721.69V402.6H388.6ZM296.08,115h55.51V498.46H296.08ZM388.6,536.8v38.34H259.07V536.8Zm-37,76.68v19.18H296.08V613.48ZM148,402.6a54.74,54.74,0,0,1-39.21-16.9,58.76,58.76,0,0,1-16.31-40.62v-115a58.78,58.78,0,0,1,16.31-40.62A54.74,54.74,0,0,1,148,172.54h111V402.6Zm777.2,38.34v613.49A58.75,58.75,0,0,1,908.93,1095a54.72,54.72,0,0,1-39.21,16.89H240.56a54.7,54.7,0,0,1-39.2-16.89A58.75,58.75,0,0,1,185,1054.43V440.94h74v57.52H240.56a18.19,18.19,0,0,0-13.08,5.61,19.54,19.54,0,0,0-5.42,13.56v76.68a19.54,19.54,0,0,0,5.42,13.56,18.15,18.15,0,0,0,13.08,5.61h18.51v38.35a19.51,19.51,0,0,0,5.42,13.55A18.16,18.16,0,0,0,277.57,671H370.1a18.17,18.17,0,0,0,13.08-5.62,19.51,19.51,0,0,0,5.42-13.55V613.48h18.51a18.16,18.16,0,0,0,13.08-5.61,19.54,19.54,0,0,0,5.42-13.56V517.63a19.54,19.54,0,0,0-5.42-13.56,18.2,18.2,0,0,0-13.08-5.61H388.6V440.94H721.69v57.52H703.18a18.19,18.19,0,0,0-13.08,5.61,19.54,19.54,0,0,0-5.42,13.56v76.68a19.54,19.54,0,0,0,5.42,13.56,18.15,18.15,0,0,0,13.08,5.61h18.51v38.35a19.51,19.51,0,0,0,5.42,13.55A18.16,18.16,0,0,0,740.19,671h92.53a18.17,18.17,0,0,0,13.08-5.62,19.51,19.51,0,0,0,5.42-13.55V613.48h18.5a18.17,18.17,0,0,0,13.09-5.61,19.54,19.54,0,0,0,5.42-13.56V517.63a19.54,19.54,0,0,0-5.42-13.56,18.21,18.21,0,0,0-13.09-5.61h-18.5V440.94Z" style="fill:#f7f7f7"/></svg>