<svg id="Livello_1" data-name="Livello 1" xmlns="http://www.w3.org/2000/svg" viewBox="0 0 1014.17 1571.24"><title>building-background</title><path d="M1485.86,1184.91c-13,0-23.58-11.51-23.58-25.75V1030.38c0-14.24,10.54-25.75,23.58-25.75s23.59,11.51,23.59,25.75v128.78C1509.45,1173.4,1498.9,1184.91,1485.86,1184.91Z" transform="translate(-495.28 0)" style="fill:#e9e9e9;fill-opacity:0.38999998569488525"/><path d="M754.73,1571.24c-13,0-23.58-11.51-23.58-25.75V1416.71c0-14.24,10.54-25.75,23.58-25.75s23.58,11.51,23.58,25.75v128.78C778.32,1559.73,767.77,1571.24,754.73,1571.24Z" transform="translate(-495.28 0)" style="fill:#e9e9e9;fill-opacity:0.38999998569488525"/><path d="M991.29,1382.22c-13,0-23.7-11.51-23.7-25.75S978,1330.71,991,1330.71h.26c13,0,23.58,11.52,23.58,25.76S1004.31,1382.22,991.29,1382.22Z" transform="translate(-495.28 0)" style="fill:#e9e9e9;fill-opacity:0.38999998569488525"/><path d="M1345.06,1195.29c-13,0-23.7-11.51-23.7-25.75s10.42-25.76,23.44-25.76h.26c13,0,23.58,11.52,23.58,25.76S1358.08,1195.29,1345.06,1195.29Z" transform="translate(-495.28 0)" style="fill:#e9e9e9;fill-opacity:0.38999998569488525"/><path d="M1227.14,1257.59c-13.05,0-23.71-11.51-23.71-25.75s10.43-25.76,23.45-25.76h.26c13,0,23.58,11.52,23.58,25.76S1240.15,1257.59,1227.14,1257.59Z" transform="translate(-495.28 0)" style="fill:#e9e9e9;fill-opacity:0.38999998569488525"/><path d="M1109.21,1319.92c-13,0-23.7-11.51-23.7-25.75s10.42-25.76,23.44-25.76h.26c13,0,23.59,11.51,23.59,25.76S1122.23,1319.92,1109.21,1319.92Z" transform="translate(-495.28 0)" style="fill:#e9e9e9;fill-opacity:0.38999998569488525"/><path d="M873.36,1444.55c-13,0-23.7-11.51-23.7-25.75S860.09,1393,873.1,1393h.26c13,0,23.59,11.51,23.59,25.76S886.38,1444.55,873.36,1444.55Z" transform="translate(-495.28 0)" style="fill:#e9e9e9;fill-opacity:0.38999998569488525"/><path d="M637.52,1444.55c-13,0-23.7-11.51-23.7-25.75S624.24,1393,637.26,1393h.26c13,0,23.58,11.51,23.58,25.76S650.53,1444.55,637.52,1444.55Z" transform="translate(-495.28 0)" style="fill:#e9e9e9;fill-opacity:0.38999998569488525"/><path d="M1087.58,845.72a21.93,21.93,0,0,1-10.26-2.58l-97-51.25c-11.72-6.21-16.63-21.61-11-34.41s19.74-18.11,31.51-12l97,51.25c11.72,6.21,16.62,21.61,11,34.41C1104.78,840.36,1096.36,845.72,1087.58,845.72Z" transform="translate(-495.28 0)" style="fill:#e9e9e9;fill-opacity:0.38999998569488525"/><path d="M1485.84,1056.14a21.89,21.89,0,0,1-10.26-2.58l-268.82-142c-11.72-6.21-16.63-21.61-11-34.41s19.74-18.13,31.51-12l268.82,142c11.72,6.2,16.63,21.61,11,34.41C1503,1050.78,1494.61,1056.14,1485.84,1056.14Z" transform="translate(-495.28 0)" style="fill:#e9e9e9;fill-opacity:0.38999998569488525"/><path d="M754.73,1185a22,22,0,0,1-10.54-2.71l-235.85-128.8c-11.65-6.36-16.37-21.84-10.54-34.56s20-17.83,31.65-11.52l225.28,123,225.31-123c11.65-6.31,25.82-1.21,31.65,11.52s1.11,28.2-10.54,34.56L765.3,1182.26A22.2,22.2,0,0,1,754.73,1185Z" transform="translate(-495.28 0)" style="fill:#e9e9e9;fill-opacity:0.38999998569488525"/><path d="M754.73,309.11a22,22,0,0,1-10.54-2.7L508.34,177.6C496.69,171.24,492,155.76,497.8,143s20-17.82,31.65-11.51l225.28,123L980,131.53c11.65-6.31,25.82-1.21,31.65,11.51s1.11,28.2-10.54,34.56L765.3,306.4A22.18,22.18,0,0,1,754.73,309.11Z" transform="translate(-495.28 0)" style="fill:#e9e9e9;fill-opacity:0.38999998569488525"/><path d="M990.56,180.33a22,22,0,0,1-10.52-2.7L754.73,54.57l-225.31,123c-11.65,6.31-25.8,1.21-31.65-11.51s-1.11-28.2,10.54-34.56L744.16,2.72a21.81,21.81,0,0,1,21.11,0l235.85,128.8c11.65,6.36,16.37,21.84,10.54,34.56C1007.54,175.13,999.21,180.33,990.56,180.33Z" transform="translate(-495.28 0)" style="fill:#e9e9e9;fill-opacity:0.38999998569488525"/><path d="M754.73,1185c-13,0-23.58-11.52-23.58-25.76V283.33c0-14.24,10.54-25.76,23.58-25.76s23.58,11.51,23.58,25.76v875.88C778.32,1173.45,767.77,1185,754.73,1185Z" transform="translate(-495.28 0)" style="fill:#e9e9e9;fill-opacity:0.38999998569488525"/><path d="M990.58,1056.16c-13,0-23.59-11.51-23.59-25.75V154.52c0-14.24,10.54-25.75,23.59-25.75s23.58,11.51,23.58,25.75v875.89C1014.16,1044.65,1003.62,1056.16,990.58,1056.16Z" transform="translate(-495.28 0)" style="fill:#e9e9e9;fill-opacity:0.38999998569488525"/><path d="M518.88,1056.16c-13,0-23.58-11.51-23.58-25.75V154.52c0-14.24,10.54-25.75,23.58-25.75s23.59,11.51,23.59,25.75v875.89C542.47,1044.65,531.93,1056.16,518.88,1056.16Z" transform="translate(-495.28 0)" style="fill:#e9e9e9;fill-opacity:0.38999998569488525"/><path d="M683.93,1017.43a22,22,0,0,1-10.52-2.71L579,963.19c-11.65-6.36-16.37-21.84-10.54-34.56s20-17.82,31.65-11.51l94.36,51.54c11.65,6.36,16.37,21.84,10.54,34.56C700.91,1012.23,692.59,1017.43,683.93,1017.43Z" transform="translate(-495.28 0)" style="fill:#e9e9e9;fill-opacity:0.38999998569488525"/><path d="M683.93,914.41a22,22,0,0,1-10.52-2.7L579,860.17c-11.65-6.36-16.37-21.84-10.54-34.56s20-17.82,31.65-11.51l94.36,51.54c11.65,6.36,16.37,21.84,10.54,34.56C700.91,909.21,692.59,914.41,683.93,914.41Z" transform="translate(-495.28 0)" style="fill:#e9e9e9;fill-opacity:0.38999998569488525"/><path d="M683.93,811.39a22,22,0,0,1-10.52-2.7L579,757.15c-11.65-6.36-16.37-21.84-10.54-34.56s20-17.85,31.65-11.51l94.36,51.54c11.65,6.36,16.37,21.84,10.54,34.56C700.91,806.18,692.59,811.39,683.93,811.39Z" transform="translate(-495.28 0)" style="fill:#e9e9e9;fill-opacity:0.38999998569488525"/><path d="M683.93,708.36a22,22,0,0,1-10.52-2.7L579,654.13c-11.65-6.36-16.37-21.84-10.54-34.56s20-17.82,31.65-11.51l94.36,51.54c11.65,6.36,16.37,21.84,10.54,34.56C700.91,703.16,692.59,708.36,683.93,708.36Z" transform="translate(-495.28 0)" style="fill:#e9e9e9;fill-opacity:0.38999998569488525"/><path d="M683.93,605.34a22,22,0,0,1-10.52-2.7L579,551.1c-11.65-6.36-16.37-21.84-10.54-34.56s20-17.82,31.65-11.51l94.36,51.54c11.65,6.36,16.37,21.84,10.54,34.56C700.91,600.14,692.59,605.34,683.93,605.34Z" transform="translate(-495.28 0)" style="fill:#e9e9e9;fill-opacity:0.38999998569488525"/><path d="M683.93,502.32a22,22,0,0,1-10.52-2.7L579,448.08c-11.65-6.36-16.37-21.84-10.54-34.56s20-17.85,31.65-11.51l94.36,51.54c11.65,6.36,16.37,21.84,10.54,34.56C700.91,497.12,692.59,502.32,683.93,502.32Z" transform="translate(-495.28 0)" style="fill:#e9e9e9;fill-opacity:0.38999998569488525"/><path d="M683.93,399.3a22,22,0,0,1-10.52-2.71L579,345.06c-11.65-6.36-16.37-21.84-10.54-34.56s20-17.85,31.65-11.51l94.36,51.54c11.65,6.36,16.37,21.84,10.54,34.56C700.91,394.1,692.59,399.3,683.93,399.3Z" transform="translate(-495.28 0)" style="fill:#e9e9e9;fill-opacity:0.38999998569488525"/><path d="M825.53,1017.43c-8.66,0-17-5.2-21.13-14.24-5.83-12.73-1.11-28.21,10.54-34.57l94.36-51.54c11.65-6.31,25.83-1.21,31.65,11.51s1.11,28.2-10.54,34.56l-94.36,51.54A21.82,21.82,0,0,1,825.53,1017.43Z" transform="translate(-495.28 0)" style="fill:#e9e9e9;fill-opacity:0.38999998569488525"/><path d="M825.53,914.41c-8.66,0-17-5.2-21.13-14.24-5.83-12.72-1.11-28.2,10.54-34.56l94.36-51.54c11.65-6.31,25.83-1.21,31.65,11.51s1.11,28.2-10.54,34.56l-94.36,51.54A21.78,21.78,0,0,1,825.53,914.41Z" transform="translate(-495.28 0)" style="fill:#e9e9e9;fill-opacity:0.38999998569488525"/><path d="M825.53,811.39c-8.66,0-17-5.2-21.13-14.24-5.83-12.72-1.11-28.2,10.54-34.56L909.31,711c11.65-6.34,25.83-1.21,31.65,11.51s1.11,28.2-10.54,34.56l-94.36,51.54A21.78,21.78,0,0,1,825.53,811.39Z" transform="translate(-495.28 0)" style="fill:#e9e9e9;fill-opacity:0.38999998569488525"/><path d="M825.53,708.36c-8.66,0-17-5.2-21.13-14.24-5.83-12.72-1.11-28.2,10.54-34.56L909.31,608c11.65-6.31,25.83-1.24,31.65,11.51s1.11,28.2-10.54,34.56l-94.36,51.54A21.78,21.78,0,0,1,825.53,708.36Z" transform="translate(-495.28 0)" style="fill:#e9e9e9;fill-opacity:0.38999998569488525"/><path d="M825.53,605.34c-8.66,0-17-5.2-21.13-14.24-5.83-12.72-1.11-28.2,10.54-34.56L909.31,505c11.65-6.31,25.83-1.21,31.65,11.51s1.11,28.2-10.54,34.56l-94.36,51.54A21.77,21.77,0,0,1,825.53,605.34Z" transform="translate(-495.28 0)" style="fill:#e9e9e9;fill-opacity:0.38999998569488525"/><path d="M825.53,502.32c-8.66,0-17-5.2-21.13-14.24-5.83-12.72-1.11-28.2,10.54-34.56L909.31,402c11.65-6.34,25.83-1.21,31.65,11.51s1.11,28.2-10.54,34.56l-94.36,51.54A21.78,21.78,0,0,1,825.53,502.32Z" transform="translate(-495.28 0)" style="fill:#e9e9e9;fill-opacity:0.38999998569488525"/><path d="M825.53,399.3c-8.66,0-17-5.2-21.13-14.24-5.83-12.72-1.11-28.2,10.54-34.56L909.31,299c11.65-6.34,25.83-1.21,31.65,11.51s1.11,28.2-10.54,34.56l-94.36,51.54A21.78,21.78,0,0,1,825.53,399.3Z" transform="translate(-495.28 0)" style="fill:#e9e9e9;fill-opacity:0.38999998569488525"/><path d="M1155.67,953c-52,0-94.34-46.2-94.34-103,0-29.39,27.17-206.14,94.34-206.14S1250,820.63,1250,850C1250,906.84,1207.7,953,1155.67,953Zm0-257.09C1137,708.44,1108.5,807.55,1108.5,850c0,28.41,21.16,51.51,47.17,51.51s47.17-23.1,47.17-51.51C1202.84,807.55,1174.31,708.44,1155.67,696Z" transform="translate(-495.28 0)" style="fill:#e9e9e9;fill-opacity:0.38999998569488525"/><path d="M1155.67,1056c-13,0-23.58-11.51-23.58-25.75V850c0-14.24,10.54-25.76,23.58-25.76s23.59,11.51,23.59,25.76v180.21C1179.26,1044.47,1168.72,1056,1155.67,1056Z" transform="translate(-495.28 0)" style="fill:#e9e9e9;fill-opacity:0.38999998569488525"/><path d="M1496.12,1053.59,765,1439.92a21.84,21.84,0,0,1-20.54,0L495.3,1308.24V1251L754.73,1388.1l720.85-380.9c11.81-6.13,25.85-.77,31.51,12S1507.84,1047.38,1496.12,1053.59Z" transform="translate(-495.28 0)" style="fill:#e9e9e9;fill-opacity:0.38999998569488525"/><path d="M1496.12,1182.36,765,1568.69a21.88,21.88,0,0,1-20.54,0L495.3,1437v-57.24l259.43,137.09L1475.58,1136c11.81-6.16,25.85-.8,31.51,12S1507.84,1176.16,1496.12,1182.36Z" transform="translate(-495.28 0)" style="fill:#e9e9e9;fill-opacity:0.38999998569488525"/></svg>