<svg id="Livello_1" data-name="Livello 1" xmlns="http://www.w3.org/2000/svg" viewBox="0 0 1417 716"><title>diagram</title><path d="M377.29,466a1,1,0,0,0,0,1.41l6.36,6.36a1,1,0,0,0,1.41-1.41l-5.66-5.66,5.66-5.66a1,1,0,0,0-1.41-1.41ZM478,465.72H378v2H478Z" style="fill:#517f8e"/><path d="M871.29,466a1,1,0,0,0,0,1.41l6.36,6.36a1,1,0,0,0,1.41-1.41l-5.66-5.66,5.66-5.66a1,1,0,0,0-1.41-1.41ZM972,465.72H872v2H972Z" style="fill:#517f8e"/><path d="M816.93,648.34l-.07-6.22,1.85-.17,0,6.22,0,4.82h-1.87Zm.89-11.26a1,1,0,0,1,.77.29,1.07,1.07,0,0,1,.29.79,1.14,1.14,0,0,1-.31.84,1.06,1.06,0,0,1-.82.31A1.07,1.07,0,0,1,817,639a1.34,1.34,0,0,1,0-1.63A1.13,1.13,0,0,1,817.82,637.09Zm8.5,14.45a3.83,3.83,0,0,0,1.73-.48l.22.14-.19,1.25a7.27,7.27,0,0,1-2.4.7,3.21,3.21,0,0,1-2-1,3.37,3.37,0,0,1-.6-2.16l.07-1.7,0-5h-1.51l-.1-.14.12-1.13h1.46v-1.78l1.66-.72.19.17,0,2.33h3.26l.1.14-.12,1.13h-3.24l-.12,6.5a1.89,1.89,0,0,0,.34,1.34A1.55,1.55,0,0,0,826.32,651.54Zm5-4.1v0a4.67,4.67,0,0,0,.91,3.1,3.2,3.2,0,0,0,2.59,1.08,5.58,5.58,0,0,0,1.68-.26,5.82,5.82,0,0,0,1.54-.79l.19.14-.29,1.63a7.63,7.63,0,0,1-3.36.82,4.73,4.73,0,0,1-3.7-1.49,6,6,0,0,1-1.34-4.13,6.22,6.22,0,0,1,1.34-4.2,4.54,4.54,0,0,1,3.62-1.56,3.92,3.92,0,0,1,3,1.1,4.14,4.14,0,0,1,1.06,3,7.45,7.45,0,0,1-.1,1.22l-.24.24Zm3.19-4.27a2.78,2.78,0,0,0-2,.79,4,4,0,0,0-1.06,2.18l5.3-.1,0-.34a2.66,2.66,0,0,0-.6-1.87A2.09,2.09,0,0,0,834.49,643.16ZM846.78,642a4.43,4.43,0,0,1,.62,0v1.85l-.22.07a3.14,3.14,0,0,0-.89-.12,2.08,2.08,0,0,0-1.46.65,6.85,6.85,0,0,0-1.3,2l0,1.68.12,4.82h-1.9l.12-4.66-.1-6.22,1.8-.17,0,2.26h.14a4.55,4.55,0,0,1,1.49-1.7A3,3,0,0,1,846.78,642Zm6.35-.17a3.62,3.62,0,0,1,2.45.77,2.61,2.61,0,0,1,.91,2.11q0,.41-.14,3t-.14,3a1.24,1.24,0,0,0,.17.74.73.73,0,0,0,.58.19,2.74,2.74,0,0,0,.82-.14l.19.17-.19,1.08a3.43,3.43,0,0,1-1.37.48,1.89,1.89,0,0,1-1.2-.53,1.83,1.83,0,0,1-.46-1.25h-.17a7.33,7.33,0,0,1-2.57,1.8,3.72,3.72,0,0,1-2.52-.79,2.85,2.85,0,0,1-.89-2.21,2.44,2.44,0,0,1,.55-1.68,3.25,3.25,0,0,1,1.68-.89l3.89-.91,0-1.56a2,2,0,0,0-.5-1.44,1.83,1.83,0,0,0-1.39-.5,3.8,3.8,0,0,0-1.63.38,7.8,7.8,0,0,0-1.75,1.2l-.19-.1L849,643.3A6.79,6.79,0,0,1,853.13,641.82Zm-1.92,6.94a1.39,1.39,0,0,0-.7.41,1.09,1.09,0,0,0-.22.74,1.74,1.74,0,0,0,.43,1.25,1.67,1.67,0,0,0,1.2.43,3.69,3.69,0,0,0,2.69-1.7l.07-2Zm13.08,2.78a3.83,3.83,0,0,0,1.73-.48l.22.14-.19,1.25a7.27,7.27,0,0,1-2.4.7,3.21,3.21,0,0,1-2-1,3.37,3.37,0,0,1-.6-2.16l.07-1.7,0-5h-1.51l-.1-.14.12-1.13h1.46v-1.78l1.66-.72.19.17,0,2.33h3.26l.1.14-.12,1.13H862.9l-.12,6.5a1.89,1.89,0,0,0,.34,1.34A1.55,1.55,0,0,0,864.29,651.54Zm4.57-3.19-.07-6.22,1.85-.17,0,6.22,0,4.82h-1.87Zm.89-11.26a1,1,0,0,1,.77.29,1.07,1.07,0,0,1,.29.79,1.14,1.14,0,0,1-.31.84,1.06,1.06,0,0,1-.82.31,1.07,1.07,0,0,1-.79-.29,1.34,1.34,0,0,1,0-1.63A1.14,1.14,0,0,1,869.74,637.09Zm9.15,4.73a4.25,4.25,0,0,1,3.46,1.46,6,6,0,0,1,1.25,4.08,6.51,6.51,0,0,1-1.3,4.32,4.6,4.6,0,0,1-3.7,1.51,4.39,4.39,0,0,1-3.5-1.44,6.22,6.22,0,0,1-1.22-4.1,6.41,6.41,0,0,1,1.3-4.3A4.64,4.64,0,0,1,878.89,641.82Zm-.12,1.34a2.73,2.73,0,0,0-2.3,1,4.9,4.9,0,0,0-.79,3,6.28,6.28,0,0,0,.77,3.46,2.6,2.6,0,0,0,2.28,1.15,2.75,2.75,0,0,0,2.3-1,4.84,4.84,0,0,0,.79-3,6.2,6.2,0,0,0-.79-3.46A2.52,2.52,0,0,0,878.77,643.16Zm14.75,2.38a2.18,2.18,0,0,0-.46-1.54,1.78,1.78,0,0,0-1.42-.55,4.94,4.94,0,0,0-3.26,1.7v3l.1,4.82h-1.9l.12-4.66-.1-6.22,1.8-.17v1.61h.14a7.24,7.24,0,0,1,3-1.7,4,4,0,0,1,2.74.84,3,3,0,0,1,.94,2.4l0,3.12.1,4.78H893.4Z" style="fill:#517f8e"/><rect x="1050.5" y="559.5" width="60.44" height="115.53" rx="9.5" ry="9.5" style="fill:none;stroke:#000"/><rect x="1059.53" y="571.71" width="41.32" height="29.66" style="fill:#e9e9e9"/><rect x="1059.53" y="607.73" width="41.32" height="29.66" style="fill:#e9e9e9"/><line x1="1060.59" y1="644.31" x2="1100.85" y2="644.31" style="fill:none;stroke:#000"/><line x1="1060.59" y1="657.02" x2="1100.85" y2="657.02" style="fill:none;stroke:#000"/><rect x="1149.02" y="559.5" width="60.44" height="115.53" rx="9.5" ry="9.5" style="fill:none;stroke:#000"/><rect x="1158.06" y="602.43" width="41.32" height="29.66" style="fill:#e9e9e9"/><line x1="1159.11" y1="644.31" x2="1199.37" y2="644.31" style="fill:none;stroke:#000"/><line x1="1159.11" y1="579.69" x2="1199.37" y2="579.69" style="fill:none;stroke:#000"/><line x1="1159.11" y1="657.02" x2="1199.37" y2="657.02" style="fill:none;stroke:#000"/><line x1="1159.11" y1="592.4" x2="1199.37" y2="592.4" style="fill:none;stroke:#000"/><rect x="1247.54" y="559.5" width="60.44" height="115.53" rx="9.5" ry="9.5" style="fill:none;stroke:#000"/><rect x="1256.58" y="587.6" width="26.48" height="49.79" style="fill:#e9e9e9"/><rect x="1257.64" y="653.28" width="40.26" height="11.65" style="fill:#e9e9e9"/><rect x="1287.3" y="587.6" width="13.77" height="49.79" style="fill:#e9e9e9"/><line x1="1257.64" y1="647.49" x2="1297.89" y2="647.49" style="fill:none;stroke:#000"/><line x1="1257.64" y1="579.69" x2="1297.89" y2="579.69" style="fill:none;stroke:#000"/><path d="M1035,610.91a1,1,0,0,0-.93-1.07l-9-.62a1,1,0,1,0-.14,2l8,.55-.55,8a1,1,0,1,0,2,.14ZM697,556.16c8.22,51.45,45.06,106.7,103.72,128.37s139,9.63,233.93-72.93l-1.32-1.51C938.79,692.35,859.25,704,801.43,682.65s-94.32-76-102.44-126.81Z" style="fill:#517f8e"/><rect x="28.5" y="566.5" width="60.44" height="115.53" rx="9.5" ry="9.5" style="fill:none;stroke:#000"/><rect x="37.53" y="591.42" width="41.32" height="29.66" rx="5" ry="5" style="fill:#7fa4b0"/><rect x="37.53" y="632.74" width="41.32" height="29.66" rx="5" ry="5" style="fill:#7fa4b0"/><line x1="38.59" y1="625.08" x2="78.85" y2="625.08" style="fill:none;stroke:#000;stroke-width:0.5px"/><line x1="38.59" y1="666.39" x2="78.85" y2="666.39" style="fill:none;stroke:#000;stroke-width:0.5px"/><line x1="38.59" y1="628.25" x2="78.85" y2="628.25" style="fill:none;stroke:#000;stroke-width:0.5px"/><line x1="38.59" y1="669.57" x2="78.85" y2="669.57" style="fill:none;stroke:#000;stroke-width:0.5px"/><path d="M59.54,584.53H55.38v-7h1v6.15h3.21Zm4.66-2.6a2.11,2.11,0,0,0-.13-.74,1.79,1.79,0,0,0-.35-.61,1.6,1.6,0,0,0-.53-.41,1.39,1.39,0,0,0-.66-.16,1.53,1.53,0,0,0-1.23.52,2.07,2.07,0,0,0-.44,1.38,2.36,2.36,0,0,0,.12.75,2.16,2.16,0,0,0,.35.62,1.87,1.87,0,0,0,.53.42,1.52,1.52,0,0,0,.67.15,1.67,1.67,0,0,0,.7-.14,1.44,1.44,0,0,0,.52-.39,1.73,1.73,0,0,0,.33-.61A2.39,2.39,0,0,0,64.2,581.93Zm-4.26,0a3,3,0,0,1,.2-1.13,2.56,2.56,0,0,1,.54-.86,2.45,2.45,0,0,1,.82-.54,2.79,2.79,0,0,1,1-.19,2.68,2.68,0,0,1,1,.19,2.43,2.43,0,0,1,.83.54,2.51,2.51,0,0,1,.55.85,3,3,0,0,1,.2,1.12,3.07,3.07,0,0,1-.2,1.13,2.44,2.44,0,0,1-1.37,1.42,2.82,2.82,0,0,1-2.06,0,2.49,2.49,0,0,1-.82-.56,2.69,2.69,0,0,1-.54-.86A3.07,3.07,0,0,1,59.94,581.93Zm8.39-2.72a2,2,0,0,1,.8.15,2.37,2.37,0,0,1,.62.37v-.4h.82v5.08a3.21,3.21,0,0,1-.17,1.11,1.86,1.86,0,0,1-.49.75,1.88,1.88,0,0,1-.75.44,3.2,3.2,0,0,1-1,.14,3.59,3.59,0,0,1-.9-.11,2.57,2.57,0,0,1-.77-.33l.33-.78a2.11,2.11,0,0,0,1.34.44,1.57,1.57,0,0,0,1.11-.37,1.54,1.54,0,0,0,.41-1.2v-.64a2.14,2.14,0,0,1-.58.46,1.78,1.78,0,0,1-.89.21,2.19,2.19,0,0,1-1.6-.68,2.68,2.68,0,0,1-.52-.82,3.08,3.08,0,0,1-.19-1.12,2.94,2.94,0,0,1,.19-1.07,2.75,2.75,0,0,1,.51-.86,2.37,2.37,0,0,1,.77-.56A2.15,2.15,0,0,1,68.33,579.21Zm.1,4.52a1.44,1.44,0,0,0,.72-.18,1.84,1.84,0,0,0,.52-.42v-2.72a3.12,3.12,0,0,0-.53-.29,1.82,1.82,0,0,0-.72-.13,1.46,1.46,0,0,0-.6.13,1.45,1.45,0,0,0-.5.36,1.78,1.78,0,0,0-.35.59,2.44,2.44,0,0,0,0,1.57,1.91,1.91,0,0,0,.35.59,1.56,1.56,0,0,0,.5.37A1.47,1.47,0,0,0,68.43,583.73Zm7.5-1.8a2.11,2.11,0,0,0-.13-.74,1.79,1.79,0,0,0-.35-.61,1.6,1.6,0,0,0-.53-.41,1.39,1.39,0,0,0-.66-.16,1.53,1.53,0,0,0-1.23.52,2.07,2.07,0,0,0-.44,1.38,2.36,2.36,0,0,0,.12.75,2.16,2.16,0,0,0,.35.62,1.87,1.87,0,0,0,.53.42,1.52,1.52,0,0,0,.67.15,1.67,1.67,0,0,0,.7-.14,1.44,1.44,0,0,0,.52-.39,1.73,1.73,0,0,0,.33-.61A2.39,2.39,0,0,0,75.93,581.93Zm-4.26,0a3,3,0,0,1,.2-1.13,2.56,2.56,0,0,1,.54-.86,2.45,2.45,0,0,1,.82-.54,2.79,2.79,0,0,1,1-.19,2.68,2.68,0,0,1,1,.19,2.43,2.43,0,0,1,.83.54,2.51,2.51,0,0,1,.55.85,3,3,0,0,1,.2,1.12,3.07,3.07,0,0,1-.2,1.13,2.44,2.44,0,0,1-1.37,1.42,2.82,2.82,0,0,1-2.06,0,2.49,2.49,0,0,1-.82-.56,2.69,2.69,0,0,1-.54-.86A3.07,3.07,0,0,1,71.67,581.93Z"/><circle cx="43.36" cy="581.36" r="5.83" style="fill:#ffe55e"/><rect x="123.84" y="566.5" width="205.58" height="115.53" rx="9.5" ry="9.5" style="fill:none;stroke:#000"/><rect x="144.53" y="591.42" width="41.32" height="29.66" rx="5" ry="5" style="fill:#7fa4b0"/><rect x="217.63" y="591.42" width="93.22" height="70.98" rx="5" ry="5" style="fill:#7fa4b0"/><rect x="144.53" y="632.74" width="41.32" height="29.66" rx="5" ry="5" style="fill:#7fa4b0"/><line x1="145.59" y1="625.08" x2="185.85" y2="625.08" style="fill:none;stroke:#000;stroke-width:0.5px"/><line x1="145.59" y1="666.39" x2="185.85" y2="666.39" style="fill:none;stroke:#000;stroke-width:0.5px"/><line x1="145.59" y1="628.25" x2="185.85" y2="628.25" style="fill:none;stroke:#000;stroke-width:0.5px"/><line x1="145.59" y1="669.57" x2="185.85" y2="669.57" style="fill:none;stroke:#000;stroke-width:0.5px"/><line x1="217.63" y1="669.57" x2="310.85" y2="669.57" style="fill:none;stroke:#000;stroke-width:0.5px"/><path d="M167.6,584.53h-4.16v-7h.95v6.15h3.21Zm4.66-2.6a2.1,2.1,0,0,0-.13-.74,1.8,1.8,0,0,0-.35-.61,1.6,1.6,0,0,0-.53-.41,1.39,1.39,0,0,0-.66-.16,1.52,1.52,0,0,0-1.23.52,2.07,2.07,0,0,0-.44,1.38,2.36,2.36,0,0,0,.12.75,2.16,2.16,0,0,0,.35.62,1.86,1.86,0,0,0,.53.42,1.52,1.52,0,0,0,.67.15,1.67,1.67,0,0,0,.7-.14,1.43,1.43,0,0,0,.52-.39,1.72,1.72,0,0,0,.33-.61A2.39,2.39,0,0,0,172.26,581.93Zm-4.26,0a3,3,0,0,1,.2-1.13,2.55,2.55,0,0,1,.54-.86,2.45,2.45,0,0,1,.82-.54,2.79,2.79,0,0,1,1-.19,2.68,2.68,0,0,1,1,.19,2.42,2.42,0,0,1,.83.54,2.51,2.51,0,0,1,.55.85,3,3,0,0,1,.2,1.12A3.08,3.08,0,0,1,173,583a2.48,2.48,0,0,1-.54.86,2.46,2.46,0,0,1-.83.56,2.82,2.82,0,0,1-2.06,0,2.49,2.49,0,0,1-.82-.56,2.68,2.68,0,0,1-.54-.86A3.06,3.06,0,0,1,168,581.93Zm8.39-2.72a2,2,0,0,1,.8.15,2.38,2.38,0,0,1,.62.37v-.4h.82v5.08a3.21,3.21,0,0,1-.17,1.11,1.93,1.93,0,0,1-1.24,1.19,3.21,3.21,0,0,1-1,.14,3.58,3.58,0,0,1-.9-.11,2.56,2.56,0,0,1-.77-.33l.33-.78a2,2,0,0,0,.56.31,2.07,2.07,0,0,0,.78.13,1.57,1.57,0,0,0,1.11-.37,1.54,1.54,0,0,0,.41-1.2v-.64a2.15,2.15,0,0,1-.58.46,1.78,1.78,0,0,1-.89.21,2.19,2.19,0,0,1-1.6-.68,2.67,2.67,0,0,1-.52-.82,3.07,3.07,0,0,1-.19-1.12,2.93,2.93,0,0,1,.19-1.07,2.73,2.73,0,0,1,.51-.86,2.36,2.36,0,0,1,.77-.56A2.15,2.15,0,0,1,176.38,579.21Zm.1,4.52a1.45,1.45,0,0,0,.72-.18,1.86,1.86,0,0,0,.52-.42v-2.72a3.14,3.14,0,0,0-.53-.29,1.82,1.82,0,0,0-.72-.13,1.46,1.46,0,0,0-.6.13,1.44,1.44,0,0,0-.5.36,1.76,1.76,0,0,0-.35.59,2.43,2.43,0,0,0,0,1.57,1.89,1.89,0,0,0,.35.59,1.55,1.55,0,0,0,.5.37A1.47,1.47,0,0,0,176.48,583.73Zm7.5-1.8a2.1,2.1,0,0,0-.13-.74,1.78,1.78,0,0,0-.35-.61,1.59,1.59,0,0,0-.53-.41,1.39,1.39,0,0,0-.66-.16,1.53,1.53,0,0,0-1.23.52,2.07,2.07,0,0,0-.44,1.38,2.36,2.36,0,0,0,.12.75,2.18,2.18,0,0,0,.35.62,1.88,1.88,0,0,0,.53.42,1.52,1.52,0,0,0,.67.15,1.67,1.67,0,0,0,.7-.14,1.43,1.43,0,0,0,.52-.39,1.72,1.72,0,0,0,.33-.61A2.39,2.39,0,0,0,184,581.93Zm-4.26,0a3,3,0,0,1,.2-1.13,2.58,2.58,0,0,1,.54-.86,2.46,2.46,0,0,1,.82-.54,2.79,2.79,0,0,1,1-.19,2.68,2.68,0,0,1,1,.19,2.42,2.42,0,0,1,.83.54,2.49,2.49,0,0,1,.55.85,3,3,0,0,1,.2,1.12,3.05,3.05,0,0,1-.2,1.13,2.44,2.44,0,0,1-1.37,1.42,2.82,2.82,0,0,1-2.06,0,2.5,2.5,0,0,1-.82-.56,2.71,2.71,0,0,1-.54-.86A3.09,3.09,0,0,1,179.72,581.93Z"/><circle cx="151.42" cy="581.36" r="5.83" style="fill:#ffe55e"/><path d="M191.87,128.6a20.63,20.63,0,0,0-13,19.12,5.53,5.53,0,0,0,11.05,0,9.5,9.5,0,0,1,9.5-9.51,9.63,9.63,0,0,1,9.52,9.5,9.46,9.46,0,0,1-6.1,8.89,13.91,13.91,0,0,0-6.5,5.08c-2.92,4.21-2.44,7.76-2.44,13.28a5.57,5.57,0,0,0,.15,1.3,1.38,1.38,0,0,0,2.69-.65c-.11-.45-.08-.13-.08-6.1a11.06,11.06,0,0,1,7.16-10.34,12.26,12.26,0,1,0-16.67-11.46,2.76,2.76,0,0,1-5.52,0,17.8,17.8,0,1,1,24.18,16.61,5.66,5.66,0,0,0-2.63,2c-1.25,1.79-1,2.82-1,8.59a2.77,2.77,0,0,1-2.76,2.76,1.38,1.38,0,0,0-1.38,1.38c0,2.9,6.9,1.13,6.91-4.14v-5.45a2.79,2.79,0,0,1,1.85-2.6,20.56,20.56,0,1,0-15-38.31Z"/><path d="M204.16,188.75a5.52,5.52,0,1,0-4.67,8.38A5.5,5.5,0,0,0,204.16,188.75Zm-5.37,5.53a2.69,2.69,0,0,1-2-2.13,2.75,2.75,0,1,1,2,2.13Z"/><path d="M222.78,121.36a47.15,47.15,0,0,0-68.42,55.55A45.06,45.06,0,0,0,161.15,190h0a1.37,1.37,0,0,0,1.14.31h0a1.31,1.31,0,0,0,.26-.08h0a1.38,1.38,0,0,0,.57-2.08c-21.32-29.41,0-70.37,36-70.37a44.37,44.37,0,1,1-26,80.32,1.4,1.4,0,0,0-1.47-.1l-15.5,8.39a1,1,0,0,1-1.4-.82c0-.33-.33.39,5.89-11.1a1.38,1.38,0,1,0-2.43-1.31C152,204.73,152,204.34,152,205.58a3.71,3.71,0,0,0,5.48,3.25l14.75-8a47.15,47.15,0,0,0,53.29.39C254.36,181.75,252.89,138.82,222.78,121.36Z"/><path d="M582.91,118.64v1.2l-5.78.84-.19-.19v-1.2l5.81-.82Zm16.36-4.08a3.77,3.77,0,0,1,3.17,1.39,6,6,0,0,1,1.1,3.89,6.54,6.54,0,0,1-1.39,4.46,4.94,4.94,0,0,1-3.89,1.56,5.81,5.81,0,0,1-2.35-.53l-1.32.6-.34-.19.14-4.68L594.28,109l1.9-.17-.07,7.37h.14a9.37,9.37,0,0,1,1.49-1A7.5,7.5,0,0,1,599.27,114.56Zm-.84,9.91a3,3,0,0,0,2.42-1.08,4.93,4.93,0,0,0,.89-3.19,5.44,5.44,0,0,0-.7-3,2.16,2.16,0,0,0-1.94-1.08,3.07,3.07,0,0,0-1.49.41,6.84,6.84,0,0,0-1.54,1.27l0,3,.07,2.86A4.13,4.13,0,0,0,598.43,124.47Zm13.1-9.82a4.43,4.43,0,0,1,.62,0v1.85l-.22.07a3.14,3.14,0,0,0-.89-.12,2.07,2.07,0,0,0-1.46.65,6.84,6.84,0,0,0-1.3,2l0,1.68.12,4.82h-1.9l.12-4.66-.1-6.22,1.8-.17,0,2.26h.14a4.55,4.55,0,0,1,1.49-1.7A3,3,0,0,1,611.53,114.66Zm6.35-.17a3.62,3.62,0,0,1,2.45.77,2.61,2.61,0,0,1,.91,2.11q0,.41-.14,3t-.14,3a1.24,1.24,0,0,0,.17.74.73.73,0,0,0,.58.19,2.74,2.74,0,0,0,.82-.14l.19.17-.19,1.08a3.43,3.43,0,0,1-1.37.48,1.89,1.89,0,0,1-1.2-.53,1.83,1.83,0,0,1-.46-1.25h-.17a7.33,7.33,0,0,1-2.57,1.8,3.72,3.72,0,0,1-2.52-.79,2.85,2.85,0,0,1-.89-2.21,2.44,2.44,0,0,1,.55-1.68,3.25,3.25,0,0,1,1.68-.89l3.89-.91,0-1.56a2,2,0,0,0-.5-1.44,1.83,1.83,0,0,0-1.39-.5,3.8,3.8,0,0,0-1.63.38,7.8,7.8,0,0,0-1.75,1.2l-.19-.1-.24-1.37A6.79,6.79,0,0,1,617.88,114.49ZM616,121.42a1.39,1.39,0,0,0-.7.41,1.09,1.09,0,0,0-.22.74,1.74,1.74,0,0,0,.43,1.25,1.67,1.67,0,0,0,1.2.43,3.69,3.69,0,0,0,2.69-1.7l.07-2Zm9.74-.41-.07-6.22,1.85-.17,0,6.22,0,4.82H625.6Zm.89-11.26a1,1,0,0,1,.77.29,1.07,1.07,0,0,1,.29.79,1.14,1.14,0,0,1-.31.84,1.06,1.06,0,0,1-.82.31,1.07,1.07,0,0,1-.79-.29,1.34,1.34,0,0,1,0-1.63A1.14,1.14,0,0,1,626.59,109.76Zm12,8.45a2.18,2.18,0,0,0-.46-1.54,1.78,1.78,0,0,0-1.42-.55,4.94,4.94,0,0,0-3.26,1.7v3l.1,4.82h-1.9l.12-4.66-.1-6.22,1.8-.17v1.61h.14a7.24,7.24,0,0,1,3-1.7,4,4,0,0,1,2.74.84,3,3,0,0,1,.94,2.4l0,3.12.1,4.78h-1.92Zm8.68-3.7a6.82,6.82,0,0,1,2.64.53l-.26,1.56-.29.07a4.2,4.2,0,0,0-2.3-.79,1.89,1.89,0,0,0-1.32.46,1.44,1.44,0,0,0-.5,1.1,1.3,1.3,0,0,0,.5,1.06,10.22,10.22,0,0,0,1.61.89,12,12,0,0,1,1.49.79,3.14,3.14,0,0,1,1,.91,2.39,2.39,0,0,1,.41,1.42,3.19,3.19,0,0,1-.46,1.66,3.39,3.39,0,0,1-1.34,1.25,4.57,4.57,0,0,1-2.11.46,6.78,6.78,0,0,1-3.19-.79l.24-1.63.22-.14a5.23,5.23,0,0,0,1.44.89,4.07,4.07,0,0,0,1.49.31,2.12,2.12,0,0,0,1.44-.48,1.55,1.55,0,0,0,.55-1.18,1.21,1.21,0,0,0-.53-1,8,8,0,0,0-1.58-.91q-.94-.43-1.51-.77a3.3,3.3,0,0,1-1-1,2.59,2.59,0,0,1-.41-1.49,2.9,2.9,0,0,1,1-2.28A4.12,4.12,0,0,1,647.25,114.51Zm9.58,9.7a3.83,3.83,0,0,0,1.73-.48l.22.14-.19,1.25a7.27,7.27,0,0,1-2.4.7,3.21,3.21,0,0,1-2-1,3.37,3.37,0,0,1-.6-2.16l.07-1.7,0-5h-1.51l-.1-.14.12-1.13h1.46v-1.78l1.66-.72.19.17,0,2.33h3.26l.1.14-.12,1.13h-3.24l-.12,6.5a1.89,1.89,0,0,0,.34,1.34A1.55,1.55,0,0,0,656.83,124.21Zm8.22-9.72a4.25,4.25,0,0,1,3.46,1.46,6,6,0,0,1,1.25,4.08,6.51,6.51,0,0,1-1.3,4.32,4.6,4.6,0,0,1-3.7,1.51,4.39,4.39,0,0,1-3.5-1.44,6.22,6.22,0,0,1-1.22-4.1,6.41,6.41,0,0,1,1.3-4.3A4.64,4.64,0,0,1,665.05,114.49Zm-.12,1.34a2.73,2.73,0,0,0-2.3,1,4.9,4.9,0,0,0-.79,3,6.28,6.28,0,0,0,.77,3.46,2.6,2.6,0,0,0,2.28,1.15,2.75,2.75,0,0,0,2.3-1,4.84,4.84,0,0,0,.79-3,6.2,6.2,0,0,0-.79-3.46A2.52,2.52,0,0,0,664.93,115.83Zm12.85-1.18a4.43,4.43,0,0,1,.62,0v1.85l-.22.07a3.14,3.14,0,0,0-.89-.12,2.07,2.07,0,0,0-1.46.65,6.84,6.84,0,0,0-1.3,2l0,1.68.12,4.82h-1.9l.12-4.66-.1-6.22,1.8-.17,0,2.26h.14a4.55,4.55,0,0,1,1.49-1.7A3,3,0,0,1,677.78,114.66Zm16.71,3.55a2.18,2.18,0,0,0-.46-1.54,1.78,1.78,0,0,0-1.42-.55,4.69,4.69,0,0,0-3.19,1.66l0,3.12.1,4.78h-1.94l.14-7.46a2.18,2.18,0,0,0-.46-1.54,1.78,1.78,0,0,0-1.42-.55,4.94,4.94,0,0,0-3.26,1.7v3l.1,4.82h-1.9l.12-4.66-.1-6.22,1.8-.17v1.61h.14a7.24,7.24,0,0,1,3-1.7A4.51,4.51,0,0,1,688,115a2.57,2.57,0,0,1,1.22,1.34h.14a7.78,7.78,0,0,1,3.24-1.82,4,4,0,0,1,2.76.84,3,3,0,0,1,.91,2.4l0,3.12.1,4.78h-1.92Zm5.8,2.81-.07-6.22,1.85-.17,0,6.22,0,4.82H700.2Zm.89-11.26a1,1,0,0,1,.77.29,1.07,1.07,0,0,1,.29.79,1.14,1.14,0,0,1-.31.84,1.06,1.06,0,0,1-.82.31,1.07,1.07,0,0,1-.79-.29,1.34,1.34,0,0,1,0-1.63A1.14,1.14,0,0,1,701.18,109.76Zm12,8.45a2.18,2.18,0,0,0-.46-1.54,1.78,1.78,0,0,0-1.42-.55,4.94,4.94,0,0,0-3.26,1.7v3l.1,4.82h-1.9l.12-4.66-.1-6.22,1.8-.17v1.61h.14a7.24,7.24,0,0,1,3-1.7,4,4,0,0,1,2.74.84,3,3,0,0,1,.94,2.4l0,3.12.1,4.78H713Zm15.4-2.59q-.74.22-2.21.5l0,.1a3.76,3.76,0,0,1,.53,2,3.52,3.52,0,0,1-1.18,2.78,4.54,4.54,0,0,1-3.14,1,5.57,5.57,0,0,1-1.49-.19,3,3,0,0,0-.55.5.7.7,0,0,0-.14.43q0,.5.62.72a15.86,15.86,0,0,0,2,.41,18.91,18.91,0,0,1,2.28.43,3.9,3.9,0,0,1,1.54.79,1.81,1.81,0,0,1,.65,1.49,2.83,2.83,0,0,1-.7,1.85,4.45,4.45,0,0,1-1.87,1.32,6.8,6.8,0,0,1-2.59.48,4.59,4.59,0,0,1-3-.89,2.78,2.78,0,0,1-1.06-2.26,5.39,5.39,0,0,1,2.11-2.09V125a3.53,3.53,0,0,1-1.34-.7,1.65,1.65,0,0,1-.46-1.22,4.56,4.56,0,0,1,1.46-1.46v-.1a3.26,3.26,0,0,1-1.18-1.25,4.13,4.13,0,0,1-.38-1.82,3.53,3.53,0,0,1,1.15-2.81,4.56,4.56,0,0,1,3.12-1,4.9,4.9,0,0,1,2.16.43q1.66-.31,3.48-.82l.19.14Zm-6,5.16a2.45,2.45,0,0,0,1.85-.67,2.53,2.53,0,0,0,.67-1.87,2.4,2.4,0,0,0-.62-1.78,2.44,2.44,0,0,0-1.8-.62,2.59,2.59,0,0,0-1.87.65,2.45,2.45,0,0,0-.67,1.85,2.22,2.22,0,0,0,2.45,2.45Zm3.17,6.24a1.12,1.12,0,0,0-.82-1.1,11.76,11.76,0,0,0-2.42-.55l-.77-.12a6.8,6.8,0,0,0-1.39,1.06,1.56,1.56,0,0,0-.46,1.06,1.35,1.35,0,0,0,.67,1.15,3.48,3.48,0,0,0,1.92.46,4.37,4.37,0,0,0,2.33-.58A1.59,1.59,0,0,0,725.78,127ZM601.21,152.64v1.2l-5.78.84-.19-.19v-1.2l5.81-.82Zm20.8-.43a2.18,2.18,0,0,0-.46-1.54,1.78,1.78,0,0,0-1.42-.55,4.69,4.69,0,0,0-3.19,1.66l0,3.12.1,4.78h-1.94l.14-7.46a2.18,2.18,0,0,0-.46-1.54,1.78,1.78,0,0,0-1.42-.55,4.94,4.94,0,0,0-3.26,1.7v3l.1,4.82h-1.9l.12-4.66-.1-6.22,1.8-.17v1.61h.14a7.24,7.24,0,0,1,3-1.7,4.51,4.51,0,0,1,2.21.48,2.57,2.57,0,0,1,1.22,1.34h.14a7.78,7.78,0,0,1,3.24-1.82,4,4,0,0,1,2.76.84,3,3,0,0,1,.91,2.4l0,3.12.1,4.78h-1.92Zm9.31-3.72a3.62,3.62,0,0,1,2.45.77,2.61,2.61,0,0,1,.91,2.11q0,.41-.14,3t-.14,3a1.24,1.24,0,0,0,.17.74.73.73,0,0,0,.58.19,2.75,2.75,0,0,0,.82-.14l.19.17-.19,1.08a3.43,3.43,0,0,1-1.37.48,1.89,1.89,0,0,1-1.2-.53,1.83,1.83,0,0,1-.46-1.25h-.17a7.33,7.33,0,0,1-2.57,1.8,3.72,3.72,0,0,1-2.52-.79,2.85,2.85,0,0,1-.89-2.21,2.44,2.44,0,0,1,.55-1.68,3.25,3.25,0,0,1,1.68-.89l3.89-.91,0-1.56a2,2,0,0,0-.5-1.44,1.83,1.83,0,0,0-1.39-.5,3.8,3.8,0,0,0-1.63.38,7.8,7.8,0,0,0-1.75,1.2l-.19-.1-.24-1.37A6.79,6.79,0,0,1,631.32,148.49Zm-1.92,6.94a1.39,1.39,0,0,0-.7.41,1.09,1.09,0,0,0-.22.74,1.74,1.74,0,0,0,.43,1.25,1.67,1.67,0,0,0,1.2.43,3.69,3.69,0,0,0,2.69-1.7l.07-2Zm9.74-.41-.07-6.22,1.85-.17,0,6.22,0,4.82H639Zm.89-11.26a1,1,0,0,1,.77.29,1.07,1.07,0,0,1,.29.79,1.14,1.14,0,0,1-.31.84,1.06,1.06,0,0,1-.82.31,1.07,1.07,0,0,1-.79-.29,1.34,1.34,0,0,1,0-1.63A1.14,1.14,0,0,1,640,143.76Zm12,8.45a2.18,2.18,0,0,0-.46-1.54,1.78,1.78,0,0,0-1.42-.55,4.94,4.94,0,0,0-3.26,1.7v3l.1,4.82h-1.9l.12-4.66-.1-6.22,1.8-.17v1.61H647a7.24,7.24,0,0,1,3-1.7,4,4,0,0,1,2.74.84,3,3,0,0,1,.94,2.4l0,3.12.1,4.78h-1.92Zm19.6-2.59q-.74.22-2.21.5l0,.1a3.76,3.76,0,0,1,.53,2,3.52,3.52,0,0,1-1.18,2.78,4.54,4.54,0,0,1-3.14,1,5.57,5.57,0,0,1-1.49-.19,3,3,0,0,0-.55.5.7.7,0,0,0-.14.43q0,.5.62.72a15.86,15.86,0,0,0,2,.41,18.91,18.91,0,0,1,2.28.43,3.9,3.9,0,0,1,1.54.79,1.81,1.81,0,0,1,.65,1.49,2.83,2.83,0,0,1-.7,1.85,4.45,4.45,0,0,1-1.87,1.32,6.8,6.8,0,0,1-2.59.48,4.59,4.59,0,0,1-3-.89,2.78,2.78,0,0,1-1.06-2.26,5.39,5.39,0,0,1,2.11-2.09V159a3.53,3.53,0,0,1-1.34-.7,1.65,1.65,0,0,1-.46-1.22,4.56,4.56,0,0,1,1.46-1.46v-.1a3.26,3.26,0,0,1-1.18-1.25,4.13,4.13,0,0,1-.38-1.82,3.53,3.53,0,0,1,1.15-2.81,4.56,4.56,0,0,1,3.12-1,4.9,4.9,0,0,1,2.16.43q1.66-.31,3.48-.82l.19.14Zm-6,5.16a2.45,2.45,0,0,0,1.85-.67,2.53,2.53,0,0,0,.67-1.87,2.4,2.4,0,0,0-.62-1.78,2.44,2.44,0,0,0-1.8-.62,2.59,2.59,0,0,0-1.87.65,2.45,2.45,0,0,0-.67,1.85,2.22,2.22,0,0,0,2.45,2.45Zm3.17,6.24a1.12,1.12,0,0,0-.82-1.1,11.76,11.76,0,0,0-2.42-.55l-.77-.12a6.8,6.8,0,0,0-1.39,1.06,1.56,1.56,0,0,0-.46,1.06,1.35,1.35,0,0,0,.67,1.15,3.48,3.48,0,0,0,1.92.46,4.37,4.37,0,0,0,2.33-.58A1.59,1.59,0,0,0,668.83,161Zm9.1-12.53a4.25,4.25,0,0,1,3.46,1.46,6,6,0,0,1,1.25,4.08,6.51,6.51,0,0,1-1.3,4.32,4.6,4.6,0,0,1-3.7,1.51,4.39,4.39,0,0,1-3.5-1.44,6.22,6.22,0,0,1-1.22-4.1,6.41,6.41,0,0,1,1.3-4.3A4.64,4.64,0,0,1,677.93,148.49Zm-.12,1.34a2.73,2.73,0,0,0-2.3,1,4.9,4.9,0,0,0-.79,3,6.28,6.28,0,0,0,.77,3.46,2.6,2.6,0,0,0,2.28,1.15,2.75,2.75,0,0,0,2.3-1,4.84,4.84,0,0,0,.79-3,6.2,6.2,0,0,0-.79-3.46A2.52,2.52,0,0,0,677.81,149.83Zm11.67-1.34a3.62,3.62,0,0,1,2.45.77,2.61,2.61,0,0,1,.91,2.11q0,.41-.14,3t-.14,3a1.24,1.24,0,0,0,.17.74.73.73,0,0,0,.58.19,2.75,2.75,0,0,0,.82-.14l.19.17-.19,1.08a3.43,3.43,0,0,1-1.37.48,1.89,1.89,0,0,1-1.2-.53,1.83,1.83,0,0,1-.46-1.25h-.17a7.33,7.33,0,0,1-2.57,1.8,3.72,3.72,0,0,1-2.52-.79,2.85,2.85,0,0,1-.89-2.21,2.44,2.44,0,0,1,.55-1.68,3.25,3.25,0,0,1,1.68-.89l3.89-.91,0-1.56a2,2,0,0,0-.5-1.44,1.83,1.83,0,0,0-1.39-.5,3.8,3.8,0,0,0-1.63.38,7.8,7.8,0,0,0-1.75,1.2l-.19-.1-.24-1.37A6.79,6.79,0,0,1,689.48,148.49Zm-1.92,6.94a1.39,1.39,0,0,0-.7.41,1.09,1.09,0,0,0-.22.74,1.74,1.74,0,0,0,.43,1.25,1.67,1.67,0,0,0,1.2.43,3.69,3.69,0,0,0,2.69-1.7l.07-2Zm11.49-.58.12,4.82h-1.9l.14-4.68-.12-12,1.9-.17Zm7.3-6.34A6.82,6.82,0,0,1,709,149l-.26,1.56-.29.07a4.2,4.2,0,0,0-2.3-.79,1.89,1.89,0,0,0-1.32.46,1.44,1.44,0,0,0-.5,1.1,1.3,1.3,0,0,0,.5,1.06,10.22,10.22,0,0,0,1.61.89,12,12,0,0,1,1.49.79,3.14,3.14,0,0,1,1,.91,2.39,2.39,0,0,1,.41,1.42,3.19,3.19,0,0,1-.46,1.66,3.39,3.39,0,0,1-1.34,1.25,4.57,4.57,0,0,1-2.11.46,6.78,6.78,0,0,1-3.19-.79l.24-1.63.22-.14a5.23,5.23,0,0,0,1.44.89,4.07,4.07,0,0,0,1.49.31A2.12,2.12,0,0,0,707,158a1.55,1.55,0,0,0,.55-1.18,1.21,1.21,0,0,0-.53-1,8,8,0,0,0-1.58-.91q-.94-.43-1.51-.77a3.3,3.3,0,0,1-1-1,2.59,2.59,0,0,1-.41-1.49,2.9,2.9,0,0,1,1-2.28A4.12,4.12,0,0,1,706.35,148.51Zm-110.6,38.13v1.2l-5.78.84-.19-.19v-1.2l5.81-.82Zm11-4.15a6.51,6.51,0,0,1,1.54.19,6.14,6.14,0,0,1,1.42.46l-.34,1.66-.22.07a4.5,4.5,0,0,0-2.47-.82,2.58,2.58,0,0,0-2.21,1.08,5,5,0,0,0-.79,3,5.15,5.15,0,0,0,.82,3.07,2.74,2.74,0,0,0,2.3,1.1,4.53,4.53,0,0,0,1.34-.22,5.65,5.65,0,0,0,1.34-.6l.22.12-.22,1.61a7.42,7.42,0,0,1-2.93.62,4.24,4.24,0,0,1-3.43-1.49,7.45,7.45,0,0,1,0-8.33A4.44,4.44,0,0,1,606.75,182.49Zm9.62,0a4.25,4.25,0,0,1,3.46,1.46,6,6,0,0,1,1.25,4.08,6.51,6.51,0,0,1-1.3,4.32,4.6,4.6,0,0,1-3.7,1.51,4.39,4.39,0,0,1-3.5-1.44,6.22,6.22,0,0,1-1.22-4.1,6.41,6.41,0,0,1,1.3-4.3A4.64,4.64,0,0,1,616.37,182.49Zm-.12,1.34a2.73,2.73,0,0,0-2.3,1,4.9,4.9,0,0,0-.79,3,6.28,6.28,0,0,0,.77,3.46,2.6,2.6,0,0,0,2.28,1.15,2.75,2.75,0,0,0,2.3-1,4.84,4.84,0,0,0,.79-3,6.2,6.2,0,0,0-.79-3.46A2.52,2.52,0,0,0,616.25,183.83Zm21.56,2.38a2.18,2.18,0,0,0-.46-1.54,1.78,1.78,0,0,0-1.42-.55,4.69,4.69,0,0,0-3.19,1.66l0,3.12.1,4.78h-1.94l.14-7.46a2.18,2.18,0,0,0-.46-1.54,1.78,1.78,0,0,0-1.42-.55,4.94,4.94,0,0,0-3.26,1.7v3l.1,4.82h-1.9l.12-4.66-.1-6.22,1.8-.17v1.61H626a7.24,7.24,0,0,1,3-1.7,4.51,4.51,0,0,1,2.21.48,2.57,2.57,0,0,1,1.22,1.34h.14a7.78,7.78,0,0,1,3.24-1.82,4,4,0,0,1,2.76.84,3,3,0,0,1,.91,2.4l0,3.12.1,4.78H637.7Zm10.67-3.65a3.83,3.83,0,0,1,3.17,1.37,6.09,6.09,0,0,1,1.1,3.91,6.54,6.54,0,0,1-1.39,4.46,5,5,0,0,1-4,1.56,10.64,10.64,0,0,1-2.09-.22l0,4.46H643.5l.12-9.1-.12-6.22,1.82-.17,0,1.56h.17a9.44,9.44,0,0,1,1.51-1.06A6.75,6.75,0,0,1,648.49,182.56Zm-.84,9.91a2.93,2.93,0,0,0,2.45-1.1,5,5,0,0,0,.86-3.14,5.54,5.54,0,0,0-.7-3,2.17,2.17,0,0,0-1.94-1.06,3.07,3.07,0,0,0-1.49.41,6.84,6.84,0,0,0-1.54,1.27l0,3,0,3A5,5,0,0,0,647.65,192.47Zm9.16-4.37v0a4.67,4.67,0,0,0,.91,3.1,3.2,3.2,0,0,0,2.59,1.08,5.58,5.58,0,0,0,1.68-.26,5.82,5.82,0,0,0,1.54-.79l.19.14-.29,1.63a7.63,7.63,0,0,1-3.36.82,4.73,4.73,0,0,1-3.7-1.49,6,6,0,0,1-1.34-4.13,6.22,6.22,0,0,1,1.34-4.2,4.54,4.54,0,0,1,3.62-1.56,3.92,3.92,0,0,1,3,1.1,4.14,4.14,0,0,1,1.06,3,7.45,7.45,0,0,1-.1,1.22l-.24.24Zm3.19-4.27a2.78,2.78,0,0,0-2,.79,4,4,0,0,0-1.06,2.18l5.3-.1,0-.34a2.66,2.66,0,0,0-.6-1.87A2.09,2.09,0,0,0,660,183.83Zm10.7,8.38a3.83,3.83,0,0,0,1.73-.48l.22.14-.19,1.25a7.27,7.27,0,0,1-2.4.7,3.21,3.21,0,0,1-2-1,3.37,3.37,0,0,1-.6-2.16l.07-1.7,0-5H666l-.1-.14.12-1.13h1.46v-1.78l1.66-.72.19.17,0,2.33h3.26l.1.14-.12,1.13h-3.24l-.12,6.5a1.89,1.89,0,0,0,.34,1.34A1.55,1.55,0,0,0,670.71,192.21Zm4.57-3.19-.07-6.22,1.85-.17,0,6.22,0,4.82h-1.87Zm.89-11.26a1,1,0,0,1,.77.29,1.07,1.07,0,0,1,.29.79,1.14,1.14,0,0,1-.31.84,1.06,1.06,0,0,1-.82.31,1.07,1.07,0,0,1-.79-.29,1.34,1.34,0,0,1,0-1.63A1.13,1.13,0,0,1,676.16,177.76Zm8.5,14.45a3.83,3.83,0,0,0,1.73-.48l.22.14-.19,1.25a7.27,7.27,0,0,1-2.4.7,3.21,3.21,0,0,1-2-1,3.37,3.37,0,0,1-.6-2.16l.07-1.7,0-5H680l-.1-.14.12-1.13h1.46v-1.78l1.66-.72.19.17,0,2.33h3.26l.1.14-.12,1.13h-3.24l-.12,6.5a1.89,1.89,0,0,0,.34,1.34A1.55,1.55,0,0,0,684.67,192.21Zm8.22-9.72a4.25,4.25,0,0,1,3.46,1.46,6,6,0,0,1,1.25,4.08,6.51,6.51,0,0,1-1.3,4.32,4.6,4.6,0,0,1-3.7,1.51,4.39,4.39,0,0,1-3.5-1.44,6.22,6.22,0,0,1-1.22-4.1,6.41,6.41,0,0,1,1.3-4.3A4.64,4.64,0,0,1,692.89,182.49Zm-.12,1.34a2.73,2.73,0,0,0-2.3,1,4.9,4.9,0,0,0-.79,3,6.28,6.28,0,0,0,.77,3.46,2.6,2.6,0,0,0,2.28,1.15,2.75,2.75,0,0,0,2.3-1,4.84,4.84,0,0,0,.79-3A6.2,6.2,0,0,0,695,185,2.52,2.52,0,0,0,692.77,183.83Zm12.85-1.18a4.43,4.43,0,0,1,.62,0v1.85l-.22.07a3.14,3.14,0,0,0-.89-.12,2.08,2.08,0,0,0-1.46.65,6.84,6.84,0,0,0-1.3,2l0,1.68.12,4.82h-1.9l.12-4.66-.1-6.22,1.8-.17,0,2.26h.14a4.55,4.55,0,0,1,1.49-1.7A3,3,0,0,1,705.62,182.66Zm6-.14a6.82,6.82,0,0,1,2.64.53L714,184.6l-.29.07a4.2,4.2,0,0,0-2.3-.79,1.89,1.89,0,0,0-1.32.46,1.44,1.44,0,0,0-.5,1.1,1.3,1.3,0,0,0,.5,1.06,10.22,10.22,0,0,0,1.61.89,12,12,0,0,1,1.49.79,3.14,3.14,0,0,1,1,.91,2.39,2.39,0,0,1,.41,1.42,3.19,3.19,0,0,1-.46,1.66,3.39,3.39,0,0,1-1.34,1.25,4.57,4.57,0,0,1-2.11.46,6.78,6.78,0,0,1-3.19-.79l.24-1.63.22-.14a5.24,5.24,0,0,0,1.44.89,4.07,4.07,0,0,0,1.49.31,2.12,2.12,0,0,0,1.44-.48,1.55,1.55,0,0,0,.55-1.18,1.21,1.21,0,0,0-.53-1,8,8,0,0,0-1.58-.91q-.94-.43-1.51-.77a3.3,3.3,0,0,1-1-1,2.59,2.59,0,0,1-.41-1.49,2.9,2.9,0,0,1,1-2.28A4.12,4.12,0,0,1,711.58,182.51Zm-91.47,29a3.62,3.62,0,0,1,2.45.77,2.61,2.61,0,0,1,.91,2.11q0,.41-.14,3t-.14,3a1.24,1.24,0,0,0,.17.74.73.73,0,0,0,.58.19,2.74,2.74,0,0,0,.82-.14l.19.17-.19,1.08a3.43,3.43,0,0,1-1.37.48,1.89,1.89,0,0,1-1.2-.53,1.83,1.83,0,0,1-.46-1.25h-.17a7.33,7.33,0,0,1-2.57,1.8,3.72,3.72,0,0,1-2.52-.79,2.85,2.85,0,0,1-.89-2.21,2.44,2.44,0,0,1,.55-1.68,3.25,3.25,0,0,1,1.68-.89l3.89-.91,0-1.56a2,2,0,0,0-.5-1.44,1.83,1.83,0,0,0-1.39-.5,3.8,3.8,0,0,0-1.63.38,7.8,7.8,0,0,0-1.75,1.2l-.19-.1L616,213A6.79,6.79,0,0,1,620.11,211.49Zm-1.92,6.94a1.39,1.39,0,0,0-.7.41,1.09,1.09,0,0,0-.22.74,1.74,1.74,0,0,0,.43,1.25,1.67,1.67,0,0,0,1.2.43,3.69,3.69,0,0,0,2.69-1.7l.07-2Zm16.32-3.22a2.18,2.18,0,0,0-.46-1.54,1.78,1.78,0,0,0-1.42-.55,4.94,4.94,0,0,0-3.26,1.7v3l.1,4.82h-1.9l.12-4.66-.1-6.22,1.8-.17v1.61h.14a7.24,7.24,0,0,1,3-1.7,4,4,0,0,1,2.74.84,3,3,0,0,1,.94,2.4l0,3.12.1,4.78H634.4Zm9.3-3.72a3.62,3.62,0,0,1,2.45.77,2.61,2.61,0,0,1,.91,2.11q0,.41-.14,3t-.14,3a1.24,1.24,0,0,0,.17.74.73.73,0,0,0,.58.19,2.74,2.74,0,0,0,.82-.14l.19.17-.19,1.08a3.43,3.43,0,0,1-1.37.48,1.89,1.89,0,0,1-1.2-.53,1.83,1.83,0,0,1-.46-1.25h-.17a7.33,7.33,0,0,1-2.57,1.8,3.72,3.72,0,0,1-2.52-.79,2.85,2.85,0,0,1-.89-2.21,2.44,2.44,0,0,1,.55-1.68,3.25,3.25,0,0,1,1.68-.89l3.89-.91,0-1.56a2,2,0,0,0-.5-1.44,1.83,1.83,0,0,0-1.39-.5,3.8,3.8,0,0,0-1.63.38,7.8,7.8,0,0,0-1.75,1.2l-.19-.1-.24-1.37A6.79,6.79,0,0,1,643.82,211.49Zm-1.92,6.94a1.39,1.39,0,0,0-.7.41,1.09,1.09,0,0,0-.22.74,1.74,1.74,0,0,0,.43,1.25,1.67,1.67,0,0,0,1.2.43,3.69,3.69,0,0,0,2.69-1.7l.07-2Zm11.49-.58.12,4.82h-1.9l.14-4.68-.12-12,1.9-.17Zm4.73-4.82,2.64,7.58h.17l2.74-7.42.36-1.51h1.7l-3.94,10.61a10.31,10.31,0,0,1-1.3,2.57,4.83,4.83,0,0,1-1.66,1.46,9.8,9.8,0,0,1-2.54.94h-.17a3.9,3.9,0,0,1-.79-1.13l0-.22a7.41,7.41,0,0,0,2.78-1,6,6,0,0,0,1.82-2.21l-4-10.94,1.8-.12Zm13-1.51a6.82,6.82,0,0,1,2.64.53l-.26,1.56-.29.07a4.2,4.2,0,0,0-2.3-.79,1.89,1.89,0,0,0-1.32.46,1.44,1.44,0,0,0-.5,1.1,1.3,1.3,0,0,0,.5,1.06,10.22,10.22,0,0,0,1.61.89,12,12,0,0,1,1.49.79,3.14,3.14,0,0,1,1,.91,2.39,2.39,0,0,1,.41,1.42,3.19,3.19,0,0,1-.46,1.66,3.39,3.39,0,0,1-1.34,1.25,4.57,4.57,0,0,1-2.11.46,6.78,6.78,0,0,1-3.19-.79l.24-1.63.22-.14a5.24,5.24,0,0,0,1.44.89,4.07,4.07,0,0,0,1.49.31,2.12,2.12,0,0,0,1.44-.48,1.55,1.55,0,0,0,.55-1.18,1.21,1.21,0,0,0-.53-1,8,8,0,0,0-1.58-.91q-.94-.43-1.51-.77a3.3,3.3,0,0,1-1-1,2.59,2.59,0,0,1-.41-1.49,2.9,2.9,0,0,1,1-2.28A4.12,4.12,0,0,1,671.15,211.51Zm6.24,6.5-.07-6.22,1.85-.17,0,6.22,0,4.82h-1.87Zm.89-11.26a1,1,0,0,1,.77.29,1.07,1.07,0,0,1,.29.79,1.14,1.14,0,0,1-.31.84,1.06,1.06,0,0,1-.82.31,1.07,1.07,0,0,1-.79-.29,1.34,1.34,0,0,1,0-1.63A1.14,1.14,0,0,1,678.28,206.76Zm8,4.75A6.82,6.82,0,0,1,689,212l-.26,1.56-.29.07a4.2,4.2,0,0,0-2.3-.79,1.89,1.89,0,0,0-1.32.46,1.44,1.44,0,0,0-.5,1.1,1.3,1.3,0,0,0,.5,1.06,10.22,10.22,0,0,0,1.61.89,12,12,0,0,1,1.49.79,3.14,3.14,0,0,1,1,.91,2.39,2.39,0,0,1,.41,1.42,3.19,3.19,0,0,1-.46,1.66,3.39,3.39,0,0,1-1.34,1.25,4.57,4.57,0,0,1-2.11.46,6.78,6.78,0,0,1-3.19-.79l.24-1.63.22-.14a5.24,5.24,0,0,0,1.44.89,4.07,4.07,0,0,0,1.49.31A2.12,2.12,0,0,0,687,221a1.55,1.55,0,0,0,.55-1.18,1.21,1.21,0,0,0-.53-1,8,8,0,0,0-1.58-.91q-.94-.43-1.51-.77a3.3,3.3,0,0,1-1-1,2.59,2.59,0,0,1-.41-1.49,2.9,2.9,0,0,1,1-2.28A4.12,4.12,0,0,1,686.32,211.51Zm-82.56,38.13v1.2l-5.78.84-.19-.19v-1.2l5.81-.82Zm7.17,2.38-.07-6.22,1.85-.17,0,6.22,0,4.82h-1.87Zm.89-11.26a1,1,0,0,1,.77.29,1.07,1.07,0,0,1,.29.79,1.14,1.14,0,0,1-.31.84,1.06,1.06,0,0,1-.82.31,1.07,1.07,0,0,1-.79-.29,1.34,1.34,0,0,1,0-1.63A1.14,1.14,0,0,1,611.82,240.76Zm12,8.45a2.18,2.18,0,0,0-.46-1.54,1.78,1.78,0,0,0-1.42-.55,4.94,4.94,0,0,0-3.26,1.7v3l.1,4.82h-1.9L617,252l-.1-6.22,1.8-.17v1.61h.14a7.24,7.24,0,0,1,3-1.7,4,4,0,0,1,2.74.84,3,3,0,0,1,.94,2.4l0,3.12.1,4.78h-1.92Zm9.14,6a3.83,3.83,0,0,0,1.73-.48l.22.14-.19,1.25a7.27,7.27,0,0,1-2.4.7,3.21,3.21,0,0,1-2-1,3.37,3.37,0,0,1-.6-2.16l.07-1.7,0-5h-1.51l-.1-.14.12-1.13h1.46v-1.78l1.66-.72.19.17,0,2.33h3.26l.1.14-.12,1.13h-3.24l-.12,6.5a1.89,1.89,0,0,0,.34,1.34A1.55,1.55,0,0,0,632.94,255.21Zm5-4.1v0a4.67,4.67,0,0,0,.91,3.1,3.2,3.2,0,0,0,2.59,1.08,5.58,5.58,0,0,0,1.68-.26,5.82,5.82,0,0,0,1.54-.79l.19.14-.29,1.63a7.63,7.63,0,0,1-3.36.82,4.73,4.73,0,0,1-3.7-1.49,6,6,0,0,1-1.34-4.13,6.22,6.22,0,0,1,1.34-4.2,4.54,4.54,0,0,1,3.62-1.56,3.92,3.92,0,0,1,3,1.1,4.14,4.14,0,0,1,1.06,3,7.45,7.45,0,0,1-.1,1.22l-.24.24Zm3.19-4.27a2.78,2.78,0,0,0-2,.79,4,4,0,0,0-1.06,2.18l5.3-.1,0-.34a2.66,2.66,0,0,0-.6-1.87A2.09,2.09,0,0,0,641.11,246.83Zm12.29-1.18a4.43,4.43,0,0,1,.62,0v1.85l-.22.07a3.14,3.14,0,0,0-.89-.12,2.07,2.07,0,0,0-1.46.65,6.84,6.84,0,0,0-1.3,2l0,1.68.12,4.82h-1.9l.12-4.66-.1-6.22,1.8-.17,0,2.26h.14a4.55,4.55,0,0,1,1.49-1.7A3,3,0,0,1,653.4,245.66Zm3.89,1.42,2.38,7.7h.14l2.78-7.61.38-1.49h1.7l-4,11h-2l-3.41-10.94,1.78-.12Zm9.86,4.94-.07-6.22,1.85-.17,0,6.22,0,4.82h-1.87Zm.89-11.26a1,1,0,0,1,.77.29,1.07,1.07,0,0,1,.29.79,1.14,1.14,0,0,1-.31.84,1.06,1.06,0,0,1-.82.31,1.07,1.07,0,0,1-.79-.29,1.34,1.34,0,0,1,0-1.63A1.14,1.14,0,0,1,668,240.76Zm5.91,10.34v0a4.67,4.67,0,0,0,.91,3.1,3.2,3.2,0,0,0,2.59,1.08,5.58,5.58,0,0,0,1.68-.26,5.82,5.82,0,0,0,1.54-.79l.19.14-.29,1.63a7.63,7.63,0,0,1-3.36.82,4.73,4.73,0,0,1-3.7-1.49,6,6,0,0,1-1.34-4.13,6.22,6.22,0,0,1,1.34-4.2,4.54,4.54,0,0,1,3.62-1.56,3.92,3.92,0,0,1,3,1.1,4.14,4.14,0,0,1,1.06,3,7.45,7.45,0,0,1-.1,1.22l-.24.24Zm3.19-4.27a2.78,2.78,0,0,0-2,.79,4,4,0,0,0-1.06,2.18l5.3-.1,0-.34a2.66,2.66,0,0,0-.6-1.87A2.09,2.09,0,0,0,677.14,246.83ZM685,247l2,7.58h.14l2.33-7.49.36-1.44h1.87l.26,1.34,2,7.58h.14l2.33-7.49.36-1.44h1.66l-3.62,11H693l-2.3-8.52h-.17l-2.66,8.52H686l-3.07-10.94,1.75-.12Zm18.84-1.51a6.82,6.82,0,0,1,2.64.53l-.26,1.56-.29.07a4.2,4.2,0,0,0-2.3-.79,1.89,1.89,0,0,0-1.32.46,1.44,1.44,0,0,0-.5,1.1,1.3,1.3,0,0,0,.5,1.06,10.22,10.22,0,0,0,1.61.89,12,12,0,0,1,1.49.79,3.14,3.14,0,0,1,1,.91,2.39,2.39,0,0,1,.41,1.42,3.19,3.19,0,0,1-.46,1.66,3.39,3.39,0,0,1-1.34,1.25,4.57,4.57,0,0,1-2.11.46,6.78,6.78,0,0,1-3.19-.79l.24-1.63.22-.14a5.24,5.24,0,0,0,1.44.89,4.07,4.07,0,0,0,1.49.31,2.12,2.12,0,0,0,1.44-.48,1.55,1.55,0,0,0,.55-1.18,1.21,1.21,0,0,0-.53-1,8,8,0,0,0-1.58-.91q-.94-.43-1.51-.77a3.3,3.3,0,0,1-1-1,2.59,2.59,0,0,1-.41-1.49,2.9,2.9,0,0,1,1-2.28A4.12,4.12,0,0,1,703.8,245.51Z" style="fill:#517f8e"/><path d="M478.71,73.79a1,1,0,0,0,0-1.41L472.34,66a1,1,0,0,0-1.41,1.41l5.66,5.66-5.66,5.66a1,1,0,1,0,1.41,1.41ZM378,74.08H478v-2H378Z" style="fill:#517f8e"/><path d="M922.71,73.66a1,1,0,0,0,0-1.41l-6.36-6.36a1,1,0,1,0-1.41,1.41l5.66,5.66-5.66,5.66A1,1,0,0,0,916.34,80ZM822,73.95H922v-2H822Z" style="fill:#517f8e"/><path d="M1161.79,420.71a1,1,0,0,0,1.42,0l6.36-6.36a1,1,0,1,0-1.41-1.41l-5.66,5.66-5.66-5.66a1,1,0,0,0-1.41,1.41ZM1161.5,320V420h2V320Z" style="fill:#517f8e"/><path d="M955.62,269.18a6.82,6.82,0,0,1,2.64.53l-.26,1.56-.29.07a4.2,4.2,0,0,0-2.3-.79,1.89,1.89,0,0,0-1.32.46,1.44,1.44,0,0,0-.5,1.1,1.3,1.3,0,0,0,.5,1.06,10.22,10.22,0,0,0,1.61.89,12,12,0,0,1,1.49.79,3.14,3.14,0,0,1,1,.91,2.39,2.39,0,0,1,.41,1.42,3.19,3.19,0,0,1-.46,1.66,3.39,3.39,0,0,1-1.34,1.25,4.57,4.57,0,0,1-2.11.46,6.78,6.78,0,0,1-3.19-.79l.24-1.63.22-.14a5.23,5.23,0,0,0,1.44.89,4.07,4.07,0,0,0,1.49.31,2.12,2.12,0,0,0,1.44-.48,1.55,1.55,0,0,0,.55-1.18,1.21,1.21,0,0,0-.53-1,8,8,0,0,0-1.58-.91q-.94-.43-1.51-.77a3.3,3.3,0,0,1-1-1,2.59,2.59,0,0,1-.41-1.49,2.9,2.9,0,0,1,1-2.28A4.12,4.12,0,0,1,955.62,269.18Zm9.58,9.7a3.83,3.83,0,0,0,1.73-.48l.22.14-.19,1.25a7.27,7.27,0,0,1-2.4.7,3.21,3.21,0,0,1-2-1,3.37,3.37,0,0,1-.6-2.16l.07-1.7,0-5h-1.51l-.1-.14.12-1.13H962V267.6l1.66-.72.19.17,0,2.33h3.26l.1.14-.12,1.13h-3.24l-.12,6.5a1.89,1.89,0,0,0,.34,1.34A1.55,1.55,0,0,0,965.2,278.88Zm8.07-9.72a3.62,3.62,0,0,1,2.45.77,2.61,2.61,0,0,1,.91,2.11q0,.41-.14,3t-.14,3a1.24,1.24,0,0,0,.17.74.73.73,0,0,0,.58.19,2.75,2.75,0,0,0,.82-.14l.19.17-.19,1.08a3.43,3.43,0,0,1-1.37.48,1.89,1.89,0,0,1-1.2-.53,1.83,1.83,0,0,1-.46-1.25h-.17a7.33,7.33,0,0,1-2.57,1.8,3.72,3.72,0,0,1-2.52-.79,2.85,2.85,0,0,1-.89-2.21,2.44,2.44,0,0,1,.55-1.68,3.25,3.25,0,0,1,1.68-.89l3.89-.91,0-1.56a2,2,0,0,0-.5-1.44,1.83,1.83,0,0,0-1.39-.5,3.8,3.8,0,0,0-1.63.38,7.8,7.8,0,0,0-1.75,1.2l-.19-.1-.24-1.37A6.79,6.79,0,0,1,973.27,269.15Zm-1.92,6.94a1.39,1.39,0,0,0-.7.41,1.09,1.09,0,0,0-.22.74,1.74,1.74,0,0,0,.43,1.25,1.67,1.67,0,0,0,1.2.43,3.69,3.69,0,0,0,2.69-1.7l.07-2Zm13.08,2.78a3.83,3.83,0,0,0,1.73-.48l.22.14-.19,1.25a7.28,7.28,0,0,1-2.4.7,3.21,3.21,0,0,1-2-1,3.37,3.37,0,0,1-.6-2.16l.07-1.7,0-5h-1.51l-.1-.14.12-1.13h1.46V267.6l1.66-.72.19.17,0,2.33h3.26l.1.14-.12,1.13H983l-.12,6.5a1.89,1.89,0,0,0,.34,1.34A1.55,1.55,0,0,0,984.43,278.88Zm4.57-3.19-.07-6.22,1.85-.17,0,6.22,0,4.82H988.9Zm.89-11.26a1,1,0,0,1,.77.29,1.07,1.07,0,0,1,.29.79,1.14,1.14,0,0,1-.31.84,1.06,1.06,0,0,1-.82.31,1.07,1.07,0,0,1-.79-.29,1.34,1.34,0,0,1,0-1.63A1.14,1.14,0,0,1,989.89,264.43Zm8,4.75a6.82,6.82,0,0,1,2.64.53l-.26,1.56-.29.07a4.2,4.2,0,0,0-2.3-.79,1.89,1.89,0,0,0-1.32.46,1.44,1.44,0,0,0-.5,1.1,1.3,1.3,0,0,0,.5,1.06,10.22,10.22,0,0,0,1.61.89,12,12,0,0,1,1.49.79,3.14,3.14,0,0,1,1,.91,2.39,2.39,0,0,1,.41,1.42,3.19,3.19,0,0,1-.46,1.66,3.39,3.39,0,0,1-1.34,1.25,4.57,4.57,0,0,1-2.11.46,6.78,6.78,0,0,1-3.19-.79l.24-1.63.22-.14a5.23,5.23,0,0,0,1.44.89,4.07,4.07,0,0,0,1.49.31,2.12,2.12,0,0,0,1.44-.48,1.55,1.55,0,0,0,.55-1.18,1.21,1.21,0,0,0-.53-1,8,8,0,0,0-1.58-.91q-.94-.43-1.51-.77a3.3,3.3,0,0,1-1-1,2.59,2.59,0,0,1-.41-1.49,2.9,2.9,0,0,1,1-2.28A4.12,4.12,0,0,1,997.93,269.18Zm9.58,9.7a3.83,3.83,0,0,0,1.73-.48l.22.14-.19,1.25a7.27,7.27,0,0,1-2.4.7,3.21,3.21,0,0,1-2-1,3.37,3.37,0,0,1-.6-2.16l.07-1.7,0-5h-1.51l-.1-.14.12-1.13h1.46V267.6l1.66-.72.19.17,0,2.33h3.26l.1.14-.12,1.13h-3.24l-.12,6.5a1.89,1.89,0,0,0,.34,1.34A1.55,1.55,0,0,0,1007.51,278.88Zm4.57-3.19-.07-6.22,1.85-.17,0,6.22,0,4.82H1012Zm.89-11.26a1,1,0,0,1,.77.29,1.07,1.07,0,0,1,.29.79,1.14,1.14,0,0,1-.31.84,1.06,1.06,0,0,1-.82.31,1.07,1.07,0,0,1-.79-.29,1.34,1.34,0,0,1,0-1.63A1.14,1.14,0,0,1,1013,264.43Zm9,4.73a6.51,6.51,0,0,1,1.54.19,6.13,6.13,0,0,1,1.42.46l-.34,1.66-.22.07a4.5,4.5,0,0,0-2.47-.82,2.58,2.58,0,0,0-2.21,1.08,5,5,0,0,0-.79,3,5.15,5.15,0,0,0,.82,3.07,2.74,2.74,0,0,0,2.3,1.1,4.53,4.53,0,0,0,1.34-.22,5.65,5.65,0,0,0,1.34-.6l.22.12-.22,1.61a7.42,7.42,0,0,1-2.93.62,4.24,4.24,0,0,1-3.43-1.49,7.45,7.45,0,0,1,0-8.33A4.44,4.44,0,0,1,1022,269.15Zm8.9,0a3.62,3.62,0,0,1,2.45.77,2.61,2.61,0,0,1,.91,2.11c0,.27,0,1.26-.14,3s-.14,2.69-.14,3a1.27,1.27,0,0,0,.16.74.76.76,0,0,0,.58.19,2.8,2.8,0,0,0,.82-.14l.19.17-.19,1.08a3.46,3.46,0,0,1-1.37.48,1.88,1.88,0,0,1-1.2-.53,1.84,1.84,0,0,1-.46-1.25h-.17a7.35,7.35,0,0,1-2.56,1.8,3.71,3.71,0,0,1-2.52-.79,2.85,2.85,0,0,1-.89-2.21,2.44,2.44,0,0,1,.55-1.68,3.25,3.25,0,0,1,1.68-.89l3.89-.91,0-1.56a2,2,0,0,0-.5-1.44,1.84,1.84,0,0,0-1.39-.5,3.84,3.84,0,0,0-1.64.38,7.87,7.87,0,0,0-1.75,1.2l-.19-.1-.24-1.37A6.79,6.79,0,0,1,1030.87,269.15Zm-1.92,6.94a1.35,1.35,0,0,0-.69.41,1.06,1.06,0,0,0-.22.74,1.78,1.78,0,0,0,.43,1.25,1.69,1.69,0,0,0,1.2.43,3.69,3.69,0,0,0,2.69-1.7l.07-2Zm11.5-.58.12,4.82h-1.9l.15-4.68-.12-12,1.89-.17Zm-74,22.64a3.62,3.62,0,0,1,2.45.77,2.61,2.61,0,0,1,.91,2.11q0,.41-.14,3t-.14,3a1.24,1.24,0,0,0,.17.74.73.73,0,0,0,.58.19,2.75,2.75,0,0,0,.82-.14l.19.17-.19,1.08a3.43,3.43,0,0,1-1.37.48,1.89,1.89,0,0,1-1.2-.53,1.83,1.83,0,0,1-.46-1.25h-.17a7.33,7.33,0,0,1-2.57,1.8,3.72,3.72,0,0,1-2.52-.79,2.85,2.85,0,0,1-.89-2.21,2.44,2.44,0,0,1,.55-1.68,3.25,3.25,0,0,1,1.68-.89L968,303l0-1.56a2,2,0,0,0-.5-1.44,1.83,1.83,0,0,0-1.39-.5,3.8,3.8,0,0,0-1.63.38,7.8,7.8,0,0,0-1.75,1.2l-.19-.1-.24-1.37A6.79,6.79,0,0,1,966.43,298.15Zm-1.92,6.94a1.39,1.39,0,0,0-.7.41,1.09,1.09,0,0,0-.22.74,1.74,1.74,0,0,0,.43,1.25,1.67,1.67,0,0,0,1.2.43,3.69,3.69,0,0,0,2.69-1.7l.07-2Zm16.32-3.22a2.18,2.18,0,0,0-.46-1.54,1.78,1.78,0,0,0-1.42-.55,4.94,4.94,0,0,0-3.26,1.7v3l.1,4.82h-1.9l.12-4.66-.1-6.22,1.8-.17v1.61h.14a7.24,7.24,0,0,1,3-1.7,4,4,0,0,1,2.74.84,3,3,0,0,1,.94,2.4l0,3.12.1,4.78h-1.92Zm9.3-3.72a3.62,3.62,0,0,1,2.45.77,2.61,2.61,0,0,1,.91,2.11q0,.41-.14,3t-.14,3a1.24,1.24,0,0,0,.17.74.73.73,0,0,0,.58.19,2.75,2.75,0,0,0,.82-.14l.19.17-.19,1.08a3.43,3.43,0,0,1-1.37.48,1.89,1.89,0,0,1-1.2-.53,1.83,1.83,0,0,1-.46-1.25h-.17a7.33,7.33,0,0,1-2.57,1.8,3.72,3.72,0,0,1-2.52-.79,2.85,2.85,0,0,1-.89-2.21,2.44,2.44,0,0,1,.55-1.68,3.25,3.25,0,0,1,1.68-.89l3.89-.91,0-1.56a2,2,0,0,0-.5-1.44,1.83,1.83,0,0,0-1.39-.5,3.8,3.8,0,0,0-1.63.38,7.8,7.8,0,0,0-1.75,1.2l-.19-.1-.24-1.37A6.79,6.79,0,0,1,990.14,298.15Zm-1.92,6.94a1.39,1.39,0,0,0-.7.41,1.09,1.09,0,0,0-.22.74,1.74,1.74,0,0,0,.43,1.25,1.67,1.67,0,0,0,1.2.43,3.69,3.69,0,0,0,2.69-1.7l.07-2Zm11.49-.58.12,4.82h-1.9l.14-4.68-.12-12,1.9-.17Zm4.73-4.82,2.64,7.58h.17l2.74-7.42.36-1.51h1.7L1008.11,309a10.31,10.31,0,0,1-1.3,2.57,4.83,4.83,0,0,1-1.66,1.46,9.8,9.8,0,0,1-2.54.94h-.17a3.9,3.9,0,0,1-.79-1.13l0-.22a7.41,7.41,0,0,0,2.78-1,6,6,0,0,0,1.82-2.21l-4-10.94,1.8-.12Zm13-1.51a6.82,6.82,0,0,1,2.64.53l-.26,1.56-.29.07a4.2,4.2,0,0,0-2.3-.79,1.89,1.89,0,0,0-1.32.46,1.44,1.44,0,0,0-.5,1.1,1.3,1.3,0,0,0,.5,1.06,10.22,10.22,0,0,0,1.61.89,12,12,0,0,1,1.49.79,3.14,3.14,0,0,1,1,.91,2.39,2.39,0,0,1,.41,1.42,3.19,3.19,0,0,1-.46,1.66,3.39,3.39,0,0,1-1.34,1.25,4.57,4.57,0,0,1-2.11.46,6.78,6.78,0,0,1-3.19-.79l.24-1.63.22-.14a5.23,5.23,0,0,0,1.44.89,4.07,4.07,0,0,0,1.49.31,2.12,2.12,0,0,0,1.44-.48,1.55,1.55,0,0,0,.55-1.18,1.21,1.21,0,0,0-.53-1,8,8,0,0,0-1.58-.91q-.94-.43-1.51-.77a3.3,3.3,0,0,1-1-1,2.59,2.59,0,0,1-.41-1.49,2.9,2.9,0,0,1,1-2.28A4.12,4.12,0,0,1,1017.47,298.18Zm6.24,6.5-.07-6.22,1.85-.17,0,6.22,0,4.82h-1.87Zm.89-11.26a1,1,0,0,1,.77.29,1.07,1.07,0,0,1,.29.79,1.14,1.14,0,0,1-.31.84,1.06,1.06,0,0,1-.82.31,1.07,1.07,0,0,1-.79-.29,1.34,1.34,0,0,1,0-1.63A1.14,1.14,0,0,1,1024.6,293.43Zm8,4.75a6.84,6.84,0,0,1,2.64.53l-.26,1.56-.29.07a4.21,4.21,0,0,0-2.3-.79,1.87,1.87,0,0,0-1.32.46,1.43,1.43,0,0,0-.51,1.1,1.29,1.29,0,0,0,.51,1.06,10,10,0,0,0,1.6.89,11.78,11.78,0,0,1,1.49.79,3.18,3.18,0,0,1,1,.91,2.4,2.4,0,0,1,.4,1.42,3.22,3.22,0,0,1-.45,1.66,3.39,3.39,0,0,1-1.35,1.25,4.54,4.54,0,0,1-2.11.46,6.78,6.78,0,0,1-3.19-.79l.24-1.63.22-.14a5,5,0,0,0,1.44.89,4,4,0,0,0,1.48.31,2.09,2.09,0,0,0,1.44-.48,1.55,1.55,0,0,0,.56-1.18,1.22,1.22,0,0,0-.53-1,8.23,8.23,0,0,0-1.59-.91c-.62-.29-1.12-.54-1.51-.77a3.31,3.31,0,0,1-1-1,2.6,2.6,0,0,1-.41-1.49,2.91,2.91,0,0,1,1-2.28A4.11,4.11,0,0,1,1032.64,298.18Z" style="fill:#517f8e"/><path d="M952.84,141.63a.25.25,0,0,0-.35,0l-1.59,1.59a.25.25,0,1,0,.35.35l1.41-1.41,1.42,1.41a.25.25,0,1,0,.35-.35Zm-.18,62.68h-.25v.25h.25Zm90.23.18a.26.26,0,0,0,0-.35l-1.6-1.59a.25.25,0,0,0-.35.35l1.42,1.41-1.42,1.41a.25.25,0,0,0,.35.35Zm-90.48-62.68v62.5h.5v-62.5Zm.25,62.75h90v-.5h-90Z"/><rect x="964.32" y="143.93" width="12.71" height="58.27" style="fill:#fff7ce"/><rect x="987.62" y="166.17" width="12.71" height="36.02" style="fill:#b9d1d9"/><rect x="1013.05" y="153.46" width="12.71" height="48.73" style="fill:#c4c4c4"/><circle cx="993.98" cy="177.83" r="66.24" style="fill:none;stroke:#000"/><circle cx="993.98" cy="177.83" r="70.48" style="fill:none;stroke:#bfbfbf"/><path d="M1120.76,269.23a3.82,3.82,0,0,1,3.16,1.37,6.07,6.07,0,0,1,1.11,3.91,6.58,6.58,0,0,1-1.39,4.46,5,5,0,0,1-4,1.56,10.6,10.6,0,0,1-2.09-.22l.05,4.46h-1.88l.12-9.1-.12-6.22,1.83-.17,0,1.56h.17a9.8,9.8,0,0,1,1.51-1.06A6.86,6.86,0,0,1,1120.76,269.23Zm-.84,9.91a2.91,2.91,0,0,0,2.44-1.1,5,5,0,0,0,.87-3.14,5.49,5.49,0,0,0-.7-3,2.16,2.16,0,0,0-1.94-1.06,3.08,3.08,0,0,0-1.49.41,7,7,0,0,0-1.54,1.27l0,3,0,3A5,5,0,0,0,1119.92,279.14Zm9.16-4.37v0a4.66,4.66,0,0,0,.91,3.1,3.2,3.2,0,0,0,2.59,1.08,5.58,5.58,0,0,0,1.68-.26,5.79,5.79,0,0,0,1.54-.79l.19.14-.29,1.63a7.63,7.63,0,0,1-3.36.82,4.72,4.72,0,0,1-3.69-1.49,6,6,0,0,1-1.35-4.13,6.2,6.2,0,0,1,1.35-4.2,4.52,4.52,0,0,1,3.62-1.56,3.94,3.94,0,0,1,3,1.1,4.16,4.16,0,0,1,1.05,3,7.92,7.92,0,0,1-.09,1.22l-.24.24Zm3.19-4.27a2.76,2.76,0,0,0-2,.79,4,4,0,0,0-1.06,2.18l5.3-.1.05-.34a2.66,2.66,0,0,0-.6-1.87A2.08,2.08,0,0,0,1132.27,270.5Zm12.29-1.18a4.36,4.36,0,0,1,.62,0v1.85l-.21.07a3.19,3.19,0,0,0-.89-.12,2.09,2.09,0,0,0-1.47.65,6.85,6.85,0,0,0-1.29,2l0,1.68.12,4.82h-1.89l.12-4.66-.1-6.22,1.8-.17,0,2.26h.14a4.61,4.61,0,0,1,1.49-1.7A2.94,2.94,0,0,1,1144.56,269.32Zm6-.14a6.84,6.84,0,0,1,2.64.53l-.27,1.56-.29.07a4.18,4.18,0,0,0-2.3-.79,1.91,1.91,0,0,0-1.32.46,1.42,1.42,0,0,0-.5,1.1,1.28,1.28,0,0,0,.5,1.06,10.17,10.17,0,0,0,1.61.89,12.53,12.53,0,0,1,1.49.79,3.15,3.15,0,0,1,1,.91,2.4,2.4,0,0,1,.41,1.42,3.14,3.14,0,0,1-.46,1.66,3.37,3.37,0,0,1-1.34,1.25,4.57,4.57,0,0,1-2.11.46,6.82,6.82,0,0,1-3.2-.79l.24-1.63.22-.14a5.3,5.3,0,0,0,1.44.89,4.06,4.06,0,0,0,1.49.31,2.12,2.12,0,0,0,1.44-.48,1.54,1.54,0,0,0,.55-1.18,1.22,1.22,0,0,0-.53-1,7.79,7.79,0,0,0-1.58-.91,16.8,16.8,0,0,1-1.51-.77,3.23,3.23,0,0,1-1-1,2.6,2.6,0,0,1-.41-1.49,2.91,2.91,0,0,1,1-2.28A4.14,4.14,0,0,1,1150.52,269.18Zm10.22,0a4.27,4.27,0,0,1,3.46,1.46,6.05,6.05,0,0,1,1.25,4.08,6.53,6.53,0,0,1-1.3,4.32,4.6,4.6,0,0,1-3.7,1.51,4.38,4.38,0,0,1-3.5-1.44,6.2,6.2,0,0,1-1.22-4.1,6.43,6.43,0,0,1,1.29-4.3A4.64,4.64,0,0,1,1160.74,269.15Zm-.12,1.34a2.72,2.72,0,0,0-2.3,1,4.89,4.89,0,0,0-.79,3,6.31,6.31,0,0,0,.76,3.46,2.6,2.6,0,0,0,2.28,1.15,2.77,2.77,0,0,0,2.31-1,4.83,4.83,0,0,0,.79-3,6.19,6.19,0,0,0-.79-3.46A2.53,2.53,0,0,0,1160.62,270.5Zm14.75,2.38a2.16,2.16,0,0,0-.46-1.54,1.77,1.77,0,0,0-1.41-.55,5,5,0,0,0-3.27,1.7v3l.1,4.82h-1.9l.12-4.66-.09-6.22,1.8-.17v1.61h.14a7.23,7.23,0,0,1,3-1.7,4,4,0,0,1,2.74.84,2.94,2.94,0,0,1,.93,2.4l-.05,3.12.1,4.78h-1.92Zm9.3-3.72a3.62,3.62,0,0,1,2.45.77A2.61,2.61,0,0,1,1188,272c0,.27-.05,1.26-.14,3s-.15,2.69-.15,3a1.26,1.26,0,0,0,.17.74.74.74,0,0,0,.58.19,2.69,2.69,0,0,0,.81-.14l.2.17-.2,1.08a3.42,3.42,0,0,1-1.36.48,1.88,1.88,0,0,1-1.2-.53,1.84,1.84,0,0,1-.46-1.25h-.17a7.29,7.29,0,0,1-2.57,1.8,3.72,3.72,0,0,1-2.52-.79,2.85,2.85,0,0,1-.88-2.21,2.43,2.43,0,0,1,.55-1.68,3.22,3.22,0,0,1,1.68-.89l3.89-.91,0-1.56a2,2,0,0,0-.5-1.44,1.85,1.85,0,0,0-1.4-.5,3.83,3.83,0,0,0-1.63.38,7.79,7.79,0,0,0-1.75,1.2l-.19-.1-.24-1.37A6.77,6.77,0,0,1,1184.67,269.15Zm-1.92,6.94a1.35,1.35,0,0,0-.69.41,1.06,1.06,0,0,0-.22.74,1.73,1.73,0,0,0,.43,1.25,1.69,1.69,0,0,0,1.2.43,3.69,3.69,0,0,0,2.69-1.7l.07-2Zm12.62-6.91a6.76,6.76,0,0,1,2.64.53l-.26,1.56-.29.07a4.21,4.21,0,0,0-2.3-.79,1.87,1.87,0,0,0-1.32.46,1.43,1.43,0,0,0-.51,1.1,1.29,1.29,0,0,0,.51,1.06,10.17,10.17,0,0,0,1.61.89,11.57,11.57,0,0,1,1.48.79,3.07,3.07,0,0,1,1,.91,2.4,2.4,0,0,1,.41,1.42,3.23,3.23,0,0,1-.46,1.66,3.37,3.37,0,0,1-1.34,1.25,4.62,4.62,0,0,1-2.12.46,6.78,6.78,0,0,1-3.19-.79l.24-1.63.22-.14a5.29,5.29,0,0,0,1.44.89,4.06,4.06,0,0,0,1.49.31,2.12,2.12,0,0,0,1.44-.48,1.57,1.57,0,0,0,.55-1.18,1.22,1.22,0,0,0-.53-1,8.09,8.09,0,0,0-1.58-.91c-.63-.29-1.13-.54-1.52-.77a3.31,3.31,0,0,1-1-1,2.6,2.6,0,0,1-.41-1.49,2.91,2.91,0,0,1,1-2.28A4.13,4.13,0,0,1,1195.37,269.18Z" style="fill:#517f8e"/><path d="M1126.4,216V205.9c0-7.94,5.3-13.24,9-14.3s7.75-1,11.13-2.65c3.17-2.4,3.67-4.34,4.23-7.94" style="fill:none;stroke:#000"/><path d="M1188.9,216V204.84c0-7.42-5.3-12.18-9-13.24s-7.75-1-11.13-2.65c-3.17-2.4-3.67-4.34-4.23-7.94" style="fill:none;stroke:#000"/><path d="M1138.05,150.81V163c0,5.83,3,9.36,5.3,12.18,9,9.53,21.72,8.47,29.66,0,2.21-2.82,4.77-6.36,4.77-12.18V150.81c-6.91-.43-8.71-2.33-8.48-8.47-11.15,6.88-16,8-24.36,9.53" style="fill:none;stroke:#000"/><path d="M1146,189.48l12.18,10.06,12.18-10.06" style="fill:none;stroke:#000"/><path d="M1134.34,192.13c-.42-3.39-.17-26.84,0-41.32,0-14.83,10.9-18.25,21.72-19.6,18.18.12,25.43,9,25.43,19.6v41.32" style="fill:none;stroke:#000"/><circle cx="1158.18" cy="177.83" r="66.24" style="fill:none;stroke:#000"/><circle cx="1158.18" cy="177.83" r="70.48" style="fill:none;stroke:#bfbfbf"/><path d="M1284.63,278.92l-.19,1.08a3.46,3.46,0,0,1-1.37.48,2.07,2.07,0,0,1-1.13-.48,2.43,2.43,0,0,1-.58-1.2h-.14a7,7,0,0,1-3,1.68,3.94,3.94,0,0,1-2.71-.84,3,3,0,0,1-.89-2.4l0-3-.07-4.73,1.92-.17-.15,7.49a2.31,2.31,0,0,0,.46,1.54,1.74,1.74,0,0,0,1.39.55,4.37,4.37,0,0,0,3-1.44v-8l1.82-.17-.12,8.69a1.41,1.41,0,0,0,.14.72.72.72,0,0,0,.56.19,2.87,2.87,0,0,0,.84-.14Zm5.63-9.74a6.84,6.84,0,0,1,2.64.53l-.26,1.56-.29.07a4.21,4.21,0,0,0-2.3-.79,1.87,1.87,0,0,0-1.32.46,1.43,1.43,0,0,0-.51,1.1,1.29,1.29,0,0,0,.51,1.06,10,10,0,0,0,1.6.89,11.78,11.78,0,0,1,1.49.79,3.18,3.18,0,0,1,1,.91,2.4,2.4,0,0,1,.4,1.42,3.22,3.22,0,0,1-.45,1.66,3.39,3.39,0,0,1-1.35,1.25,4.54,4.54,0,0,1-2.11.46,6.78,6.78,0,0,1-3.19-.79l.24-1.63.22-.14a5,5,0,0,0,1.44.89,4,4,0,0,0,1.48.31,2.09,2.09,0,0,0,1.44-.48,1.55,1.55,0,0,0,.56-1.18,1.22,1.22,0,0,0-.53-1,8.23,8.23,0,0,0-1.59-.91c-.62-.29-1.12-.54-1.51-.77a3.31,3.31,0,0,1-1-1,2.6,2.6,0,0,1-.41-1.49,2.91,2.91,0,0,1,1-2.28A4.11,4.11,0,0,1,1290.26,269.18Zm7,5.59v0a4.66,4.66,0,0,0,.91,3.1,3.2,3.2,0,0,0,2.59,1.08,5.58,5.58,0,0,0,1.68-.26,5.78,5.78,0,0,0,1.54-.79l.19.14-.29,1.63a7.63,7.63,0,0,1-3.36.82,4.72,4.72,0,0,1-3.69-1.49,6,6,0,0,1-1.35-4.13,6.2,6.2,0,0,1,1.35-4.2,4.52,4.52,0,0,1,3.62-1.56,3.94,3.94,0,0,1,3,1.1,4.16,4.16,0,0,1,1,3,7.94,7.94,0,0,1-.09,1.22l-.24.24Zm3.19-4.27a2.76,2.76,0,0,0-2,.79,4,4,0,0,0-1.06,2.18l5.3-.1,0-.34a2.66,2.66,0,0,0-.6-1.87A2.08,2.08,0,0,0,1300.44,270.5Zm12.29-1.18a4.35,4.35,0,0,1,.62,0v1.85l-.21.07a3.19,3.19,0,0,0-.89-.12,2.09,2.09,0,0,0-1.47.65,6.85,6.85,0,0,0-1.29,2l0,1.68.12,4.82h-1.89l.12-4.66-.1-6.22,1.8-.17,0,2.26h.14a4.6,4.6,0,0,1,1.49-1.7A2.94,2.94,0,0,1,1312.73,269.32Zm20.91,3.55a2.21,2.21,0,0,0-.46-1.54,1.77,1.77,0,0,0-1.41-.55,4.7,4.7,0,0,0-3.2,1.66l0,3.12.09,4.78h-1.94l.14-7.46a2.16,2.16,0,0,0-.45-1.54,1.79,1.79,0,0,0-1.42-.55,4.91,4.91,0,0,0-3.26,1.7v3l.09,4.82h-1.89l.12-4.66-.1-6.22,1.8-.17v1.61h.14a7.29,7.29,0,0,1,3.05-1.7,4.52,4.52,0,0,1,2.21.48,2.55,2.55,0,0,1,1.22,1.34h.15a7.8,7.8,0,0,1,3.24-1.82,4,4,0,0,1,2.76.84,3,3,0,0,1,.91,2.4l-.05,3.12.1,4.78h-1.92Zm9.31-3.72a3.59,3.59,0,0,1,2.44.77,2.61,2.61,0,0,1,.92,2.11q0,.41-.15,3c-.09,1.7-.14,2.69-.14,3a1.19,1.19,0,0,0,.17.74.72.72,0,0,0,.57.19,2.8,2.8,0,0,0,.82-.14l.19.17-.19,1.08a3.46,3.46,0,0,1-1.37.48,1.88,1.88,0,0,1-1.2-.53,1.84,1.84,0,0,1-.46-1.25h-.16a7.37,7.37,0,0,1-2.57,1.8,3.72,3.72,0,0,1-2.52-.79,2.86,2.86,0,0,1-.89-2.21,2.43,2.43,0,0,1,.55-1.68,3.3,3.3,0,0,1,1.68-.89l3.89-.91,0-1.56a1.93,1.93,0,0,0-.5-1.44,1.82,1.82,0,0,0-1.39-.5,3.76,3.76,0,0,0-1.63.38,7.83,7.83,0,0,0-1.76,1.2l-.19-.1-.24-1.37A6.8,6.8,0,0,1,1342.95,269.15Zm-1.92,6.94a1.38,1.38,0,0,0-.7.41,1.11,1.11,0,0,0-.22.74,1.74,1.74,0,0,0,.44,1.25,1.66,1.66,0,0,0,1.2.43,3.67,3.67,0,0,0,2.68-1.7l.08-2Zm14.61-6.86a3.84,3.84,0,0,1,3.17,1.37,6.13,6.13,0,0,1,1.1,3.91,6.53,6.53,0,0,1-1.39,4.46,5,5,0,0,1-4,1.56,10.68,10.68,0,0,1-2.09-.22l.05,4.46h-1.87l.12-9.1-.12-6.22,1.82-.17,0,1.56h.17a9.34,9.34,0,0,1,1.51-1.06A6.77,6.77,0,0,1,1355.64,269.23Zm-.84,9.91a2.93,2.93,0,0,0,2.45-1.1,5,5,0,0,0,.86-3.14,5.58,5.58,0,0,0-.69-3,2.18,2.18,0,0,0-2-1.06,3.11,3.11,0,0,0-1.49.41,6.74,6.74,0,0,0-1.53,1.27l0,3,0,3A5,5,0,0,0,1354.8,279.14Zm11.3-10a6.84,6.84,0,0,1,2.64.53l-.27,1.56-.28.07a4.21,4.21,0,0,0-2.31-.79,1.91,1.91,0,0,0-1.32.46,1.45,1.45,0,0,0-.5,1.1,1.31,1.31,0,0,0,.5,1.06,10.16,10.16,0,0,0,1.61.89,12.53,12.53,0,0,1,1.49.79,3.15,3.15,0,0,1,1,.91,2.4,2.4,0,0,1,.41,1.42,3.14,3.14,0,0,1-.46,1.66,3.36,3.36,0,0,1-1.34,1.25,4.57,4.57,0,0,1-2.11.46,6.75,6.75,0,0,1-3.19-.79l.24-1.63.21-.14a5.29,5.29,0,0,0,1.44.89,4.11,4.11,0,0,0,1.49.31,2.12,2.12,0,0,0,1.44-.48,1.54,1.54,0,0,0,.55-1.18,1.19,1.19,0,0,0-.53-1,7.79,7.79,0,0,0-1.58-.91c-.62-.29-1.13-.54-1.51-.77a3.35,3.35,0,0,1-1-1,2.6,2.6,0,0,1-.4-1.49,2.9,2.9,0,0,1,1-2.28A4.14,4.14,0,0,1,1366.1,269.18Zm11.11-4.9-4.92,18.77H1371l-.14-.19,4.92-18.79h1.32Zm-70.6,28a14.28,14.28,0,0,1,3.48.46l-.36,1.49-.14.12a8.25,8.25,0,0,0-3.07-.67,2.37,2.37,0,0,0-2.67,2.69l0,2h2.88l.07.14-.12,1.13h-2.86l0,4.94.12,4.75H1302l.14-4.66-.07-5h-1.63l-.1-.14.12-1.13h1.61l0-1.73a4.1,4.1,0,0,1,1.17-3.24A4.8,4.8,0,0,1,1306.61,292.27Zm4.62,12.24.12,4.82h-1.9l.14-4.68-.12-12,1.9-.17Zm8.4-6.36a4.23,4.23,0,0,1,3.45,1.46,6,6,0,0,1,1.25,4.08A6.53,6.53,0,0,1,1323,308a4.62,4.62,0,0,1-3.7,1.51,4.38,4.38,0,0,1-3.5-1.44,6.2,6.2,0,0,1-1.23-4.1,6.38,6.38,0,0,1,1.3-4.3A4.64,4.64,0,0,1,1319.63,298.15Zm-.12,1.34a2.74,2.74,0,0,0-2.31,1,5,5,0,0,0-.79,3,6.3,6.3,0,0,0,.77,3.46,2.6,2.6,0,0,0,2.28,1.15,2.73,2.73,0,0,0,2.3-1,4.83,4.83,0,0,0,.8-3,6.18,6.18,0,0,0-.8-3.46A2.51,2.51,0,0,0,1319.51,299.5Zm8.29.19,2,7.58h.14l2.33-7.49.36-1.44h1.87l.27,1.34,2,7.58h.15l2.32-7.49.36-1.44h1.66l-3.62,11h-1.8l-2.31-8.52h-.17l-2.66,8.52h-1.87l-3.07-10.94,1.75-.12Zm18.84-1.51a6.84,6.84,0,0,1,2.64.53l-.27,1.56-.28.07a4.21,4.21,0,0,0-2.31-.79,1.91,1.91,0,0,0-1.32.46,1.45,1.45,0,0,0-.5,1.1,1.31,1.31,0,0,0,.5,1.06,10.17,10.17,0,0,0,1.61.89,12.53,12.53,0,0,1,1.49.79,3.15,3.15,0,0,1,1,.91,2.4,2.4,0,0,1,.41,1.42,3.14,3.14,0,0,1-.46,1.66,3.37,3.37,0,0,1-1.34,1.25,4.57,4.57,0,0,1-2.11.46,6.75,6.75,0,0,1-3.19-.79l.24-1.63.21-.14a5.3,5.3,0,0,0,1.44.89,4.11,4.11,0,0,0,1.49.31,2.12,2.12,0,0,0,1.44-.48,1.54,1.54,0,0,0,.55-1.18,1.19,1.19,0,0,0-.53-1,7.79,7.79,0,0,0-1.58-.91c-.62-.29-1.13-.54-1.51-.77a3.35,3.35,0,0,1-1-1,2.6,2.6,0,0,1-.4-1.49,2.9,2.9,0,0,1,1-2.28A4.14,4.14,0,0,1,1346.64,298.18Z" style="fill:#517f8e"/><rect x="1319.2" y="129.1" width="26.48" height="16.95" style="fill:#e9e9e9"/><rect x="1278.95" y="165.11" width="26.48" height="16.95" style="fill:#e9e9e9"/><rect x="1321.32" y="165.11" width="26.48" height="16.95" style="fill:#e9e9e9"/><rect x="1321.32" y="201.13" width="26.48" height="16.95" style="fill:#e9e9e9"/><path d="M1332.8,162.11a.25.25,0,0,0,.35,0l1.59-1.59a.25.25,0,1,0-.35-.35l-1.41,1.41-1.42-1.41a.25.25,0,1,0-.35.35Zm-.07-12.89v12.71h.5V149.22Z"/><path d="M1332.8,198.13a.25.25,0,0,0,.35,0l1.59-1.59a.25.25,0,0,0-.35-.35L1333,197.6l-1.42-1.42a.25.25,0,1,0-.35.35Zm-.07-12.89V198h.5V185.24Z"/><path d="M1307.37,173.41a.27.27,0,0,0,0,.35l1.59,1.59a.26.26,0,0,0,.36,0,.25.25,0,0,0,0-.35l-1.42-1.41,1.42-1.41a.25.25,0,0,0,0-.35.26.26,0,0,0-.36,0Zm12.89-.07h-12.71v.5h12.71Z"/><circle cx="1325.56" cy="177.83" r="66.24" style="fill:none;stroke:#000"/><circle cx="1325.56" cy="177.83" r="70.48" style="fill:none;stroke:#bfbfbf"/></svg>