<svg id="Livello_1" data-name="Livello 1" xmlns="http://www.w3.org/2000/svg" viewBox="0 0 511.56 119.58"><title>logo1</title><path d="M3.64,103.87H25.22V18.18h-18a3.56,3.56,0,0,0-3.57,3.55Z" transform="translate(-1.73 -0.88)" style="fill:#e9e9e9"/><path d="M17.16,37.43H12a.7.7,0,0,1-.7-.7V26.82a.7.7,0,0,1,.7-.7h5.2a.7.7,0,0,1,.7.7v9.91A.7.7,0,0,1,17.16,37.43Z" transform="translate(-1.73 -0.88)" style="fill:#517f8e"/><path d="M17.16,56.94H12a.7.7,0,0,1-.7-.7V46.32a.7.7,0,0,1,.7-.7h5.2a.7.7,0,0,1,.7.7v9.91A.7.7,0,0,1,17.16,56.94Z" transform="translate(-1.73 -0.88)" style="fill:#517f8e"/><path d="M17.16,76.45H12a.7.7,0,0,1-.7-.7V65.83a.7.7,0,0,1,.7-.7h5.2a.7.7,0,0,1,.7.7v9.91A.7.7,0,0,1,17.16,76.45Z" transform="translate(-1.73 -0.88)" style="fill:#517f8e"/><path d="M80.13,120.46H69.64a.48.48,0,0,1-.48-.48V91.55H80.61V120A.48.48,0,0,1,80.13,120.46Z" transform="translate(-1.73 -0.88)" style="fill:#b9d1d9"/><path d="M69.16,92.07H80.61v10.35H69.16Z" transform="translate(-1.73 -0.88)" style="fill:#7fa4b0"/><path d="M103.68,12.3,88.28,91.65a7,7,0,0,1-6.91,5.67H46.71V6.42H98.8A5,5,0,0,1,103.68,12.3Z" transform="translate(-1.73 -0.88)" style="fill:#e9e9e9"/><path d="M46.71,97.32h21.9c-.35-20.44-8.53-32.73-10.66-45.91-2.22-13.74,2.6-25.77-1.33-45H46.71Z" transform="translate(-1.73 -0.88)" style="fill:#828282;opacity:0.5;isolation:isolate"/><path d="M98.8,6.42H92.47a5,5,0,0,1,4.88,5.88L82,91.65A7,7,0,0,1,75,97.32h6.32a7,7,0,0,0,6.92-5.67l15.4-79.35A5,5,0,0,0,98.8,6.42Z" transform="translate(-1.73 -0.88)" style="fill:#828282;opacity:0.5;isolation:isolate"/><path d="M65.79,85.09h-5.2a.7.7,0,0,1-.7-.7V74.47a.7.7,0,0,1,.7-.7h5.2a.7.7,0,0,1,.7.7v9.91A.7.7,0,0,1,65.79,85.09Z" transform="translate(-1.73 -0.88)" style="fill:#517f8e"/><path d="M18.17,97.2l-7.8,22.93a.49.49,0,0,1-.46.33H2.24a.48.48,0,0,1-.46-.64L9.48,97.2Zm13.28,0-7.7,22.62a.48.48,0,0,0,.46.64h7.67a.48.48,0,0,0,.46-.33l7.8-22.93ZM51,97.43l-5.32,22.44a.48.48,0,0,0,.47.59H53.8a.48.48,0,0,0,.47-.37l5.37-22.66Z" transform="translate(-1.73 -0.88)" style="fill:#b9d1d9"/><path d="M4.47,111.91h8.69l3.23-9.49H7.7Z" transform="translate(-1.73 -0.88)" style="fill:#7fa4b0"/><path d="M38.36,102.42H29.67l-3.23,9.49h8.69Z" transform="translate(-1.73 -0.88)" style="fill:#7fa4b0"/><path d="M58.46,102.42H49.77l-2.25,9.49h8.69Z" transform="translate(-1.73 -0.88)" style="fill:#7fa4b0"/><path d="M53.35,51.41C51,36.63,56.72,23.83,51,1.94A1.41,1.41,0,0,0,49.61.88H15.3a1.41,1.41,0,0,0-1.41,1.45c.91,26.73,9.74,34.22,9.74,52.12,0,17.09-18.89,27.73-21.89,50.45a1.41,1.41,0,0,0,1.4,1.59H62.36a1.41,1.41,0,0,0,1.41-1.3C65.75,79.88,55.74,66.2,53.35,51.41Z" transform="translate(-1.73 -0.88)" style="fill:#ffd600"/><path d="M53.35,51.41C51,36.63,56.72,23.83,51,1.94A1.41,1.41,0,0,0,49.61.88H44.38C50.6,23.42,44.61,36.4,47,51.41S59.78,80.34,57.34,106.5h5a1.41,1.41,0,0,0,1.41-1.3C65.75,79.88,55.74,66.2,53.35,51.41Z" transform="translate(-1.73 -0.88)" style="fill:#517f8e"/><path d="M62.17,81.85q-.4-1.79-.85-3.5H61l.17-.48c-.53-2-1.1-3.87-1.68-5.7-.66,1.78-1.42,3.87-2.21,6.18H50l.66-1.75c2.06-5.48,4-10.72,4.84-16.6-.5-1.61-1-3.2-1.34-4.79l-.1-.42-.1-.44-.09-.42-.09-.43q-.16-.77-.3-1.54H46.12c-.38-7.27-2.37-13.1-4.46-19.23-.41-1.2-.82-2.41-1.24-3.67H48.1c.55,2,1.1,3.9,1.62,5.73,1.28,4.49,2.39,8.41,3.11,11.75a102.74,102.74,0,0,1,.31-12.59l0-.11c-.44-1.53-.89-3.13-1.35-4.78h1.68c.06-1.15.11-2.31.14-3.5H50.8A184.92,184.92,0,0,1,45.71.88H42.16a184.22,184.22,0,0,0,5,24.65H39.31A89.71,89.71,0,0,1,35.46.88H31.93a92.71,92.71,0,0,0,3.71,24.65H29.36A107.08,107.08,0,0,1,26,.88H22.5a110.12,110.12,0,0,0,3.23,24.65H17.29c.33,1.21.66,2.37,1,3.5h8.35c.52,1.9,1,3.69,1.54,5.39l.53,1.81,1.84,7.11a52.8,52.8,0,0,1,1.12,8.59H23.57c0,.82.06,1.65.06,2.51,0,.33,0,.66,0,1h8.1C31.42,62.8,28,69.05,24,76.24l-1.16,2.1H13.3c-.76,1.15-1.53,2.31-2.29,3.5h9.92c-3.58,6.87-6.87,14.71-7.61,24.65h3.53c.79-10,4.26-17.58,8.06-24.65H33.6a71.76,71.76,0,0,0-6.44,24.65h3.53c.74-10,3.69-17.82,6.76-24.65H45c-.52,1.52-1,3.09-1.49,4.72-.54,1.9-1.51,5.57-1.94,7.44A82.22,82.22,0,0,0,40,106.5h3.53A74.85,74.85,0,0,1,45,94.8c.42-1.8,1.38-5.45,1.9-7.27s1.18-3.85,1.82-5.68h7.47C53.83,89.15,51.54,98,51,106.5h3.53c.56-8.46,3-17.41,5.31-24.65ZM34,42.59l0-.07-1.85-7.17v-.05l-.54-1.84c-.41-1.4-.84-2.87-1.27-4.41h6.42c.53,1.66,1.08,3.25,1.61,4.8,2.08,6.08,3.9,11.43,4.27,18.11h-7.4A56.2,56.2,0,0,0,34,42.59ZM26.83,78.34l.23-.41c4.05-7.31,7.89-14.23,8.18-22.49h7.41c-.24,7.41-3.14,13.62-6.47,20.76l-1,2.14Zm12.23,0,.31-.67c3.37-7.22,6.56-14,6.8-22.23H52.3c-.19,7.21-2.52,13.39-5,19.92q-.56,1.47-1.12,3Z" transform="translate(-1.73 -0.88)" style="fill:#7fa4b0"/><path d="M61.2,77.87q-.2-.73-.4-1.46v0c-.41-1.45-.84-2.85-1.28-4.23-.66,1.78-1.42,3.87-2.21,6.18H55q.45,1.71.85,3.5h.29L56,82.4a78.82,78.82,0,0,1,1.31,8.19c.79-3.08,1.68-6,2.57-8.75h2.32q-.4-1.79-.85-3.5H61l.17-.48Z" transform="translate(-1.73 -0.88)" style="fill:#7fa4b0"/><path d="M52.75,70.77A56.26,56.26,0,0,0,55.46,60a64.43,64.43,0,0,1-2-8H47.13c.2,1.17.45,2.34.74,3.5H52.3a41,41,0,0,1-1.48,9.62C51.45,66.92,52.1,68.81,52.75,70.77Z" transform="translate(-1.73 -0.88)" style="fill:#7fa4b0"/><path d="M47.12,29h1c.55,2,1.1,3.91,1.62,5.73,1.28,4.49,2.39,8.41,3.11,11.75q0-.77-.06-1.53s0,0,0-.06q0-.75,0-1.51v0c0-1,0-2.06,0-3.09v-.06q0-.75.06-1.5v-.07c0-1,.11-2.07.18-3.11v-.1c0-.51.07-1,.1-1.53h0l0-.11c-.44-1.53-.89-3.13-1.35-4.78h1.68v0c.06-1.13.11-2.28.14-3.45H50.8A185,185,0,0,1,45.71.88H44.38A83.26,83.26,0,0,1,47.12,29Z" transform="translate(-1.73 -0.88)" style="fill:#7fa4b0"/><path d="M91.35,28.77h-5.2a.7.7,0,0,1-.7-.7V18.15a.7.7,0,0,1,.7-.7h5.2a.7.7,0,0,1,.7.7v9.91A.7.7,0,0,1,91.35,28.77Z" transform="translate(-1.73 -0.88)" style="fill:#517f8e"/><path d="M89.26,56.94h-5.2a.7.7,0,0,1-.7-.7V46.33a.7.7,0,0,1,.7-.7h5.2a.7.7,0,0,1,.7.7v9.91A.7.7,0,0,1,89.26,56.94Z" transform="translate(-1.73 -0.88)" style="fill:#517f8e"/><path d="M69.92,58.36h-5.2a.7.7,0,0,1-.7-.7V47.75a.7.7,0,0,1,.7-.7h5.2a.7.7,0,0,1,.7.7v9.91A.7.7,0,0,1,69.92,58.36Z" transform="translate(-1.73 -0.88)" style="fill:#517f8e"/><path d="M84.27,82.82h-5.2a.7.7,0,0,1-.7-.7V72.21a.7.7,0,0,1,.7-.7h5.2a.7.7,0,0,1,.7.7v9.91A.7.7,0,0,1,84.27,82.82Z" transform="translate(-1.73 -0.88)" style="fill:#517f8e"/><path d="M66.62,30.09h-5.2a.7.7,0,0,1-.7-.7V19.47a.7.7,0,0,1,.7-.7h5.2a.7.7,0,0,1,.7.7v9.91A.7.7,0,0,1,66.62,30.09Z" transform="translate(-1.73 -0.88)" style="fill:#517f8e"/><path d="M165.75,96.22H155.68l-15.52-44.8-15.68,44.8H114.32l21-59.73h9.67Zm-20.23-19,2.36,6.57H132.36l2.27-6.57Z" transform="translate(-1.73 -0.88)"/><path d="M192.45,50.45l1.06,4.71V96.22h-9.83V50.45Zm4.39,2a16.62,16.62,0,0,1,4.88-1.7,36.23,36.23,0,0,1,7.72-.65V60.35a22.43,22.43,0,0,0-5.53-.73,21.35,21.35,0,0,0-3.66.32,17.45,17.45,0,0,0-3.41.81Z" transform="translate(-1.73 -0.88)"/><path d="M255.79,62.3a11.9,11.9,0,0,0-3.41-2.68,12.45,12.45,0,0,0-5.69-1.54V50.29A17.84,17.84,0,0,1,260.17,57Zm-9.1,26.21a14.09,14.09,0,0,0,5-1.38,28,28,0,0,0,4-2.6l3.66,5.28a19.74,19.74,0,0,1-5.44,4.87,16.56,16.56,0,0,1-7.15,1.87ZM224,73.34a28.29,28.29,0,0,1,1.3-8.68,21.92,21.92,0,0,1,4-7.14,20.63,20.63,0,0,1,6.09-5,19.43,19.43,0,0,1,8-2.27v7.87a9.92,9.92,0,0,0-6.5,5,18.9,18.9,0,0,0-2.44,9.9,27.31,27.31,0,0,0,.57,5.68,18.71,18.71,0,0,0,1.79,4.63,12.32,12.32,0,0,0,2.76,3.41,7.88,7.88,0,0,0,3.82,1.7v8a19.45,19.45,0,0,1-8-2.11,20.35,20.35,0,0,1-6.09-5,23.63,23.63,0,0,1-3.9-7.3A29.07,29.07,0,0,1,224,73.34Z" transform="translate(-1.73 -0.88)"/><path d="M278.26,33.17h9.83V96.22h-9.83Zm34.13,22.32a9.36,9.36,0,0,1,2.11,3.25,14.82,14.82,0,0,1,1.14,3.81,24.15,24.15,0,0,1,.49,4q.08,2,.08,4V96.22h-9.91V71.31q0-2.76-.24-5.28a13.85,13.85,0,0,0-1.14-4.46,6.71,6.71,0,0,0-6.74-4.14,16.08,16.08,0,0,0-3.09.41A15,15,0,0,0,291.42,59V52.72a30.68,30.68,0,0,1,4.71-1.95,16.88,16.88,0,0,1,5-.81,11.62,11.62,0,0,1,6.17,1.54A24.91,24.91,0,0,1,312.38,55.48Z" transform="translate(-1.73 -0.88)"/><path d="M343,96.22h-9.91V50.45H343Zm.89-60.38A5.63,5.63,0,0,1,342.16,40,5.79,5.79,0,0,1,338,41.61,5.79,5.79,0,0,1,334,31.7,5.55,5.55,0,0,1,338,30a5.82,5.82,0,0,1,5.85,5.84Z" transform="translate(-1.73 -0.88)"/><path d="M375.28,82.35a10.24,10.24,0,0,0,.73,4.3A5.43,5.43,0,0,0,378,89a8.31,8.31,0,0,0,3,1.06q1.71.16,3.58.16v6q-1.06.16-2.11.24-.89.08-2.19.08t-2.44.08q-1.22,0-2.52-.08a19.1,19.1,0,0,1-2.11-.24A6.92,6.92,0,0,1,368.94,94a14.75,14.75,0,0,1-2.36-4.22,24.36,24.36,0,0,1-1-4.54q-.16-2.19-.16-3.41V57.11h-6V50.45h6v-13h9.83v13h7.31v6.65h-7.31Z" transform="translate(-1.73 -0.88)"/><path d="M410.34,50.45l1.06,4.71V96.22h-9.83V50.45Zm4.39,2a16.62,16.62,0,0,1,4.88-1.7,36.23,36.23,0,0,1,7.72-.65V60.35a22.42,22.42,0,0,0-5.52-.73,21.34,21.34,0,0,0-3.66.32,17.44,17.44,0,0,0-3.41.81Z" transform="translate(-1.73 -0.88)"/><path d="M453,96.22h-9.91V50.45H453Zm.89-60.38A5.63,5.63,0,0,1,452.23,40a5.79,5.79,0,0,1-4.14,1.62A5.79,5.79,0,0,1,444,31.7a5.55,5.55,0,0,1,4.06-1.7,5.82,5.82,0,0,1,5.85,5.84Z" transform="translate(-1.73 -0.88)"/><path d="M481.12,50.45l1.06,4.63v59.16h-9.91V50.45Zm31.2,13.88a33.11,33.11,0,0,1,1,8.36,35.72,35.72,0,0,1-1.14,9,23.18,23.18,0,0,1-3.33,7.63,17.1,17.1,0,0,1-5.61,5.36,15.34,15.34,0,0,1-7.88,1.95,22.39,22.39,0,0,1-5.44-.65,18.07,18.07,0,0,1-4.39-1.7V85.84A8.31,8.31,0,0,0,492.09,89a8.11,8.11,0,0,0,4.39-1.22,10.83,10.83,0,0,0,3.41-3.25,16.67,16.67,0,0,0,2.27-5,22.91,22.91,0,0,0,.81-6.17,24,24,0,0,0-.73-6,17.6,17.6,0,0,0-2.11-5,10.62,10.62,0,0,0-3.25-3.49,7.5,7.5,0,0,0-4.39-1.3,8.61,8.61,0,0,0-3.9.89,9.77,9.77,0,0,0-3.09,2.35v-8.6a16.52,16.52,0,0,1,4.14-1.62,19.39,19.39,0,0,1,4.71-.57,21.24,21.24,0,0,1,5.44.73,15.37,15.37,0,0,1,5.12,2.43,18.13,18.13,0,0,1,4.39,4.46A20.91,20.91,0,0,1,512.32,64.33Z" transform="translate(-1.73 -0.88)"/></svg>