<svg width="341" height="349" viewBox="0 0 341 349" fill="none" xmlns="http://www.w3.org/2000/svg">
<path d="M332.957 70.5699C217.26 45.4582 224.749 46.7696 222.129 47.251C221.291 47.4038 211.022 49.6577 187.088 54.8848C177.054 23.2878 149.525 0.539856 117.219 0.539856C84.8824 0.539856 57.332 23.3307 47.3211 54.9743L11.9377 47.2961C5.77036 45.9608 0 51.1094 0 57.997V314.008C0 319.214 3.36804 323.694 8.0428 324.709C122.763 349.609 115.252 348.001 116.013 348.102C118.425 348.426 110.97 349.773 223.787 325.133L329.062 347.982C335.233 349.32 341 344.163 341 337.282V81.2707C341 76.0654 337.632 71.5852 332.957 70.5699ZM117.219 22.359C146.965 22.359 171.166 48.7864 171.166 81.2707C171.166 108.678 131.007 178.248 117.219 201.268C103.446 178.274 63.2715 108.684 63.2715 81.2707C63.2715 48.7864 87.4725 22.359 117.219 22.359ZM19.9805 71.287L43.4309 76.376C43.3416 77.9957 43.291 79.6263 43.291 81.27C43.291 99.4628 54.189 128.822 76.6085 171.026C89.6997 195.669 102.605 216.827 107.229 224.28V323.99L19.9805 305.053V71.287ZM127.209 224.28C131.832 216.827 144.738 195.67 157.829 171.026C180.248 128.822 191.146 99.4628 191.146 81.2707C191.146 79.595 191.094 77.9324 191.001 76.2822L213.791 71.3038V305.065L127.209 323.975V224.28ZM321.02 323.991L233.771 305.054V71.2878L321.02 90.2246V323.991Z" fill="white" fill-opacity="0.8"/>
<path d="M117.219 115.454C134.479 115.454 148.521 100.12 148.521 81.2708C148.521 62.422 134.479 47.0875 117.219 47.0875C99.9583 47.0875 85.916 62.422 85.916 81.2708C85.916 100.12 99.9583 115.454 117.219 115.454ZM117.219 68.9066C123.462 68.9066 128.541 74.4531 128.541 81.2708C128.541 88.0886 123.462 93.635 117.219 93.635C110.976 93.635 105.896 88.0886 105.896 81.2708C105.896 74.4531 110.976 68.9066 117.219 68.9066Z" fill="white" fill-opacity="0.8"/>
</svg>
