<svg width="651" height="661" viewBox="0 0 651 661" fill="none" xmlns="http://www.w3.org/2000/svg">
<path d="M535.01 422.112C537.704 416.983 539.308 411.25 539.72 405.277C540.132 399.304 539.343 393.222 537.403 387.416C535.462 381.609 532.413 376.206 528.449 371.547C524.484 366.888 519.691 363.076 514.372 360.352L534.505 351.868C544.994 347.448 554.361 340.772 562.034 332.249C569.706 323.725 575.522 313.534 579.126 302.298C582.73 291.061 584.046 279.016 582.994 266.899C581.942 254.781 578.544 242.846 573.008 231.823C564.519 215.04 551.834 200.772 536.403 190.65C520.971 180.528 503.416 174.961 485.744 174.584C463.089 174.196 441.067 179.605 421.594 190.339L342.028 234.303L349.866 248.503L429.432 204.54C446.763 194.986 466.363 190.172 486.526 190.517C501.325 190.834 516.025 195.496 528.946 203.972C541.868 212.448 552.491 224.395 559.6 238.449C564.146 247.501 566.937 257.302 567.8 267.253C568.664 277.204 567.583 287.095 564.624 296.322C561.664 305.55 556.888 313.919 550.588 320.918C544.288 327.917 536.595 333.4 527.981 337.03L491.039 352.599C489.668 353.177 488.522 354.181 487.746 355.483C486.97 356.786 486.601 358.327 486.684 359.911C486.768 361.495 487.301 363.05 488.216 364.376C489.13 365.702 490.384 366.74 491.818 367.356L506.741 373.776C512.765 376.368 517.837 381.085 521.024 387.061C524.211 393.037 525.299 399.869 524.088 406.299C522.876 412.73 519.446 418.327 514.43 422.06C509.413 425.792 503.148 427.41 496.786 426.616L378.949 411.895L377.256 408.656L370.678 412.066L332.044 431.159L304.407 383.496L291.501 391.051L322.949 445.286C323.981 447.069 325.599 448.42 327.474 449.064C329.348 449.709 331.339 449.598 333.041 448.755L376.128 427.462L496.005 442.438C503.942 443.412 511.826 442.018 518.734 438.418C525.641 434.818 531.287 429.162 535.01 422.112Z" fill="#DADADA" fill-opacity="0.53"/>
<path d="M499.279 399.352L384.516 385.104L383.745 400.76L498.514 415.009C503.02 415.584 507.463 414.453 511.021 411.825C514.578 409.198 517.01 405.251 517.866 400.715C518.723 396.179 517.946 391.36 515.679 387.149C513.413 382.939 509.81 379.621 505.537 377.809L455.485 356.386L525.86 326.839C533.488 323.634 540.298 318.797 545.875 312.622C551.453 306.448 555.679 299.066 558.297 290.928C560.914 282.79 561.868 274.067 561.099 265.293C560.331 256.518 557.856 247.876 553.827 239.894C547.474 227.313 537.944 216.618 526.337 209.044C514.73 201.47 501.519 197.326 488.233 197.091C469.434 196.78 451.161 201.252 435.003 210.121L357.553 252.753L365.349 266.803L442.796 224.172C456.826 216.471 472.691 212.587 489.014 212.858C499.444 213.041 509.813 216.293 518.924 222.239C528.036 228.184 535.516 236.579 540.502 246.455C543.548 252.486 545.418 259.017 545.999 265.648C546.58 272.279 545.859 278.871 543.881 285.021C541.903 291.17 538.709 296.749 534.494 301.415C530.28 306.081 525.133 309.737 519.369 312.159L432.166 348.771C430.804 349.343 429.665 350.337 428.895 351.627C428.124 352.916 427.757 354.441 427.841 356.008C427.925 357.576 428.455 359.114 429.364 360.426C430.273 361.738 431.52 362.764 432.946 363.374L500.619 392.339C500.938 392.473 501.242 392.65 501.52 392.867C502.208 393.435 502.694 394.228 502.89 395.102C503.086 395.975 502.978 396.871 502.587 397.627C502.267 398.219 501.788 398.694 501.203 398.999C500.619 399.304 499.952 399.426 499.279 399.352Z" fill="#DADADA" fill-opacity="0.53"/>
<path d="M336.005 383.276L348.739 375.936L354.692 388.867L341.958 396.207L336.005 383.276Z" fill="#DADADA" fill-opacity="0.53"/>
<path d="M346.495 405.633L359.229 398.294L365.183 411.226L352.448 418.565L346.495 405.633Z" fill="#DADADA" fill-opacity="0.53"/>
<path d="M263.067 443.354L349.888 366.5C357.16 360.063 361.87 351.01 363.202 340.908C364.535 330.805 362.407 320.29 357.186 311.183C351.965 302.076 343.981 294.951 334.616 291.042C325.25 287.133 315.094 286.685 305.905 289.777L305.889 289.782L311.009 274.639C316.41 258.626 317.727 241.157 314.834 223.873C311.238 202.545 300.517 182.75 284.62 168.082C268.722 153.414 248.7 144.845 228.189 143.931L227.875 143.242L226.428 143.88C214.647 143.606 203.106 145.887 192.532 150.58C181.959 155.274 172.581 162.277 164.991 171.149C148.439 190.494 136.555 213.813 130.227 239.359L81.3536 437.751C80.8588 439.752 81.1556 441.931 82.1794 443.814C83.2032 445.696 84.8709 447.129 86.8193 447.801L236.428 499.502C238.292 500.147 240.273 500.045 241.972 499.219C243.672 498.392 244.965 496.902 245.592 495.046L263.067 443.354ZM287.352 400.231L281.018 386.333L313.615 367.53L313.618 367.528L316.688 374.263L287.352 400.231ZM342.547 350.85C341.64 351.994 340.642 353.053 339.561 354.016L328.423 363.875L326.663 360.011L342.547 350.85ZM303.454 307.715L311.471 305.017C315 303.83 318.779 303.451 322.564 303.906C326.348 304.36 330.053 305.638 333.438 307.655C336.823 309.672 339.812 312.385 342.211 315.616C344.609 318.846 346.364 322.523 347.36 326.408C347.582 327.271 347.75 328.135 347.894 328.999L319.89 345.15L319.89 345.15L302.959 307.999L303.454 307.715ZM289.919 315.524L306.846 352.666L306.843 352.668L274.245 371.472L257.315 334.32L289.919 315.524ZM174.926 316.156L174.929 316.163L191.853 353.307L159.249 372.099L142.326 334.955L174.926 316.156ZM181.197 293.777L164.267 256.629L196.871 237.828L213.8 274.976L181.197 293.777ZM187.968 308.639L187.967 308.636L220.572 289.835L237.5 326.98L204.892 345.784L187.968 308.639ZM244.273 341.841L261.204 378.992L228.6 397.789L211.669 360.638L244.273 341.841ZM250.542 319.459L233.614 282.314L266.217 263.513L283.146 300.662L250.542 319.459ZM301 243.455C300.74 252.047 299.244 260.461 296.562 268.417L291.604 283.083L279.259 255.993L301 243.455ZM282.943 188.194C291.643 198.96 297.465 211.845 299.757 225.408L272.487 241.134L255.558 203.986L282.943 188.194ZM259.445 248.654L226.842 267.455L209.913 230.307L242.516 211.506L259.445 248.654ZM245.507 162.785C254.617 165.502 263.243 170.048 270.888 176.161C270.941 176.204 270.991 176.25 271.044 176.292L248.786 189.127L235.786 160.601C239.055 161.096 242.303 161.826 245.507 162.785L245.507 162.785ZM219.109 160.146L235.744 196.648L203.141 215.448L184.506 174.557C194.32 166.399 206.299 161.409 219.109 160.146ZM143.71 249.719L144.041 248.379L144.455 249.288L144.456 249.289L143.71 249.719ZM157.494 241.765L150.571 226.568C156.126 211.88 163.811 198.296 173.373 186.266L190.099 222.969L157.496 241.769L157.494 241.765ZM135.554 320.093L129.595 307.021L138.323 271.59L151.226 264.149L151.227 264.15L168.156 301.297L135.556 320.096L135.554 320.093ZM98.02 435.193L100.609 424.685L107.334 420.807L116.858 441.704L98.02 435.193ZM159.462 456.426L176.685 446.497L185.276 465.347L159.462 456.426ZM204.825 472.103L189.724 438.974L197.512 434.478L185.838 430.444L177.165 427.451L166.289 423.691L169.913 431.635L139.111 449.393L136.403 448.458L120.373 413.284L126.303 409.864L117.421 406.802L105.988 402.848L119.465 348.138L129.286 342.475L129.287 342.478L146.211 379.622L141.683 382.232L148.465 384.575L162.038 389.265L168.015 391.327L166.021 386.961L198.63 368.161L215.553 405.306L212.905 406.844L216.882 408.217L233.252 413.871L236.426 414.978L235.371 412.651L267.976 393.853L275.617 410.619L254.383 429.415L251.027 428.255L249.158 435.541L244.077 450.571L234.706 447.334L240.714 460.522L233.454 481.996L204.825 472.103Z" fill="#DADADA" fill-opacity="0.53"/>
<path d="M144.034 405.027L157.123 409.045L153.23 423.053L140.141 419.034L144.034 405.027Z" fill="#DADADA" fill-opacity="0.53"/>
<path d="M119.655 400.533L132.744 404.552L128.851 418.559L115.762 414.541L119.655 400.533Z" fill="#DADADA" fill-opacity="0.53"/>
<path d="M217.175 418.505L230.264 422.523L226.371 436.53L213.282 432.512L217.175 418.505Z" fill="#DADADA" fill-opacity="0.53"/>
<path d="M168.414 409.52L181.503 413.538L177.61 427.545L164.521 423.527L168.414 409.52Z" fill="#DADADA" fill-opacity="0.53"/>
<path d="M192.794 414.013L205.883 418.031L201.99 432.038L188.901 428.02L192.794 414.013Z" fill="#DADADA" fill-opacity="0.53"/>
</svg>
