<svg width="342" height="343" viewBox="0 0 342 343" fill="none" xmlns="http://www.w3.org/2000/svg">
<path d="M22.8 256.503V313.503C22.8 315.014 23.4005 316.464 24.4695 317.533C25.5384 318.602 26.9883 319.203 28.5 319.203C30.0117 319.203 31.4615 318.602 32.5305 317.533C33.5995 316.464 34.2 315.014 34.2 313.503V256.503C34.2 254.991 33.5995 253.541 32.5305 252.472C31.4615 251.403 30.0117 250.803 28.5 250.803C26.9883 250.803 25.5384 251.403 24.4695 252.472C23.4005 253.541 22.8 254.991 22.8 256.503Z" fill="#E5E5E5"/>
<path d="M45.6 256.503V313.503C45.6 315.014 46.2005 316.464 47.2695 317.533C48.3384 318.602 49.7882 319.203 51.3 319.203C52.8117 319.203 54.2615 318.602 55.3305 317.533C56.3994 316.464 57 315.014 57 313.503V256.503C57 254.991 56.3994 253.541 55.3305 252.472C54.2615 251.403 52.8117 250.803 51.3 250.803C49.7882 250.803 48.3384 251.403 47.2695 252.472C46.2005 253.541 45.6 254.991 45.6 256.503Z" fill="#E5E5E5"/>
<path d="M79.8 313.503V256.503C79.8 254.991 79.1995 253.541 78.1305 252.472C77.0616 251.403 75.6118 250.803 74.1 250.803C72.5883 250.803 71.1385 251.403 70.0695 252.472C69.0006 253.541 68.4 254.991 68.4 256.503V313.503C68.4 315.014 69.0006 316.464 70.0695 317.533C71.1385 318.602 72.5883 319.203 74.1 319.203C75.6118 319.203 77.0616 318.602 78.1305 317.533C79.1995 316.464 79.8 315.014 79.8 313.503Z" fill="#E5E5E5"/>
<path d="M102.6 251.202V324.903C102.586 329.434 100.781 333.776 97.5766 336.979C94.3726 340.183 90.031 341.989 85.5 342.003H17.1C12.569 341.989 8.22737 340.183 5.02342 336.979C1.81948 333.776 0.0135323 329.434 0 324.903V251.202C0.00196622 248.382 0.700132 245.605 2.03254 243.119C3.36495 240.634 5.29039 238.515 7.638 236.952L34.2 219.396V121.071L29.127 110.868C28.7201 110.074 28.5053 109.195 28.5 108.303V22.8029C28.5 16.756 30.9021 10.9567 35.178 6.6809C39.4538 2.40507 45.2531 0.00292969 51.3 0.00292969C57.3469 0.00292969 63.1462 2.40507 67.422 6.6809C71.6979 10.9567 74.1 16.756 74.1 22.8029V79.8029C74.1 81.3147 73.4995 82.7645 72.4305 83.8334C71.3615 84.9024 69.9117 85.5029 68.4 85.5029C66.8883 85.5029 65.4384 84.9024 64.3695 83.8334C63.3005 82.7645 62.7 81.3147 62.7 79.8029V22.8029C62.691 19.7822 61.487 16.8878 59.351 14.7519C57.2151 12.6159 54.3207 11.412 51.3 11.4029C48.2834 11.4253 45.3968 12.6336 43.2637 14.7666C41.1306 16.8997 39.9224 19.7864 39.9 22.8029V106.935L44.973 117.138C45.3799 117.932 45.5947 118.811 45.6 119.703V221.22C45.8412 222.312 45.7471 223.451 45.3301 224.488C44.9132 225.526 44.1927 226.413 43.263 227.034L13.965 246.471C13.1837 246.99 12.5415 247.693 12.0943 248.518C11.6472 249.342 11.4088 250.264 11.4 251.202V324.903C11.4 326.415 12.0005 327.864 13.0695 328.933C14.1384 330.002 15.5883 330.603 17.1 330.603H85.5C87.0117 330.603 88.4616 330.002 89.5305 328.933C90.5995 327.864 91.2 326.415 91.2 324.903V251.202C91.2014 250.268 90.9734 249.349 90.5361 248.524C90.0988 247.699 89.4655 246.994 88.692 246.471L59.793 227.205C58.95 226.692 58.2513 225.973 57.7628 225.115C57.2742 224.257 57.0117 223.29 57 222.303V119.703C57.0053 118.811 57.2201 117.932 57.627 117.138L62.7 106.935V102.603C62.7 101.091 63.3005 99.6414 64.3695 98.5724C65.4384 97.5035 66.8883 96.9029 68.4 96.9029C69.9117 96.9029 71.3615 97.5035 72.4305 98.5724C73.4995 99.6414 74.1 101.091 74.1 102.603V108.303C74.0947 109.195 73.8799 110.074 73.473 110.868L68.4 121.071V219.225L95.019 236.952C97.3507 238.527 99.261 240.649 100.583 243.134C101.904 245.618 102.597 248.388 102.6 251.202Z" fill="#E5E5E5"/>
<path d="M171 250.803C169.488 250.803 168.038 251.403 166.969 252.472C165.901 253.541 165.3 254.991 165.3 256.503V262.203C165.3 263.714 165.901 265.164 166.969 266.233C168.038 267.302 169.488 267.903 171 267.903C172.512 267.903 173.962 267.302 175.031 266.233C176.099 265.164 176.7 263.714 176.7 262.203V256.503C176.7 254.991 176.099 253.541 175.031 252.472C173.962 251.403 172.512 250.803 171 250.803Z" fill="#E5E5E5"/>
<path d="M165.3 307.803V313.503C165.3 315.015 165.901 316.465 166.969 317.534C168.038 318.602 169.488 319.203 171 319.203C172.512 319.203 173.962 318.602 175.031 317.534C176.099 316.465 176.7 315.015 176.7 313.503V307.803C176.7 306.291 176.099 304.841 175.031 303.773C173.962 302.704 172.512 302.103 171 302.103C169.488 302.103 168.038 302.704 166.969 303.773C165.901 304.841 165.3 306.291 165.3 307.803Z" fill="#E5E5E5"/>
<path d="M182.4 285.003C182.4 283.491 181.799 282.041 180.73 280.972C179.662 279.903 178.212 279.303 176.7 279.303H165.3C163.788 279.303 162.338 279.903 161.269 280.972C160.201 282.041 159.6 283.491 159.6 285.003C159.6 286.514 160.201 287.964 161.269 289.033C162.338 290.102 163.788 290.703 165.3 290.703H176.7C178.212 290.703 179.662 290.102 180.73 289.033C181.799 287.964 182.4 286.514 182.4 285.003Z" fill="#E5E5E5"/>
<path d="M153.9 267.903C153.9 266.391 153.299 264.942 152.231 263.873C151.162 262.804 149.712 262.203 148.2 262.203C146.688 262.203 145.238 262.804 144.169 263.873C143.101 264.942 142.5 266.391 142.5 267.903V273.603C142.5 275.115 143.101 276.565 144.169 277.634C145.238 278.703 146.688 279.303 148.2 279.303C149.712 279.303 151.162 278.703 152.231 277.634C153.299 276.565 153.9 275.115 153.9 273.603V267.903Z" fill="#E5E5E5"/>
<path d="M193.8 279.303C195.312 279.303 196.762 278.703 197.83 277.634C198.899 276.565 199.5 275.115 199.5 273.603V267.903C199.5 266.391 198.899 264.942 197.83 263.873C196.762 262.804 195.312 262.203 193.8 262.203C192.288 262.203 190.838 262.804 189.769 263.873C188.701 264.942 188.1 266.391 188.1 267.903V273.603C188.1 275.115 188.701 276.565 189.769 277.634C190.838 278.703 192.288 279.303 193.8 279.303Z" fill="#E5E5E5"/>
<path d="M148.2 290.703C146.688 290.703 145.238 291.304 144.169 292.373C143.101 293.442 142.5 294.891 142.5 296.403V302.103C142.5 303.615 143.101 305.065 144.169 306.134C145.238 307.203 146.688 307.803 148.2 307.803C149.712 307.803 151.162 307.203 152.231 306.134C153.299 305.065 153.9 303.615 153.9 302.103V296.403C153.9 294.891 153.299 293.442 152.231 292.373C151.162 291.304 149.712 290.703 148.2 290.703Z" fill="#E5E5E5"/>
<path d="M188.1 302.103C188.1 303.615 188.701 305.065 189.769 306.134C190.838 307.203 192.288 307.803 193.8 307.803C195.312 307.803 196.762 307.203 197.83 306.134C198.899 305.065 199.5 303.615 199.5 302.103V296.403C199.5 294.891 198.899 293.442 197.83 292.373C196.762 291.304 195.312 290.703 193.8 290.703C192.288 290.703 190.838 291.304 189.769 292.373C188.701 293.442 188.1 294.891 188.1 296.403V302.103Z" fill="#E5E5E5"/>
<path d="M338.124 285.288L323.418 280.386C318.871 278.889 314.913 275.994 312.109 272.115C309.304 268.236 307.796 263.57 307.8 258.783V122.382C307.805 121.508 308.02 120.648 308.427 119.874L312.873 110.868C313.28 110.074 313.495 109.195 313.5 108.303V102.603C313.5 101.091 312.899 99.6414 311.831 98.5724C310.762 97.5035 309.312 96.9029 307.8 96.9029C306.288 96.9029 304.838 97.5035 303.77 98.5724C302.701 99.6414 302.1 101.091 302.1 102.603V106.935L298.224 114.744C297.026 117.112 296.401 119.728 296.4 122.382V258.783C296.39 265.076 298.128 271.248 301.419 276.612C304.709 281.976 309.425 286.321 315.039 289.164C298.878 291.216 282.522 291.216 266.361 289.164C271.975 286.321 276.691 281.976 279.981 276.612C283.272 271.248 285.01 265.076 285 258.783V122.382C284.999 119.728 284.374 117.112 283.176 114.744L279.3 106.935V22.8029C279.3 19.7795 280.501 16.8798 282.639 14.7419C284.777 12.604 287.677 11.4029 290.7 11.4029C293.723 11.4029 296.623 12.604 298.761 14.7419C300.899 16.8798 302.1 19.7795 302.1 22.8029V79.8029C302.1 81.3147 302.701 82.7645 303.77 83.8334C304.838 84.9024 306.288 85.5029 307.8 85.5029C309.312 85.5029 310.762 84.9024 311.831 83.8334C312.899 82.7645 313.5 81.3147 313.5 79.8029V22.8029C313.5 16.756 311.098 10.9567 306.822 6.6809C302.546 2.40507 296.747 0.00292969 290.7 0.00292969C284.653 0.00292969 278.854 2.40507 274.578 6.6809C270.302 10.9567 267.9 16.756 267.9 22.8029V108.303C267.905 109.195 268.12 110.074 268.527 110.868L272.973 119.874C273.38 120.648 273.595 121.508 273.6 122.382V258.783C273.604 263.57 272.096 268.236 269.291 272.115C266.487 275.994 262.529 278.889 257.982 280.386L243.276 285.288C242.15 285.681 241.174 286.412 240.48 287.381C239.786 288.351 239.409 289.511 239.4 290.703C239.4 304.309 244.805 317.357 254.425 326.977C264.046 336.598 277.094 342.003 290.7 342.003C304.306 342.003 317.354 336.598 326.975 326.977C336.595 317.357 342 304.309 342 290.703C341.991 289.511 341.614 288.351 340.92 287.381C340.226 286.412 339.25 285.681 338.124 285.288ZM290.7 330.603C281.43 330.589 272.453 327.352 265.308 321.445C258.164 315.538 253.297 307.329 251.541 298.227C277.391 303.395 304.009 303.395 329.859 298.227C328.103 307.329 323.236 315.538 316.092 321.445C308.947 327.352 299.97 330.589 290.7 330.603Z" fill="#E5E5E5"/>
<path d="M228 283.977C228.045 298.931 222.303 313.324 211.975 324.14C201.648 334.956 187.537 341.357 172.596 342.003H171C158.132 342.003 145.642 337.648 135.563 329.647C125.484 321.646 118.409 310.47 115.489 297.938C112.569 285.405 113.975 272.253 119.48 260.621C124.984 248.989 134.263 239.562 145.806 233.874L148.656 227.433C152.119 219.526 153.905 210.986 153.9 202.353V121.071L148.827 110.868C148.42 110.074 148.205 109.195 148.2 108.303V22.803C148.2 19.6693 148.845 16.5692 150.096 13.6962C151.348 10.8232 153.178 8.23894 155.472 6.10479C157.767 3.97064 160.477 2.33241 163.433 1.29237C166.389 0.25233 169.528 -0.167188 172.653 0.0600021C178.512 0.63342 183.941 3.39117 187.859 7.78476C191.777 12.1783 193.898 17.8858 193.8 23.772V79.803C193.8 81.3147 193.199 82.7646 192.131 83.8335C191.062 84.9025 189.612 85.503 188.1 85.503C186.588 85.503 185.138 84.9025 184.07 83.8335C183.001 82.7646 182.4 81.3147 182.4 79.803V23.772C182.471 20.7744 181.435 17.8558 179.489 15.574C177.544 13.2922 174.826 11.8073 171.855 11.403C170.22 11.3055 168.582 11.5547 167.05 12.1343C165.517 12.7138 164.125 13.6107 162.963 14.766C161.899 15.8166 161.053 17.0679 160.476 18.4475C159.899 19.8271 159.601 21.3075 159.6 22.803V106.935L164.673 117.138C165.08 117.932 165.295 118.811 165.3 119.703V202.353C165.292 212.555 163.176 222.646 159.087 231.993L155.439 240.429C154.839 241.741 153.787 242.793 152.475 243.393C142.854 247.697 135.021 255.201 130.308 264.628C125.596 274.056 124.294 284.825 126.625 295.104C128.957 305.382 134.777 314.536 143.095 321.008C151.414 327.48 161.718 330.871 172.254 330.603C184.218 330.095 195.519 324.972 203.787 316.311C212.056 307.649 216.648 296.122 216.6 284.148C216.435 275.482 213.799 267.044 209.003 259.824C204.207 252.605 197.449 246.904 189.525 243.393C188.213 242.793 187.161 241.741 186.561 240.429L182.913 231.993C178.824 222.646 176.708 212.555 176.7 202.353V119.703C176.705 118.811 176.92 117.932 177.327 117.138L182.4 106.935V102.603C182.4 101.091 183.001 99.6414 184.07 98.5725C185.138 97.5035 186.588 96.903 188.1 96.903C189.612 96.903 191.062 97.5035 192.131 98.5725C193.199 99.6414 193.8 101.091 193.8 102.603V108.303C193.795 109.195 193.58 110.074 193.173 110.868L188.1 121.071V202.353C188.095 210.986 189.881 219.526 193.344 227.433L196.194 233.874C205.572 238.516 213.497 245.643 219.105 254.477C224.713 263.311 227.79 273.515 228 283.977Z" fill="#E5E5E5"/>
</svg>
