<svg id="Livello_1" data-name="Livello 1" xmlns="http://www.w3.org/2000/svg" viewBox="0 0 1046.13 942.25"><title>buttons-styles-mobile</title><path d="M76.7,170.66V177h-3V159.94h6.53a6.58,6.58,0,0,1,4.54,1.49,5,5,0,0,1,1.69,3.94,4.83,4.83,0,0,1-1.65,3.9,6.9,6.9,0,0,1-4.61,1.39Zm0-2.38h3.56a3.53,3.53,0,0,0,2.41-.74,2.75,2.75,0,0,0,.83-2.16,2.93,2.93,0,0,0-.84-2.2,3.24,3.24,0,0,0-2.32-.86H76.7ZM95,166.92a7,7,0,0,0-1.16-.09,2.61,2.61,0,0,0-2.64,1.5V177H88.32V164.32H91l.07,1.42A3.21,3.21,0,0,1,94,164.09a2.67,2.67,0,0,1,1,.16ZM99.32,177H96.47V164.32h2.85Zm-3-16a1.52,1.52,0,0,1,.41-1.09,1.86,1.86,0,0,1,2.39,0,1.6,1.6,0,0,1,0,2.17,1.9,1.9,0,0,1-2.39,0A1.51,1.51,0,0,1,96.29,161Zm8.33,3.29.08,1.32a4.56,4.56,0,0,1,3.66-1.56,3.5,3.5,0,0,1,3.48,1.95,4.5,4.5,0,0,1,3.89-1.95,3.94,3.94,0,0,1,3.12,1.16,5.09,5.09,0,0,1,1.06,3.42V177h-2.85v-8.25a2.53,2.53,0,0,0-.53-1.77,2.31,2.31,0,0,0-1.75-.56,2.38,2.38,0,0,0-1.59.53,2.74,2.74,0,0,0-.86,1.36V177H109.5v-8.34a2,2,0,0,0-2.28-2.24,2.51,2.51,0,0,0-2.43,1.39V177h-2.85V164.32ZM129.93,177a4.37,4.37,0,0,1-.33-1.18,4.79,4.79,0,0,1-6.45.33,3.49,3.49,0,0,1-1.21-2.7,3.59,3.59,0,0,1,1.5-3.11,7.3,7.3,0,0,1,4.31-1.09h1.75v-.83a2.2,2.2,0,0,0-.55-1.57,2.17,2.17,0,0,0-1.68-.6,2.49,2.49,0,0,0-1.59.49,1.49,1.49,0,0,0-.62,1.23h-2.85a3.14,3.14,0,0,1,.69-1.95,4.59,4.59,0,0,1,1.88-1.43,6.65,6.65,0,0,1,2.66-.52,5.3,5.3,0,0,1,3.55,1.13,4,4,0,0,1,1.36,3.14v5.72a6.49,6.49,0,0,0,.48,2.73v.2Zm-3.13-2.05a3.21,3.21,0,0,0,1.58-.41,2.73,2.73,0,0,0,1.13-1.1V171H128a4.19,4.19,0,0,0-2.38.55,1.78,1.78,0,0,0-.8,1.56,1.69,1.69,0,0,0,.54,1.31A2.15,2.15,0,0,0,126.8,174.95Zm14.7-8a7,7,0,0,0-1.16-.09,2.61,2.61,0,0,0-2.64,1.5V177h-2.85V164.32h2.72l.07,1.42a3.21,3.21,0,0,1,2.86-1.65,2.67,2.67,0,0,1,1,.16Zm6,6,2.58-8.6h3l-5,14.6q-1.16,3.2-3.94,3.2a5.09,5.09,0,0,1-1.37-.21v-2.2l.54,0a2.72,2.72,0,0,0,1.62-.4,2.55,2.55,0,0,0,.87-1.31l.41-1.09-4.45-12.62h3.07Z" transform="translate(-72.87 -53.75)"/><path d="M339.41,72V54.94h5a7.87,7.87,0,0,1,4,1,6.86,6.86,0,0,1,2.72,2.86,9.07,9.07,0,0,1,1,4.24v.86a9,9,0,0,1-1,4.27A6.75,6.75,0,0,1,348.41,71a8.24,8.24,0,0,1-4.09,1Zm3-14.67v12.3h1.93a4.44,4.44,0,0,0,3.57-1.45,6.36,6.36,0,0,0,1.28-4.2V63A6.52,6.52,0,0,0,348,58.79a4.28,4.28,0,0,0-3.5-1.46Zm17.54,14.91a5.92,5.92,0,0,1-4.39-1.7A6.22,6.22,0,0,1,353.85,66v-.35a7.63,7.63,0,0,1,.73-3.39,5.61,5.61,0,0,1,2.06-2.33,5.44,5.44,0,0,1,3-.83,5,5,0,0,1,4,1.65A7,7,0,0,1,365,65.41v1.15h-8.29a3.82,3.82,0,0,0,1,2.48,3.17,3.17,0,0,0,2.32.91,3.86,3.86,0,0,0,3.19-1.58l1.53,1.46a5.17,5.17,0,0,1-2,1.77A6.38,6.38,0,0,1,359.92,72.23Zm-.34-10.86a2.41,2.41,0,0,0-1.9.82,4.27,4.27,0,0,0-.91,2.29h5.42v-.21a3.43,3.43,0,0,0-.76-2.16A2.37,2.37,0,0,0,359.58,61.37ZM367.75,72V61.43h-1.93V59.32h1.93V58.16a4.36,4.36,0,0,1,1.17-3.26,4.49,4.49,0,0,1,3.28-1.15,6.57,6.57,0,0,1,1.59.21l-.07,2.23a5.61,5.61,0,0,0-1.09-.09,1.83,1.83,0,0,0-2,2.1v1.13h2.58v2.11h-2.58V72Zm14.6,0a4.37,4.37,0,0,1-.33-1.18,4.79,4.79,0,0,1-6.45.33,3.49,3.49,0,0,1-1.21-2.7,3.59,3.59,0,0,1,1.5-3.11,7.3,7.3,0,0,1,4.31-1.09h1.75v-.83a2.2,2.2,0,0,0-.55-1.57,2.17,2.17,0,0,0-1.68-.6,2.49,2.49,0,0,0-1.59.49,1.49,1.49,0,0,0-.62,1.23h-2.85a3.14,3.14,0,0,1,.69-1.95,4.59,4.59,0,0,1,1.88-1.43,6.65,6.65,0,0,1,2.66-.52,5.3,5.3,0,0,1,3.55,1.13,4,4,0,0,1,1.36,3.14v5.72a6.49,6.49,0,0,0,.48,2.73V72Zm-3.13-2.05a3.21,3.21,0,0,0,1.58-.41,2.73,2.73,0,0,0,1.13-1.1V66h-1.54a4.2,4.2,0,0,0-2.38.55,1.78,1.78,0,0,0-.8,1.56,1.69,1.69,0,0,0,.54,1.31A2.15,2.15,0,0,0,379.22,69.95Zm15.74.81a4.42,4.42,0,0,1-3.56,1.48A4,4,0,0,1,388.27,71a5.15,5.15,0,0,1-1.05-3.49V59.32h2.85V67.5q0,2.41,2,2.41a2.82,2.82,0,0,0,2.8-1.49V59.32h2.85V72H395Zm8.2,1.24h-2.85V54h2.85Zm6.2-15.76v3.08h2.24v2.11h-2.24v7.08a1.61,1.61,0,0,0,.28,1.05,1.37,1.37,0,0,0,1,.32,4.39,4.39,0,0,0,1-.12V72a7,7,0,0,1-1.87.27q-3.28,0-3.28-3.62V61.43h-2.09V59.32h2.09V56.24Z" transform="translate(-72.87 -53.75)"/><path d="M664.45,72h-3V64.42h-7.63V72h-3V54.94h3V62h7.63v-7.1h3Zm2.23-6.46a7.43,7.43,0,0,1,.74-3.35,5.34,5.34,0,0,1,2.07-2.3,5.81,5.81,0,0,1,3.07-.81,5.52,5.52,0,0,1,4.16,1.65,6.48,6.48,0,0,1,1.73,4.38v.67a7.5,7.5,0,0,1-.73,3.35,5.28,5.28,0,0,1-2.06,2.29,5.86,5.86,0,0,1-3.09.81,5.53,5.53,0,0,1-4.3-1.78,6.88,6.88,0,0,1-1.61-4.77Zm2.85.25a5.13,5.13,0,0,0,.81,3.07,2.63,2.63,0,0,0,2.25,1.1,2.59,2.59,0,0,0,2.24-1.12,5.61,5.61,0,0,0,.81-3.29,5,5,0,0,0-.83-3,2.77,2.77,0,0,0-4.45,0A5.51,5.51,0,0,0,669.52,65.79Zm15.15,2.6,2.68-9.07h2.94L685.91,72h-2.47L679,59.32h3ZM697,72.23a5.92,5.92,0,0,1-4.4-1.7A6.22,6.22,0,0,1,691,66v-.35a7.63,7.63,0,0,1,.73-3.39,5.61,5.61,0,0,1,2.06-2.33,5.43,5.43,0,0,1,3-.83,5,5,0,0,1,4,1.65,7,7,0,0,1,1.42,4.68v1.15h-8.29a3.82,3.82,0,0,0,1,2.48,3.17,3.17,0,0,0,2.32.91,3.85,3.85,0,0,0,3.19-1.58l1.54,1.46a5.16,5.16,0,0,1-2,1.77A6.37,6.37,0,0,1,697,72.23Zm-.34-10.86a2.41,2.41,0,0,0-1.9.82,4.28,4.28,0,0,0-.91,2.29h5.43v-.21a3.43,3.43,0,0,0-.76-2.16A2.37,2.37,0,0,0,696.69,61.37Zm13.8.55a7,7,0,0,0-1.16-.09,2.61,2.61,0,0,0-2.64,1.5V72h-2.85V59.32h2.72l.07,1.42a3.21,3.21,0,0,1,2.86-1.65,2.67,2.67,0,0,1,1,.16Z" transform="translate(-72.87 -53.75)"/><path d="M965.08,64.77h-6.87V72h-3V54.94h10.84v2.39h-7.87V62.4h6.87Zm1.82.77a7.44,7.44,0,0,1,.74-3.35,5.35,5.35,0,0,1,2.07-2.3,5.81,5.81,0,0,1,3.07-.81,5.52,5.52,0,0,1,4.16,1.65,6.49,6.49,0,0,1,1.73,4.38v.67a7.5,7.5,0,0,1-.73,3.35,5.29,5.29,0,0,1-2.06,2.29,5.86,5.86,0,0,1-3.09.81,5.53,5.53,0,0,1-4.3-1.78,6.88,6.88,0,0,1-1.61-4.77Zm2.85.25a5.14,5.14,0,0,0,.81,3.07A2.63,2.63,0,0,0,972.8,70,2.59,2.59,0,0,0,975,68.84a5.61,5.61,0,0,0,.81-3.29,5,5,0,0,0-.83-3,2.77,2.77,0,0,0-4.45,0A5.51,5.51,0,0,0,969.74,65.79ZM985.82,70a2.58,2.58,0,0,0,1.77-.62,2.12,2.12,0,0,0,.75-1.54H991a4.21,4.21,0,0,1-.74,2.21,4.86,4.86,0,0,1-1.87,1.62,5.59,5.59,0,0,1-2.55.6,5.4,5.4,0,0,1-4.22-1.72,6.83,6.83,0,0,1-1.56-4.76v-.29a6.7,6.7,0,0,1,1.55-4.63,5.35,5.35,0,0,1,4.22-1.75,5.17,5.17,0,0,1,3.68,1.32,4.69,4.69,0,0,1,1.5,3.46h-2.68a2.59,2.59,0,0,0-.75-1.79,2.38,2.38,0,0,0-1.77-.7,2.5,2.5,0,0,0-2.13,1,5.09,5.09,0,0,0-.76,3v.46a5.26,5.26,0,0,0,.74,3.08A2.52,2.52,0,0,0,985.82,70Zm14.56.8a4.43,4.43,0,0,1-3.57,1.48A4,4,0,0,1,993.68,71a5.15,5.15,0,0,1-1.05-3.49V59.32h2.85V67.5q0,2.41,2,2.41a2.81,2.81,0,0,0,2.8-1.49V59.32h2.85V72h-2.68Zm12.28-2.2a1.28,1.28,0,0,0-.64-1.16,6.5,6.5,0,0,0-2.07-.7,10.74,10.74,0,0,1-2.43-.77,3.24,3.24,0,0,1-2.13-3,3.38,3.38,0,0,1,1.38-2.74,5.5,5.5,0,0,1,3.52-1.1,5.66,5.66,0,0,1,3.67,1.13,3.55,3.55,0,0,1,1.4,2.92h-2.84a1.76,1.76,0,0,0-.61-1.36,2.34,2.34,0,0,0-1.62-.55,2.58,2.58,0,0,0-1.54.43,1.37,1.37,0,0,0-.58,1.16,1.15,1.15,0,0,0,.55,1,7.69,7.69,0,0,0,2.23.74,10.14,10.14,0,0,1,2.62.88,3.68,3.68,0,0,1,1.42,1.22,3.11,3.11,0,0,1,.47,1.73,3.31,3.31,0,0,1-1.42,2.78,6.07,6.07,0,0,1-3.71,1.05,6.56,6.56,0,0,1-2.78-.56,4.57,4.57,0,0,1-1.9-1.55A3.68,3.68,0,0,1,1005,68h2.77a2,2,0,0,0,.76,1.56,3,3,0,0,0,1.86.54,2.91,2.91,0,0,0,1.71-.42A1.34,1.34,0,0,0,1012.66,68.55Z" transform="translate(-72.87 -53.75)"/><path d="M82.65,302.61a2.05,2.05,0,0,0-.8-1.73A9.43,9.43,0,0,0,79,299.64a13.77,13.77,0,0,1-3.28-1.38,4.38,4.38,0,0,1-2.33-3.82,4.16,4.16,0,0,1,1.68-3.4,6.83,6.83,0,0,1,4.37-1.34,7.38,7.38,0,0,1,3.18.66,5.2,5.2,0,0,1,2.19,1.88,4.77,4.77,0,0,1,.8,2.68h-3a2.65,2.65,0,0,0-.84-2.09,3.42,3.42,0,0,0-2.39-.76,3.64,3.64,0,0,0-2.26.62,2.08,2.08,0,0,0-.8,1.73,1.89,1.89,0,0,0,.87,1.57,10.23,10.23,0,0,0,2.86,1.22,12.86,12.86,0,0,1,3.2,1.35,5,5,0,0,1,1.77,1.73,4.48,4.48,0,0,1,.56,2.29A4.07,4.07,0,0,1,84,306a7.09,7.09,0,0,1-4.43,1.25,8.44,8.44,0,0,1-3.41-.68,5.81,5.81,0,0,1-2.41-1.9,4.74,4.74,0,0,1-.86-2.81h3a2.76,2.76,0,0,0,1,2.25,4.21,4.21,0,0,0,2.75.8,3.66,3.66,0,0,0,2.32-.62A2,2,0,0,0,82.65,302.61ZM93,307.23a5.92,5.92,0,0,1-4.39-1.7A6.22,6.22,0,0,1,87,301v-.35a7.62,7.62,0,0,1,.73-3.39,5.61,5.61,0,0,1,2.06-2.33,5.43,5.43,0,0,1,3-.83,5,5,0,0,1,4,1.65,7,7,0,0,1,1.42,4.68v1.15H89.85a3.82,3.82,0,0,0,1,2.48,3.17,3.17,0,0,0,2.32.91,3.86,3.86,0,0,0,3.19-1.58l1.54,1.46a5.16,5.16,0,0,1-2,1.77A6.38,6.38,0,0,1,93,307.23Zm-.34-10.86a2.42,2.42,0,0,0-1.9.82,4.28,4.28,0,0,0-.91,2.29h5.43v-.21a3.44,3.44,0,0,0-.76-2.16A2.37,2.37,0,0,0,92.71,296.37ZM105.08,305a2.58,2.58,0,0,0,1.77-.62,2.13,2.13,0,0,0,.75-1.54h2.68a4.21,4.21,0,0,1-.74,2.21,4.87,4.87,0,0,1-1.87,1.62,5.59,5.59,0,0,1-2.56.6,5.41,5.41,0,0,1-4.22-1.72,6.84,6.84,0,0,1-1.56-4.76v-.29a6.69,6.69,0,0,1,1.55-4.63,5.35,5.35,0,0,1,4.22-1.75,5.17,5.17,0,0,1,3.68,1.32,4.69,4.69,0,0,1,1.5,3.46H107.6a2.6,2.6,0,0,0-.75-1.79,2.37,2.37,0,0,0-1.77-.7,2.5,2.5,0,0,0-2.13,1,5.09,5.09,0,0,0-.76,3v.46a5.26,5.26,0,0,0,.74,3.08A2.52,2.52,0,0,0,105.08,305Zm6.34-4.42a7.43,7.43,0,0,1,.74-3.35,5.34,5.34,0,0,1,2.07-2.3,5.8,5.8,0,0,1,3.07-.81,5.52,5.52,0,0,1,4.16,1.65,6.48,6.48,0,0,1,1.73,4.38v.67a7.5,7.5,0,0,1-.73,3.35,5.28,5.28,0,0,1-2.06,2.29,5.85,5.85,0,0,1-3.09.81,5.52,5.52,0,0,1-4.3-1.78,6.88,6.88,0,0,1-1.61-4.77Zm2.85.25a5.13,5.13,0,0,0,.81,3.07,2.63,2.63,0,0,0,2.25,1.1,2.59,2.59,0,0,0,2.24-1.12,5.61,5.61,0,0,0,.81-3.29,5,5,0,0,0-.83-3,2.77,2.77,0,0,0-4.45,0A5.51,5.51,0,0,0,114.27,300.79Zm13.51-6.47.08,1.46a4.56,4.56,0,0,1,3.69-1.7q4,0,4,4.54V307h-2.85v-8.21a2.57,2.57,0,0,0-.53-1.78,2.16,2.16,0,0,0-1.7-.59,2.75,2.75,0,0,0-2.57,1.56v9H125.1V294.32Zm9.7,6.25a7.51,7.51,0,0,1,1.36-4.7,4.35,4.35,0,0,1,3.65-1.78,4.14,4.14,0,0,1,3.26,1.41V289h2.85v18H146l-.14-1.31a4.2,4.2,0,0,1-3.41,1.55,4.35,4.35,0,0,1-3.61-1.79A7.84,7.84,0,0,1,137.49,300.57Zm2.85.25a5.33,5.33,0,0,0,.74,3,2.43,2.43,0,0,0,2.12,1.08,2.69,2.69,0,0,0,2.55-1.56v-5.41a2.65,2.65,0,0,0-2.53-1.52,2.43,2.43,0,0,0-2.13,1.1A5.84,5.84,0,0,0,140.33,300.81ZM158.66,307a4.41,4.41,0,0,1-.33-1.18,4.79,4.79,0,0,1-6.45.33,3.49,3.49,0,0,1-1.21-2.7,3.59,3.59,0,0,1,1.5-3.11,7.29,7.29,0,0,1,4.31-1.09h1.75v-.83a2.19,2.19,0,0,0-.55-1.57,2.17,2.17,0,0,0-1.68-.6,2.49,2.49,0,0,0-1.59.49,1.49,1.49,0,0,0-.62,1.23H151a3.14,3.14,0,0,1,.69-1.95,4.59,4.59,0,0,1,1.88-1.43,6.65,6.65,0,0,1,2.66-.52,5.3,5.3,0,0,1,3.55,1.13,4,4,0,0,1,1.36,3.14v5.72a6.49,6.49,0,0,0,.48,2.73v.2Zm-3.13-2.05a3.21,3.21,0,0,0,1.58-.41,2.73,2.73,0,0,0,1.13-1.1V301h-1.54a4.19,4.19,0,0,0-2.38.55,1.78,1.78,0,0,0-.8,1.56,1.69,1.69,0,0,0,.54,1.31A2.15,2.15,0,0,0,155.53,304.95Zm14.7-8a7,7,0,0,0-1.16-.09,2.61,2.61,0,0,0-2.64,1.5V307h-2.85V294.32h2.72l.07,1.42a3.21,3.21,0,0,1,2.86-1.65,2.68,2.68,0,0,1,1,.16Zm6,6,2.58-8.6h3l-5,14.6q-1.16,3.2-3.94,3.2a5.09,5.09,0,0,1-1.37-.21v-2.2l.54,0a2.71,2.71,0,0,0,1.62-.4,2.55,2.55,0,0,0,.87-1.31l.41-1.09-4.45-12.62h3.07Z" transform="translate(-72.87 -53.75)"/><path d="M76.7,434.63h7.75V437H73.73V419.94h3ZM93.54,437a4.4,4.4,0,0,1-.33-1.18,4.43,4.43,0,0,1-3.33,1.42,4.48,4.48,0,0,1-3.12-1.09,3.49,3.49,0,0,1-1.21-2.7,3.59,3.59,0,0,1,1.5-3.11,7.29,7.29,0,0,1,4.31-1.09h1.75v-.83a2.2,2.2,0,0,0-.55-1.57,2.17,2.17,0,0,0-1.68-.6,2.49,2.49,0,0,0-1.59.49,1.49,1.49,0,0,0-.62,1.23H85.83a3.14,3.14,0,0,1,.69-1.95,4.59,4.59,0,0,1,1.88-1.43,6.64,6.64,0,0,1,2.66-.52,5.3,5.3,0,0,1,3.55,1.13A4,4,0,0,1,96,428.35v5.72a6.48,6.48,0,0,0,.48,2.73v.2Zm-3.13-2.05a3.21,3.21,0,0,0,1.58-.41,2.73,2.73,0,0,0,1.13-1.1V431H91.58a4.19,4.19,0,0,0-2.38.55,1.78,1.78,0,0,0-.8,1.56,1.69,1.69,0,0,0,.54,1.31A2.15,2.15,0,0,0,90.41,434.95Zm14.7-8a7,7,0,0,0-1.16-.09,2.61,2.61,0,0,0-2.64,1.5V437H98.46V424.32h2.72l.07,1.42a3.21,3.21,0,0,1,2.86-1.65,2.67,2.67,0,0,1,1,.16Zm.59,3.64a7.41,7.41,0,0,1,1.38-4.71,4.47,4.47,0,0,1,3.69-1.77,4.18,4.18,0,0,1,3.41,1.51l.13-1.28h2.57v12.29a5.1,5.1,0,0,1-1.56,3.94,5.89,5.89,0,0,1-4.18,1.44,6.73,6.73,0,0,1-2.73-.59,4.8,4.8,0,0,1-2-1.51l1.35-1.71a4.07,4.07,0,0,0,3.23,1.56,3.13,3.13,0,0,0,2.24-.77,2.93,2.93,0,0,0,.82-2.25v-.86a4.19,4.19,0,0,1-3.28,1.37,4.46,4.46,0,0,1-3.65-1.77A7.68,7.68,0,0,1,105.69,430.57Zm2.84.25a5.17,5.17,0,0,0,.77,3,2.52,2.52,0,0,0,2.17,1.09,2.74,2.74,0,0,0,2.56-1.48v-5.58a2.7,2.7,0,0,0-2.53-1.44,2.53,2.53,0,0,0-2.19,1.11A5.75,5.75,0,0,0,108.53,430.81Zm16.38,6.42a5.92,5.92,0,0,1-4.39-1.7,6.21,6.21,0,0,1-1.68-4.55v-.35a7.63,7.63,0,0,1,.73-3.39,5.61,5.61,0,0,1,2.06-2.33,5.43,5.43,0,0,1,3-.83,5,5,0,0,1,4,1.65,7,7,0,0,1,1.42,4.68v1.15h-8.29a3.82,3.82,0,0,0,1,2.48,3.17,3.17,0,0,0,2.32.91,3.86,3.86,0,0,0,3.19-1.58l1.53,1.46a5.16,5.16,0,0,1-2,1.77A6.38,6.38,0,0,1,124.91,437.23Zm-.34-10.86a2.42,2.42,0,0,0-1.9.82,4.28,4.28,0,0,0-.91,2.29h5.42v-.21a3.43,3.43,0,0,0-.76-2.16A2.37,2.37,0,0,0,124.57,426.37Z" transform="translate(-72.87 -53.75)"/><path d="M82.65,562.6a2.05,2.05,0,0,0-.8-1.73A9.43,9.43,0,0,0,79,559.64a13.77,13.77,0,0,1-3.28-1.38,4.38,4.38,0,0,1-2.33-3.82,4.16,4.16,0,0,1,1.68-3.4,6.83,6.83,0,0,1,4.37-1.34,7.38,7.38,0,0,1,3.18.66,5.2,5.2,0,0,1,2.19,1.88,4.77,4.77,0,0,1,.8,2.68h-3a2.65,2.65,0,0,0-.84-2.09,3.42,3.42,0,0,0-2.39-.76,3.64,3.64,0,0,0-2.26.62,2.08,2.08,0,0,0-.8,1.74,1.88,1.88,0,0,0,.87,1.57,10.24,10.24,0,0,0,2.86,1.22,12.86,12.86,0,0,1,3.2,1.35,5,5,0,0,1,1.77,1.73,4.48,4.48,0,0,1,.56,2.28A4.07,4.07,0,0,1,84,566a7.09,7.09,0,0,1-4.43,1.25,8.44,8.44,0,0,1-3.41-.68,5.81,5.81,0,0,1-2.41-1.9,4.74,4.74,0,0,1-.86-2.81h3a2.76,2.76,0,0,0,1,2.25,4.21,4.21,0,0,0,2.75.8,3.66,3.66,0,0,0,2.32-.62A2,2,0,0,0,82.65,562.6Zm7.49-8.28.08,1.33a4.56,4.56,0,0,1,3.66-1.56A3.5,3.5,0,0,1,97.36,556a4.5,4.5,0,0,1,3.89-1.95,3.94,3.94,0,0,1,3.12,1.16,5.09,5.09,0,0,1,1.05,3.42V567h-2.85v-8.25A2.52,2.52,0,0,0,102,557a2.31,2.31,0,0,0-1.75-.56,2.38,2.38,0,0,0-1.59.53,2.73,2.73,0,0,0-.86,1.36V567H95v-8.34a2,2,0,0,0-2.29-2.24,2.51,2.51,0,0,0-2.43,1.39V567H87.46V554.32ZM115.44,567a4.41,4.41,0,0,1-.33-1.18,4.43,4.43,0,0,1-3.33,1.42,4.48,4.48,0,0,1-3.12-1.09,3.49,3.49,0,0,1-1.21-2.7,3.59,3.59,0,0,1,1.5-3.1,7.29,7.29,0,0,1,4.31-1.09H115v-.83a2.2,2.2,0,0,0-.55-1.57,2.17,2.17,0,0,0-1.68-.6,2.49,2.49,0,0,0-1.59.49,1.49,1.49,0,0,0-.62,1.23h-2.85a3.14,3.14,0,0,1,.69-1.95,4.59,4.59,0,0,1,1.88-1.43,6.64,6.64,0,0,1,2.66-.52,5.3,5.3,0,0,1,3.55,1.13,4,4,0,0,1,1.36,3.14v5.72a6.47,6.47,0,0,0,.48,2.73v.2Zm-3.13-2.05a3.21,3.21,0,0,0,1.58-.41,2.73,2.73,0,0,0,1.13-1.1V561h-1.53a4.19,4.19,0,0,0-2.38.55,1.78,1.78,0,0,0-.8,1.56,1.69,1.69,0,0,0,.54,1.31A2.15,2.15,0,0,0,112.31,564.95ZM123.4,567h-2.85V549h2.85Zm5.66,0h-2.85V549h2.85Z" transform="translate(-72.87 -53.75)"/><path d="M83.71,689.38h-7v5.25h8.19V697H73.73V679.94H84.81v2.39H76.7V687h7Zm9.48-2.46a7,7,0,0,0-1.16-.09,2.61,2.61,0,0,0-2.64,1.5V697H86.54V684.32h2.72l.07,1.42a3.21,3.21,0,0,1,2.86-1.65,2.67,2.67,0,0,1,1,.16Zm8,0a7,7,0,0,0-1.16-.09,2.61,2.61,0,0,0-2.64,1.5V697H94.5V684.32h2.72l.07,1.42a3.21,3.21,0,0,1,2.86-1.65,2.67,2.67,0,0,1,1,.16Zm.36,3.62a7.45,7.45,0,0,1,.74-3.35,5.35,5.35,0,0,1,2.07-2.3,5.8,5.8,0,0,1,3.07-.81,5.52,5.52,0,0,1,4.16,1.65,6.49,6.49,0,0,1,1.74,4.38v.67a7.5,7.5,0,0,1-.73,3.35,5.28,5.28,0,0,1-2.06,2.29,5.86,5.86,0,0,1-3.09.81,5.52,5.52,0,0,1-4.3-1.78,6.88,6.88,0,0,1-1.61-4.77Zm2.85.25a5.14,5.14,0,0,0,.81,3.07,2.63,2.63,0,0,0,2.25,1.1,2.59,2.59,0,0,0,2.24-1.12,5.61,5.61,0,0,0,.81-3.29,5,5,0,0,0-.83-3,2.77,2.77,0,0,0-4.45,0A5.51,5.51,0,0,0,104.36,690.79Zm17.51-3.87a7,7,0,0,0-1.16-.09,2.61,2.61,0,0,0-2.64,1.5V697h-2.85V684.32h2.72l.07,1.42a3.21,3.21,0,0,1,2.86-1.65,2.68,2.68,0,0,1,1,.16Z" transform="translate(-72.87 -53.75)"/><path d="M80,956.43H76.7V963h-3V945.94h6a7,7,0,0,1,4.56,1.32,4.68,4.68,0,0,1,1.61,3.83,4.8,4.8,0,0,1-.83,2.87,5.24,5.24,0,0,1-2.3,1.77l3.83,7.11V963H83.43ZM76.7,954h3a3.41,3.41,0,0,0,2.34-.75,2.65,2.65,0,0,0,.84-2.07,2.79,2.79,0,0,0-.79-2.12,3.29,3.29,0,0,0-2.32-.77H76.7Zm10.72,2.5a7.44,7.44,0,0,1,.74-3.35,5.34,5.34,0,0,1,2.07-2.3,5.8,5.8,0,0,1,3.07-.81,5.52,5.52,0,0,1,4.16,1.65,6.49,6.49,0,0,1,1.73,4.38v.67a7.5,7.5,0,0,1-.73,3.35,5.28,5.28,0,0,1-2.06,2.29,5.86,5.86,0,0,1-3.09.81,5.53,5.53,0,0,1-4.3-1.78,6.88,6.88,0,0,1-1.61-4.77Zm2.85.25a5.13,5.13,0,0,0,.81,3.07,2.63,2.63,0,0,0,2.25,1.1,2.59,2.59,0,0,0,2.24-1.12,5.61,5.61,0,0,0,.81-3.29,5,5,0,0,0-.83-3,2.77,2.77,0,0,0-4.45,0A5.51,5.51,0,0,0,90.27,956.79Zm18.55,5a4.42,4.42,0,0,1-3.56,1.48,4,4,0,0,1-3.13-1.21,5.15,5.15,0,0,1-1.06-3.49v-8.21h2.85v8.18q0,2.41,2,2.41a2.82,2.82,0,0,0,2.8-1.49v-9.11h2.85V963h-2.68Zm7.82-11.44.08,1.46a4.56,4.56,0,0,1,3.69-1.7q4,0,4,4.53V963H121.6v-8.22a2.57,2.57,0,0,0-.53-1.78,2.16,2.16,0,0,0-1.7-.59A2.75,2.75,0,0,0,116.8,954v9H114V950.32Zm9.7,6.25a7.51,7.51,0,0,1,1.36-4.7,4.35,4.35,0,0,1,3.64-1.78,4.14,4.14,0,0,1,3.26,1.41V945h2.85v18h-2.58l-.14-1.31a4.2,4.2,0,0,1-3.41,1.55,4.34,4.34,0,0,1-3.61-1.79A7.84,7.84,0,0,1,126.34,956.57Zm2.85.25a5.33,5.33,0,0,0,.74,3,2.43,2.43,0,0,0,2.12,1.08,2.69,2.69,0,0,0,2.55-1.56v-5.41a2.65,2.65,0,0,0-2.53-1.52,2.43,2.43,0,0,0-2.13,1.1A5.84,5.84,0,0,0,129.19,956.81Zm27.38,0a7.59,7.59,0,0,1-1.32,4.7,4.28,4.28,0,0,1-3.62,1.75,4.14,4.14,0,0,1-3.47-1.6L148,963h-2.58V945h2.85v6.54a4.12,4.12,0,0,1,3.32-1.45,4.34,4.34,0,0,1,3.64,1.72,7.74,7.74,0,0,1,1.32,4.82Zm-2.85-.25a5.39,5.39,0,0,0-.73-3.09,2.42,2.42,0,0,0-2.11-1,2.64,2.64,0,0,0-2.6,1.62v5.23a2.67,2.67,0,0,0,2.63,1.65,2.4,2.4,0,0,0,2.06-1,5.22,5.22,0,0,0,.75-3Zm12.44,5.21a4.42,4.42,0,0,1-3.56,1.48,4,4,0,0,1-3.13-1.21,5.15,5.15,0,0,1-1.05-3.49v-8.21h2.85v8.18q0,2.41,2,2.41a2.82,2.82,0,0,0,2.8-1.49v-9.11h2.85V963h-2.68Zm8.74-14.52v3.08h2.24v2.11h-2.24v7.08a1.61,1.61,0,0,0,.28,1.05,1.37,1.37,0,0,0,1,.32,4.39,4.39,0,0,0,1-.12V963a7,7,0,0,1-1.87.27q-3.28,0-3.28-3.62v-7.18H170v-2.11h2.08v-3.08Zm7.51,0v3.08h2.24v2.11h-2.24v7.08a1.6,1.6,0,0,0,.28,1.05,1.37,1.37,0,0,0,1,.32,4.39,4.39,0,0,0,1-.12V963a7,7,0,0,1-1.87.27q-3.28,0-3.28-3.62v-7.18h-2.09v-2.11h2.09v-3.08Zm3.06,9.31a7.43,7.43,0,0,1,.74-3.35,5.34,5.34,0,0,1,2.07-2.3,5.8,5.8,0,0,1,3.07-.81,5.52,5.52,0,0,1,4.16,1.65,6.48,6.48,0,0,1,1.74,4.38v.67a7.5,7.5,0,0,1-.73,3.35,5.28,5.28,0,0,1-2.06,2.29,5.85,5.85,0,0,1-3.09.81,5.53,5.53,0,0,1-4.3-1.78,6.88,6.88,0,0,1-1.61-4.77Zm2.85.25a5.14,5.14,0,0,0,.81,3.07,2.63,2.63,0,0,0,2.25,1.1,2.58,2.58,0,0,0,2.24-1.12,5.61,5.61,0,0,0,.81-3.29,5,5,0,0,0-.83-3,2.77,2.77,0,0,0-4.45,0A5.51,5.51,0,0,0,188.32,956.79Zm13.51-6.47.08,1.46a4.56,4.56,0,0,1,3.69-1.7q4,0,4,4.53V963h-2.85v-8.22a2.57,2.57,0,0,0-.53-1.78,2.16,2.16,0,0,0-1.7-.59A2.75,2.75,0,0,0,202,954v9h-2.85V950.32Z" transform="translate(-72.87 -53.75)"/><path d="M73.73,818V800.94h5a7.87,7.87,0,0,1,4,1,6.86,6.86,0,0,1,2.72,2.86,9.07,9.07,0,0,1,1,4.24v.85a9,9,0,0,1-1,4.27A6.74,6.74,0,0,1,82.73,817a8.24,8.24,0,0,1-4.09,1Zm3-14.67v12.3h1.93a4.45,4.45,0,0,0,3.57-1.45,6.36,6.36,0,0,0,1.28-4.2V809a6.52,6.52,0,0,0-1.21-4.24,4.28,4.28,0,0,0-3.5-1.47Zm17.54,14.91a5.92,5.92,0,0,1-4.39-1.7A6.22,6.22,0,0,1,88.17,812v-.35a7.62,7.62,0,0,1,.73-3.39A5.61,5.61,0,0,1,91,805.92a5.43,5.43,0,0,1,3-.83,5,5,0,0,1,4,1.65,7,7,0,0,1,1.42,4.68v1.15H91a3.82,3.82,0,0,0,1,2.48,3.17,3.17,0,0,0,2.32.91,3.86,3.86,0,0,0,3.19-1.58l1.54,1.46a5.16,5.16,0,0,1-2,1.77A6.38,6.38,0,0,1,94.24,818.23Zm-.34-10.86a2.42,2.42,0,0,0-1.9.82,4.28,4.28,0,0,0-.91,2.29h5.43v-.21a3.44,3.44,0,0,0-.76-2.16A2.37,2.37,0,0,0,93.9,807.37ZM102.07,818V807.43h-1.93v-2.11h1.93v-1.16a4.36,4.36,0,0,1,1.17-3.26,4.49,4.49,0,0,1,3.28-1.15,6.56,6.56,0,0,1,1.59.21l-.07,2.23a5.66,5.66,0,0,0-1.09-.09,1.83,1.83,0,0,0-2,2.1v1.13h2.58v2.11h-2.58V818Zm14.6,0a4.41,4.41,0,0,1-.33-1.18,4.43,4.43,0,0,1-3.33,1.42,4.48,4.48,0,0,1-3.12-1.09,3.49,3.49,0,0,1-1.21-2.7,3.59,3.59,0,0,1,1.5-3.1,7.29,7.29,0,0,1,4.31-1.09h1.75v-.83a2.2,2.2,0,0,0-.55-1.57,2.17,2.17,0,0,0-1.68-.6,2.49,2.49,0,0,0-1.59.49,1.49,1.49,0,0,0-.62,1.23H109a3.14,3.14,0,0,1,.69-1.95,4.59,4.59,0,0,1,1.88-1.43,6.64,6.64,0,0,1,2.66-.52,5.3,5.3,0,0,1,3.55,1.13,4,4,0,0,1,1.36,3.14v5.72a6.47,6.47,0,0,0,.48,2.73v.2Zm-3.13-2.05a3.21,3.21,0,0,0,1.58-.41,2.73,2.73,0,0,0,1.13-1.1V812h-1.53a4.19,4.19,0,0,0-2.38.55,1.78,1.78,0,0,0-.8,1.56,1.69,1.69,0,0,0,.54,1.31A2.15,2.15,0,0,0,113.54,815.95Zm15.74.81a4.42,4.42,0,0,1-3.56,1.48,4,4,0,0,1-3.13-1.21,5.15,5.15,0,0,1-1.06-3.49v-8.21h2.85v8.18q0,2.41,2,2.41a2.81,2.81,0,0,0,2.8-1.49v-9.11H132V818h-2.68Zm8.2,1.24h-2.85V800h2.85Zm6.2-15.76v3.08h2.24v2.11h-2.24v7.08a1.6,1.6,0,0,0,.28,1.05,1.37,1.37,0,0,0,1,.32,4.39,4.39,0,0,0,1-.12V818a7,7,0,0,1-1.87.27q-3.28,0-3.28-3.62v-7.18h-2.09v-2.11h2.09v-3.08Zm16,6.38h4.45v2.6h-4.45v5.07h-2.77v-5.07h-4.48v-2.6h4.48v-4.75h2.77ZM174.93,818h-3V800.94h3Zm8.1-2a2.57,2.57,0,0,0,1.77-.62,2.12,2.12,0,0,0,.75-1.54h2.68a4.22,4.22,0,0,1-.74,2.22,4.86,4.86,0,0,1-1.87,1.62,5.59,5.59,0,0,1-2.55.6,5.41,5.41,0,0,1-4.22-1.72,6.84,6.84,0,0,1-1.56-4.76v-.29a6.7,6.7,0,0,1,1.55-4.63,5.35,5.35,0,0,1,4.22-1.75,5.18,5.18,0,0,1,3.68,1.32,4.69,4.69,0,0,1,1.5,3.46h-2.68a2.59,2.59,0,0,0-.75-1.79,2.37,2.37,0,0,0-1.77-.7,2.5,2.5,0,0,0-2.13,1,5.09,5.09,0,0,0-.76,3v.46a5.26,5.26,0,0,0,.74,3.08A2.53,2.53,0,0,0,183,816Zm6.34-4.42a7.45,7.45,0,0,1,.74-3.35,5.35,5.35,0,0,1,2.07-2.3,5.8,5.8,0,0,1,3.07-.81,5.52,5.52,0,0,1,4.16,1.65,6.49,6.49,0,0,1,1.73,4.38v.67a7.49,7.49,0,0,1-.73,3.35,5.28,5.28,0,0,1-2.06,2.29,5.86,5.86,0,0,1-3.09.81,5.53,5.53,0,0,1-4.3-1.78,6.88,6.88,0,0,1-1.6-4.77Zm2.85.25a5.14,5.14,0,0,0,.81,3.07,2.63,2.63,0,0,0,2.25,1.1,2.58,2.58,0,0,0,2.24-1.12,5.61,5.61,0,0,0,.81-3.29,5,5,0,0,0-.83-3,2.77,2.77,0,0,0-4.45,0A5.51,5.51,0,0,0,192.22,811.79Zm13.51-6.47.08,1.46a4.56,4.56,0,0,1,3.69-1.7q4,0,4,4.53V818h-2.85v-8.22a2.56,2.56,0,0,0-.53-1.78,2.16,2.16,0,0,0-1.7-.59,2.74,2.74,0,0,0-2.57,1.56v9H203V805.32Z" transform="translate(-72.87 -53.75)"/><path d="M991,916h0a40,40,0,0,1,40,40h0a40,40,0,0,1-40,40h0a40,40,0,0,1-40-40h0A40,40,0,0,1,991,916Z" transform="translate(-72.87 -53.75)" style="fill:#ff6f59"/><path d="M976.4,954.15v4.46H988.2V971h4.66V958.62h11.81v-4.46H992.86V941.86H988.2v12.29Z" transform="translate(-72.87 -53.75)"/><path d="M991,916.5h0a39.5,39.5,0,0,1,39.5,39.5h0A39.5,39.5,0,0,1,991,995.5h0A39.5,39.5,0,0,1,951.5,956h0A39.5,39.5,0,0,1,991,916.5Z" transform="translate(-72.87 -53.75)" style="fill:none;stroke:#01100a"/><path d="M680,916h0a40,40,0,0,1,40,40h0a40,40,0,0,1-40,40h0a40,40,0,0,1-40-40h0A40,40,0,0,1,680,916Z" transform="translate(-72.87 -53.75)" style="fill:#ff6f59"/><path d="M666.4,954.15v4.46H678.2V971h4.66V958.62h11.81v-4.46H682.86V941.86H678.2v12.29Z" transform="translate(-72.87 -53.75)"/><path d="M680,916.5h0A39.5,39.5,0,0,1,719.5,956h0A39.5,39.5,0,0,1,680,995.5h0A39.5,39.5,0,0,1,640.5,956h0A39.5,39.5,0,0,1,680,916.5Z" transform="translate(-72.87 -53.75)" style="fill:none;stroke:#b43343"/><path d="M375,916h0a40,40,0,0,1,40,40h0a40,40,0,0,1-40,40h0a40,40,0,0,1-40-40h0A40,40,0,0,1,375,916Z" transform="translate(-72.87 -53.75)" style="fill:#ff6f59"/><path d="M360.4,957.15v4.46H372.2V974h4.66V961.62h11.81v-4.46H376.86V944.86H372.2v12.29Z" transform="translate(-72.87 -53.75)"/><path d="M283,655H468a35,35,0,0,1,35,35h0a35,35,0,0,1-35,35H283a35,35,0,0,1-35-35h0A35,35,0,0,1,283,655Z" transform="translate(-72.87 -53.75)" style="fill:#f0454e"/><path d="M362.11,690.38h-7v5.25h8.19V698H352.13V680.94h11.07v2.39H355.1V688h7Zm9.48-2.46a7,7,0,0,0-1.16-.09,2.61,2.61,0,0,0-2.64,1.5V698h-2.85V685.32h2.72l.07,1.42a3.21,3.21,0,0,1,2.86-1.65,2.67,2.67,0,0,1,1,.16Zm8,0a7,7,0,0,0-1.16-.09,2.61,2.61,0,0,0-2.64,1.5V698H372.9V685.32h2.72l.07,1.42a3.21,3.21,0,0,1,2.86-1.65,2.68,2.68,0,0,1,1,.16Zm.36,3.62a7.45,7.45,0,0,1,.74-3.35,5.35,5.35,0,0,1,2.07-2.3,5.8,5.8,0,0,1,3.07-.81,5.52,5.52,0,0,1,4.16,1.65,6.49,6.49,0,0,1,1.73,4.38v.67a7.49,7.49,0,0,1-.73,3.35,5.28,5.28,0,0,1-2.06,2.29,5.86,5.86,0,0,1-3.09.81,5.53,5.53,0,0,1-4.3-1.78,6.88,6.88,0,0,1-1.6-4.77Zm2.85.25a5.14,5.14,0,0,0,.81,3.07,2.63,2.63,0,0,0,2.25,1.1,2.58,2.58,0,0,0,2.24-1.12,5.61,5.61,0,0,0,.81-3.29,5,5,0,0,0-.83-3,2.77,2.77,0,0,0-4.45,0A5.51,5.51,0,0,0,382.75,691.79Zm17.51-3.87a7,7,0,0,0-1.16-.09,2.61,2.61,0,0,0-2.64,1.5V698h-2.85V685.32h2.72l.07,1.42a3.21,3.21,0,0,1,2.86-1.65,2.67,2.67,0,0,1,1,.16Z" transform="translate(-72.87 -53.75)"/><path d="M895,655h185a35,35,0,0,1,35,35h0a35,35,0,0,1-35,35H895a35,35,0,0,1-35-35h0A35,35,0,0,1,895,655Z" transform="translate(-72.87 -53.75)" style="fill:#f0454e"/><path d="M974.1,690.38h-7v5.25h8.19V698H964.13V680.94h11.07v2.39H967.1V688h7Zm9.48-2.46a7,7,0,0,0-1.16-.09,2.61,2.61,0,0,0-2.64,1.5V698h-2.85V685.32h2.72l.07,1.42a3.21,3.21,0,0,1,2.86-1.65,2.67,2.67,0,0,1,1,.16Zm8,0a7,7,0,0,0-1.16-.09,2.61,2.61,0,0,0-2.64,1.5V698H984.9V685.32h2.72l.07,1.42a3.21,3.21,0,0,1,2.86-1.65,2.68,2.68,0,0,1,1,.16Zm.36,3.62a7.45,7.45,0,0,1,.74-3.35,5.35,5.35,0,0,1,2.07-2.3,5.8,5.8,0,0,1,3.07-.81,5.52,5.52,0,0,1,4.16,1.65,6.46,6.46,0,0,1,1.73,4.38l0,.67a7.56,7.56,0,0,1-.73,3.35,5.29,5.29,0,0,1-2.06,2.29,5.87,5.87,0,0,1-3.1.81,5.53,5.53,0,0,1-4.3-1.78,6.88,6.88,0,0,1-1.61-4.77Zm2.85.25a5.14,5.14,0,0,0,.81,3.07,2.63,2.63,0,0,0,2.25,1.1,2.58,2.58,0,0,0,2.24-1.12,5.6,5.6,0,0,0,.81-3.29,5.05,5.05,0,0,0-.83-3,2.78,2.78,0,0,0-4.46,0A5.51,5.51,0,0,0,994.75,691.79Zm17.51-3.87a6.93,6.93,0,0,0-1.16-.09,2.6,2.6,0,0,0-2.63,1.5V698h-2.85V685.32h2.72l.07,1.42a3.2,3.2,0,0,1,2.86-1.65,2.63,2.63,0,0,1,1,.16Z" transform="translate(-72.87 -53.75)"/><path d="M895,655.5h185a34.5,34.5,0,0,1,34.5,34.5h0a34.5,34.5,0,0,1-34.5,34.5H895A34.5,34.5,0,0,1,860.5,690h0A34.5,34.5,0,0,1,895,655.5Z" transform="translate(-72.87 -53.75)" style="fill:none;stroke:#363636"/><path d="M588,655H773a35,35,0,0,1,35,35h0a35,35,0,0,1-35,35H588a35,35,0,0,1-35-35h0A35,35,0,0,1,588,655Z" transform="translate(-72.87 -53.75)" style="fill:#f0454e"/><path d="M667.1,690.38h-7v5.25h8.19V698H657.13V680.94h11.07v2.39H660.1V688h7Zm9.48-2.46a7,7,0,0,0-1.16-.09,2.61,2.61,0,0,0-2.64,1.5V698h-2.85V685.32h2.72l.07,1.42a3.21,3.21,0,0,1,2.86-1.65,2.67,2.67,0,0,1,1,.16Zm8,0a7,7,0,0,0-1.16-.09,2.61,2.61,0,0,0-2.64,1.5V698H677.9V685.32h2.72l.07,1.42a3.21,3.21,0,0,1,2.86-1.65,2.68,2.68,0,0,1,1,.16Zm.36,3.62a7.45,7.45,0,0,1,.74-3.35,5.35,5.35,0,0,1,2.07-2.3,5.8,5.8,0,0,1,3.07-.81,5.52,5.52,0,0,1,4.16,1.65,6.49,6.49,0,0,1,1.73,4.38v.67a7.49,7.49,0,0,1-.73,3.35,5.28,5.28,0,0,1-2.06,2.29,5.86,5.86,0,0,1-3.09.81,5.53,5.53,0,0,1-4.3-1.78,6.88,6.88,0,0,1-1.61-4.77Zm2.85.25a5.14,5.14,0,0,0,.81,3.07,2.63,2.63,0,0,0,2.25,1.1,2.58,2.58,0,0,0,2.24-1.12,5.61,5.61,0,0,0,.81-3.29,5,5,0,0,0-.83-3,2.77,2.77,0,0,0-4.45,0A5.51,5.51,0,0,0,687.75,691.79Zm17.51-3.87a7,7,0,0,0-1.16-.09,2.61,2.61,0,0,0-2.64,1.5V698h-2.85V685.32h2.72l.07,1.42a3.21,3.21,0,0,1,2.86-1.65,2.67,2.67,0,0,1,1,.16Z" transform="translate(-72.87 -53.75)"/><path d="M655.4,700.34H705.6v1.17H655.4Z" transform="translate(-72.87 -53.75)"/><path d="M938,521h105a35,35,0,0,1,35,35h0a35,35,0,0,1-35,35H938a35,35,0,0,1-35-35h0A35,35,0,0,1,938,521Z" transform="translate(-72.87 -53.75)" style="fill:#fff"/><path d="M971.8,559.6a2.05,2.05,0,0,0-.8-1.73,9.43,9.43,0,0,0-2.85-1.23,13.78,13.78,0,0,1-3.28-1.38,4.38,4.38,0,0,1-2.33-3.82,4.16,4.16,0,0,1,1.68-3.4,6.83,6.83,0,0,1,4.37-1.34,7.38,7.38,0,0,1,3.18.66,5.21,5.21,0,0,1,2.19,1.88,4.77,4.77,0,0,1,.8,2.68h-3a2.64,2.64,0,0,0-.84-2.09,3.42,3.42,0,0,0-2.39-.76,3.64,3.64,0,0,0-2.26.62,2.08,2.08,0,0,0-.8,1.74,1.89,1.89,0,0,0,.87,1.57,10.23,10.23,0,0,0,2.86,1.22,12.86,12.86,0,0,1,3.2,1.35,5,5,0,0,1,1.77,1.73,4.48,4.48,0,0,1,.56,2.28,4.07,4.07,0,0,1-1.64,3.4,7.09,7.09,0,0,1-4.43,1.25,8.44,8.44,0,0,1-3.41-.68,5.81,5.81,0,0,1-2.41-1.9,4.74,4.74,0,0,1-.86-2.81h3a2.76,2.76,0,0,0,1,2.25,4.21,4.21,0,0,0,2.75.8,3.66,3.66,0,0,0,2.32-.62A2,2,0,0,0,971.8,559.6Zm7.49-8.28.08,1.33a4.56,4.56,0,0,1,3.66-1.56A3.5,3.5,0,0,1,986.5,553a4.5,4.5,0,0,1,3.89-1.95,3.94,3.94,0,0,1,3.12,1.16,5.09,5.09,0,0,1,1.05,3.42V564h-2.85v-8.25a2.53,2.53,0,0,0-.53-1.77,2.31,2.31,0,0,0-1.75-.56,2.38,2.38,0,0,0-1.59.53,2.73,2.73,0,0,0-.86,1.36V564h-2.85v-8.34a2,2,0,0,0-2.28-2.24,2.51,2.51,0,0,0-2.43,1.39V564H976.6V551.32ZM1004.59,564a4.08,4.08,0,0,1-.33-1.18,4.79,4.79,0,0,1-6.45.33,3.49,3.49,0,0,1-1.21-2.7,3.59,3.59,0,0,1,1.5-3.1,7.3,7.3,0,0,1,4.32-1.09h1.74v-.83a2.19,2.19,0,0,0-.55-1.57,2.15,2.15,0,0,0-1.67-.6,2.52,2.52,0,0,0-1.6.49,1.5,1.5,0,0,0-.62,1.23h-2.85a3.14,3.14,0,0,1,.69-1.95,4.59,4.59,0,0,1,1.88-1.43,6.63,6.63,0,0,1,2.66-.52,5.28,5.28,0,0,1,3.55,1.13,3.94,3.94,0,0,1,1.36,3.14v5.72a6.49,6.49,0,0,0,.48,2.73v.2Zm-3.13-2.05a3.2,3.2,0,0,0,1.58-.41,2.72,2.72,0,0,0,1.12-1.1V558h-1.53a4.18,4.18,0,0,0-2.38.55,1.78,1.78,0,0,0-.8,1.56,1.69,1.69,0,0,0,.54,1.31A2.16,2.16,0,0,0,1001.46,561.95Zm11.08,2.05h-2.84V546h2.84Zm5.66,0h-2.84V546h2.84Z" transform="translate(-72.87 -53.75)"/><path d="M938,521.5h105a34.5,34.5,0,0,1,34.5,34.5h0a34.5,34.5,0,0,1-34.5,34.5H938A34.5,34.5,0,0,1,903.5,556h0A34.5,34.5,0,0,1,938,521.5Z" transform="translate(-72.87 -53.75)" style="fill:none;stroke:#05623a"/><path d="M632,521H737a35,35,0,0,1,35,35h0a35,35,0,0,1-35,35H632a35,35,0,0,1-35-35h0A35,35,0,0,1,632,521Z" transform="translate(-72.87 -53.75)" style="fill:#fff"/><path d="M665.8,559.6a2.05,2.05,0,0,0-.8-1.73,9.43,9.43,0,0,0-2.85-1.23,13.78,13.78,0,0,1-3.28-1.38,4.38,4.38,0,0,1-2.33-3.82,4.16,4.16,0,0,1,1.68-3.4,6.83,6.83,0,0,1,4.37-1.34,7.38,7.38,0,0,1,3.18.66,5.21,5.21,0,0,1,2.19,1.88,4.77,4.77,0,0,1,.8,2.68h-3a2.64,2.64,0,0,0-.84-2.09,3.42,3.42,0,0,0-2.39-.76,3.64,3.64,0,0,0-2.26.62,2.08,2.08,0,0,0-.8,1.74,1.89,1.89,0,0,0,.87,1.57,10.23,10.23,0,0,0,2.86,1.22,12.86,12.86,0,0,1,3.2,1.35,5,5,0,0,1,1.77,1.73,4.48,4.48,0,0,1,.56,2.28,4.07,4.07,0,0,1-1.64,3.4,7.09,7.09,0,0,1-4.43,1.25,8.44,8.44,0,0,1-3.41-.68,5.81,5.81,0,0,1-2.41-1.9,4.74,4.74,0,0,1-.86-2.81h3a2.76,2.76,0,0,0,1,2.25,4.21,4.21,0,0,0,2.75.8,3.66,3.66,0,0,0,2.32-.62A2,2,0,0,0,665.8,559.6Zm7.49-8.28.08,1.33a4.56,4.56,0,0,1,3.66-1.56A3.5,3.5,0,0,1,680.5,553a4.5,4.5,0,0,1,3.89-1.95,3.94,3.94,0,0,1,3.12,1.16,5.09,5.09,0,0,1,1.05,3.42V564h-2.85v-8.25a2.53,2.53,0,0,0-.53-1.77,2.31,2.31,0,0,0-1.75-.56,2.38,2.38,0,0,0-1.59.53,2.73,2.73,0,0,0-.86,1.36V564h-2.85v-8.34a2,2,0,0,0-2.28-2.24,2.51,2.51,0,0,0-2.43,1.39V564H670.6V551.32ZM698.59,564a4.41,4.41,0,0,1-.33-1.18,4.43,4.43,0,0,1-3.33,1.42,4.48,4.48,0,0,1-3.12-1.09,3.49,3.49,0,0,1-1.21-2.7,3.59,3.59,0,0,1,1.5-3.1,7.3,7.3,0,0,1,4.31-1.09h1.75v-.83a2.2,2.2,0,0,0-.55-1.57,2.17,2.17,0,0,0-1.67-.6,2.49,2.49,0,0,0-1.59.49,1.49,1.49,0,0,0-.62,1.23h-2.85a3.14,3.14,0,0,1,.69-1.95,4.59,4.59,0,0,1,1.88-1.43,6.65,6.65,0,0,1,2.66-.52,5.3,5.3,0,0,1,3.55,1.13,4,4,0,0,1,1.36,3.14v5.72a6.49,6.49,0,0,0,.48,2.73v.2Zm-3.13-2.05a3.21,3.21,0,0,0,1.58-.41,2.73,2.73,0,0,0,1.13-1.1V558h-1.53a4.19,4.19,0,0,0-2.38.55,1.78,1.78,0,0,0-.8,1.56,1.69,1.69,0,0,0,.54,1.31A2.15,2.15,0,0,0,695.46,561.95ZM706.54,564H703.7V546h2.85Zm5.66,0h-2.85V546h2.85Z" transform="translate(-72.87 -53.75)"/><path d="M655.14,566.34h58.7v1.17h-58.7Z" transform="translate(-72.87 -53.75)"/><path d="M632,521.5H737A34.5,34.5,0,0,1,771.5,556h0A34.5,34.5,0,0,1,737,590.5H632A34.5,34.5,0,0,1,597.5,556h0A34.5,34.5,0,0,1,632,521.5Z" transform="translate(-72.87 -53.75)" style="fill:none;stroke:#363636"/><path d="M323,521H428a35,35,0,0,1,35,35h0a35,35,0,0,1-35,35H323a35,35,0,0,1-35-35h0A35,35,0,0,1,323,521Z" transform="translate(-72.87 -53.75)" style="fill:#fff"/><path d="M356.8,559.6a2.05,2.05,0,0,0-.8-1.73,9.43,9.43,0,0,0-2.85-1.23,13.78,13.78,0,0,1-3.28-1.38,4.38,4.38,0,0,1-2.33-3.82,4.16,4.16,0,0,1,1.68-3.4,6.83,6.83,0,0,1,4.37-1.34,7.38,7.38,0,0,1,3.18.66,5.21,5.21,0,0,1,2.19,1.88,4.77,4.77,0,0,1,.8,2.68h-3a2.64,2.64,0,0,0-.84-2.09,3.42,3.42,0,0,0-2.39-.76,3.64,3.64,0,0,0-2.26.62,2.08,2.08,0,0,0-.8,1.74,1.89,1.89,0,0,0,.87,1.57,10.23,10.23,0,0,0,2.86,1.22,12.86,12.86,0,0,1,3.2,1.35,5,5,0,0,1,1.77,1.73,4.48,4.48,0,0,1,.56,2.28,4.07,4.07,0,0,1-1.64,3.4,7.09,7.09,0,0,1-4.43,1.25,8.44,8.44,0,0,1-3.41-.68,5.81,5.81,0,0,1-2.41-1.9,4.74,4.74,0,0,1-.86-2.81h3a2.76,2.76,0,0,0,1,2.25,4.21,4.21,0,0,0,2.75.8,3.66,3.66,0,0,0,2.32-.62A2,2,0,0,0,356.8,559.6Zm7.49-8.28.08,1.33a4.56,4.56,0,0,1,3.66-1.56A3.5,3.5,0,0,1,371.5,553a4.5,4.5,0,0,1,3.89-1.95,3.94,3.94,0,0,1,3.12,1.16,5.09,5.09,0,0,1,1.06,3.42V564h-2.85v-8.25a2.53,2.53,0,0,0-.53-1.77,2.31,2.31,0,0,0-1.75-.56,2.38,2.38,0,0,0-1.59.53,2.73,2.73,0,0,0-.86,1.36V564h-2.85v-8.34a2,2,0,0,0-2.29-2.24,2.51,2.51,0,0,0-2.43,1.39V564H361.6V551.32ZM389.59,564a4.41,4.41,0,0,1-.33-1.18,4.43,4.43,0,0,1-3.33,1.42,4.48,4.48,0,0,1-3.12-1.09,3.49,3.49,0,0,1-1.21-2.7,3.59,3.59,0,0,1,1.5-3.1,7.3,7.3,0,0,1,4.31-1.09h1.75v-.83a2.2,2.2,0,0,0-.55-1.57,2.17,2.17,0,0,0-1.68-.6,2.49,2.49,0,0,0-1.59.49,1.49,1.49,0,0,0-.62,1.23h-2.85a3.14,3.14,0,0,1,.69-1.95,4.59,4.59,0,0,1,1.88-1.43,6.65,6.65,0,0,1,2.66-.52,5.3,5.3,0,0,1,3.55,1.13,4,4,0,0,1,1.36,3.14v5.72a6.49,6.49,0,0,0,.48,2.73v.2Zm-3.13-2.05a3.21,3.21,0,0,0,1.58-.41,2.73,2.73,0,0,0,1.13-1.1V558h-1.54a4.19,4.19,0,0,0-2.38.55,1.78,1.78,0,0,0-.8,1.56,1.69,1.69,0,0,0,.54,1.31A2.15,2.15,0,0,0,386.46,561.95ZM397.54,564H394.7V546h2.85Zm5.66,0h-2.85V546h2.85Z" transform="translate(-72.87 -53.75)"/><path d="M323,521.5H428A34.5,34.5,0,0,1,462.5,556h0A34.5,34.5,0,0,1,428,590.5H323A34.5,34.5,0,0,1,288.5,556h0A34.5,34.5,0,0,1,323,521.5Z" transform="translate(-72.87 -53.75)" style="fill:none;stroke:#363636"/><path d="M910,380h155a50,50,0,0,1,50,50h0a50,50,0,0,1-50,50H910a50,50,0,0,1-50-50h0A50,50,0,0,1,910,380Z" transform="translate(-72.87 -53.75)" style="fill:#fff"/><path d="M962.82,421.63h7.75V424H959.85V406.94h3ZM979.66,424a4.37,4.37,0,0,1-.33-1.18,4.79,4.79,0,0,1-6.45.33,3.49,3.49,0,0,1-1.21-2.7,3.59,3.59,0,0,1,1.5-3.11,7.3,7.3,0,0,1,4.31-1.09h1.75v-.83a2.2,2.2,0,0,0-.55-1.57,2.17,2.17,0,0,0-1.68-.6,2.49,2.49,0,0,0-1.59.49,1.49,1.49,0,0,0-.62,1.23h-2.85a3.14,3.14,0,0,1,.69-1.95,4.59,4.59,0,0,1,1.88-1.43,6.65,6.65,0,0,1,2.66-.52,5.3,5.3,0,0,1,3.55,1.13,4,4,0,0,1,1.36,3.14v5.72a6.49,6.49,0,0,0,.48,2.73v.2Zm-3.13-2.05a3.21,3.21,0,0,0,1.58-.41,2.73,2.73,0,0,0,1.13-1.1V418H977.7a4.19,4.19,0,0,0-2.38.55,1.78,1.78,0,0,0-.8,1.56,1.69,1.69,0,0,0,.54,1.31A2.15,2.15,0,0,0,976.53,421.95Zm14.7-8a7,7,0,0,0-1.16-.09,2.61,2.61,0,0,0-2.64,1.5V424h-2.85V411.32h2.72l.07,1.42a3.21,3.21,0,0,1,2.86-1.65,2.67,2.67,0,0,1,1,.16Zm.59,3.64a7.41,7.41,0,0,1,1.38-4.71,4.47,4.47,0,0,1,3.69-1.77,4.18,4.18,0,0,1,3.41,1.51l.13-1.28H1003v12.29a5.1,5.1,0,0,1-1.56,3.94,5.88,5.88,0,0,1-4.18,1.44,6.73,6.73,0,0,1-2.73-.59,4.8,4.8,0,0,1-2-1.51l1.35-1.71a4.07,4.07,0,0,0,3.23,1.56,3.13,3.13,0,0,0,2.24-.77,2.92,2.92,0,0,0,.83-2.25v-.86a4.21,4.21,0,0,1-3.29,1.37,4.46,4.46,0,0,1-3.65-1.77A7.68,7.68,0,0,1,991.81,417.57Zm2.84.25a5.17,5.17,0,0,0,.77,3,2.52,2.52,0,0,0,2.17,1.09,2.75,2.75,0,0,0,2.56-1.48v-5.58a2.71,2.71,0,0,0-2.54-1.44,2.53,2.53,0,0,0-2.19,1.11A5.75,5.75,0,0,0,994.65,417.81Zm16.38,6.42a5.91,5.91,0,0,1-4.39-1.7A6.21,6.21,0,0,1,1005,418v-.35a7.55,7.55,0,0,1,.73-3.39,5.61,5.61,0,0,1,2.06-2.33,5.43,5.43,0,0,1,3-.83,5,5,0,0,1,4,1.65,6.94,6.94,0,0,1,1.42,4.68v1.15h-8.29a3.85,3.85,0,0,0,1,2.48,3.16,3.16,0,0,0,2.32.91,3.85,3.85,0,0,0,3.18-1.58l1.54,1.46a5.19,5.19,0,0,1-2,1.77A6.36,6.36,0,0,1,1011,424.23Zm-.34-10.86a2.43,2.43,0,0,0-1.9.82,4.31,4.31,0,0,0-.91,2.29h5.43v-.21a3.45,3.45,0,0,0-.77-2.16A2.36,2.36,0,0,0,1010.69,413.37Zm-58.52,32.2a7.51,7.51,0,0,1,1.36-4.7,4.35,4.35,0,0,1,3.64-1.78,4.14,4.14,0,0,1,3.26,1.41V434h2.85v18H960.7l-.14-1.31a4.2,4.2,0,0,1-3.41,1.55,4.35,4.35,0,0,1-3.61-1.79A7.84,7.84,0,0,1,952.17,445.57Zm2.85.25a5.34,5.34,0,0,0,.74,3,2.43,2.43,0,0,0,2.12,1.08,2.69,2.69,0,0,0,2.55-1.56v-5.41a2.65,2.65,0,0,0-2.53-1.52,2.43,2.43,0,0,0-2.13,1.1A5.84,5.84,0,0,0,955,445.81Zm16.34,6.42a5.92,5.92,0,0,1-4.4-1.7,6.22,6.22,0,0,1-1.68-4.55v-.35a7.61,7.61,0,0,1,.73-3.39,5.61,5.61,0,0,1,2.06-2.33,5.44,5.44,0,0,1,3-.83,5,5,0,0,1,4,1.65,7,7,0,0,1,1.42,4.68v1.15h-8.29a3.83,3.83,0,0,0,1,2.48,3.17,3.17,0,0,0,2.32.91,3.85,3.85,0,0,0,3.19-1.58l1.53,1.46a5.15,5.15,0,0,1-2,1.77A6.38,6.38,0,0,1,971.35,452.23ZM971,441.37a2.42,2.42,0,0,0-1.9.82,4.29,4.29,0,0,0-.91,2.29h5.43v-.21a3.43,3.43,0,0,0-.76-2.16A2.37,2.37,0,0,0,971,441.37ZM979.18,452V441.43h-1.93v-2.11h1.93v-1.16a4.36,4.36,0,0,1,1.17-3.26,4.49,4.49,0,0,1,3.28-1.15,6.56,6.56,0,0,1,1.59.21l-.07,2.23a5.66,5.66,0,0,0-1.09-.09,1.83,1.83,0,0,0-2,2.1v1.13h2.58v2.11H982V452Zm14.6,0a1.85,1.85,0,1,0-3.66.23,4.47,4.47,0,0,1-3.12-1.09,3.49,3.49,0,0,1-1.21-2.7,3.59,3.59,0,0,1,1.5-3.11,7.29,7.29,0,0,1,4.31-1.09h1.75v-.83a2.2,2.2,0,0,0-.55-1.57,2.17,2.17,0,0,0-1.68-.6,2.49,2.49,0,0,0-1.59.49,1.49,1.49,0,0,0-.62,1.23h-2.85a3.14,3.14,0,0,1,.69-1.95,4.59,4.59,0,0,1,1.88-1.43,6.64,6.64,0,0,1,2.66-.52,5.3,5.3,0,0,1,3.55,1.13,4,4,0,0,1,1.36,3.14v5.72a6.47,6.47,0,0,0,.48,2.73v.2Zm-3.13-2.05a3.21,3.21,0,0,0,1.58-.41,2.73,2.73,0,0,0,1.13-1.1V446h-1.54a4.19,4.19,0,0,0-2.38.55,1.78,1.78,0,0,0-.8,1.56,1.69,1.69,0,0,0,.54,1.31A2.15,2.15,0,0,0,990.65,449.95Zm15.74.81a4.4,4.4,0,0,1-3.56,1.48A4,4,0,0,1,999.7,451a5.15,5.15,0,0,1-1.05-3.49v-8.21h2.84v8.18q0,2.41,2,2.41a2.82,2.82,0,0,0,2.8-1.49v-9.11h2.85V452h-2.69Zm8.2,1.24h-2.84V434h2.84Zm6.2-15.76v3.08H1023v2.11h-2.24v7.08a1.59,1.59,0,0,0,.29,1.05,1.34,1.34,0,0,0,1,.32,4.36,4.36,0,0,0,1-.12V452a7,7,0,0,1-1.87.27q-3.29,0-3.28-3.62v-7.18h-2.09v-2.11H1018v-3.08Z" transform="translate(-72.87 -53.75)"/><path d="M910,380.5h155a49.5,49.5,0,0,1,49.5,49.5h0a49.5,49.5,0,0,1-49.5,49.5H910A49.5,49.5,0,0,1,860.5,430h0A49.5,49.5,0,0,1,910,380.5Z" transform="translate(-72.87 -53.75)" style="fill:none;stroke:#05623a"/><path d="M603,380H758a50,50,0,0,1,50,50h0a50,50,0,0,1-50,50H603a50,50,0,0,1-50-50h0A50,50,0,0,1,603,380Z" transform="translate(-72.87 -53.75)" style="fill:#fff"/><path d="M655.82,421.63h7.75V424H652.85V406.94h3ZM672.66,424a4.37,4.37,0,0,1-.33-1.18,4.79,4.79,0,0,1-6.45.33,3.49,3.49,0,0,1-1.21-2.7,3.59,3.59,0,0,1,1.5-3.11,7.3,7.3,0,0,1,4.31-1.09h1.75v-.83a2.2,2.2,0,0,0-.55-1.57,2.17,2.17,0,0,0-1.68-.6,2.49,2.49,0,0,0-1.59.49,1.49,1.49,0,0,0-.62,1.23h-2.85a3.14,3.14,0,0,1,.69-1.95,4.59,4.59,0,0,1,1.88-1.43,6.65,6.65,0,0,1,2.66-.52,5.3,5.3,0,0,1,3.55,1.13,4,4,0,0,1,1.36,3.14v5.72a6.49,6.49,0,0,0,.48,2.73v.2Zm-3.13-2.05a3.21,3.21,0,0,0,1.58-.41,2.73,2.73,0,0,0,1.13-1.1V418H670.7a4.19,4.19,0,0,0-2.38.55,1.78,1.78,0,0,0-.8,1.56,1.69,1.69,0,0,0,.54,1.31A2.15,2.15,0,0,0,669.53,421.95Zm14.7-8a7,7,0,0,0-1.16-.09,2.61,2.61,0,0,0-2.64,1.5V424h-2.85V411.32h2.72l.07,1.42a3.21,3.21,0,0,1,2.86-1.65,2.67,2.67,0,0,1,1,.16Zm.59,3.64a7.41,7.41,0,0,1,1.38-4.71,4.47,4.47,0,0,1,3.69-1.77,4.17,4.17,0,0,1,3.41,1.51l.13-1.28H696v12.29a5.1,5.1,0,0,1-1.56,3.94,5.89,5.89,0,0,1-4.18,1.44,6.73,6.73,0,0,1-2.73-.59,4.8,4.8,0,0,1-2-1.51l1.35-1.71a4.07,4.07,0,0,0,3.23,1.56,3.13,3.13,0,0,0,2.24-.77,2.92,2.92,0,0,0,.82-2.25v-.86a4.19,4.19,0,0,1-3.28,1.37,4.46,4.46,0,0,1-3.65-1.77A7.68,7.68,0,0,1,684.81,417.57Zm2.84.25a5.17,5.17,0,0,0,.77,3,2.52,2.52,0,0,0,2.17,1.09,2.74,2.74,0,0,0,2.55-1.48v-5.58a2.7,2.7,0,0,0-2.53-1.44,2.53,2.53,0,0,0-2.19,1.11A5.75,5.75,0,0,0,687.65,417.81ZM704,424.23a5.92,5.92,0,0,1-4.39-1.7A6.21,6.21,0,0,1,698,418v-.35a7.63,7.63,0,0,1,.73-3.39,5.61,5.61,0,0,1,2.06-2.33,5.43,5.43,0,0,1,3-.83,5,5,0,0,1,4,1.65,7,7,0,0,1,1.42,4.68v1.15h-8.28a3.83,3.83,0,0,0,1,2.48,3.17,3.17,0,0,0,2.32.91,3.86,3.86,0,0,0,3.19-1.58l1.54,1.46a5.16,5.16,0,0,1-2,1.77A6.38,6.38,0,0,1,704,424.23Zm-.34-10.86a2.42,2.42,0,0,0-1.9.82,4.28,4.28,0,0,0-.91,2.29h5.43v-.21a3.44,3.44,0,0,0-.76-2.16A2.37,2.37,0,0,0,703.69,413.37ZM655.8,440.7a4.46,4.46,0,0,1,3.53-1.62q4.05,0,4.11,4.63V452h-2.85v-8.18A2.47,2.47,0,0,0,660,442a2.29,2.29,0,0,0-1.66-.55,2.74,2.74,0,0,0-2.55,1.52V452h-2.85V434h2.85Zm9.52,4.84a7.45,7.45,0,0,1,.74-3.35,5.34,5.34,0,0,1,2.08-2.3,5.8,5.8,0,0,1,3.07-.81,5.52,5.52,0,0,1,4.16,1.65,6.49,6.49,0,0,1,1.73,4.38v.67a7.5,7.5,0,0,1-.73,3.35,5.29,5.29,0,0,1-2.06,2.29,5.86,5.86,0,0,1-3.09.81,5.53,5.53,0,0,1-4.3-1.78,6.88,6.88,0,0,1-1.6-4.77Zm2.85.25a5.14,5.14,0,0,0,.81,3.07,2.63,2.63,0,0,0,2.25,1.1,2.59,2.59,0,0,0,2.24-1.12,5.61,5.61,0,0,0,.81-3.29,5,5,0,0,0-.83-3,2.77,2.77,0,0,0-4.45,0A5.51,5.51,0,0,0,668.16,445.79Zm15.15,2.6,2.68-9.07h2.94L684.54,452h-2.47l-4.43-12.68h3Zm12.35,3.84a5.92,5.92,0,0,1-4.39-1.7,6.22,6.22,0,0,1-1.68-4.55v-.35a7.61,7.61,0,0,1,.73-3.39,5.6,5.6,0,0,1,2.06-2.33,5.43,5.43,0,0,1,3-.83,5,5,0,0,1,4,1.65,7,7,0,0,1,1.42,4.68v1.15h-8.28a3.83,3.83,0,0,0,1,2.48,3.17,3.17,0,0,0,2.32.91,3.85,3.85,0,0,0,3.19-1.58l1.54,1.46a5.16,5.16,0,0,1-2,1.77A6.38,6.38,0,0,1,695.66,452.23Zm-.34-10.86a2.42,2.42,0,0,0-1.9.82,4.29,4.29,0,0,0-.91,2.29h5.43v-.21a3.43,3.43,0,0,0-.76-2.16A2.37,2.37,0,0,0,695.33,441.37Zm13.8.55a7,7,0,0,0-1.16-.09,2.61,2.61,0,0,0-2.64,1.5V452h-2.85V439.32h2.72l.07,1.42a3.21,3.21,0,0,1,2.86-1.65,2.68,2.68,0,0,1,1,.16Z" transform="translate(-72.87 -53.75)"/><path d="M651.12,426.34h58.75v1.17H651.12Zm.41,28h57.94v1.17H651.53Z" transform="translate(-72.87 -53.75)"/><path d="M603,380.5H758A49.5,49.5,0,0,1,807.5,430h0A49.5,49.5,0,0,1,758,479.5H603A49.5,49.5,0,0,1,553.5,430h0A49.5,49.5,0,0,1,603,380.5Z" transform="translate(-72.87 -53.75)" style="fill:none;stroke:#363636"/><path d="M298,380H453a50,50,0,0,1,50,50h0a50,50,0,0,1-50,50H298a50,50,0,0,1-50-50h0A50,50,0,0,1,298,380Z" transform="translate(-72.87 -53.75)" style="fill:#fff"/><path d="M350.82,421.63h7.75V424H347.86V406.94h3ZM367.66,424a4.37,4.37,0,0,1-.33-1.18,4.79,4.79,0,0,1-6.45.33,3.49,3.49,0,0,1-1.21-2.7,3.59,3.59,0,0,1,1.5-3.11,7.3,7.3,0,0,1,4.31-1.09h1.75v-.83a2.2,2.2,0,0,0-.55-1.57,2.17,2.17,0,0,0-1.68-.6,2.49,2.49,0,0,0-1.59.49,1.49,1.49,0,0,0-.62,1.23h-2.85a3.14,3.14,0,0,1,.69-1.95,4.59,4.59,0,0,1,1.88-1.43,6.65,6.65,0,0,1,2.66-.52,5.3,5.3,0,0,1,3.55,1.13,4,4,0,0,1,1.36,3.14v5.72a6.49,6.49,0,0,0,.48,2.73v.2Zm-3.13-2.05a3.21,3.21,0,0,0,1.58-.41,2.73,2.73,0,0,0,1.13-1.1V418H365.7a4.19,4.19,0,0,0-2.38.55,1.78,1.78,0,0,0-.8,1.56,1.69,1.69,0,0,0,.54,1.31A2.15,2.15,0,0,0,364.53,421.95Zm14.7-8a7,7,0,0,0-1.16-.09,2.61,2.61,0,0,0-2.64,1.5V424h-2.85V411.32h2.72l.07,1.42a3.21,3.21,0,0,1,2.86-1.65,2.67,2.67,0,0,1,1,.16Zm.59,3.64a7.41,7.41,0,0,1,1.38-4.71,4.47,4.47,0,0,1,3.69-1.77,4.17,4.17,0,0,1,3.41,1.51l.13-1.28H391v12.29a5.1,5.1,0,0,1-1.56,3.94,5.89,5.89,0,0,1-4.18,1.44,6.73,6.73,0,0,1-2.73-.59,4.8,4.8,0,0,1-2-1.51l1.35-1.71a4.07,4.07,0,0,0,3.23,1.56,3.13,3.13,0,0,0,2.24-.77,2.92,2.92,0,0,0,.82-2.25v-.86a4.19,4.19,0,0,1-3.28,1.37,4.46,4.46,0,0,1-3.65-1.77A7.68,7.68,0,0,1,379.81,417.57Zm2.84.25a5.17,5.17,0,0,0,.77,3,2.52,2.52,0,0,0,2.17,1.09,2.74,2.74,0,0,0,2.55-1.48v-5.58a2.7,2.7,0,0,0-2.53-1.44,2.53,2.53,0,0,0-2.19,1.11A5.75,5.75,0,0,0,382.65,417.81ZM399,424.23a5.92,5.92,0,0,1-4.39-1.7A6.21,6.21,0,0,1,393,418v-.35a7.63,7.63,0,0,1,.73-3.39,5.61,5.61,0,0,1,2.06-2.33,5.43,5.43,0,0,1,3-.83,5,5,0,0,1,4,1.65,7,7,0,0,1,1.42,4.68v1.15h-8.29a3.83,3.83,0,0,0,1,2.48,3.17,3.17,0,0,0,2.32.91,3.86,3.86,0,0,0,3.19-1.58l1.54,1.46a5.16,5.16,0,0,1-2,1.77A6.38,6.38,0,0,1,399,424.23Zm-.34-10.86a2.42,2.42,0,0,0-1.9.82,4.28,4.28,0,0,0-.91,2.29h5.43v-.21a3.44,3.44,0,0,0-.76-2.16A2.37,2.37,0,0,0,398.69,413.37Zm-58.52,32.2a7.51,7.51,0,0,1,1.36-4.7,4.35,4.35,0,0,1,3.64-1.78,4.14,4.14,0,0,1,3.26,1.41V434h2.85v18H348.7l-.14-1.31a4.2,4.2,0,0,1-3.41,1.55,4.35,4.35,0,0,1-3.61-1.79A7.84,7.84,0,0,1,340.17,445.57Zm2.85.25a5.34,5.34,0,0,0,.74,3,2.43,2.43,0,0,0,2.12,1.08,2.69,2.69,0,0,0,2.55-1.56v-5.41a2.65,2.65,0,0,0-2.53-1.52,2.43,2.43,0,0,0-2.13,1.1A5.84,5.84,0,0,0,343,445.81Zm16.34,6.42a5.92,5.92,0,0,1-4.4-1.7,6.22,6.22,0,0,1-1.68-4.55v-.35a7.61,7.61,0,0,1,.73-3.39,5.61,5.61,0,0,1,2.06-2.33,5.44,5.44,0,0,1,3-.83,5,5,0,0,1,4,1.65,7,7,0,0,1,1.42,4.68v1.15h-8.29a3.83,3.83,0,0,0,1,2.48,3.17,3.17,0,0,0,2.32.91,3.85,3.85,0,0,0,3.19-1.58l1.54,1.46a5.15,5.15,0,0,1-2,1.77A6.38,6.38,0,0,1,359.35,452.23ZM359,441.37a2.42,2.42,0,0,0-1.9.82,4.29,4.29,0,0,0-.91,2.29h5.43v-.21a3.43,3.43,0,0,0-.76-2.16A2.37,2.37,0,0,0,359,441.37ZM367.18,452V441.43h-1.93v-2.11h1.93v-1.16a4.36,4.36,0,0,1,1.17-3.26,4.49,4.49,0,0,1,3.28-1.15,6.56,6.56,0,0,1,1.59.21l-.07,2.23a5.66,5.66,0,0,0-1.09-.09,1.83,1.83,0,0,0-2,2.1v1.13h2.58v2.11H370V452Zm14.6,0a4.41,4.41,0,0,1-.33-1.18,4.43,4.43,0,0,1-3.33,1.42,4.47,4.47,0,0,1-3.12-1.09,3.49,3.49,0,0,1-1.21-2.7,3.59,3.59,0,0,1,1.5-3.11,7.29,7.29,0,0,1,4.31-1.09h1.75v-.83a2.2,2.2,0,0,0-.55-1.57,2.17,2.17,0,0,0-1.68-.6,2.49,2.49,0,0,0-1.59.49,1.49,1.49,0,0,0-.62,1.23h-2.85a3.14,3.14,0,0,1,.69-1.95,4.59,4.59,0,0,1,1.88-1.43,6.64,6.64,0,0,1,2.66-.52,5.3,5.3,0,0,1,3.55,1.13,4,4,0,0,1,1.36,3.14v5.72a6.47,6.47,0,0,0,.48,2.73v.2Zm-3.13-2.05a3.21,3.21,0,0,0,1.58-.41,2.73,2.73,0,0,0,1.13-1.1V446h-1.54a4.19,4.19,0,0,0-2.38.55,1.78,1.78,0,0,0-.8,1.56,1.69,1.69,0,0,0,.54,1.31A2.15,2.15,0,0,0,378.65,449.95Zm15.74.81a4.42,4.42,0,0,1-3.56,1.48A4,4,0,0,1,387.7,451a5.15,5.15,0,0,1-1.06-3.49v-8.21h2.85v8.18q0,2.41,2,2.41a2.81,2.81,0,0,0,2.8-1.49v-9.11h2.85V452h-2.68Zm8.2,1.24h-2.85V434h2.85Zm6.2-15.76v3.08H411v2.11h-2.24v7.08a1.6,1.6,0,0,0,.28,1.05,1.37,1.37,0,0,0,1,.32,4.39,4.39,0,0,0,1-.12V452a7,7,0,0,1-1.87.27q-3.28,0-3.28-3.62v-7.18h-2.09v-2.11h2.09v-3.08Z" transform="translate(-72.87 -53.75)"/><path d="M298,380.5H453A49.5,49.5,0,0,1,502.5,430h0A49.5,49.5,0,0,1,453,479.5H298A49.5,49.5,0,0,1,248.5,430h0A49.5,49.5,0,0,1,298,380.5Z" transform="translate(-72.87 -53.75)" style="fill:none;stroke:#363636"/><path d="M892,265h185a35,35,0,0,1,35,35h0a35,35,0,0,1-35,35H892a35,35,0,0,1-35-35h0A35,35,0,0,1,892,265Z" transform="translate(-72.87 -53.75)" style="fill:#ff6f59"/><path d="M940.15,303.61a2.05,2.05,0,0,0-.8-1.73,9.42,9.42,0,0,0-2.85-1.23,13.76,13.76,0,0,1-3.28-1.38,4.38,4.38,0,0,1-2.33-3.82,4.16,4.16,0,0,1,1.68-3.4,6.83,6.83,0,0,1,4.37-1.34,7.38,7.38,0,0,1,3.18.66,5.21,5.21,0,0,1,2.19,1.88,4.77,4.77,0,0,1,.8,2.68h-3a2.65,2.65,0,0,0-.84-2.09,3.42,3.42,0,0,0-2.39-.76,3.64,3.64,0,0,0-2.26.62,2.08,2.08,0,0,0-.8,1.73,1.88,1.88,0,0,0,.87,1.57,10.23,10.23,0,0,0,2.86,1.22,12.87,12.87,0,0,1,3.2,1.35,5,5,0,0,1,1.77,1.73,4.48,4.48,0,0,1,.56,2.29,4.07,4.07,0,0,1-1.64,3.4,7.09,7.09,0,0,1-4.43,1.25,8.44,8.44,0,0,1-3.41-.68,5.8,5.8,0,0,1-2.41-1.9,4.73,4.73,0,0,1-.86-2.81h3a2.76,2.76,0,0,0,1,2.25,4.21,4.21,0,0,0,2.75.8,3.65,3.65,0,0,0,2.32-.62A2,2,0,0,0,940.15,303.61Zm10.4,4.63a5.92,5.92,0,0,1-4.39-1.7,6.22,6.22,0,0,1-1.68-4.55v-.35a7.61,7.61,0,0,1,.73-3.39,5.6,5.6,0,0,1,2.06-2.33,5.43,5.43,0,0,1,3-.83,5,5,0,0,1,4,1.65,7,7,0,0,1,1.42,4.68v1.15h-8.29a3.83,3.83,0,0,0,1,2.48,3.17,3.17,0,0,0,2.32.91,3.86,3.86,0,0,0,3.19-1.58l1.53,1.46a5.16,5.16,0,0,1-2,1.77A6.38,6.38,0,0,1,950.55,308.23Zm-.34-10.86a2.42,2.42,0,0,0-1.9.82,4.29,4.29,0,0,0-.91,2.29h5.43v-.21a3.44,3.44,0,0,0-.76-2.16A2.37,2.37,0,0,0,950.21,297.37ZM962.59,306a2.58,2.58,0,0,0,1.77-.62,2.13,2.13,0,0,0,.75-1.54h2.68A4.21,4.21,0,0,1,967,306a4.87,4.87,0,0,1-1.87,1.62,5.59,5.59,0,0,1-2.55.6,5.41,5.41,0,0,1-4.22-1.72,6.83,6.83,0,0,1-1.56-4.76v-.29a6.69,6.69,0,0,1,1.55-4.63,5.35,5.35,0,0,1,4.22-1.75,5.17,5.17,0,0,1,3.68,1.32,4.69,4.69,0,0,1,1.5,3.46H965.1a2.6,2.6,0,0,0-.75-1.79,2.37,2.37,0,0,0-1.77-.7,2.5,2.5,0,0,0-2.13,1,5.09,5.09,0,0,0-.76,3v.46a5.26,5.26,0,0,0,.74,3.08A2.52,2.52,0,0,0,962.59,306Zm6.34-4.42a7.43,7.43,0,0,1,.74-3.35,5.34,5.34,0,0,1,2.07-2.3,5.8,5.8,0,0,1,3.07-.81,5.52,5.52,0,0,1,4.16,1.65,6.48,6.48,0,0,1,1.73,4.38v.67a7.5,7.5,0,0,1-.73,3.35,5.28,5.28,0,0,1-2.06,2.29,5.85,5.85,0,0,1-3.09.81,5.52,5.52,0,0,1-4.3-1.78,6.88,6.88,0,0,1-1.61-4.77Zm2.85.25a5.13,5.13,0,0,0,.81,3.07,2.63,2.63,0,0,0,2.25,1.1,2.59,2.59,0,0,0,2.24-1.12,5.61,5.61,0,0,0,.81-3.29,5,5,0,0,0-.83-3,2.77,2.77,0,0,0-4.45,0A5.51,5.51,0,0,0,971.77,301.79Zm13.51-6.47.08,1.46a4.56,4.56,0,0,1,3.69-1.7q4,0,4,4.54V308h-2.85v-8.21a2.57,2.57,0,0,0-.53-1.78,2.16,2.16,0,0,0-1.7-.59,2.75,2.75,0,0,0-2.57,1.56v9H982.6V295.32Zm9.7,6.25a7.51,7.51,0,0,1,1.36-4.7,4.35,4.35,0,0,1,3.64-1.78,4.14,4.14,0,0,1,3.26,1.41V290h2.85v18h-2.58l-.14-1.31a4.2,4.2,0,0,1-3.41,1.55,4.35,4.35,0,0,1-3.61-1.79A7.84,7.84,0,0,1,995,301.57Zm2.85.25a5.33,5.33,0,0,0,.74,3,2.43,2.43,0,0,0,2.12,1.08,2.69,2.69,0,0,0,2.55-1.56v-5.41a2.65,2.65,0,0,0-2.53-1.52,2.43,2.43,0,0,0-2.13,1.1A5.84,5.84,0,0,0,997.84,301.81Zm18.33,6.19a4.08,4.08,0,0,1-.33-1.18,4.44,4.44,0,0,1-3.33,1.42,4.5,4.5,0,0,1-3.12-1.09,3.51,3.51,0,0,1-1.21-2.7,3.59,3.59,0,0,1,1.5-3.11,7.32,7.32,0,0,1,4.32-1.09h1.74v-.83a2.19,2.19,0,0,0-.55-1.57,2.15,2.15,0,0,0-1.67-.6,2.52,2.52,0,0,0-1.6.49,1.5,1.5,0,0,0-.62,1.23h-2.85a3.09,3.09,0,0,1,.7-1.95,4.56,4.56,0,0,1,1.87-1.43,6.64,6.64,0,0,1,2.66-.52,5.28,5.28,0,0,1,3.55,1.13,4,4,0,0,1,1.36,3.14v5.72a6.49,6.49,0,0,0,.48,2.73v.2Zm-3.13-2.05a3.2,3.2,0,0,0,1.58-.41,2.72,2.72,0,0,0,1.12-1.1V302h-1.53a4.18,4.18,0,0,0-2.38.55,1.79,1.79,0,0,0-.8,1.56,1.69,1.69,0,0,0,.54,1.31A2.17,2.17,0,0,0,1013,305.95Zm14.69-8a6.93,6.93,0,0,0-1.16-.09,2.63,2.63,0,0,0-2.64,1.5V308h-2.84V295.32h2.72l.07,1.42a3.2,3.2,0,0,1,2.86-1.65,2.63,2.63,0,0,1,1,.16Zm6,6,2.58-8.6h3l-5,14.6q-1.16,3.2-3.94,3.2a5.1,5.1,0,0,1-1.37-.21v-2.2l.54,0a2.72,2.72,0,0,0,1.62-.4A2.53,2.53,0,0,0,1032,309l.41-1.09-4.46-12.62H1031Z" transform="translate(-72.87 -53.75)"/><path d="M892,265.5h185a34.5,34.5,0,0,1,34.5,34.5h0a34.5,34.5,0,0,1-34.5,34.5H892A34.5,34.5,0,0,1,857.5,300h0A34.5,34.5,0,0,1,892,265.5Z" transform="translate(-72.87 -53.75)" style="fill:none;stroke:#000"/><path d="M588,265H773a35,35,0,0,1,35,35h0a35,35,0,0,1-35,35H588a35,35,0,0,1-35-35h0A35,35,0,0,1,588,265Z" transform="translate(-72.87 -53.75)" style="fill:#ff6f59"/><path d="M636.15,303.61a2.05,2.05,0,0,0-.8-1.73,9.42,9.42,0,0,0-2.85-1.23,13.76,13.76,0,0,1-3.28-1.38,4.38,4.38,0,0,1-2.33-3.82,4.16,4.16,0,0,1,1.68-3.4,6.83,6.83,0,0,1,4.37-1.34,7.38,7.38,0,0,1,3.18.66,5.21,5.21,0,0,1,2.19,1.88,4.77,4.77,0,0,1,.8,2.68h-3a2.65,2.65,0,0,0-.84-2.09,3.42,3.42,0,0,0-2.39-.76,3.64,3.64,0,0,0-2.26.62,2.08,2.08,0,0,0-.8,1.73,1.88,1.88,0,0,0,.87,1.57,10.23,10.23,0,0,0,2.86,1.22,12.87,12.87,0,0,1,3.2,1.35,5,5,0,0,1,1.77,1.73,4.48,4.48,0,0,1,.56,2.29,4.07,4.07,0,0,1-1.64,3.4,7.09,7.09,0,0,1-4.43,1.25,8.44,8.44,0,0,1-3.41-.68,5.8,5.8,0,0,1-2.41-1.9,4.73,4.73,0,0,1-.86-2.81h3a2.76,2.76,0,0,0,1,2.25,4.21,4.21,0,0,0,2.75.8,3.65,3.65,0,0,0,2.32-.62A2,2,0,0,0,636.15,303.61Zm10.4,4.63a5.92,5.92,0,0,1-4.39-1.7,6.22,6.22,0,0,1-1.68-4.55v-.35a7.61,7.61,0,0,1,.73-3.39,5.6,5.6,0,0,1,2.06-2.33,5.43,5.43,0,0,1,3-.83,5,5,0,0,1,4,1.65,7,7,0,0,1,1.42,4.68v1.15h-8.29a3.83,3.83,0,0,0,1,2.48,3.17,3.17,0,0,0,2.32.91,3.86,3.86,0,0,0,3.19-1.58l1.53,1.46a5.16,5.16,0,0,1-2,1.77A6.38,6.38,0,0,1,646.55,308.23Zm-.34-10.86a2.42,2.42,0,0,0-1.9.82,4.29,4.29,0,0,0-.91,2.29h5.43v-.21a3.44,3.44,0,0,0-.76-2.16A2.37,2.37,0,0,0,646.21,297.37ZM658.59,306a2.58,2.58,0,0,0,1.77-.62,2.13,2.13,0,0,0,.75-1.54h2.68A4.21,4.21,0,0,1,663,306a4.87,4.87,0,0,1-1.87,1.62,5.59,5.59,0,0,1-2.55.6,5.41,5.41,0,0,1-4.22-1.72,6.83,6.83,0,0,1-1.56-4.76v-.29a6.69,6.69,0,0,1,1.55-4.63,5.35,5.35,0,0,1,4.22-1.75,5.17,5.17,0,0,1,3.68,1.32,4.69,4.69,0,0,1,1.5,3.46H661.1a2.6,2.6,0,0,0-.75-1.79,2.37,2.37,0,0,0-1.77-.7,2.5,2.5,0,0,0-2.13,1,5.09,5.09,0,0,0-.76,3v.46a5.26,5.26,0,0,0,.74,3.08A2.52,2.52,0,0,0,658.59,306Zm6.34-4.42a7.43,7.43,0,0,1,.74-3.35,5.34,5.34,0,0,1,2.07-2.3,5.8,5.8,0,0,1,3.07-.81,5.52,5.52,0,0,1,4.16,1.65,6.48,6.48,0,0,1,1.73,4.38v.67a7.5,7.5,0,0,1-.73,3.35,5.28,5.28,0,0,1-2.06,2.29,5.85,5.85,0,0,1-3.09.81,5.52,5.52,0,0,1-4.3-1.78,6.88,6.88,0,0,1-1.61-4.77Zm2.85.25a5.13,5.13,0,0,0,.81,3.07,2.63,2.63,0,0,0,2.25,1.1,2.59,2.59,0,0,0,2.24-1.12,5.61,5.61,0,0,0,.81-3.29,5,5,0,0,0-.83-3,2.77,2.77,0,0,0-4.45,0A5.51,5.51,0,0,0,667.77,301.79Zm13.51-6.47.08,1.46a4.56,4.56,0,0,1,3.69-1.7q4,0,4,4.54V308h-2.85v-8.21a2.57,2.57,0,0,0-.53-1.78,2.16,2.16,0,0,0-1.7-.59,2.75,2.75,0,0,0-2.57,1.56v9H678.6V295.32Zm9.7,6.25a7.51,7.51,0,0,1,1.36-4.7,4.35,4.35,0,0,1,3.64-1.78,4.14,4.14,0,0,1,3.26,1.41V290h2.85v18h-2.58l-.14-1.31a4.2,4.2,0,0,1-3.41,1.55,4.35,4.35,0,0,1-3.61-1.79A7.84,7.84,0,0,1,691,301.57Zm2.85.25a5.33,5.33,0,0,0,.74,3,2.43,2.43,0,0,0,2.12,1.08,2.69,2.69,0,0,0,2.55-1.56v-5.41a2.65,2.65,0,0,0-2.53-1.52,2.43,2.43,0,0,0-2.13,1.1A5.84,5.84,0,0,0,693.84,301.81ZM712.16,308a4.41,4.41,0,0,1-.33-1.18,4.79,4.79,0,0,1-6.44.33,3.49,3.49,0,0,1-1.21-2.7,3.59,3.59,0,0,1,1.5-3.11,7.29,7.29,0,0,1,4.31-1.09h1.75v-.83a2.19,2.19,0,0,0-.55-1.57,2.17,2.17,0,0,0-1.67-.6,2.49,2.49,0,0,0-1.59.49,1.49,1.49,0,0,0-.62,1.23h-2.85a3.14,3.14,0,0,1,.69-1.95A4.59,4.59,0,0,1,707,295.6a6.65,6.65,0,0,1,2.66-.52,5.3,5.3,0,0,1,3.55,1.13,4,4,0,0,1,1.36,3.14v5.72a6.49,6.49,0,0,0,.48,2.73v.2ZM709,305.95a3.21,3.21,0,0,0,1.58-.41,2.73,2.73,0,0,0,1.13-1.1V302h-1.53a4.19,4.19,0,0,0-2.38.55,1.78,1.78,0,0,0-.8,1.56,1.69,1.69,0,0,0,.54,1.31A2.15,2.15,0,0,0,709,305.95Zm14.7-8a7,7,0,0,0-1.16-.09,2.61,2.61,0,0,0-2.64,1.5V308h-2.85V295.32h2.72l.07,1.42a3.21,3.21,0,0,1,2.86-1.65,2.68,2.68,0,0,1,1,.16Zm6,6,2.58-8.6h3l-5,14.6q-1.16,3.2-3.94,3.2a5.09,5.09,0,0,1-1.37-.21v-2.2l.54,0a2.71,2.71,0,0,0,1.62-.4A2.55,2.55,0,0,0,728,309l.41-1.09-4.45-12.62H727Z" transform="translate(-72.87 -53.75)"/><path d="M625.5,310.34h110v1.17h-110Z" transform="translate(-72.87 -53.75)"/><path d="M283,265H468a35,35,0,0,1,35,35h0a35,35,0,0,1-35,35H283a35,35,0,0,1-35-35h0A35,35,0,0,1,283,265Z" transform="translate(-72.87 -53.75)" style="fill:#ff6f59"/><path d="M331.15,303.61a2.05,2.05,0,0,0-.8-1.73,9.42,9.42,0,0,0-2.85-1.23,13.76,13.76,0,0,1-3.28-1.38,4.38,4.38,0,0,1-2.33-3.82,4.16,4.16,0,0,1,1.67-3.4,6.83,6.83,0,0,1,4.37-1.34,7.38,7.38,0,0,1,3.18.66,5.21,5.21,0,0,1,2.19,1.88,4.77,4.77,0,0,1,.8,2.68h-3a2.65,2.65,0,0,0-.84-2.09,3.42,3.42,0,0,0-2.39-.76,3.64,3.64,0,0,0-2.26.62,2.08,2.08,0,0,0-.8,1.73,1.88,1.88,0,0,0,.87,1.57,10.23,10.23,0,0,0,2.86,1.22,12.87,12.87,0,0,1,3.2,1.35,5,5,0,0,1,1.77,1.73,4.48,4.48,0,0,1,.56,2.29,4.07,4.07,0,0,1-1.64,3.4,7.09,7.09,0,0,1-4.43,1.25,8.44,8.44,0,0,1-3.41-.68,5.8,5.8,0,0,1-2.41-1.9,4.73,4.73,0,0,1-.86-2.81h3a2.76,2.76,0,0,0,1,2.25,4.21,4.21,0,0,0,2.75.8,3.65,3.65,0,0,0,2.32-.62A2,2,0,0,0,331.15,303.61Zm10.4,4.63a5.92,5.92,0,0,1-4.39-1.7,6.22,6.22,0,0,1-1.68-4.55v-.35a7.61,7.61,0,0,1,.73-3.39,5.6,5.6,0,0,1,2.06-2.33,5.43,5.43,0,0,1,3-.83,5,5,0,0,1,4,1.65,7,7,0,0,1,1.42,4.68v1.15h-8.29a3.83,3.83,0,0,0,1,2.48,3.17,3.17,0,0,0,2.32.91,3.86,3.86,0,0,0,3.19-1.58l1.54,1.46a5.16,5.16,0,0,1-2,1.77A6.38,6.38,0,0,1,341.55,308.23Zm-.34-10.86a2.42,2.42,0,0,0-1.9.82,4.29,4.29,0,0,0-.91,2.29h5.43v-.21a3.44,3.44,0,0,0-.76-2.16A2.37,2.37,0,0,0,341.21,297.37ZM353.58,306a2.58,2.58,0,0,0,1.77-.62,2.13,2.13,0,0,0,.75-1.54h2.68A4.21,4.21,0,0,1,358,306a4.87,4.87,0,0,1-1.87,1.62,5.59,5.59,0,0,1-2.55.6,5.41,5.41,0,0,1-4.22-1.72,6.83,6.83,0,0,1-1.56-4.76v-.29a6.69,6.69,0,0,1,1.55-4.63,5.35,5.35,0,0,1,4.22-1.75,5.17,5.17,0,0,1,3.68,1.32,4.69,4.69,0,0,1,1.5,3.46h-2.68a2.6,2.6,0,0,0-.75-1.79,2.37,2.37,0,0,0-1.77-.7,2.5,2.5,0,0,0-2.13,1,5.09,5.09,0,0,0-.76,3v.46a5.26,5.26,0,0,0,.74,3.08A2.52,2.52,0,0,0,353.58,306Zm6.34-4.42a7.43,7.43,0,0,1,.74-3.35,5.34,5.34,0,0,1,2.07-2.3,5.8,5.8,0,0,1,3.07-.81,5.52,5.52,0,0,1,4.16,1.65,6.48,6.48,0,0,1,1.74,4.38v.67a7.5,7.5,0,0,1-.73,3.35,5.28,5.28,0,0,1-2.06,2.29,5.85,5.85,0,0,1-3.09.81,5.52,5.52,0,0,1-4.3-1.78,6.88,6.88,0,0,1-1.61-4.77Zm2.85.25a5.13,5.13,0,0,0,.81,3.07,2.63,2.63,0,0,0,2.25,1.1,2.59,2.59,0,0,0,2.24-1.12,5.61,5.61,0,0,0,.81-3.29,5,5,0,0,0-.83-3,2.77,2.77,0,0,0-4.45,0A5.51,5.51,0,0,0,362.77,301.79Zm13.51-6.47.08,1.46a4.56,4.56,0,0,1,3.69-1.7q4,0,4,4.54V308h-2.85v-8.21a2.57,2.57,0,0,0-.53-1.78,2.16,2.16,0,0,0-1.7-.59,2.75,2.75,0,0,0-2.57,1.56v9H373.6V295.32Zm9.7,6.25a7.51,7.51,0,0,1,1.36-4.7,4.35,4.35,0,0,1,3.65-1.78,4.14,4.14,0,0,1,3.26,1.41V290h2.85v18h-2.58l-.14-1.31a4.2,4.2,0,0,1-3.41,1.55,4.35,4.35,0,0,1-3.61-1.79A7.84,7.84,0,0,1,386,301.57Zm2.85.25a5.33,5.33,0,0,0,.74,3,2.43,2.43,0,0,0,2.12,1.08,2.69,2.69,0,0,0,2.55-1.56v-5.41a2.65,2.65,0,0,0-2.53-1.52,2.43,2.43,0,0,0-2.13,1.1A5.84,5.84,0,0,0,388.84,301.81ZM407.17,308a4.41,4.41,0,0,1-.33-1.18,4.79,4.79,0,0,1-6.45.33,3.49,3.49,0,0,1-1.21-2.7,3.59,3.59,0,0,1,1.5-3.11,7.29,7.29,0,0,1,4.31-1.09h1.75v-.83a2.19,2.19,0,0,0-.55-1.57,2.17,2.17,0,0,0-1.67-.6,2.49,2.49,0,0,0-1.59.49,1.49,1.49,0,0,0-.62,1.23h-2.85a3.14,3.14,0,0,1,.69-1.95A4.59,4.59,0,0,1,402,295.6a6.65,6.65,0,0,1,2.66-.52,5.3,5.3,0,0,1,3.55,1.13,4,4,0,0,1,1.36,3.14v5.72a6.49,6.49,0,0,0,.48,2.73v.2ZM404,305.95a3.21,3.21,0,0,0,1.58-.41,2.73,2.73,0,0,0,1.13-1.1V302h-1.54a4.19,4.19,0,0,0-2.38.55,1.78,1.78,0,0,0-.8,1.56,1.69,1.69,0,0,0,.54,1.31A2.15,2.15,0,0,0,404,305.95Zm14.7-8a7,7,0,0,0-1.16-.09,2.61,2.61,0,0,0-2.64,1.5V308h-2.85V295.32h2.72l.07,1.42a3.21,3.21,0,0,1,2.86-1.65,2.68,2.68,0,0,1,1,.16Zm6,6,2.58-8.6h3l-5,14.6q-1.16,3.2-3.94,3.2a5.09,5.09,0,0,1-1.37-.21v-2.2l.54,0a2.71,2.71,0,0,0,1.62-.4A2.55,2.55,0,0,0,423,309l.41-1.09-4.45-12.62H422Z" transform="translate(-72.87 -53.75)"/><path d="M892,135h192a35,35,0,0,1,35,35h0a35,35,0,0,1-35,35H892a35,35,0,0,1-35-35h0A35,35,0,0,1,892,135Z" transform="translate(-72.87 -53.75)" style="fill:#05623a"/><path d="M952.07,171.66V178h-3V160.94h6.53a6.59,6.59,0,0,1,4.54,1.49,5,5,0,0,1,1.69,3.94,4.83,4.83,0,0,1-1.65,3.9,6.91,6.91,0,0,1-4.61,1.39Zm0-2.38h3.56a3.53,3.53,0,0,0,2.41-.74,2.75,2.75,0,0,0,.83-2.16,2.93,2.93,0,0,0-.84-2.2,3.24,3.24,0,0,0-2.32-.86h-3.64Zm18.27-1.36a7,7,0,0,0-1.16-.09,2.61,2.61,0,0,0-2.64,1.5V178h-2.85V165.32h2.72l.07,1.42a3.21,3.21,0,0,1,2.86-1.65,2.68,2.68,0,0,1,1,.16ZM974.69,178h-2.85V165.32h2.85Zm-3-16a1.52,1.52,0,0,1,.41-1.09,1.86,1.86,0,0,1,2.39,0,1.6,1.6,0,0,1,0,2.17,1.9,1.9,0,0,1-2.39,0A1.5,1.5,0,0,1,971.66,162Zm8.33,3.29.08,1.32a4.56,4.56,0,0,1,3.66-1.56,3.5,3.5,0,0,1,3.48,1.95,4.5,4.5,0,0,1,3.89-1.95,3.94,3.94,0,0,1,3.12,1.16,5.09,5.09,0,0,1,1.05,3.42V178h-2.85v-8.25a2.52,2.52,0,0,0-.53-1.77,2.31,2.31,0,0,0-1.75-.56,2.38,2.38,0,0,0-1.59.53,2.73,2.73,0,0,0-.86,1.36V178h-2.85v-8.34a2,2,0,0,0-2.28-2.24,2.51,2.51,0,0,0-2.43,1.39V178h-2.85V165.32ZM1005.3,178a4.08,4.08,0,0,1-.33-1.18,4.79,4.79,0,0,1-6.45.33,3.49,3.49,0,0,1-1.21-2.7,3.59,3.59,0,0,1,1.5-3.11,7.29,7.29,0,0,1,4.31-1.09h1.75v-.83a2.19,2.19,0,0,0-.56-1.57,2.14,2.14,0,0,0-1.67-.6,2.47,2.47,0,0,0-1.59.49,1.48,1.48,0,0,0-.63,1.23h-2.84a3.14,3.14,0,0,1,.69-1.95,4.6,4.6,0,0,1,1.87-1.43,6.68,6.68,0,0,1,2.66-.52,5.28,5.28,0,0,1,3.55,1.13,3.94,3.94,0,0,1,1.36,3.14v5.72a6.49,6.49,0,0,0,.48,2.73v.2Zm-3.13-2.05a3.2,3.2,0,0,0,1.58-.41,2.75,2.75,0,0,0,1.13-1.1V172h-1.54a4.2,4.2,0,0,0-2.38.55,1.79,1.79,0,0,0-.8,1.56,1.69,1.69,0,0,0,.54,1.31A2.17,2.17,0,0,0,1002.17,175.95Zm14.69-8a6.93,6.93,0,0,0-1.16-.09,2.6,2.6,0,0,0-2.63,1.5V178h-2.85V165.32h2.72l.07,1.42a3.21,3.21,0,0,1,2.86-1.65,2.72,2.72,0,0,1,1,.16Zm6,6,2.58-8.6h3l-5,14.6q-1.16,3.2-3.93,3.2a5,5,0,0,1-1.37-.21v-2.2l.53,0a2.72,2.72,0,0,0,1.62-.4,2.53,2.53,0,0,0,.87-1.31l.41-1.09-4.45-12.62h3.07Z" transform="translate(-72.87 -53.75)" style="fill:#fff"/><path d="M892,135.5h192a34.5,34.5,0,0,1,34.5,34.5h0a34.5,34.5,0,0,1-34.5,34.5H892A34.5,34.5,0,0,1,857.5,170h0A34.5,34.5,0,0,1,892,135.5Z" transform="translate(-72.87 -53.75)" style="fill:none;stroke:#ff6f59"/><path d="M588,136H780a35,35,0,0,1,35,35h0a35,35,0,0,1-35,35H588a35,35,0,0,1-35-35h0A35,35,0,0,1,588,136Z" transform="translate(-72.87 -53.75)" style="fill:#05623a"/><path d="M648.07,172.66V179h-3V161.94h6.53a6.59,6.59,0,0,1,4.54,1.49,5,5,0,0,1,1.69,3.94,4.83,4.83,0,0,1-1.65,3.9,6.91,6.91,0,0,1-4.61,1.39Zm0-2.38h3.56a3.53,3.53,0,0,0,2.41-.74,2.75,2.75,0,0,0,.83-2.16,2.93,2.93,0,0,0-.84-2.2,3.24,3.24,0,0,0-2.32-.86h-3.64Zm18.27-1.36a7,7,0,0,0-1.16-.09,2.61,2.61,0,0,0-2.64,1.5V179h-2.85V166.32h2.72l.07,1.42a3.21,3.21,0,0,1,2.86-1.65,2.68,2.68,0,0,1,1,.16ZM670.69,179h-2.85V166.32h2.85Zm-3-16a1.52,1.52,0,0,1,.41-1.09,1.86,1.86,0,0,1,2.39,0,1.6,1.6,0,0,1,0,2.17,1.9,1.9,0,0,1-2.39,0A1.5,1.5,0,0,1,667.66,163Zm8.33,3.29.08,1.32a4.56,4.56,0,0,1,3.66-1.56,3.5,3.5,0,0,1,3.48,1.95,4.5,4.5,0,0,1,3.89-1.95,3.94,3.94,0,0,1,3.12,1.16,5.09,5.09,0,0,1,1.05,3.42V179h-2.85v-8.25a2.52,2.52,0,0,0-.53-1.77,2.31,2.31,0,0,0-1.75-.56,2.38,2.38,0,0,0-1.59.53,2.73,2.73,0,0,0-.86,1.36V179h-2.85v-8.34a2,2,0,0,0-2.28-2.24,2.51,2.51,0,0,0-2.43,1.39V179h-2.85V166.32ZM701.3,179a4.41,4.41,0,0,1-.33-1.18,4.43,4.43,0,0,1-3.33,1.42,4.48,4.48,0,0,1-3.12-1.09,3.49,3.49,0,0,1-1.21-2.7,3.59,3.59,0,0,1,1.5-3.11,7.29,7.29,0,0,1,4.31-1.09h1.75v-.83a2.2,2.2,0,0,0-.55-1.57,2.17,2.17,0,0,0-1.68-.6,2.49,2.49,0,0,0-1.59.49,1.49,1.49,0,0,0-.62,1.23h-2.85a3.14,3.14,0,0,1,.69-1.95,4.59,4.59,0,0,1,1.88-1.43,6.64,6.64,0,0,1,2.66-.52,5.3,5.3,0,0,1,3.55,1.13,4,4,0,0,1,1.36,3.14v5.72a6.47,6.47,0,0,0,.48,2.73v.2Zm-3.13-2.05a3.21,3.21,0,0,0,1.58-.41,2.73,2.73,0,0,0,1.13-1.1V173h-1.53a4.19,4.19,0,0,0-2.38.55,1.78,1.78,0,0,0-.8,1.56,1.69,1.69,0,0,0,.54,1.31A2.15,2.15,0,0,0,698.17,176.95Zm14.7-8a7,7,0,0,0-1.16-.09,2.61,2.61,0,0,0-2.64,1.5V179h-2.85V166.32h2.72l.07,1.42a3.21,3.21,0,0,1,2.86-1.65,2.68,2.68,0,0,1,1,.16Zm6,6,2.58-8.6h3l-5,14.6q-1.16,3.2-3.94,3.2a5.09,5.09,0,0,1-1.37-.21v-2.2l.54,0a2.71,2.71,0,0,0,1.62-.4,2.55,2.55,0,0,0,.87-1.31l.41-1.09-4.45-12.62h3.07Z" transform="translate(-72.87 -53.75)" style="fill:#fff"/><path d="M643.37,181.34h81.25v1.17H643.37Z" transform="translate(-72.87 -53.75)" style="fill:#fff"/><path d="M279.5,135h192a35,35,0,0,1,35,35h0a35,35,0,0,1-35,35h-192a35,35,0,0,1-35-35h0A35,35,0,0,1,279.5,135Z" transform="translate(-72.87 -53.75)" style="fill:#05623a"/><path d="M339.57,171.66V178h-3V160.94h6.53a6.59,6.59,0,0,1,4.54,1.49,5,5,0,0,1,1.69,3.94,4.83,4.83,0,0,1-1.65,3.9,6.91,6.91,0,0,1-4.61,1.39Zm0-2.38h3.56a3.53,3.53,0,0,0,2.41-.74,2.75,2.75,0,0,0,.83-2.16,2.93,2.93,0,0,0-.84-2.2,3.24,3.24,0,0,0-2.32-.86h-3.64Zm18.27-1.36a7,7,0,0,0-1.16-.09,2.61,2.61,0,0,0-2.64,1.5V178h-2.85V165.32h2.72l.07,1.42a3.21,3.21,0,0,1,2.86-1.65,2.68,2.68,0,0,1,1,.16ZM362.19,178h-2.85V165.32h2.85Zm-3-16a1.52,1.52,0,0,1,.41-1.09,1.86,1.86,0,0,1,2.39,0,1.6,1.6,0,0,1,0,2.17,1.9,1.9,0,0,1-2.39,0A1.5,1.5,0,0,1,359.16,162Zm8.33,3.29.08,1.32a4.56,4.56,0,0,1,3.66-1.56,3.5,3.5,0,0,1,3.48,1.95,4.5,4.5,0,0,1,3.89-1.95,3.94,3.94,0,0,1,3.12,1.16,5.09,5.09,0,0,1,1.05,3.42V178h-2.85v-8.25a2.52,2.52,0,0,0-.53-1.77,2.31,2.31,0,0,0-1.75-.56,2.38,2.38,0,0,0-1.59.53,2.73,2.73,0,0,0-.86,1.36V178h-2.85v-8.34a2,2,0,0,0-2.29-2.24,2.51,2.51,0,0,0-2.43,1.39V178h-2.85V165.32ZM392.8,178a4.41,4.41,0,0,1-.33-1.18,4.43,4.43,0,0,1-3.33,1.42,4.48,4.48,0,0,1-3.12-1.09,3.49,3.49,0,0,1-1.21-2.7,3.59,3.59,0,0,1,1.5-3.11,7.29,7.29,0,0,1,4.31-1.09h1.75v-.83a2.2,2.2,0,0,0-.55-1.57,2.17,2.17,0,0,0-1.68-.6,2.49,2.49,0,0,0-1.59.49,1.49,1.49,0,0,0-.62,1.23h-2.85a3.14,3.14,0,0,1,.69-1.95,4.59,4.59,0,0,1,1.88-1.43,6.64,6.64,0,0,1,2.66-.52,5.3,5.3,0,0,1,3.55,1.13,4,4,0,0,1,1.36,3.14v5.72a6.47,6.47,0,0,0,.48,2.73v.2Zm-3.13-2.05a3.21,3.21,0,0,0,1.58-.41,2.73,2.73,0,0,0,1.13-1.1V172h-1.54a4.19,4.19,0,0,0-2.38.55,1.78,1.78,0,0,0-.8,1.56,1.69,1.69,0,0,0,.54,1.31A2.15,2.15,0,0,0,389.67,175.95Zm14.7-8a7,7,0,0,0-1.16-.09,2.61,2.61,0,0,0-2.64,1.5V178h-2.85V165.32h2.72l.07,1.42a3.21,3.21,0,0,1,2.86-1.65,2.68,2.68,0,0,1,1,.16Zm6,6,2.58-8.6h3l-5,14.6q-1.16,3.2-3.94,3.2a5.09,5.09,0,0,1-1.37-.21v-2.2l.54,0a2.71,2.71,0,0,0,1.62-.4,2.55,2.55,0,0,0,.87-1.31l.41-1.09-4.45-12.62h3.07Z" transform="translate(-72.87 -53.75)" style="fill:#fff"/><path d="M891,777h183.12a35,35,0,0,1,35,35h0a35,35,0,0,1-35,35H891a35,35,0,0,1-35-35h0A35,35,0,0,1,891,777Z" transform="translate(-72.87 -53.75)" style="fill:#fff"/><path d="M887.91,820V802.94h5a7.87,7.87,0,0,1,4,1,6.86,6.86,0,0,1,2.72,2.86,9.07,9.07,0,0,1,1,4.24v.85a9,9,0,0,1-1,4.27,6.75,6.75,0,0,1-2.75,2.84,8.24,8.24,0,0,1-4.09,1Zm3-14.67v12.3h1.93a4.44,4.44,0,0,0,3.57-1.45,6.36,6.36,0,0,0,1.28-4.2V811a6.53,6.53,0,0,0-1.21-4.24,4.28,4.28,0,0,0-3.5-1.47Zm17.54,14.91a5.92,5.92,0,0,1-4.4-1.7,6.22,6.22,0,0,1-1.67-4.55v-.35a7.63,7.63,0,0,1,.73-3.39,5.61,5.61,0,0,1,2.06-2.33,5.43,5.43,0,0,1,3-.83,5,5,0,0,1,4,1.65,7,7,0,0,1,1.42,4.68v1.15h-8.28a3.82,3.82,0,0,0,1,2.48,3.17,3.17,0,0,0,2.32.91,3.86,3.86,0,0,0,3.19-1.58l1.54,1.46a5.16,5.16,0,0,1-2,1.77A6.38,6.38,0,0,1,908.42,820.23Zm-.34-10.86a2.42,2.42,0,0,0-1.9.82,4.27,4.27,0,0,0-.91,2.29h5.42v-.21a3.43,3.43,0,0,0-.76-2.16A2.37,2.37,0,0,0,908.08,809.37ZM916.25,820V809.43h-1.93v-2.11h1.93v-1.16a4.36,4.36,0,0,1,1.17-3.26,4.49,4.49,0,0,1,3.28-1.15,6.55,6.55,0,0,1,1.59.21l-.07,2.23a5.66,5.66,0,0,0-1.09-.09,1.83,1.83,0,0,0-2,2.1v1.13h2.58v2.11h-2.58V820Zm14.6,0a4.37,4.37,0,0,1-.33-1.18,4.79,4.79,0,0,1-6.45.33,3.49,3.49,0,0,1-1.21-2.7,3.59,3.59,0,0,1,1.5-3.1,7.29,7.29,0,0,1,4.31-1.09h1.75v-.83a2.2,2.2,0,0,0-.55-1.57,2.17,2.17,0,0,0-1.68-.6,2.49,2.49,0,0,0-1.59.49A1.49,1.49,0,0,0,926,811h-2.85a3.14,3.14,0,0,1,.69-1.95,4.59,4.59,0,0,1,1.88-1.43,6.65,6.65,0,0,1,2.66-.52,5.3,5.3,0,0,1,3.55,1.13,4,4,0,0,1,1.36,3.14v5.72a6.49,6.49,0,0,0,.48,2.73v.2Zm-3.13-2.05a3.21,3.21,0,0,0,1.58-.41,2.73,2.73,0,0,0,1.13-1.1V814h-1.54a4.19,4.19,0,0,0-2.38.55,1.78,1.78,0,0,0-.8,1.56,1.69,1.69,0,0,0,.54,1.31A2.15,2.15,0,0,0,927.72,817.95Zm15.74.81a4.42,4.42,0,0,1-3.56,1.48,4,4,0,0,1-3.13-1.21,5.15,5.15,0,0,1-1.05-3.49v-8.21h2.85v8.18q0,2.41,2,2.41a2.82,2.82,0,0,0,2.8-1.49v-9.11h2.85V820h-2.68Zm8.2,1.24h-2.85V802h2.85Zm6.2-15.76v3.08h2.24v2.11h-2.24v7.08a1.61,1.61,0,0,0,.28,1.05,1.37,1.37,0,0,0,1,.32,4.39,4.39,0,0,0,1-.12V820a7,7,0,0,1-1.87.27q-3.28,0-3.28-3.62v-7.18h-2.09v-2.11H955v-3.08Z" transform="translate(-72.87 -53.75)"/><path d="M1058.33,824l20.79-12-20.79-12Zm0-15.46H1026v6.93h32.33Z" transform="translate(-72.87 -53.75)" style="fill:#363636"/><path d="M891,777.5h183.12a34.5,34.5,0,0,1,34.5,34.5h0a34.5,34.5,0,0,1-34.5,34.5H891A34.5,34.5,0,0,1,856.5,812h0A34.5,34.5,0,0,1,891,777.5Z" transform="translate(-72.87 -53.75)" style="fill:none;stroke:#05623a"/><path d="M588,777H771.12a35,35,0,0,1,35,35h0a35,35,0,0,1-35,35H588a35,35,0,0,1-35-35h0A35,35,0,0,1,588,777Z" transform="translate(-72.87 -53.75)" style="fill:#fff"/><path d="M584.91,820V802.94h5a7.87,7.87,0,0,1,4,1,6.86,6.86,0,0,1,2.72,2.86,9.07,9.07,0,0,1,1,4.24v.85a9,9,0,0,1-1,4.27,6.75,6.75,0,0,1-2.75,2.84,8.24,8.24,0,0,1-4.09,1Zm3-14.67v12.3h1.93a4.44,4.44,0,0,0,3.57-1.45,6.36,6.36,0,0,0,1.28-4.2V811a6.53,6.53,0,0,0-1.21-4.24,4.28,4.28,0,0,0-3.5-1.47Zm17.54,14.91a5.92,5.92,0,0,1-4.4-1.7,6.22,6.22,0,0,1-1.67-4.55v-.35a7.63,7.63,0,0,1,.73-3.39,5.61,5.61,0,0,1,2.06-2.33,5.43,5.43,0,0,1,3-.83,5,5,0,0,1,4,1.65,7,7,0,0,1,1.42,4.68v1.15h-8.28a3.82,3.82,0,0,0,1,2.48,3.17,3.17,0,0,0,2.32.91,3.86,3.86,0,0,0,3.19-1.58l1.54,1.46a5.16,5.16,0,0,1-2,1.77A6.38,6.38,0,0,1,605.42,820.23Zm-.34-10.86a2.42,2.42,0,0,0-1.9.82,4.27,4.27,0,0,0-.91,2.29h5.42v-.21a3.43,3.43,0,0,0-.76-2.16A2.37,2.37,0,0,0,605.08,809.37ZM613.25,820V809.43h-1.93v-2.11h1.93v-1.16a4.36,4.36,0,0,1,1.17-3.26,4.49,4.49,0,0,1,3.28-1.15,6.55,6.55,0,0,1,1.59.21l-.07,2.23a5.66,5.66,0,0,0-1.09-.09,1.83,1.83,0,0,0-2,2.1v1.13h2.58v2.11h-2.58V820Zm14.6,0a4.37,4.37,0,0,1-.33-1.18,4.79,4.79,0,0,1-6.45.33,3.49,3.49,0,0,1-1.21-2.7,3.59,3.59,0,0,1,1.5-3.1,7.29,7.29,0,0,1,4.31-1.09h1.75v-.83a2.2,2.2,0,0,0-.55-1.57,2.17,2.17,0,0,0-1.68-.6,2.49,2.49,0,0,0-1.59.49A1.49,1.49,0,0,0,623,811h-2.85a3.14,3.14,0,0,1,.69-1.95,4.59,4.59,0,0,1,1.88-1.43,6.65,6.65,0,0,1,2.66-.52,5.3,5.3,0,0,1,3.55,1.13,4,4,0,0,1,1.36,3.14v5.72a6.49,6.49,0,0,0,.48,2.73v.2Zm-3.13-2.05a3.21,3.21,0,0,0,1.58-.41,2.73,2.73,0,0,0,1.13-1.1V814h-1.54a4.19,4.19,0,0,0-2.38.55,1.78,1.78,0,0,0-.8,1.56,1.69,1.69,0,0,0,.54,1.31A2.15,2.15,0,0,0,624.72,817.95Zm15.74.81a4.42,4.42,0,0,1-3.56,1.48,4,4,0,0,1-3.13-1.21,5.15,5.15,0,0,1-1.05-3.49v-8.21h2.85v8.18q0,2.41,2,2.41a2.82,2.82,0,0,0,2.8-1.49v-9.11h2.85V820h-2.68Zm8.2,1.24h-2.85V802h2.85Zm6.2-15.76v3.08h2.24v2.11h-2.24v7.08a1.61,1.61,0,0,0,.28,1.05,1.37,1.37,0,0,0,1,.32,4.39,4.39,0,0,0,1-.12V820a7,7,0,0,1-1.87.27q-3.28,0-3.28-3.62v-7.18h-2.09v-2.11H652v-3.08Z" transform="translate(-72.87 -53.75)"/><path d="M583.17,822.34h74.64v1.17H583.17Z" transform="translate(-72.87 -53.75)"/><path d="M755.33,824l20.78-12-20.78-12Zm0-15.46H723v6.93h32.33Z" transform="translate(-72.87 -53.75)" style="fill:#363636"/><path d="M588,777.5H771.12a34.5,34.5,0,0,1,34.5,34.5h0a34.5,34.5,0,0,1-34.5,34.5H588A34.5,34.5,0,0,1,553.5,812h0A34.5,34.5,0,0,1,588,777.5Z" transform="translate(-72.87 -53.75)" style="fill:none;stroke:#363636"/><path d="M283.94,777H467.06a35,35,0,0,1,35,35h0a35,35,0,0,1-35,35H283.94a35,35,0,0,1-35-35h0A35,35,0,0,1,283.94,777Z" transform="translate(-72.87 -53.75)" style="fill:#fff"/><path d="M280.85,820V802.94h5a7.87,7.87,0,0,1,4,1,6.86,6.86,0,0,1,2.72,2.86,9.07,9.07,0,0,1,1,4.24v.85a9,9,0,0,1-1,4.27,6.74,6.74,0,0,1-2.75,2.84,8.24,8.24,0,0,1-4.09,1Zm3-14.67v12.3h1.93a4.44,4.44,0,0,0,3.57-1.45,6.36,6.36,0,0,0,1.28-4.2V811a6.53,6.53,0,0,0-1.21-4.24,4.28,4.28,0,0,0-3.5-1.47Zm17.54,14.91a5.92,5.92,0,0,1-4.4-1.7,6.22,6.22,0,0,1-1.67-4.55v-.35a7.63,7.63,0,0,1,.73-3.39,5.61,5.61,0,0,1,2.06-2.33,5.43,5.43,0,0,1,3-.83,5,5,0,0,1,4,1.65,7,7,0,0,1,1.42,4.68v1.15h-8.29a3.82,3.82,0,0,0,1,2.48,3.17,3.17,0,0,0,2.32.91,3.85,3.85,0,0,0,3.19-1.58l1.54,1.46a5.16,5.16,0,0,1-2,1.77A6.38,6.38,0,0,1,301.36,820.23ZM301,809.37a2.42,2.42,0,0,0-1.9.82,4.27,4.27,0,0,0-.91,2.29h5.42v-.21a3.43,3.43,0,0,0-.76-2.16A2.37,2.37,0,0,0,301,809.37ZM309.19,820V809.43h-1.93v-2.11h1.93v-1.16a4.36,4.36,0,0,1,1.17-3.26,4.49,4.49,0,0,1,3.28-1.15,6.55,6.55,0,0,1,1.59.21l-.07,2.23a5.66,5.66,0,0,0-1.09-.09,1.83,1.83,0,0,0-2,2.1v1.13h2.58v2.11H312V820Zm14.6,0a4.4,4.4,0,0,1-.33-1.18,4.43,4.43,0,0,1-3.33,1.42,4.48,4.48,0,0,1-3.12-1.09,3.49,3.49,0,0,1-1.21-2.7,3.59,3.59,0,0,1,1.5-3.1,7.29,7.29,0,0,1,4.31-1.09h1.75v-.83a2.2,2.2,0,0,0-.55-1.57,2.17,2.17,0,0,0-1.68-.6,2.49,2.49,0,0,0-1.59.49,1.49,1.49,0,0,0-.62,1.23h-2.85a3.14,3.14,0,0,1,.69-1.95,4.59,4.59,0,0,1,1.88-1.43,6.65,6.65,0,0,1,2.66-.52,5.3,5.3,0,0,1,3.55,1.13,4,4,0,0,1,1.36,3.14v5.72a6.47,6.47,0,0,0,.48,2.73v.2Zm-3.13-2.05a3.21,3.21,0,0,0,1.58-.41,2.73,2.73,0,0,0,1.13-1.1V814h-1.54a4.19,4.19,0,0,0-2.38.55,1.78,1.78,0,0,0-.8,1.56,1.69,1.69,0,0,0,.54,1.31A2.15,2.15,0,0,0,320.66,817.95Zm15.74.81a4.42,4.42,0,0,1-3.56,1.48,4,4,0,0,1-3.13-1.21,5.15,5.15,0,0,1-1.05-3.49v-8.21h2.85v8.18q0,2.41,2,2.41a2.82,2.82,0,0,0,2.8-1.49v-9.11h2.85V820h-2.68Zm8.2,1.24h-2.85V802h2.85Zm6.2-15.76v3.08H353v2.11H350.8v7.08a1.6,1.6,0,0,0,.28,1.05,1.37,1.37,0,0,0,1,.32,4.39,4.39,0,0,0,1-.12V820a7,7,0,0,1-1.87.27q-3.28,0-3.28-3.62v-7.18h-2.09v-2.11H348v-3.08Z" transform="translate(-72.87 -53.75)"/><path d="M451.27,824l20.78-12-20.78-12Zm0-15.46H418.94v6.93h32.33Z" transform="translate(-72.87 -53.75)" style="fill:#363636"/><path d="M283.94,777.5H467.06a34.5,34.5,0,0,1,34.5,34.5h0a34.5,34.5,0,0,1-34.5,34.5H283.94a34.5,34.5,0,0,1-34.5-34.5h0A34.5,34.5,0,0,1,283.94,777.5Z" transform="translate(-72.87 -53.75)" style="fill:none;stroke:#363636"/></svg>