<svg width="255" height="232" viewBox="0 0 255 232" fill="none" xmlns="http://www.w3.org/2000/svg">
<path d="M86.5411 8.448C88.7811 8.448 90.5011 9.072 91.7011 10.32C92.9011 11.568 93.5011 13.36 93.5011 15.696C93.5011 18.432 92.8291 20.528 91.4851 21.984C90.1411 23.44 88.2211 24.168 85.7251 24.168C84.9731 24.168 84.0691 24.152 83.0131 24.12C81.9731 24.088 81.0771 24.048 80.3251 24L80.4931 19.392L80.3251 8.544L86.5411 8.448ZM86.3011 21.648C88.8451 21.648 90.1171 19.912 90.1171 16.44C90.1171 14.552 89.8051 13.184 89.1811 12.336C88.5731 11.472 87.6131 11.04 86.3011 11.04C85.4531 11.04 84.5491 11.08 83.5891 11.16L83.4451 19.104L83.5171 21.48C84.6371 21.592 85.5651 21.648 86.3011 21.648ZM104.19 18.816L97.7099 18.864C97.8539 20.864 98.8699 21.864 100.758 21.864C101.75 21.864 102.854 21.584 104.07 21.024L104.334 21.192L103.854 23.568C102.638 24.016 101.494 24.24 100.422 24.24C98.6619 24.24 97.2779 23.728 96.2699 22.704C95.2779 21.68 94.7819 20.264 94.7819 18.456C94.7819 16.664 95.2699 15.248 96.2459 14.208C97.2219 13.152 98.5419 12.624 100.206 12.624C101.63 12.624 102.726 13.016 103.494 13.8C104.278 14.568 104.67 15.648 104.67 17.04C104.67 17.408 104.63 17.872 104.55 18.432L104.19 18.816ZM101.886 16.68C101.886 16.04 101.742 15.56 101.454 15.24C101.166 14.904 100.742 14.736 100.182 14.736C99.5579 14.736 99.0379 14.944 98.6219 15.36C98.2059 15.76 97.9259 16.344 97.7819 17.112L101.838 17.016L101.886 16.68ZM111.454 12.624C111.982 12.624 112.502 12.68 113.014 12.792C113.542 12.888 114.006 13.032 114.406 13.224L113.878 15.768L113.614 15.888C112.798 15.44 112.07 15.216 111.43 15.216C110.694 15.216 110.126 15.48 109.726 16.008C109.326 16.536 109.126 17.288 109.126 18.264C109.126 19.384 109.342 20.24 109.774 20.832C110.206 21.424 110.822 21.72 111.622 21.72C112.342 21.72 113.142 21.52 114.022 21.12L114.262 21.312L113.95 23.784C112.99 24.088 112.006 24.24 110.998 24.24C109.462 24.24 108.262 23.744 107.398 22.752C106.534 21.744 106.102 20.344 106.102 18.552C106.102 16.696 106.574 15.248 107.518 14.208C108.462 13.152 109.774 12.624 111.454 12.624ZM124.745 18.816L118.265 18.864C118.409 20.864 119.425 21.864 121.313 21.864C122.305 21.864 123.409 21.584 124.625 21.024L124.889 21.192L124.409 23.568C123.193 24.016 122.049 24.24 120.977 24.24C119.217 24.24 117.833 23.728 116.825 22.704C115.833 21.68 115.337 20.264 115.337 18.456C115.337 16.664 115.825 15.248 116.801 14.208C117.777 13.152 119.097 12.624 120.761 12.624C122.185 12.624 123.281 13.016 124.049 13.8C124.833 14.568 125.225 15.648 125.225 17.04C125.225 17.408 125.185 17.872 125.105 18.432L124.745 18.816ZM122.441 16.68C122.441 16.04 122.297 15.56 122.009 15.24C121.721 14.904 121.297 14.736 120.737 14.736C120.113 14.736 119.593 14.944 119.177 15.36C118.761 15.76 118.481 16.344 118.337 17.112L122.393 17.016L122.441 16.68ZM140.793 24L140.985 17.04C140.985 15.856 140.481 15.264 139.473 15.264C138.753 15.264 138.001 15.584 137.217 16.224L137.145 19.104L137.289 24H134.097L134.289 17.04C134.305 16.464 134.177 16.024 133.905 15.72C133.649 15.416 133.273 15.264 132.777 15.264C132.073 15.264 131.297 15.6 130.449 16.272V19.08L130.593 24H127.425L127.593 19.392L127.473 13.056L130.473 12.792V14.424H130.641C131.521 13.624 132.489 13.048 133.545 12.696C135.337 12.696 136.481 13.296 136.977 14.496H137.121C138.033 13.648 139.073 13.048 140.241 12.696C141.457 12.696 142.377 12.976 143.001 13.536C143.641 14.08 143.945 14.872 143.913 15.912L143.841 19.104L143.985 24H140.793ZM152.808 12.696C154.216 12.696 155.288 13.176 156.024 14.136C156.776 15.08 157.152 16.4 157.152 18.096C157.152 20.064 156.664 21.584 155.688 22.656C154.712 23.712 153.36 24.24 151.632 24.24C150.816 24.24 149.92 24.056 148.944 23.688L147.264 24.288L146.88 23.976L147.048 19.416L146.904 7.392L150.072 7.152L149.976 14.424H150.12C150.568 13.992 151 13.648 151.416 13.392C151.832 13.12 152.296 12.888 152.808 12.696ZM151.632 22.152C152.432 22.152 153.056 21.864 153.504 21.288C153.952 20.712 154.176 19.832 154.176 18.648C154.176 17.544 153.992 16.704 153.624 16.128C153.272 15.552 152.736 15.264 152.016 15.264C151.36 15.264 150.672 15.6 149.952 16.272L149.904 19.008L149.952 21.72C150.544 22.008 151.104 22.152 151.632 22.152ZM167.987 18.816L161.507 18.864C161.651 20.864 162.667 21.864 164.555 21.864C165.547 21.864 166.651 21.584 167.867 21.024L168.131 21.192L167.651 23.568C166.435 24.016 165.291 24.24 164.219 24.24C162.459 24.24 161.075 23.728 160.067 22.704C159.075 21.68 158.579 20.264 158.579 18.456C158.579 16.664 159.067 15.248 160.043 14.208C161.019 13.152 162.339 12.624 164.003 12.624C165.427 12.624 166.523 13.016 167.291 13.8C168.075 14.568 168.467 15.648 168.467 17.04C168.467 17.408 168.427 17.872 168.347 18.432L167.987 18.816ZM165.683 16.68C165.683 16.04 165.539 15.56 165.251 15.24C164.963 14.904 164.539 14.736 163.979 14.736C163.355 14.736 162.835 14.944 162.419 15.36C162.003 15.76 161.723 16.344 161.579 17.112L165.635 17.016L165.683 16.68ZM176.835 12.816C176.979 12.816 177.179 12.832 177.435 12.864V15.816L177.099 15.936C176.827 15.824 176.531 15.768 176.211 15.768C175.283 15.768 174.443 16.368 173.691 17.568V19.08L173.859 24H170.667L170.859 19.392L170.715 13.056L173.739 12.792L173.715 14.976H173.907C174.691 13.536 175.667 12.816 176.835 12.816Z" fill="black"/>
<rect x="6" y="121" width="246" height="20" rx="3" fill="#ABDBC6"/>
<rect x="6" y="151" width="172" height="20" rx="3" fill="#DBEBE4"/>
<rect x="43" y="91" width="209" height="20" rx="3" fill="#DBEBE4"/>
<rect x="118" y="183" width="20" height="20" rx="10" fill="#FF6F59"/>
<rect x="231" y="91" width="20" height="20" rx="10" fill="#FF6F59"/>
<path d="M54.4563 96.108L54.3663 101.274L54.4383 105H52.9983L53.0883 101.454L53.0703 97.602L50.7483 98.25L50.6043 98.178V97.044L54.2403 95.964L54.4563 96.108Z" fill="black"/>
<path d="M53.6473 125.344C54.5233 125.344 55.2073 125.572 55.6993 126.028C56.2033 126.472 56.4553 127.084 56.4553 127.864C56.4553 128.476 56.2993 128.98 55.9873 129.376C55.6753 129.772 55.2493 130.126 54.7093 130.438V130.528C55.3573 130.84 55.8613 131.188 56.2213 131.572C56.5933 131.944 56.7793 132.472 56.7793 133.156C56.7793 134.056 56.4613 134.776 55.8253 135.316C55.1893 135.856 54.3433 136.126 53.2873 136.126C52.3033 136.126 51.5233 135.88 50.9473 135.388C50.3833 134.884 50.1013 134.23 50.1013 133.426C50.1013 132.754 50.2933 132.208 50.6773 131.788C51.0613 131.356 51.5713 130.984 52.2073 130.672V130.582C51.7033 130.318 51.2953 129.994 50.9833 129.61C50.6713 129.226 50.5153 128.722 50.5153 128.098C50.5153 127.246 50.8033 126.574 51.3793 126.082C51.9553 125.59 52.7113 125.344 53.6473 125.344ZM53.5753 126.388C53.0113 126.388 52.5613 126.538 52.2253 126.838C51.8893 127.138 51.7213 127.546 51.7213 128.062C51.7213 128.578 51.8773 128.98 52.1893 129.268C52.5133 129.544 52.9753 129.802 53.5753 130.042C54.1153 129.814 54.5353 129.55 54.8353 129.25C55.1473 128.938 55.3033 128.518 55.3033 127.99C55.3033 127.486 55.1473 127.096 54.8353 126.82C54.5353 126.532 54.1153 126.388 53.5753 126.388ZM53.3233 131.122C52.7113 131.338 52.2253 131.608 51.8653 131.932C51.5053 132.256 51.3253 132.706 51.3253 133.282C51.3253 133.822 51.5113 134.26 51.8833 134.596C52.2673 134.932 52.7773 135.1 53.4133 135.1C54.0733 135.1 54.5953 134.932 54.9793 134.596C55.3753 134.248 55.5733 133.798 55.5733 133.246C55.5733 132.862 55.4713 132.544 55.2673 132.292C55.0633 132.028 54.8173 131.824 54.5293 131.68C54.2533 131.524 53.8513 131.338 53.3233 131.122Z" fill="black"/>
<path d="M12.8531 127.036H16.9751L17.7311 127L17.7491 128.062L14.2571 135.694L13.4471 137.836L12.2951 137.512L12.2051 137.278L16.3991 128.224H12.6011L11.2331 128.368L11.1431 128.206L11.2331 126.982L12.8531 127.036Z" fill="black"/>
<path d="M19.0558 60.402C19.0678 59.91 18.9538 59.526 18.7138 59.25C18.4738 58.974 18.1198 58.836 17.6518 58.836C16.8838 58.836 16.0858 59.25 15.2578 60.078L15.2218 62.418L15.2938 66H13.8358L13.9438 60.402C13.9558 59.91 13.8418 59.526 13.6018 59.25C13.3618 58.974 13.0078 58.836 12.5398 58.836C11.7838 58.836 10.9678 59.262 10.0918 60.114V62.382L10.1638 66H8.74176L8.83176 62.508L8.75976 57.846L10.1098 57.72V58.926H10.2178C10.9618 58.266 11.7238 57.84 12.5038 57.648C13.1758 57.648 13.7278 57.768 14.1598 58.008C14.5918 58.236 14.8978 58.572 15.0778 59.016H15.1858C15.9418 58.332 16.7518 57.876 17.6158 57.648C18.5278 57.648 19.2178 57.858 19.6858 58.278C20.1538 58.698 20.3818 59.298 20.3698 60.078L20.3338 62.418L20.4058 66H18.9658L19.0558 60.402Z" fill="#828282"/>
<path d="M54.658 64.902C55.054 64.902 55.486 64.782 55.954 64.542L56.116 64.65L55.972 65.586C55.324 65.886 54.724 66.06 54.172 66.108C53.488 65.976 52.996 65.724 52.696 65.352C52.396 64.98 52.246 64.44 52.246 63.732L52.3 62.454L52.282 58.728H51.148L51.076 58.62L51.166 57.774H52.264V56.442L53.506 55.902L53.65 56.028L53.614 57.774H56.062L56.134 57.882L56.044 58.728H53.614L53.524 63.606C53.512 64.086 53.596 64.422 53.776 64.614C53.956 64.806 54.25 64.902 54.658 64.902Z" fill="#828282"/>
<path d="M90.5443 95.964C91.2643 95.964 91.8523 96.15 92.3083 96.522C92.7763 96.882 93.0103 97.362 93.0103 97.962C93.0103 98.442 92.8423 98.982 92.5063 99.582C92.1703 100.17 91.6363 100.89 90.9043 101.742L89.0863 103.812L89.1223 103.884H92.4523L93.9643 103.776L94.0723 103.866L93.8743 105.072L92.0383 105H88.0063L87.3403 105.036L87.2503 104.964V104.064L89.7523 101.346C90.4003 100.626 90.8743 100.032 91.1743 99.564C91.4743 99.084 91.6243 98.664 91.6243 98.304C91.6243 97.98 91.5043 97.716 91.2643 97.512C91.0243 97.296 90.6883 97.188 90.2563 97.188C89.8243 97.188 89.3923 97.296 88.9603 97.512C88.5403 97.728 88.1563 98.028 87.8083 98.412H87.6283L87.3943 97.314C87.8623 96.882 88.3663 96.552 88.9063 96.324C89.4463 96.084 89.9923 95.964 90.5443 95.964Z" fill="black"/>
<path d="M89.9265 133.3C89.0265 133.3 88.3185 133.024 87.8025 132.472C87.2985 131.92 87.0465 131.182 87.0465 130.258C87.0465 129.262 87.3585 128.452 87.9825 127.828C88.6065 127.192 89.4645 126.874 90.5565 126.874C91.6605 126.874 92.4945 127.216 93.0585 127.9C93.6225 128.584 93.9045 129.556 93.9045 130.816C93.9045 132.34 93.4365 133.702 92.5005 134.902C91.5765 136.102 90.2685 137.038 88.5765 137.71H88.4865L87.3705 137.062V136.918C88.8105 136.414 89.9325 135.814 90.7365 135.118C91.5525 134.422 92.0985 133.594 92.3745 132.634L92.2665 132.508C91.5465 133.036 90.7665 133.3 89.9265 133.3ZM90.4485 127.864C89.7765 127.864 89.2545 128.056 88.8825 128.44C88.5105 128.812 88.3245 129.352 88.3245 130.06C88.3245 130.756 88.4985 131.296 88.8465 131.68C89.1945 132.052 89.6865 132.238 90.3225 132.238C91.1145 132.238 91.8705 131.926 92.5905 131.302C92.6025 131.194 92.6085 131.032 92.6085 130.816C92.6085 129.832 92.4345 129.094 92.0865 128.602C91.7385 128.11 91.1925 127.864 90.4485 127.864Z" fill="black"/>
<path d="M86.3075 58.764L87.8195 64.452H87.9275L89.6735 58.836L89.9435 57.756H91.3475L91.5455 58.764L93.0575 64.452H93.1655L94.9115 58.836L95.1815 57.756H96.4235L93.7055 66H92.3555L90.6275 59.61H90.5015L88.5035 66H87.0995L84.7955 57.792L86.1095 57.702L86.3075 58.764Z" fill="#828282"/>
<path d="M128.229 95.946C129.045 95.946 129.705 96.162 130.209 96.594C130.713 97.014 130.965 97.56 130.965 98.232C130.965 98.748 130.809 99.246 130.497 99.726C130.197 100.206 129.753 100.596 129.165 100.896V100.968C129.885 101.136 130.431 101.424 130.803 101.832C131.175 102.24 131.361 102.75 131.361 103.362C131.361 104.022 131.187 104.61 130.839 105.126C130.503 105.642 130.023 106.038 129.399 106.314C128.775 106.602 128.061 106.746 127.257 106.746C126.705 106.746 126.117 106.692 125.493 106.584L125.403 105.36L125.511 105.27C126.075 105.51 126.687 105.63 127.347 105.63C128.139 105.63 128.781 105.438 129.273 105.054C129.765 104.682 130.011 104.178 130.011 103.542C130.011 102.978 129.807 102.534 129.399 102.21C129.003 101.886 128.433 101.712 127.689 101.688H126.627L126.537 101.58L126.573 100.59L127.365 100.572C127.689 100.572 128.019 100.482 128.355 100.302C128.691 100.122 128.967 99.876 129.183 99.564C129.411 99.252 129.525 98.91 129.525 98.538C129.525 98.106 129.381 97.764 129.093 97.512C128.805 97.26 128.427 97.134 127.959 97.134C127.587 97.134 127.221 97.224 126.861 97.404C126.513 97.572 126.135 97.836 125.727 98.196H125.565L125.349 97.062C126.249 96.318 127.209 95.946 128.229 95.946Z" fill="black"/>
<path d="M124.701 127.108L124.611 132.274L124.683 136H123.243L123.333 132.454L123.315 128.602L120.993 129.25L120.849 129.178V128.044L124.485 126.964L124.701 127.108ZM131.699 126.928C132.911 126.928 133.847 127.324 134.507 128.116C135.179 128.896 135.515 130.012 135.515 131.464C135.515 132.952 135.167 134.104 134.471 134.92C133.775 135.724 132.791 136.126 131.519 136.126C130.295 136.126 129.347 135.736 128.675 134.956C128.015 134.176 127.685 133.072 127.685 131.644C127.685 130.132 128.033 128.968 128.729 128.152C129.425 127.336 130.415 126.928 131.699 126.928ZM131.573 128.242C130.661 128.242 129.971 128.518 129.503 129.07C129.047 129.622 128.819 130.444 128.819 131.536C128.819 132.64 129.053 133.474 129.521 134.038C129.989 134.59 130.679 134.866 131.591 134.866C132.503 134.866 133.193 134.596 133.661 134.056C134.141 133.504 134.381 132.694 134.381 131.626C134.381 130.51 134.141 129.67 133.661 129.106C133.193 128.53 132.497 128.242 131.573 128.242Z" fill="black"/>
<path d="M129.658 64.902C130.054 64.902 130.486 64.782 130.954 64.542L131.116 64.65L130.972 65.586C130.324 65.886 129.724 66.06 129.172 66.108C128.488 65.976 127.996 65.724 127.696 65.352C127.396 64.98 127.246 64.44 127.246 63.732L127.3 62.454L127.282 58.728H126.148L126.076 58.62L126.166 57.774H127.264V56.442L128.506 55.902L128.65 56.028L128.614 57.774H131.062L131.134 57.882L131.044 58.728H128.614L128.524 63.606C128.512 64.086 128.596 64.422 128.776 64.614C128.956 64.806 129.25 64.902 129.658 64.902Z" fill="#828282"/>
<path d="M125.703 158.108L125.613 163.274L125.685 167H124.245L124.335 163.454L124.317 159.602L121.995 160.25L121.851 160.178V159.044L125.487 157.964L125.703 158.108ZM129.947 158.036H134.069L134.825 158L134.843 159.062L131.351 166.694L130.541 168.836L129.389 168.512L129.299 168.278L133.493 159.224H129.695L128.327 159.368L128.237 159.206L128.327 157.982L129.947 158.036Z" fill="black"/>
<path d="M10.1232 158.108L10.0332 163.274L10.1052 167H8.66524L8.75524 163.454L8.73724 159.602L6.41524 160.25L6.27124 160.178V159.044L9.90724 157.964L10.1232 158.108ZM18.5967 165.614H18.5607L18.6147 168.548L18.5247 168.656L17.4447 168.746L17.3547 168.638L17.3907 165.614H14.0247L12.8367 165.65L12.7467 165.506V164.588L17.2647 158.036H18.5787L18.5427 164.498H20.2347L20.3427 164.642L20.2527 165.65L18.5967 165.614ZM17.4087 164.498V159.764H17.2827L14.0067 164.498H17.4087Z" fill="black"/>
<path d="M162.363 127.108L162.273 132.274L162.345 136H160.905L160.995 132.454L160.977 128.602L158.655 129.25L158.511 129.178V128.044L162.147 126.964L162.363 127.108ZM168.55 127.108L168.46 132.274L168.532 136H167.092L167.182 132.454L167.164 128.602L164.842 129.25L164.698 129.178V128.044L168.334 126.964L168.55 127.108Z" fill="black"/>
<path d="M166.671 53.328C167.103 53.328 167.571 53.382 168.075 53.49L167.967 54.606L167.859 54.696C167.427 54.48 166.989 54.372 166.545 54.372C166.077 54.372 165.717 54.522 165.465 54.822C165.213 55.11 165.081 55.542 165.069 56.118L165.051 57.774H167.211L167.265 57.882L167.175 58.728H165.033L164.997 62.382L165.087 66H163.665L163.773 62.49L163.737 58.728H162.495L162.423 58.62L162.513 57.774H163.737L163.719 56.334C163.707 55.362 163.959 54.618 164.475 54.102C164.991 53.586 165.723 53.328 166.671 53.328Z" fill="#828282"/>
<path d="M161.194 158.108L161.104 163.274L161.176 167H159.736L159.826 163.454L159.808 159.602L157.486 160.25L157.342 160.178V159.044L160.978 157.964L161.194 158.108ZM167.741 156.344C168.617 156.344 169.301 156.572 169.793 157.028C170.297 157.472 170.549 158.084 170.549 158.864C170.549 159.476 170.393 159.98 170.081 160.376C169.769 160.772 169.343 161.126 168.803 161.438V161.528C169.451 161.84 169.955 162.188 170.315 162.572C170.687 162.944 170.873 163.472 170.873 164.156C170.873 165.056 170.555 165.776 169.919 166.316C169.283 166.856 168.437 167.126 167.381 167.126C166.397 167.126 165.617 166.88 165.041 166.388C164.477 165.884 164.195 165.23 164.195 164.426C164.195 163.754 164.387 163.208 164.771 162.788C165.155 162.356 165.665 161.984 166.301 161.672V161.582C165.797 161.318 165.389 160.994 165.077 160.61C164.765 160.226 164.609 159.722 164.609 159.098C164.609 158.246 164.897 157.574 165.473 157.082C166.049 156.59 166.805 156.344 167.741 156.344ZM167.669 157.388C167.105 157.388 166.655 157.538 166.319 157.838C165.983 158.138 165.815 158.546 165.815 159.062C165.815 159.578 165.971 159.98 166.283 160.268C166.607 160.544 167.069 160.802 167.669 161.042C168.209 160.814 168.629 160.55 168.929 160.25C169.241 159.938 169.397 159.518 169.397 158.99C169.397 158.486 169.241 158.096 168.929 157.82C168.629 157.532 168.209 157.388 167.669 157.388ZM167.417 162.122C166.805 162.338 166.319 162.608 165.959 162.932C165.599 163.256 165.419 163.706 165.419 164.282C165.419 164.822 165.605 165.26 165.977 165.596C166.361 165.932 166.871 166.1 167.507 166.1C168.167 166.1 168.689 165.932 169.073 165.596C169.469 165.248 169.667 164.798 169.667 164.246C169.667 163.862 169.565 163.544 169.361 163.292C169.157 163.028 168.911 162.824 168.623 162.68C168.347 162.524 167.945 162.338 167.417 162.122Z" fill="black"/>
<path d="M50.6945 158.108L50.6045 163.274L50.6765 167H49.2365L49.3265 163.454L49.3085 159.602L46.9865 160.25L46.8425 160.178V159.044L50.4785 157.964L50.6945 158.108ZM59.582 158.072L59.438 159.206L59.33 159.314L58.016 159.206H55.352L55.28 162.014L56.414 162.248C57.53 162.488 58.322 162.836 58.79 163.292C59.258 163.748 59.492 164.348 59.492 165.092C59.492 165.812 59.306 166.448 58.934 167C58.574 167.552 58.064 167.984 57.404 168.296C56.756 168.608 56.018 168.764 55.19 168.764C54.686 168.764 54.122 168.704 53.498 168.584L53.39 167.324L53.516 167.198C54.188 167.486 54.842 167.63 55.478 167.63C56.294 167.63 56.942 167.42 57.422 167C57.902 166.568 58.142 166.01 58.142 165.326C58.142 164.786 57.956 164.354 57.584 164.03C57.224 163.706 56.63 163.466 55.802 163.31L54.272 163.022L54.146 162.896L54.236 158.198L54.47 158L55.424 158.036H57.854L59.51 157.964L59.582 158.072Z" fill="black"/>
<path d="M198.361 127.108L198.271 132.274L198.343 136H196.903L196.993 132.454L196.975 128.602L194.653 129.25L194.509 129.178V128.044L198.145 126.964L198.361 127.108ZM204.638 126.964C205.358 126.964 205.946 127.15 206.402 127.522C206.87 127.882 207.104 128.362 207.104 128.962C207.104 129.442 206.936 129.982 206.6 130.582C206.264 131.17 205.73 131.89 204.998 132.742L203.18 134.812L203.216 134.884H206.546L208.058 134.776L208.166 134.866L207.968 136.072L206.132 136H202.1L201.434 136.036L201.344 135.964V135.064L203.846 132.346C204.494 131.626 204.968 131.032 205.268 130.564C205.568 130.084 205.718 129.664 205.718 129.304C205.718 128.98 205.598 128.716 205.358 128.512C205.118 128.296 204.782 128.188 204.35 128.188C203.918 128.188 203.486 128.296 203.054 128.512C202.634 128.728 202.25 129.028 201.902 129.412H201.722L201.488 128.314C201.956 127.882 202.46 127.552 203 127.324C203.54 127.084 204.086 126.964 204.638 126.964Z" fill="black"/>
<path d="M201.859 57.63C202.543 57.63 203.203 57.762 203.839 58.026L203.641 59.196L203.425 59.25C202.825 58.854 202.249 58.656 201.697 58.656C201.289 58.656 200.959 58.77 200.707 58.998C200.455 59.226 200.329 59.502 200.329 59.826C200.329 60.15 200.455 60.414 200.707 60.618C200.971 60.81 201.373 61.032 201.913 61.284C202.381 61.5 202.753 61.698 203.029 61.878C203.317 62.046 203.563 62.274 203.767 62.562C203.971 62.85 204.073 63.204 204.073 63.624C204.073 64.068 203.959 64.482 203.731 64.866C203.503 65.25 203.167 65.562 202.723 65.802C202.279 66.03 201.751 66.144 201.139 66.144C200.299 66.144 199.501 65.946 198.745 65.55L198.925 64.326L199.087 64.218C199.423 64.506 199.783 64.728 200.167 64.884C200.563 65.04 200.935 65.118 201.283 65.118C201.727 65.118 202.087 64.998 202.363 64.758C202.639 64.506 202.777 64.212 202.777 63.876C202.777 63.552 202.645 63.294 202.381 63.102C202.129 62.898 201.733 62.67 201.193 62.418C200.725 62.202 200.347 62.01 200.059 61.842C199.771 61.662 199.525 61.422 199.321 61.122C199.117 60.822 199.015 60.45 199.015 60.006C199.015 59.31 199.267 58.74 199.771 58.296C200.287 57.852 200.983 57.63 201.859 57.63Z" fill="#828282"/>
<path d="M198.229 158.108L198.139 163.274L198.211 167H196.771L196.861 163.454L196.843 159.602L194.521 160.25L194.377 160.178V159.044L198.013 157.964L198.229 158.108ZM204.02 164.3C203.12 164.3 202.412 164.024 201.896 163.472C201.392 162.92 201.14 162.182 201.14 161.258C201.14 160.262 201.452 159.452 202.076 158.828C202.7 158.192 203.558 157.874 204.65 157.874C205.754 157.874 206.588 158.216 207.152 158.9C207.716 159.584 207.998 160.556 207.998 161.816C207.998 163.34 207.53 164.702 206.594 165.902C205.67 167.102 204.362 168.038 202.67 168.71H202.58L201.464 168.062V167.918C202.904 167.414 204.026 166.814 204.83 166.118C205.646 165.422 206.192 164.594 206.468 163.634L206.36 163.508C205.64 164.036 204.86 164.3 204.02 164.3ZM204.542 158.864C203.87 158.864 203.348 159.056 202.976 159.44C202.604 159.812 202.418 160.352 202.418 161.06C202.418 161.756 202.592 162.296 202.94 162.68C203.288 163.052 203.78 163.238 204.416 163.238C205.208 163.238 205.964 162.926 206.684 162.302C206.696 162.194 206.702 162.032 206.702 161.816C206.702 160.832 206.528 160.094 206.18 159.602C205.832 159.11 205.286 158.864 204.542 158.864Z" fill="black"/>
<path d="M87.2287 158.108L87.1387 163.274L87.2107 167H85.7707L85.8607 163.454L85.8427 159.602L83.5207 160.25L83.3767 160.178V159.044L87.0127 157.964L87.2287 158.108ZM94.1722 160.718C95.0722 160.718 95.7742 160.994 96.2782 161.546C96.7942 162.098 97.0522 162.836 97.0522 163.76C97.0522 164.756 96.7402 165.572 96.1162 166.208C95.4922 166.832 94.6342 167.144 93.5422 167.144C92.4382 167.144 91.6042 166.802 91.0402 166.118C90.4762 165.434 90.1942 164.462 90.1942 163.202C90.1942 161.678 90.6562 160.316 91.5802 159.116C92.5162 157.916 93.8302 156.98 95.5222 156.308H95.6122L96.7282 156.956V157.1C95.2882 157.604 94.1602 158.204 93.3442 158.9C92.5402 159.596 92.0002 160.424 91.7242 161.384L91.8322 161.51C92.5522 160.982 93.3322 160.718 94.1722 160.718ZM93.6502 166.154C94.3222 166.154 94.8442 165.968 95.2162 165.596C95.5882 165.212 95.7742 164.666 95.7742 163.958C95.7742 163.262 95.6002 162.728 95.2522 162.356C94.9042 161.972 94.4122 161.78 93.7762 161.78C92.9842 161.78 92.2282 162.092 91.5082 162.716C91.4962 162.824 91.4902 162.986 91.4902 163.202C91.4902 164.186 91.6642 164.924 92.0122 165.416C92.3602 165.908 92.9062 166.154 93.6502 166.154Z" fill="black"/>
<path d="M237.747 127.108L237.657 132.274L237.729 136H236.289L236.379 132.454L236.361 128.602L234.039 129.25L233.895 129.178V128.044L237.531 126.964L237.747 127.108ZM243.323 126.946C244.139 126.946 244.799 127.162 245.303 127.594C245.807 128.014 246.059 128.56 246.059 129.232C246.059 129.748 245.903 130.246 245.591 130.726C245.291 131.206 244.847 131.596 244.259 131.896V131.968C244.979 132.136 245.525 132.424 245.897 132.832C246.269 133.24 246.455 133.75 246.455 134.362C246.455 135.022 246.281 135.61 245.933 136.126C245.597 136.642 245.117 137.038 244.493 137.314C243.869 137.602 243.155 137.746 242.351 137.746C241.799 137.746 241.211 137.692 240.587 137.584L240.497 136.36L240.605 136.27C241.169 136.51 241.781 136.63 242.441 136.63C243.233 136.63 243.875 136.438 244.367 136.054C244.859 135.682 245.105 135.178 245.105 134.542C245.105 133.978 244.901 133.534 244.493 133.21C244.097 132.886 243.527 132.712 242.783 132.688H241.721L241.631 132.58L241.667 131.59L242.459 131.572C242.783 131.572 243.113 131.482 243.449 131.302C243.785 131.122 244.061 130.876 244.277 130.564C244.505 130.252 244.619 129.91 244.619 129.538C244.619 129.106 244.475 128.764 244.187 128.512C243.899 128.26 243.521 128.134 243.053 128.134C242.681 128.134 242.315 128.224 241.955 128.404C241.607 128.572 241.229 128.836 240.821 129.196H240.659L240.443 128.062C241.343 127.318 242.303 126.946 243.323 126.946Z" fill="black"/>
<path d="M236.271 57.63C236.955 57.63 237.615 57.762 238.251 58.026L238.053 59.196L237.837 59.25C237.237 58.854 236.661 58.656 236.109 58.656C235.701 58.656 235.371 58.77 235.119 58.998C234.867 59.226 234.741 59.502 234.741 59.826C234.741 60.15 234.867 60.414 235.119 60.618C235.383 60.81 235.785 61.032 236.325 61.284C236.793 61.5 237.165 61.698 237.441 61.878C237.729 62.046 237.975 62.274 238.179 62.562C238.383 62.85 238.485 63.204 238.485 63.624C238.485 64.068 238.371 64.482 238.143 64.866C237.915 65.25 237.579 65.562 237.135 65.802C236.691 66.03 236.163 66.144 235.551 66.144C234.711 66.144 233.913 65.946 233.157 65.55L233.337 64.326L233.499 64.218C233.835 64.506 234.195 64.728 234.579 64.884C234.975 65.04 235.347 65.118 235.695 65.118C236.139 65.118 236.499 64.998 236.775 64.758C237.051 64.506 237.189 64.212 237.189 63.876C237.189 63.552 237.057 63.294 236.793 63.102C236.541 62.898 236.145 62.67 235.605 62.418C235.137 62.202 234.759 62.01 234.471 61.842C234.183 61.662 233.937 61.422 233.733 61.122C233.529 60.822 233.427 60.45 233.427 60.006C233.427 59.31 233.679 58.74 234.183 58.296C234.699 57.852 235.395 57.63 236.271 57.63ZM248.063 64.938L247.919 65.748C247.571 65.952 247.229 66.072 246.893 66.108C246.545 66.06 246.263 65.94 246.047 65.748C245.843 65.544 245.699 65.244 245.615 64.848H245.507C244.787 65.496 244.043 65.916 243.275 66.108C242.387 66.108 241.709 65.898 241.241 65.478C240.785 65.058 240.563 64.458 240.575 63.678L240.593 61.392L240.539 57.846L241.979 57.72L241.871 63.336C241.871 63.828 241.985 64.212 242.213 64.488C242.453 64.764 242.801 64.902 243.257 64.902C244.001 64.902 244.745 64.542 245.489 63.822V57.846L246.857 57.72L246.767 64.236C246.767 64.488 246.803 64.668 246.875 64.776C246.959 64.872 247.097 64.92 247.289 64.92C247.481 64.92 247.691 64.884 247.919 64.812L248.063 64.938Z" fill="#828282"/>
<path d="M235.789 156.964C236.509 156.964 237.097 157.15 237.553 157.522C238.021 157.882 238.255 158.362 238.255 158.962C238.255 159.442 238.087 159.982 237.751 160.582C237.415 161.17 236.881 161.89 236.149 162.742L234.331 164.812L234.367 164.884H237.697L239.209 164.776L239.317 164.866L239.119 166.072L237.283 166H233.251L232.585 166.036L232.495 165.964V165.064L234.997 162.346C235.645 161.626 236.119 161.032 236.419 160.564C236.719 160.084 236.869 159.664 236.869 159.304C236.869 158.98 236.749 158.716 236.509 158.512C236.269 158.296 235.933 158.188 235.501 158.188C235.069 158.188 234.637 158.296 234.205 158.512C233.785 158.728 233.401 159.028 233.053 159.412H232.873L232.639 158.314C233.107 157.882 233.611 157.552 234.151 157.324C234.691 157.084 235.237 156.964 235.789 156.964ZM244.701 156.928C245.913 156.928 246.849 157.324 247.509 158.116C248.181 158.896 248.517 160.012 248.517 161.464C248.517 162.952 248.169 164.104 247.473 164.92C246.777 165.724 245.793 166.126 244.521 166.126C243.297 166.126 242.349 165.736 241.677 164.956C241.017 164.176 240.687 163.072 240.687 161.644C240.687 160.132 241.035 158.968 241.731 158.152C242.427 157.336 243.417 156.928 244.701 156.928ZM244.575 158.242C243.663 158.242 242.973 158.518 242.505 159.07C242.049 159.622 241.821 160.444 241.821 161.536C241.821 162.64 242.055 163.474 242.523 164.038C242.991 164.59 243.681 164.866 244.593 164.866C245.505 164.866 246.195 164.596 246.663 164.056C247.143 163.504 247.383 162.694 247.383 161.626C247.383 160.51 247.143 159.67 246.663 159.106C246.195 158.53 245.499 158.242 244.575 158.242Z" fill="black"/>
<path d="M11.4505 186.964C12.1705 186.964 12.7585 187.15 13.2145 187.522C13.6825 187.882 13.9165 188.362 13.9165 188.962C13.9165 189.442 13.7485 189.982 13.4125 190.582C13.0765 191.17 12.5425 191.89 11.8105 192.742L9.99255 194.812L10.0285 194.884H13.3585L14.8705 194.776L14.9785 194.866L14.7805 196.072L12.9445 196H8.91255L8.24655 196.036L8.15655 195.964V195.064L10.6585 192.346C11.3065 191.626 11.7805 191.032 12.0805 190.564C12.3805 190.084 12.5305 189.664 12.5305 189.304C12.5305 188.98 12.4105 188.716 12.1705 188.512C11.9305 188.296 11.5945 188.188 11.1625 188.188C10.7305 188.188 10.2985 188.296 9.86655 188.512C9.44655 188.728 9.06255 189.028 8.71455 189.412H8.53455L8.30055 188.314C8.76855 187.882 9.27255 187.552 9.81255 187.324C10.3525 187.084 10.8985 186.964 11.4505 186.964ZM19.552 187.108L19.462 192.274L19.534 196H18.094L18.184 192.454L18.166 188.602L15.844 189.25L15.7 189.178V188.044L19.336 186.964L19.552 187.108Z" fill="black"/>
<path d="M10.2816 216.964C11.0016 216.964 11.5896 217.15 12.0456 217.522C12.5136 217.882 12.7476 218.362 12.7476 218.962C12.7476 219.442 12.5796 219.982 12.2436 220.582C11.9076 221.17 11.3736 221.89 10.6416 222.742L8.8236 224.812L8.8596 224.884H12.1896L13.7016 224.776L13.8096 224.866L13.6116 226.072L11.7756 226H7.7436L7.0776 226.036L6.9876 225.964V225.064L9.4896 222.346C10.1376 221.626 10.6116 221.032 10.9116 220.564C11.2116 220.084 11.3616 219.664 11.3616 219.304C11.3616 218.98 11.2416 218.716 11.0016 218.512C10.7616 218.296 10.4256 218.188 9.9936 218.188C9.5616 218.188 9.1296 218.296 8.6976 218.512C8.2776 218.728 7.8936 219.028 7.5456 219.412H7.3656L7.1316 218.314C7.5996 217.882 8.1036 217.552 8.6436 217.324C9.1836 217.084 9.7296 216.964 10.2816 216.964ZM18.743 215.344C19.619 215.344 20.303 215.572 20.795 216.028C21.299 216.472 21.551 217.084 21.551 217.864C21.551 218.476 21.395 218.98 21.083 219.376C20.771 219.772 20.345 220.126 19.805 220.438V220.528C20.453 220.84 20.957 221.188 21.317 221.572C21.689 221.944 21.875 222.472 21.875 223.156C21.875 224.056 21.557 224.776 20.921 225.316C20.285 225.856 19.439 226.126 18.383 226.126C17.399 226.126 16.619 225.88 16.043 225.388C15.479 224.884 15.197 224.23 15.197 223.426C15.197 222.754 15.389 222.208 15.773 221.788C16.157 221.356 16.667 220.984 17.303 220.672V220.582C16.799 220.318 16.391 219.994 16.079 219.61C15.767 219.226 15.611 218.722 15.611 218.098C15.611 217.246 15.899 216.574 16.475 216.082C17.051 215.59 17.807 215.344 18.743 215.344ZM18.671 216.388C18.107 216.388 17.657 216.538 17.321 216.838C16.985 217.138 16.817 217.546 16.817 218.062C16.817 218.578 16.973 218.98 17.285 219.268C17.609 219.544 18.071 219.802 18.671 220.042C19.211 219.814 19.631 219.55 19.931 219.25C20.243 218.938 20.399 218.518 20.399 217.99C20.399 217.486 20.243 217.096 19.931 216.82C19.631 216.532 19.211 216.388 18.671 216.388ZM18.419 221.122C17.807 221.338 17.321 221.608 16.961 221.932C16.601 222.256 16.421 222.706 16.421 223.282C16.421 223.822 16.607 224.26 16.979 224.596C17.363 224.932 17.873 225.1 18.509 225.1C19.169 225.1 19.691 224.932 20.075 224.596C20.471 224.248 20.669 223.798 20.669 223.246C20.669 222.862 20.567 222.544 20.363 222.292C20.159 222.028 19.913 221.824 19.625 221.68C19.349 221.524 18.947 221.338 18.419 221.122Z" fill="black"/>
<path d="M49.9486 186.964C50.6686 186.964 51.2566 187.15 51.7126 187.522C52.1806 187.882 52.4146 188.362 52.4146 188.962C52.4146 189.442 52.2466 189.982 51.9106 190.582C51.5746 191.17 51.0406 191.89 50.3086 192.742L48.4906 194.812L48.5266 194.884H51.8566L53.3686 194.776L53.4766 194.866L53.2786 196.072L51.4426 196H47.4106L46.7446 196.036L46.6546 195.964V195.064L49.1566 192.346C49.8046 191.626 50.2786 191.032 50.5786 190.564C50.8786 190.084 51.0286 189.664 51.0286 189.304C51.0286 188.98 50.9086 188.716 50.6686 188.512C50.4286 188.296 50.0926 188.188 49.6606 188.188C49.2286 188.188 48.7966 188.296 48.3646 188.512C47.9446 188.728 47.5606 189.028 47.2126 189.412H47.0326L46.7986 188.314C47.2666 187.882 47.7706 187.552 48.3106 187.324C48.8506 187.084 49.3966 186.964 49.9486 186.964ZM58.14 186.964C58.86 186.964 59.448 187.15 59.904 187.522C60.372 187.882 60.606 188.362 60.606 188.962C60.606 189.442 60.438 189.982 60.102 190.582C59.766 191.17 59.232 191.89 58.5 192.742L56.682 194.812L56.718 194.884H60.048L61.56 194.776L61.668 194.866L61.47 196.072L59.634 196H55.602L54.936 196.036L54.846 195.964V195.064L57.348 192.346C57.996 191.626 58.47 191.032 58.77 190.564C59.07 190.084 59.22 189.664 59.22 189.304C59.22 188.98 59.1 188.716 58.86 188.512C58.62 188.296 58.284 188.188 57.852 188.188C57.42 188.188 56.988 188.296 56.556 188.512C56.136 188.728 55.752 189.028 55.404 189.412H55.224L54.99 188.314C55.458 187.882 55.962 187.552 56.502 187.324C57.042 187.084 57.588 186.964 58.14 186.964Z" fill="black"/>
<path d="M49.8168 216.964C50.5368 216.964 51.1248 217.15 51.5808 217.522C52.0488 217.882 52.2828 218.362 52.2828 218.962C52.2828 219.442 52.1148 219.982 51.7788 220.582C51.4428 221.17 50.9088 221.89 50.1768 222.742L48.3588 224.812L48.3948 224.884H51.7248L53.2368 224.776L53.3448 224.866L53.1468 226.072L51.3108 226H47.2788L46.6128 226.036L46.5228 225.964V225.064L49.0248 222.346C49.6728 221.626 50.1468 221.032 50.4468 220.564C50.7468 220.084 50.8968 219.664 50.8968 219.304C50.8968 218.98 50.7768 218.716 50.5368 218.512C50.2968 218.296 49.9608 218.188 49.5288 218.188C49.0968 218.188 48.6648 218.296 48.2328 218.512C47.8128 218.728 47.4288 219.028 47.0808 219.412H46.9008L46.6668 218.314C47.1348 217.882 47.6388 217.552 48.1788 217.324C48.7188 217.084 49.2648 216.964 49.8168 216.964ZM57.5222 223.3C56.6222 223.3 55.9142 223.024 55.3982 222.472C54.8942 221.92 54.6422 221.182 54.6422 220.258C54.6422 219.262 54.9542 218.452 55.5782 217.828C56.2022 217.192 57.0602 216.874 58.1522 216.874C59.2562 216.874 60.0902 217.216 60.6542 217.9C61.2182 218.584 61.5002 219.556 61.5002 220.816C61.5002 222.34 61.0322 223.702 60.0962 224.902C59.1722 226.102 57.8642 227.038 56.1722 227.71H56.0822L54.9662 227.062V226.918C56.4062 226.414 57.5282 225.814 58.3322 225.118C59.1482 224.422 59.6942 223.594 59.9702 222.634L59.8622 222.508C59.1422 223.036 58.3622 223.3 57.5222 223.3ZM58.0442 217.864C57.3722 217.864 56.8502 218.056 56.4782 218.44C56.1062 218.812 55.9202 219.352 55.9202 220.06C55.9202 220.756 56.0942 221.296 56.4422 221.68C56.7902 222.052 57.2822 222.238 57.9182 222.238C58.7102 222.238 59.4662 221.926 60.1862 221.302C60.1982 221.194 60.2042 221.032 60.2042 220.816C60.2042 219.832 60.0302 219.094 59.6822 218.602C59.3342 218.11 58.7882 217.864 58.0442 217.864Z" fill="black"/>
<path d="M86.8353 186.964C87.5553 186.964 88.1433 187.15 88.5993 187.522C89.0673 187.882 89.3013 188.362 89.3013 188.962C89.3013 189.442 89.1333 189.982 88.7973 190.582C88.4613 191.17 87.9273 191.89 87.1953 192.742L85.3773 194.812L85.4133 194.884H88.7433L90.2553 194.776L90.3633 194.866L90.1653 196.072L88.3293 196H84.2973L83.6313 196.036L83.5413 195.964V195.064L86.0433 192.346C86.6913 191.626 87.1653 191.032 87.4653 190.564C87.7653 190.084 87.9153 189.664 87.9153 189.304C87.9153 188.98 87.7953 188.716 87.5553 188.512C87.3153 188.296 86.9793 188.188 86.5473 188.188C86.1153 188.188 85.6833 188.296 85.2513 188.512C84.8313 188.728 84.4473 189.028 84.0993 189.412H83.9193L83.6853 188.314C84.1533 187.882 84.6573 187.552 85.1973 187.324C85.7373 187.084 86.2833 186.964 86.8353 186.964ZM94.3247 186.946C95.1407 186.946 95.8007 187.162 96.3047 187.594C96.8087 188.014 97.0607 188.56 97.0607 189.232C97.0607 189.748 96.9047 190.246 96.5927 190.726C96.2927 191.206 95.8487 191.596 95.2607 191.896V191.968C95.9807 192.136 96.5267 192.424 96.8987 192.832C97.2707 193.24 97.4567 193.75 97.4567 194.362C97.4567 195.022 97.2827 195.61 96.9347 196.126C96.5987 196.642 96.1187 197.038 95.4947 197.314C94.8707 197.602 94.1567 197.746 93.3527 197.746C92.8007 197.746 92.2127 197.692 91.5887 197.584L91.4987 196.36L91.6067 196.27C92.1707 196.51 92.7827 196.63 93.4427 196.63C94.2347 196.63 94.8767 196.438 95.3687 196.054C95.8607 195.682 96.1067 195.178 96.1067 194.542C96.1067 193.978 95.9027 193.534 95.4947 193.21C95.0987 192.886 94.5287 192.712 93.7847 192.688H92.7227L92.6327 192.58L92.6687 191.59L93.4607 191.572C93.7847 191.572 94.1147 191.482 94.4507 191.302C94.7867 191.122 95.0627 190.876 95.2787 190.564C95.5067 190.252 95.6207 189.91 95.6207 189.538C95.6207 189.106 95.4767 188.764 95.1887 188.512C94.9007 188.26 94.5227 188.134 94.0547 188.134C93.6827 188.134 93.3167 188.224 92.9567 188.404C92.6087 188.572 92.2307 188.836 91.8227 189.196H91.6607L91.4447 188.062C92.3447 187.318 93.3047 186.946 94.3247 186.946Z" fill="black"/>
<path d="M85.4741 216.946C86.2901 216.946 86.9501 217.162 87.4541 217.594C87.9581 218.014 88.2101 218.56 88.2101 219.232C88.2101 219.748 88.0541 220.246 87.7421 220.726C87.4421 221.206 86.9981 221.596 86.4101 221.896V221.968C87.1301 222.136 87.6761 222.424 88.0481 222.832C88.4201 223.24 88.6061 223.75 88.6061 224.362C88.6061 225.022 88.4321 225.61 88.0841 226.126C87.7481 226.642 87.2681 227.038 86.6441 227.314C86.0201 227.602 85.3061 227.746 84.5021 227.746C83.9501 227.746 83.3621 227.692 82.7381 227.584L82.6481 226.36L82.7561 226.27C83.3201 226.51 83.9321 226.63 84.5921 226.63C85.3841 226.63 86.0261 226.438 86.5181 226.054C87.0101 225.682 87.2561 225.178 87.2561 224.542C87.2561 223.978 87.0521 223.534 86.6441 223.21C86.2481 222.886 85.6781 222.712 84.9341 222.688H83.8721L83.7821 222.58L83.8181 221.59L84.6101 221.572C84.9341 221.572 85.2641 221.482 85.6001 221.302C85.9361 221.122 86.2121 220.876 86.4281 220.564C86.6561 220.252 86.7701 219.91 86.7701 219.538C86.7701 219.106 86.6261 218.764 86.3381 218.512C86.0501 218.26 85.6721 218.134 85.2041 218.134C84.8321 218.134 84.4661 218.224 84.1061 218.404C83.7581 218.572 83.3801 218.836 82.9721 219.196H82.8101L82.5941 218.062C83.4941 217.318 84.4541 216.946 85.4741 216.946ZM94.3141 216.928C95.5261 216.928 96.4621 217.324 97.1221 218.116C97.7941 218.896 98.1301 220.012 98.1301 221.464C98.1301 222.952 97.7821 224.104 97.0861 224.92C96.3901 225.724 95.4061 226.126 94.1341 226.126C92.9101 226.126 91.9621 225.736 91.2901 224.956C90.6301 224.176 90.3001 223.072 90.3001 221.644C90.3001 220.132 90.6481 218.968 91.3441 218.152C92.0401 217.336 93.0301 216.928 94.3141 216.928ZM94.1881 218.242C93.2761 218.242 92.5861 218.518 92.1181 219.07C91.6621 219.622 91.4341 220.444 91.4341 221.536C91.4341 222.64 91.6681 223.474 92.1361 224.038C92.6041 224.59 93.2941 224.866 94.2061 224.866C95.1181 224.866 95.8081 224.596 96.2761 224.056C96.7561 223.504 96.9961 222.694 96.9961 221.626C96.9961 220.51 96.7561 219.67 96.2761 219.106C95.8081 218.53 95.1121 218.242 94.1881 218.242Z" fill="black"/>
<path d="M123.211 186.964C123.931 186.964 124.519 187.15 124.975 187.522C125.443 187.882 125.677 188.362 125.677 188.962C125.677 189.442 125.509 189.982 125.173 190.582C124.837 191.17 124.303 191.89 123.571 192.742L121.753 194.812L121.789 194.884H125.119L126.631 194.776L126.739 194.866L126.541 196.072L124.705 196H120.673L120.007 196.036L119.917 195.964V195.064L122.419 192.346C123.067 191.626 123.541 191.032 123.841 190.564C124.141 190.084 124.291 189.664 124.291 189.304C124.291 188.98 124.171 188.716 123.931 188.512C123.691 188.296 123.355 188.188 122.923 188.188C122.491 188.188 122.059 188.296 121.627 188.512C121.207 188.728 120.823 189.028 120.475 189.412H120.295L120.061 188.314C120.529 187.882 121.033 187.552 121.573 187.324C122.113 187.084 122.659 186.964 123.211 186.964ZM133.599 194.614H133.563L133.617 197.548L133.527 197.656L132.447 197.746L132.357 197.638L132.393 194.614H129.027L127.839 194.65L127.749 194.506V193.588L132.267 187.036H133.581L133.545 193.498H135.237L135.345 193.642L135.255 194.65L133.599 194.614ZM132.411 193.498V188.764H132.285L129.009 193.498H132.411Z" fill="black"/>
<path d="M124.135 216.946C124.951 216.946 125.611 217.162 126.115 217.594C126.619 218.014 126.871 218.56 126.871 219.232C126.871 219.748 126.715 220.246 126.403 220.726C126.103 221.206 125.659 221.596 125.071 221.896V221.968C125.791 222.136 126.337 222.424 126.709 222.832C127.081 223.24 127.267 223.75 127.267 224.362C127.267 225.022 127.093 225.61 126.745 226.126C126.409 226.642 125.929 227.038 125.305 227.314C124.681 227.602 123.967 227.746 123.163 227.746C122.611 227.746 122.023 227.692 121.399 227.584L121.309 226.36L121.417 226.27C121.981 226.51 122.593 226.63 123.253 226.63C124.045 226.63 124.687 226.438 125.179 226.054C125.671 225.682 125.917 225.178 125.917 224.542C125.917 223.978 125.713 223.534 125.305 223.21C124.909 222.886 124.339 222.712 123.595 222.688H122.533L122.443 222.58L122.479 221.59L123.271 221.572C123.595 221.572 123.925 221.482 124.261 221.302C124.597 221.122 124.873 220.876 125.089 220.564C125.317 220.252 125.431 219.91 125.431 219.538C125.431 219.106 125.287 218.764 124.999 218.512C124.711 218.26 124.333 218.134 123.865 218.134C123.493 218.134 123.127 218.224 122.767 218.404C122.419 218.572 122.041 218.836 121.633 219.196H121.471L121.255 218.062C122.155 217.318 123.115 216.946 124.135 216.946ZM132.165 217.108L132.075 222.274L132.147 226H130.707L130.797 222.454L130.779 218.602L128.457 219.25L128.313 219.178V218.044L131.949 216.964L132.165 217.108Z" fill="black"/>
<path d="M159.283 186.964C160.003 186.964 160.591 187.15 161.047 187.522C161.515 187.882 161.749 188.362 161.749 188.962C161.749 189.442 161.581 189.982 161.245 190.582C160.909 191.17 160.375 191.89 159.643 192.742L157.825 194.812L157.861 194.884H161.191L162.703 194.776L162.811 194.866L162.613 196.072L160.777 196H156.745L156.079 196.036L155.989 195.964V195.064L158.491 192.346C159.139 191.626 159.613 191.032 159.913 190.564C160.213 190.084 160.363 189.664 160.363 189.304C160.363 188.98 160.243 188.716 160.003 188.512C159.763 188.296 159.427 188.188 158.995 188.188C158.563 188.188 158.131 188.296 157.699 188.512C157.279 188.728 156.895 189.028 156.547 189.412H156.367L156.133 188.314C156.601 187.882 157.105 187.552 157.645 187.324C158.185 187.084 158.731 186.964 159.283 186.964ZM170.084 187.072L169.94 188.206L169.832 188.314L168.518 188.206H165.854L165.782 191.014L166.916 191.248C168.032 191.488 168.824 191.836 169.292 192.292C169.76 192.748 169.994 193.348 169.994 194.092C169.994 194.812 169.808 195.448 169.436 196C169.076 196.552 168.566 196.984 167.906 197.296C167.258 197.608 166.52 197.764 165.692 197.764C165.188 197.764 164.624 197.704 164 197.584L163.892 196.324L164.018 196.198C164.69 196.486 165.344 196.63 165.98 196.63C166.796 196.63 167.444 196.42 167.924 196C168.404 195.568 168.644 195.01 168.644 194.326C168.644 193.786 168.458 193.354 168.086 193.03C167.726 192.706 167.132 192.466 166.304 192.31L164.774 192.022L164.648 191.896L164.738 187.198L164.972 187L165.926 187.036H168.356L170.012 186.964L170.084 187.072Z" fill="black"/>
<path d="M199.317 186.964C200.037 186.964 200.625 187.15 201.081 187.522C201.549 187.882 201.783 188.362 201.783 188.962C201.783 189.442 201.615 189.982 201.279 190.582C200.943 191.17 200.409 191.89 199.677 192.742L197.859 194.812L197.895 194.884H201.225L202.737 194.776L202.845 194.866L202.647 196.072L200.811 196H196.779L196.113 196.036L196.023 195.964V195.064L198.525 192.346C199.173 191.626 199.647 191.032 199.947 190.564C200.247 190.084 200.397 189.664 200.397 189.304C200.397 188.98 200.277 188.716 200.037 188.512C199.797 188.296 199.461 188.188 199.029 188.188C198.597 188.188 198.165 188.296 197.733 188.512C197.313 188.728 196.929 189.028 196.581 189.412H196.401L196.167 188.314C196.635 187.882 197.139 187.552 197.679 187.324C198.219 187.084 198.765 186.964 199.317 186.964ZM208.174 189.718C209.074 189.718 209.776 189.994 210.28 190.546C210.796 191.098 211.054 191.836 211.054 192.76C211.054 193.756 210.742 194.572 210.118 195.208C209.494 195.832 208.636 196.144 207.544 196.144C206.44 196.144 205.606 195.802 205.042 195.118C204.478 194.434 204.196 193.462 204.196 192.202C204.196 190.678 204.658 189.316 205.582 188.116C206.518 186.916 207.832 185.98 209.524 185.308H209.614L210.73 185.956V186.1C209.29 186.604 208.162 187.204 207.346 187.9C206.542 188.596 206.002 189.424 205.726 190.384L205.834 190.51C206.554 189.982 207.334 189.718 208.174 189.718ZM207.652 195.154C208.324 195.154 208.846 194.968 209.218 194.596C209.59 194.212 209.776 193.666 209.776 192.958C209.776 192.262 209.602 191.728 209.254 191.356C208.906 190.972 208.414 190.78 207.778 190.78C206.986 190.78 206.23 191.092 205.51 191.716C205.498 191.824 205.492 191.986 205.492 192.202C205.492 193.186 205.666 193.924 206.014 194.416C206.362 194.908 206.908 195.154 207.652 195.154Z" fill="black"/>
<path d="M235.291 186.964C236.011 186.964 236.599 187.15 237.055 187.522C237.523 187.882 237.757 188.362 237.757 188.962C237.757 189.442 237.589 189.982 237.253 190.582C236.917 191.17 236.383 191.89 235.651 192.742L233.833 194.812L233.869 194.884H237.199L238.711 194.776L238.819 194.866L238.621 196.072L236.785 196H232.753L232.087 196.036L231.997 195.964V195.064L234.499 192.346C235.147 191.626 235.621 191.032 235.921 190.564C236.221 190.084 236.371 189.664 236.371 189.304C236.371 188.98 236.251 188.716 236.011 188.512C235.771 188.296 235.435 188.188 235.003 188.188C234.571 188.188 234.139 188.296 233.707 188.512C233.287 188.728 232.903 189.028 232.555 189.412H232.375L232.141 188.314C232.609 187.882 233.113 187.552 233.653 187.324C234.193 187.084 234.739 186.964 235.291 186.964ZM241.449 187.036H245.571L246.327 187L246.345 188.062L242.853 195.694L242.043 197.836L240.891 197.512L240.801 197.278L244.995 188.224H241.197L239.829 188.368L239.739 188.206L239.829 186.982L241.449 187.036Z" fill="black"/>
<path d="M166.003 103.614H165.967L166.021 106.548L165.931 106.656L164.851 106.746L164.761 106.638L164.797 103.614H161.431L160.243 103.65L160.153 103.506V102.588L164.671 96.036H165.985L165.949 102.498H167.641L167.749 102.642L167.659 103.65L166.003 103.614ZM164.815 102.498V97.764H164.689L161.413 102.498H164.815Z" fill="black"/>
<path d="M204.988 96.072L204.844 97.206L204.736 97.314L203.422 97.206H200.758L200.686 100.014L201.82 100.248C202.936 100.488 203.728 100.836 204.196 101.292C204.664 101.748 204.898 102.348 204.898 103.092C204.898 103.812 204.712 104.448 204.34 105C203.98 105.552 203.47 105.984 202.81 106.296C202.162 106.608 201.424 106.764 200.596 106.764C200.092 106.764 199.528 106.704 198.904 106.584L198.796 105.324L198.922 105.198C199.594 105.486 200.248 105.63 200.884 105.63C201.7 105.63 202.348 105.42 202.828 105C203.308 104.568 203.548 104.01 203.548 103.326C203.548 102.786 203.362 102.354 202.99 102.03C202.63 101.706 202.036 101.466 201.208 101.31L199.678 101.022L199.552 100.896L199.642 96.198L199.876 96L200.83 96.036H203.26L204.916 95.964L204.988 96.072Z" fill="black"/>
<path d="M241.078 98.718C241.978 98.718 242.68 98.994 243.184 99.546C243.7 100.098 243.958 100.836 243.958 101.76C243.958 102.756 243.646 103.572 243.022 104.208C242.398 104.832 241.54 105.144 240.448 105.144C239.344 105.144 238.51 104.802 237.946 104.118C237.382 103.434 237.1 102.462 237.1 101.202C237.1 99.678 237.562 98.316 238.486 97.116C239.422 95.916 240.736 94.98 242.428 94.308H242.518L243.634 94.956V95.1C242.194 95.604 241.066 96.204 240.25 96.9C239.446 97.596 238.906 98.424 238.63 99.384L238.738 99.51C239.458 98.982 240.238 98.718 241.078 98.718ZM240.556 104.154C241.228 104.154 241.75 103.968 242.122 103.596C242.494 103.212 242.68 102.666 242.68 101.958C242.68 101.262 242.506 100.728 242.158 100.356C241.81 99.972 241.318 99.78 240.682 99.78C239.89 99.78 239.134 100.092 238.414 100.716C238.402 100.824 238.396 100.986 238.396 101.202C238.396 102.186 238.57 102.924 238.918 103.416C239.266 103.908 239.812 104.154 240.556 104.154Z" fill="black"/>
<path d="M247.75 19.201C248.75 19.7783 248.75 21.2217 247.75 21.799L239.5 26.5622C238.5 27.1395 237.25 26.4178 237.25 25.2631L237.25 15.7369C237.25 14.5822 238.5 13.8605 239.5 14.4378L247.75 19.201Z" stroke="black" stroke-linecap="round" stroke-linejoin="round"/>
<path d="M9.25 17.799C8.25 17.2217 8.25 15.7783 9.25 15.201L17.5 10.4378C18.5 9.86047 19.75 10.5822 19.75 11.7369L19.75 21.2631C19.75 22.4178 18.5 23.1395 17.5 22.5622L9.25 17.799Z" stroke="black" stroke-linecap="round" stroke-linejoin="round"/>
</svg>
