<svg id="Livello_1" data-name="Livello 1" xmlns="http://www.w3.org/2000/svg" viewBox="0 0 1401.13 613.15"><title>color-system</title><rect x="50.72" y="118.7" width="150" height="150" rx="10" ry="10" style="fill:#05623a"/><rect x="50.72" y="289.7" width="150" height="150" rx="10" ry="10" style="fill:#abdbc6"/><rect x="50.72" y="460.7" width="150" height="150" rx="10" ry="10" style="fill:#dbebe4"/><rect x="336.49" y="118.7" width="150" height="150" rx="10" ry="10" style="fill:#ff6f59"/><rect x="336.49" y="289.7" width="150" height="150" rx="10" ry="10" style="fill:#ffa092"/><rect x="619.41" y="118.7" width="150" height="150" rx="10" ry="10" style="fill:#b43343"/><rect x="934.7" y="289.7" width="150" height="150" rx="10" ry="10" style="fill:none;stroke:#a8a8a8;stroke-miterlimit:10"/><rect x="1251.13" y="118.7" width="150" height="150" rx="10" ry="10" style="fill:#01100a"/><rect x="1251.13" y="289.7" width="150" height="150" rx="10" ry="10" style="fill:#828282"/><rect x="934.7" y="118.7" width="150" height="150" rx="10" ry="10" style="fill:#f6f6f5"/><path d="M166.9,92q4.85,0,7.44,2.45t2.64,7a12,12,0,0,1-1.54,6.14,10.39,10.39,0,0,1-4.42,4,14.54,14.54,0,0,1-6.67,1.44h-3.07v.1l.29,9.79H155l.34-9.22L155,92.09Zm-1.1,16.32q4.42-1.25,4.42-6.29a5,5,0,0,0-1.34-3.84,5.8,5.8,0,0,0-4-1.39l-3.26.19-.19,11.14Zm27-7.73a10.31,10.31,0,0,1,1.2.1v5.9l-.67.24a4.62,4.62,0,0,0-1.78-.34q-2.78,0-5,3.6v3l.34,9.84h-6.38l.38-9.22-.29-12.67,6-.53,0,4.37h.38Q189.27,100.63,192.77,100.63Zm4.78,13.15-.24-12.67,6.29-.53-.29,12.58.29,9.84h-6.38Zm3-24a3,3,0,0,1,2.3.86,3.24,3.24,0,0,1,.86,2.4,3.61,3.61,0,0,1-.91,2.59,3.81,3.81,0,0,1-4.94.1,3.43,3.43,0,0,1-.82-2.45A3.54,3.54,0,0,1,198,90.7,3.5,3.5,0,0,1,200.58,89.74ZM236.38,123l.38-13.92q0-3.55-3-3.55a7.26,7.26,0,0,0-4.51,1.92l-.14,5.76.29,9.79H223l.38-13.92a3.67,3.67,0,0,0-.77-2.64,2.78,2.78,0,0,0-2.26-.91,7.78,7.78,0,0,0-4.66,2v5.62L216,123h-6.34l.34-9.22-.24-12.67,6-.53v3.26h.34a16.2,16.2,0,0,1,5.81-3.46q5.38,0,6.86,3.6H229a15.72,15.72,0,0,1,6.24-3.6,8,8,0,0,1,5.52,1.68,5.64,5.64,0,0,1,1.82,4.75l-.14,6.38.29,9.79Zm20.77-22.75a8.89,8.89,0,0,1,5.76,1.68,5.49,5.49,0,0,1,2.11,4.61q0,.86-.29,5.47,0,1.34-.14,2.78t-.1,2.4a2.06,2.06,0,0,0,.24,1.15,1.08,1.08,0,0,0,.86.29,5.4,5.4,0,0,0,1.25-.19l.48.38-.58,3.36a7.63,7.63,0,0,1-3.5,1.2,4.09,4.09,0,0,1-2.4-1,4.67,4.67,0,0,1-1.3-2.5h-.34a14,14,0,0,1-4.94,3.55,8,8,0,0,1-5.42-1.82,6.2,6.2,0,0,1-2-4.85,5.43,5.43,0,0,1,1.2-3.74,6.51,6.51,0,0,1,3.74-1.87l7.34-1.39v-2q0-3.12-3.07-3.12a8.55,8.55,0,0,0-3.17.67,19.92,19.92,0,0,0-3.7,2.11l-.48-.29-.72-4.22a17.09,17.09,0,0,1,4.42-2A16,16,0,0,1,257.14,100.25ZM254,114.07a2.06,2.06,0,0,0-1.15.67,2.18,2.18,0,0,0-.34,1.34,2.77,2.77,0,0,0,.67,2,2.53,2.53,0,0,0,1.87.67q1.87,0,3.94-2.21l.1-3.55Zm29.5-13.44a10.31,10.31,0,0,1,1.2.1v5.9l-.67.24a4.62,4.62,0,0,0-1.78-.34q-2.78,0-5,3.6v3l.34,9.84h-6.38l.38-9.22-.29-12.67,6-.53,0,4.37h.38Q280,100.63,283.52,100.63Zm8.47,3.46,4,12.48h.38l4-12,.82-3.94h5.47l-7.3,20.83a20.4,20.4,0,0,1-2.59,5.23,11.35,11.35,0,0,1-3.6,3.26,21.9,21.9,0,0,1-5.57,2.21l-.48,0a13.31,13.31,0,0,1-2.69-3.74l.19-.62a16.67,16.67,0,0,0,5-1.58,11.85,11.85,0,0,0,3.74-3.22l-8.16-22.18,6-.29Z" transform="translate(-101.28 -89.3)" style="fill:#01100a"/><path d="M161.72,339.53a6.94,6.94,0,0,1,5.65,2.38,10.11,10.11,0,0,1,2,6.73q0,4.61-2.16,7.16a7.62,7.62,0,0,1-6.12,2.52,7.05,7.05,0,0,1-5.69-2.38,10,10,0,0,1-2-6.66q0-4.64,2.16-7.2A7.68,7.68,0,0,1,161.72,339.53Zm-.36,4.43a4,4,0,0,0-3.2,1.22,5.65,5.65,0,0,0-1,3.78,6,6,0,0,0,1,3.89,4,4,0,0,0,3.24,1.26,4,4,0,0,0,3.2-1.19,5.53,5.53,0,0,0,1.08-3.74,5.94,5.94,0,0,0-1.08-3.92A4,4,0,0,0,161.36,344Zm23.81-4.07-.5,3.71-.36.36L181,343.6h-4.18l-.11,4,2.23.47a8.65,8.65,0,0,1,4.5,2.05,4.89,4.89,0,0,1,1.4,3.67,7.21,7.21,0,0,1-1.15,4,7.41,7.41,0,0,1-3.28,2.66,11.22,11.22,0,0,1-4.79,1,19.57,19.57,0,0,1-4-.43l-.25-3.74.32-.32a13.17,13.17,0,0,0,4.28.83,5,5,0,0,0,3.13-.9,3,3,0,0,0,1.15-2.45,2.34,2.34,0,0,0-.83-1.91,5.6,5.6,0,0,0-2.7-1l-3.46-.61-.32-.4.18-10.26.58-.54,2.09.07h5.26l3.74-.18ZM196.54,345a5.5,5.5,0,0,1,4.36,1.8,6.34,6.34,0,0,1,1.62,4.46,7.22,7.22,0,0,1-.9,3.56,6.42,6.42,0,0,1-2.59,2.59,8.58,8.58,0,0,1-4.14.94,7,7,0,0,1-5.47-2.12,8.72,8.72,0,0,1-1.91-6,12.75,12.75,0,0,1,2.74-8,19.24,19.24,0,0,1,7.74-5.76h.25l3.28,2.12v.47a26.84,26.84,0,0,0-5.9,3,8.69,8.69,0,0,0-3,3.6l.29.32A6.74,6.74,0,0,1,196.54,345Zm-1.44,10.22a2.92,2.92,0,0,0,2.27-.86,3.58,3.58,0,0,0,.83-2.52,3.81,3.81,0,0,0-.79-2.59,2.79,2.79,0,0,0-2.27-.9,6.1,6.1,0,0,0-3.28,1.08v.76a7.91,7.91,0,0,0,.72,3.82A2.73,2.73,0,0,0,195.1,355.23Zm17.33-15.62a6.6,6.6,0,0,1,4.07,1.19,3.74,3.74,0,0,1,1.58,3.2,6.76,6.76,0,0,1-1,3.2,20.41,20.41,0,0,1-3.06,4l-2.7,3,.07.14h4.86l3.24-.29.29.32-.58,3.85-4.36-.22H206.7l-1.33.07-.25-.18V355l4.86-4.79a27,27,0,0,0,2.56-2.92,3.64,3.64,0,0,0,.83-2,1.4,1.4,0,0,0-.54-1.15,2.36,2.36,0,0,0-1.51-.43,5.8,5.8,0,0,0-2.41.58,9.22,9.22,0,0,0-2.34,1.55H206l-.79-3.71A13,13,0,0,1,212.43,339.6Zm15.58-.07a7.09,7.09,0,0,1,4.54,1.37,4.33,4.33,0,0,1,1.73,3.56,5.6,5.6,0,0,1-.83,2.88,6.71,6.71,0,0,1-2.59,2.34v.18q3.92,1.12,3.92,4.79a5.76,5.76,0,0,1-1.15,3.53,7,7,0,0,1-3.17,2.38,12.07,12.07,0,0,1-4.72.86,21.71,21.71,0,0,1-3.89-.36l-.25-3.71.32-.32a11.94,11.94,0,0,0,4,.76A5.35,5.35,0,0,0,229,357a2.55,2.55,0,0,0,1.15-2.23,2.2,2.2,0,0,0-.83-1.84,3.91,3.91,0,0,0-2.45-.72H224.4l-.25-.32.14-3.28,1.58-.07a4.1,4.1,0,0,0,2.45-.86,2.66,2.66,0,0,0,1.08-2.16,1.86,1.86,0,0,0-.65-1.51,2.73,2.73,0,0,0-1.8-.54,5.34,5.34,0,0,0-2.05.43,10.11,10.11,0,0,0-2.2,1.26h-.5l-.72-3.49A11.34,11.34,0,0,1,228,339.53ZM257.19,358h-5l-.58-3-.61-2.16-4.54-.11-4,.11-.61,1.91-.61,3.28h-4.82l7.85-23.18h5.8Zm-7.2-9-2.74-9.65h-.32L243.76,349l3.1.07Z" transform="translate(-101.28 -89.3)" style="fill:#f6f6f5"/><path d="M445.47,338.7l-.11,6.26,3.24,0,3.92-.11.32.36-.36,3.64-4.28-.11-2.92,0,0,1.84.22,7.34h-4.9l.25-6.91-.25-16.27h13.79l.29.4-.36,3.67-5.51-.22Zm16.42,0-.11,6.26,3.24,0,3.92-.11.32.36-.36,3.64-4.28-.11-2.92,0,0,1.84.22,7.34H457l.25-6.91L457,334.82h13.79l.29.4-.36,3.67-5.51-.22Zm18.94,6.3a5.5,5.5,0,0,1,4.36,1.8,6.34,6.34,0,0,1,1.62,4.46,7.21,7.21,0,0,1-.9,3.56,6.42,6.42,0,0,1-2.59,2.59,8.58,8.58,0,0,1-4.14.94,7,7,0,0,1-5.47-2.12,8.72,8.72,0,0,1-1.91-6,12.75,12.75,0,0,1,2.74-8,19.24,19.24,0,0,1,7.74-5.76h.25l3.28,2.12v.47a26.84,26.84,0,0,0-5.9,3,8.69,8.69,0,0,0-3,3.6l.29.32A6.74,6.74,0,0,1,480.82,345Zm-1.44,10.22a2.92,2.92,0,0,0,2.27-.86,3.58,3.58,0,0,0,.83-2.52,3.8,3.8,0,0,0-.79-2.59,2.79,2.79,0,0,0-2.27-.9,6.1,6.1,0,0,0-3.28,1.08v.76a7.91,7.91,0,0,0,.72,3.82A2.73,2.73,0,0,0,479.38,355.23Zm16.32-16.52L495.6,345l3.24,0,3.92-.11.32.36-.36,3.64-4.28-.11-2.92,0,0,1.84.22,7.34h-4.9l.25-6.91-.25-16.27H504.6l.29.4-.36,3.67-5.51-.22Zm23.11,1.19-.5,3.71L518,344l-3.28-.36H510.5l-.11,4,2.23.47a8.65,8.65,0,0,1,4.5,2.05,4.89,4.89,0,0,1,1.4,3.67,7.21,7.21,0,0,1-1.15,4,7.41,7.41,0,0,1-3.28,2.66,11.22,11.22,0,0,1-4.79,1,19.57,19.57,0,0,1-4-.43l-.25-3.74.32-.32a13.17,13.17,0,0,0,4.28.83,5,5,0,0,0,3.13-.9,3,3,0,0,0,1.15-2.45,2.34,2.34,0,0,0-.83-1.91,5.6,5.6,0,0,0-2.7-1l-3.46-.61-.32-.4.18-10.26.58-.54,2.09.07h5.26l3.74-.18Zm8.3,12.89a5.67,5.67,0,0,1-4.39-1.76,6.56,6.56,0,0,1-1.58-4.5A7.45,7.45,0,0,1,522,343a6.43,6.43,0,0,1,2.63-2.56,8.32,8.32,0,0,1,4.14-1,6.91,6.91,0,0,1,5.47,2.16,8.58,8.58,0,0,1,1.91,5.94,12.75,12.75,0,0,1-2.74,8,19.24,19.24,0,0,1-7.74,5.76h-.25l-3.28-2.12v-.47a25.93,25.93,0,0,0,5.87-3,8.6,8.6,0,0,0,3-3.6l-.29-.32A6.74,6.74,0,0,1,527.12,352.78Zm1.44-10.22a3,3,0,0,0-2.3.9,3.55,3.55,0,0,0-.79,2.48,3.93,3.93,0,0,0,.76,2.59,2.91,2.91,0,0,0,2.3.9,6.1,6.1,0,0,0,3.28-1.08v-.76a7.38,7.38,0,0,0-.76-3.78A2.62,2.62,0,0,0,528.56,342.56Z" transform="translate(-101.28 -89.3)" style="fill:#f6f6f5"/><path d="M445.47,509.7l-.11,6.26,3.24,0,3.92-.11.32.36-.36,3.64-4.28-.11-2.92,0,0,1.84.22,7.34h-4.9l.25-6.91-.25-16.27h13.79l.29.4-.36,3.67-5.51-.22Zm16.42,0-.11,6.26,3.24,0,3.92-.11.32.36-.36,3.64-4.28-.11-2.92,0,0,1.84.22,7.34H457l.25-6.91L457,505.82h13.79l.29.4-.36,3.67-5.51-.22ZM490.71,529h-5l-.58-3-.61-2.16-4.54-.11-4,.11-.61,1.91L474.8,529H470l7.85-23.18h5.8Zm-7.2-9-2.74-9.65h-.32L477.28,520l3.1.07Zm17.48-9.5a6.94,6.94,0,0,1,5.65,2.38,10.11,10.11,0,0,1,2,6.73q0,4.61-2.16,7.16a7.62,7.62,0,0,1-6.12,2.52,7.05,7.05,0,0,1-5.69-2.38,10,10,0,0,1-2-6.66q0-4.64,2.16-7.2A7.68,7.68,0,0,1,501,510.53Zm-.36,4.43a4,4,0,0,0-3.2,1.22,5.65,5.65,0,0,0-1,3.78,6,6,0,0,0,1,3.89,4,4,0,0,0,3.24,1.26,4,4,0,0,0,3.2-1.19,5.53,5.53,0,0,0,1.08-3.74,5.94,5.94,0,0,0-1.08-3.92A4,4,0,0,0,500.63,515Zm16.58,8.82a5.67,5.67,0,0,1-4.39-1.76,6.56,6.56,0,0,1-1.58-4.5,7.45,7.45,0,0,1,.86-3.56,6.43,6.43,0,0,1,2.63-2.56,8.32,8.32,0,0,1,4.14-1,6.91,6.91,0,0,1,5.47,2.16,8.58,8.58,0,0,1,1.91,5.94,12.75,12.75,0,0,1-2.74,8,19.24,19.24,0,0,1-7.74,5.76h-.25l-3.28-2.12v-.47a25.93,25.93,0,0,0,5.87-3,8.6,8.6,0,0,0,3-3.6l-.29-.32A6.74,6.74,0,0,1,517.21,523.78Zm1.44-10.22a3,3,0,0,0-2.3.9,3.55,3.55,0,0,0-.79,2.48,3.93,3.93,0,0,0,.76,2.59,2.91,2.91,0,0,0,2.3.9,6.1,6.1,0,0,0,3.28-1.08v-.76a7.38,7.38,0,0,0-.76-3.78A2.62,2.62,0,0,0,518.65,513.56Zm17.51-3a6.6,6.6,0,0,1,4.07,1.19,3.74,3.74,0,0,1,1.58,3.2,6.76,6.76,0,0,1-1,3.2,20.4,20.4,0,0,1-3.06,4l-2.7,3,.07.14H540l3.24-.29.29.32-.58,3.85-4.36-.22h-8.17l-1.33.07-.25-.18V526l4.86-4.79a27,27,0,0,0,2.56-2.92,3.64,3.64,0,0,0,.83-2,1.4,1.4,0,0,0-.54-1.15,2.36,2.36,0,0,0-1.51-.43,5.8,5.8,0,0,0-2.41.58,9.22,9.22,0,0,0-2.34,1.55h-.54l-.79-3.71A13,13,0,0,1,536.16,510.6Z" transform="translate(-101.28 -89.3)" style="fill:#f6f6f5"/><path d="M735.74,346a6.24,6.24,0,0,1,3.49,1.94,5.2,5.2,0,0,1,1.15,3.53q0,6.73-10.55,6.73-3.1,0-6.34-.18l.25-6.91-.25-16.27,8.24,0a9,9,0,0,1,5.54,1.51,5,5,0,0,1,2,4.28,5.77,5.77,0,0,1-.94,3.28A5.57,5.57,0,0,1,735.74,346Zm-1.48-4.75a2.52,2.52,0,0,0-.94-2.23,5.78,5.78,0,0,0-3.28-.68h-1.76l-.11,6.3,3.38.11a3.64,3.64,0,0,0,2-1.19A3.52,3.52,0,0,0,734.26,341.22Zm-3.6,13.46a5.82,5.82,0,0,0,3.49-.9,3,3,0,0,0,1.26-2.59q0-2.56-3.31-3.17l-4,.07,0,2.56.11,3.89A21.86,21.86,0,0,0,730.66,354.69Zm27.8,1.4-3-.07.18,4.86-.25.32-3.74.25-.25-.29.11-5.18h-5.76l-3.13.11-.32-.43v-3l8.82-12.85h4.39l-.11,12.53h3l.29.43Zm-12.06-3.78h5.18v-7.09h-.32ZM767,339.53a7.09,7.09,0,0,1,4.54,1.37,4.33,4.33,0,0,1,1.73,3.56,5.6,5.6,0,0,1-.83,2.88,6.71,6.71,0,0,1-2.59,2.34v.18q3.92,1.12,3.92,4.79a5.76,5.76,0,0,1-1.15,3.53,7,7,0,0,1-3.17,2.38,12.07,12.07,0,0,1-4.72.86,21.71,21.71,0,0,1-3.89-.36l-.25-3.71.32-.32a11.94,11.94,0,0,0,4,.76A5.35,5.35,0,0,0,768,357a2.55,2.55,0,0,0,1.15-2.23,2.2,2.2,0,0,0-.83-1.84,3.91,3.91,0,0,0-2.45-.72h-2.52l-.25-.32.14-3.28,1.58-.07a4.1,4.1,0,0,0,2.45-.86,2.66,2.66,0,0,0,1.08-2.16,1.86,1.86,0,0,0-.65-1.51,2.73,2.73,0,0,0-1.8-.54,5.34,5.34,0,0,0-2.05.43,10.11,10.11,0,0,0-2.2,1.26h-.5l-.72-3.49A11.34,11.34,0,0,1,767,339.53Zm15.5,0A7.09,7.09,0,0,1,787,340.9a4.33,4.33,0,0,1,1.73,3.56,5.6,5.6,0,0,1-.83,2.88,6.71,6.71,0,0,1-2.59,2.34v.18q3.92,1.12,3.92,4.79a5.76,5.76,0,0,1-1.15,3.53,7,7,0,0,1-3.17,2.38,12.07,12.07,0,0,1-4.72.86,21.71,21.71,0,0,1-3.89-.36l-.25-3.71.32-.32a11.94,11.94,0,0,0,4,.76,5.35,5.35,0,0,0,3.13-.79,2.55,2.55,0,0,0,1.15-2.23,2.2,2.2,0,0,0-.83-1.84,3.91,3.91,0,0,0-2.45-.72h-2.52l-.25-.32.14-3.28,1.58-.07a4.1,4.1,0,0,0,2.45-.86,2.66,2.66,0,0,0,1.08-2.16,1.86,1.86,0,0,0-.65-1.51,2.73,2.73,0,0,0-1.8-.54,5.34,5.34,0,0,0-2.05.43,10.11,10.11,0,0,0-2.2,1.26h-.5l-.72-3.49A11.34,11.34,0,0,1,782.49,339.53Zm25.08,16.56-3-.07.18,4.86-.25.32-3.74.25-.25-.29.11-5.18h-5.76l-3.13.11-.32-.43v-3l8.82-12.85h4.39l-.11,12.53h3l.29.43Zm-12.06-3.78h5.18v-7.09h-.32Zm20.59-12.78a7.13,7.13,0,0,1,4.54,1.37,4.33,4.33,0,0,1,1.72,3.56,5.61,5.61,0,0,1-.82,2.88,6.77,6.77,0,0,1-2.6,2.34v.18q3.93,1.12,3.93,4.79a5.81,5.81,0,0,1-1.15,3.53,7.05,7.05,0,0,1-3.17,2.38,12.08,12.08,0,0,1-4.72.86,21.75,21.75,0,0,1-3.89-.36l-.25-3.71L810,357a11.87,11.87,0,0,0,4,.76,5.32,5.32,0,0,0,3.13-.79,2.56,2.56,0,0,0,1.16-2.23,2.2,2.2,0,0,0-.83-1.84,3.91,3.91,0,0,0-2.45-.72H812.5l-.25-.32.14-3.28,1.59-.07a4.09,4.09,0,0,0,2.44-.86,2.66,2.66,0,0,0,1.08-2.16,1.86,1.86,0,0,0-.64-1.51,2.76,2.76,0,0,0-1.8-.54,5.36,5.36,0,0,0-2.06.43,10.08,10.08,0,0,0-2.19,1.26h-.51l-.72-3.49A11.36,11.36,0,0,1,816.1,339.53Z" transform="translate(-101.28 -89.3)" style="fill:#f6f6f5"/><path d="M1362.13,339.53a6.94,6.94,0,0,1,5.65,2.38q2,2.38,2,6.73,0,4.61-2.16,7.16a7.62,7.62,0,0,1-6.12,2.52,7,7,0,0,1-5.69-2.38,10,10,0,0,1-2-6.66q0-4.64,2.16-7.2A7.7,7.7,0,0,1,1362.13,339.53Zm-.36,4.43a4,4,0,0,0-3.2,1.22,5.62,5.62,0,0,0-1.05,3.78,6,6,0,0,0,1.05,3.89,4,4,0,0,0,3.24,1.26,4,4,0,0,0,3.2-1.19,5.53,5.53,0,0,0,1.08-3.74,5.94,5.94,0,0,0-1.08-3.92A4,4,0,0,0,1361.77,344Zm18.81-3.85-.29,10.4.25,7.49h-4.86l.22-7v-6l-4.07,1.08-.36-.25V342l8.43-2.41Zm13,0-.29,10.4.26,7.49h-4.86l.21-7v-6l-4.07,1.08-.36-.25V342l8.43-2.41Zm13.3-.58a6.94,6.94,0,0,1,5.65,2.38,10.13,10.13,0,0,1,2,6.73q0,4.61-2.16,7.16a7.62,7.62,0,0,1-6.12,2.52,7,7,0,0,1-5.69-2.38,10,10,0,0,1-2-6.66q0-4.64,2.16-7.2A7.7,7.7,0,0,1,1406.85,339.53Zm-.36,4.43a4,4,0,0,0-3.21,1.22,5.68,5.68,0,0,0-1,3.78,6.06,6.06,0,0,0,1,3.89,4,4,0,0,0,3.24,1.26,4.06,4.06,0,0,0,3.21-1.19,5.53,5.53,0,0,0,1.08-3.74,5.94,5.94,0,0,0-1.08-3.92A4,4,0,0,0,1406.49,344Zm19.13-4.43a6.94,6.94,0,0,1,5.65,2.38q2,2.38,2,6.73,0,4.61-2.16,7.16a7.62,7.62,0,0,1-6.12,2.52,7.06,7.06,0,0,1-5.69-2.38,10,10,0,0,1-2-6.66q0-4.64,2.16-7.2A7.66,7.66,0,0,1,1425.62,339.53Zm-.36,4.43a4,4,0,0,0-3.2,1.22A5.62,5.62,0,0,0,1421,349a6,6,0,0,0,1.05,3.89,4,4,0,0,0,3.24,1.26,4,4,0,0,0,3.2-1.19,5.53,5.53,0,0,0,1.08-3.74,5.94,5.94,0,0,0-1.08-3.92A4,4,0,0,0,1425.26,344Zm30.44,14h-5l-.57-3-.62-2.16-4.53-.11-4,.11-.61,1.91-.61,3.28H1435l7.85-23.18h5.8Zm-7.2-9-2.74-9.65h-.32l-3.17,9.65,3.1.07Z" transform="translate(-101.28 -89.3)" style="fill:#f6f6f5"/><path d="M1043.67,338.7l-.1,6.26,3.24,0,3.92-.11.32.36-.36,3.64-4.28-.11-2.92,0,0,1.84.21,7.34h-4.89l.25-6.91-.25-16.27h13.79l.28.4-.36,3.67-5.5-.22Zm18.94,6.3a5.51,5.51,0,0,1,4.36,1.8,6.34,6.34,0,0,1,1.62,4.46,7.22,7.22,0,0,1-.9,3.56,6.45,6.45,0,0,1-2.59,2.59,8.62,8.62,0,0,1-4.14.94,7,7,0,0,1-5.48-2.12,8.72,8.72,0,0,1-1.9-6,12.76,12.76,0,0,1,2.73-8,19.33,19.33,0,0,1,7.74-5.76h.25l3.28,2.12v.47a26.66,26.66,0,0,0-5.9,3,8.63,8.63,0,0,0-3,3.6l.29.32A6.73,6.73,0,0,1,1062.61,345Zm-1.44,10.22a2.92,2.92,0,0,0,2.27-.86,3.59,3.59,0,0,0,.83-2.52,3.85,3.85,0,0,0-.79-2.59,2.8,2.8,0,0,0-2.27-.9,6.11,6.11,0,0,0-3.28,1.08v.76a7.91,7.91,0,0,0,.72,3.82A2.74,2.74,0,0,0,1061.17,355.23Zm16.32-16.52-.1,6.26,3.24,0,3.92-.11.32.36-.36,3.64-4.28-.11-2.92,0,0,1.84.21,7.34h-4.89l.25-6.91-.25-16.27h13.79l.28.4-.36,3.67-5.5-.22Zm18.94,6.3a5.51,5.51,0,0,1,4.36,1.8,6.34,6.34,0,0,1,1.62,4.46,7.22,7.22,0,0,1-.9,3.56,6.45,6.45,0,0,1-2.59,2.59,8.62,8.62,0,0,1-4.14.94,7,7,0,0,1-5.48-2.12,8.72,8.72,0,0,1-1.9-6,12.76,12.76,0,0,1,2.73-8,19.32,19.32,0,0,1,7.74-5.76h.25l3.28,2.12v.47a26.66,26.66,0,0,0-5.9,3,8.63,8.63,0,0,0-3,3.6l.29.32A6.73,6.73,0,0,1,1096.43,345ZM1095,355.23a2.92,2.92,0,0,0,2.27-.86,3.59,3.59,0,0,0,.83-2.52,3.85,3.85,0,0,0-.79-2.59,2.8,2.8,0,0,0-2.27-.9,6.11,6.11,0,0,0-3.28,1.08v.76a7.91,7.91,0,0,0,.72,3.82A2.74,2.74,0,0,0,1095,355.23Zm16.32-16.52-.1,6.26,3.24,0,3.92-.11.32.36-.36,3.64-4.28-.11-2.92,0,0,1.84.21,7.34h-4.89l.25-6.91-.25-16.27h13.79l.28.4-.36,3.67-5.5-.22Zm23.12,1.19-.51,3.71-.36.36-3.27-.36h-4.18l-.11,4,2.24.47a8.71,8.71,0,0,1,4.5,2.05,4.91,4.91,0,0,1,1.4,3.67,7.19,7.19,0,0,1-1.15,4,7.41,7.41,0,0,1-3.28,2.66,11.23,11.23,0,0,1-4.79,1,19.69,19.69,0,0,1-4-.43l-.25-3.74.33-.32a13.14,13.14,0,0,0,4.28.83,5,5,0,0,0,3.13-.9,3,3,0,0,0,1.15-2.45,2.34,2.34,0,0,0-.82-1.91,5.67,5.67,0,0,0-2.7-1l-3.46-.61-.32-.4.18-10.26.57-.54,2.09.07h5.26l3.74-.18Z" transform="translate(-101.28 -89.3)" style="fill:#01100a"/><path d="M1361.7,507.58a6.7,6.7,0,0,1,4.53,1.4,5.19,5.19,0,0,1,.83,6.62,8.14,8.14,0,0,1-2.34,2.16V518a8.64,8.64,0,0,1,2.77,2,4.31,4.31,0,0,1,1,3,5.59,5.59,0,0,1-2.12,4.61,8.59,8.59,0,0,1-5.58,1.69,7.8,7.8,0,0,1-5.11-1.51,4.88,4.88,0,0,1-1.8-3.92,4.58,4.58,0,0,1,1-3.1,8,8,0,0,1,2.92-2.05v-.22a7.76,7.76,0,0,1-2.38-2,4.87,4.87,0,0,1-.9-3,5.29,5.29,0,0,1,1.94-4.32A7.86,7.86,0,0,1,1361.7,507.58Zm-.33,3.31a3,3,0,0,0-2.12.68,2.26,2.26,0,0,0-.76,1.8,2.41,2.41,0,0,0,.83,1.91,9,9,0,0,0,2.38,1.3,7,7,0,0,0,1.8-1.37,2.65,2.65,0,0,0,.65-1.84,2.26,2.26,0,0,0-.76-1.8A2.81,2.81,0,0,0,1361.37,510.89Zm-.5,9.11a6.92,6.92,0,0,0-2.23,1.26,2.63,2.63,0,0,0-.76,2,2.69,2.69,0,0,0,.87,2.09,3.67,3.67,0,0,0,2.44.76,3.59,3.59,0,0,0,2.45-.76,2.53,2.53,0,0,0,.9-2,2.26,2.26,0,0,0-.9-1.91A11.37,11.37,0,0,0,1360.87,520Zm18-9.4a6.57,6.57,0,0,1,4.06,1.19,3.73,3.73,0,0,1,1.59,3.2,6.84,6.84,0,0,1-1,3.2,20.89,20.89,0,0,1-3.06,4l-2.7,3,.07.14h4.86L1386,525l.29.32-.58,3.85-4.36-.22h-8.17l-1.33.07-.25-.18V526l4.86-4.79a26.83,26.83,0,0,0,2.55-2.92,3.58,3.58,0,0,0,.83-2,1.4,1.4,0,0,0-.54-1.15,2.35,2.35,0,0,0-1.51-.43,5.78,5.78,0,0,0-2.41.58,9.22,9.22,0,0,0-2.34,1.55h-.54l-.79-3.71A13,13,0,0,1,1378.88,510.6Zm17.52-3a6.7,6.7,0,0,1,4.53,1.4,5.19,5.19,0,0,1,.83,6.62,8.14,8.14,0,0,1-2.34,2.16V518a8.64,8.64,0,0,1,2.77,2,4.31,4.31,0,0,1,1,3,5.59,5.59,0,0,1-2.12,4.61,8.59,8.59,0,0,1-5.58,1.69,7.8,7.8,0,0,1-5.11-1.51,4.88,4.88,0,0,1-1.8-3.92,4.58,4.58,0,0,1,1-3.1,8,8,0,0,1,2.92-2.05v-.22a7.76,7.76,0,0,1-2.38-2,4.87,4.87,0,0,1-.9-3,5.29,5.29,0,0,1,1.94-4.32A7.86,7.86,0,0,1,1396.4,507.58Zm-.33,3.31a3,3,0,0,0-2.12.68,2.26,2.26,0,0,0-.76,1.8,2.41,2.41,0,0,0,.83,1.91,9,9,0,0,0,2.38,1.3,7,7,0,0,0,1.8-1.37,2.65,2.65,0,0,0,.65-1.84,2.26,2.26,0,0,0-.76-1.8A2.81,2.81,0,0,0,1396.07,510.89Zm-.5,9.11a6.92,6.92,0,0,0-2.23,1.26,2.63,2.63,0,0,0-.76,2,2.69,2.69,0,0,0,.87,2.09,3.67,3.67,0,0,0,2.44.76,3.59,3.59,0,0,0,2.45-.76,2.53,2.53,0,0,0,.9-2,2.26,2.26,0,0,0-.9-1.91A11.37,11.37,0,0,0,1395.57,520Zm18-9.4a6.57,6.57,0,0,1,4.06,1.19,3.73,3.73,0,0,1,1.59,3.2,6.84,6.84,0,0,1-1,3.2,20.9,20.9,0,0,1-3.06,4l-2.7,3,.07.14h4.86l3.24-.29.29.32-.58,3.85L1416,529h-8.17l-1.33.07-.25-.18V526l4.86-4.79a26.85,26.85,0,0,0,2.55-2.92,3.58,3.58,0,0,0,.83-2,1.4,1.4,0,0,0-.54-1.15,2.35,2.35,0,0,0-1.51-.43,5.78,5.78,0,0,0-2.41.58,9.22,9.22,0,0,0-2.34,1.55h-.54l-.79-3.71A13,13,0,0,1,1413.58,510.6Zm17.52-3a6.7,6.7,0,0,1,4.53,1.4,5.19,5.19,0,0,1,.83,6.62,8.14,8.14,0,0,1-2.34,2.16V518a8.64,8.64,0,0,1,2.77,2,4.35,4.35,0,0,1,1,3,5.59,5.59,0,0,1-2.12,4.61,8.63,8.63,0,0,1-5.58,1.69,7.84,7.84,0,0,1-5.12-1.51,4.88,4.88,0,0,1-1.8-3.92,4.59,4.59,0,0,1,1.05-3.1,8,8,0,0,1,2.91-2.05v-.22a7.83,7.83,0,0,1-2.37-2,4.87,4.87,0,0,1-.9-3,5.29,5.29,0,0,1,1.94-4.32A7.86,7.86,0,0,1,1431.1,507.58Zm-.33,3.31a3,3,0,0,0-2.12.68,2.23,2.23,0,0,0-.76,1.8,2.41,2.41,0,0,0,.83,1.91,8.79,8.79,0,0,0,2.38,1.3,7.35,7.35,0,0,0,1.8-1.37,2.64,2.64,0,0,0,.64-1.84,2.25,2.25,0,0,0-.75-1.8A2.81,2.81,0,0,0,1430.77,510.89Zm-.5,9.11a6.81,6.81,0,0,0-2.23,1.26,2.63,2.63,0,0,0-.76,2,2.72,2.72,0,0,0,.86,2.09,3.7,3.7,0,0,0,2.45.76,3.61,3.61,0,0,0,2.45-.76,2.53,2.53,0,0,0,.9-2,2.26,2.26,0,0,0-.9-1.91A11.37,11.37,0,0,0,1430.27,520Zm18-9.4a6.58,6.58,0,0,1,4.07,1.19,3.73,3.73,0,0,1,1.59,3.2,6.76,6.76,0,0,1-1,3.2,20.09,20.09,0,0,1-3.06,4l-2.7,3,.08.14h4.86l3.24-.29.28.32-.57,3.85-4.36-.22h-8.17l-1.33.07-.25-.18V526l4.86-4.79a26.85,26.85,0,0,0,2.55-2.92,3.66,3.66,0,0,0,.83-2,1.4,1.4,0,0,0-.54-1.15,2.35,2.35,0,0,0-1.51-.43,5.78,5.78,0,0,0-2.41.58,9.22,9.22,0,0,0-2.34,1.55h-.54l-.8-3.71A13,13,0,0,1,1448.27,510.6Z" transform="translate(-101.28 -89.3)" style="fill:#f6f6f5"/><path d="M1043.67,509.7l-.1,6.26,3.24,0,3.92-.11.32.36-.36,3.64-4.28-.11-2.92,0,0,1.84.21,7.34h-4.89l.25-6.91-.25-16.27h13.79l.28.4-.36,3.67-5.5-.22Zm16.42,0L1060,516l3.24,0,3.93-.11.32.36-.36,3.64-4.28-.11-2.92,0,0,1.84.21,7.34h-4.89l.25-6.91-.25-16.27H1069l.29.4-.36,3.67-5.51-.22Zm16.42,0-.11,6.26,3.24,0,3.93-.11.32.36-.36,3.64-4.28-.11-2.92,0,0,1.84.22,7.34h-4.9l.26-6.91-.26-16.27h13.79l.29.4-.36,3.67-5.51-.22Zm16.42,0-.11,6.26,3.24,0,3.92-.11.33.36-.36,3.64-4.29-.11-2.91,0,0,1.84.22,7.34H1088l.25-6.91-.25-16.27h13.79l.29.4-.36,3.67-5.51-.22Zm16.42,0-.11,6.26,3.24,0,3.92-.11.33.36-.36,3.64-4.29-.11-2.91,0,0,1.84.22,7.34h-4.9l.25-6.91-.25-16.27h13.79l.29.4-.36,3.67-5.51-.22Zm16.41,0-.1,6.26,3.24,0,3.92-.11.32.36-.36,3.64-4.28-.11-2.92,0,0,1.84.21,7.34h-4.89l.25-6.91-.25-16.27h13.79l.28.4-.36,3.67-5.5-.22Z" transform="translate(-101.28 -89.3)" style="fill:#01100a"/><path d="M173,529h-5l-.58-3-.61-2.16-4.54-.11-4,.11-.61,1.91-.61,3.28h-4.82l7.85-23.18h5.8Zm-7.2-9-2.74-9.65h-.32L159.6,520l3.1.07ZM188.63,517a6.24,6.24,0,0,1,3.49,1.94,5.2,5.2,0,0,1,1.15,3.53q0,6.73-10.55,6.73-3.1,0-6.34-.18l.25-6.91-.25-16.27,8.24,0a9,9,0,0,1,5.54,1.51,5,5,0,0,1,2,4.28,5.77,5.77,0,0,1-.94,3.28A5.57,5.57,0,0,1,188.63,517Zm-1.48-4.75a2.52,2.52,0,0,0-.94-2.23,5.78,5.78,0,0,0-3.28-.68h-1.76l-.11,6.3,3.38.11a3.63,3.63,0,0,0,2-1.19A3.52,3.52,0,0,0,187.16,512.22Zm-3.6,13.46a5.82,5.82,0,0,0,3.49-.9,3,3,0,0,0,1.26-2.59q0-2.56-3.31-3.17l-4,.07,0,2.56.11,3.89A21.86,21.86,0,0,0,183.56,525.69Zm23-20q5,0,7.74,2.81t2.7,8.06q0,6.16-3,9.43t-8.64,3.28q-1.69,0-4.07-.07t-4-.18l.25-6.91-.25-16.27Zm-.36,19.8q5.72,0,5.72-7.81,0-4.25-1.4-6.16a4.92,4.92,0,0,0-4.32-1.94q-1.91,0-4.07.18l-.22,11.92.11,3.56Q204.55,525.47,206.21,525.47ZM232.9,517a6.24,6.24,0,0,1,3.49,1.94,5.2,5.2,0,0,1,1.15,3.53q0,6.73-10.55,6.73-3.1,0-6.34-.18l.25-6.91-.25-16.27,8.24,0a9,9,0,0,1,5.54,1.51,5,5,0,0,1,2,4.28,5.77,5.77,0,0,1-.94,3.28A5.57,5.57,0,0,1,232.9,517Zm-1.48-4.75a2.52,2.52,0,0,0-.94-2.23,5.78,5.78,0,0,0-3.28-.68h-1.76l-.11,6.3,3.38.11a3.63,3.63,0,0,0,2-1.19A3.52,3.52,0,0,0,231.42,512.22Zm-3.6,13.46a5.82,5.82,0,0,0,3.49-.9,3,3,0,0,0,1.26-2.59q0-2.56-3.31-3.17l-4,.07,0,2.56.11,3.89A21.86,21.86,0,0,0,227.82,525.69Zm23-20.16a13,13,0,0,1,6.08,1.4L256,511l-.4.18a9.18,9.18,0,0,0-2.38-1.19,8.37,8.37,0,0,0-2.66-.43q-5.72,0-5.72,7.52,0,4.07,1.48,6.12a5.15,5.15,0,0,0,4.39,2,10.05,10.05,0,0,0,2.74-.4,10.62,10.62,0,0,0,2.59-1.15l.43.25-.4,4.14a13.61,13.61,0,0,1-5.76,1.26q-5.18,0-7.92-3t-2.7-8.68q0-5.76,2.88-8.93T250.79,505.53ZM267.52,516a5.5,5.5,0,0,1,4.36,1.8,6.34,6.34,0,0,1,1.62,4.46,7.21,7.21,0,0,1-.9,3.56,6.41,6.41,0,0,1-2.59,2.59,8.58,8.58,0,0,1-4.14.94,7,7,0,0,1-5.47-2.12,8.72,8.72,0,0,1-1.91-6,12.75,12.75,0,0,1,2.74-8,19.24,19.24,0,0,1,7.74-5.76h.25l3.28,2.12v.47a26.84,26.84,0,0,0-5.9,3,8.69,8.69,0,0,0-3,3.6l.29.32A6.74,6.74,0,0,1,267.52,516Zm-1.44,10.22a2.92,2.92,0,0,0,2.27-.86,3.58,3.58,0,0,0,.83-2.52,3.81,3.81,0,0,0-.79-2.59,2.79,2.79,0,0,0-2.27-.9,6.1,6.1,0,0,0-3.28,1.08v.76a7.91,7.91,0,0,0,.72,3.82A2.73,2.73,0,0,0,266.08,526.23Z" transform="translate(-101.28 -89.3)" style="fill:#f6f6f5"/><path d="M164.13,675.67q5,0,7.74,2.81t2.7,8.06q0,6.16-3,9.43t-8.64,3.28q-1.69,0-4.07-.07t-4-.18l.25-6.91-.25-16.27Zm-.36,19.8q5.72,0,5.72-7.81,0-4.25-1.4-6.16a4.92,4.92,0,0,0-4.32-1.94q-1.91,0-4.07.18l-.22,11.92.11,3.56Q162.12,695.47,163.77,695.47Zm26.69-8.5a6.24,6.24,0,0,1,3.49,1.94,5.2,5.2,0,0,1,1.15,3.53q0,6.73-10.55,6.73-3.1,0-6.34-.18l.25-6.91-.25-16.27,8.24,0a9,9,0,0,1,5.54,1.51,5,5,0,0,1,2,4.28,5.77,5.77,0,0,1-.94,3.28A5.57,5.57,0,0,1,190.46,687ZM189,682.22a2.52,2.52,0,0,0-.94-2.23,5.78,5.78,0,0,0-3.28-.68H183l-.11,6.3,3.38.11a3.63,3.63,0,0,0,2-1.19A3.52,3.52,0,0,0,189,682.22Zm-3.6,13.46a5.82,5.82,0,0,0,3.49-.9,3,3,0,0,0,1.26-2.59q0-2.56-3.31-3.17l-4,.07,0,2.56.11,3.89A21.86,21.86,0,0,0,185.39,695.69Zm28.26-.72.29.4-.32,3.64H199.07l.25-6.91-.25-16.27h14.69l.29.4-.36,3.64-5.54-.18-4.18,0-.11,5.58,4,.07,3.78-.11.29.36-.32,3.64-4.1-.11-3.71,0,0,2.48.11,3.49,4.07,0Zm16-8a6.24,6.24,0,0,1,3.49,1.94,5.2,5.2,0,0,1,1.15,3.53q0,6.73-10.55,6.73-3.1,0-6.34-.18l.25-6.91-.25-16.27,8.24,0a9,9,0,0,1,5.54,1.51,5,5,0,0,1,2,4.28,5.77,5.77,0,0,1-.94,3.28A5.57,5.57,0,0,1,229.63,687Zm-1.48-4.75a2.52,2.52,0,0,0-.94-2.23,5.78,5.78,0,0,0-3.28-.68h-1.76l-.11,6.3,3.38.11a3.63,3.63,0,0,0,2-1.19A3.52,3.52,0,0,0,228.15,682.22Zm-3.6,13.46a5.82,5.82,0,0,0,3.49-.9,3,3,0,0,0,1.26-2.59q0-2.56-3.31-3.17l-4,.07,0,2.56.11,3.89A21.86,21.86,0,0,0,224.55,695.69Zm28.26-.72.29.4-.32,3.64H238.23l.25-6.91-.25-16.27h14.69l.29.4-.36,3.64-5.54-.18-4.18,0-.11,5.58,4,.07,3.78-.11.29.36-.32,3.64-4.1-.11-3.71,0,0,2.48.11,3.49,4.07,0Zm17.85,2.12-3-.07.18,4.86-.25.32-3.74.25-.25-.29.11-5.18H258l-3.13.11-.32-.43v-3l8.82-12.85h4.39l-.11,12.53h3l.29.43Zm-12.06-3.78h5.18v-7.09h-.32Z" transform="translate(-101.28 -89.3)" style="fill:#f6f6f5"/><path d="M111.45,274.71a6.9,6.9,0,0,1,5.62,2.38q2,2.34,2,6.7,0,4.54-2.12,7a7.37,7.37,0,0,1-6,2.48,7.1,7.1,0,0,1-5.69-2.34,10,10,0,0,1-2-6.66q0-4.57,2.12-7.06A7.54,7.54,0,0,1,111.45,274.71Zm-.29,3.38q-5,0-5,5.94t5,6a4.71,4.71,0,0,0,3.74-1.44,6.49,6.49,0,0,0,1.3-4.39,6.88,6.88,0,0,0-1.3-4.57A4.65,4.65,0,0,0,111.16,278.1Zm18.12-2.92-.22,10.37.18,7.45h-3.71l.22-7.06,0-7-4.39,1.22L121,280v-2.92l7.74-2.27Z" transform="translate(-101.28 -89.3)" style="fill:#01100a"/><path d="M397.22,274.71a6.9,6.9,0,0,1,5.62,2.38q2,2.34,2,6.7,0,4.54-2.12,7a7.37,7.37,0,0,1-6,2.48,7.1,7.1,0,0,1-5.69-2.34,10,10,0,0,1-2-6.66q0-4.57,2.12-7.06A7.54,7.54,0,0,1,397.22,274.71Zm-.29,3.38q-5,0-5,5.94t5,6a4.71,4.71,0,0,0,3.74-1.44,6.49,6.49,0,0,0,1.3-4.39,6.88,6.88,0,0,0-1.3-4.57A4.65,4.65,0,0,0,396.93,278.1Zm18.12-2.92-.22,10.37L415,293h-3.71l.22-7.06,0-7-4.39,1.22-.32-.22v-2.92l7.74-2.27Z" transform="translate(-101.28 -89.3)" style="fill:#01100a"/><path d="M395.21,445.71a6.9,6.9,0,0,1,5.62,2.38q2,2.34,2,6.7,0,4.54-2.12,7a7.37,7.37,0,0,1-6,2.48,7.1,7.1,0,0,1-5.69-2.34,10,10,0,0,1-2-6.66q0-4.57,2.12-7.06A7.54,7.54,0,0,1,395.21,445.71Zm-.29,3.38q-5,0-5,5.94t5,6a4.71,4.71,0,0,0,3.74-1.44,6.49,6.49,0,0,0,1.3-4.39,6.88,6.88,0,0,0-1.3-4.57A4.65,4.65,0,0,0,394.93,449.1Zm17.94-3.31a6,6,0,0,1,3.78,1.15,3.59,3.59,0,0,1,1.48,3,6.58,6.58,0,0,1-1,3.2,24.21,24.21,0,0,1-3.17,4.21l-3.2,3.64.07.18h5.87l3.13-.29.25.25-.47,3-4-.18H407.5l-1.33.07-.18-.14v-2.27l4.93-5.18a28.44,28.44,0,0,0,2.74-3.31,4.31,4.31,0,0,0,.86-2.3,1.74,1.74,0,0,0-.65-1.4,2.73,2.73,0,0,0-1.8-.54,5.88,5.88,0,0,0-2.52.61,8.66,8.66,0,0,0-2.34,1.69h-.4l-.61-2.84A10.78,10.78,0,0,1,412.87,445.78Z" transform="translate(-101.28 -89.3)" style="fill:#01100a"/><path d="M680.14,274.71a6.9,6.9,0,0,1,5.62,2.38q2,2.34,2,6.7,0,4.54-2.12,7a7.37,7.37,0,0,1-6,2.48,7.1,7.1,0,0,1-5.69-2.34,10,10,0,0,1-2-6.66q0-4.57,2.12-7.06A7.54,7.54,0,0,1,680.14,274.71Zm-.29,3.38q-5,0-5,5.94t5,6a4.71,4.71,0,0,0,3.74-1.44,6.49,6.49,0,0,0,1.3-4.39,6.88,6.88,0,0,0-1.3-4.57A4.65,4.65,0,0,0,679.85,278.1ZM698,275.18l-.22,10.37.18,7.45h-3.71l.22-7.06,0-7L690,280.18l-.32-.22v-2.92l7.74-2.27Z" transform="translate(-101.28 -89.3)" style="fill:#01100a"/><path d="M954.35,264.69l.25,7.31h-3.67l.25-7L951,247l3.67-.29Zm5.79.36-.1-9.4,3.6-.32-.15,9.4.11,7.27H960Zm1.73-17.39a1.85,1.85,0,0,1,1.41.54,2,2,0,0,1,.5,1.44,2.17,2.17,0,0,1-.54,1.55,1.93,1.93,0,0,1-1.48.58,2,2,0,0,1-1.47-.54,2.06,2.06,0,0,1-.51-1.48,1.93,1.93,0,0,1,2.09-2.09Zm22.29,9.5a25.25,25.25,0,0,1-3.1.68L981,258a5.39,5.39,0,0,1,.68,2.77,5.33,5.33,0,0,1-1.83,4.25,7.47,7.47,0,0,1-5,1.55,10.87,10.87,0,0,1-2.2-.22,2.88,2.88,0,0,0-.61.65,1,1,0,0,0-.14.54q0,.72.9,1a21,21,0,0,0,2.91.58,26.28,26.28,0,0,1,3.42.61,5.63,5.63,0,0,1,2.34,1.22,3,3,0,0,1,1,2.38,4.51,4.51,0,0,1-1,2.88,6.83,6.83,0,0,1-2.88,2,10.35,10.35,0,0,1-4,.76,7.45,7.45,0,0,1-4.71-1.33,4.25,4.25,0,0,1-1.66-3.49,7.13,7.13,0,0,1,1.3-1.55,14.06,14.06,0,0,1,1.8-1.37v-.18a5.06,5.06,0,0,1-2-1.12,2.68,2.68,0,0,1-.68-1.91,8,8,0,0,1,2.3-2.2v-.18a4.77,4.77,0,0,1-1.87-1.84,6,6,0,0,1-.61-2.77,5.35,5.35,0,0,1,1.8-4.28,7.29,7.29,0,0,1,4.93-1.58,8.39,8.39,0,0,1,3.31.61,38.62,38.62,0,0,0,5.33-1.26l.33.22ZM975,264.22a3.32,3.32,0,0,0,2.52-.9,3.46,3.46,0,0,0,.9-2.56,3.18,3.18,0,0,0-.83-2.38,3.3,3.3,0,0,0-2.44-.83,3.61,3.61,0,0,0-2.6.86,3.26,3.26,0,0,0-.86,2.45,3.46,3.46,0,0,0,.83,2.48A3.34,3.34,0,0,0,975,264.22Zm4.32,9.79a1.4,1.4,0,0,0-.61-1.22,4.38,4.38,0,0,0-1.48-.65q-.86-.18-2.52-.43a10,10,0,0,1-1.11-.14,7.25,7.25,0,0,0-1.73,1.4,2.19,2.19,0,0,0-.58,1.4,1.84,1.84,0,0,0,.94,1.58,4.92,4.92,0,0,0,2.74.65,6.12,6.12,0,0,0,3.13-.72A2.14,2.14,0,0,0,979.33,274Zm17.83-12.92a2.93,2.93,0,0,0-.65-2.12,2.32,2.32,0,0,0-1.91-.79,6.49,6.49,0,0,0-4.32,2.16l-.07,4.36.25,7.31h-3.67l.25-7-.21-18,3.67-.29-.18,11h.21a11.88,11.88,0,0,1,4.43-2.56,6.09,6.09,0,0,1,4.18,1.26,4.41,4.41,0,0,1,1.4,3.6l-.07,4.68.14,7.27h-3.67Zm14.23,8.14a5.79,5.79,0,0,0,2.52-.65l.36.25-.36,2.3a10.81,10.81,0,0,1-3.67,1.08,5.38,5.38,0,0,1-3.24-1.48,4.89,4.89,0,0,1-1-3.31l.15-2.59,0-7h-2.27l-.14-.22.18-2.12h2.19v-2.63l3.24-1.22.33.29-.07,3.56h4.6l.15.25-.18,2.09h-4.65l-.18,9a2.74,2.74,0,0,0,.44,1.87A2.25,2.25,0,0,0,1011.39,269.23Zm-42.9,30.94a24.58,24.58,0,0,1-3.09.68l-.07.14a5.39,5.39,0,0,1,.68,2.77,5.31,5.31,0,0,1-1.84,4.25,7.44,7.44,0,0,1-5,1.55,10.87,10.87,0,0,1-2.2-.22,2.87,2.87,0,0,0-.61.65,1,1,0,0,0-.15.54q0,.72.9,1a21.5,21.5,0,0,0,2.92.58,26.28,26.28,0,0,1,3.42.61,5.63,5.63,0,0,1,2.34,1.22,3,3,0,0,1,1,2.38,4.46,4.46,0,0,1-1.05,2.88,6.7,6.7,0,0,1-2.88,2,10.3,10.3,0,0,1-4,.76,7.43,7.43,0,0,1-4.71-1.33,4.25,4.25,0,0,1-1.66-3.49,7.13,7.13,0,0,1,1.3-1.55,14.06,14.06,0,0,1,1.8-1.37v-.18a5.06,5.06,0,0,1-2-1.12A2.68,2.68,0,0,1,953,311a8,8,0,0,1,2.3-2.2v-.18a4.77,4.77,0,0,1-1.87-1.84,6,6,0,0,1-.61-2.77,5.35,5.35,0,0,1,1.8-4.28,7.29,7.29,0,0,1,4.93-1.58,8.39,8.39,0,0,1,3.31.61,39,39,0,0,0,5.33-1.26l.32.22Zm-9.14,7.06a3.35,3.35,0,0,0,2.52-.9,3.46,3.46,0,0,0,.9-2.56,3.22,3.22,0,0,0-.83-2.38,3.32,3.32,0,0,0-2.45-.83,3.6,3.6,0,0,0-2.59.86,3.26,3.26,0,0,0-.86,2.45,3.42,3.42,0,0,0,.83,2.48A3.34,3.34,0,0,0,959.35,307.22Zm4.32,9.79a1.4,1.4,0,0,0-.61-1.22,4.38,4.38,0,0,0-1.48-.65q-.85-.18-2.52-.43a9.69,9.69,0,0,1-1.11-.14,7.25,7.25,0,0,0-1.73,1.4,2.14,2.14,0,0,0-.58,1.4,1.82,1.82,0,0,0,.94,1.58,4.9,4.9,0,0,0,2.73.65,6.13,6.13,0,0,0,3.14-.72A2.14,2.14,0,0,0,963.67,317Zm15.59-18.65a6.3,6.3,0,0,1,.9.07v3.49l-.39.11a4.51,4.51,0,0,0-1.33-.18,3.16,3.16,0,0,0-2.09.83,8.23,8.23,0,0,0-1.87,2.66l0,2.38.22,7.27H971l.26-6.95-.22-9.4,3.49-.32,0,3.31h.25a6.85,6.85,0,0,1,2.16-2.48A4.24,4.24,0,0,1,979.26,298.37Zm9.34-.29a6,6,0,0,1,3.92,1.19,4.06,4.06,0,0,1,1.44,3.31c0,.43-.07,1.87-.22,4.32s-.21,3.8-.21,4.21a1.7,1.7,0,0,0,.21,1,1.15,1.15,0,0,0,.83.25,6.07,6.07,0,0,0,1.08-.14l.33.25-.36,2a5.52,5.52,0,0,1-2.27.79,2.81,2.81,0,0,1-1.8-.79,3.21,3.21,0,0,1-.83-1.87h-.25a10.67,10.67,0,0,1-3.75,2.7,5.89,5.89,0,0,1-3.92-1.3,4.35,4.35,0,0,1-1.4-3.42q0-3.2,3.49-4l5.69-1.26,0-1.94a2.76,2.76,0,0,0-.68-2,2.51,2.51,0,0,0-1.91-.68,5.72,5.72,0,0,0-2.45.58,12.79,12.79,0,0,0-2.7,1.73l-.29-.18-.46-2.56A11.37,11.37,0,0,1,988.6,298.08Zm-2.7,10.48a1.37,1.37,0,0,0-1.23,1.55,2.35,2.35,0,0,0,.58,1.69,2.2,2.2,0,0,0,1.62.61q1.7,0,3.6-2.2l.11-2.77Zm14.9-7.92,3.6,10.55h.25l3.6-10.22.61-2.56H1012l-5.72,15.77a15.76,15.76,0,0,1-1.91,3.89,7.85,7.85,0,0,1-2.59,2.34,15.85,15.85,0,0,1-4,1.48h-.33a8.31,8.31,0,0,1-1.51-2.16l.11-.4a11.94,11.94,0,0,0,4-1.37,8.44,8.44,0,0,0,2.7-3l-6.05-16.52,3.46-.18Z" transform="translate(-101.28 -89.3)" style="fill:#01100a"/><path d="M1284.38,285.69l.11,3.46a2,2,0,0,0,.22.94.84.84,0,0,0,.72.25,6.11,6.11,0,0,0,1.11-.14l.33.25-.36,2a5.47,5.47,0,0,1-2.27.79,3.13,3.13,0,0,1-1.84-.76,3.19,3.19,0,0,1-.86-1.76h-.29a22.71,22.71,0,0,1-1.87,1.48,14,14,0,0,1-1.84,1A7,7,0,0,1,1272,291a9.36,9.36,0,0,1-1.91-6.26,8.79,8.79,0,0,1,2.16-6.37,7.91,7.91,0,0,1,6-2.27,15.48,15.48,0,0,1,2.81.29L1281,268l3.64-.29Zm-6.48-7.06a4,4,0,0,0-3.24,1.4,6.51,6.51,0,0,0-1.15,4.18,7.76,7.76,0,0,0,1.08,4.46,3.48,3.48,0,0,0,3,1.55,3.65,3.65,0,0,0,1.72-.43,6.58,6.58,0,0,0,1.77-1.48l.07-2.3-.11-6.55A7.41,7.41,0,0,0,1277.9,278.64Zm18.17-2.56a6,6,0,0,1,3.92,1.19,4.06,4.06,0,0,1,1.44,3.31c0,.43-.07,1.87-.22,4.32s-.21,3.8-.21,4.21a1.7,1.7,0,0,0,.21,1,1.15,1.15,0,0,0,.83.25,6.06,6.06,0,0,0,1.08-.14l.33.25-.36,2a5.52,5.52,0,0,1-2.27.79,2.81,2.81,0,0,1-1.8-.79,3.21,3.21,0,0,1-.83-1.87h-.25a10.67,10.67,0,0,1-3.75,2.7,5.89,5.89,0,0,1-3.92-1.3,4.35,4.35,0,0,1-1.4-3.42q0-3.2,3.49-4l5.69-1.26,0-1.94a2.76,2.76,0,0,0-.68-2,2.51,2.51,0,0,0-1.91-.68,5.71,5.71,0,0,0-2.45.58,12.78,12.78,0,0,0-2.7,1.73l-.29-.18-.46-2.56A11.37,11.37,0,0,1,1296.07,276.08Zm-2.7,10.48a1.58,1.58,0,0,0-.94.5,1.56,1.56,0,0,0-.29,1,2.35,2.35,0,0,0,.58,1.69,2.2,2.2,0,0,0,1.62.61q1.7,0,3.6-2.2l.11-2.77ZM1315,276.37a6.3,6.3,0,0,1,.9.07v3.49l-.39.11a4.5,4.5,0,0,0-1.33-.18,3.16,3.16,0,0,0-2.09.83,8.23,8.23,0,0,0-1.87,2.66l0,2.38.22,7.27h-3.68l.26-6.95-.22-9.4,3.49-.32,0,3.31h.25a6.85,6.85,0,0,1,2.16-2.48A4.24,4.24,0,0,1,1315,276.37Zm7.21,9.32.25,7.31h-3.67l.25-7-.22-18,3.67-.29Zm4.1-1.73q2.55,3.64,6.44,8.39v.43a12.41,12.41,0,0,1-2,.36l-1.33.18-.4-.14a87.47,87.47,0,0,1-6.26-8.89V284l4.71-6,.9-1.58h4Z" transform="translate(-101.28 -89.3)" style="fill:#01100a"/><path d="M939.48,449.64l2.63,10.55h.25l3.06-10.37.62-2.41h3.52l.4,2.23,2.66,10.55h.22l3.06-10.37.58-2.41h3.13L954.28,464h-3.49l-3.06-12h-.29l-3.56,12h-3.6l-4.5-16.52,3.34-.18Zm33.4,3.46a3,3,0,0,0-.65-2.12,2.32,2.32,0,0,0-1.91-.79,6.49,6.49,0,0,0-4.32,2.16l-.07,4.36.25,7.31h-3.67l.25-7-.22-18,3.68-.29-.18,11h.21a11.81,11.81,0,0,1,4.43-2.56,6.09,6.09,0,0,1,4.18,1.26,4.44,4.44,0,0,1,1.4,3.6l-.07,4.68.14,7.27h-3.67Zm8.61,4-.1-9.4,3.6-.32-.15,9.4L985,464h-3.6Zm1.73-17.39a1.85,1.85,0,0,1,1.41.54,2,2,0,0,1,.5,1.44,2.17,2.17,0,0,1-.54,1.55,1.93,1.93,0,0,1-1.48.58,2,2,0,0,1-1.47-.54,2.06,2.06,0,0,1-.51-1.48,1.93,1.93,0,0,1,2.09-2.09Zm12.89,21.56a5.79,5.79,0,0,0,2.52-.65l.36.25-.36,2.3a10.81,10.81,0,0,1-3.67,1.08,5.38,5.38,0,0,1-3.24-1.48,4.89,4.89,0,0,1-1-3.31l.14-2.59,0-7h-2.27l-.14-.22.18-2.12h2.19v-2.63l3.24-1.22.33.29-.08,3.56h4.61l.15.25-.18,2.09H994.2l-.18,9a2.8,2.8,0,0,0,.43,1.87A2.29,2.29,0,0,0,996.11,461.23Zm17.76-5.36-10.11,0a6.17,6.17,0,0,0,1.33,4.18,4.74,4.74,0,0,0,3.67,1.4,9.09,9.09,0,0,0,4.86-1.48l.36.22-.54,3a12.66,12.66,0,0,1-5.11,1.15,7.59,7.59,0,0,1-5.83-2.27,9,9,0,0,1-2.09-6.26,9.18,9.18,0,0,1,2.09-6.34,7.18,7.18,0,0,1,5.65-2.34,6.19,6.19,0,0,1,4.64,1.66,6.31,6.31,0,0,1,1.66,4.68,13.11,13.11,0,0,1-.18,2Zm-2.73-2.84a3.7,3.7,0,0,0-.79-2.56,2.82,2.82,0,0,0-2.24-.86,3.7,3.7,0,0,0-2.73,1.08,5.39,5.39,0,0,0-1.44,3l7.13-.14Z" transform="translate(-101.28 -89.3)" style="fill:#01100a"/><path d="M1284.38,435.69l.11,3.46a2,2,0,0,0,.22.94.84.84,0,0,0,.72.25,6.11,6.11,0,0,0,1.11-.14l.33.25-.36,2a5.47,5.47,0,0,1-2.27.79,3.13,3.13,0,0,1-1.84-.76,3.19,3.19,0,0,1-.86-1.76h-.29a22.71,22.71,0,0,1-1.87,1.48,14,14,0,0,1-1.84,1A7,7,0,0,1,1272,441a9.36,9.36,0,0,1-1.91-6.26,8.79,8.79,0,0,1,2.16-6.37,7.91,7.91,0,0,1,6-2.27,15.48,15.48,0,0,1,2.81.29L1281,418l3.64-.29Zm-6.48-7.06a4,4,0,0,0-3.24,1.4,6.51,6.51,0,0,0-1.15,4.18,7.76,7.76,0,0,0,1.08,4.46,3.48,3.48,0,0,0,3,1.55,3.65,3.65,0,0,0,1.72-.43,6.58,6.58,0,0,0,1.77-1.48l.07-2.3-.11-6.55A7.41,7.41,0,0,0,1277.9,428.64Zm18.17-2.56a6,6,0,0,1,3.92,1.19,4.06,4.06,0,0,1,1.44,3.31c0,.43-.07,1.87-.22,4.32s-.21,3.8-.21,4.21a1.7,1.7,0,0,0,.21,1,1.15,1.15,0,0,0,.83.25,6.06,6.06,0,0,0,1.08-.14l.33.25-.36,2a5.52,5.52,0,0,1-2.27.79,2.81,2.81,0,0,1-1.8-.79,3.21,3.21,0,0,1-.83-1.87h-.25a10.67,10.67,0,0,1-3.75,2.7,5.89,5.89,0,0,1-3.92-1.3,4.35,4.35,0,0,1-1.4-3.42q0-3.2,3.49-4l5.69-1.26,0-1.94a2.76,2.76,0,0,0-.68-2,2.51,2.51,0,0,0-1.91-.68,5.71,5.71,0,0,0-2.45.58,12.78,12.78,0,0,0-2.7,1.73l-.29-.18-.46-2.56A11.37,11.37,0,0,1,1296.07,426.08Zm-2.7,10.48a1.58,1.58,0,0,0-.94.5,1.56,1.56,0,0,0-.29,1,2.35,2.35,0,0,0,.58,1.69,2.2,2.2,0,0,0,1.62.61q1.7,0,3.6-2.2l.11-2.77ZM1315,426.37a6.3,6.3,0,0,1,.9.07v3.49l-.39.11a4.5,4.5,0,0,0-1.33-.18,3.16,3.16,0,0,0-2.09.83,8.23,8.23,0,0,0-1.87,2.66l0,2.38.22,7.27h-3.68l.26-6.95-.22-9.4,3.49-.32,0,3.31h.25a6.85,6.85,0,0,1,2.16-2.48A4.24,4.24,0,0,1,1315,426.37Zm7.21,9.32.25,7.31h-3.67l.25-7-.22-18,3.67-.29Zm4.1-1.73q2.55,3.64,6.44,8.39v.43a12.41,12.41,0,0,1-2,.36l-1.33.18-.4-.14a87.47,87.47,0,0,1-6.26-8.89V434l4.71-6,.9-1.58h4Zm-38.67,37.2a24.4,24.4,0,0,1-3.1.68l-.07.14a5.86,5.86,0,0,1-1.15,7,7.45,7.45,0,0,1-5,1.55,10.7,10.7,0,0,1-2.19-.22,3,3,0,0,0-.62.65,1.13,1.13,0,0,0-.14.54q0,.72.9,1a21.17,21.17,0,0,0,2.92.58,26.93,26.93,0,0,1,3.42.61A5.63,5.63,0,0,1,1285,485a3,3,0,0,1,1,2.38,4.45,4.45,0,0,1-1,2.88,6.83,6.83,0,0,1-2.88,2,10.3,10.3,0,0,1-4,.76,7.46,7.46,0,0,1-4.72-1.33,4.27,4.27,0,0,1-1.65-3.49,7.37,7.37,0,0,1,1.29-1.55,15.64,15.64,0,0,1,1.8-1.37v-.18a4.94,4.94,0,0,1-1.94-1.12,2.64,2.64,0,0,1-.69-1.91,8.16,8.16,0,0,1,2.31-2.2v-.18a4.71,4.71,0,0,1-1.87-1.84,6,6,0,0,1-.62-2.77,5.35,5.35,0,0,1,1.8-4.28,7.31,7.31,0,0,1,4.94-1.58,8.42,8.42,0,0,1,3.31.61,39.31,39.31,0,0,0,5.33-1.26l.32.22Zm-9.14,7.06a3.35,3.35,0,0,0,2.52-.9,3.46,3.46,0,0,0,.9-2.56,3.22,3.22,0,0,0-.83-2.38,3.32,3.32,0,0,0-2.45-.83,3.59,3.59,0,0,0-2.59.86,3.22,3.22,0,0,0-.87,2.45,3.46,3.46,0,0,0,.83,2.48A3.38,3.38,0,0,0,1278.53,478.22Zm4.32,9.79a1.41,1.41,0,0,0-.62-1.22,4.32,4.32,0,0,0-1.47-.65q-.87-.18-2.52-.43a10.32,10.32,0,0,1-1.12-.14,7.45,7.45,0,0,0-1.73,1.4,2.18,2.18,0,0,0-.57,1.4,1.83,1.83,0,0,0,.93,1.58,4.92,4.92,0,0,0,2.74.65,6.09,6.09,0,0,0,3.13-.72A2.13,2.13,0,0,0,1282.85,488Zm15.59-18.65a6.53,6.53,0,0,1,.9.07v3.49l-.4.11a4.41,4.41,0,0,0-1.33-.18,3.18,3.18,0,0,0-2.09.83,8.39,8.39,0,0,0-1.87,2.66l0,2.38.21,7.27h-3.67l.25-6.95-.21-9.4,3.49-.32,0,3.31h.25a6.85,6.85,0,0,1,2.16-2.48A4.29,4.29,0,0,1,1298.44,469.37Zm15.95,8.5-10.12,0a6.22,6.22,0,0,0,1.33,4.18,4.77,4.77,0,0,0,3.68,1.4,9.14,9.14,0,0,0,4.86-1.48l.36.22-.54,3a12.74,12.74,0,0,1-5.12,1.15,7.61,7.61,0,0,1-5.83-2.27,9,9,0,0,1-2.09-6.26,9.18,9.18,0,0,1,2.09-6.34,7.2,7.2,0,0,1,5.65-2.34,6.21,6.21,0,0,1,4.65,1.66,6.34,6.34,0,0,1,1.65,4.68,13.11,13.11,0,0,1-.18,2Zm-2.74-2.84a3.65,3.65,0,0,0-.79-2.56,2.8,2.8,0,0,0-2.23-.86,3.71,3.71,0,0,0-2.74,1.08,5.39,5.39,0,0,0-1.44,3l7.13-.14Zm8.85-3.38,3.6,10.55h.25L1328,472l.62-2.56h3.16L1326,485.17a15.41,15.41,0,0,1-1.91,3.89,7.75,7.75,0,0,1-2.59,2.34,15.85,15.85,0,0,1-4,1.48h-.32a8.33,8.33,0,0,1-1.52-2.16l.11-.4a11.86,11.86,0,0,0,4-1.37,8.26,8.26,0,0,0,2.7-3l-6-16.52,3.45-.18Z" transform="translate(-101.28 -89.3)" style="fill:#01100a"/><path d="M109.45,445.71a6.9,6.9,0,0,1,5.62,2.38q2,2.34,2,6.7,0,4.54-2.12,7a7.37,7.37,0,0,1-6,2.48,7.1,7.1,0,0,1-5.69-2.34,10,10,0,0,1-2-6.66q0-4.57,2.12-7.06A7.54,7.54,0,0,1,109.45,445.71Zm-.29,3.38q-5,0-5,5.94t5,6a4.71,4.71,0,0,0,3.74-1.44,6.49,6.49,0,0,0,1.3-4.39,6.88,6.88,0,0,0-1.3-4.57A4.65,4.65,0,0,0,109.16,449.1Zm17.94-3.31a6,6,0,0,1,3.78,1.15,3.59,3.59,0,0,1,1.48,3,6.58,6.58,0,0,1-1,3.2,24.2,24.2,0,0,1-3.17,4.21L125,461l.07.18h5.87l3.13-.29.25.25-.47,3-4-.18h-8.14l-1.33.07-.18-.14v-2.27l4.93-5.18a28.44,28.44,0,0,0,2.74-3.31,4.31,4.31,0,0,0,.86-2.3,1.74,1.74,0,0,0-.65-1.4,2.73,2.73,0,0,0-1.8-.54,5.88,5.88,0,0,0-2.52.61,8.66,8.66,0,0,0-2.34,1.69h-.4l-.61-2.84A10.78,10.78,0,0,1,127.1,445.78Z" transform="translate(-101.28 -89.3)" style="fill:#01100a"/><path d="M110.2,616.71a6.9,6.9,0,0,1,5.62,2.38q2,2.34,2,6.7,0,4.54-2.12,7a7.37,7.37,0,0,1-6,2.48,7.1,7.1,0,0,1-5.69-2.34,10,10,0,0,1-2-6.66q0-4.57,2.12-7.06A7.54,7.54,0,0,1,110.2,616.71Zm-.29,3.38q-5,0-5,5.94t5,6a4.71,4.71,0,0,0,3.74-1.44,6.49,6.49,0,0,0,1.3-4.39,6.88,6.88,0,0,0-1.3-4.57A4.65,4.65,0,0,0,109.92,620.1Zm16.54-3.35a6.45,6.45,0,0,1,4.21,1.3,4.16,4.16,0,0,1,1.62,3.42,5.67,5.67,0,0,1-.86,3,6.59,6.59,0,0,1-2.66,2.34v.14a5.91,5.91,0,0,1,3.1,1.76,4.27,4.27,0,0,1,1.08,3,6.07,6.07,0,0,1-1.08,3.56,6.62,6.62,0,0,1-3,2.38,10.89,10.89,0,0,1-4.46.86,23.5,23.5,0,0,1-3.71-.32l-.18-3,.25-.25a9.54,9.54,0,0,0,3.82.79,5.75,5.75,0,0,0,3.53-1,3.25,3.25,0,0,0,1.33-2.74,2.78,2.78,0,0,0-1-2.3,4.93,4.93,0,0,0-3-.94h-2.27l-.22-.25.11-2.52,1.58,0a4.15,4.15,0,0,0,1.87-.47,4,4,0,0,0,1.51-1.3,3.07,3.07,0,0,0,.61-1.87,2.24,2.24,0,0,0-.79-1.84,2.94,2.94,0,0,0-2.05-.68,4.84,4.84,0,0,0-2.12.5,10.31,10.31,0,0,0-2.27,1.48h-.4l-.54-2.77A9.73,9.73,0,0,1,126.45,616.75Z" transform="translate(-101.28 -89.3)" style="fill:#01100a"/><path d="M425.62,91.7a20.59,20.59,0,0,1,7.82,1.58l-1.06,5.62-1,.38A15.27,15.27,0,0,0,428,97.46a8.81,8.81,0,0,0-3.17-.67,4.37,4.37,0,0,0-3.07,1.06,3,3,0,0,0-1.15,2.35,2.88,2.88,0,0,0,1.25,2.35,25.47,25.47,0,0,0,4,2.26,33.69,33.69,0,0,1,4.27,2.26,9.06,9.06,0,0,1,2.83,2.69,6.92,6.92,0,0,1,1.2,4.13,8.69,8.69,0,0,1-1.44,4.85,10.13,10.13,0,0,1-4.08,3.46,14.11,14.11,0,0,1-6.1,1.25,23.19,23.19,0,0,1-9.17-2l.91-6,.72-.38a14.66,14.66,0,0,0,4.18,2.59,11.83,11.83,0,0,0,4.08.86,4.8,4.8,0,0,0,3.26-1,3.23,3.23,0,0,0,1.2-2.5,3,3,0,0,0-1.3-2.5,24.06,24.06,0,0,0-4.08-2.3,36.14,36.14,0,0,1-4.22-2.16,9.27,9.27,0,0,1-2.78-2.69,7,7,0,0,1-1.15-4.08,8.54,8.54,0,0,1,1.44-4.85,9.72,9.72,0,0,1,4-3.46A13.44,13.44,0,0,1,425.62,91.7Zm29.68,20.93-13,.1q.43,6,6.1,6a16,16,0,0,0,6.62-1.68l.53.34-1,4.75a19.9,19.9,0,0,1-6.86,1.34,11.12,11.12,0,0,1-8.3-3.07q-3-3.07-3-8.5t2.93-8.5a10.26,10.26,0,0,1,7.92-3.17,8.79,8.79,0,0,1,6.58,2.35,8.66,8.66,0,0,1,2.35,6.48,20.37,20.37,0,0,1-.24,2.78Zm-4.61-4.27a4.19,4.19,0,0,0-.86-2.88,3.17,3.17,0,0,0-2.54-1,4.23,4.23,0,0,0-3.12,1.25,6.33,6.33,0,0,0-1.68,3.5l8.11-.19Zm19.14-8.11a14.56,14.56,0,0,1,3.12.34,11,11,0,0,1,2.78.86l-1.06,5.09-.53.24a9.3,9.3,0,0,0-4.37-1.34,4,4,0,0,0-3.41,1.58,7.35,7.35,0,0,0-1.2,4.51,8.63,8.63,0,0,0,1.3,5.14,4.3,4.3,0,0,0,3.7,1.78,11.75,11.75,0,0,0,4.8-1.2l.48.38-.62,4.94a19.44,19.44,0,0,1-5.9.91,9,9,0,0,1-7.2-3q-2.59-3-2.59-8.4,0-5.57,2.83-8.69A10,10,0,0,1,469.84,100.25Zm18.56,0q4.9,0,7.49,2.88t2.59,8.3q0,5.86-2.78,9t-8,3.07q-4.9,0-7.49-2.88t-2.59-8.3q0-5.86,2.78-8.93T488.4,100.25Zm-.43,4.32a3.79,3.79,0,0,0-3.36,1.54,9.28,9.28,0,0,0-1,4.94q0,4.42,1.06,6.29a3.66,3.66,0,0,0,3.46,1.87,3.71,3.71,0,0,0,3.31-1.49,9,9,0,0,0,1.06-5q0-4.37-1.1-6.24A3.6,3.6,0,0,0,488,104.57Zm28.33,4.51a3.6,3.6,0,0,0-.77-2.59,2.72,2.72,0,0,0-2.26-1,7.36,7.36,0,0,0-4.61,2.06v5.57L509,123h-6.38l.34-9.22-.24-12.67,6-.53v3.26h.34a16.29,16.29,0,0,1,5.76-3.46,8.21,8.21,0,0,1,5.57,1.68,5.64,5.64,0,0,1,1.82,4.75l-.14,6.38.29,9.79h-6.43Zm30.3,4.08.14,4a2.49,2.49,0,0,0,.19,1.15,1,1,0,0,0,.82.29,5.51,5.51,0,0,0,1.3-.19l.43.38-.53,3.36a8.23,8.23,0,0,1-3.55,1.2,4.38,4.38,0,0,1-2.5-1,4.47,4.47,0,0,1-1.39-2.35h-.38a19.31,19.31,0,0,1-4.8,3.31,9.16,9.16,0,0,1-7.3-3q-2.59-3-2.59-8.35,0-5.66,3-8.69t8.26-3a18.3,18.3,0,0,1,3.07.29l-.1-10.8L547,89.3Zm-9.36-8.54q-4.8,0-4.8,6.1a11.3,11.3,0,0,0,1.15,5.71,3.69,3.69,0,0,0,3.36,1.92,5.2,5.2,0,0,0,3.89-2l.1-2.64-.14-8.26A8.49,8.49,0,0,0,537.25,104.62ZM562,100.25a8.89,8.89,0,0,1,5.76,1.68,5.49,5.49,0,0,1,2.11,4.61q0,.86-.29,5.47,0,1.34-.14,2.78t-.1,2.4a2.06,2.06,0,0,0,.24,1.15,1.08,1.08,0,0,0,.86.29,5.4,5.4,0,0,0,1.25-.19l.48.38-.58,3.36a7.63,7.63,0,0,1-3.5,1.2,4.09,4.09,0,0,1-2.4-1,4.67,4.67,0,0,1-1.3-2.5h-.34a14,14,0,0,1-4.94,3.55,8,8,0,0,1-5.42-1.82,6.2,6.2,0,0,1-2-4.85A5.43,5.43,0,0,1,553,113a6.51,6.51,0,0,1,3.74-1.87l7.34-1.39v-2q0-3.12-3.07-3.12a8.55,8.55,0,0,0-3.17.67,19.92,19.92,0,0,0-3.7,2.11l-.48-.29-.72-4.22a17.09,17.09,0,0,1,4.42-2A16,16,0,0,1,562,100.25Zm-3.12,13.82a2.06,2.06,0,0,0-1.15.67,2.18,2.18,0,0,0-.34,1.34,2.77,2.77,0,0,0,.67,2,2.53,2.53,0,0,0,1.87.67q1.87,0,3.94-2.21L564,113Zm29.5-13.44a10.31,10.31,0,0,1,1.2.1v5.9l-.67.24a4.62,4.62,0,0,0-1.78-.34q-2.78,0-5,3.6v3l.34,9.84h-6.38l.38-9.22-.29-12.67,6-.53,0,4.37h.38Q584.91,100.63,588.41,100.63Zm8.47,3.46,4,12.48h.38l4-12,.82-3.94h5.47l-7.3,20.83a20.4,20.4,0,0,1-2.59,5.23A11.35,11.35,0,0,1,598,130a21.9,21.9,0,0,1-5.57,2.21l-.48,0a13.31,13.31,0,0,1-2.69-3.74l.19-.62a16.67,16.67,0,0,0,5-1.58,11.84,11.84,0,0,0,3.74-3.22l-8.16-22.18,6-.29Z" transform="translate(-101.28 -89.3)" style="fill:#01100a"/><path d="M738.82,92.62l-.38,4.85-5.81-.29h-1.92l-.24,16,.29,9.79h-6.53l.34-9.22-.24-16.61h-1.92l-5.9.29-.43-.53.43-4.85h21.94Zm17.83,20-13,.1q.43,6,6.1,6a16,16,0,0,0,6.62-1.68l.53.34-1,4.75a19.9,19.9,0,0,1-6.86,1.34,11.12,11.12,0,0,1-8.3-3.07q-3-3.07-3-8.5t2.93-8.5a10.26,10.26,0,0,1,7.92-3.17,8.79,8.79,0,0,1,6.58,2.35,8.66,8.66,0,0,1,2.35,6.48,20.37,20.37,0,0,1-.24,2.78ZM752,108.36a4.19,4.19,0,0,0-.86-2.88,3.17,3.17,0,0,0-2.54-1,4.23,4.23,0,0,0-3.12,1.25,6.33,6.33,0,0,0-1.68,3.5l8.11-.19Zm22.3-7.73a10.31,10.31,0,0,1,1.2.1v5.9l-.67.24a4.62,4.62,0,0,0-1.78-.34q-2.78,0-5,3.6v3l.34,9.84H762l.38-9.22-.29-12.67,6-.53,0,4.37h.38Q770.85,100.63,774.35,100.63Zm13.52-.38a14.56,14.56,0,0,1,3.12.34,11,11,0,0,1,2.78.86l-1.06,5.09-.53.24a9.3,9.3,0,0,0-4.37-1.34,4,4,0,0,0-3.41,1.58,7.35,7.35,0,0,0-1.2,4.51,8.63,8.63,0,0,0,1.3,5.14,4.3,4.3,0,0,0,3.7,1.78,11.75,11.75,0,0,0,4.8-1.2l.48.38-.62,4.94a19.44,19.44,0,0,1-5.9.91,9,9,0,0,1-7.2-3q-2.59-3-2.59-8.4,0-5.57,2.83-8.69A10,10,0,0,1,787.87,100.25Zm9.73,13.54-.24-12.67,6.29-.53-.29,12.58.29,9.84h-6.38Zm3-24a3,3,0,0,1,2.3.86,3.23,3.23,0,0,1,.87,2.4,3.6,3.6,0,0,1-.92,2.59,3.26,3.26,0,0,1-2.49,1,3.31,3.31,0,0,1-2.45-.86,3.43,3.43,0,0,1-.82-2.45A3.54,3.54,0,0,1,798,90.7,3.5,3.5,0,0,1,800.63,89.74Zm17.84,10.51a8.86,8.86,0,0,1,5.76,1.68,5.48,5.48,0,0,1,2.11,4.61c0,.58-.09,2.4-.28,5.47,0,.9-.08,1.82-.15,2.78s-.09,1.73-.09,2.4a2.06,2.06,0,0,0,.24,1.15,1.06,1.06,0,0,0,.86.29,5.39,5.39,0,0,0,1.25-.19l.48.38-.58,3.36a7.61,7.61,0,0,1-3.5,1.2,4.09,4.09,0,0,1-2.4-1,4.72,4.72,0,0,1-1.3-2.5h-.33a14,14,0,0,1-4.95,3.55,8,8,0,0,1-5.42-1.82,6.21,6.21,0,0,1-2-4.85,5.43,5.43,0,0,1,1.2-3.74,6.5,6.5,0,0,1,3.74-1.87l7.35-1.39v-2c0-2.08-1-3.12-3.07-3.12a8.53,8.53,0,0,0-3.17.67,20,20,0,0,0-3.7,2.11l-.48-.29-.72-4.22a17.15,17.15,0,0,1,4.42-2A16,16,0,0,1,818.47,100.25Zm-3.12,13.82a2.07,2.07,0,0,0-1.15.67,2.21,2.21,0,0,0-.34,1.34,2.77,2.77,0,0,0,.68,2,2.51,2.51,0,0,0,1.87.67q1.88,0,3.93-2.21l.1-3.55Zm29.5-13.44a10.25,10.25,0,0,1,1.2.1v5.9l-.67.24a4.62,4.62,0,0,0-1.78-.34q-2.77,0-5,3.6v3l.34,9.84h-6.38l.38-9.22-.29-12.67,6-.53,0,4.37H839C840.56,102.07,842.52,100.63,844.85,100.63Zm8.48,3.46,4,12.48h.38l4-12,.81-3.94H868l-7.3,20.83a20.47,20.47,0,0,1-2.59,5.23,11.35,11.35,0,0,1-3.6,3.26,22,22,0,0,1-5.57,2.21l-.48,0a13.4,13.4,0,0,1-2.69-3.74l.19-.62a16.76,16.76,0,0,0,5-1.58,11.81,11.81,0,0,0,3.74-3.22l-8.16-22.18,6.05-.29Z" transform="translate(-101.28 -89.3)" style="fill:#01100a"/><path d="M1015,107a8.29,8.29,0,0,1,4.66,2.59,7,7,0,0,1,1.54,4.7q0,9-14.07,9-4.12,0-8.45-.24l.34-9.22-.34-21.7,11,0c3.16,0,5.63.67,7.39,2a6.69,6.69,0,0,1,2.64,5.71,7.71,7.71,0,0,1-1.25,4.37A7.41,7.41,0,0,1,1015,107Zm-2-6.34a3.37,3.37,0,0,0-1.25-3c-.83-.61-2.29-.91-4.37-.91h-2.35l-.15,8.4,4.52.14a4.82,4.82,0,0,0,2.68-1.58A4.68,4.68,0,0,0,1013,100.63Zm-4.8,18a7.76,7.76,0,0,0,4.65-1.2,4,4,0,0,0,1.68-3.46q0-3.41-4.41-4.22l-5.33.1,0,3.41.14,5.18A29.27,29.27,0,0,0,1008.23,118.58Zm26.21-18.34a8.9,8.9,0,0,1,5.76,1.68,5.48,5.48,0,0,1,2.11,4.61c0,.58-.09,2.4-.29,5.47,0,.9-.08,1.82-.14,2.78s-.1,1.73-.1,2.4a2.06,2.06,0,0,0,.24,1.15,1.09,1.09,0,0,0,.87.29,5.47,5.47,0,0,0,1.25-.19l.48.38-.58,3.36a7.61,7.61,0,0,1-3.5,1.2,4.09,4.09,0,0,1-2.4-1,4.65,4.65,0,0,1-1.3-2.5h-.34a14,14,0,0,1-4.94,3.55,8,8,0,0,1-5.42-1.82,6.18,6.18,0,0,1-2-4.85,5.43,5.43,0,0,1,1.2-3.74,6.5,6.5,0,0,1,3.74-1.87l7.35-1.39v-2q0-3.12-3.08-3.12a8.52,8.52,0,0,0-3.16.67,20,20,0,0,0-3.7,2.11l-.48-.29-.72-4.22a17.15,17.15,0,0,1,4.42-2A15.92,15.92,0,0,1,1034.44,100.25Zm-3.12,13.82a2,2,0,0,0-1.15.67,2.14,2.14,0,0,0-.34,1.34,2.81,2.81,0,0,0,.67,2,2.55,2.55,0,0,0,1.88.67c1.24,0,2.56-.74,3.93-2.21l.1-3.55Zm26.61-13.82a14.5,14.5,0,0,1,3.12.34,11,11,0,0,1,2.79.86l-1.06,5.09-.53.24a9.27,9.27,0,0,0-4.36-1.34,4,4,0,0,0-3.41,1.58,7.35,7.35,0,0,0-1.2,4.51,8.66,8.66,0,0,0,1.29,5.14,4.32,4.32,0,0,0,3.7,1.78,11.75,11.75,0,0,0,4.8-1.2l.48.38-.62,4.94a19.46,19.46,0,0,1-5.91.91,9,9,0,0,1-7.2-3q-2.59-3-2.59-8.4,0-5.57,2.83-8.69A10,10,0,0,1,1057.93,100.25Zm15.36,12.91.33,9.84h-6.38l.33-9.26-.28-24,6.38-.48Zm6.48-2.4q2.58,4.18,7.77,11.18l0,.67a29.22,29.22,0,0,1-3.6.58l-2.3.29-.67-.29a101.2,101.2,0,0,1-7.3-11.86v-.43l5.57-7.92,1.15-2.3h6.72Zm31.75-7.06c-.87.22-2.1.46-3.7.72l-.09.19a7.58,7.58,0,0,1-1.92,9,10.86,10.86,0,0,1-7.06,2.11,16.85,16.85,0,0,1-2.78-.24,4.22,4.22,0,0,0-.58.67,1.06,1.06,0,0,0-.14.58c0,.58.38,1,1.15,1.2a27.3,27.3,0,0,0,3.65.67,37.19,37.19,0,0,1,4.7.82,7.52,7.52,0,0,1,3.26,1.68,4.25,4.25,0,0,1,1.4,3.41,6.23,6.23,0,0,1-1.44,4,9,9,0,0,1-3.89,2.83,15,15,0,0,1-5.67,1q-4.36,0-6.72-1.78a5.63,5.63,0,0,1-2.35-4.7,13.54,13.54,0,0,1,4-3.6V122a6.1,6.1,0,0,1-2.55-1.58,4.1,4.1,0,0,1-.91-2.78,15.3,15.3,0,0,1,3.26-2.93v-.24a6.89,6.89,0,0,1-2.64-2.5,7.66,7.66,0,0,1-.86-3.7,7.13,7.13,0,0,1,2.59-5.86,10.86,10.86,0,0,1,7.06-2.11,12.3,12.3,0,0,1,4.7.86,43.72,43.72,0,0,0,7.06-1.92l.48.43Zm-12.58,8.16a4,4,0,0,0,3-1,4,4,0,0,0,1-2.93q0-3.65-3.75-3.65-4,0-4,3.7a4.09,4.09,0,0,0,1,2.93A3.83,3.83,0,0,0,1098.94,111.86Zm5.09,13.78a1.79,1.79,0,0,0-1.39-1.78,20.75,20.75,0,0,0-4.18-.82l-1.63-.24a7.73,7.73,0,0,0-1.73,1.49,2.43,2.43,0,0,0-.57,1.54,2.32,2.32,0,0,0,1.15,2,6.08,6.08,0,0,0,3.36.77,6.91,6.91,0,0,0,3.6-.82A2.37,2.37,0,0,0,1104,125.64Zm22.37-25a10.25,10.25,0,0,1,1.2.1v5.9l-.67.24a4.66,4.66,0,0,0-1.78-.34q-2.79,0-5,3.6v3l.34,9.84h-6.39l.39-9.22-.29-12.67,6.05-.53-.05,4.37h.38Q1122.9,100.63,1126.4,100.63Zm13.61-.38c3.27,0,5.76,1,7.49,2.88s2.59,4.69,2.59,8.3c0,3.9-.92,6.9-2.78,9s-4.53,3.07-8,3.07c-3.26,0-5.76-1-7.48-2.88s-2.6-4.69-2.6-8.3q0-5.86,2.79-8.93C1133.85,101.29,1136.53,100.25,1140,100.25Zm-.43,4.32a3.8,3.8,0,0,0-3.36,1.54,9.3,9.3,0,0,0-1,4.94c0,2.94.36,5,1.06,6.29a3.66,3.66,0,0,0,3.46,1.87,3.71,3.71,0,0,0,3.31-1.49,9.09,9.09,0,0,0,1.05-5c0-2.91-.36-5-1.1-6.24A3.6,3.6,0,0,0,1139.58,104.57Zm36.2,14.26-.58,3.36a7,7,0,0,1-3.64,1.2,4.35,4.35,0,0,1-2.31-1.1,5.47,5.47,0,0,1-1.39-2.5h-.43a13.27,13.27,0,0,1-5.67,3.5,8.36,8.36,0,0,1-5.56-1.63,6,6,0,0,1-1.83-4.8l.1-5.66-.24-10.08,6.19-.53-.14,14.16a3.67,3.67,0,0,0,.67,2.54,2.65,2.65,0,0,0,2.16.86,6.21,6.21,0,0,0,4.17-1.87V101.11l6.1-.53-.43,16.61a2,2,0,0,0,.24,1.1,1.07,1.07,0,0,0,.86.34,5.54,5.54,0,0,0,1.3-.19Zm17.21-9.74a3.58,3.58,0,0,0-.76-2.59,2.74,2.74,0,0,0-2.26-1,7.36,7.36,0,0,0-4.61,2.06v5.57l.29,9.84h-6.38l.33-9.22-.24-12.67,6-.53v3.26h.34a16.29,16.29,0,0,1,5.76-3.46,8.19,8.19,0,0,1,5.56,1.68,5.66,5.66,0,0,1,1.83,4.75l-.15,6.38L1199,123h-6.43Zm30.31,4.08.14,4a2.47,2.47,0,0,0,.19,1.15,1,1,0,0,0,.82.29,5.47,5.47,0,0,0,1.29-.19l.44.38-.53,3.36a8.23,8.23,0,0,1-3.55,1.2,4.36,4.36,0,0,1-2.5-1,4.44,4.44,0,0,1-1.39-2.35h-.39a19,19,0,0,1-4.8,3.31,9.16,9.16,0,0,1-7.29-3q-2.59-3-2.59-8.35,0-5.66,3-8.69t8.26-3a18.26,18.26,0,0,1,3.07.29l-.1-10.8,6.34-.48Zm-9.36-8.54q-4.8,0-4.8,6.1a11.28,11.28,0,0,0,1.15,5.71,3.7,3.7,0,0,0,3.36,1.92,5.21,5.21,0,0,0,3.89-2l.09-2.64-.14-8.26A8.49,8.49,0,0,0,1213.94,104.62Z" transform="translate(-101.28 -89.3)" style="fill:#01100a"/><path d="M1399.84,92.62l-.38,4.85-5.81-.29h-1.92l-.24,16,.29,9.79h-6.53l.34-9.22-.24-16.61h-1.92l-5.91.29-.43-.53.43-4.85h21.94Zm17.83,20-13,.1q.43,6,6.1,6a16,16,0,0,0,6.62-1.68l.53.34-1,4.75a19.89,19.89,0,0,1-6.86,1.34,11.14,11.14,0,0,1-8.31-3.07q-3-3.07-3-8.5t2.92-8.5a10.28,10.28,0,0,1,7.92-3.17,8.8,8.8,0,0,1,6.58,2.35,8.65,8.65,0,0,1,2.35,6.48,20.37,20.37,0,0,1-.24,2.78Zm-4.61-4.27a4.17,4.17,0,0,0-.86-2.88,3.16,3.16,0,0,0-2.54-1,4.23,4.23,0,0,0-3.12,1.25,6.23,6.23,0,0,0-1.68,3.5L1413,109Zm15.49-5.18,3.08,5,3-5.18,1.2-2.26h5.62L1435,111.67l6.72,11.14-6.72.48-1.1-2.83-3.17-5.14-3.31,5.42-1.06,2.26h-5.61l6.48-11.18-6.53-10.94,6.82-.34Zm25.63,15.12a7.36,7.36,0,0,0,3.22-.82l.53.48-.63,3.79a14.49,14.49,0,0,1-5,1.54q-6.48-.67-6.48-6.34l.24-4-.05-8.26h-3l-.24-.34.33-3.5H1446v-3.7l5.81-1.87.43.38-.14,5.18h5.71l.19.34-.28,3.5H1452l-.28,10.75a3.41,3.41,0,0,0,.57,2.21A2.53,2.53,0,0,0,1454.18,118.3Z" transform="translate(-101.28 -89.3)" style="fill:#01100a"/></svg>