<svg width="600" height="595" viewBox="0 0 600 595" fill="none" xmlns="http://www.w3.org/2000/svg">
<line x1="1" y1="47" x2="599" y2="47" stroke="#0047FF" stroke-width="2" stroke-linecap="round" stroke-dasharray="2 5"/>
<line x1="1" y1="97" x2="599" y2="97" stroke="#FFB800" stroke-width="2" stroke-linecap="round" stroke-dasharray="2 5"/>
<line x1="1" y1="147" x2="599" y2="147" stroke="#0047FF" stroke-width="2" stroke-linecap="round" stroke-dasharray="2 5"/>
<line x1="1" y1="197" x2="599" y2="197" stroke="#FFB800" stroke-width="2" stroke-linecap="round" stroke-dasharray="2 5"/>
<line x1="1" y1="247" x2="599" y2="247" stroke="#0047FF" stroke-width="2" stroke-linecap="round" stroke-dasharray="2 5"/>
<line x1="1" y1="297" x2="599" y2="297" stroke="#FFB800" stroke-width="2" stroke-linecap="round" stroke-dasharray="2 5"/>
<line x1="1" y1="347" x2="599" y2="347" stroke="#0047FF" stroke-width="2" stroke-linecap="round" stroke-dasharray="2 5"/>
<line x1="1" y1="397" x2="599" y2="397" stroke="#FFB800" stroke-width="2" stroke-linecap="round" stroke-dasharray="2 5"/>
<line x1="1" y1="447" x2="599" y2="447" stroke="#0047FF" stroke-width="2" stroke-linecap="round" stroke-dasharray="2 5"/>
<line x1="1" y1="497" x2="599" y2="497" stroke="#FFB800" stroke-width="2" stroke-linecap="round" stroke-dasharray="2 5"/>
<line x1="1" y1="547" x2="599" y2="547" stroke="#0047FF" stroke-width="2" stroke-linecap="round" stroke-dasharray="2 5"/>
<line x1="45" y1="1" x2="45" y2="594" stroke="#FFB800" stroke-width="2" stroke-linecap="round" stroke-dasharray="2 5"/>
<line x1="95" y1="1" x2="95" y2="594" stroke="#0047FF" stroke-width="2" stroke-linecap="round" stroke-dasharray="2 5"/>
<line x1="145" y1="1" x2="145" y2="594" stroke="#FFB800" stroke-width="2" stroke-linecap="round" stroke-dasharray="2 5"/>
<line x1="195" y1="1" x2="195" y2="594" stroke="#0047FF" stroke-width="2" stroke-linecap="round" stroke-dasharray="2 5"/>
<line x1="245" y1="1" x2="245" y2="594" stroke="#FFB800" stroke-width="2" stroke-linecap="round" stroke-dasharray="2 5"/>
<line x1="295" y1="1" x2="295" y2="594" stroke="#0047FF" stroke-width="2" stroke-linecap="round" stroke-dasharray="2 5"/>
<line x1="345" y1="1" x2="345" y2="594" stroke="#FFB800" stroke-width="2" stroke-linecap="round" stroke-dasharray="2 5"/>
<line x1="395" y1="1" x2="395" y2="594" stroke="#0047FF" stroke-width="2" stroke-linecap="round" stroke-dasharray="2 5"/>
<line x1="445" y1="1" x2="445" y2="594" stroke="#FFB800" stroke-width="2" stroke-linecap="round" stroke-dasharray="2 5"/>
<line x1="495" y1="1" x2="495" y2="594" stroke="#0047FF" stroke-width="2" stroke-linecap="round" stroke-dasharray="2 5"/>
<line x1="545" y1="1" x2="545" y2="594" stroke="#FFB800" stroke-width="2" stroke-linecap="round" stroke-dasharray="2 5"/>
</svg>
